<svg width="120" height="120" viewBox="0 0 120 120" fill="none" xmlns="http://www.w3.org/2000/svg">
    <g>
        <g filter="url(#filter0_f_2002_59)">
            <path
                d="M100.863 44.6228C100.991 46.2093 100.655 48.0966 100.127 49.9294C99.7879 51.1092 100.099 51.8767 100.892 52.7244C104.688 56.768 107.009 61.5963 107.785 67.0632C110.029 82.8826 99.4343 95.9355 85.5484 98.51C77.8368 99.9391 70.7299 98.2237 64.3473 93.6531C63.4746 93.026 62.987 93.1291 62.3282 93.8593C61.2102 95.0965 60.021 96.2649 58.8574 97.459C56.9153 99.4551 55.7517 99.4694 53.8466 97.4676C49.4176 92.8083 45.0114 88.1289 40.5796 83.4725C33.2929 75.8148 26.0434 68.1199 18.6912 60.5281C6.84725 48.2827 11.0994 28.5228 26.9503 22.4288C35.7827 19.0323 46.4032 21.8445 52.4378 29.1786C53.3761 30.3184 54.3029 31.4696 55.2412 32.6065C56.3763 33.984 56.4048 33.9697 57.5113 32.6266C59.4478 30.2783 61.3158 27.8813 63.7056 25.9311C75.5382 16.2774 94.144 21.4608 99.3487 35.8769C99.9191 37.4577 100.281 39.0757 100.612 40.7109C100.852 41.8908 100.849 43.0821 100.863 44.62V44.6228ZM52.9968 71.1498C53.2192 61.3414 57.2832 53.4861 65.4681 48.1682C74.7083 42.1657 84.3962 42.0254 94.1383 47.1916C95.5158 47.9219 95.7012 47.8474 95.8181 46.2724C95.9835 44.0759 95.8837 41.9051 95.3532 39.7401C92.2104 26.9077 76.6676 21.6785 66.5347 30.095C63.4718 32.638 61.3129 36.0087 58.7462 39.0041C57.2119 40.794 55.5891 40.8083 54.1004 39.0041C52.1897 36.6902 50.316 34.3448 48.3539 32.0767C42.4476 25.2524 31.7586 24.021 24.5519 29.3018C15.3117 36.0688 14.1966 48.5347 22.1705 56.957C32.8395 68.2316 43.5769 79.4432 54.2887 90.6777C56.4219 92.9143 56.382 92.8484 58.5665 90.6691C59.5162 89.7212 59.5076 89.0998 58.7034 88.0516C54.8876 83.0945 52.9169 77.4787 52.9968 71.1469V71.1498ZM58.0161 71.2586C58.0161 83.8333 68.0377 93.9538 80.5034 93.9739C92.969 93.9939 102.891 83.8791 103.093 71.3216C103.287 59.3654 93.2542 48.5347 80.4948 48.5576C67.8038 48.5777 57.6568 59.3597 58.0161 71.2586Z"
                fill="#C634FF" />
            <path
                d="M80.5579 55.0443C82.0295 55.0443 83.5039 55.007 84.9755 55.0557C86.5669 55.1073 87.4282 55.975 87.4681 57.5701C87.5137 59.3341 87.5194 61.1011 87.4681 62.8623C87.4396 63.836 87.7675 64.2483 88.7743 64.2168C90.4341 64.1653 92.0996 64.1853 93.7622 64.2111C95.7186 64.2398 96.6883 65.1075 96.7453 67.0749C96.8223 69.8384 96.8166 72.6076 96.7539 75.3712C96.7082 77.3615 95.7072 78.2865 93.6824 78.3495C92.3049 78.3924 90.9274 78.3609 89.55 78.3638C88.1754 78.3657 87.4871 79.0349 87.4852 80.3713C87.4852 81.849 87.5052 83.3295 87.4766 84.8072C87.4424 86.5885 86.6382 87.4533 84.8472 87.4877C81.9981 87.5421 79.1462 87.5392 76.2972 87.4906C74.4263 87.4591 73.6192 86.5999 73.5907 84.7414C73.565 83.1692 73.4966 81.5884 73.6078 80.0219C73.7048 78.6387 73.1373 78.2779 71.8767 78.3466C70.408 78.4268 68.9336 78.3924 67.462 78.3552C65.286 78.3008 64.3391 77.3672 64.3021 75.1793C64.2593 72.5561 64.2536 69.9329 64.3078 67.3097C64.3534 65.0846 65.2803 64.2283 67.5019 64.2083C69.1161 64.1939 70.7331 64.1739 72.3473 64.214C73.2656 64.2369 73.6221 63.8818 73.5993 62.9539C73.5565 61.1899 73.5622 59.4258 73.5993 57.6617C73.6335 55.9635 74.472 55.133 76.146 55.0443C76.2401 55.0385 76.3371 55.0385 76.4312 55.0385C77.8087 55.0385 79.1862 55.0385 80.5636 55.0385V55.0443H80.5579ZM87.8616 73.3579C88.2409 73.3579 88.6203 73.3579 89.0024 73.3579C91.8458 73.3579 91.8201 73.3579 91.6718 70.4856C91.6262 69.5921 91.3096 69.1826 90.3941 69.1998C88.8284 69.2313 87.2599 69.2227 85.6942 69.1998C83.675 69.1683 82.6284 68.1631 82.5428 66.1356C82.4915 64.8984 82.5257 63.6556 82.5257 62.4184C82.5229 59.9613 82.5257 60.0157 80.0816 60.0014C78.881 59.9957 78.4874 60.4653 78.5331 61.6137C78.593 63.1372 78.5873 64.6665 78.5245 66.19C78.4418 68.1488 77.3923 69.1568 75.4673 69.1998C74.3294 69.2255 73.1886 69.2055 72.0478 69.2055C69.2929 69.2055 69.3328 69.2055 69.3927 71.9747C69.4155 73.0315 69.8091 73.4124 70.8415 73.3751C72.3587 73.3207 73.8788 73.3465 75.3988 73.3694C77.4465 73.398 78.4447 74.3574 78.5274 76.4365C78.5873 77.96 78.5873 79.4892 78.5359 81.0127C78.4988 82.0867 78.8411 82.6565 79.9932 82.5363C80.3697 82.4962 80.7547 82.5019 81.1312 82.5363C82.1949 82.6336 82.5657 82.1325 82.5371 81.1044C82.4915 79.5809 82.4944 78.0516 82.5428 76.5281C82.6113 74.3574 83.598 73.4038 85.7313 73.3694C86.4442 73.3579 87.1544 73.3694 87.8673 73.3665L87.8616 73.3579Z"
                fill="#C634FF" />
        </g>
        <g>
            <path
                d="M100.863 44.6228C100.991 46.2093 100.655 48.0966 100.127 49.9294C99.7879 51.1092 100.099 51.8767 100.892 52.7244C104.688 56.768 107.009 61.5963 107.785 67.0632C110.029 82.8826 99.4343 95.9355 85.5484 98.51C77.8368 99.9391 70.7299 98.2237 64.3473 93.6531C63.4746 93.026 62.987 93.1291 62.3282 93.8593C61.2102 95.0965 60.021 96.2649 58.8574 97.459C56.9153 99.4551 55.7517 99.4694 53.8466 97.4676C49.4176 92.8083 45.0114 88.1289 40.5796 83.4725C33.2929 75.8148 26.0434 68.1199 18.6912 60.5281C6.84725 48.2827 11.0994 28.5228 26.9503 22.4288C35.7827 19.0323 46.4032 21.8445 52.4378 29.1786C53.3761 30.3184 54.3029 31.4696 55.2412 32.6065C56.3763 33.984 56.4048 33.9697 57.5113 32.6266C59.4478 30.2783 61.3158 27.8813 63.7056 25.9311C75.5382 16.2774 94.144 21.4608 99.3487 35.8769C99.9191 37.4577 100.281 39.0757 100.612 40.7109C100.852 41.8908 100.849 43.0821 100.863 44.62V44.6228ZM52.9968 71.1498C53.2192 61.3414 57.2832 53.4861 65.4681 48.1682C74.7083 42.1657 84.3962 42.0254 94.1383 47.1916C95.5158 47.9219 95.7012 47.8474 95.8181 46.2724C95.9835 44.0759 95.8837 41.9051 95.3532 39.7401C92.2104 26.9077 76.6676 21.6785 66.5347 30.095C63.4718 32.638 61.3129 36.0087 58.7462 39.0041C57.2119 40.794 55.5891 40.8083 54.1004 39.0041C52.1897 36.6902 50.316 34.3448 48.3539 32.0767C42.4476 25.2524 31.7586 24.021 24.5519 29.3018C15.3117 36.0688 14.1966 48.5347 22.1705 56.957C32.8395 68.2316 43.5769 79.4432 54.2887 90.6777C56.4219 92.9143 56.382 92.8484 58.5665 90.6691C59.5162 89.7212 59.5076 89.0998 58.7034 88.0516C54.8876 83.0945 52.9169 77.4787 52.9968 71.1469V71.1498ZM58.0161 71.2586C58.0161 83.8333 68.0377 93.9538 80.5034 93.9739C92.969 93.9939 102.891 83.8791 103.093 71.3216C103.287 59.3654 93.2542 48.5347 80.4948 48.5576C67.8038 48.5777 57.6568 59.3597 58.0161 71.2586Z"
                fill="white" fill-opacity="0.6" />
            <path
                d="M80.5579 55.0443C82.0295 55.0443 83.5039 55.007 84.9755 55.0557C86.5669 55.1073 87.4282 55.975 87.4681 57.5701C87.5137 59.3341 87.5194 61.1011 87.4681 62.8623C87.4396 63.836 87.7675 64.2483 88.7743 64.2168C90.4341 64.1653 92.0996 64.1853 93.7622 64.2111C95.7186 64.2398 96.6883 65.1075 96.7453 67.0749C96.8223 69.8384 96.8166 72.6076 96.7539 75.3712C96.7082 77.3615 95.7072 78.2865 93.6824 78.3495C92.3049 78.3924 90.9274 78.3609 89.55 78.3638C88.1754 78.3657 87.4871 79.0349 87.4852 80.3713C87.4852 81.849 87.5052 83.3295 87.4766 84.8072C87.4424 86.5885 86.6382 87.4533 84.8472 87.4877C81.9981 87.5421 79.1462 87.5392 76.2972 87.4906C74.4263 87.4591 73.6192 86.5999 73.5907 84.7414C73.565 83.1692 73.4966 81.5884 73.6078 80.0219C73.7048 78.6387 73.1373 78.2779 71.8767 78.3466C70.408 78.4268 68.9336 78.3924 67.462 78.3552C65.286 78.3008 64.3391 77.3672 64.3021 75.1793C64.2593 72.5561 64.2536 69.9329 64.3078 67.3097C64.3534 65.0846 65.2803 64.2283 67.5019 64.2083C69.1161 64.1939 70.7331 64.1739 72.3473 64.214C73.2656 64.2369 73.6221 63.8818 73.5993 62.9539C73.5565 61.1899 73.5622 59.4258 73.5993 57.6617C73.6335 55.9635 74.472 55.133 76.146 55.0443C76.2401 55.0385 76.3371 55.0385 76.4312 55.0385C77.8087 55.0385 79.1862 55.0385 80.5636 55.0385V55.0443H80.5579ZM87.8616 73.3579C88.2409 73.3579 88.6203 73.3579 89.0024 73.3579C91.8458 73.3579 91.8201 73.3579 91.6718 70.4856C91.6262 69.5921 91.3096 69.1826 90.3941 69.1998C88.8284 69.2313 87.2599 69.2227 85.6942 69.1998C83.675 69.1683 82.6284 68.1631 82.5428 66.1356C82.4915 64.8984 82.5257 63.6556 82.5257 62.4184C82.5229 59.9613 82.5257 60.0157 80.0816 60.0014C78.881 59.9957 78.4874 60.4653 78.5331 61.6137C78.593 63.1372 78.5873 64.6665 78.5245 66.19C78.4418 68.1488 77.3923 69.1568 75.4673 69.1998C74.3294 69.2255 73.1886 69.2055 72.0478 69.2055C69.2929 69.2055 69.3328 69.2055 69.3927 71.9747C69.4155 73.0315 69.8091 73.4124 70.8415 73.3751C72.3587 73.3207 73.8788 73.3465 75.3988 73.3694C77.4465 73.398 78.4447 74.3574 78.5274 76.4365C78.5873 77.96 78.5873 79.4892 78.5359 81.0127C78.4988 82.0867 78.8411 82.6565 79.9932 82.5363C80.3697 82.4962 80.7547 82.5019 81.1312 82.5363C82.1949 82.6336 82.5657 82.1325 82.5371 81.1044C82.4915 79.5809 82.4944 78.0516 82.5428 76.5281C82.6113 74.3574 83.598 73.4038 85.7313 73.3694C86.4442 73.3579 87.1544 73.3694 87.8673 73.3665L87.8616 73.3579Z"
                fill="white" fill-opacity="0.6" />
        </g>
    </g>
    <defs>
        <filter id="filter0_f_2002_59" x="-3.0874" y="6" width="126.175" height="108" filterUnits="userSpaceOnUse"
            color-interpolation-filters="sRGB">
            <feFlood flood-opacity="0" result="BackgroundImageFix" />
            <feBlend mode="normal" in="SourceGraphic" in2="BackgroundImageFix" result="shape" />
            <feGaussianBlur stdDeviation="7.5" result="effect1_foregroundBlur_2002_59" />
        </filter>

    </defs>
</svg>