<svg width="120" height="120" viewBox="0 0 120 120" fill="none" xmlns="http://www.w3.org/2000/svg">
    <g>
        <g filter="url(#filter0_f_2002_59)">
            <path
                d="M48.9909 104C38.0824 104 27.1776 104 16.2691 104C13.4826 104 13.0584 103.613 13.0584 101.052C13.0547 80.5493 13.0547 60.0463 13.0584 39.5432C13.0584 36.9657 13.4826 36.5784 16.2435 36.5716C18.4377 36.5647 20.6318 36.5305 22.8259 36.5819C23.9925 36.6093 24.5337 36.2117 24.4532 35.0944C24.4094 34.4706 24.4276 33.8365 24.4642 33.2093C24.7019 29.1648 27.8212 26.2995 31.9827 26.2892C36.1772 26.2789 39.3002 29.086 39.5891 33.1236C39.7524 35.4177 41.0616 36.5647 43.5165 36.5647C45.2828 36.5647 47.0491 36.5579 48.819 36.5784C50.2233 36.5956 50.9729 37.2811 50.9802 38.6006C50.9949 42.0829 50.9949 45.5687 50.9802 49.051C50.9766 50.4905 50.0331 51.0972 48.6362 51.1383C46.8114 51.1931 44.9793 51.1383 43.1545 51.1794C40.9933 51.2343 39.6329 52.475 39.6256 54.3258C39.6183 56.1869 40.964 57.4448 43.1179 57.5065C44.822 57.5545 46.5298 57.4962 48.2376 57.5339C50.333 57.5819 50.9693 58.1817 50.9875 60.1148C51.0131 62.3975 51.0387 64.6836 50.9802 66.9663C50.951 68.0939 51.4337 68.4984 52.6002 68.4504C54.0008 68.3921 55.4051 68.3784 56.802 68.4504C58.1221 68.5189 58.5463 67.9568 58.4622 66.8155C58.4147 66.1917 58.4329 65.5576 58.4805 64.9304C58.7877 60.9031 61.9289 58.1303 66.1453 58.1577C70.2154 58.1817 73.3018 60.9991 73.598 64.9647C73.7711 67.277 75.1315 68.4332 77.6791 68.4332C79.3247 68.4332 80.9703 68.447 82.6159 68.4332C84.1847 68.423 85.0002 69.1153 85.0002 70.6097C85.0002 81.0052 85.0148 91.3972 84.9855 101.793C84.9819 103.524 84.3163 103.983 82.082 103.983C71.0528 103.99 60.0237 103.986 48.9945 103.986L48.9909 104ZM31.8474 100.315C36.3564 100.315 40.869 100.285 45.3779 100.336C46.6395 100.35 47.1222 99.9522 47.082 98.7525C47.0125 96.5281 47.0491 94.2969 47.0674 92.069C47.0857 90.0399 47.711 89.4538 49.9234 89.4093C51.6275 89.375 53.3389 89.4333 55.043 89.3784C57.0836 89.3133 58.4037 88.0657 58.4293 86.2766C58.4585 84.4086 57.1201 83.1268 54.9772 83.0616C53.1488 83.0068 51.3203 83.0616 49.4919 83.0205C47.8829 82.9828 47.0308 82.2356 47.0564 80.6556C47.0893 78.4277 46.9906 76.1964 47.0857 73.972C47.1478 72.5702 46.6651 72.0869 45.1256 72.0972C36.4112 72.1555 27.6969 72.1486 18.9789 72.1006C17.5235 72.0938 16.9384 72.4365 16.9493 73.9138C17.0151 82.1397 17.0078 90.3656 16.953 98.5915C16.9457 99.9624 17.4467 100.363 18.8619 100.343C23.188 100.278 27.514 100.319 31.8438 100.319L31.8474 100.315ZM31.9937 68.4401C35.9541 68.4401 39.9145 68.4504 43.8713 68.4401C47.4477 68.4298 47.0491 68.7623 47.0601 65.376C47.0747 61.5749 47.0601 61.5749 43.1216 61.4447C43.0009 61.4412 42.8766 61.4447 42.7559 61.4344C38.7004 61.1807 35.4714 58.0789 35.4312 54.4047C35.391 50.6756 38.6821 47.4846 42.8144 47.2618C43.725 47.2138 44.6429 47.2104 45.5534 47.2447C46.6359 47.2858 47.1076 46.8677 47.071 45.8292C47.0198 44.4616 47.0089 43.0872 47.0747 41.7196C47.1295 40.592 46.6249 40.2116 45.4547 40.2355C42.957 40.2835 40.4594 40.2253 37.9617 40.2527C36.2796 40.2732 35.4787 39.4849 35.4348 37.9768C35.391 36.4928 35.4422 35.0087 35.3983 33.5246C35.3398 31.5127 33.7966 29.9703 31.9535 30.0183C30.1543 30.0663 28.7062 31.5504 28.6477 33.4834C28.6038 34.9093 28.666 36.3385 28.6148 37.7643C28.5489 39.6152 27.8944 40.2184 25.9416 40.2424C23.5646 40.2698 21.1876 40.3212 18.8143 40.2253C17.326 40.1636 16.9493 40.712 16.9566 42.0247C17.0042 50.2471 17.0078 58.4662 16.9566 66.6887C16.9493 68.0219 17.3772 68.4915 18.8326 68.4675C23.2172 68.3955 27.6055 68.4401 31.9901 68.4435L31.9937 68.4401ZM66.0319 100.315C70.4787 100.315 74.9255 100.288 79.3722 100.333C80.6156 100.346 81.0983 99.9761 81.091 98.7628C81.0507 90.4272 81.0544 82.0917 81.091 73.7561C81.0946 72.6319 80.7984 72.0664 79.46 72.1041C76.966 72.1726 74.4647 72.0972 71.9671 72.128C70.2812 72.1486 69.4913 71.3466 69.4475 69.8419C69.4036 68.3578 69.4548 66.8738 69.4109 65.3897C69.3524 63.3812 67.8019 61.8388 65.9551 61.8937C64.156 61.9485 62.7188 63.4326 62.6603 65.3657C62.6164 66.7915 62.6786 68.2207 62.6274 69.6466C62.5616 71.4974 61.907 72.0903 59.9432 72.1143C57.8113 72.1418 55.6793 72.1212 53.5474 72.1212C50.9985 72.1212 50.951 72.1246 51.0131 74.589C51.0497 75.9942 50.3951 77.6805 51.3642 78.7362C52.2638 79.713 54.0228 79.0138 55.3941 79.1235C59.3654 79.4422 62.5287 82.455 62.6237 86.0744C62.7188 89.6595 59.6507 92.8059 55.7013 93.2995C54.18 93.4914 52.081 92.5317 51.2728 93.8821C50.5633 95.068 51.0387 96.8812 50.9949 98.4167C50.9949 98.4749 51.0022 98.5332 50.9949 98.588C50.7937 99.9556 51.4593 100.36 52.8745 100.339C57.2591 100.274 61.6473 100.315 66.0319 100.315Z"
                fill="#C634FF" />
            <path
                d="M87.9841 16.0001C93.2866 16.0001 98.589 15.9932 103.892 16.0001C106.499 16.0035 106.941 16.4285 106.941 18.9237C106.949 28.8633 106.949 38.8029 106.941 48.7426C106.941 51.0972 106.459 51.5428 103.946 51.5497C100.655 51.5599 97.364 51.5702 94.0728 51.5462C92.1017 51.5325 91.4435 50.9327 91.3813 49.0853C91.3265 47.4299 91.3996 45.771 91.3448 44.1155C91.2753 42.1207 89.8893 40.8663 87.8963 40.9005C85.9948 40.9348 84.6746 42.1756 84.6088 44.0949C84.5503 45.7504 84.6234 47.4093 84.5686 49.0648C84.5101 50.919 83.8482 51.5325 81.899 51.5462C78.4872 51.5702 75.0717 51.5702 71.6598 51.5462C69.5973 51.5325 69.0451 51.015 69.0159 49.1059C68.9866 47.2208 69.0086 45.3357 69.0086 43.4506C69.0086 40.9005 69.0086 40.9108 66.3646 40.8697C65.6369 40.8594 64.8946 40.832 64.1888 40.6915C60.0748 39.8723 57.7746 36.9521 58.0599 32.9763C58.3012 29.6174 61.3949 26.9371 65.3188 26.6834C67.7786 26.5258 69.0086 25.3045 69.0086 23.0195C69.0086 21.5902 68.9976 20.1644 69.0086 18.7352C69.0305 16.473 69.5059 16.0035 71.8938 15.9966C77.2585 15.9829 82.6195 15.9932 87.9841 15.9932V16.0001Z"
                fill="#C634FF" />
        </g>
        <g>
            <path
                d="M48.9909 104C38.0824 104 27.1776 104 16.2691 104C13.4826 104 13.0584 103.613 13.0584 101.052C13.0547 80.5493 13.0547 60.0463 13.0584 39.5432C13.0584 36.9657 13.4826 36.5784 16.2435 36.5716C18.4377 36.5647 20.6318 36.5305 22.8259 36.5819C23.9925 36.6093 24.5337 36.2117 24.4532 35.0944C24.4094 34.4706 24.4276 33.8365 24.4642 33.2093C24.7019 29.1648 27.8212 26.2995 31.9827 26.2892C36.1772 26.2789 39.3002 29.086 39.5891 33.1236C39.7524 35.4177 41.0616 36.5647 43.5165 36.5647C45.2828 36.5647 47.0491 36.5579 48.819 36.5784C50.2233 36.5956 50.9729 37.2811 50.9802 38.6006C50.9949 42.0829 50.9949 45.5687 50.9802 49.051C50.9766 50.4905 50.0331 51.0972 48.6362 51.1383C46.8114 51.1931 44.9793 51.1383 43.1545 51.1794C40.9933 51.2343 39.6329 52.475 39.6256 54.3258C39.6183 56.1869 40.964 57.4448 43.1179 57.5065C44.822 57.5545 46.5298 57.4962 48.2376 57.5339C50.333 57.5819 50.9693 58.1817 50.9875 60.1148C51.0131 62.3975 51.0387 64.6836 50.9802 66.9663C50.951 68.0939 51.4337 68.4984 52.6002 68.4504C54.0008 68.3921 55.4051 68.3784 56.802 68.4504C58.1221 68.5189 58.5463 67.9568 58.4622 66.8155C58.4147 66.1917 58.4329 65.5576 58.4805 64.9304C58.7877 60.9031 61.9289 58.1303 66.1453 58.1577C70.2154 58.1817 73.3018 60.9991 73.598 64.9647C73.7711 67.277 75.1315 68.4332 77.6791 68.4332C79.3247 68.4332 80.9703 68.447 82.6159 68.4332C84.1847 68.423 85.0002 69.1153 85.0002 70.6097C85.0002 81.0052 85.0148 91.3972 84.9855 101.793C84.9819 103.524 84.3163 103.983 82.082 103.983C71.0528 103.99 60.0237 103.986 48.9945 103.986L48.9909 104ZM31.8474 100.315C36.3564 100.315 40.869 100.285 45.3779 100.336C46.6395 100.35 47.1222 99.9522 47.082 98.7525C47.0125 96.5281 47.0491 94.2969 47.0674 92.069C47.0857 90.0399 47.711 89.4538 49.9234 89.4093C51.6275 89.375 53.3389 89.4333 55.043 89.3784C57.0836 89.3133 58.4037 88.0657 58.4293 86.2766C58.4585 84.4086 57.1201 83.1268 54.9772 83.0616C53.1488 83.0068 51.3203 83.0616 49.4919 83.0205C47.8829 82.9828 47.0308 82.2356 47.0564 80.6556C47.0893 78.4277 46.9906 76.1964 47.0857 73.972C47.1478 72.5702 46.6651 72.0869 45.1256 72.0972C36.4112 72.1555 27.6969 72.1486 18.9789 72.1006C17.5235 72.0938 16.9384 72.4365 16.9493 73.9138C17.0151 82.1397 17.0078 90.3656 16.953 98.5915C16.9457 99.9624 17.4467 100.363 18.8619 100.343C23.188 100.278 27.514 100.319 31.8438 100.319L31.8474 100.315ZM31.9937 68.4401C35.9541 68.4401 39.9145 68.4504 43.8713 68.4401C47.4477 68.4298 47.0491 68.7623 47.0601 65.376C47.0747 61.5749 47.0601 61.5749 43.1216 61.4447C43.0009 61.4412 42.8766 61.4447 42.7559 61.4344C38.7004 61.1807 35.4714 58.0789 35.4312 54.4047C35.391 50.6756 38.6821 47.4846 42.8144 47.2618C43.725 47.2138 44.6429 47.2104 45.5534 47.2447C46.6359 47.2858 47.1076 46.8677 47.071 45.8292C47.0198 44.4616 47.0089 43.0872 47.0747 41.7196C47.1295 40.592 46.6249 40.2116 45.4547 40.2355C42.957 40.2835 40.4594 40.2253 37.9617 40.2527C36.2796 40.2732 35.4787 39.4849 35.4348 37.9768C35.391 36.4928 35.4422 35.0087 35.3983 33.5246C35.3398 31.5127 33.7966 29.9703 31.9535 30.0183C30.1543 30.0663 28.7062 31.5504 28.6477 33.4834C28.6038 34.9093 28.666 36.3385 28.6148 37.7643C28.5489 39.6152 27.8944 40.2184 25.9416 40.2424C23.5646 40.2698 21.1876 40.3212 18.8143 40.2253C17.326 40.1636 16.9493 40.712 16.9566 42.0247C17.0042 50.2471 17.0078 58.4662 16.9566 66.6887C16.9493 68.0219 17.3772 68.4915 18.8326 68.4675C23.2172 68.3955 27.6055 68.4401 31.9901 68.4435L31.9937 68.4401ZM66.0319 100.315C70.4787 100.315 74.9255 100.288 79.3722 100.333C80.6156 100.346 81.0983 99.9761 81.091 98.7628C81.0507 90.4272 81.0544 82.0917 81.091 73.7561C81.0946 72.6319 80.7984 72.0664 79.46 72.1041C76.966 72.1726 74.4647 72.0972 71.9671 72.128C70.2812 72.1486 69.4913 71.3466 69.4475 69.8419C69.4036 68.3578 69.4548 66.8738 69.4109 65.3897C69.3524 63.3812 67.8019 61.8388 65.9551 61.8937C64.156 61.9485 62.7188 63.4326 62.6603 65.3657C62.6164 66.7915 62.6786 68.2207 62.6274 69.6466C62.5616 71.4974 61.907 72.0903 59.9432 72.1143C57.8113 72.1418 55.6793 72.1212 53.5474 72.1212C50.9985 72.1212 50.951 72.1246 51.0131 74.589C51.0497 75.9942 50.3951 77.6805 51.3642 78.7362C52.2638 79.713 54.0228 79.0138 55.3941 79.1235C59.3654 79.4422 62.5287 82.455 62.6237 86.0744C62.7188 89.6595 59.6507 92.8059 55.7013 93.2995C54.18 93.4914 52.081 92.5317 51.2728 93.8821C50.5633 95.068 51.0387 96.8812 50.9949 98.4167C50.9949 98.4749 51.0022 98.5332 50.9949 98.588C50.7937 99.9556 51.4593 100.36 52.8745 100.339C57.2591 100.274 61.6473 100.315 66.0319 100.315Z"
                fill="white" fill-opacity="0.77" />
            <path
                d="M87.9841 16.0001C93.2866 16.0001 98.589 15.9932 103.892 16.0001C106.499 16.0035 106.941 16.4285 106.941 18.9237C106.949 28.8633 106.949 38.8029 106.941 48.7426C106.941 51.0972 106.459 51.5428 103.946 51.5497C100.655 51.5599 97.364 51.5702 94.0728 51.5462C92.1017 51.5325 91.4435 50.9327 91.3813 49.0853C91.3265 47.4299 91.3996 45.771 91.3448 44.1155C91.2753 42.1207 89.8893 40.8663 87.8963 40.9005C85.9948 40.9348 84.6746 42.1756 84.6088 44.0949C84.5503 45.7504 84.6234 47.4093 84.5686 49.0648C84.5101 50.919 83.8482 51.5325 81.899 51.5462C78.4872 51.5702 75.0717 51.5702 71.6598 51.5462C69.5973 51.5325 69.0451 51.015 69.0159 49.1059C68.9866 47.2208 69.0086 45.3357 69.0086 43.4506C69.0086 40.9005 69.0086 40.9108 66.3646 40.8697C65.6369 40.8594 64.8946 40.832 64.1888 40.6915C60.0748 39.8723 57.7746 36.9521 58.0599 32.9763C58.3012 29.6174 61.3949 26.9371 65.3188 26.6834C67.7786 26.5258 69.0086 25.3045 69.0086 23.0195C69.0086 21.5902 68.9976 20.1644 69.0086 18.7352C69.0305 16.473 69.5059 16.0035 71.8938 15.9966C77.2585 15.9829 82.6195 15.9932 87.9841 15.9932V16.0001Z"
                fill="white" fill-opacity="0.77" />
        </g>
    </g>
    <defs>
        <filter id="filter0_f_2002_59" x="-1.94531" y="1" width="123.89" height="118" filterUnits="userSpaceOnUse"
            color-interpolation-filters="sRGB">
            <feFlood flood-opacity="0" result="BackgroundImageFix" />
            <feBlend mode="normal" in="SourceGraphic" in2="BackgroundImageFix" result="shape" />
            <feGaussianBlur stdDeviation="7.5" result="effect1_foregroundBlur_2002_59" />
        </filter>

    </defs>
</svg>