
<svg width="115" height="115" viewBox="0 0 115 115" fill="none" xmlns="http://www.w3.org/2000/svg">
    <g filter="url(#filter0_f_815_1795)">
        <path d="M65.4653 31.0059L72.8817 30.3451C79.5036 30.1285 94.8986 31.3352 99.1059 37.0838C99.4821 37.5987 99.7986 38.2507 99.9779 38.8652L100 75.5492C99.4733 81.1011 88.6175 83.4129 84.1402 84.0229C81.8319 84.3367 79.5036 84.4516 77.1819 84.5887C76.4914 87.7735 77.8813 91.0334 75.5375 93.7762C69.5973 100.732 49.1806 100.656 40.8523 99.2353C36.8288 98.5479 27.4581 96.1698 26.5662 91.4003C26.1833 89.3493 26.2364 80.1883 26.5086 77.9649C26.7299 76.1459 28.4164 74.5568 29.855 73.5711L31.6034 72.5588C25.8579 71.4007 18.1272 70.5366 15.1107 64.8277L15 23.5953C15.1638 22.2537 16.536 20.7707 17.5562 19.9596C25.838 13.3645 54.4458 13.3291 62.6944 19.9596C63.8386 20.879 65.4653 22.9742 65.4653 24.486V31.0059ZM35.9855 19.1352C31.8756 19.3938 26.367 20.269 22.6001 21.9023C17.9945 23.9003 17.7953 25.5203 22.5337 27.5735C31.2316 31.3418 49.2138 31.3683 57.8696 27.5072C61.0323 26.0972 62.794 24.7335 58.974 22.5675C53.3082 19.354 42.4259 18.7285 35.9833 19.1352H35.9855ZM18.9882 30.3428V36.6418C18.9882 37.2297 21.4603 38.6309 22.0402 38.8983C28.5647 41.9041 40.1331 42.5539 47.2042 41.6124C47.981 41.5085 48.738 41.2742 49.5104 41.1527C49.3422 36.9799 52.9585 34.6836 56.3956 33.3287C57.3761 32.942 60.6472 32.2546 61.1296 31.9143C61.3487 31.7595 61.4771 30.1262 60.9327 30.3451C60.5874 30.4843 59.9744 31.0324 59.4188 31.2667C49.5679 35.4085 33.1637 35.4925 23.0737 32.1198C21.6684 31.649 20.2962 31.028 18.9882 30.3428ZM70.954 34.6062C66.5586 34.8427 60.5099 35.7223 56.5682 37.7004C54.2134 38.8806 52.4229 39.9791 55.3045 41.9284C62.9378 47.0957 86.8094 47.0957 94.4427 41.9284C97.2534 40.0255 95.6599 38.9801 93.3272 37.7734C87.4445 34.7322 77.5139 34.2526 70.9562 34.6062H70.954ZM49.5303 45.3718C39.3407 46.7156 28.4452 46.3509 18.9882 42.0566V50.1236C18.9882 50.5414 21.3607 52.0752 21.8675 52.3316C28.4629 55.6313 41.7708 56.1794 48.9748 54.8755C49.1607 54.8423 49.5303 54.7053 49.5303 54.5462V45.374V45.3718ZM96.0074 45.8139C93.1524 47.2306 90.1159 48.2251 86.9798 48.844C79.373 50.3447 70.3675 50.3447 62.7586 48.8484C59.6114 48.2296 56.6103 47.204 53.7354 45.8139V51.8918C53.7354 52.588 55.9087 53.8676 56.5328 54.1815C65.1112 58.4913 83.5338 58.3366 92.3269 54.6279C92.9842 54.3517 96.0074 52.7316 96.0074 52.115V45.8161V45.8139ZM49.5303 58.8537C44.1854 59.6317 38.6569 59.8019 33.2655 59.2935C30.0409 58.9885 26.0284 58.2481 22.9808 57.1873C21.6219 56.7143 20.3736 55.9319 18.9882 55.5385V63.6055C18.9882 64.2686 21.6529 65.7361 22.3124 66.0323C28.5558 68.8325 38.6746 69.3895 45.4337 68.7972C46.7948 68.6778 48.1891 68.3883 49.5303 68.1363V58.8537ZM96.0074 57.3066C92.588 59.1808 88.6574 60.2218 84.802 60.8141C77.9831 61.8617 70.2148 61.8065 63.4269 60.5577C60.0939 59.9433 56.7121 58.9222 53.7354 57.3066V63.6055C53.7354 64.136 56.1986 65.6345 56.7497 65.8997C65.3679 70.0371 84.906 70.0304 93.4312 65.6742C93.9558 65.4068 96.0074 64.1161 96.0074 63.6055V57.3066ZM96.0074 69.0204C88.8234 72.4837 80.6766 73.1733 72.7688 73.0009C73.404 73.7037 74.4221 74.0706 75.1015 74.7579C76.7039 76.3802 77.1266 78.2676 76.9761 80.5132C81.1812 80.1993 85.3951 79.8899 89.4674 78.7318C90.6692 78.3892 96.0096 76.4597 96.0096 75.0983V69.0204H96.0074ZM51.4735 73.0561C46.4008 73.076 40.2415 73.6949 35.4743 75.4232C31.4772 76.873 28.0468 78.6942 33.7391 81.3618C42.2312 85.3423 61.6652 85.4683 70.0422 81.2116C73.6608 79.3727 73.6497 78.1041 70.0422 76.2697C65.1532 73.7855 56.9379 73.0318 51.4735 73.0539V73.0561ZM72.7688 84.7124C71.1886 84.929 69.6726 85.8661 68.1123 86.3612C58.6442 89.3648 43.4042 89.2874 34.0446 85.9214C32.8693 85.4992 31.7141 84.6771 30.4968 84.4914V90.1273C30.4968 91.3451 33.0796 92.6955 34.1087 93.1508C42.8309 97.0053 60.6184 96.9345 69.3074 93.08C69.9205 92.8082 72.7688 91.3694 72.7688 90.7903V84.7124Z" fill="#C634FF"/>
    </g>
    <path d="M65.4653 31.0059L72.8817 30.3451C79.5036 30.1285 94.8986 31.3352 99.1059 37.0838C99.4821 37.5987 99.7986 38.2507 99.9779 38.8652L100 75.5492C99.4733 81.1011 88.6175 83.4129 84.1402 84.0229C81.8319 84.3367 79.5036 84.4516 77.1819 84.5887C76.4914 87.7735 77.8813 91.0334 75.5375 93.7762C69.5973 100.732 49.1806 100.656 40.8523 99.2353C36.8288 98.5479 27.4581 96.1698 26.5662 91.4003C26.1833 89.3493 26.2364 80.1883 26.5086 77.9649C26.7299 76.1459 28.4164 74.5568 29.855 73.5711L31.6034 72.5588C25.8579 71.4007 18.1272 70.5366 15.1107 64.8277L15 23.5953C15.1638 22.2537 16.536 20.7707 17.5562 19.9596C25.838 13.3645 54.4458 13.3291 62.6944 19.9596C63.8386 20.879 65.4653 22.9742 65.4653 24.486V31.0059ZM35.9855 19.1352C31.8756 19.3938 26.367 20.269 22.6001 21.9023C17.9945 23.9003 17.7953 25.5203 22.5337 27.5735C31.2316 31.3418 49.2138 31.3683 57.8696 27.5072C61.0323 26.0972 62.794 24.7335 58.974 22.5675C53.3082 19.354 42.4259 18.7285 35.9833 19.1352H35.9855ZM18.9882 30.3428V36.6418C18.9882 37.2297 21.4603 38.6309 22.0402 38.8983C28.5647 41.9041 40.1331 42.5539 47.2042 41.6124C47.981 41.5085 48.738 41.2742 49.5104 41.1527C49.3422 36.9799 52.9585 34.6836 56.3956 33.3287C57.3761 32.942 60.6472 32.2546 61.1296 31.9143C61.3487 31.7595 61.4771 30.1262 60.9327 30.3451C60.5874 30.4843 59.9744 31.0324 59.4188 31.2667C49.5679 35.4085 33.1637 35.4925 23.0737 32.1198C21.6684 31.649 20.2962 31.028 18.9882 30.3428ZM70.954 34.6062C66.5586 34.8427 60.5099 35.7223 56.5682 37.7004C54.2134 38.8806 52.4229 39.9791 55.3045 41.9284C62.9378 47.0957 86.8094 47.0957 94.4427 41.9284C97.2534 40.0255 95.6599 38.9801 93.3272 37.7734C87.4445 34.7322 77.5139 34.2526 70.9562 34.6062H70.954ZM49.5303 45.3718C39.3407 46.7156 28.4452 46.3509 18.9882 42.0566V50.1236C18.9882 50.5414 21.3607 52.0752 21.8675 52.3316C28.4629 55.6313 41.7708 56.1794 48.9748 54.8755C49.1607 54.8423 49.5303 54.7053 49.5303 54.5462V45.374V45.3718ZM96.0074 45.8139C93.1524 47.2306 90.1159 48.2251 86.9798 48.844C79.373 50.3447 70.3675 50.3447 62.7586 48.8484C59.6114 48.2296 56.6103 47.204 53.7354 45.8139V51.8918C53.7354 52.588 55.9087 53.8676 56.5328 54.1815C65.1112 58.4913 83.5338 58.3366 92.3269 54.6279C92.9842 54.3517 96.0074 52.7316 96.0074 52.115V45.8161V45.8139ZM49.5303 58.8537C44.1854 59.6317 38.6569 59.8019 33.2655 59.2935C30.0409 58.9885 26.0284 58.2481 22.9808 57.1873C21.6219 56.7143 20.3736 55.9319 18.9882 55.5385V63.6055C18.9882 64.2686 21.6529 65.7361 22.3124 66.0323C28.5558 68.8325 38.6746 69.3895 45.4337 68.7972C46.7948 68.6778 48.1891 68.3883 49.5303 68.1363V58.8537ZM96.0074 57.3066C92.588 59.1808 88.6574 60.2218 84.802 60.8141C77.9831 61.8617 70.2148 61.8065 63.4269 60.5577C60.0939 59.9433 56.7121 58.9222 53.7354 57.3066V63.6055C53.7354 64.136 56.1986 65.6345 56.7497 65.8997C65.3679 70.0371 84.906 70.0304 93.4312 65.6742C93.9558 65.4068 96.0074 64.1161 96.0074 63.6055V57.3066ZM96.0074 69.0204C88.8234 72.4837 80.6766 73.1733 72.7688 73.0009C73.404 73.7037 74.4221 74.0706 75.1015 74.7579C76.7039 76.3802 77.1266 78.2676 76.9761 80.5132C81.1812 80.1993 85.3951 79.8899 89.4674 78.7318C90.6692 78.3892 96.0096 76.4597 96.0096 75.0983V69.0204H96.0074ZM51.4735 73.0561C46.4008 73.076 40.2415 73.6949 35.4743 75.4232C31.4772 76.873 28.0468 78.6942 33.7391 81.3618C42.2312 85.3423 61.6652 85.4683 70.0422 81.2116C73.6608 79.3727 73.6497 78.1041 70.0422 76.2697C65.1532 73.7855 56.9379 73.0318 51.4735 73.0539V73.0561ZM72.7688 84.7124C71.1886 84.929 69.6726 85.8661 68.1123 86.3612C58.6442 89.3648 43.4042 89.2874 34.0446 85.9214C32.8693 85.4992 31.7141 84.6771 30.4968 84.4914V90.1273C30.4968 91.3451 33.0796 92.6955 34.1087 93.1508C42.8309 97.0053 60.6184 96.9345 69.3074 93.08C69.9205 92.8082 72.7688 91.3694 72.7688 90.7903V84.7124Z" fill="white" fill-opacity="0.6"/>
    <defs>
        <filter id="filter0_f_815_1795" x="0" y="0" width="115" height="115" filterUnits="userSpaceOnUse" color-interpolation-filters="sRGB">
            <feFlood flood-opacity="0" result="BackgroundImageFix"/>
            <feBlend mode="normal" in="SourceGraphic" in2="BackgroundImageFix" result="shape"/>
            <feGaussianBlur stdDeviation="7.5" result="effect1_foregroundBlur_815_1795"/>
        </filter>
    </defs>
</svg>
