<svg width="120" height="120" viewBox="0 0 120 120" fill="none" xmlns="http://www.w3.org/2000/svg">
    <g filter="url(#filter0_f_2002_59)">
        <path
            d="M59.734 38.0995C77.2028 37.9139 87.8818 57.384 78.2843 72.0613C69.8021 85.0323 50.3808 85.1115 41.8082 72.1971C32.2378 57.78 42.4372 38.285 59.734 38.0995Z"
            fill="#C634FF" />
        <path
            d="M32.1206 27.9254C32.5595 27.9119 33.5889 28.0567 33.9894 28.1947C34.8785 28.5048 40.2656 33.7819 40.8176 34.7165C43.2136 38.792 38.5777 43.2725 34.5844 40.7245C33.7088 40.1656 28.6205 34.9608 28.2788 34.1326C27.0842 31.2429 28.9191 28.0182 32.1206 27.9254Z"
            fill="#C634FF" />
        <path
            d="M36.1838 78.608C39.779 78.0038 42.503 81.4434 41.0369 84.8174C40.6093 85.8018 35.2449 91.2283 34.2856 91.6446C30.5118 93.2852 26.7537 89.9203 28.2085 86.019C28.566 85.0595 33.2019 80.3301 34.2019 79.5652C34.7517 79.1443 35.5006 78.7211 36.1838 78.6057V78.608Z"
            fill="#C634FF" />
        <path
            d="M87.3321 27.9142C90.8141 27.7241 92.9635 30.9419 91.7236 34.1372C91.4227 34.9134 86.2574 40.1882 85.4157 40.7268C81.4994 43.2273 76.8929 38.9459 79.1056 34.8681C79.6192 33.9199 84.9474 28.6496 85.8569 28.2694C86.2008 28.1269 86.9746 27.9345 87.3321 27.9142Z"
            fill="#C634FF" />
        <path
            d="M82.1124 78.6079C83.3432 78.402 84.5264 78.6577 85.5514 79.3592C86.3953 79.9385 91.4293 85.0934 91.7257 85.856C93.2529 89.7912 89.5605 93.4006 85.7143 91.6423C84.8907 91.2644 79.6892 86.1343 79.1847 85.2744C77.6575 82.6744 79.0761 79.117 82.1124 78.6056V78.6079Z"
            fill="#C634FF" />
        <path
            d="M91.3887 55.7502C92.977 55.4809 98.0405 55.5081 99.7057 55.6959C104.756 56.2639 104.704 63.6229 99.9116 64.2769C98.1921 64.5122 93.5471 64.4873 91.7847 64.2973C86.9112 63.77 86.8728 56.5219 91.3865 55.7525L91.3887 55.7502Z"
            fill="#C634FF" />
        <path
            d="M59.0351 88.1121C61.4085 87.7048 63.9334 89.0784 64.2773 91.5834C64.49 93.1335 64.499 98.8225 64.1981 100.289C63.2909 104.706 56.3518 104.548 55.7205 99.9178C55.5124 98.388 55.4965 92.6448 55.802 91.2123C56.1029 89.798 57.6369 88.352 59.0351 88.1121Z"
            fill="#C634FF" />
        <path
            d="M58.8086 16.6019C61.3788 16.1289 63.906 17.326 64.2794 20.0777C64.4875 21.6074 64.5033 27.3507 64.1979 28.7832C63.2748 33.1393 56.338 32.8949 55.7203 28.4098C55.5076 26.8597 55.4986 21.1707 55.7995 19.7043C56.0823 18.3262 57.4127 16.8599 58.8064 16.6019H58.8086Z"
            fill="#C634FF" />
        <path
            d="M19.8938 55.7503C21.5726 55.4697 26.2085 55.5285 27.9936 55.6869C33.2109 56.1531 33.1408 63.6252 28.4167 64.2747C26.7311 64.5077 22.0138 64.4896 20.292 64.295C15.301 63.7338 15.3077 56.5174 19.8938 55.748V55.7503Z"
            fill="#C634FF" />
    </g>
    <g>
        <path
            d="M59.734 38.0995C77.2028 37.9139 87.8818 57.384 78.2843 72.0613C69.8021 85.0323 50.3808 85.1115 41.8082 72.1971C32.2378 57.78 42.4372 38.285 59.734 38.0995Z"
            fill="white" fill-opacity="0.6" />
        <path
            d="M32.1206 27.9254C32.5595 27.9119 33.5889 28.0567 33.9894 28.1947C34.8785 28.5048 40.2656 33.7819 40.8176 34.7165C43.2136 38.792 38.5777 43.2725 34.5844 40.7245C33.7088 40.1656 28.6205 34.9608 28.2788 34.1326C27.0842 31.2429 28.9191 28.0182 32.1206 27.9254Z"
            fill="white" fill-opacity="0.6" />
        <path
            d="M36.1838 78.608C39.779 78.0038 42.503 81.4434 41.0369 84.8174C40.6093 85.8018 35.2449 91.2283 34.2856 91.6446C30.5118 93.2852 26.7537 89.9203 28.2085 86.019C28.566 85.0595 33.2019 80.3301 34.2019 79.5652C34.7517 79.1443 35.5006 78.7211 36.1838 78.6057V78.608Z"
            fill="white" fill-opacity="0.6" />
        <path
            d="M87.3321 27.9142C90.8141 27.7241 92.9635 30.9419 91.7236 34.1372C91.4227 34.9134 86.2574 40.1882 85.4157 40.7268C81.4994 43.2273 76.8929 38.9459 79.1056 34.8681C79.6192 33.9199 84.9474 28.6496 85.8569 28.2694C86.2008 28.1269 86.9746 27.9345 87.3321 27.9142Z"
            fill="white" fill-opacity="0.6" />
        <path
            d="M82.1124 78.6079C83.3432 78.402 84.5264 78.6577 85.5514 79.3592C86.3953 79.9385 91.4293 85.0934 91.7257 85.856C93.2529 89.7912 89.5605 93.4006 85.7143 91.6423C84.8907 91.2644 79.6892 86.1343 79.1847 85.2744C77.6575 82.6744 79.0761 79.117 82.1124 78.6056V78.6079Z"
            fill="white" fill-opacity="0.6" />
        <path
            d="M91.3887 55.7502C92.977 55.4809 98.0405 55.5081 99.7057 55.6959C104.756 56.2639 104.704 63.6229 99.9116 64.2769C98.1921 64.5122 93.5471 64.4873 91.7847 64.2973C86.9112 63.77 86.8728 56.5219 91.3865 55.7525L91.3887 55.7502Z"
            fill="white" fill-opacity="0.6" />
        <path
            d="M59.0351 88.1121C61.4085 87.7048 63.9334 89.0784 64.2773 91.5834C64.49 93.1335 64.499 98.8225 64.1981 100.289C63.2909 104.706 56.3518 104.548 55.7205 99.9178C55.5124 98.388 55.4965 92.6448 55.802 91.2123C56.1029 89.798 57.6369 88.352 59.0351 88.1121Z"
            fill="white" fill-opacity="0.6" />
        <path
            d="M58.8086 16.6019C61.3788 16.1289 63.906 17.326 64.2794 20.0777C64.4875 21.6074 64.5033 27.3507 64.1979 28.7832C63.2748 33.1393 56.338 32.8949 55.7203 28.4098C55.5076 26.8597 55.4986 21.1707 55.7995 19.7043C56.0823 18.3262 57.4127 16.8599 58.8064 16.6019H58.8086Z"
            fill="white" fill-opacity="0.6" />
        <path
            d="M19.8938 55.7503C21.5726 55.4697 26.2085 55.5285 27.9936 55.6869C33.2109 56.1531 33.1408 63.6252 28.4167 64.2747C26.7311 64.5077 22.0138 64.4896 20.292 64.295C15.301 63.7338 15.3077 56.5174 19.8938 55.748V55.7503Z"
            fill="white" fill-opacity="0.6" />
    </g>
    <defs>
        <filter id="filter0_f_2002_59" x="1.5" y="1.5" width="117" height="117" filterUnits="userSpaceOnUse"
            color-interpolation-filters="sRGB">
            <feFlood flood-opacity="0" result="BackgroundImageFix" />
            <feBlend mode="normal" in="SourceGraphic" in2="BackgroundImageFix" result="shape" />
            <feGaussianBlur stdDeviation="7.5" result="effect1_foregroundBlur_2002_59" />
        </filter>

    </defs>
</svg>