<svg width="141" height="141" viewBox="0 0 141 141" fill="none" xmlns="http://www.w3.org/2000/svg">
    <g filter="url(#filter0_f_2014_112)">
        <path
            d="M38.0227 80.8489C37.7774 80.603 32.1677 81.0495 31.0746 80.8036C30.3365 80.6375 29.8093 79.8026 29.4672 79.1791L29.4048 62.1795C29.6286 61.172 30.3623 60.2616 31.4533 60.1343C35.9054 59.6123 41.2289 60.6176 45.7735 60.0373L85.4957 38.3799C86.875 37.6313 88.4265 37.9981 89.1366 39.4198C89.2528 60.1624 89.384 80.9956 89.0699 101.723C88.2823 103.117 86.86 103.304 85.4957 102.612L65.4539 91.6981C60.5564 97.1733 51.6393 98.9574 45.2721 95.0484C40.5081 92.1252 37.6462 86.4515 38.0227 80.8511V80.8489ZM84.4994 96.5995V44.3924L48.6741 64.024L48.5536 76.4372L48.8743 77.1944L84.4973 96.5995H84.4994ZM43.8304 64.8869H34.1473V76.105H43.8304V64.8869ZM42.7545 80.8489C42.0724 90.8416 53.8772 96.5154 61.0427 89.3725L45.9241 81.0193L42.7545 80.8511V80.8489Z"
            fill="#00865B" />
        <path
            d="M98.3529 60.2225C97.348 61.0941 96.6121 62.2892 95.0391 61.9937C93.4662 61.6981 92.6764 60.2031 93.2703 58.6844L100.653 51.4164C102.919 49.7941 105.751 51.8586 104.341 54.4646C103.728 55.5972 99.5751 59.1611 98.3529 60.2204V60.2225Z"
            fill="#00865B" />
        <path
            d="M104.021 89.6333C103.231 90.2934 101.8 90.1985 100.918 89.739C100.257 89.3938 97.6106 86.7662 96.8661 86.0349C96.2184 85.3985 93.4985 82.8615 93.2704 82.307C92.414 80.2209 94.4603 78.3117 96.4959 79.0732L104.174 86.2592C104.953 87.1329 104.909 88.8912 104.021 89.6333Z"
            fill="#00865B" />
        <path
            d="M99.0777 68.1744L109.955 68.168C112.266 68.9015 112.072 72.4351 109.774 72.858C108.554 73.0823 100.47 73.0823 99.2519 72.858C97.0528 72.4524 96.801 68.8669 99.0798 68.1744H99.0777Z"
            fill="#00865B" />
    </g>
    <g>
        <path
            d="M38.0227 80.8489C37.7774 80.603 32.1677 81.0495 31.0746 80.8036C30.3365 80.6375 29.8093 79.8026 29.4672 79.1791L29.4048 62.1795C29.6286 61.172 30.3623 60.2616 31.4533 60.1343C35.9054 59.6123 41.2289 60.6176 45.7735 60.0373L85.4957 38.3799C86.875 37.6313 88.4265 37.9981 89.1366 39.4198C89.2528 60.1624 89.384 80.9956 89.0699 101.723C88.2823 103.117 86.86 103.304 85.4957 102.612L65.4539 91.6981C60.5564 97.1733 51.6393 98.9574 45.2721 95.0484C40.5081 92.1252 37.6462 86.4515 38.0227 80.8511V80.8489ZM84.4994 96.5995V44.3924L48.6741 64.024L48.5536 76.4372L48.8743 77.1944L84.4973 96.5995H84.4994ZM43.8304 64.8869H34.1473V76.105H43.8304V64.8869ZM42.7545 80.8489C42.0724 90.8416 53.8772 96.5154 61.0427 89.3725L45.9241 81.0193L42.7545 80.8511V80.8489Z"
            fill="white" fill-opacity="0.6" />
        <path
            d="M98.3529 60.2225C97.348 61.0941 96.6121 62.2892 95.0391 61.9937C93.4662 61.6981 92.6764 60.2031 93.2703 58.6844L100.653 51.4164C102.919 49.7941 105.751 51.8586 104.341 54.4646C103.728 55.5972 99.5751 59.1611 98.3529 60.2204V60.2225Z"
            fill="white" fill-opacity="0.6" />
        <path
            d="M104.021 89.6333C103.231 90.2934 101.8 90.1985 100.918 89.739C100.257 89.3938 97.6106 86.7662 96.8661 86.0349C96.2184 85.3985 93.4985 82.8615 93.2704 82.307C92.414 80.2209 94.4603 78.3117 96.4959 79.0732L104.174 86.2592C104.953 87.1329 104.909 88.8912 104.021 89.6333Z"
            fill="white" fill-opacity="0.6" />
        <path
            d="M99.0777 68.1744L109.955 68.168C112.266 68.9015 112.072 72.4351 109.774 72.858C108.554 73.0823 100.47 73.0823 99.2519 72.858C97.0528 72.4524 96.801 68.8669 99.0798 68.1744H99.0777Z"
            fill="white" fill-opacity="0.6" />
    </g>
    <defs>
        <filter id="filter0_f_2014_112" x="14.4048" y="23" width="112.19" height="95" filterUnits="userSpaceOnUse"
            color-interpolation-filters="sRGB">
            <feFlood flood-opacity="0" result="BackgroundImageFix" />
            <feBlend mode="normal" in="SourceGraphic" in2="BackgroundImageFix" result="shape" />
            <feGaussianBlur stdDeviation="7.5" result="effect1_foregroundBlur_2014_112" />
        </filter>

    </defs>
</svg>