<svg width="141" height="141" viewBox="0 0 141 141" fill="none" xmlns="http://www.w3.org/2000/svg">
    <g filter="url(#filter0_f_2014_112)">
        <path
            d="M96.8115 82.9702C98.5722 84.7325 103.965 89.4169 104.325 91.5488C104.993 95.5104 102.586 96.6993 100.276 99.0515C97.5401 101.839 95.298 105.127 91.0209 105.44C75.5804 106.569 56.8113 91.2976 47.7883 79.7423C42.1412 72.5109 32.7348 56.5971 36.2761 47.3084C37.19 44.9107 42.2956 39.9095 44.4069 38.1599C48.6332 34.6571 51.1551 37.3024 54.3166 40.2518C56.2062 42.0141 62.0332 47.4759 62.9453 49.4476C65.3146 54.5726 58.6519 58.0881 55.7793 61.3852C55.6375 61.5563 55.494 61.7894 55.5013 62.0133C55.5085 62.2373 57.251 65.5125 57.5272 65.9804C61.0521 71.9647 68.1436 79.2343 73.9688 83.0048C74.6265 83.4308 78.5784 85.6992 79.0217 85.7011C79.2906 85.7011 79.7958 85.3187 80.0265 85.1367C82.7538 82.9775 85.5555 78.1274 89.2185 77.7778C92.4381 77.4702 94.8093 80.9657 96.8115 82.9702ZM47.9918 41.3805L41.1728 48.2096C39.2141 51.0606 41.1764 57.5529 42.3247 60.6424C48.1608 76.3432 64.8913 92.9434 80.5189 98.8366C83.5678 99.9873 90.087 101.837 92.9124 99.8689L99.4807 93.1473C99.8259 92.6248 98.9337 91.5925 98.5613 91.1374C96.8206 89.0182 92.9487 85.2022 90.8392 83.3998C90.2142 82.8646 89.4892 82.1072 88.6443 82.668C85.9262 84.9473 82.3686 91.0846 78.3422 90.4619C75.3806 90.0031 69.7789 86.2855 67.326 84.3884C62.2803 80.4851 51.2441 69.1082 50.61 62.7234C50.1703 58.2993 55.9519 55.0987 58.4138 52.011L58.561 51.3119L48.8766 41.5225C48.6204 41.3077 48.3061 41.2877 47.9972 41.3805H47.9918Z"
            fill="#FE5000" />
        <path
            d="M72.7002 35.5619C73.0727 35.4763 73.5378 35.4891 73.9194 35.5382C75.0332 35.6839 78.4999 37.5263 79.6628 38.1581C89.9486 43.7473 98.9607 53.2089 104.075 63.7629C104.902 65.4688 106.546 67.983 104.555 69.4795C103.405 70.3425 102.297 70.0221 101.464 68.9297C100.632 67.8374 99.5911 65.0901 98.7699 63.6191C93.657 54.4615 85.8586 46.8423 76.5758 41.9813C75.4111 41.3714 72.4313 40.3519 71.7518 39.5326C70.7215 38.2928 71.1558 35.9151 72.7038 35.5601L72.7002 35.5619Z"
            fill="#FE5000" />
        <path
            d="M71.9844 47.9365C73.3653 47.7344 77.7241 50.3215 79.0287 51.1753C84.2034 54.5635 90.6736 61.5545 92.7758 67.4405C93.4499 69.3267 92.7922 71.4841 90.4883 71.1909C88.7712 70.9725 88.1153 68.2616 87.3213 66.898C84.6813 62.3629 81.2527 58.4413 76.8484 55.5448C75.4311 54.6144 71.5847 53.0196 70.7579 52.1803C69.3952 50.7967 70.0911 48.2151 71.9844 47.9383V47.9365Z"
            fill="#FE5000" />
    </g>
    <g>
        <path
            d="M96.8115 82.9702C98.5722 84.7325 103.965 89.4169 104.325 91.5488C104.993 95.5104 102.586 96.6993 100.276 99.0515C97.5401 101.839 95.298 105.127 91.0209 105.44C75.5804 106.569 56.8113 91.2976 47.7883 79.7423C42.1412 72.5109 32.7348 56.5971 36.2761 47.3084C37.19 44.9107 42.2956 39.9095 44.4069 38.1599C48.6332 34.6571 51.1551 37.3024 54.3166 40.2518C56.2062 42.0141 62.0332 47.4759 62.9453 49.4476C65.3146 54.5726 58.6519 58.0881 55.7793 61.3852C55.6375 61.5563 55.494 61.7894 55.5013 62.0133C55.5085 62.2373 57.251 65.5125 57.5272 65.9804C61.0521 71.9647 68.1436 79.2343 73.9688 83.0048C74.6265 83.4308 78.5784 85.6992 79.0217 85.7011C79.2906 85.7011 79.7958 85.3187 80.0265 85.1367C82.7538 82.9775 85.5555 78.1274 89.2185 77.7778C92.4381 77.4702 94.8093 80.9657 96.8115 82.9702ZM47.9918 41.3805L41.1728 48.2096C39.2141 51.0606 41.1764 57.5529 42.3247 60.6424C48.1608 76.3432 64.8913 92.9434 80.5189 98.8366C83.5678 99.9873 90.087 101.837 92.9124 99.8689L99.4807 93.1473C99.8259 92.6248 98.9337 91.5925 98.5613 91.1374C96.8206 89.0182 92.9487 85.2022 90.8392 83.3998C90.2142 82.8646 89.4892 82.1072 88.6443 82.668C85.9262 84.9473 82.3686 91.0846 78.3422 90.4619C75.3806 90.0031 69.7789 86.2855 67.326 84.3884C62.2803 80.4851 51.2441 69.1082 50.61 62.7234C50.1703 58.2993 55.9519 55.0987 58.4138 52.011L58.561 51.3119L48.8766 41.5225C48.6204 41.3077 48.3061 41.2877 47.9972 41.3805H47.9918Z"
            fill="white" fill-opacity="0.8" />
        <path
            d="M72.7002 35.5619C73.0727 35.4763 73.5378 35.4891 73.9194 35.5382C75.0332 35.6839 78.4999 37.5263 79.6628 38.1581C89.9486 43.7473 98.9607 53.2089 104.075 63.7629C104.902 65.4688 106.546 67.983 104.555 69.4795C103.405 70.3425 102.297 70.0221 101.464 68.9297C100.632 67.8374 99.5911 65.0901 98.7699 63.6191C93.657 54.4615 85.8586 46.8423 76.5758 41.9813C75.4111 41.3714 72.4313 40.3519 71.7518 39.5326C70.7215 38.2928 71.1558 35.9151 72.7038 35.5601L72.7002 35.5619Z"
            fill="white" fill-opacity="0.8" />
        <path
            d="M71.9844 47.9365C73.3653 47.7344 77.7241 50.3215 79.0287 51.1753C84.2034 54.5635 90.6736 61.5545 92.7758 67.4405C93.4499 69.3267 92.7922 71.4841 90.4883 71.1909C88.7712 70.9725 88.1153 68.2616 87.3213 66.898C84.6813 62.3629 81.2527 58.4413 76.8484 55.5448C75.4311 54.6144 71.5847 53.0196 70.7579 52.1803C69.3952 50.7967 70.0911 48.2151 71.9844 47.9383V47.9365Z"
            fill="white" fill-opacity="0.8" />
    </g>
    <defs>
        <filter id="filter0_f_2014_112" x="20.5" y="20.5" width="100" height="100" filterUnits="userSpaceOnUse"
            color-interpolation-filters="sRGB">
            <feFlood flood-opacity="0" result="BackgroundImageFix" />
            <feBlend mode="normal" in="SourceGraphic" in2="BackgroundImageFix" result="shape" />
            <feGaussianBlur stdDeviation="7.5" result="effect1_foregroundBlur_2014_112" />
        </filter>

    </defs>
</svg>