<svg xmlns="http://www.w3.org/2000/svg" width="80" height="102" viewBox="0 0 80 102" fill="none">

    <path
        d="M0.0234573 22.4192C0.0234573 17.3826 0.05258 12.3433 0.00227718 7.30669C-0.0109604 6.10257 0.333217 5.4899 1.56696 5.16368C9.12297 3.16654 16.769 1.71311 24.5395 0.821955C31.971 -0.0294151 39.4185 -0.156723 46.8607 0.15359C57.6413 0.601819 68.242 2.34169 78.6494 5.23264C79.6343 5.50582 79.9996 5.98853 79.997 6.99373C79.9732 17.2022 80.0367 27.408 79.9599 37.6165C79.8937 46.3928 78.5091 54.941 75.0117 63.0622C72.0279 69.9898 67.7972 76.1006 62.8199 81.7234C56.3255 89.0621 48.8754 95.3453 41.2506 101.443C40.4563 102.077 39.7653 102.244 38.9022 101.552C30.0701 94.4833 21.4525 87.1896 14.3147 78.3205C7.63242 70.019 3.06016 60.7361 1.15395 50.1855C0.341159 45.6873 0.121415 41.1493 0.0419899 36.6034C-0.0400831 31.8771 0.0234573 27.1481 0.0234573 22.4192ZM78.0299 23.8753H78.0352C78.0352 18.706 78.0219 13.5342 78.0484 8.36494C78.0537 7.48704 77.8154 7.00964 76.8941 6.76563C66.8838 4.11869 56.7121 2.50613 46.3709 2.09768C38.1239 1.77146 29.8874 2.02077 21.6907 3.12145C15.4797 3.95426 9.34271 5.15307 3.2799 6.73911C2.40093 6.96986 1.94026 7.33321 1.9535 8.35698C2.10705 19.4009 1.71787 30.4475 2.18118 41.4888C2.39828 46.6792 3.24019 51.761 4.75986 56.726C7.77274 66.5764 13.3722 74.8593 20.3167 82.3068C26.0803 88.4892 32.5032 93.9475 39.0717 99.2414C39.8183 99.8435 40.3478 99.7215 41.0335 99.1645C44.9333 95.9871 48.8331 92.8044 52.529 89.3883C59.0022 83.4075 64.9776 76.9971 69.5763 69.4037C75.34 59.8901 77.7837 49.4694 78.014 38.4599C78.1146 33.601 78.0299 28.7395 78.0299 23.8779V23.8753Z"
        fill="#FE5000" />
    <path
        d="M71.2495 27.0182C71.2283 31.2114 71.3474 36.4257 71.0509 41.6347C70.4579 52.0527 67.1352 61.4974 61.0539 69.9766C55.3644 77.9094 48.2082 84.3862 40.7607 90.5792C40.2974 90.9638 39.9082 91.1256 39.3734 90.68C30.1945 83.015 21.357 75.0265 15.4346 64.4016C11.2965 56.9779 9.22612 48.9708 8.92431 40.4704C8.6172 31.8108 8.84488 23.1512 8.76546 14.4916C8.74692 12.3804 8.77869 12.4308 10.8729 11.9481C22.5087 9.26671 34.306 8.40738 46.2093 8.86887C54.2445 9.17919 62.1712 10.3753 70.0237 12.086C71.1171 12.3247 71.2548 13.0196 71.2521 13.9347C71.2362 17.9555 71.2468 21.9789 71.2468 27.0182H71.2495ZM69.3009 27.9465C69.3009 23.2149 69.2612 19.3267 69.3247 15.4385C69.3433 14.2741 68.9488 13.8445 67.8157 13.6111C57.8954 11.5662 47.8878 10.5637 37.7531 10.7387C28.9951 10.8899 20.3536 11.9083 11.7916 13.7172C10.9708 13.8896 10.6928 14.2688 10.7008 15.0619C10.7246 17.3587 10.6743 19.6582 10.714 21.955C10.8385 29.4132 10.3831 36.8819 11.1668 44.332C12.0749 52.9545 15.0109 60.7919 19.9009 67.9264C25.2754 75.7664 32.1854 82.1159 39.384 88.1922C39.9373 88.659 40.2788 88.4786 40.7369 88.094C46.6488 83.1078 52.3409 77.9094 57.2097 71.857C64.493 62.8023 68.5755 52.5566 69.1368 40.8841C69.3565 36.2878 69.1632 31.6994 69.3009 27.9518V27.9465Z"
        fill="#FE5000" />
    <path
        d="M59.0893 35.4578C59.0814 35.9511 58.7531 36.2588 58.4407 36.5717C50.4134 44.5815 42.3782 52.586 34.3589 60.6064C33.5196 61.4445 32.8683 61.4259 32.0291 60.5719C28.5979 57.0762 25.1376 53.6097 21.6482 50.1698C20.7559 49.2892 20.7321 48.5917 21.6534 47.7403C22.8184 46.6609 23.9488 45.5416 25.0317 44.3799C25.8974 43.449 26.6122 43.5179 27.4647 44.4038C29.0241 46.0243 30.6894 47.5467 32.2303 49.1858C32.9848 49.9894 33.4587 50.1379 34.3271 49.268C40.2099 43.3562 46.1483 37.5 52.0655 31.6253C53.3186 30.3823 54.548 30.3743 55.7535 31.6014C56.651 32.5138 57.5485 33.4262 58.4407 34.3438C58.7478 34.6595 59.0655 34.9751 59.0893 35.4604V35.4578ZM33.0934 58.763C33.6599 58.7259 33.8956 58.3042 34.1974 58.0072C41.2186 51.0503 48.2345 44.0882 55.2504 37.1234C56.3377 36.0448 56.3394 34.9574 55.2557 33.8611C54.3662 32.9594 53.4616 32.9673 52.542 33.885C46.5904 39.7889 40.6388 45.6954 34.6819 51.594C33.5143 52.7504 33.2734 52.7478 32.0847 51.6126C30.8403 50.4244 29.6145 49.215 28.3623 48.0374C25.8392 45.6636 26.7764 45.4939 24.0097 48.1408C23.3929 48.7323 23.3849 49.1805 23.9965 49.7852C26.8532 52.6072 29.6781 55.461 32.5189 58.2989C32.7015 58.4819 32.9186 58.6304 33.0907 58.7684L33.0934 58.763Z"
        fill="#FE5000" />

</svg>