<svg xmlns="http://www.w3.org/2000/svg" width="86" height="72" viewBox="0 0 86 72" fill="none">

    <path
        d="M45.2298 72C36.9822 72 28.7322 72 20.4846 72C17.6413 72 14.9923 71.3733 12.6695 69.6426C5.82154 64.5445 6.61276 54.1096 14.2173 50.2051C15.4642 49.5647 15.9755 48.8898 15.9131 47.5103C15.8691 46.5416 16.1606 45.5431 16.3943 44.5813C16.54 43.9845 16.4382 43.5668 15.9917 43.149C12.2438 39.66 10.238 35.3194 9.93265 30.2718C9.62726 25.2586 11.1426 20.7435 14.3908 16.8781C18.1201 12.4388 22.9646 9.98727 28.7646 9.81741C38.6919 9.5259 46.8169 16.497 48.5543 25.5983C48.8227 26.9985 48.7949 27.0031 50.1345 26.5371C60.6262 22.8852 71.8236 29.6451 73.3204 40.5644C73.4569 41.556 73.8109 42.0403 74.845 42.3456C81.6606 44.3564 86.1465 50.4071 86.0008 57.2405C85.8388 64.7671 79.7034 71.2264 72.166 71.8553C70.8565 71.9655 69.5517 72 68.2423 72C60.5707 72 52.9014 72 45.2298 72ZM45.3779 69.1881C53.8985 69.1881 62.4192 69.1881 70.9398 69.1881C71.0555 69.1881 71.1712 69.1881 71.2869 69.1835C80.3951 69.0022 86.2298 58.705 81.6444 50.8983C79.6479 47.4988 76.7305 45.3824 72.7999 44.68C71 44.3587 70.7663 44.0649 70.6969 42.2767C70.6738 41.7052 70.6715 41.1245 70.572 40.5621C69.4754 34.3163 64.4851 29.31 58.5371 28.4584C51.747 27.4897 45.681 30.5771 42.7127 36.5153C41.8058 38.3286 41.3061 38.4618 39.6196 37.3761C36.3506 35.2735 32.8132 34.6239 29.0075 35.4755C23.115 36.7953 18.141 42.3617 18.6731 49.505C18.8003 51.2059 18.6245 51.3689 17.0282 51.8922C13.0559 53.196 10.3861 56.9834 10.7539 60.7984C11.256 66.0021 14.7656 69.1812 20.045 69.1881C28.4893 69.1973 36.9313 69.1881 45.3756 69.1881H45.3779ZM12.6788 29.1333C12.6718 33.2351 13.9952 36.8619 16.6742 39.9882C17.6251 41.0992 17.6413 41.0717 18.407 39.8758C19.2168 38.6087 20.1468 37.4311 21.3174 36.4785C26.9462 31.8992 33.0608 31.1027 39.6358 34.2635C40.3159 34.5894 40.6815 34.6101 41.0933 33.8824C42.0649 32.1678 43.3281 30.6413 44.9406 29.5005C46.0349 28.727 46.1737 27.9006 45.9725 26.6657C44.5311 17.8605 36.8457 11.8948 27.7582 12.6086C19.3879 13.2651 12.7019 20.5966 12.6834 29.131L12.6788 29.1333Z"
        fill="#FE5000" />
    <path
        d="M41.1125 10.2857C40.1431 10.2742 39.4954 9.34 39.965 8.41725C40.6914 6.9918 41.5382 5.62144 42.3942 4.26715C42.7597 3.68871 43.3774 3.50967 44.0113 3.86546C44.6383 4.21665 45.0408 4.78362 44.666 5.48601C43.8933 6.93212 43.0489 8.3415 42.2022 9.74858C41.9777 10.1204 41.5729 10.2995 41.1148 10.288L41.1125 10.2857Z"
        fill="#FE5000" />
    <path
        d="M3.76765 42.9748C3.81392 42.4216 4.16558 42.0819 4.61208 41.8225C5.84056 41.1109 7.06903 40.4016 8.30444 39.7015C9.01006 39.2998 9.6671 39.3939 10.1298 40.0619C10.6318 40.7919 10.4282 41.5057 9.72031 41.9441C8.38541 42.7728 7.02507 43.5693 5.61846 44.2671C4.68149 44.7331 3.67511 43.9664 3.76765 42.9725V42.9748Z"
        fill="#FE5000" />
    <path
        d="M18.9622 8.69715C18.9414 9.57859 18.6869 9.98487 18.178 10.1892C17.625 10.4118 17.0675 10.3177 16.7135 9.85174C15.6724 8.47909 14.8419 6.9756 14.0923 5.43308C13.8332 4.90055 14.0854 4.37949 14.5481 4.01452C15.0154 3.64726 15.6354 3.51642 16.0333 3.93189C17.4191 5.38488 18.1548 7.23039 18.9646 8.69715H18.9622Z"
        fill="#FE5000" />
    <path
        d="M8.91713 18.8041C8.77601 18.7582 8.46369 18.7077 8.20457 18.5631C6.99924 17.8951 5.80084 17.2134 4.61401 16.5156C3.86212 16.0726 3.47577 15.423 3.95003 14.6035C4.45438 13.7336 5.21552 13.7473 6.02988 14.2271C7.2491 14.9455 8.49145 15.6296 9.6991 16.3687C10.2705 16.7176 10.532 17.2708 10.3122 17.9433C10.1248 18.5149 9.6829 18.7789 8.91945 18.8041H8.91713Z"
        fill="#FE5000" />
    <path
        d="M50.0398 18.8017C49.17 18.7948 48.7235 18.5377 48.5222 17.9708C48.3279 17.4199 48.4135 16.8369 48.9062 16.5293C50.3314 15.6409 51.7889 14.8031 53.2649 14.002C53.7947 13.7151 54.3198 13.9492 54.7062 14.39C55.0949 14.8353 55.2614 15.4504 54.8566 15.8521C53.4315 17.2661 51.5853 18.019 50.0398 18.7994V18.8017Z"
        fill="#FE5000" />
    <path
        d="M28.0802 3.57165C28.0802 2.8486 28.064 2.12325 28.0848 1.40249C28.108 0.548602 28.5591 0.00229541 29.4244 0C30.2318 0 30.713 0.527943 30.7338 1.31527C30.7755 2.83712 30.7801 4.36127 30.7315 5.88312C30.706 6.67045 30.2017 7.18462 29.3989 7.17314C28.6031 7.16167 28.1288 6.65897 28.0941 5.85558C28.0594 5.0958 28.0872 4.33373 28.0872 3.57165C28.0872 3.57165 28.0848 3.57165 28.0825 3.57165H28.0802Z"
        fill="#FE5000" />
    <path
        d="M3.56623 30.4854C2.79814 30.4854 2.02775 30.5313 1.26429 30.474C0.466129 30.4143 -0.0266475 29.9254 0.0011146 29.122C0.0265632 28.3806 0.498519 27.8962 1.25272 27.8779C2.82591 27.8365 4.4014 27.8297 5.97459 27.8779C6.77738 27.9031 7.26321 28.4288 7.24239 29.2253C7.22157 29.9644 6.73111 30.4258 5.98616 30.474C5.18337 30.5268 4.37364 30.4854 3.56854 30.4854H3.56623Z"
        fill="#FE5000" />

</svg>