<svg xmlns="http://www.w3.org/2000/svg" width="77" height="73" viewBox="0 0 77 73" fill="none">

    <path
        d="M-0.000753521 49.9795C-0.000753521 43.1345 -0.000753521 36.2895 -0.000753521 29.4424C-0.000753521 27.6379 0.348069 27.2753 2.11934 27.2732C7.44567 27.2669 12.7699 27.2669 18.0963 27.2732C20.0555 27.2753 20.3667 27.6106 20.3709 29.6122C20.3751 31.7059 20.3876 31.7415 22.3782 30.9849C26.6226 29.3711 29.9583 26.4936 32.9473 23.1675C34.6037 21.3252 36.1222 19.3698 37.4173 17.2467C39.0402 14.585 39.7504 11.6655 39.8904 8.58466C39.9342 7.64363 39.8883 6.69841 39.8966 5.75528C39.9321 1.59924 43.8068 -1.07504 47.6814 0.410903C50.6015 1.53008 52.1535 3.82292 52.9347 6.7508C54.1106 11.1646 53.2856 15.4024 51.8109 19.5794C51.1697 21.3944 50.2255 23.0732 49.3712 24.7917C48.872 25.7956 48.4731 26.831 48.1618 27.9103C47.9321 28.7047 48.1702 28.9708 48.9932 28.9604C51.742 28.9268 54.4929 28.9478 57.2417 28.9478C60.826 28.9478 64.4124 28.9415 67.9967 28.952C70.1481 28.9583 72.0572 29.5912 73.4692 31.3035C75.3637 33.6005 75.4577 36.6646 73.6969 39.1608C73.298 39.7267 73.3209 39.9551 73.912 40.3554C77.8326 43.0171 78.0478 47.8983 74.3737 50.8828C73.7805 51.3648 73.8034 51.5996 74.263 52.1591C76.7674 55.2086 75.9674 59.6769 72.5502 61.6428C71.7815 62.085 71.5789 62.3135 72.1491 63.1455C73.5006 65.1177 73.5904 67.289 72.5147 69.4079C71.322 71.7594 69.3084 72.9645 66.685 72.9771C59.4453 73.0085 52.2057 72.9771 44.964 72.998C40.8094 73.0085 36.705 72.5621 32.6277 71.7908C30.0648 71.3067 27.6669 70.4013 25.5155 68.9132C24.2288 68.0246 22.8607 67.6033 21.2921 67.7417C20.6404 67.7983 20.3354 67.9974 20.3646 68.6785C20.3939 69.3764 20.3772 70.0743 20.3646 70.7743C20.3458 72.1031 19.9427 72.5244 18.6143 72.5579C17.6743 72.581 16.7344 72.5663 15.7944 72.5663C11.1992 72.5663 6.60599 72.5705 2.01072 72.5621C0.362691 72.56 -0.00493104 72.1786 -0.00493104 70.5145C-0.0070198 63.6695 -0.00493104 56.8245 -0.00493104 49.9774L-0.000753521 49.9795ZM20.373 49.6777C20.373 54.5316 20.3855 59.3877 20.3605 64.2416C20.3563 65.0171 20.5401 65.4593 21.4048 65.3524C23.4623 65.0967 25.2189 65.8428 26.8816 66.9683C28.6633 68.1755 30.6288 68.9384 32.7364 69.3701C37.7055 70.3845 42.7311 70.6297 47.7859 70.6025C53.9456 70.569 60.1074 70.5878 66.2693 70.5983C68.0781 70.6004 69.5549 70.024 70.4113 68.3222C71.7669 65.627 69.8285 62.6278 66.6536 62.5671C63.9737 62.5147 61.2939 62.5461 58.614 62.5566C57.7701 62.5608 57.0474 62.3952 56.9284 61.406C56.8385 60.6557 57.5153 60.182 58.6307 60.1485C58.944 60.1401 59.2573 60.1443 59.5706 60.1443C62.8082 60.1443 66.0458 60.1589 69.2813 60.1359C71.6061 60.1191 73.3 58.4529 73.3188 56.2293C73.3376 53.9155 71.6813 52.2556 69.2813 52.2367C66.3236 52.2115 63.3638 52.2304 60.4061 52.2241C58.9336 52.2199 58.2652 51.807 58.2902 50.9373C58.3132 50.1052 58.9586 49.7133 60.3644 49.7091C63.6709 49.7007 66.9774 49.7049 70.2839 49.7007C70.9084 49.7007 71.5309 49.7133 72.1324 49.4597C73.8765 48.722 74.875 46.8881 74.5199 45.0333C74.1669 43.189 72.5961 41.8267 70.6745 41.8057C67.6458 41.7701 64.6171 41.7952 61.5905 41.7911C61.1038 41.7911 60.6129 41.812 60.1304 41.7617C59.4683 41.6946 58.99 41.3195 58.9649 40.6362C58.9377 39.8922 59.4307 39.5045 60.1325 39.406C60.4396 39.362 60.7571 39.3787 61.0704 39.3787C63.5769 39.3746 66.0834 39.3829 68.5878 39.362C69.8327 39.3515 70.9147 38.9177 71.6896 37.9075C72.6964 36.5976 72.8322 35.1095 72.1721 33.6529C71.5163 32.2068 70.2901 31.4607 68.6609 31.4628C63.9278 31.467 59.1926 31.4628 54.4594 31.4586C52.0929 31.4586 49.7242 31.4796 47.3598 31.4418C45.9102 31.4188 45.4987 30.9598 45.5488 29.5074C45.6136 27.6609 46.1733 25.9486 46.9817 24.2992C48.1326 21.9519 49.4151 19.6611 50.1315 17.121C51.1237 13.6021 51.5101 10.0706 50.3613 6.50559C49.8475 4.91066 48.9493 3.62172 47.4182 2.87141C44.8741 1.62229 42.0313 3.14387 42.2883 6.00678C42.3447 6.63134 42.307 7.26428 42.305 7.89303C42.2987 12.1664 41.1603 16.0919 38.7311 19.6234C37.2857 21.7255 35.7254 23.7375 33.9687 25.584C30.4387 29.2915 26.5119 32.4227 21.4612 33.7829C20.5568 34.026 20.35 34.464 20.3563 35.3233C20.3897 40.1081 20.373 44.8929 20.373 49.6777ZM17.973 50.0109C17.973 43.6228 17.9584 37.2347 17.9897 30.8487C17.9939 29.9433 17.7349 29.6352 16.8075 29.6436C12.3898 29.6855 7.97204 29.6855 3.55431 29.6436C2.60602 29.6352 2.3867 29.981 2.38879 30.8655C2.41176 43.5704 2.41176 56.2775 2.38879 68.9824C2.38879 69.8836 2.63944 70.2001 3.56893 70.1896C7.91773 70.1477 12.2665 70.1728 16.6132 70.1707C17.9667 70.1707 17.9709 70.1666 17.9709 68.7582C17.9709 62.5105 17.9709 56.2628 17.9709 50.013L17.973 50.0109Z"
        fill="#FE5000" />

</svg>