<svg xmlns="http://www.w3.org/2000/svg" width="86" height="64" viewBox="0 0 86 64" fill="none">

    <path
        d="M0.00504517 41.6852C-0.251731 23.105 13.5852 5.52808 33.0555 1.20082C47.4216 -1.99139 60.3788 1.17228 71.5095 10.7643C79.9742 18.0576 84.7122 27.3642 85.7907 38.3415C86.6414 47.0026 84.9065 55.2378 80.5636 62.8802C79.858 64.1228 79.4338 64.2436 78.1499 63.5301C76.3681 62.5421 74.593 61.5388 72.838 60.5047C71.7394 59.8593 71.6903 59.4729 72.2664 58.351C78.7796 45.6546 78.074 33.3622 69.2543 22.0687C61.7877 12.5097 51.4965 8.41073 39.2851 9.67531C25.0151 11.1551 13.6812 21.0412 10.39 34.6641C8.40052 42.8949 9.5348 50.7898 13.6187 58.2544C14.2907 59.4838 14.2327 59.8483 13.018 60.5596C11.292 61.5695 9.55043 62.5575 7.79988 63.5235C6.41329 64.2875 6.08283 64.1777 5.3393 62.8363C1.78015 56.4146 -0.111062 49.5757 0.00504517 41.6852ZM44.1058 4.68502C44.1058 5.12412 44.1438 5.5676 44.0991 6.0023C44.0009 6.94416 44.4452 7.32397 45.3674 7.37447C50.7753 7.67086 55.8104 9.21646 60.5127 11.8313C61.0799 12.1474 61.3612 12.0464 61.6515 11.5129C62.1248 10.6413 62.6049 9.76972 63.1676 8.9552C63.7883 8.05726 63.5405 7.60719 62.6049 7.11979C57.6123 4.51817 52.3562 2.83425 46.7026 2.38857C44.1014 2.18439 44.1058 2.13828 44.1058 4.68941V4.68502ZM41.8261 4.78601C41.8261 4.38424 41.8283 3.98028 41.8261 3.57851C41.8127 2.25903 41.7055 2.14267 40.3279 2.26342C39.0708 2.3732 37.8115 2.50273 36.5633 2.68715C31.7649 3.39409 27.2792 4.99897 23.0301 7.28665C22.358 7.6489 22.195 8.00896 22.6148 8.6654C23.1685 9.53261 23.7111 10.413 24.1666 11.3307C24.5395 12.0837 24.899 12.1189 25.6224 11.7105C29.9117 9.2933 34.5471 7.85308 39.4615 7.44911C42.3709 7.20981 41.7569 7.06271 41.8261 4.78601ZM65.9207 9.17475C65.5857 9.11986 65.4451 9.28891 65.3312 9.48431C64.6792 10.593 64.0384 11.7061 63.3797 12.8082C63.1073 13.2627 63.2792 13.5371 63.67 13.8094C68.0753 16.894 71.5586 20.7931 74.2045 25.419C74.5774 26.071 74.957 26.0908 75.5464 25.7307C76.3971 25.2082 77.2613 24.6945 78.1589 24.2598C78.9426 23.8822 79.0542 23.4716 78.6166 22.7208C75.5442 17.4275 71.4849 13.019 66.4342 9.4909C66.2534 9.36356 66.0591 9.25818 65.9207 9.17255V9.17475ZM22.6751 13.1661C22.6483 13.0849 22.6304 12.9729 22.5768 12.8807C21.9159 11.7369 21.2505 10.5974 20.5829 9.45796C20.3127 8.99692 19.9867 9.15499 19.654 9.38551C14.4649 12.9773 10.3051 17.4802 7.20818 22.9337C6.87102 23.5287 7.02732 23.8558 7.59669 24.1544C8.54565 24.655 9.48568 25.1753 10.3989 25.7351C11.0062 26.1084 11.3657 26.0337 11.7274 25.3992C14.3354 20.7975 17.8209 16.9555 22.157 13.8599C22.3915 13.6908 22.6661 13.5393 22.6751 13.1683V13.1661ZM83.7878 41.1385C83.8504 40.2142 83.6762 38.9804 83.5378 37.7465C83.0979 33.8298 82.0418 30.0756 80.4855 26.4487C80.2332 25.8603 79.9362 25.6429 79.3088 26.0249C78.2995 26.6419 77.2657 27.2237 76.223 27.7857C75.7184 28.0579 75.6692 28.3785 75.8836 28.8659C77.7703 33.1558 78.5429 37.6675 78.697 42.3131C78.7171 42.941 78.2035 43.7314 78.8376 44.1727C79.4048 44.5678 80.2153 44.3285 80.9142 44.3176C84.1875 44.2715 83.7499 44.8423 83.7878 41.1363V41.1385ZM2.14634 41.2768C2.14634 41.3866 2.14634 41.4964 2.14634 41.6062C2.18206 44.7962 1.77792 44.2868 4.93739 44.3198C5.67199 44.3263 6.5361 44.603 7.11217 44.1529C7.7195 43.6765 7.20818 42.8466 7.23274 42.177C7.40244 37.6104 8.13927 33.1668 9.99253 28.9449C10.2448 28.3719 10.1712 28.0118 9.57276 27.7067C8.6171 27.2171 7.67484 26.6946 6.77948 26.1084C6.02701 25.6166 5.68985 25.8493 5.37725 26.587C3.38333 31.2919 2.27138 36.179 2.1441 41.2768H2.14634ZM5.0334 46.5525C4.43946 46.5525 3.84553 46.5613 3.25159 46.5503C2.55048 46.5372 2.32943 46.8819 2.44777 47.5229C2.58621 48.2782 2.69562 49.0356 2.83628 49.7908C3.524 53.477 4.76769 56.9766 6.42222 60.351C6.90452 61.3346 7.39351 61.4378 8.26208 60.8406C8.98999 60.3401 9.78264 59.9229 10.5775 59.5299C11.3389 59.1523 11.4439 58.7352 11.042 57.969C9.53703 55.0951 8.54342 52.0434 7.90706 48.8731C7.4404 46.546 7.42923 46.5481 5.03563 46.5547L5.0334 46.5525ZM83.4641 47.5251C83.5936 46.7699 83.2743 46.5569 82.7339 46.5547C81.5461 46.5525 80.3582 46.5569 79.1703 46.5503C78.6434 46.5481 78.3732 46.7567 78.2884 47.3056C77.71 51.1235 76.5758 54.7768 74.7828 58.217C74.5037 58.7527 74.593 59.0908 75.1222 59.3806C76.1605 59.9471 77.192 60.5289 78.2124 61.126C78.659 61.3873 78.9582 61.3258 79.2038 60.867C81.4813 56.6231 82.8724 52.1071 83.4641 47.5251Z"
        fill="#FE5000" />
    <path
        d="M35.5744 45.7887C35.5543 42.4494 37.5728 39.6217 40.567 38.6096C50.2709 35.3273 59.9815 32.0627 69.6988 28.8134C70.4625 28.5587 71.4003 27.9835 71.9964 29.0044C72.5725 29.9945 71.5767 30.4512 71.0073 30.9408C63.8957 37.053 56.7618 43.1388 49.6368 49.2356C49.0763 49.7164 48.5606 50.2455 47.9934 50.7197C45.6802 52.6517 43.0901 53.3016 40.2209 52.1292C37.2378 50.9107 35.8021 48.5835 35.5744 45.7887ZM42.9517 50.4782C45.9169 50.4826 48.1051 48.3464 48.1051 45.4506C48.1051 42.5263 45.9347 40.3901 42.9718 40.3945C39.9887 40.3989 37.8251 42.5153 37.8228 45.4309C37.8228 48.3508 39.9798 50.476 42.9517 50.4782ZM65.8472 32.5632C65.8293 32.5062 65.8092 32.4491 65.7914 32.392C59.3898 34.5523 52.986 36.7149 46.359 38.952C49.0094 40.5481 50.2151 42.7787 50.4294 45.7558C55.6766 41.2661 60.763 36.9147 65.8472 32.5632Z"
        fill="#FE5000" />

</svg>