<svg width="159" height="95" viewBox="0 0 159 95" fill="none" xmlns="http://www.w3.org/2000/svg">
<g filter="url(#filter0_f_1296_13)">
<path d="M102.16 71.7355L88.1887 52.293L58.0561 71.7355L44.0853 52.293L10 74.2866L15.3634 82.4489L41.5433 65.5575L55.5142 85L85.6468 65.5575L99.6177 85L129.75 65.5575L140.991 81.1927L149 75.5429L132.299 52.293L102.166 71.7355H102.16ZM41.5433 23.2645L55.5142 42.707L85.6468 23.2645L99.6177 42.707L129.75 23.2645L140.991 38.8997L149 33.2499L132.299 10L102.166 29.4425L88.1952 10L58.0626 29.4425L44.0918 10L10.0065 31.9936L15.3699 40.1559L41.5498 23.2645H41.5433Z" fill="#2F7FDB"/>
</g>
<path d="M102.16 71.7355L88.1887 52.293L58.0561 71.7355L44.0853 52.293L10 74.2866L15.3634 82.4489L41.5433 65.5575L55.5142 85L85.6468 65.5575L99.6177 85L129.75 65.5575L140.991 81.1927L149 75.5429L132.299 52.293L102.166 71.7355H102.16ZM41.5433 23.2645L55.5142 42.707L85.6468 23.2645L99.6177 42.707L129.75 23.2645L140.991 38.8997L149 33.2499L132.299 10L102.166 29.4425L88.1952 10L58.0626 29.4425L44.0918 10L10.0065 31.9936L15.3699 40.1559L41.5498 23.2645H41.5433Z" fill="#2F7FDB"/>
<defs>
<filter id="filter0_f_1296_13" x="0" y="0" width="159" height="95" filterUnits="userSpaceOnUse" color-interpolation-filters="sRGB">
<feFlood flood-opacity="0" result="BackgroundImageFix"/>
<feBlend mode="normal" in="SourceGraphic" in2="BackgroundImageFix" result="shape"/>
<feGaussianBlur stdDeviation="5" result="effect1_foregroundBlur_1296_13"/>
</filter>
</defs>
</svg>
