<svg width="90" height="90" viewBox="0 0 90 90" fill="none" xmlns="http://www.w3.org/2000/svg" overflow="visible">
    <g>
        <g filter="url(#filter0_f_2035_11044)">
            <path
                d="M44.917 64.0649C34.3799 64.0649 23.8405 64.0757 13.3034 64.0606C8.64689 64.0542 4.74289 60.9713 3.8982 56.675C3.78243 56.0854 3.75027 55.4701 3.75027 54.8656C3.73741 50.2927 3.72883 45.7219 3.74813 41.149C3.76957 36.0273 7.78076 31.9839 12.9196 31.9196C16.0626 31.881 19.2076 31.8832 22.3506 31.9153C23.266 31.9239 23.6583 31.6774 23.7505 30.6719C24.2093 25.7796 27.6288 21.9892 32.862 20.4585C37.5871 19.0757 42.4365 18.977 47.301 19.1142C50.5511 19.2064 53.7841 19.468 56.9313 20.3963C61.7786 21.8262 65.0352 24.7827 66.1178 29.8486C66.553 31.8918 66.5294 31.8982 68.6133 31.9003C71.3639 31.9046 74.1145 31.9111 76.8651 31.9068C82.4456 31.896 86.4161 36.6297 86.2596 41.2819C86.1116 45.7069 86.236 50.1404 86.2253 54.5697C86.2124 60.0666 82.2098 64.0499 76.6378 64.0585C66.0642 64.0778 55.4906 64.0649 44.917 64.0649ZM44.9427 60.3925C49.477 60.3925 54.0113 60.3625 58.5435 60.4139C59.609 60.4268 59.9606 60.1331 59.9542 59.0311C59.9092 51.6776 59.9113 44.3241 59.9542 36.9706C59.9606 35.9094 59.6798 35.5492 58.5757 35.5535C49.5092 35.5942 40.4406 35.5899 31.3741 35.5578C30.3622 35.5535 30.0149 35.8429 30.0213 36.887C30.0599 44.2769 30.0578 51.6669 30.0213 59.0547C30.0171 60.0645 30.2958 60.4225 31.3441 60.4118C35.8763 60.3625 40.4106 60.3903 44.9449 60.3903L44.9427 60.3925ZM19.8122 48.0995C19.8122 44.3134 19.7908 40.5252 19.8272 36.7391C19.8358 35.8515 19.5421 35.5406 18.6567 35.5621C16.6929 35.6114 14.7269 35.5449 12.7631 35.5942C9.66952 35.6714 7.3477 37.9546 7.30911 41.0633C7.25122 45.6705 7.24908 50.2798 7.30911 54.887C7.34984 58.0278 9.71239 60.3153 12.8618 60.3796C14.7548 60.4182 16.65 60.3474 18.5409 60.4096C19.5121 60.4418 19.8486 60.1416 19.8336 59.1362C19.78 55.4573 19.8122 51.7784 19.8122 48.0973V48.0995ZM70.1547 47.9408C70.1547 51.6926 70.1826 55.4423 70.1354 59.194C70.1247 60.1481 70.4485 60.4396 71.3725 60.4118C73.2634 60.3539 75.1586 60.4182 77.0516 60.3839C80.2653 60.326 82.6192 58.0406 82.6578 54.8334C82.7136 50.2626 82.7136 45.6876 82.6578 41.1169C82.6192 37.9504 80.2996 35.6671 77.1459 35.5942C75.2186 35.5514 73.287 35.62 71.3596 35.5621C70.4184 35.5342 70.1247 35.8601 70.1354 36.7969C70.1805 40.5123 70.1526 44.2276 70.1526 47.943L70.1547 47.9408ZM44.8934 31.8982C50.3903 31.8982 55.8872 31.9003 61.3841 31.8982C62.7884 31.8982 62.8291 31.806 62.5418 30.4039C61.8729 27.1388 59.8084 25.1728 56.7576 24.1073C54.2729 23.2412 51.6938 22.9239 49.0826 22.8274C44.3017 22.6495 39.5123 22.5144 34.8108 23.6293C31.104 24.5082 28.2291 26.367 27.4123 30.4382C27.1378 31.8017 27.1871 31.896 28.615 31.8982C34.0411 31.9025 39.4673 31.8982 44.8934 31.8982ZM26.4797 47.9901C26.4797 44.2791 26.4818 40.5659 26.4754 36.8548C26.4754 36.4732 26.6319 35.9351 26.2481 35.7615C25.4506 35.3991 24.5502 35.4699 23.7376 35.6929C23.1266 35.8622 23.3625 36.5483 23.3625 37.0135C23.3496 44.2233 23.3539 51.4332 23.3539 58.6431C23.3539 60.4053 23.3582 60.3432 25.1097 60.4182C26.201 60.4632 26.5204 60.1009 26.5032 59.0182C26.4432 55.3436 26.4797 51.6669 26.4797 47.9901ZM63.4851 47.9387C63.4851 51.6862 63.4808 55.4337 63.4894 59.1812C63.4894 59.5585 63.3351 60.088 63.7596 60.251C64.5356 60.5511 65.4018 60.5039 66.1821 60.3046C66.8682 60.1288 66.6002 59.3999 66.6002 58.9068C66.6152 51.7333 66.6109 44.5578 66.6109 37.3844C66.6109 35.5599 66.6088 35.6135 64.7972 35.5556C63.7553 35.5213 63.4508 35.8879 63.4637 36.9063C63.5152 40.5809 63.483 44.2576 63.483 47.9344L63.4851 47.9387Z"
                fill="#78F0BE" />
            <path
                d="M42.3617 40.7442C39.504 40.7442 36.6483 40.7463 33.7905 40.742C33.3982 40.742 32.9951 40.7549 32.62 40.6649C31.7646 40.4591 31.2586 39.8909 31.2114 39.0012C31.1664 38.1437 31.6424 37.5905 32.3991 37.2732C32.8665 37.0782 33.3725 37.0696 33.8763 37.0696C39.5533 37.0696 45.2324 37.0696 50.9094 37.0739C51.2996 37.0739 51.7005 37.0953 52.0778 37.1832C53.0168 37.3997 53.5957 37.9743 53.6042 38.9755C53.6128 39.8823 52.8968 40.6198 51.8934 40.712C51.1838 40.7763 50.4656 40.7442 49.7517 40.7442C47.2884 40.7463 44.8229 40.7442 42.3596 40.7442H42.3617Z"
                fill="#78F0BE" />
            <path
                d="M58.7689 38.8963C58.7861 39.9339 57.9414 40.7357 56.8416 40.7293C55.7739 40.7228 54.8542 39.8824 54.8521 38.9113C54.8499 37.9487 55.7804 37.1297 56.8694 37.1318C57.8964 37.1361 58.7539 37.9294 58.7689 38.8941V38.8963Z"
                fill="#78F0BE" />
        </g>
        <g>
            <path
                d="M44.917 64.0649C34.3799 64.0649 23.8405 64.0757 13.3034 64.0606C8.64689 64.0542 4.74289 60.9713 3.8982 56.675C3.78243 56.0854 3.75027 55.4701 3.75027 54.8656C3.73741 50.2927 3.72883 45.7219 3.74813 41.149C3.76957 36.0273 7.78076 31.9839 12.9196 31.9196C16.0626 31.881 19.2076 31.8832 22.3506 31.9153C23.266 31.9239 23.6583 31.6774 23.7505 30.6719C24.2093 25.7796 27.6288 21.9892 32.862 20.4585C37.5871 19.0757 42.4365 18.977 47.301 19.1142C50.5511 19.2064 53.7841 19.468 56.9313 20.3963C61.7786 21.8262 65.0352 24.7827 66.1178 29.8486C66.553 31.8918 66.5294 31.8982 68.6133 31.9003C71.3639 31.9046 74.1145 31.9111 76.8651 31.9068C82.4456 31.896 86.4161 36.6297 86.2596 41.2819C86.1116 45.7069 86.236 50.1404 86.2253 54.5697C86.2124 60.0666 82.2098 64.0499 76.6378 64.0585C66.0642 64.0778 55.4906 64.0649 44.917 64.0649ZM44.9427 60.3925C49.477 60.3925 54.0113 60.3625 58.5435 60.4139C59.609 60.4268 59.9606 60.1331 59.9542 59.0311C59.9092 51.6776 59.9113 44.3241 59.9542 36.9706C59.9606 35.9094 59.6798 35.5492 58.5757 35.5535C49.5092 35.5942 40.4406 35.5899 31.3741 35.5578C30.3622 35.5535 30.0149 35.8429 30.0213 36.887C30.0599 44.2769 30.0578 51.6669 30.0213 59.0547C30.0171 60.0645 30.2958 60.4225 31.3441 60.4118C35.8763 60.3625 40.4106 60.3903 44.9449 60.3903L44.9427 60.3925ZM19.8122 48.0995C19.8122 44.3134 19.7908 40.5252 19.8272 36.7391C19.8358 35.8515 19.5421 35.5406 18.6567 35.5621C16.6929 35.6114 14.7269 35.5449 12.7631 35.5942C9.66952 35.6714 7.3477 37.9546 7.30911 41.0633C7.25122 45.6705 7.24908 50.2798 7.30911 54.887C7.34984 58.0278 9.71239 60.3153 12.8618 60.3796C14.7548 60.4182 16.65 60.3474 18.5409 60.4096C19.5121 60.4418 19.8486 60.1416 19.8336 59.1362C19.78 55.4573 19.8122 51.7784 19.8122 48.0973V48.0995ZM70.1547 47.9408C70.1547 51.6926 70.1826 55.4423 70.1354 59.194C70.1247 60.1481 70.4485 60.4396 71.3725 60.4118C73.2634 60.3539 75.1586 60.4182 77.0516 60.3839C80.2653 60.326 82.6192 58.0406 82.6578 54.8334C82.7136 50.2626 82.7136 45.6876 82.6578 41.1169C82.6192 37.9504 80.2996 35.6671 77.1459 35.5942C75.2186 35.5514 73.287 35.62 71.3596 35.5621C70.4184 35.5342 70.1247 35.8601 70.1354 36.7969C70.1805 40.5123 70.1526 44.2276 70.1526 47.943L70.1547 47.9408ZM44.8934 31.8982C50.3903 31.8982 55.8872 31.9003 61.3841 31.8982C62.7884 31.8982 62.8291 31.806 62.5418 30.4039C61.8729 27.1388 59.8084 25.1728 56.7576 24.1073C54.2729 23.2412 51.6938 22.9239 49.0826 22.8274C44.3017 22.6495 39.5123 22.5144 34.8108 23.6293C31.104 24.5082 28.2291 26.367 27.4123 30.4382C27.1378 31.8017 27.1871 31.896 28.615 31.8982C34.0411 31.9025 39.4673 31.8982 44.8934 31.8982ZM26.4797 47.9901C26.4797 44.2791 26.4818 40.5659 26.4754 36.8548C26.4754 36.4732 26.6319 35.9351 26.2481 35.7615C25.4506 35.3991 24.5502 35.4699 23.7376 35.6929C23.1266 35.8622 23.3625 36.5483 23.3625 37.0135C23.3496 44.2233 23.3539 51.4332 23.3539 58.6431C23.3539 60.4053 23.3582 60.3432 25.1097 60.4182C26.201 60.4632 26.5204 60.1009 26.5032 59.0182C26.4432 55.3436 26.4797 51.6669 26.4797 47.9901ZM63.4851 47.9387C63.4851 51.6862 63.4808 55.4337 63.4894 59.1812C63.4894 59.5585 63.3351 60.088 63.7596 60.251C64.5356 60.5511 65.4018 60.5039 66.1821 60.3046C66.8682 60.1288 66.6002 59.3999 66.6002 58.9068C66.6152 51.7333 66.6109 44.5578 66.6109 37.3844C66.6109 35.5599 66.6088 35.6135 64.7972 35.5556C63.7553 35.5213 63.4508 35.8879 63.4637 36.9063C63.5152 40.5809 63.483 44.2576 63.483 47.9344L63.4851 47.9387Z"
                fill="white" fill-opacity="0.6" />
            <path
                d="M42.3617 40.7442C39.504 40.7442 36.6483 40.7463 33.7905 40.742C33.3982 40.742 32.9951 40.7549 32.62 40.6649C31.7646 40.4591 31.2586 39.8909 31.2114 39.0012C31.1664 38.1437 31.6424 37.5905 32.3991 37.2732C32.8665 37.0782 33.3725 37.0696 33.8763 37.0696C39.5533 37.0696 45.2324 37.0696 50.9094 37.0739C51.2996 37.0739 51.7005 37.0953 52.0778 37.1832C53.0168 37.3997 53.5957 37.9743 53.6042 38.9755C53.6128 39.8823 52.8968 40.6198 51.8934 40.712C51.1838 40.7763 50.4656 40.7442 49.7517 40.7442C47.2884 40.7463 44.8229 40.7442 42.3596 40.7442H42.3617Z"
                fill="white" fill-opacity="0.6" />
            <path
                d="M58.7689 38.8963C58.7861 39.9339 57.9414 40.7357 56.8416 40.7293C55.7739 40.7228 54.8542 39.8824 54.8521 38.9113C54.8499 37.9487 55.7804 37.1297 56.8694 37.1318C57.8964 37.1361 58.7539 37.9294 58.7689 38.8941V38.8963Z"
                fill="white" fill-opacity="0.6" />
        </g>
    </g>
    <defs>
        <filter id="filter0_f_2035_11044" x="-11.2622" y="4.06958" width="112.524" height="75"
            filterUnits="userSpaceOnUse" color-interpolation-filters="sRGB">
            <feFlood flood-opacity="0" result="BackgroundImageFix" />
            <feBlend mode="normal" in="SourceGraphic" in2="BackgroundImageFix" result="shape" />
            <feGaussianBlur stdDeviation="7.5" result="effect1_foregroundBlur_2035_11044" />
        </filter>

    </defs>
</svg>