<svg width="90" height="90" viewBox="0 0 90 90" fill="none" xmlns="http://www.w3.org/2000/svg">
    <g>
        <g filter="url(#filter0_f_2035_11044)">
            <path
                d="M68.4437 51.2192V52.9136C68.4437 63.2007 68.4437 73.4907 68.4437 83.7778C68.4437 86.8019 68.2427 86.9972 65.1582 86.9972C60.0865 86.9972 55.0147 87.003 49.9401 86.9943C47.8091 86.9915 47.4358 86.6066 47.4186 84.4843C47.4128 83.9099 47.364 83.3298 47.4272 82.764C47.5736 81.4286 47.1055 80.8686 45.6753 80.926C43.4984 81.0122 43.4956 80.9347 43.4927 83.1805C43.4889 85.7269 42.2214 87.0001 39.6903 87.0001C34.9057 87.0001 30.1183 87.0001 25.3337 87.0001C22.7978 87.0001 22.4733 86.6669 22.4733 84.0736C22.4733 73.5941 22.4733 63.1146 22.4733 52.635C22.4733 52.2243 22.4733 51.8137 22.4733 51.4058C22.4044 51.3972 22.3354 51.3886 22.2694 51.38C20.8248 56.6729 19.3774 61.9629 17.9357 67.2587C16.7295 71.6872 15.5204 76.1156 14.3401 80.5498C14.0357 81.6928 13.3694 82.1064 12.2206 81.9054C8.97253 81.3338 5.71868 80.7824 2.46769 80.231C1.13801 80.007 0.756045 79.1914 0.962821 77.9479C2.17189 70.6849 3.32926 63.4132 4.58141 56.1588C6.18392 46.8769 7.90419 37.615 10.1127 28.4537C11.0432 24.5967 11.9938 20.7455 13.5044 17.0551C14.208 15.3349 15.2907 14.077 16.9822 13.2499C20.7358 11.4147 24.6445 10.0018 28.645 8.8444C29.8971 8.48254 30.5519 7.8737 30.8334 6.56411C31.5944 3.01445 31.649 3.02881 35.2762 3.02881C42.5019 3.02881 49.7276 3.06327 56.9532 3.00297C58.5213 2.98861 59.4977 3.52565 59.6758 5.06498C59.9601 7.51758 61.218 8.67495 63.6677 9.28954C67.1801 10.1683 70.5545 11.5899 73.8314 13.1924C75.5574 14.0368 76.709 15.2774 77.4212 17.0724C79.7503 22.9282 81.0341 29.0654 82.3207 35.1883C83.8629 42.5346 85.2356 49.9153 86.551 57.3047C87.7658 64.1283 88.8112 70.9835 89.9254 77.8244C90.1897 79.4413 89.7589 80.0415 88.165 80.3172C85.1495 80.837 82.1369 81.3597 79.1185 81.8623C77.3322 82.161 76.9387 81.8623 76.4706 80.1363C73.8917 70.6303 71.2955 61.1301 68.7022 51.627C68.6792 51.5466 68.6103 51.4776 68.4408 51.2163L68.4437 51.2192ZM40.8075 48.8786C40.8075 39.7431 40.7902 30.6076 40.8276 21.4721C40.8333 20.3176 40.4715 19.502 39.6185 18.7352C37.0941 16.4635 34.6128 14.1488 32.1659 11.7938C31.4279 11.0845 30.7645 10.8432 29.7449 11.1706C26.3303 12.2677 22.9299 13.3963 19.6445 14.8438C18.0879 15.5302 18.085 15.6881 19.1218 17.0695C22.9529 22.1815 25.2073 27.8104 25.1758 34.3238C25.104 48.3846 25.17 62.4483 25.1269 76.5091C25.1212 77.8904 25.5347 78.327 26.9161 78.2983C30.931 78.2207 34.9517 78.2121 38.9695 78.3011C40.4226 78.3327 40.8505 77.879 40.8419 76.4287C40.7845 67.2443 40.8132 58.0629 40.8132 48.8786H40.8075ZM50.1009 48.8039C50.1009 58.083 50.121 67.3621 50.0779 76.6412C50.0722 77.8933 50.4656 78.3126 51.7235 78.2925C55.7413 78.2293 59.7591 78.2724 63.7769 78.2695C65.0922 78.2695 65.7518 77.6109 65.7556 76.2937C65.7556 62.3277 65.8102 48.3616 65.7326 34.3928C65.6953 27.8305 67.9555 22.1527 71.8325 17.0092C72.8205 15.6996 72.8147 15.5244 71.3299 14.8668C68.0043 13.3906 64.5552 12.2533 61.0916 11.1477C60.1238 10.8375 59.492 11.073 58.7941 11.7421C56.3444 14.0913 53.8688 16.4176 51.3416 18.6835C50.4455 19.4848 50.0693 20.3291 50.0751 21.541C50.1181 30.6277 50.098 39.7172 50.098 48.8039H50.1009ZM22.3814 35.9436C23.0362 29.4186 20.8995 23.9161 17.2091 18.9018C16.9076 18.4911 16.6721 17.7875 16.1408 17.8507C15.4946 17.9253 15.5003 18.7093 15.3252 19.2263C13.4039 24.9471 12.146 30.8345 10.9254 36.7305C8.63078 47.8217 6.68363 58.9733 4.84562 70.1478C4.62736 71.4775 4.93178 72.0921 6.32465 72.2673C8.17127 72.4999 10.0064 72.8503 11.8214 73.2581C13.0621 73.5367 13.6221 73.1777 13.9553 71.9198C16.1465 63.7004 18.4038 55.4983 20.6496 47.2933C21.6835 43.5168 23.019 39.789 22.3785 35.9436H22.3814ZM68.5155 35.7684C67.8923 39.611 69.176 43.3933 70.2329 47.2186C72.5218 55.5098 74.782 63.8124 77.0192 72.1179C77.2776 73.0829 77.7027 73.5166 78.7251 73.3213C80.79 72.9249 82.8577 72.5401 84.9312 72.207C85.9651 72.0404 86.2839 71.5177 86.1144 70.5154C85.6923 68.0197 85.3678 65.504 84.914 63.014C83.3373 54.3668 81.8784 45.6965 80.0576 37.0952C78.771 31.0183 77.5131 24.9327 75.5258 19.031C75.3764 18.5859 75.3247 17.9512 74.8423 17.8449C74.3138 17.73 74.1013 18.359 73.8285 18.7237C70.118 23.7151 67.9038 29.1889 68.5155 35.7684ZM37.0108 5.78009C36.9563 5.88347 36.9017 5.98686 36.8471 6.08738C38.5387 7.54917 40.167 9.09425 41.939 10.4469C43.1394 11.363 43.5185 12.4113 43.5157 13.8788C43.4783 32.8247 43.4898 51.7706 43.4927 70.7193C43.4927 71.1989 43.4984 71.6757 43.5099 72.1553C43.5185 72.4482 43.553 72.8187 43.8402 72.8991C44.8655 73.192 45.9596 73.2322 46.9447 72.9221C47.7402 72.6693 47.4013 71.7561 47.4013 71.1329C47.4214 61.4201 47.4157 51.7074 47.4157 41.9947C47.4157 32.4743 47.4301 22.9511 47.3985 13.4308C47.3956 12.2792 47.7316 11.4435 48.6564 10.7197C50.2014 9.51355 51.669 8.20971 53.1422 6.91736C53.4639 6.63304 54.0038 6.44349 53.9062 5.78296H37.0051L37.0108 5.78009ZM32.8839 84.3149C35.0809 84.3149 37.2779 84.2661 39.472 84.3321C40.8821 84.3752 40.796 83.4964 40.8218 82.5458C40.8505 81.5406 40.6639 80.9232 39.4347 80.9375C35.0924 80.9863 30.7472 80.9835 26.4021 80.9404C25.058 80.926 25.1585 81.7618 25.1442 82.6549C25.1298 83.5825 25.1269 84.3723 26.4394 84.3321C28.5847 84.2689 30.7357 84.3149 32.8839 84.3149ZM57.9929 80.9548C55.8447 80.9548 53.6936 81.0093 51.5483 80.9347C50.2416 80.8887 50.0722 81.555 50.0837 82.6176C50.0952 83.64 50.1698 84.3551 51.5139 84.3378C55.8102 84.2804 60.1066 84.2862 64.4029 84.3378C65.6465 84.3522 65.8073 83.7261 65.7728 82.7267C65.7441 81.7847 65.8647 80.8916 64.4374 80.9404C62.2921 81.0122 60.141 80.9576 57.9929 80.9576V80.9548ZM3.84907 76.8709C3.58486 77.5803 4.07883 77.8359 4.80254 77.9594C6.8301 78.3069 8.85191 78.6802 10.8766 79.0335C12.5193 79.3178 12.2293 77.8732 12.5337 77.0633C12.8668 76.1788 12.2034 75.9232 11.451 75.8055C9.70486 75.5269 7.96162 75.2225 6.22126 74.9152C4.20232 74.5591 3.96969 74.7342 3.84907 76.8738V76.8709ZM87.0765 76.9485C87.0593 75.1679 86.6802 74.5734 85.5946 74.7457C83.5183 75.0789 81.4505 75.4781 79.377 75.8428C78.6044 75.9778 78.0444 76.3281 78.3977 77.1897C78.7164 77.9651 78.4723 79.3149 80.0203 79.0421C82.0938 78.6773 84.1644 78.3069 86.2408 77.968C86.8726 77.8646 87.2144 77.6033 87.0765 76.9485ZM40.4657 15.9667L40.8075 15.8116C40.6237 14.6887 41.2928 13.4078 40.2388 12.4601C38.2859 10.7083 36.2641 9.03681 34.2682 7.33378C33.9494 7.06382 33.5531 6.84843 33.3492 7.37973C33.0878 8.06611 32.6886 8.79557 33.4382 9.48196C35.7903 11.633 38.1251 13.8013 40.4657 15.9638V15.9667ZM50.2818 16.0787C51.1492 15.2947 51.8872 14.637 52.6167 13.9679C54.1962 12.5147 55.7528 11.0356 57.3582 9.61119C58.2169 8.84727 57.9957 7.93113 57.4702 7.31655C56.8384 6.5756 56.4392 7.58651 56.0314 7.90816C54.65 9.00235 53.4065 10.2918 51.9562 11.2798C50.2474 12.4429 49.7419 13.9018 50.279 16.0787H50.2818ZM45.4427 78.2695C46.1837 78.1173 47.387 78.729 47.4301 77.0777C47.4703 75.524 46.4249 75.7222 45.4829 75.7394C44.5783 75.7566 43.4869 75.4407 43.4783 77.0231C43.4726 78.5223 44.4835 78.2322 45.4427 78.2695Z"
                fill="#00FFE1" />
        </g>
        <path
            d="M27.5994 68.7205C27.5994 67.431 27.5821 66.1415 27.608 64.8549C27.6252 64.0249 27.8981 63.2782 28.8659 63.2438C29.8538 63.2093 30.1898 63.9905 30.2042 64.786C30.2587 67.4568 30.2559 70.1306 30.2157 72.8014C30.2042 73.6171 29.8596 74.3637 28.8716 74.3235C27.9153 74.2833 27.608 73.5855 27.6022 72.7296C27.5908 71.3942 27.5994 70.0559 27.6022 68.7205H27.5994Z"
            fill="black" />
        <path
            d="M63.3058 68.8325C63.3058 70.1679 63.3202 71.5062 63.3001 72.8416C63.2886 73.6458 62.9411 74.2661 62.068 74.3235C61.1634 74.3867 60.7326 73.7492 60.7183 72.9766C60.6694 70.211 60.6694 67.4425 60.7183 64.6768C60.7326 63.9302 61.1088 63.2208 62.0077 63.2409C62.9727 63.2639 63.28 63.9847 63.2972 64.8233C63.3259 66.1587 63.3058 67.497 63.303 68.8325H63.3058Z"
            fill="black" />
    </g>
    <g>
        <path
            d="M68.4437 51.2192V52.9136C68.4437 63.2007 68.4437 73.4907 68.4437 83.7778C68.4437 86.8019 68.2427 86.9972 65.1582 86.9972C60.0865 86.9972 55.0147 87.003 49.9401 86.9943C47.8091 86.9915 47.4358 86.6066 47.4186 84.4843C47.4128 83.9099 47.364 83.3298 47.4272 82.764C47.5736 81.4286 47.1055 80.8686 45.6753 80.926C43.4984 81.0122 43.4956 80.9347 43.4927 83.1805C43.4889 85.7269 42.2214 87.0001 39.6903 87.0001C34.9057 87.0001 30.1183 87.0001 25.3337 87.0001C22.7978 87.0001 22.4733 86.6669 22.4733 84.0736C22.4733 73.5941 22.4733 63.1146 22.4733 52.635C22.4733 52.2243 22.4733 51.8137 22.4733 51.4058C22.4044 51.3972 22.3354 51.3886 22.2694 51.38C20.8248 56.6729 19.3774 61.9629 17.9357 67.2587C16.7295 71.6872 15.5204 76.1156 14.3401 80.5498C14.0357 81.6928 13.3694 82.1064 12.2206 81.9054C8.97253 81.3338 5.71868 80.7824 2.46769 80.231C1.13801 80.007 0.756045 79.1914 0.962821 77.9479C2.17189 70.6849 3.32926 63.4132 4.58141 56.1588C6.18392 46.8769 7.90419 37.615 10.1127 28.4537C11.0432 24.5967 11.9938 20.7455 13.5044 17.0551C14.208 15.3349 15.2907 14.077 16.9822 13.2499C20.7358 11.4147 24.6445 10.0018 28.645 8.8444C29.8971 8.48254 30.5519 7.8737 30.8334 6.56411C31.5944 3.01445 31.649 3.02881 35.2762 3.02881C42.5019 3.02881 49.7276 3.06327 56.9532 3.00297C58.5213 2.98861 59.4977 3.52565 59.6758 5.06498C59.9601 7.51758 61.218 8.67495 63.6677 9.28954C67.1801 10.1683 70.5545 11.5899 73.8314 13.1924C75.5574 14.0368 76.709 15.2774 77.4212 17.0724C79.7503 22.9282 81.0341 29.0654 82.3207 35.1883C83.8629 42.5346 85.2356 49.9153 86.551 57.3047C87.7658 64.1283 88.8112 70.9835 89.9254 77.8244C90.1897 79.4413 89.7589 80.0415 88.165 80.3172C85.1495 80.837 82.1369 81.3597 79.1185 81.8623C77.3322 82.161 76.9387 81.8623 76.4706 80.1363C73.8917 70.6303 71.2955 61.1301 68.7022 51.627C68.6792 51.5466 68.6103 51.4776 68.4408 51.2163L68.4437 51.2192ZM40.8075 48.8786C40.8075 39.7431 40.7902 30.6076 40.8276 21.4721C40.8333 20.3176 40.4715 19.502 39.6185 18.7352C37.0941 16.4635 34.6128 14.1488 32.1659 11.7938C31.4279 11.0845 30.7645 10.8432 29.7449 11.1706C26.3303 12.2677 22.9299 13.3963 19.6445 14.8438C18.0879 15.5302 18.085 15.6881 19.1218 17.0695C22.9529 22.1815 25.2073 27.8104 25.1758 34.3238C25.104 48.3846 25.17 62.4483 25.1269 76.5091C25.1212 77.8904 25.5347 78.327 26.9161 78.2983C30.931 78.2207 34.9517 78.2121 38.9695 78.3011C40.4226 78.3327 40.8505 77.879 40.8419 76.4287C40.7845 67.2443 40.8132 58.0629 40.8132 48.8786H40.8075ZM50.1009 48.8039C50.1009 58.083 50.121 67.3621 50.0779 76.6412C50.0722 77.8933 50.4656 78.3126 51.7235 78.2925C55.7413 78.2293 59.7591 78.2724 63.7769 78.2695C65.0922 78.2695 65.7518 77.6109 65.7556 76.2937C65.7556 62.3277 65.8102 48.3616 65.7326 34.3928C65.6953 27.8305 67.9555 22.1527 71.8325 17.0092C72.8205 15.6996 72.8147 15.5244 71.3299 14.8668C68.0043 13.3906 64.5552 12.2533 61.0916 11.1477C60.1238 10.8375 59.492 11.073 58.7941 11.7421C56.3444 14.0913 53.8688 16.4176 51.3416 18.6835C50.4455 19.4848 50.0693 20.3291 50.0751 21.541C50.1181 30.6277 50.098 39.7172 50.098 48.8039H50.1009ZM22.3814 35.9436C23.0362 29.4186 20.8995 23.9161 17.2091 18.9018C16.9076 18.4911 16.6721 17.7875 16.1408 17.8507C15.4946 17.9253 15.5003 18.7093 15.3252 19.2263C13.4039 24.9471 12.146 30.8345 10.9254 36.7305C8.63078 47.8217 6.68363 58.9733 4.84562 70.1478C4.62736 71.4775 4.93178 72.0921 6.32465 72.2673C8.17127 72.4999 10.0064 72.8503 11.8214 73.2581C13.0621 73.5367 13.6221 73.1777 13.9553 71.9198C16.1465 63.7004 18.4038 55.4983 20.6496 47.2933C21.6835 43.5168 23.019 39.789 22.3785 35.9436H22.3814ZM68.5155 35.7684C67.8923 39.611 69.176 43.3933 70.2329 47.2186C72.5218 55.5098 74.782 63.8124 77.0192 72.1179C77.2776 73.0829 77.7027 73.5166 78.7251 73.3213C80.79 72.9249 82.8577 72.5401 84.9312 72.207C85.9651 72.0404 86.2839 71.5177 86.1144 70.5154C85.6923 68.0197 85.3678 65.504 84.914 63.014C83.3373 54.3668 81.8784 45.6965 80.0576 37.0952C78.771 31.0183 77.5131 24.9327 75.5258 19.031C75.3764 18.5859 75.3247 17.9512 74.8423 17.8449C74.3138 17.73 74.1013 18.359 73.8285 18.7237C70.118 23.7151 67.9038 29.1889 68.5155 35.7684ZM37.0108 5.78009C36.9563 5.88347 36.9017 5.98686 36.8471 6.08738C38.5387 7.54917 40.167 9.09425 41.939 10.4469C43.1394 11.363 43.5185 12.4113 43.5157 13.8788C43.4783 32.8247 43.4898 51.7706 43.4927 70.7193C43.4927 71.1989 43.4984 71.6757 43.5099 72.1553C43.5185 72.4482 43.553 72.8187 43.8402 72.8991C44.8655 73.192 45.9596 73.2322 46.9447 72.9221C47.7402 72.6693 47.4013 71.7561 47.4013 71.1329C47.4214 61.4201 47.4157 51.7074 47.4157 41.9947C47.4157 32.4743 47.4301 22.9511 47.3985 13.4308C47.3956 12.2792 47.7316 11.4435 48.6564 10.7197C50.2014 9.51355 51.669 8.20971 53.1422 6.91736C53.4639 6.63304 54.0038 6.44349 53.9062 5.78296H37.0051L37.0108 5.78009ZM32.8839 84.3149C35.0809 84.3149 37.2779 84.2661 39.472 84.3321C40.8821 84.3752 40.796 83.4964 40.8218 82.5458C40.8505 81.5406 40.6639 80.9232 39.4347 80.9375C35.0924 80.9863 30.7472 80.9835 26.4021 80.9404C25.058 80.926 25.1585 81.7618 25.1442 82.6549C25.1298 83.5825 25.1269 84.3723 26.4394 84.3321C28.5847 84.2689 30.7357 84.3149 32.8839 84.3149ZM57.9929 80.9548C55.8447 80.9548 53.6936 81.0093 51.5483 80.9347C50.2416 80.8887 50.0722 81.555 50.0837 82.6176C50.0952 83.64 50.1698 84.3551 51.5139 84.3378C55.8102 84.2804 60.1066 84.2862 64.4029 84.3378C65.6465 84.3522 65.8073 83.7261 65.7728 82.7267C65.7441 81.7847 65.8647 80.8916 64.4374 80.9404C62.2921 81.0122 60.141 80.9576 57.9929 80.9576V80.9548ZM3.84907 76.8709C3.58486 77.5803 4.07883 77.8359 4.80254 77.9594C6.8301 78.3069 8.85191 78.6802 10.8766 79.0335C12.5193 79.3178 12.2293 77.8732 12.5337 77.0633C12.8668 76.1788 12.2034 75.9232 11.451 75.8055C9.70486 75.5269 7.96162 75.2225 6.22126 74.9152C4.20232 74.5591 3.96969 74.7342 3.84907 76.8738V76.8709ZM87.0765 76.9485C87.0593 75.1679 86.6802 74.5734 85.5946 74.7457C83.5183 75.0789 81.4505 75.4781 79.377 75.8428C78.6044 75.9778 78.0444 76.3281 78.3977 77.1897C78.7164 77.9651 78.4723 79.3149 80.0203 79.0421C82.0938 78.6773 84.1644 78.3069 86.2408 77.968C86.8726 77.8646 87.2144 77.6033 87.0765 76.9485ZM40.4657 15.9667L40.8075 15.8116C40.6237 14.6887 41.2928 13.4078 40.2388 12.4601C38.2859 10.7083 36.2641 9.03681 34.2682 7.33378C33.9494 7.06382 33.5531 6.84843 33.3492 7.37973C33.0878 8.06611 32.6886 8.79557 33.4382 9.48196C35.7903 11.633 38.1251 13.8013 40.4657 15.9638V15.9667ZM50.2818 16.0787C51.1492 15.2947 51.8872 14.637 52.6167 13.9679C54.1962 12.5147 55.7528 11.0356 57.3582 9.61119C58.2169 8.84727 57.9957 7.93113 57.4702 7.31655C56.8384 6.5756 56.4392 7.58651 56.0314 7.90816C54.65 9.00235 53.4065 10.2918 51.9562 11.2798C50.2474 12.4429 49.7419 13.9018 50.279 16.0787H50.2818ZM45.4427 78.2695C46.1837 78.1173 47.387 78.729 47.4301 77.0777C47.4703 75.524 46.4249 75.7222 45.4829 75.7394C44.5783 75.7566 43.4869 75.4407 43.4783 77.0231C43.4726 78.5223 44.4835 78.2322 45.4427 78.2695Z"
            fill="white" fill-opacity="0.6" />
        <path
            d="M27.5994 68.7205C27.5994 67.431 27.5821 66.1415 27.608 64.8549C27.6252 64.0249 27.8981 63.2782 28.8659 63.2438C29.8538 63.2093 30.1898 63.9905 30.2042 64.786C30.2587 67.4568 30.2559 70.1306 30.2157 72.8014C30.2042 73.6171 29.8596 74.3637 28.8716 74.3235C27.9153 74.2833 27.608 73.5855 27.6022 72.7296C27.5908 71.3942 27.5994 70.0559 27.6022 68.7205H27.5994Z"
            fill="white" fill-opacity="0.6" />
        <path
            d="M63.3058 68.8325C63.3058 70.1679 63.3202 71.5062 63.3001 72.8416C63.2886 73.6458 62.9411 74.2661 62.068 74.3235C61.1634 74.3867 60.7326 73.7492 60.7183 72.9766C60.6694 70.211 60.6694 67.4425 60.7183 64.6768C60.7326 63.9302 61.1088 63.2208 62.0077 63.2409C62.9727 63.2639 63.28 63.9847 63.2972 64.8233C63.3259 66.1587 63.3058 67.497 63.303 68.8325H63.3058Z"
            fill="white" fill-opacity="0.6" />
    </g>
    <defs>
        <filter id="filter0_f_2035_11044" x="-14.0898" y="-11.9973" width="119.088" height="113.997"
            filterUnits="userSpaceOnUse" color-interpolation-filters="sRGB">
            <feFlood flood-opacity="0" result="BackgroundImageFix" />
            <feBlend mode="normal" in="SourceGraphic" in2="BackgroundImageFix" result="shape" />
            <feGaussianBlur stdDeviation="7.5" result="effect1_foregroundBlur_2035_11044" />
        </filter>

    </defs>
</svg>