<svg width="90" height="90" viewBox="0 0 90 90" fill="none" xmlns="http://www.w3.org/2000/svg" overflow="visible">
    <g>
        <g filter="url(#filter0_f_2035_11044)">
            <path
                d="M26.1666 51.7453C26.1666 44.3494 26.1666 36.9534 26.1666 29.5574C26.1666 26.9334 26.5921 24.4492 28.4401 22.4046C29.439 21.3003 30.6204 20.4776 32.0307 20.0379C32.7743 19.8069 33.0276 19.4098 33.0154 18.6479C32.9769 16.2852 33.0499 13.9185 32.9911 11.5559C32.9182 8.65221 35.1613 5.90861 38.5107 6.00182C42.8632 6.12137 47.2238 6.02006 51.5803 6.03627C54.794 6.0464 56.9642 8.21656 56.9925 11.4424C57.0148 13.874 57.0027 16.3055 56.9945 18.7371C56.9945 19.276 57.0472 19.7117 57.6713 19.9265C62.1008 21.4523 63.8211 24.8017 63.8272 29.2413C63.8414 39.6423 63.8313 50.0453 63.8313 60.4462C63.8313 65.0722 63.8373 69.7003 63.8292 74.3263C63.8252 76.7437 63.3895 79.0394 61.7482 80.9401C60.1272 82.8164 58.111 83.9653 55.5924 83.9755C48.5348 84.0038 41.4752 84.012 34.4176 83.9755C30.3488 83.9552 26.7015 80.5166 26.3084 76.4579C26.1889 75.2138 26.1646 73.9676 26.1646 72.7174C26.1706 65.7267 26.1666 58.736 26.1666 51.7453ZM44.9908 46.8559C40.3648 46.8559 35.7388 46.8802 31.1148 46.8376C30.1381 46.8295 29.8524 47.1375 29.8544 48.1081C29.8868 56.9873 29.8686 65.8686 29.8767 74.7478C29.8808 78.2998 31.8179 80.3606 35.3376 80.3889C41.7852 80.4396 48.2349 80.4416 54.6846 80.3889C58.1536 80.3606 60.1211 78.2938 60.1252 74.8308C60.1373 65.9172 60.115 57.0035 60.1495 48.0899C60.1535 47.0929 59.8212 46.8295 58.8689 46.8376C54.2428 46.8782 49.6168 46.8559 44.9928 46.8559H44.9908ZM45.003 33.0143C49.6938 33.0143 54.3827 33.0021 59.0735 33.0264C59.8435 33.0305 60.1779 32.8076 60.1414 31.991C60.0867 30.7793 60.1596 29.5615 60.1171 28.3477C60.0137 25.3428 57.9753 23.1969 55.1202 23.1827C48.3727 23.1503 41.6231 23.1564 34.8756 23.1827C32.4076 23.1929 30.5353 24.8179 30.0348 27.2535C29.7247 28.7591 29.9821 30.2849 29.8605 31.7945C29.7795 32.8056 30.1928 33.0427 31.1371 33.0345C35.759 32.994 40.383 33.0163 45.005 33.0163L45.003 33.0143ZM45.0009 43.168C49.6614 43.168 54.3219 43.1498 58.9803 43.1842C59.8597 43.1903 60.1819 42.9208 60.1434 42.0232C60.0826 40.5744 60.1009 39.1195 60.1373 37.6687C60.1535 36.9595 59.8719 36.7204 59.1829 36.7224C49.7283 36.7346 40.2716 36.7346 30.8169 36.7224C30.128 36.7224 29.8463 36.9615 29.8625 37.6687C29.897 39.0871 29.9274 40.5075 29.8544 41.9219C29.8038 42.9066 30.1523 43.1944 31.1209 43.1863C35.7469 43.1437 40.3729 43.168 44.9989 43.168H45.0009ZM44.8956 19.4766C47.3251 19.4766 49.7526 19.4544 52.1821 19.4888C53.0169 19.501 53.3128 19.195 53.2986 18.3642C53.2601 16.1393 53.2945 13.9125 53.2804 11.6856C53.2702 10.2388 52.713 9.60456 51.2824 9.59848C47.0657 9.5762 42.849 9.59241 38.6343 9.63293C37.2869 9.64509 36.7357 10.2408 36.7256 11.5761C36.7053 13.803 36.7519 16.0299 36.7013 18.2548C36.681 19.1687 36.9748 19.5131 37.915 19.4929C40.2412 19.4422 42.5694 19.4766 44.8976 19.4766H44.8956Z"
                fill="#00865B" />
        </g>
        <g>
            <path
                d="M26.1666 51.7453C26.1666 44.3494 26.1666 36.9534 26.1666 29.5574C26.1666 26.9334 26.5921 24.4492 28.4401 22.4046C29.439 21.3003 30.6204 20.4776 32.0307 20.0379C32.7743 19.8069 33.0276 19.4098 33.0154 18.6479C32.9769 16.2852 33.0499 13.9185 32.9911 11.5559C32.9182 8.65221 35.1613 5.90861 38.5107 6.00182C42.8632 6.12137 47.2238 6.02006 51.5803 6.03627C54.794 6.0464 56.9642 8.21656 56.9925 11.4424C57.0148 13.874 57.0027 16.3055 56.9945 18.7371C56.9945 19.276 57.0472 19.7117 57.6713 19.9265C62.1008 21.4523 63.8211 24.8017 63.8272 29.2413C63.8414 39.6423 63.8313 50.0453 63.8313 60.4462C63.8313 65.0722 63.8373 69.7003 63.8292 74.3263C63.8252 76.7437 63.3895 79.0394 61.7482 80.9401C60.1272 82.8164 58.111 83.9653 55.5924 83.9755C48.5348 84.0038 41.4752 84.012 34.4176 83.9755C30.3488 83.9552 26.7015 80.5166 26.3084 76.4579C26.1889 75.2138 26.1646 73.9676 26.1646 72.7174C26.1706 65.7267 26.1666 58.736 26.1666 51.7453ZM44.9908 46.8559C40.3648 46.8559 35.7388 46.8802 31.1148 46.8376C30.1381 46.8295 29.8524 47.1375 29.8544 48.1081C29.8868 56.9873 29.8686 65.8686 29.8767 74.7478C29.8808 78.2998 31.8179 80.3606 35.3376 80.3889C41.7852 80.4396 48.2349 80.4416 54.6846 80.3889C58.1536 80.3606 60.1211 78.2938 60.1252 74.8308C60.1373 65.9172 60.115 57.0035 60.1495 48.0899C60.1535 47.0929 59.8212 46.8295 58.8689 46.8376C54.2428 46.8782 49.6168 46.8559 44.9928 46.8559H44.9908ZM45.003 33.0143C49.6938 33.0143 54.3827 33.0021 59.0735 33.0264C59.8435 33.0305 60.1779 32.8076 60.1414 31.991C60.0867 30.7793 60.1596 29.5615 60.1171 28.3477C60.0137 25.3428 57.9753 23.1969 55.1202 23.1827C48.3727 23.1503 41.6231 23.1564 34.8756 23.1827C32.4076 23.1929 30.5353 24.8179 30.0348 27.2535C29.7247 28.7591 29.9821 30.2849 29.8605 31.7945C29.7795 32.8056 30.1928 33.0427 31.1371 33.0345C35.759 32.994 40.383 33.0163 45.005 33.0163L45.003 33.0143ZM45.0009 43.168C49.6614 43.168 54.3219 43.1498 58.9803 43.1842C59.8597 43.1903 60.1819 42.9208 60.1434 42.0232C60.0826 40.5744 60.1009 39.1195 60.1373 37.6687C60.1535 36.9595 59.8719 36.7204 59.1829 36.7224C49.7283 36.7346 40.2716 36.7346 30.8169 36.7224C30.128 36.7224 29.8463 36.9615 29.8625 37.6687C29.897 39.0871 29.9274 40.5075 29.8544 41.9219C29.8038 42.9066 30.1523 43.1944 31.1209 43.1863C35.7469 43.1437 40.3729 43.168 44.9989 43.168H45.0009ZM44.8956 19.4766C47.3251 19.4766 49.7526 19.4544 52.1821 19.4888C53.0169 19.501 53.3128 19.195 53.2986 18.3642C53.2601 16.1393 53.2945 13.9125 53.2804 11.6856C53.2702 10.2388 52.713 9.60456 51.2824 9.59848C47.0657 9.5762 42.849 9.59241 38.6343 9.63293C37.2869 9.64509 36.7357 10.2408 36.7256 11.5761C36.7053 13.803 36.7519 16.0299 36.7013 18.2548C36.681 19.1687 36.9748 19.5131 37.915 19.4929C40.2412 19.4422 42.5694 19.4766 44.8976 19.4766H44.8956Z"
                fill="white" fill-opacity="0.6" />
        </g>
    </g>
    <defs>
        <filter id="filter0_f_2035_11044" x="11.1646" y="-9" width="67.6709" height="108" filterUnits="userSpaceOnUse"
            color-interpolation-filters="sRGB">
            <feFlood flood-opacity="0" result="BackgroundImageFix" />
            <feBlend mode="normal" in="SourceGraphic" in2="BackgroundImageFix" result="shape" />
            <feGaussianBlur stdDeviation="7.5" result="effect1_foregroundBlur_2035_11044" />
        </filter>

    </defs>
</svg>