<svg width="141" height="104" viewBox="0 0 141 104" fill="none" xmlns="http://www.w3.org/2000/svg">
<g filter="url(#filter0_f_1296_4)">
<path d="M33.3064 64.7816C46.1602 64.7816 56.6129 54.3914 56.6129 41.6276C56.6129 33.6109 52.4856 26.5377 46.2379 22.3781C54.1222 20.497 63.9716 18.9661 75.2186 18.9661C104.319 18.9661 124.173 29.1842 124.364 29.2851L128.599 21.3634C127.721 20.9005 106.69 9.99407 75.2186 10C43.7472 10 22.7164 20.9005 21.8384 21.3693L21.8921 21.4702C14.8023 25.4459 10 32.9878 10 41.6394C10 54.4092 20.4527 64.7934 33.3064 64.7934V64.7816ZM33.3064 27.4456C41.1788 27.4456 47.5818 33.8067 47.5818 41.6276C47.5818 49.4484 41.1788 55.8096 33.3064 55.8096C25.4341 55.8096 19.0311 49.4484 19.0311 41.6276C19.0311 33.8067 25.4341 27.4456 33.3064 27.4456ZM131 62.3724C131 49.6027 120.547 39.2184 107.694 39.2184C94.8398 39.2184 84.3871 49.6086 84.3871 62.3724C84.3871 70.401 88.5204 77.4801 94.78 81.6338C86.9077 83.5089 77.0643 85.0339 65.7754 85.0339C36.6752 85.0339 16.8211 74.8158 16.63 74.7149L12.3952 82.6366C13.2732 83.0995 34.3039 94 65.7754 94C97.2469 94 118.278 83.0995 119.156 82.6366L119.102 82.5358C126.192 78.5601 131 71.0181 131 62.3665V62.3724ZM107.694 76.5544C99.8212 76.5544 93.4182 70.1933 93.4182 62.3724C93.4182 54.5516 99.8212 48.1905 107.694 48.1905C115.566 48.1905 121.969 54.5516 121.969 62.3724C121.969 70.1933 115.566 76.5544 107.694 76.5544Z" fill="#30EEC8"/>
</g>
<path d="M33.3064 64.7816C46.1602 64.7816 56.6129 54.3914 56.6129 41.6276C56.6129 33.6109 52.4856 26.5377 46.2379 22.3781C54.1222 20.497 63.9716 18.9661 75.2186 18.9661C104.319 18.9661 124.173 29.1842 124.364 29.2851L128.599 21.3634C127.721 20.9005 106.69 9.99407 75.2186 10C43.7472 10 22.7164 20.9005 21.8384 21.3693L21.8921 21.4702C14.8023 25.4459 10 32.9878 10 41.6394C10 54.4092 20.4527 64.7934 33.3064 64.7934V64.7816ZM33.3064 27.4456C41.1788 27.4456 47.5818 33.8067 47.5818 41.6276C47.5818 49.4484 41.1788 55.8096 33.3064 55.8096C25.4341 55.8096 19.0311 49.4484 19.0311 41.6276C19.0311 33.8067 25.4341 27.4456 33.3064 27.4456ZM131 62.3724C131 49.6027 120.547 39.2184 107.694 39.2184C94.8398 39.2184 84.3871 49.6086 84.3871 62.3724C84.3871 70.401 88.5204 77.4801 94.78 81.6338C86.9077 83.5089 77.0643 85.0339 65.7754 85.0339C36.6752 85.0339 16.8211 74.8158 16.63 74.7149L12.3952 82.6366C13.2732 83.0995 34.3039 94 65.7754 94C97.2469 94 118.278 83.0995 119.156 82.6366L119.102 82.5358C126.192 78.5601 131 71.0181 131 62.3665V62.3724ZM107.694 76.5544C99.8212 76.5544 93.4182 70.1933 93.4182 62.3724C93.4182 54.5516 99.8212 48.1905 107.694 48.1905C115.566 48.1905 121.969 54.5516 121.969 62.3724C121.969 70.1933 115.566 76.5544 107.694 76.5544Z" fill="#30EEC8"/>
<defs>
<filter id="filter0_f_1296_4" x="0" y="0" width="141" height="104" filterUnits="userSpaceOnUse" color-interpolation-filters="sRGB">
<feFlood flood-opacity="0" result="BackgroundImageFix"/>
<feBlend mode="normal" in="SourceGraphic" in2="BackgroundImageFix" result="shape"/>
<feGaussianBlur stdDeviation="5" result="effect1_foregroundBlur_1296_4"/>
</filter>
</defs>
</svg>
