<svg width="90" height="90" viewBox="0 0 90 90" fill="none" xmlns="http://www.w3.org/2000/svg" overflow="visible">
    <g>
        <g filter="url(#filter0_f_2035_11044)">
            <path
                d="M64.1751 68.0248C64.116 72.3761 65.0288 74.8485 61.4162 77.8733C53.3068 84.6663 34.5734 85.3891 24.5975 83.7771C19.0533 82.8818 6.40214 79.7831 5.88867 72.8566V15.3423C6.17801 12.0896 9.4055 10.2086 12.0747 9.05043C23.0633 4.28427 49.7696 4.01732 60.2324 10.0792C61.9053 11.0485 63.9061 12.7159 64.1486 14.7571C64.3096 16.1042 63.9408 23.0245 64.2607 23.4742C70.7666 24.2627 76.5472 27.5853 80.2311 33.0476C89.6568 47.0298 80.9727 66.6489 64.1751 68.0227V68.0248ZM29.29 9.149C24.3938 9.40569 17.7819 10.3441 13.3013 12.3381C12.3009 12.7837 9.07745 14.33 9.44421 15.6647C9.56239 16.0939 10.8827 17.4061 11.3453 17.4759C11.7752 17.5416 14.2121 16.4163 14.9049 16.211C26.1216 12.911 41.9351 12.7734 53.2599 15.673C54.2236 15.9194 58.3884 17.5088 58.7817 17.4903C59.5804 17.4513 60.9496 15.9153 60.6766 14.985C60.104 13.0404 53.2823 11.0156 51.3853 10.5803C44.4637 8.99704 36.3869 8.77732 29.2921 9.14695L29.29 9.149ZM53.7815 19.3569C53.5268 19.1146 47.7544 18.0653 46.9312 17.9421C38.8075 16.7305 27.7496 16.8968 19.7135 18.593C18.9515 18.7532 17.3764 19.0345 16.7489 19.3035C16.4575 19.4267 16.4392 19.3467 16.4942 19.7635C24.1004 21.5706 32 22.1682 39.8344 21.8273C44.4352 21.626 49.0075 20.78 53.4779 19.7615C53.7163 19.706 54.1421 19.6958 53.7835 19.3569H53.7815ZM60.913 20.3816C60.2834 20.6219 59.723 21.0634 59.1219 21.3488C47.9215 26.6879 24.1737 26.577 12.686 22.0634C11.5388 21.6137 10.3937 21.0593 9.36271 20.3816V73.2591C9.36271 74.2694 12.038 75.9944 12.8938 76.4769C23.7458 82.6107 47.4773 82.6354 58.1215 75.9903C58.8978 75.5056 60.913 74.0086 60.913 73.0538V20.3816ZM64.1731 64.5318C77.2868 63.2935 84.5222 48.4775 78.4747 36.8732C75.7016 31.5526 70.194 27.5011 64.1731 27.1582V34.3454C76.9791 36.3927 76.8895 55.1945 64.1731 57.3445V64.5318ZM64.1731 53.6482C66.8015 53.5045 69.2873 50.7857 69.9801 48.3091C71.276 43.6806 68.8859 38.9452 64.1731 37.8363V53.6482Z"
                fill="#FE5000" />
        </g>
        <g>
            <path
                d="M64.1751 68.0248C64.116 72.3761 65.0288 74.8485 61.4162 77.8733C53.3068 84.6663 34.5734 85.3891 24.5975 83.7771C19.0533 82.8818 6.40214 79.7831 5.88867 72.8566V15.3423C6.17801 12.0896 9.4055 10.2086 12.0747 9.05043C23.0633 4.28427 49.7696 4.01732 60.2324 10.0792C61.9053 11.0485 63.9061 12.7159 64.1486 14.7571C64.3096 16.1042 63.9408 23.0245 64.2607 23.4742C70.7666 24.2627 76.5472 27.5853 80.2311 33.0476C89.6568 47.0298 80.9727 66.6489 64.1751 68.0227V68.0248ZM29.29 9.149C24.3938 9.40569 17.7819 10.3441 13.3013 12.3381C12.3009 12.7837 9.07745 14.33 9.44421 15.6647C9.56239 16.0939 10.8827 17.4061 11.3453 17.4759C11.7752 17.5416 14.2121 16.4163 14.9049 16.211C26.1216 12.911 41.9351 12.7734 53.2599 15.673C54.2236 15.9194 58.3884 17.5088 58.7817 17.4903C59.5804 17.4513 60.9496 15.9153 60.6766 14.985C60.104 13.0404 53.2823 11.0156 51.3853 10.5803C44.4637 8.99704 36.3869 8.77732 29.2921 9.14695L29.29 9.149ZM53.7815 19.3569C53.5268 19.1146 47.7544 18.0653 46.9312 17.9421C38.8075 16.7305 27.7496 16.8968 19.7135 18.593C18.9515 18.7532 17.3764 19.0345 16.7489 19.3035C16.4575 19.4267 16.4392 19.3467 16.4942 19.7635C24.1004 21.5706 32 22.1682 39.8344 21.8273C44.4352 21.626 49.0075 20.78 53.4779 19.7615C53.7163 19.706 54.1421 19.6958 53.7835 19.3569H53.7815ZM60.913 20.3816C60.2834 20.6219 59.723 21.0634 59.1219 21.3488C47.9215 26.6879 24.1737 26.577 12.686 22.0634C11.5388 21.6137 10.3937 21.0593 9.36271 20.3816V73.2591C9.36271 74.2694 12.038 75.9944 12.8938 76.4769C23.7458 82.6107 47.4773 82.6354 58.1215 75.9903C58.8978 75.5056 60.913 74.0086 60.913 73.0538V20.3816ZM64.1731 64.5318C77.2868 63.2935 84.5222 48.4775 78.4747 36.8732C75.7016 31.5526 70.194 27.5011 64.1731 27.1582V34.3454C76.9791 36.3927 76.8895 55.1945 64.1731 57.3445V64.5318ZM64.1731 53.6482C66.8015 53.5045 69.2873 50.7857 69.9801 48.3091C71.276 43.6806 68.8859 38.9452 64.1731 37.8363V53.6482Z"
                fill="white" fill-opacity="0.6" />
        </g>
    </g>
    <defs>
        <filter id="filter0_f_2035_11044" x="-9.10889" y="-9.5" width="108.218" height="109"
            filterUnits="userSpaceOnUse" color-interpolation-filters="sRGB">
            <feFlood flood-opacity="0" result="BackgroundImageFix" />
            <feBlend mode="normal" in="SourceGraphic" in2="BackgroundImageFix" result="shape" />
            <feGaussianBlur stdDeviation="7.5" result="effect1_foregroundBlur_2035_11044" />
        </filter>

    </defs>
</svg>