<svg width="90" height="90" viewBox="0 0 90 90" fill="none" xmlns="http://www.w3.org/2000/svg" overflow="visible">
    <g>
        <g filter="url(#filter0_f_2035_11044)">
            <path
                d="M17.9064 7.54662L67.3692 7.5C71.1537 7.94794 74.0576 10.6923 74.5832 14.4825V75.5073C74.0414 79.3503 71.0543 82.1696 67.1744 82.498H18.4583C17.0358 82.4716 15.9461 81.519 15.4165 80.2664V9.72144C15.8629 8.65937 16.7497 7.77363 17.9064 7.54662ZM25.8732 10.9436H18.5679V79.0462H25.8732V10.9436ZM29.3229 79.0462H67.98C68.0551 79.0462 69.1204 78.4422 69.2868 78.3247C70.6505 77.3599 71.2775 75.935 71.3364 74.2912V15.8993C71.2248 14.1278 70.8697 12.8692 69.4005 11.7544C69.2219 11.6186 68.0612 10.9436 67.98 10.9436H29.3229V79.0462Z"
                fill="#78F0BE" />
        </g>
        <g>
            <path
                d="M17.9064 7.54662L67.3692 7.5C71.1537 7.94794 74.0576 10.6923 74.5832 14.4825V75.5073C74.0414 79.3503 71.0543 82.1696 67.1744 82.498H18.4583C17.0358 82.4716 15.9461 81.519 15.4165 80.2664V9.72144C15.8629 8.65937 16.7497 7.77363 17.9064 7.54662ZM25.8732 10.9436H18.5679V79.0462H25.8732V10.9436ZM29.3229 79.0462H67.98C68.0551 79.0462 69.1204 78.4422 69.2868 78.3247C70.6505 77.3599 71.2775 75.935 71.3364 74.2912V15.8993C71.2248 14.1278 70.8697 12.8692 69.4005 11.7544C69.2219 11.6186 68.0612 10.9436 67.98 10.9436H29.3229V79.0462Z"
                fill="white" fill-opacity="0.6" />
        </g>
    </g>
    <defs>
        <filter id="filter0_f_2035_11044" x="0.416504" y="-7.5" width="89.1665" height="105"
            filterUnits="userSpaceOnUse" color-interpolation-filters="sRGB">
            <feFlood flood-opacity="0" result="BackgroundImageFix" />
            <feBlend mode="normal" in="SourceGraphic" in2="BackgroundImageFix" result="shape" />
            <feGaussianBlur stdDeviation="7.5" result="effect1_foregroundBlur_2035_11044" />
        </filter>

    </defs>
</svg>