<svg width="68" height="67" viewBox="0 0 68 67" xmlns="http://www.w3.org/2000/svg">
    <path
            d="M3.6815 39.8224C6.05445 39.7747 7.15401 41.6818 7.32157 43.7795C7.67133 48.1741 7.00322 52.979 7.36345 57.4192C7.56871 58.5323 8.93216 59.7201 10.1323 59.6537H57.6919C58.9967 59.6931 60.3141 58.4867 60.4921 57.243C61.066 53.2361 60.1696 47.9668 60.5026 43.7795C60.6659 41.7315 61.6943 39.8701 64.0002 39.8224C66.3062 39.7747 67.4413 41.5532 67.6277 43.5826C67.9335 46.9117 67.9859 56.6439 67.0622 59.5978C65.7407 63.8223 61.6671 66.5233 57.2625 66.6891C42.03 65.9698 25.8884 67.653 10.7606 66.6995C6.47333 66.43 2.70132 64.3965 1.0614 60.3378C-0.157538 57.328 -0.153349 46.8785 0.219454 43.3961C0.422611 41.4952 1.61223 39.8618 3.68359 39.8203L3.6815 39.8224Z"
    />
    <path
            d="M37.4724 11.9669V43.3712C37.4724 45.0502 35.6608 46.6795 33.9831 46.7127C32.2448 46.7479 30.3514 45.1062 30.3514 43.3712V11.9669L19.7789 22.3355C16.1493 25.4697 11.6191 21.2928 14.8466 17.4538C19.6763 11.7119 26.5878 6.58152 31.6018 0.870704C33.1349 -0.292188 34.6869 -0.292188 36.2179 0.870704C41.234 6.58152 48.1434 11.7119 52.9731 17.4538C55.5534 20.5196 53.3124 24.1907 49.3979 23.2724C45.0646 19.9413 41.59 15.5675 37.4682 11.9669H37.4724Z"
    />
</svg>