<svg width="90" height="90" viewBox="0 0 90 90" fill="none" xmlns="http://www.w3.org/2000/svg" overflow="visible">
    <g>
        <g filter="url(#filter0_f_2035_11044)">
            <path
                d="M47.688 51.9906C47.688 43.6199 47.6791 35.2492 47.688 26.8785C47.7014 17.0189 54.8325 9.06298 64.5724 7.91266C68.0956 7.49558 71.5942 7.2848 75.1062 7.94405C79.6149 8.78942 83.5216 10.7963 86.8374 13.9805C87.5799 14.6935 87.9166 15.5479 87.9144 16.5838C87.901 23.0485 87.8988 29.5132 87.9189 35.978C87.9233 37.1911 87.4751 38.1598 86.61 38.9513C82.9263 42.3148 78.6137 44.3801 73.6813 44.9877C69.7234 45.4766 65.8256 45.0864 62.0728 43.6109C60.9066 43.1535 60.8932 43.1804 60.8909 44.4294C60.8909 55.603 60.8932 66.7767 60.8865 77.9503C60.8865 80.2891 59.7515 81.8453 57.6956 82.3565C57.3031 82.453 56.8884 82.4821 56.4825 82.4866C55.0331 82.5023 53.5838 82.5045 52.1344 82.4911C49.3693 82.4642 47.6947 80.7914 47.6925 77.9997C47.6814 69.3307 47.688 60.6595 47.688 51.9906ZM50.8745 48.5643C50.8745 55.9641 50.8923 63.3638 50.8544 70.7636C50.85 71.7906 51.1555 72.1651 52.1879 72.109C53.5592 72.035 54.9395 72.0328 56.3108 72.109C57.3812 72.1695 57.7268 71.7928 57.7156 70.7098C57.6666 66.2632 57.6956 61.8166 57.6956 57.3678C57.6956 51.874 57.6867 46.3802 57.7023 40.8865C57.709 38.4401 58.1638 36.1103 59.8764 34.2356C60.8196 33.2042 61.9925 33.0629 62.7194 33.7894C63.4352 34.507 63.2546 35.4039 62.1776 36.4601C62.0973 36.5385 62.017 36.617 61.9457 36.7022C60.5542 38.3885 60.8642 39.6307 62.851 40.4492C66.3384 41.8843 69.9486 42.2835 73.6679 41.7543C77.4408 41.2183 80.7811 39.6868 83.729 37.274C84.3444 36.7695 84.8595 36.2381 84.8573 35.3299C84.8372 29.3137 84.8439 23.2952 84.8528 17.279C84.8528 16.6758 84.6432 16.2228 84.1883 15.8147C82.7345 14.5119 81.1223 13.4602 79.3719 12.6104C75.3805 10.673 71.1393 10.4757 66.8379 10.8457C64.0885 11.0811 61.3659 11.561 58.9354 12.9804C53.6261 16.0816 50.986 20.8219 50.9012 26.9256C50.8031 34.137 50.879 41.3506 50.8767 48.5643H50.8745ZM54.2995 79.2778C57.8271 79.2464 57.7246 79.742 57.6911 76.3067C57.6911 76.2686 57.6867 76.2327 57.6889 76.1946C57.7134 75.5914 57.4369 75.3043 56.8282 75.3088C55.1246 75.3178 53.4187 75.3088 51.7151 75.3133C51.3717 75.3133 51.0663 75.3671 50.9146 75.7663C50.1431 77.818 51.0819 79.2778 53.1868 79.2778C53.557 79.2778 53.9271 79.2778 54.2973 79.2778H54.2995Z"
                fill="#FE5000" />
            <path
                d="M42.341 52.1809C42.341 60.6638 42.3432 69.1444 42.341 77.6272C42.341 80.8943 40.74 82.4886 37.4732 82.4931C36.3962 82.4931 35.317 82.4931 34.24 82.4931C30.6455 82.4931 29.1403 80.993 29.1381 77.4142C29.1381 66.541 29.1381 55.6678 29.1381 44.7924C29.1381 43.1846 29.1448 43.2071 27.6642 43.7049C19.1172 46.5773 11.2837 45.288 4.18168 39.6462C2.73898 38.4981 2.05441 37.1415 2.0834 35.222C2.17483 29.1699 2.14807 23.1156 2.09678 17.0635C2.0834 15.5925 2.56951 14.4915 3.64652 13.5295C7.86538 9.74889 12.8112 7.7532 18.4259 7.53793C22.5645 7.37873 26.6786 7.66351 30.5897 9.23091C37.5959 12.0383 42.3142 19.0143 42.3365 26.6226C42.3611 35.1413 42.341 43.6622 42.3432 52.1809H42.341ZM39.1545 48.5304C39.1545 42.1419 39.1545 35.7535 39.1545 29.365C39.1545 27.7214 39.2415 26.0732 38.9539 24.4453C37.9816 18.9717 35.1676 14.8435 30.0768 12.4891C26.4757 10.823 22.6046 10.6548 18.7225 10.7423C13.9417 10.8476 9.73622 12.4891 6.08151 15.6037C5.41925 16.1665 5.16505 16.7764 5.16727 17.633C5.1918 23.3869 5.20072 29.1408 5.16059 34.8924C5.1539 35.9351 5.5129 36.6616 6.30003 37.2895C9.2412 39.6395 12.5213 41.1979 16.2563 41.7428C20.2477 42.3236 24.1053 41.8594 27.7935 40.1844C29.0266 39.6238 29.1894 39.1663 28.71 37.8859C28.4446 37.1729 28.0477 36.5831 27.4233 36.1078C26.7142 35.5674 26.547 34.8005 27.0621 34.0269C27.566 33.2689 28.2796 33.1187 29.1136 33.4999C29.778 33.8049 30.2798 34.2847 30.6923 34.8767C31.9611 36.702 32.3201 38.7829 32.329 40.9423C32.3491 45.3507 32.3357 49.7592 32.3357 54.1677C32.3357 59.7354 32.3513 65.301 32.3223 70.8687C32.3178 71.7859 32.6077 72.1446 33.5398 72.1065C34.9111 72.0482 36.2892 72.0953 37.6628 72.0908C39.1501 72.0886 39.1545 72.0841 39.1545 70.6109C39.1545 63.2515 39.1545 55.8898 39.1545 48.5304ZM35.8321 75.3086C35.4976 75.3086 35.1653 75.3019 34.8309 75.3086C32.0681 75.3669 32.3379 74.7839 32.3401 78.0241C32.3401 78.0981 32.3468 78.1721 32.3513 78.2483C32.3914 78.8605 32.7036 79.2439 33.3213 79.2529C34.9513 79.2731 36.5813 79.2641 38.2113 79.2529C38.6216 79.2506 38.9561 79.0219 39.0364 78.625C39.2348 77.6339 39.4043 76.5441 38.9962 75.6629C38.6528 74.9229 37.6472 75.414 36.9425 75.3198C36.5791 75.2705 36.2022 75.3108 35.8321 75.3108V75.3086Z"
                fill="#FE5000" />
            <path
                d="M82.2798 26.3089C82.3066 27.4637 82.3601 28.614 81.8227 29.7061C81.04 31.2959 79.4212 32.3475 77.693 32.2309C75.8267 32.1031 74.4085 31.1905 73.7618 29.4123C73.0304 27.3942 73.0795 25.2864 73.7529 23.2593C74.384 21.36 76.4867 20.2231 78.4913 20.5259C80.5361 20.8353 82.1104 22.5283 82.2731 24.6316C82.3155 25.1877 82.2798 25.7505 82.2798 26.3111V26.3089ZM79.0867 26.3448C79.0867 26.3448 79.08 26.3448 79.0755 26.3448C79.0755 25.8627 79.1135 25.3738 79.0666 24.8962C78.9975 24.1719 78.556 23.7033 77.8469 23.6831C77.1267 23.6629 76.6361 24.1495 76.5804 24.8469C76.5001 25.8447 76.4889 26.8583 76.5804 27.8516C76.6428 28.5288 77.1044 29.0311 77.8581 28.9907C78.6385 28.9481 79.0577 28.475 79.0822 27.6834C79.0956 27.2372 79.0845 26.791 79.0845 26.3448H79.0867Z"
                fill="#FE5000" />
            <path
                d="M55.6131 24.7707C54.5606 24.7729 53.7378 23.7975 54.0366 22.858C55.2496 19.028 57.64 16.2228 61.3661 14.6554C62.2491 14.2832 62.985 14.5388 63.4265 15.4066C63.8368 16.2139 63.529 17.0816 62.5769 17.5212C59.8899 18.7589 58.1373 20.8174 57.0937 23.5486C56.8172 24.2729 56.32 24.7169 55.6153 24.7729L55.6131 24.7707Z"
                fill="#FE5000" />
            <path
                d="M7.78976 26.4007C7.78976 25.6921 7.7028 24.9723 7.80537 24.2795C8.12201 22.1313 9.88804 20.5728 11.9997 20.4921C14.147 20.4092 15.9978 21.768 16.4928 23.914C16.8652 25.5284 16.8541 27.1855 16.4772 28.8C15.9644 30.9931 13.9285 32.4282 11.7611 32.2241C9.56472 32.0178 7.83659 30.1455 7.74293 27.8583C7.72287 27.3739 7.74071 26.8873 7.74071 26.403C7.75854 26.403 7.77415 26.403 7.79199 26.403L7.78976 26.4007ZM10.9517 26.3828C10.9517 26.3828 10.9472 26.3828 10.945 26.3828C10.945 26.829 10.9272 27.2752 10.9494 27.7215C10.9896 28.5153 11.4311 28.9727 12.2115 28.9884C12.963 29.0041 13.3978 28.4906 13.4558 27.8089C13.5383 26.8492 13.5338 25.8738 13.4625 24.914C13.4067 24.1629 12.9139 23.6404 12.1424 23.6807C11.4445 23.7166 11.0097 24.2032 10.9584 24.9342C10.9249 25.4141 10.9517 25.9007 10.9517 26.3828Z"
                fill="#FE5000" />
            <path
                d="M36.0572 23.1606C35.9122 23.9095 35.6201 24.4499 34.9356 24.663C34.2532 24.8782 33.6712 24.6697 33.2609 24.1046C33.0246 23.7795 32.8774 23.3826 32.7146 23.0081C31.6956 20.6671 30.1414 18.8328 27.809 17.7251C27.6083 17.6287 27.4054 17.53 27.2203 17.409C26.4488 16.9022 26.2414 16.1824 26.6272 15.3707C26.9951 14.597 27.6707 14.3324 28.4935 14.5926C29.905 15.0365 31.0779 15.8819 32.1706 16.8551C33.8764 18.3732 35.1028 20.2097 35.8431 22.3758C35.939 22.6538 35.9992 22.9453 36.0572 23.1583V23.1606Z"
                fill="#FE5000" />
        </g>
        <g>
            <path
                d="M47.688 51.9906C47.688 43.6199 47.6791 35.2492 47.688 26.8785C47.7014 17.0189 54.8325 9.06298 64.5724 7.91266C68.0956 7.49558 71.5942 7.2848 75.1062 7.94405C79.6149 8.78942 83.5216 10.7963 86.8374 13.9805C87.5799 14.6935 87.9166 15.5479 87.9144 16.5838C87.901 23.0485 87.8988 29.5132 87.9189 35.978C87.9233 37.1911 87.4751 38.1598 86.61 38.9513C82.9263 42.3148 78.6137 44.3801 73.6813 44.9877C69.7234 45.4766 65.8256 45.0864 62.0728 43.6109C60.9066 43.1535 60.8932 43.1804 60.8909 44.4294C60.8909 55.603 60.8932 66.7767 60.8865 77.9503C60.8865 80.2891 59.7515 81.8453 57.6956 82.3565C57.3031 82.453 56.8884 82.4821 56.4825 82.4866C55.0331 82.5023 53.5838 82.5045 52.1344 82.4911C49.3693 82.4642 47.6947 80.7914 47.6925 77.9997C47.6814 69.3307 47.688 60.6595 47.688 51.9906ZM50.8745 48.5643C50.8745 55.9641 50.8923 63.3638 50.8544 70.7636C50.85 71.7906 51.1555 72.1651 52.1879 72.109C53.5592 72.035 54.9395 72.0328 56.3108 72.109C57.3812 72.1695 57.7268 71.7928 57.7156 70.7098C57.6666 66.2632 57.6956 61.8166 57.6956 57.3678C57.6956 51.874 57.6867 46.3802 57.7023 40.8865C57.709 38.4401 58.1638 36.1103 59.8764 34.2356C60.8196 33.2042 61.9925 33.0629 62.7194 33.7894C63.4352 34.507 63.2546 35.4039 62.1776 36.4601C62.0973 36.5385 62.017 36.617 61.9457 36.7022C60.5542 38.3885 60.8642 39.6307 62.851 40.4492C66.3384 41.8843 69.9486 42.2835 73.6679 41.7543C77.4408 41.2183 80.7811 39.6868 83.729 37.274C84.3444 36.7695 84.8595 36.2381 84.8573 35.3299C84.8372 29.3137 84.8439 23.2952 84.8528 17.279C84.8528 16.6758 84.6432 16.2228 84.1883 15.8147C82.7345 14.5119 81.1223 13.4602 79.3719 12.6104C75.3805 10.673 71.1393 10.4757 66.8379 10.8457C64.0885 11.0811 61.3659 11.561 58.9354 12.9804C53.6261 16.0816 50.986 20.8219 50.9012 26.9256C50.8031 34.137 50.879 41.3506 50.8767 48.5643H50.8745ZM54.2995 79.2778C57.8271 79.2464 57.7246 79.742 57.6911 76.3067C57.6911 76.2686 57.6867 76.2327 57.6889 76.1946C57.7134 75.5914 57.4369 75.3043 56.8282 75.3088C55.1246 75.3178 53.4187 75.3088 51.7151 75.3133C51.3717 75.3133 51.0663 75.3671 50.9146 75.7663C50.1431 77.818 51.0819 79.2778 53.1868 79.2778C53.557 79.2778 53.9271 79.2778 54.2973 79.2778H54.2995Z"
                fill="white" fill-opacity="0.6" />
            <path
                d="M42.341 52.1809C42.341 60.6638 42.3432 69.1444 42.341 77.6272C42.341 80.8943 40.74 82.4886 37.4732 82.4931C36.3962 82.4931 35.317 82.4931 34.24 82.4931C30.6455 82.4931 29.1403 80.993 29.1381 77.4142C29.1381 66.541 29.1381 55.6678 29.1381 44.7924C29.1381 43.1846 29.1448 43.2071 27.6642 43.7049C19.1172 46.5773 11.2837 45.288 4.18168 39.6462C2.73898 38.4981 2.05441 37.1415 2.0834 35.222C2.17483 29.1699 2.14807 23.1156 2.09678 17.0635C2.0834 15.5925 2.56951 14.4915 3.64652 13.5295C7.86538 9.74889 12.8112 7.7532 18.4259 7.53793C22.5645 7.37873 26.6786 7.66351 30.5897 9.23091C37.5959 12.0383 42.3142 19.0143 42.3365 26.6226C42.3611 35.1413 42.341 43.6622 42.3432 52.1809H42.341ZM39.1545 48.5304C39.1545 42.1419 39.1545 35.7535 39.1545 29.365C39.1545 27.7214 39.2415 26.0732 38.9539 24.4453C37.9816 18.9717 35.1676 14.8435 30.0768 12.4891C26.4757 10.823 22.6046 10.6548 18.7225 10.7423C13.9417 10.8476 9.73622 12.4891 6.08151 15.6037C5.41925 16.1665 5.16505 16.7764 5.16727 17.633C5.1918 23.3869 5.20072 29.1408 5.16059 34.8924C5.1539 35.9351 5.5129 36.6616 6.30003 37.2895C9.2412 39.6395 12.5213 41.1979 16.2563 41.7428C20.2477 42.3236 24.1053 41.8594 27.7935 40.1844C29.0266 39.6238 29.1894 39.1663 28.71 37.8859C28.4446 37.1729 28.0477 36.5831 27.4233 36.1078C26.7142 35.5674 26.547 34.8005 27.0621 34.0269C27.566 33.2689 28.2796 33.1187 29.1136 33.4999C29.778 33.8049 30.2798 34.2847 30.6923 34.8767C31.9611 36.702 32.3201 38.7829 32.329 40.9423C32.3491 45.3507 32.3357 49.7592 32.3357 54.1677C32.3357 59.7354 32.3513 65.301 32.3223 70.8687C32.3178 71.7859 32.6077 72.1446 33.5398 72.1065C34.9111 72.0482 36.2892 72.0953 37.6628 72.0908C39.1501 72.0886 39.1545 72.0841 39.1545 70.6109C39.1545 63.2515 39.1545 55.8898 39.1545 48.5304ZM35.8321 75.3086C35.4976 75.3086 35.1653 75.3019 34.8309 75.3086C32.0681 75.3669 32.3379 74.7839 32.3401 78.0241C32.3401 78.0981 32.3468 78.1721 32.3513 78.2483C32.3914 78.8605 32.7036 79.2439 33.3213 79.2529C34.9513 79.2731 36.5813 79.2641 38.2113 79.2529C38.6216 79.2506 38.9561 79.0219 39.0364 78.625C39.2348 77.6339 39.4043 76.5441 38.9962 75.6629C38.6528 74.9229 37.6472 75.414 36.9425 75.3198C36.5791 75.2705 36.2022 75.3108 35.8321 75.3108V75.3086Z"
                fill="white" fill-opacity="0.6" />
            <path
                d="M82.2798 26.3089C82.3066 27.4637 82.3601 28.614 81.8227 29.7061C81.04 31.2959 79.4212 32.3475 77.693 32.2309C75.8267 32.1031 74.4085 31.1905 73.7618 29.4123C73.0304 27.3942 73.0795 25.2864 73.7529 23.2593C74.384 21.36 76.4867 20.2231 78.4913 20.5259C80.5361 20.8353 82.1104 22.5283 82.2731 24.6316C82.3155 25.1877 82.2798 25.7505 82.2798 26.3111V26.3089ZM79.0867 26.3448C79.0867 26.3448 79.08 26.3448 79.0755 26.3448C79.0755 25.8627 79.1135 25.3738 79.0666 24.8962C78.9975 24.1719 78.556 23.7033 77.8469 23.6831C77.1267 23.6629 76.6361 24.1495 76.5804 24.8469C76.5001 25.8447 76.4889 26.8583 76.5804 27.8516C76.6428 28.5288 77.1044 29.0311 77.8581 28.9907C78.6385 28.9481 79.0577 28.475 79.0822 27.6834C79.0956 27.2372 79.0845 26.791 79.0845 26.3448H79.0867Z"
                fill="white" fill-opacity="0.6" />
            <path
                d="M55.6131 24.7707C54.5606 24.7729 53.7378 23.7975 54.0366 22.858C55.2496 19.028 57.64 16.2228 61.3661 14.6554C62.2491 14.2832 62.985 14.5388 63.4265 15.4066C63.8368 16.2139 63.529 17.0816 62.5769 17.5212C59.8899 18.7589 58.1373 20.8174 57.0937 23.5486C56.8172 24.2729 56.32 24.7169 55.6153 24.7729L55.6131 24.7707Z"
                fill="white" fill-opacity="0.6" />
            <path
                d="M7.78976 26.4007C7.78976 25.6921 7.7028 24.9723 7.80537 24.2795C8.12201 22.1313 9.88804 20.5728 11.9997 20.4921C14.147 20.4092 15.9978 21.768 16.4928 23.914C16.8652 25.5284 16.8541 27.1855 16.4772 28.8C15.9644 30.9931 13.9285 32.4282 11.7611 32.2241C9.56472 32.0178 7.83659 30.1455 7.74293 27.8583C7.72287 27.3739 7.74071 26.8873 7.74071 26.403C7.75854 26.403 7.77415 26.403 7.79199 26.403L7.78976 26.4007ZM10.9517 26.3828C10.9517 26.3828 10.9472 26.3828 10.945 26.3828C10.945 26.829 10.9272 27.2752 10.9494 27.7215C10.9896 28.5153 11.4311 28.9727 12.2115 28.9884C12.963 29.0041 13.3978 28.4906 13.4558 27.8089C13.5383 26.8492 13.5338 25.8738 13.4625 24.914C13.4067 24.1629 12.9139 23.6404 12.1424 23.6807C11.4445 23.7166 11.0097 24.2032 10.9584 24.9342C10.9249 25.4141 10.9517 25.9007 10.9517 26.3828Z"
                fill="white" fill-opacity="0.6" />
            <path
                d="M36.0572 23.1606C35.9122 23.9095 35.6201 24.4499 34.9356 24.663C34.2532 24.8782 33.6712 24.6697 33.2609 24.1046C33.0246 23.7795 32.8774 23.3826 32.7146 23.0081C31.6956 20.6671 30.1414 18.8328 27.809 17.7251C27.6083 17.6287 27.4054 17.53 27.2203 17.409C26.4488 16.9022 26.2414 16.1824 26.6272 15.3707C26.9951 14.597 27.6707 14.3324 28.4935 14.5926C29.905 15.0365 31.0779 15.8819 32.1706 16.8551C33.8764 18.3732 35.1028 20.2097 35.8431 22.3758C35.939 22.6538 35.9992 22.9453 36.0572 23.1583V23.1606Z"
                fill="white" fill-opacity="0.6" />
        </g>
    </g>
    <defs>
        <filter id="filter0_f_2035_11044" x="-12.9165" y="-7.5" width="115.833" height="105"
            filterUnits="userSpaceOnUse" color-interpolation-filters="sRGB">
            <feFlood flood-opacity="0" result="BackgroundImageFix" />
            <feBlend mode="normal" in="SourceGraphic" in2="BackgroundImageFix" result="shape" />
            <feGaussianBlur stdDeviation="7.5" result="effect1_foregroundBlur_2035_11044" />
        </filter>

    </defs>
</svg>