<svg width="90" height="90" viewBox="0 0 90 90" fill="none" xmlns="http://www.w3.org/2000/svg" overflow="visible">
    <g>
        <g filter="url(#filter0_f_2035_11044)">
            <path
                d="M44.9872 85.4466C39.5739 85.4466 34.1536 85.298 28.745 85.4907C23.4988 85.6764 20.1306 83.2947 17.9485 78.7055C13.7957 69.968 12.9832 60.966 15.8686 51.7457C16.9388 48.3287 18.5382 45.0742 19.9077 41.7524C22.7049 34.9626 25.5207 28.1797 28.2993 21.3829C29.1326 19.3448 30.5602 18.3977 32.7748 18.4093C40.9342 18.4441 49.096 18.4395 57.2554 18.4116C59.4235 18.4046 60.8163 19.3657 61.6334 21.3527C65.705 31.2554 69.9785 41.0793 73.8226 51.0679C76.4318 57.8484 76.3529 64.9215 74.519 71.9504C73.7646 74.8451 72.6271 77.5889 71.167 80.2004C69.2752 83.5849 66.4315 85.4303 62.5085 85.4419C56.6681 85.4605 50.83 85.4466 44.9896 85.4466H44.9872ZM17.2359 62.3355C17.1802 64.1856 17.3543 64.2971 19.202 64.0464C24.6409 63.3105 30.1076 62.8648 35.5859 62.5955C41.3776 62.31 47.1716 62.2868 52.9702 62.5375C59.0335 62.7998 65.0713 63.3314 71.0951 64.0371C72.5088 64.2019 72.7943 63.986 72.7177 62.5213C72.4902 58.257 71.875 54.0879 70.1549 50.1092C67.9009 44.8955 65.7955 39.6168 63.6599 34.3521C63.3256 33.5257 62.9101 33.2425 62.0071 33.4491C60.9207 33.6998 59.7926 33.7741 58.6853 33.9342C48.5412 35.4083 38.4179 34.9997 28.3179 33.5303C27.1433 33.3586 26.5838 33.586 26.1358 34.7142C24.3972 39.0969 22.6283 43.4702 20.7388 47.7879C18.703 52.4398 17.2614 57.2078 17.2405 62.3355H17.2359ZM44.906 82.4892C50.512 82.4892 56.1203 82.5078 61.7262 82.4799C64.3424 82.4683 66.6358 81.635 68.0681 79.3067C70.0969 76.0151 71.311 72.3985 72.0979 68.6217C72.3114 67.5933 71.9865 67.3055 70.986 67.1801C61.4639 65.9893 51.914 65.4577 42.3154 65.597C34.4601 65.7084 26.6465 66.2284 18.8585 67.2312C17.8325 67.3635 17.6584 67.7094 17.8418 68.6124C18.5103 71.8901 19.6245 74.9937 21.0939 78.0021C22.6121 81.108 25.061 82.4985 28.4339 82.4938C33.9238 82.4869 39.4161 82.4939 44.906 82.4915V82.4892ZM45.0592 21.3806C41.1153 21.3806 37.1714 21.4015 33.2274 21.3666C32.1039 21.3574 31.44 21.7961 31.0315 22.8476C30.2074 24.974 29.3276 27.0794 28.4177 29.1686C28.0184 30.0855 28.2923 30.3942 29.2232 30.5266C31.4029 30.8376 33.5896 31.0674 35.7832 31.2879C44.1399 32.1259 52.4503 31.736 60.7397 30.4987C61.6868 30.3571 61.8957 30.0112 61.5034 29.1198C60.6004 27.0678 59.7345 24.9995 58.9337 22.9057C58.5135 21.8054 57.8334 21.3504 56.6588 21.3643C52.7915 21.4038 48.9265 21.3782 45.0592 21.3782V21.3806Z"
                fill="#0077FF" />
            <path
                d="M37.3757 6.24099C37.3572 6.96988 37.06 7.592 36.6027 8.13518C36.2453 8.55998 36.2894 8.90122 36.6027 9.36316C37.7425 11.0438 37.6775 12.2184 36.4727 13.9176C36.2522 14.2263 36.1013 14.5861 35.9365 14.932C35.5814 15.6771 34.9662 15.9 34.2095 15.7514C33.4643 15.6029 33.1138 15.0829 33.0697 14.347C33.0209 13.5392 33.2647 12.8103 33.7893 12.2068C34.1886 11.7448 34.1584 11.3943 33.8056 10.8906C32.7261 9.34691 32.7795 8.01448 33.8613 6.52187C34.0841 6.21313 34.3 5.88351 34.4393 5.53067C34.7828 4.65553 35.4305 4.36769 36.287 4.56732C37.1506 4.76695 37.3989 5.43317 37.3781 6.24331L37.3757 6.24099Z"
                fill="#0077FF" />
            <path
                d="M47.1249 6.28979C47.1179 6.36639 47.1388 6.46157 47.0993 6.51728C46.1035 7.99828 46.2079 9.41428 47.0483 10.9835C47.4522 11.7356 47.1016 12.7338 46.5376 13.4905C46.1917 13.9548 45.8667 14.4167 45.6485 14.9669C45.3653 15.6818 44.7385 15.8768 44.0259 15.7608C43.2784 15.64 42.8885 15.1479 42.8258 14.4098C42.7561 13.6043 42.9767 12.8661 43.5013 12.2579C43.9261 11.7658 43.9214 11.392 43.5315 10.8465C42.4892 9.39107 42.5379 7.98203 43.5779 6.57531C43.8309 6.23176 44.0747 5.89749 44.2209 5.48661C44.5412 4.59755 45.2376 4.35381 46.0826 4.57434C46.9415 4.79718 47.1597 5.48429 47.1249 6.28747V6.28979Z"
                fill="#0077FF" />
            <path
                d="M52.566 13.9919C52.5706 13.9524 52.559 13.906 52.5776 13.8782C53.527 12.3206 53.4249 10.8187 52.6217 9.1891C52.2596 8.45557 52.6147 7.51311 53.1579 6.79583C53.5085 6.33388 53.8218 5.86498 54.0447 5.31715C54.3348 4.6045 54.9686 4.4188 55.6766 4.53951C56.424 4.66718 56.8024 5.16626 56.8651 5.90444C56.9301 6.66815 56.7212 7.36687 56.229 7.95184C55.8019 8.46021 55.7276 8.86412 56.1687 9.46766C57.2133 10.8953 57.139 12.3136 56.1083 13.7412C55.8855 14.0499 55.6487 14.3703 55.5187 14.7231C55.1937 15.6006 54.5693 15.9279 53.7011 15.7468C52.7703 15.5518 52.5265 14.8485 52.5637 13.9919H52.566Z"
                fill="#0077FF" />
            <path
                d="M45.0195 67.8672C48.3157 67.8812 50.651 70.2814 50.6255 73.6287C50.5999 76.8577 48.2043 79.1883 44.9197 79.1767C41.6234 79.1651 39.2881 76.7648 39.3137 73.4152C39.3392 70.1816 41.7325 67.8556 45.0172 67.8672H45.0195ZM43.3644 71.5512C42.0552 72.9834 42.1016 74.5828 43.3319 75.5415C44.4879 76.4422 46.2242 76.2263 47.0437 75.0842C47.9188 73.8655 47.7145 72.4425 46.5214 71.7229C46.331 72.7536 46.7581 74.2021 45.0589 74.2741C43.1926 74.3553 43.622 72.7698 43.3644 71.5512Z"
                fill="#0077FF" />
        </g>
        <g>
            <path
                d="M44.9872 85.4466C39.5739 85.4466 34.1536 85.298 28.745 85.4907C23.4988 85.6764 20.1306 83.2947 17.9485 78.7055C13.7957 69.968 12.9832 60.966 15.8686 51.7457C16.9388 48.3287 18.5382 45.0742 19.9077 41.7524C22.7049 34.9626 25.5207 28.1797 28.2993 21.3829C29.1326 19.3448 30.5602 18.3977 32.7748 18.4093C40.9342 18.4441 49.096 18.4395 57.2554 18.4116C59.4235 18.4046 60.8163 19.3657 61.6334 21.3527C65.705 31.2554 69.9785 41.0793 73.8226 51.0679C76.4318 57.8484 76.3529 64.9215 74.519 71.9504C73.7646 74.8451 72.6271 77.5889 71.167 80.2004C69.2752 83.5849 66.4315 85.4303 62.5085 85.4419C56.6681 85.4605 50.83 85.4466 44.9896 85.4466H44.9872ZM17.2359 62.3355C17.1802 64.1856 17.3543 64.2971 19.202 64.0464C24.6409 63.3105 30.1076 62.8648 35.5859 62.5955C41.3776 62.31 47.1716 62.2868 52.9702 62.5375C59.0335 62.7998 65.0713 63.3314 71.0951 64.0371C72.5088 64.2019 72.7943 63.986 72.7177 62.5213C72.4902 58.257 71.875 54.0879 70.1549 50.1092C67.9009 44.8955 65.7955 39.6168 63.6599 34.3521C63.3256 33.5257 62.9101 33.2425 62.0071 33.4491C60.9207 33.6998 59.7926 33.7741 58.6853 33.9342C48.5412 35.4083 38.4179 34.9997 28.3179 33.5303C27.1433 33.3586 26.5838 33.586 26.1358 34.7142C24.3972 39.0969 22.6283 43.4702 20.7388 47.7879C18.703 52.4398 17.2614 57.2078 17.2405 62.3355H17.2359ZM44.906 82.4892C50.512 82.4892 56.1203 82.5078 61.7262 82.4799C64.3424 82.4683 66.6358 81.635 68.0681 79.3067C70.0969 76.0151 71.311 72.3985 72.0979 68.6217C72.3114 67.5933 71.9865 67.3055 70.986 67.1801C61.4639 65.9893 51.914 65.4577 42.3154 65.597C34.4601 65.7084 26.6465 66.2284 18.8585 67.2312C17.8325 67.3635 17.6584 67.7094 17.8418 68.6124C18.5103 71.8901 19.6245 74.9937 21.0939 78.0021C22.6121 81.108 25.061 82.4985 28.4339 82.4938C33.9238 82.4869 39.4161 82.4939 44.906 82.4915V82.4892ZM45.0592 21.3806C41.1153 21.3806 37.1714 21.4015 33.2274 21.3666C32.1039 21.3574 31.44 21.7961 31.0315 22.8476C30.2074 24.974 29.3276 27.0794 28.4177 29.1686C28.0184 30.0855 28.2923 30.3942 29.2232 30.5266C31.4029 30.8376 33.5896 31.0674 35.7832 31.2879C44.1399 32.1259 52.4503 31.736 60.7397 30.4987C61.6868 30.3571 61.8957 30.0112 61.5034 29.1198C60.6004 27.0678 59.7345 24.9995 58.9337 22.9057C58.5135 21.8054 57.8334 21.3504 56.6588 21.3643C52.7915 21.4038 48.9265 21.3782 45.0592 21.3782V21.3806Z"
                fill="white" fill-opacity="0.6" />
            <path
                d="M37.3757 6.24099C37.3572 6.96988 37.06 7.592 36.6027 8.13518C36.2453 8.55998 36.2894 8.90122 36.6027 9.36316C37.7425 11.0438 37.6775 12.2184 36.4727 13.9176C36.2522 14.2263 36.1013 14.5861 35.9365 14.932C35.5814 15.6771 34.9662 15.9 34.2095 15.7514C33.4643 15.6029 33.1138 15.0829 33.0697 14.347C33.0209 13.5392 33.2647 12.8103 33.7893 12.2068C34.1886 11.7448 34.1584 11.3943 33.8056 10.8906C32.7261 9.34691 32.7795 8.01448 33.8613 6.52187C34.0841 6.21313 34.3 5.88351 34.4393 5.53067C34.7828 4.65553 35.4305 4.36769 36.287 4.56732C37.1506 4.76695 37.3989 5.43317 37.3781 6.24331L37.3757 6.24099Z"
                fill="white" fill-opacity="0.6" />
            <path
                d="M47.1249 6.28979C47.1179 6.36639 47.1388 6.46157 47.0993 6.51728C46.1035 7.99828 46.2079 9.41428 47.0483 10.9835C47.4522 11.7356 47.1016 12.7338 46.5376 13.4905C46.1917 13.9548 45.8667 14.4167 45.6485 14.9669C45.3653 15.6818 44.7385 15.8768 44.0259 15.7608C43.2784 15.64 42.8885 15.1479 42.8258 14.4098C42.7561 13.6043 42.9767 12.8661 43.5013 12.2579C43.9261 11.7658 43.9214 11.392 43.5315 10.8465C42.4892 9.39107 42.5379 7.98203 43.5779 6.57531C43.8309 6.23176 44.0747 5.89749 44.2209 5.48661C44.5412 4.59755 45.2376 4.35381 46.0826 4.57434C46.9415 4.79718 47.1597 5.48429 47.1249 6.28747V6.28979Z"
                fill="white" fill-opacity="0.6" />
            <path
                d="M52.566 13.9919C52.5706 13.9524 52.559 13.906 52.5776 13.8782C53.527 12.3206 53.4249 10.8187 52.6217 9.1891C52.2596 8.45557 52.6147 7.51311 53.1579 6.79583C53.5085 6.33388 53.8218 5.86498 54.0447 5.31715C54.3348 4.6045 54.9686 4.4188 55.6766 4.53951C56.424 4.66718 56.8024 5.16626 56.8651 5.90444C56.9301 6.66815 56.7212 7.36687 56.229 7.95184C55.8019 8.46021 55.7276 8.86412 56.1687 9.46766C57.2133 10.8953 57.139 12.3136 56.1083 13.7412C55.8855 14.0499 55.6487 14.3703 55.5187 14.7231C55.1937 15.6006 54.5693 15.9279 53.7011 15.7468C52.7703 15.5518 52.5265 14.8485 52.5637 13.9919H52.566Z"
                fill="white" fill-opacity="0.6" />
            <path
                d="M45.0195 67.8672C48.3157 67.8812 50.651 70.2814 50.6255 73.6287C50.5999 76.8577 48.2043 79.1883 44.9197 79.1767C41.6234 79.1651 39.2881 76.7648 39.3137 73.4152C39.3392 70.1816 41.7325 67.8556 45.0172 67.8672H45.0195ZM43.3644 71.5512C42.0552 72.9834 42.1016 74.5828 43.3319 75.5415C44.4879 76.4422 46.2242 76.2263 47.0437 75.0842C47.9188 73.8655 47.7145 72.4425 46.5214 71.7229C46.331 72.7536 46.7581 74.2021 45.0589 74.2741C43.1926 74.3553 43.622 72.7698 43.3644 71.5512Z"
                fill="white" fill-opacity="0.6" />
        </g>
    </g>
    <defs>
        <filter id="filter0_f_2035_11044" x="-0.842285" y="-10.5" width="91.6846" height="111"
            filterUnits="userSpaceOnUse" color-interpolation-filters="sRGB">
            <feFlood flood-opacity="0" result="BackgroundImageFix" />
            <feBlend mode="normal" in="SourceGraphic" in2="BackgroundImageFix" result="shape" />
            <feGaussianBlur stdDeviation="7.5" result="effect1_foregroundBlur_2035_11044" />
        </filter>

    </defs>
</svg>