<svg width="114" height="140" viewBox="0 0 114 140" fill="none" xmlns="http://www.w3.org/2000/svg">
<g filter="url(#filter0_f_1296_7)">
<path d="M82.8779 118.27C78.2349 113.982 77.9672 101.389 92.484 79.9993C104.891 61.7234 107.517 40.4502 99.171 25.8075C92.9542 14.8952 81.5719 9.30926 67.2314 10.0683C53.7855 10.7755 43.6767 17.3929 38.7594 28.7075C34.5539 38.3936 34.7041 50.7787 38.4851 61.8013C37.3684 61.652 36.2452 61.5482 35.0893 61.5482C21.2582 61.5482 10 72.733 10 86.474C10 100.221 21.2582 111.4 35.0893 111.4C48.927 111.4 60.1787 100.215 60.1787 86.474C60.1787 80.4923 58.0433 74.9973 54.4973 70.6959H54.5039C45.8708 60.5686 42.9387 43.8368 47.8234 32.5936C51.2714 24.6657 57.9714 20.3773 67.7473 19.8648C78.372 19.3133 86.241 23.0308 90.5706 30.6408C96.9899 41.897 94.4626 59.5306 84.295 74.5172C78.5679 82.9447 61.0668 111.536 76.1452 125.459C79.4365 128.495 83.6616 130 88.1674 130C93.2088 130 98.5898 128.112 103.376 124.375L97.2772 116.661C92.2097 120.619 86.1496 121.306 82.8714 118.27H82.8779ZM50.3114 86.4675C50.3114 94.8042 43.4807 101.584 35.0959 101.584C26.7045 101.584 19.8803 94.8042 19.8803 86.4675C19.8803 78.1308 26.711 71.3512 35.0959 71.3512C43.4873 71.3512 50.3114 78.1308 50.3114 86.4675Z" fill="#FB2626"/>
</g>
<path d="M82.8779 118.27C78.2349 113.982 77.9672 101.389 92.484 79.9993C104.891 61.7234 107.517 40.4502 99.171 25.8075C92.9542 14.8952 81.5719 9.30926 67.2314 10.0683C53.7855 10.7755 43.6767 17.3929 38.7594 28.7075C34.5539 38.3936 34.7041 50.7787 38.4851 61.8013C37.3684 61.652 36.2452 61.5482 35.0893 61.5482C21.2582 61.5482 10 72.733 10 86.474C10 100.221 21.2582 111.4 35.0893 111.4C48.927 111.4 60.1787 100.215 60.1787 86.474C60.1787 80.4923 58.0433 74.9973 54.4973 70.6959H54.5039C45.8708 60.5686 42.9387 43.8368 47.8234 32.5936C51.2714 24.6657 57.9714 20.3773 67.7473 19.8648C78.372 19.3133 86.241 23.0308 90.5706 30.6408C96.9899 41.897 94.4626 59.5306 84.295 74.5172C78.5679 82.9447 61.0668 111.536 76.1452 125.459C79.4365 128.495 83.6616 130 88.1674 130C93.2088 130 98.5898 128.112 103.376 124.375L97.2772 116.661C92.2097 120.619 86.1496 121.306 82.8714 118.27H82.8779ZM50.3114 86.4675C50.3114 94.8042 43.4807 101.584 35.0959 101.584C26.7045 101.584 19.8803 94.8042 19.8803 86.4675C19.8803 78.1308 26.711 71.3512 35.0959 71.3512C43.4873 71.3512 50.3114 78.1308 50.3114 86.4675Z" fill="#FB2626"/>
<defs>
<filter id="filter0_f_1296_7" x="0" y="0" width="114" height="140" filterUnits="userSpaceOnUse" color-interpolation-filters="sRGB">
<feFlood flood-opacity="0" result="BackgroundImageFix"/>
<feBlend mode="normal" in="SourceGraphic" in2="BackgroundImageFix" result="shape"/>
<feGaussianBlur stdDeviation="5" result="effect1_foregroundBlur_1296_7"/>
</filter>
</defs>
</svg>
