<svg width="50" height="50" viewBox="0 0 50 50" fill="none" xmlns="http://www.w3.org/2000/svg">
    <g clip-path="url(#clip0_2020_135)">
        <path
            d="M4.96203 7.534L44.6872 7.5C46.1981 7.67606 47.4588 8.86843 47.8934 10.3194C48.0084 20.1061 48.073 29.9692 47.8611 39.7474C47.4612 41.0186 46.4531 42.0022 45.1996 42.3907C31.7184 42.5073 18.1618 42.5729 4.68905 42.3579C3.31459 41.9099 2.25023 40.7127 2 39.2568V10.7225C2.27058 9.15377 3.45826 7.93105 4.96203 7.534ZM44.3831 9.56904H5.59179L23.1903 25.9016C24.7085 27.1753 25.2664 27.1741 26.7857 25.9016L44.3831 9.56904ZM4.03535 11.0261V38.9533L19.1184 24.929L4.03535 11.0261ZM45.9395 38.9533V11.0261L30.8564 24.929L45.9395 38.9533ZM5.59179 40.4103H44.3831L29.3574 26.3302C28.2739 27.1959 27.4286 28.3798 26.0434 28.7926C23.6609 29.5017 22.2253 27.7557 20.6174 26.3302L5.59179 40.4103Z"
            fill="#FE5000" />
    </g>
    <defs>
        <clipPath id="clip0_2020_135">
            <rect width="46" height="35" fill="white" transform="translate(2 7.5)" />
        </clipPath>
    </defs>
</svg>