<svg width="90" height="90" viewBox="0 0 90 90" fill="none" xmlns="http://www.w3.org/2000/svg" overflow="visible">
    <g>
        <g filter="url(#filter0_f_2035_11044)">
            <path
                d="M54.4203 34.1865C58.9476 30.2346 71.661 17.6747 77.3441 17.5348C79.4408 17.4835 81.8621 22.2071 82.5882 23.9511C86.9778 34.4919 85.1449 54.7039 78.9458 64.3867C71.9879 75.2516 54.1751 78.4994 42.4703 74.9695C29.1358 70.9476 17.9728 56.1564 18.3627 42.1323C18.4491 39.0571 21.307 39.1503 21.6292 41.4562C21.865 43.1372 21.5265 45.2473 21.9024 47.0122L22.5772 49.2505C22.4254 46.3314 23.3874 43.5126 23.6442 40.6285L6.08356 28.1875C5.03052 26.9448 4.82972 25.3617 5.12158 23.7763C5.27102 22.9672 8.89008 17.5278 9.61156 16.8353C11.1923 15.3152 13.6252 15.2569 15.4161 16.4203L30.2799 26.8702C31.473 23.6037 33.8733 20.4212 33.7846 16.8446C31.3726 16.2921 28.2159 22.3051 27.0788 22.6338C25.8413 22.9929 24.9541 21.9087 25.1479 20.7103C25.3813 19.2694 29.402 15.4061 30.7422 14.6227C33.9504 12.7482 34.8329 13.858 37.2916 16.0263C39.1525 17.6677 41.3659 20.0855 43.012 21.9717C46.6591 26.1497 49.8906 30.7522 52.9306 35.3849C53.2225 35.5971 54.1891 34.3917 54.4203 34.1888V34.1865ZM12.2383 18.7542C11.5869 18.95 7.94212 24.4454 7.96547 25.1215C7.97714 25.4176 8.23865 25.7464 8.3694 26.0169L24.5641 37.5882L28.5498 29.4279L13.6089 18.9267C13.2003 18.6539 12.7006 18.6166 12.2406 18.7542H12.2383ZM36.7055 19.878C35.8066 21.8085 35.1155 23.8322 34.1862 25.7511C29.6705 35.0981 25.902 39.2716 25.372 50.5235C25.1455 55.3404 25.3837 57.5903 28.3233 61.3511C38.3212 74.1302 56.0617 77.0469 69.9565 68.7C81.2971 61.8873 83.5362 42.4681 81.3578 30.5423C80.9258 28.1805 79.1887 22.7667 77.4538 21.151C76.7137 20.4585 75.4645 21.4261 74.6403 21.8504C70.2367 24.126 65.2868 28.3251 61.5673 31.6451C59.2348 33.7272 56.9933 35.9585 54.8218 38.2107C56.3862 41.0389 58.1047 43.811 59.5897 46.6835C60.2878 48.0358 63.2601 53.671 63.2204 54.7249C63.1737 55.9723 62.0366 56.6018 60.9252 56.0748C60.2715 55.7671 58.7328 51.8082 58.2354 50.8336C52.5056 39.6493 45.6318 28.7844 36.7055 19.878Z"
                fill="#5A04D8" />
        </g>
        <g>
            <path
                d="M54.4203 34.1865C58.9476 30.2346 71.661 17.6747 77.3441 17.5348C79.4408 17.4835 81.8621 22.2071 82.5882 23.9511C86.9778 34.4919 85.1449 54.7039 78.9458 64.3867C71.9879 75.2516 54.1751 78.4994 42.4703 74.9695C29.1358 70.9476 17.9728 56.1564 18.3627 42.1323C18.4491 39.0571 21.307 39.1503 21.6292 41.4562C21.865 43.1372 21.5265 45.2473 21.9024 47.0122L22.5772 49.2505C22.4254 46.3314 23.3874 43.5126 23.6442 40.6285L6.08356 28.1875C5.03052 26.9448 4.82972 25.3617 5.12158 23.7763C5.27102 22.9672 8.89008 17.5278 9.61156 16.8353C11.1923 15.3152 13.6252 15.2569 15.4161 16.4203L30.2799 26.8702C31.473 23.6037 33.8733 20.4212 33.7846 16.8446C31.3726 16.2921 28.2159 22.3051 27.0788 22.6338C25.8413 22.9929 24.9541 21.9087 25.1479 20.7103C25.3813 19.2694 29.402 15.4061 30.7422 14.6227C33.9504 12.7482 34.8329 13.858 37.2916 16.0263C39.1525 17.6677 41.3659 20.0855 43.012 21.9717C46.6591 26.1497 49.8906 30.7522 52.9306 35.3849C53.2225 35.5971 54.1891 34.3917 54.4203 34.1888V34.1865ZM12.2383 18.7542C11.5869 18.95 7.94212 24.4454 7.96547 25.1215C7.97714 25.4176 8.23865 25.7464 8.3694 26.0169L24.5641 37.5882L28.5498 29.4279L13.6089 18.9267C13.2003 18.6539 12.7006 18.6166 12.2406 18.7542H12.2383ZM36.7055 19.878C35.8066 21.8085 35.1155 23.8322 34.1862 25.7511C29.6705 35.0981 25.902 39.2716 25.372 50.5235C25.1455 55.3404 25.3837 57.5903 28.3233 61.3511C38.3212 74.1302 56.0617 77.0469 69.9565 68.7C81.2971 61.8873 83.5362 42.4681 81.3578 30.5423C80.9258 28.1805 79.1887 22.7667 77.4538 21.151C76.7137 20.4585 75.4645 21.4261 74.6403 21.8504C70.2367 24.126 65.2868 28.3251 61.5673 31.6451C59.2348 33.7272 56.9933 35.9585 54.8218 38.2107C56.3862 41.0389 58.1047 43.811 59.5897 46.6835C60.2878 48.0358 63.2601 53.671 63.2204 54.7249C63.1737 55.9723 62.0366 56.6018 60.9252 56.0748C60.2715 55.7671 58.7328 51.8082 58.2354 50.8336C52.5056 39.6493 45.6318 28.7844 36.7055 19.878Z"
                fill="white" fill-opacity="0.63" />
        </g>
    </g>
    <defs>
        <filter id="filter0_f_2035_11044" x="-20" y="-11.3333" width="130" height="112.667" filterUnits="userSpaceOnUse"
            color-interpolation-filters="sRGB">
            <feFlood flood-opacity="0" result="BackgroundImageFix" />
            <feBlend mode="normal" in="SourceGraphic" in2="BackgroundImageFix" result="shape" />
            <feGaussianBlur stdDeviation="12.5" result="effect1_foregroundBlur_2035_11044" />
        </filter>

    </defs>
</svg>