<svg width="50" height="50" viewBox="0 0 50 50" fill="none" xmlns="http://www.w3.org/2000/svg">
    <g clip-path="url(#clip0_2020_135)">
        <path
            d="M13.9114 35.4233C9.2923 30.672 1.89058 20.2638 3.81203 13.3324C4.3444 11.4118 7.5498 8.04114 9.17822 6.84605C10.6814 5.74374 12.529 5.64089 14.1071 6.66605C15.2211 7.38937 20.1108 12.3184 20.7584 13.4331C22.8017 16.9546 19.1389 19.2062 17.1067 21.4768C17.0474 21.792 18.3985 23.8435 18.6759 24.2348C20.5369 26.8698 24.0163 30.3545 26.7833 32.0057C27.1837 32.2438 28.2965 32.9213 28.669 32.7044C31.323 30.0336 33.6728 26.6775 37.5034 30.0101C38.7929 31.1326 43.2018 35.4378 43.6827 36.8017C44.3381 38.6598 43.6883 40.0863 42.4804 41.4748C40.9168 43.2725 38.2136 46.1143 35.7945 46.4184C28.518 47.3306 18.7542 40.4004 13.9125 35.4222L13.9114 35.4233ZM13.2437 9.26531C12.4239 8.57664 11.877 8.22225 10.8346 8.83601C10.3302 9.13339 7.21092 12.2737 6.86309 12.8048C5.37782 15.0686 6.39111 18.5321 7.27355 20.8764C10.2866 28.8866 17.5205 36.6307 24.9558 40.7649C27.9767 42.4452 34.2052 45.3921 37.3233 43.0276C37.8568 42.6229 40.6551 39.7654 41.0242 39.2366C41.5074 38.5469 41.466 37.8347 40.9705 37.1651C40.2816 36.2327 36.3078 32.2639 35.375 31.5786C34.4512 30.9 33.7858 31.2701 33.0241 31.9107C32.0936 32.6921 29.9608 35.373 28.9754 35.5776C28.0002 35.7799 26.3415 34.7212 25.4871 34.1969C21.7046 31.8726 16.9736 27.1929 15.0186 23.1962C14.4986 22.133 13.9517 21.214 14.7413 20.1207C15.627 18.8932 17.44 17.7942 18.3661 16.4772C18.9544 15.641 18.885 15.148 18.2643 14.361C17.289 13.1256 14.4863 10.3084 13.2426 9.26531H13.2437Z"
            fill="#FE5000" />
        <path
            d="M26.8986 3.54136C28.2318 3.23727 32.0545 4.67385 33.3821 5.28649C39.4921 8.10598 45.8749 15.347 46.49 22.256C46.6298 23.8278 45.3515 24.5019 44.214 23.4142C43.7655 22.0961 43.5329 20.7344 43.0676 19.4175C41.0086 13.5907 36.2184 8.85613 30.3736 6.84045C29.2797 6.46258 28.1971 6.34631 27.1536 6.0344C25.6963 5.5984 25.7254 3.80855 26.8986 3.54136Z"
            fill="#FE5000" />
        <path
            d="M26.6783 11.2564C27.6748 11.0574 30.406 12.1642 31.3689 12.6661C34.5799 14.3386 37.2373 17.4644 38.3088 20.9334C38.4463 21.3795 38.8042 22.6204 38.7919 23.0218C38.7505 24.427 36.7251 24.9625 36.1793 23.1727C35.0385 19.4298 33.8787 16.8719 30.1991 14.9524C28.9174 14.2838 27.8358 14.1944 26.6 13.7427C25.3082 13.2709 25.4704 11.4968 26.6794 11.2553L26.6783 11.2564Z"
            fill="#FE5000" />
    </g>
    <defs>
        <clipPath id="clip0_2020_135">
            <rect width="43" height="43" fill="white" transform="translate(3.5 3.5)" />
        </clipPath>
    </defs>
</svg>