<svg width="107" height="141" viewBox="0 0 107 141" fill="none" xmlns="http://www.w3.org/2000/svg">
<g filter="url(#filter0_f_1296_15)">
<path d="M10 64.3093H34.0095C32.7817 28.0294 13.9534 19.0797 13.7605 18.9887L17.6882 10C18.7296 10.468 42.482 21.595 43.7869 64.3093H63.2131C64.518 21.595 88.2769 10.468 89.3118 10L91.2789 14.4976L93.2909 18.9692C92.4809 19.3527 74.199 28.4974 72.9905 64.3093H97V74.1364H73.0676C75.0282 109.129 93.2009 122.291 94.0237 122.863L88.5661 131C87.5762 130.324 65.4501 114.693 63.361 74.1364H43.6455C41.5563 114.686 19.4303 130.324 18.4403 131L13.0084 122.85C13.7991 122.297 31.9782 109.129 33.9324 74.1364H10V64.3093Z" fill="#B1EE23"/>
</g>
<path d="M10 64.3093H34.0095C32.7817 28.0294 13.9534 19.0797 13.7605 18.9887L17.6882 10C18.7296 10.468 42.482 21.595 43.7869 64.3093H63.2131C64.518 21.595 88.2769 10.468 89.3118 10L91.2789 14.4976L93.2909 18.9692C92.4809 19.3527 74.199 28.4974 72.9905 64.3093H97V74.1364H73.0676C75.0282 109.129 93.2009 122.291 94.0237 122.863L88.5661 131C87.5762 130.324 65.4501 114.693 63.361 74.1364H43.6455C41.5563 114.686 19.4303 130.324 18.4403 131L13.0084 122.85C13.7991 122.297 31.9782 109.129 33.9324 74.1364H10V64.3093Z" fill="#B1EE23"/>
<defs>
<filter id="filter0_f_1296_15" x="0" y="0" width="107" height="141" filterUnits="userSpaceOnUse" color-interpolation-filters="sRGB">
<feFlood flood-opacity="0" result="BackgroundImageFix"/>
<feBlend mode="normal" in="SourceGraphic" in2="BackgroundImageFix" result="shape"/>
<feGaussianBlur stdDeviation="5" result="effect1_foregroundBlur_1296_15"/>
</filter>
</defs>
</svg>
