<svg width="90" height="90" viewBox="0 0 90 90" fill="none" xmlns="http://www.w3.org/2000/svg" overflow="visible">
    <g>
        <g filter="url(#filter0_f_2035_11044)">
            <path
                d="M79.1836 43.707C79.5076 44.0621 79.7016 44.8013 79.706 45.2897C79.036 54.0846 80.5722 64.1582 79.6707 72.8044C79.274 76.6181 76.6446 79.7613 72.9153 80.6515C54.278 81.1132 35.4621 81.1132 16.8248 80.6515C12.8597 79.6237 10.3758 76.4738 10.0386 72.3915L10.0474 17.3332C10.5433 12.676 13.8339 9.37515 18.5241 9L71.4254 9.0111C81.6235 10.2098 80.1931 21.4532 78.9676 29.0317C76.9355 41.6137 66.6338 60.1314 55.0781 66.0162C45.4112 70.9375 33.4366 68.2338 22.952 68.9552C20.2763 69.377 20.6885 72.4359 18.5329 72.285C16.9019 72.1718 16.6639 70.649 17.1444 69.3215C18.0679 66.7754 21.3122 65.3569 23.8116 65.1593C30.3289 64.6488 37.589 65.7121 44.0931 65.1638C54.9855 64.2448 54.6527 49.383 45.7109 47.1144C44.2739 46.7503 41.4351 47.1899 41.3579 45.0566C41.3205 44.0066 41.8561 43.4916 42.7862 43.2008C45.1643 42.4639 48.2367 42.1664 50.7714 41.476C59.5787 39.0808 71.7318 34.2239 75.1039 24.9161C76.5939 20.8028 77.1846 13.1555 71.2138 12.7693H18.5241C16.1129 12.8869 14.0984 14.6938 13.7832 17.0957L13.8978 73.608C14.6362 75.6658 16.4964 77.1841 18.7423 77.1641H71.216C73.5942 77.0421 75.461 75.3572 75.9525 73.053L76.001 44.6881C76.1465 43.2164 78.2161 42.6437 79.1836 43.7047V43.707ZM54.7893 61.8385C55.0494 62.0516 57.1609 60.3601 57.5378 60.0582C60.8835 57.3811 64.1741 53.1878 66.5611 49.6117C69.8672 44.6526 72.5517 39.1785 74.1827 33.4269C67.7138 39.587 59.1886 43.1453 50.6017 45.1942C50.5201 45.5383 50.6524 45.5494 50.8353 45.7337C51.426 46.3241 52.2062 46.8236 52.8101 47.5184C56.233 51.4675 56.8281 57.0858 54.7871 61.8407L54.7893 61.8385Z"
                fill="#C634FF" />
        </g>
        <g>
            <path
                d="M79.1836 43.707C79.5076 44.0621 79.7016 44.8013 79.706 45.2897C79.036 54.0846 80.5722 64.1582 79.6707 72.8044C79.274 76.6181 76.6446 79.7613 72.9153 80.6515C54.278 81.1132 35.4621 81.1132 16.8248 80.6515C12.8597 79.6237 10.3758 76.4738 10.0386 72.3915L10.0474 17.3332C10.5433 12.676 13.8339 9.37515 18.5241 9L71.4254 9.0111C81.6235 10.2098 80.1931 21.4532 78.9676 29.0317C76.9355 41.6137 66.6338 60.1314 55.0781 66.0162C45.4112 70.9375 33.4366 68.2338 22.952 68.9552C20.2763 69.377 20.6885 72.4359 18.5329 72.285C16.9019 72.1718 16.6639 70.649 17.1444 69.3215C18.0679 66.7754 21.3122 65.3569 23.8116 65.1593C30.3289 64.6488 37.589 65.7121 44.0931 65.1638C54.9855 64.2448 54.6527 49.383 45.7109 47.1144C44.2739 46.7503 41.4351 47.1899 41.3579 45.0566C41.3205 44.0066 41.8561 43.4916 42.7862 43.2008C45.1643 42.4639 48.2367 42.1664 50.7714 41.476C59.5787 39.0808 71.7318 34.2239 75.1039 24.9161C76.5939 20.8028 77.1846 13.1555 71.2138 12.7693H18.5241C16.1129 12.8869 14.0984 14.6938 13.7832 17.0957L13.8978 73.608C14.6362 75.6658 16.4964 77.1841 18.7423 77.1641H71.216C73.5942 77.0421 75.461 75.3572 75.9525 73.053L76.001 44.6881C76.1465 43.2164 78.2161 42.6437 79.1836 43.7047V43.707ZM54.7893 61.8385C55.0494 62.0516 57.1609 60.3601 57.5378 60.0582C60.8835 57.3811 64.1741 53.1878 66.5611 49.6117C69.8672 44.6526 72.5517 39.1785 74.1827 33.4269C67.7138 39.587 59.1886 43.1453 50.6017 45.1942C50.5201 45.5383 50.6524 45.5494 50.8353 45.7337C51.426 46.3241 52.2062 46.8236 52.8101 47.5184C56.233 51.4675 56.8281 57.0858 54.7871 61.8407L54.7893 61.8385Z"
                fill="white" fill-opacity="0.6" />
        </g>
    </g>
    <defs>
        <filter id="filter0_f_2035_11044" x="-4.96143" y="-6" width="99.9229" height="102" filterUnits="userSpaceOnUse"
            color-interpolation-filters="sRGB">
            <feFlood flood-opacity="0" result="BackgroundImageFix" />
            <feBlend mode="normal" in="SourceGraphic" in2="BackgroundImageFix" result="shape" />
            <feGaussianBlur stdDeviation="7.5" result="effect1_foregroundBlur_2035_11044" />
        </filter>

    </defs>
</svg>