<svg width="72" height="67" viewBox="0 0 72 67" fill="none" xmlns="http://www.w3.org/2000/svg">
    <g clip-path="url(#clip0_891_110)" filter="url(#filter0_f_891_110)">
        <path d="M10.4535 11.2915C12.5784 8.94759 15.4216 7.27532 18.461 6.5206C18.7096 6.45858 19.6411 6.20648 19.8025 6.30682C19.9385 6.39193 20.1343 6.58796 20.0451 6.76005C19.8335 7.17081 19.0251 7.16741 18.5999 7.28174C13.1538 8.74429 8.91528 12.8558 7.50646 18.3586C7.3826 18.8416 7.30956 19.8709 7.17081 20.2181C6.96671 20.7288 6.48734 20.6433 6.37113 20.1577C6.79136 16.8803 8.21343 13.7621 10.4535 11.2915Z" fill="#5A04D8"/>
        <path d="M20.6192 10.1703C20.6073 10.3103 20.5001 10.4362 20.3776 10.4987C15.4496 11.3279 11.798 14.999 10.7559 19.8602C10.6807 20.2127 10.7592 20.8524 10.3376 20.957C9.58834 21.1431 9.99019 19.6701 10.0661 19.334C10.964 15.3449 13.7752 12.0434 17.5601 10.4778C17.9959 10.2976 19.967 9.63126 20.3219 9.75993C20.4881 9.82018 20.6354 9.98401 20.6192 10.1703Z" fill="#5A04D8"/>
        <path d="M15.124 16.5774C16.125 15.3149 17.3969 14.3325 18.8758 13.7181C19.2515 13.5624 20.5333 13.1254 20.8853 13.2067C21.2039 13.2801 21.2396 13.7318 20.9835 13.9215C20.9062 13.9784 19.7658 14.2228 19.5163 14.3131C17.0613 15.2006 15.1761 17.1754 14.4043 19.6681C14.2927 20.028 14.2054 20.8643 14.086 21.1075C13.9356 21.4131 13.4773 21.4098 13.3688 21.13C13.291 20.9301 13.4782 20.0643 13.5418 19.8198C13.8217 18.7456 14.4309 17.4514 15.124 16.5774Z" fill="#5A04D8"/>
        <path d="M17.8917 18.7239C18.5778 17.8572 19.4732 17.1811 20.5252 16.8506C20.8927 16.735 21.8302 16.4441 21.7024 17.1399C21.6358 17.5039 20.83 17.5568 20.4973 17.6915C19.1713 18.2278 18.1935 19.2957 17.7713 20.6617C17.6637 21.0088 17.6808 21.9224 17.1189 21.7309C16.7595 21.6087 16.8488 21.1902 16.9018 20.8976C17.0311 20.1866 17.441 19.2936 17.8917 18.7239Z" fill="#5A04D8"/>
    </g>
    <g clip-path="url(#clip1_891_110)">
        <path d="M10.4535 11.2915C12.5784 8.94759 15.4216 7.27532 18.461 6.5206C18.7096 6.45858 19.6411 6.20648 19.8025 6.30682C19.9385 6.39193 20.1343 6.58796 20.0451 6.76005C19.8335 7.17081 19.0251 7.16741 18.5999 7.28174C13.1538 8.74429 8.91528 12.8558 7.50646 18.3586C7.3826 18.8416 7.30956 19.8709 7.17081 20.2181C6.96671 20.7288 6.48734 20.6433 6.37113 20.1577C6.79136 16.8803 8.21343 13.7621 10.4535 11.2915Z" fill="white" fill-opacity="0.6"/>
        <path d="M20.6192 10.1703C20.6073 10.3103 20.5001 10.4362 20.3776 10.4987C15.4496 11.3279 11.798 14.999 10.7559 19.8602C10.6807 20.2127 10.7592 20.8524 10.3376 20.957C9.58834 21.1431 9.99019 19.6701 10.0661 19.334C10.964 15.3449 13.7752 12.0434 17.5601 10.4778C17.9959 10.2976 19.967 9.63126 20.3219 9.75993C20.4881 9.82018 20.6354 9.98401 20.6192 10.1703Z" fill="white" fill-opacity="0.6"/>
        <path d="M15.124 16.5774C16.125 15.3149 17.3969 14.3325 18.8758 13.7181C19.2515 13.5624 20.5333 13.1254 20.8853 13.2067C21.2039 13.2801 21.2396 13.7318 20.9835 13.9215C20.9062 13.9784 19.7658 14.2228 19.5163 14.3131C17.0613 15.2006 15.1761 17.1754 14.4043 19.6681C14.2927 20.028 14.2054 20.8643 14.086 21.1075C13.9356 21.4131 13.4773 21.4098 13.3688 21.13C13.291 20.9301 13.4782 20.0643 13.5418 19.8198C13.8217 18.7456 14.4309 17.4514 15.124 16.5774Z" fill="white" fill-opacity="0.6"/>
        <path d="M17.8917 18.7239C18.5778 17.8572 19.4732 17.1811 20.5252 16.8506C20.8927 16.735 21.8302 16.4441 21.7024 17.1399C21.6358 17.5039 20.83 17.5568 20.4973 17.6915C19.1713 18.2278 18.1935 19.2957 17.7713 20.6617C17.6637 21.0088 17.6808 21.9224 17.1189 21.7309C16.7595 21.6087 16.8488 21.1902 16.9018 20.8976C17.0311 20.1866 17.441 19.2936 17.8917 18.7239Z" fill="white" fill-opacity="0.6"/>
    </g>
    <g clip-path="url(#clip2_891_110)" filter="url(#filter1_f_891_110)">
        <path d="M40.3018 11.7661L40.9229 11.8069C46.9805 15.1583 53.254 18.1365 59.3152 21.4796C59.6941 21.6883 60.9555 22.2943 61.0502 22.6231L61.013 46.0554C60.8919 46.3241 57.742 47.9452 57.1976 48.2368C51.7983 51.1323 46.3054 53.8597 40.9229 56.7875L40.5128 56.8691L20.5833 46.4393L20.1289 46.0542V22.5403C20.2416 22.2907 21.4838 21.6691 21.828 21.4808C27.924 18.1365 34.2142 15.1283 40.3018 11.7661ZM59.0358 22.6603L40.9241 13.1256L40.5116 13.0464C34.7562 16.1015 28.9072 19.0029 23.1829 22.1167C22.9047 22.2679 22.5954 22.4203 22.3304 22.5871C22.2021 22.6675 22.0522 22.6027 22.1049 22.8367L40.2178 32.4301L40.6303 32.5093C46.3726 29.4327 52.2611 26.5949 57.959 23.439C58.2372 23.2855 58.6545 23.1007 58.8871 22.9327C58.9722 22.8715 59.1929 22.8487 59.0358 22.6591V22.6603ZM39.9708 55.296V33.6373L21.2656 23.7378V45.3966L39.9708 55.296ZM41.1699 55.296L59.8751 45.3966V23.7378L41.1699 33.6373V55.296Z" fill="#5A04D8"/>
    </g>
    <g clip-path="url(#clip3_891_110)">
        <path d="M40.3018 11.7661L40.9229 11.8069C46.9805 15.1583 53.254 18.1365 59.3152 21.4796C59.6941 21.6883 60.9555 22.2943 61.0502 22.6231L61.013 46.0554C60.8919 46.3241 57.742 47.9452 57.1976 48.2368C51.7983 51.1323 46.3054 53.8597 40.9229 56.7875L40.5128 56.8691L20.5833 46.4393L20.1289 46.0542V22.5403C20.2416 22.2907 21.4838 21.6691 21.828 21.4808C27.924 18.1365 34.2142 15.1283 40.3018 11.7661ZM59.0358 22.6603L40.9241 13.1256L40.5116 13.0464C34.7562 16.1015 28.9072 19.0029 23.1829 22.1167C22.9047 22.2679 22.5954 22.4203 22.3304 22.5871C22.2021 22.6675 22.0522 22.6027 22.1049 22.8367L40.2178 32.4301L40.6303 32.5093C46.3726 29.4327 52.2611 26.5949 57.959 23.439C58.2372 23.2855 58.6545 23.1007 58.8871 22.9327C58.9722 22.8715 59.1929 22.8487 59.0358 22.6591V22.6603ZM39.9708 55.296V33.6373L21.2656 23.7378V45.3966L39.9708 55.296ZM41.1699 55.296L59.8751 45.3966V23.7378L41.1699 33.6373V55.296Z" fill="white" fill-opacity="0.6"/>
    </g>
    <defs>
        <filter id="filter0_f_891_110" x="-2" y="-2" width="34.2646" height="34.4999" filterUnits="userSpaceOnUse" color-interpolation-filters="sRGB">
            <feFlood flood-opacity="0" result="BackgroundImageFix"/>
            <feBlend mode="normal" in="SourceGraphic" in2="BackgroundImageFix" result="shape"/>
            <feGaussianBlur stdDeviation="3" result="effect1_foregroundBlur_891_110"/>
        </filter>
        <filter id="filter1_f_891_110" x="10.1289" y="1.76611" width="60.9209" height="65.103" filterUnits="userSpaceOnUse" color-interpolation-filters="sRGB">
            <feFlood flood-opacity="0" result="BackgroundImageFix"/>
            <feBlend mode="normal" in="SourceGraphic" in2="BackgroundImageFix" result="shape"/>
            <feGaussianBlur stdDeviation="5" result="effect1_foregroundBlur_891_110"/>
        </filter>
        <clipPath id="clip0_891_110">
            <rect width="19.4152" height="12.2465" fill="white" transform="translate(4 18.0436) rotate(-46.33)"/>
        </clipPath>
        <clipPath id="clip1_891_110">
            <rect width="19.4152" height="12.2465" fill="white" transform="translate(4 18.0436) rotate(-46.33)"/>
        </clipPath>
        <clipPath id="clip2_891_110">
            <rect width="40.9213" height="45.103" fill="white" transform="translate(20.1289 11.7661)"/>
        </clipPath>
        <clipPath id="clip3_891_110">
            <rect width="40.9213" height="45.103" fill="white" transform="translate(20.1289 11.7661)"/>
        </clipPath>
    </defs>
</svg>
