<svg width="96" height="101" viewBox="0 0 96 101" fill="none" xmlns="http://www.w3.org/2000/svg">
<g clip-path="url(#clip0_900_513)" filter="url(#filter0_f_900_513)">
<path d="M20.7343 28.9434C22.7172 26.7561 25.3704 25.1955 28.2068 24.4912C28.4388 24.4334 29.308 24.1981 29.4586 24.2917C29.5855 24.3712 29.7682 24.5541 29.685 24.7147C29.4875 25.098 28.7332 25.0948 28.3364 25.2015C23.2541 26.5664 19.2988 30.4032 17.9842 35.5382C17.8686 35.989 17.8004 36.9496 17.6709 37.2736C17.4805 37.7501 17.0331 37.6703 16.9247 37.2172C17.3168 34.1588 18.6439 31.2489 20.7343 28.9434Z" fill="#5A04D8"/>
<path d="M30.2208 27.8971C30.2096 28.0277 30.1096 28.1453 29.9953 28.2036C25.3965 28.9773 21.9889 32.4032 21.0164 36.9396C20.9463 37.2685 21.0195 37.8655 20.6261 37.9631C19.9269 38.1368 20.3019 36.7622 20.3727 36.4485C21.2106 32.726 23.834 29.6451 27.366 28.1841C27.7727 28.0159 29.6121 27.3941 29.9433 27.5141C30.0984 27.5704 30.2359 27.7233 30.2208 27.8971Z" fill="#5A04D8"/>
<path d="M25.0925 33.876C26.0266 32.6979 27.2135 31.7812 28.5936 31.2078C28.9442 31.0625 30.1404 30.6547 30.4688 30.7305C30.7661 30.799 30.7995 31.2206 30.5604 31.3976C30.4884 31.4508 29.4241 31.6788 29.1913 31.763C26.9004 32.5913 25.1411 34.4341 24.4209 36.7603C24.3167 37.0961 24.2353 37.8766 24.1238 38.1035C23.9835 38.3886 23.5558 38.3856 23.4546 38.1245C23.382 37.9379 23.5567 37.13 23.616 36.9018C23.8772 35.8994 24.4457 34.6917 25.0925 33.876Z" fill="#5A04D8"/>
<path d="M27.6757 35.8791C28.316 35.0703 29.1515 34.4394 30.1332 34.1309C30.4762 34.0231 31.3511 33.7516 31.2318 34.4009C31.1697 34.7406 30.4177 34.7899 30.1072 34.9157C28.8698 35.4161 27.9573 36.4126 27.5634 37.6874C27.463 38.0113 27.4789 38.8639 26.9546 38.6852C26.6192 38.5711 26.7025 38.1806 26.752 37.9076C26.8726 37.244 27.2552 36.4107 27.6757 35.8791Z" fill="#5A04D8"/>
</g>
<g clip-path="url(#clip1_900_513)">
<path d="M21.4535 28.2915C23.5784 25.9475 26.4216 24.2753 29.461 23.5205C29.7096 23.4585 30.6411 23.2064 30.8025 23.3068C30.9385 23.3919 31.1343 23.5879 31.0451 23.76C30.8335 24.1707 30.0251 24.1673 29.5999 24.2817C24.1538 25.7442 19.9153 29.8557 18.5065 35.3585C18.3826 35.8415 18.3096 36.8709 18.1708 37.2181C17.9667 37.7287 17.4873 37.6432 17.3711 37.1577C17.7914 33.8803 19.2134 30.762 21.4535 28.2915Z" fill="white" fill-opacity="0.6"/>
<path d="M31.6192 27.1703C31.6073 27.3102 31.5001 27.4362 31.3776 27.4987C26.4496 28.3278 22.798 31.9989 21.7559 36.8601C21.6807 37.2126 21.7592 37.8524 21.3376 37.9569C20.5883 38.1431 20.9902 36.67 21.0661 36.3339C21.964 32.3449 24.7752 29.0434 28.5601 27.4778C28.9959 27.2975 30.967 26.6312 31.3219 26.7599C31.4881 26.8201 31.6354 26.9839 31.6192 27.1703Z" fill="white" fill-opacity="0.6"/>
<path d="M26.124 33.5774C27.125 32.315 28.3969 31.3325 29.8758 30.7182C30.2515 30.5624 31.5333 30.1255 31.8853 30.2067C32.2039 30.2801 32.2396 30.7319 31.9835 30.9215C31.9062 30.9785 30.7658 31.2229 30.5163 31.3131C28.0613 32.2007 26.1761 34.1755 25.4043 36.6682C25.2927 37.028 25.2054 37.8644 25.086 38.1076C24.9356 38.4131 24.4773 38.4099 24.3688 38.1301C24.291 37.9301 24.4782 37.0643 24.5418 36.8198C24.8217 35.7457 25.4309 34.4515 26.124 33.5774Z" fill="white" fill-opacity="0.6"/>
<path d="M28.8917 35.7239C29.5778 34.8572 30.4732 34.181 31.5252 33.8505C31.8927 33.735 32.8302 33.444 32.7024 34.1399C32.6358 34.5039 31.83 34.5567 31.4973 34.6915C30.1713 35.2277 29.1935 36.2956 28.7713 37.6616C28.6637 38.0087 28.6808 38.9223 28.1189 38.7308C27.7595 38.6086 27.8488 38.1901 27.9018 37.8976C28.0311 37.1865 28.441 36.2935 28.8917 35.7239Z" fill="white" fill-opacity="0.6"/>
</g>
<g filter="url(#filter1_f_900_513)">
<path d="M52.0762 30.2444L52.6648 30.2825C58.4057 33.4127 64.3511 36.1943 70.0955 39.3166C70.4545 39.5117 71.65 40.0776 71.7398 40.3847L71.7045 62.2702C71.5898 62.5212 68.6046 64.0353 68.0886 64.3077C62.9716 67.012 57.7659 69.5594 52.6648 72.294L52.2762 72.3702L33.3887 62.6288L32.958 62.2691V40.3074C33.0648 40.0743 34.2421 39.4937 34.5682 39.3178C40.3455 36.1943 46.3069 33.3847 52.0762 30.2444ZM69.8307 40.4194L52.6659 31.5142L52.275 31.4402C46.8205 34.2936 41.2773 37.0035 35.8523 39.9118C35.5887 40.053 35.2955 40.1953 35.0444 40.3511C34.9228 40.4262 34.7807 40.3656 34.8307 40.5842L51.9966 49.5444L52.3875 49.6183C57.8296 46.7448 63.4102 44.0943 68.8102 41.1468C69.0739 41.0033 69.4693 40.8307 69.6898 40.6738C69.7705 40.6167 69.9796 40.5954 69.8307 40.4183V40.4194ZM51.7625 70.9009V50.6718L34.0353 41.4258V61.6549L51.7625 70.9009ZM52.8989 70.9009L70.6261 61.6549V41.4258L52.8989 50.6718V70.9009Z" fill="#5A04D8"/>
</g>
<g clip-path="url(#clip2_900_513)">
<path d="M51.3018 28.7661L51.9229 28.8069C57.9805 32.1583 64.254 35.1365 70.3152 38.4796C70.6941 38.6883 71.9555 39.2943 72.0502 39.6231L72.013 63.0554C71.8919 63.3241 68.742 64.9452 68.1976 65.2368C62.7983 68.1323 57.3054 70.8597 51.9229 73.7875L51.5128 73.8691L31.5833 63.4393L31.1289 63.0542V39.5403C31.2416 39.2907 32.4838 38.6691 32.828 38.4808C38.924 35.1365 45.2142 32.1283 51.3018 28.7661ZM70.0358 39.6603L51.9241 30.1256L51.5116 30.0464C45.7562 33.1015 39.9072 36.0029 34.1829 39.1167C33.9047 39.2679 33.5954 39.4203 33.3304 39.5871C33.2021 39.6675 33.0522 39.6027 33.1049 39.8367L51.2178 49.4301L51.6303 49.5093C57.3726 46.4327 63.2611 43.5949 68.959 40.439C69.2372 40.2855 69.6545 40.1007 69.8871 39.9327C69.9722 39.8715 70.1929 39.8487 70.0358 39.6591V39.6603ZM50.9708 72.296V50.6373L32.2656 40.7378V62.3966L50.9708 72.296ZM52.1699 72.296L70.8751 62.3966V40.7378L52.1699 50.6373V72.296Z" fill="white" fill-opacity="0.6"/>
</g>
<defs>
<filter id="filter0_f_900_513" x="5" y="5" width="53.334" height="53.7704" filterUnits="userSpaceOnUse" color-interpolation-filters="sRGB">
<feFlood flood-opacity="0" result="BackgroundImageFix"/>
<feBlend mode="normal" in="SourceGraphic" in2="BackgroundImageFix" result="shape"/>
<feGaussianBlur stdDeviation="3" result="effect1_foregroundBlur_900_513"/>
</filter>
<filter id="filter1_f_900_513" x="8" y="3" width="89" height="96" filterUnits="userSpaceOnUse" color-interpolation-filters="sRGB">
<feFlood flood-opacity="0" result="BackgroundImageFix"/>
<feBlend mode="normal" in="SourceGraphic" in2="BackgroundImageFix" result="shape"/>
<feGaussianBlur stdDeviation="5" result="effect1_foregroundBlur_900_513"/>
</filter>
<clipPath id="clip0_900_513">
<rect width="36.0439" height="22.7354" fill="white" transform="translate(11 37.0715) rotate(-46.33)"/>
</clipPath>
<clipPath id="clip1_900_513">
<rect width="19.4152" height="12.2465" fill="white" transform="translate(15 35.0436) rotate(-46.33)"/>
</clipPath>
<clipPath id="clip2_900_513">
<rect width="40.9213" height="45.103" fill="white" transform="translate(31.1289 28.7661)"/>
</clipPath>
</defs>
</svg>
