<svg width="139" height="118" viewBox="0 0 139 118" fill="none" xmlns="http://www.w3.org/2000/svg">
<g filter="url(#filter0_f_1296_9)">
<path d="M10.0131 108H129V98.2452H10.0131V108ZM94.4463 65.4323C99.7754 59.5613 104.194 51.0968 104.194 41.1806C104.194 22.8194 89.9225 10 69.4967 10C49.0709 10 34.799 22.8194 34.799 41.1806C34.799 51.0968 39.2181 59.5613 44.5471 65.4323H10V75.1871H61.6537V65.4645L58.6946 64.1871C54.3083 62.2968 44.6977 53.871 44.6977 41.1806C44.6977 28.3677 54.6618 19.7548 69.4967 19.7548C84.3316 19.7548 94.2958 28.3613 94.2958 41.1806C94.2958 53.871 84.6852 62.2903 80.2988 64.1806L77.3397 65.4581V75.1806H128.993V65.4258H94.4463V65.4323Z" fill="#4834DB"/>
</g>
<path d="M10.0131 108H129V98.2452H10.0131V108ZM94.4463 65.4323C99.7754 59.5613 104.194 51.0968 104.194 41.1806C104.194 22.8194 89.9225 10 69.4967 10C49.0709 10 34.799 22.8194 34.799 41.1806C34.799 51.0968 39.2181 59.5613 44.5471 65.4323H10V75.1871H61.6537V65.4645L58.6946 64.1871C54.3083 62.2968 44.6977 53.871 44.6977 41.1806C44.6977 28.3677 54.6618 19.7548 69.4967 19.7548C84.3316 19.7548 94.2958 28.3613 94.2958 41.1806C94.2958 53.871 84.6852 62.2903 80.2988 64.1806L77.3397 65.4581V75.1806H128.993V65.4258H94.4463V65.4323Z" fill="#4834DB"/>
<defs>
<filter id="filter0_f_1296_9" x="0" y="0" width="139" height="118" filterUnits="userSpaceOnUse" color-interpolation-filters="sRGB">
<feFlood flood-opacity="0" result="BackgroundImageFix"/>
<feBlend mode="normal" in="SourceGraphic" in2="BackgroundImageFix" result="shape"/>
<feGaussianBlur stdDeviation="5" result="effect1_foregroundBlur_1296_9"/>
</filter>
</defs>
</svg>
