<svg width="127" height="138" viewBox="0 0 127 138" fill="none" xmlns="http://www.w3.org/2000/svg">
<g filter="url(#filter0_f_1296_10)">
<path d="M10 19.733V10C12.9036 10 19.5599 10.0129 24.0709 14.6734C27.6357 11.3776 32.4902 10 36.9558 10C41.8427 10 46.8981 11.4677 50.4823 15.0274C54.0794 11.4677 59.1219 10 63.7495 10C72.6678 10 82.2018 14.8536 82.2018 28.4812V96.9084C82.2018 109.77 84.1073 111.044 103.221 111.16V104.086L117 116.046L103.221 128V120.9C83.8999 120.777 72.4021 119.136 72.4021 96.9148V28.4876C72.4021 24.4193 71.4169 19.7395 63.7495 19.7395C55.4081 19.7395 55.4081 26.093 55.4081 28.1786H55.3951C55.3951 28.2816 55.4081 28.3782 55.4081 28.4876V96.9148H45.6083V28.4876C45.6083 24.4193 44.6232 19.7395 36.9623 19.7395C28.6143 19.7395 28.6143 26.093 28.6143 28.1786H28.6014C28.6014 28.288 28.6143 28.3782 28.6143 28.4876V96.9148H18.8146V28.4876C18.8146 20.1643 15.4702 19.7395 10.0065 19.7395L10 19.733Z" fill="#20B1D5"/>
</g>
<path d="M10 19.733V10C12.9036 10 19.5599 10.0129 24.0709 14.6734C27.6357 11.3776 32.4902 10 36.9558 10C41.8427 10 46.8981 11.4677 50.4823 15.0274C54.0794 11.4677 59.1219 10 63.7495 10C72.6678 10 82.2018 14.8536 82.2018 28.4812V96.9084C82.2018 109.77 84.1073 111.044 103.221 111.16V104.086L117 116.046L103.221 128V120.9C83.8999 120.777 72.4021 119.136 72.4021 96.9148V28.4876C72.4021 24.4193 71.4169 19.7395 63.7495 19.7395C55.4081 19.7395 55.4081 26.093 55.4081 28.1786H55.3951C55.3951 28.2816 55.4081 28.3782 55.4081 28.4876V96.9148H45.6083V28.4876C45.6083 24.4193 44.6232 19.7395 36.9623 19.7395C28.6143 19.7395 28.6143 26.093 28.6143 28.1786H28.6014C28.6014 28.288 28.6143 28.3782 28.6143 28.4876V96.9148H18.8146V28.4876C18.8146 20.1643 15.4702 19.7395 10.0065 19.7395L10 19.733Z" fill="#20B1D5"/>
<defs>
<filter id="filter0_f_1296_10" x="0" y="0" width="127" height="138" filterUnits="userSpaceOnUse" color-interpolation-filters="sRGB">
<feFlood flood-opacity="0" result="BackgroundImageFix"/>
<feBlend mode="normal" in="SourceGraphic" in2="BackgroundImageFix" result="shape"/>
<feGaussianBlur stdDeviation="5" result="effect1_foregroundBlur_1296_10"/>
</filter>
</defs>
</svg>
