<svg width="50" height="50" viewBox="0 0 50 50" fill="none" xmlns="http://www.w3.org/2000/svg">
    <g clip-path="url(#clip0_635_1135)">
        <g filter="url(#filter0_f_635_1135)">
            <path d="M47.2232 9.04551C47.2232 11.6141 47.2335 14.1815 47.2168 16.7501C47.213 17.4501 47.4016 18.0319 47.8853 18.5546C50.9852 21.9028 50.617 27.3008 46.7562 30.1442C43.3432 32.6564 40.5486 35.8299 37.5385 38.7723C35.9629 40.3109 34.4719 41.9432 32.827 43.4022C29.1343 46.6772 23.4169 45.7923 20.7853 41.6157C20.5184 41.1919 20.2049 41.1585 19.8448 41.5156C18.0138 43.3457 16.1906 45.1823 14.3558 47.0073C9.8419 51.4934 2.42568 49.5631 0.800015 43.4138C0.0455624 40.56 0.70635 37.9221 2.81702 35.7708C5.39345 33.1457 7.99811 30.5462 10.6182 27.9635C11.6562 26.9399 12.1399 25.7647 12.1335 24.2968C12.1027 17.9843 12.1207 11.6707 12.1207 5.35825C12.1207 4.17924 12.2798 4.01614 13.4448 4.01614C17.9125 4.01614 22.3815 4.01614 26.8492 4.01614C28.0745 4.01614 28.2285 4.16769 28.2285 5.3698C28.2285 10.3992 28.2747 15.4286 28.1977 20.4567C28.1784 21.7461 28.7994 22.5835 29.5295 23.4517C29.7707 23.7381 29.9414 23.5339 30.1031 23.3592C30.8395 22.5616 31.118 21.6023 31.1167 20.5337C31.1116 16.7026 31.1154 12.8728 31.1154 9.04166C31.1154 6.4101 31.1141 3.77725 31.1154 1.14569C31.1154 0.167044 31.2694 0.00778842 32.2137 0.00650411C36.8533 0.00393548 41.493 0.00393548 46.1313 0.00650411C47.05 0.00650411 47.2194 0.173465 47.2207 1.08918C47.2245 3.74258 47.2207 6.39597 47.2219 9.04937L47.2232 9.04551ZM45.7798 14.0877C45.7798 13.2105 45.7823 12.3334 45.7798 11.4562C45.7772 10.6214 45.7656 10.6098 44.9047 10.6098C41.0785 10.6098 37.2524 10.6085 33.4275 10.6098C32.5704 10.6098 32.5589 10.6214 32.5576 11.4613C32.555 14.414 32.5448 17.3666 32.5614 20.3179C32.5704 22.0569 31.9905 23.5095 30.7343 24.7411C28.1387 27.2854 25.5828 29.8707 23.0217 32.4496C21.2254 34.2579 20.5069 36.4502 21.151 38.9135C22.4944 44.0547 28.6018 45.6626 32.3664 41.9176C34.6862 39.6096 37.0073 37.3056 39.3002 34.9707C41.4455 32.7861 43.6909 30.7248 46.1108 28.8419C49.0324 26.5674 49.4019 22.4396 46.964 19.6809C46.1313 18.7382 45.7644 17.6877 45.7785 16.4611C45.7887 15.67 45.7798 14.8776 45.7798 14.0865V14.0877ZM20.1977 14.735C18.273 14.735 16.3497 14.735 14.4251 14.735C13.5705 14.735 13.5667 14.7376 13.5654 15.5891C13.5641 18.4351 13.5551 21.2812 13.568 24.1272C13.5769 26.0396 12.9752 27.6462 11.5638 29.0089C8.91808 31.5647 6.32882 34.1796 3.76009 36.8124C1.26962 39.3643 1.34404 43.5563 3.86658 46.0916C6.36346 48.5999 10.5566 48.7103 13.0907 46.2675C15.2616 44.1741 17.362 42.0087 19.4971 39.8806C19.7268 39.6507 19.814 39.4324 19.7383 39.0844C19.1032 36.151 19.9064 33.6247 21.985 31.5018C23.916 29.5303 25.8804 27.5936 27.8307 25.6427C28.7609 24.7116 28.8033 24.6731 27.8961 23.6816C27.057 22.7633 26.7529 21.7217 26.776 20.5119C26.8081 18.8436 26.7658 17.1739 26.794 15.5043C26.803 14.9328 26.64 14.7119 26.0318 14.7222C24.0867 14.7569 22.1415 14.735 20.1964 14.735H20.1977ZM20.1335 9.12771C22.1184 9.12771 24.1046 9.11358 26.0896 9.1367C26.6233 9.14312 26.8132 8.95561 26.794 8.43033C26.7645 7.64047 26.7747 6.84933 26.7888 6.0582C26.7965 5.61896 26.6079 5.43274 26.1743 5.45457C25.8548 5.46998 25.534 5.45585 25.2132 5.45585C21.6052 5.45585 17.9972 5.46998 14.3891 5.44301C13.7361 5.43787 13.5128 5.65364 13.5539 6.29323C13.5975 6.99575 13.5923 7.70469 13.5551 8.40721C13.5256 8.97744 13.754 9.14312 14.3045 9.13542C16.247 9.10973 18.1896 9.12514 20.1322 9.12514L20.1335 9.12771ZM39.1642 1.37045C37.178 1.37045 35.1905 1.37944 33.2043 1.36403C32.7436 1.36017 32.5383 1.51044 32.5525 1.99077C32.5743 2.76008 32.5717 3.53066 32.5525 4.29997C32.5409 4.77517 32.7539 4.9524 33.2094 4.93571C33.6995 4.91773 34.1922 4.93314 34.6837 4.93314C38.1236 4.93314 41.5623 4.92415 45.0022 4.94213C45.5809 4.9447 45.8195 4.75719 45.7874 4.16512C45.7515 3.50369 45.749 2.83842 45.7874 2.177C45.8234 1.57594 45.6283 1.34604 44.9945 1.3576C43.0506 1.39228 41.1068 1.37045 39.1629 1.37045H39.1642ZM20.1617 13.3634C22.1479 13.3634 24.1354 13.3505 26.1216 13.3724C26.6259 13.3775 26.8171 13.1951 26.7914 12.6994C26.7658 12.2088 26.7593 11.7143 26.794 11.225C26.8338 10.6638 26.6182 10.4801 26.0562 10.4878C24.1123 10.5161 22.1685 10.4981 20.2246 10.4981C18.2384 10.4981 16.2509 10.5122 14.2647 10.4891C13.7309 10.4827 13.5282 10.6663 13.5603 11.1942C13.5898 11.6848 13.5898 12.1792 13.5603 12.6686C13.5282 13.1964 13.7335 13.3801 14.266 13.3737C16.2316 13.3493 18.1973 13.3647 20.1617 13.3634ZM39.1655 6.37542C37.1793 6.37542 35.1918 6.38441 33.2055 6.369C32.7462 6.36515 32.5306 6.5167 32.5537 6.99575C32.5756 7.44397 32.5537 7.89348 32.5576 8.34299C32.564 9.12899 32.5948 9.16367 33.4019 9.16367C36.2849 9.16624 39.1693 9.16367 42.0524 9.16367C43.0776 9.16367 44.1028 9.15211 45.1279 9.16752C45.5873 9.17523 45.8016 9.00056 45.781 8.52794C45.7631 8.10154 45.781 7.67258 45.7785 7.2449C45.7746 6.3857 45.7656 6.37414 44.9316 6.37285C43.0096 6.37029 41.0862 6.37285 39.1642 6.37285L39.1655 6.37542Z" fill="#FE5000"/>
        </g>
    </g>
    <g clip-path="url(#clip1_635_1135)">
        <path d="M47.2232 9.04551C47.2232 11.6141 47.2335 14.1815 47.2168 16.7501C47.213 17.4501 47.4016 18.0319 47.8853 18.5546C50.9852 21.9028 50.617 27.3008 46.7562 30.1442C43.3432 32.6564 40.5486 35.8299 37.5385 38.7723C35.9629 40.3109 34.4719 41.9432 32.827 43.4022C29.1343 46.6772 23.4169 45.7923 20.7853 41.6157C20.5184 41.1919 20.2049 41.1585 19.8448 41.5156C18.0138 43.3457 16.1906 45.1823 14.3558 47.0073C9.8419 51.4934 2.42568 49.5631 0.800015 43.4138C0.0455624 40.56 0.70635 37.9221 2.81702 35.7708C5.39345 33.1457 7.99811 30.5462 10.6182 27.9635C11.6562 26.9399 12.1399 25.7647 12.1335 24.2968C12.1027 17.9843 12.1207 11.6707 12.1207 5.35825C12.1207 4.17924 12.2798 4.01614 13.4448 4.01614C17.9125 4.01614 22.3815 4.01614 26.8492 4.01614C28.0745 4.01614 28.2285 4.16769 28.2285 5.3698C28.2285 10.3992 28.2747 15.4286 28.1977 20.4567C28.1784 21.7461 28.7994 22.5835 29.5295 23.4517C29.7707 23.7381 29.9414 23.5339 30.1031 23.3592C30.8395 22.5616 31.118 21.6023 31.1167 20.5337C31.1116 16.7026 31.1154 12.8728 31.1154 9.04166C31.1154 6.4101 31.1141 3.77725 31.1154 1.14569C31.1154 0.167044 31.2694 0.00778842 32.2137 0.00650411C36.8533 0.00393548 41.493 0.00393548 46.1313 0.00650411C47.05 0.00650411 47.2194 0.173465 47.2207 1.08918C47.2245 3.74258 47.2207 6.39597 47.2219 9.04937L47.2232 9.04551ZM45.7798 14.0877C45.7798 13.2105 45.7823 12.3334 45.7798 11.4562C45.7772 10.6214 45.7656 10.6098 44.9047 10.6098C41.0785 10.6098 37.2524 10.6085 33.4275 10.6098C32.5704 10.6098 32.5589 10.6214 32.5576 11.4613C32.555 14.414 32.5448 17.3666 32.5614 20.3179C32.5704 22.0569 31.9905 23.5095 30.7343 24.7411C28.1387 27.2854 25.5828 29.8707 23.0217 32.4496C21.2254 34.2579 20.5069 36.4502 21.151 38.9135C22.4944 44.0547 28.6018 45.6626 32.3664 41.9176C34.6862 39.6096 37.0073 37.3056 39.3002 34.9707C41.4455 32.7861 43.6909 30.7248 46.1108 28.8419C49.0324 26.5674 49.4019 22.4396 46.964 19.6809C46.1313 18.7382 45.7644 17.6877 45.7785 16.4611C45.7887 15.67 45.7798 14.8776 45.7798 14.0865V14.0877ZM20.1977 14.735C18.273 14.735 16.3497 14.735 14.4251 14.735C13.5705 14.735 13.5667 14.7376 13.5654 15.5891C13.5641 18.4351 13.5551 21.2812 13.568 24.1272C13.5769 26.0396 12.9752 27.6462 11.5638 29.0089C8.91808 31.5647 6.32882 34.1796 3.76009 36.8124C1.26962 39.3643 1.34404 43.5563 3.86658 46.0916C6.36346 48.5999 10.5566 48.7103 13.0907 46.2675C15.2616 44.1741 17.362 42.0087 19.4971 39.8806C19.7268 39.6507 19.814 39.4324 19.7383 39.0844C19.1032 36.151 19.9064 33.6247 21.985 31.5018C23.916 29.5303 25.8804 27.5936 27.8307 25.6427C28.7609 24.7116 28.8033 24.6731 27.8961 23.6816C27.057 22.7633 26.7529 21.7217 26.776 20.5119C26.8081 18.8436 26.7658 17.1739 26.794 15.5043C26.803 14.9328 26.64 14.7119 26.0318 14.7222C24.0867 14.7569 22.1415 14.735 20.1964 14.735H20.1977ZM20.1335 9.12771C22.1184 9.12771 24.1046 9.11358 26.0896 9.1367C26.6233 9.14312 26.8132 8.95561 26.794 8.43033C26.7645 7.64047 26.7747 6.84933 26.7888 6.0582C26.7965 5.61896 26.6079 5.43274 26.1743 5.45457C25.8548 5.46998 25.534 5.45585 25.2132 5.45585C21.6052 5.45585 17.9972 5.46998 14.3891 5.44301C13.7361 5.43787 13.5128 5.65364 13.5539 6.29323C13.5975 6.99575 13.5923 7.70469 13.5551 8.40721C13.5256 8.97744 13.754 9.14312 14.3045 9.13542C16.247 9.10973 18.1896 9.12514 20.1322 9.12514L20.1335 9.12771ZM39.1642 1.37045C37.178 1.37045 35.1905 1.37944 33.2043 1.36403C32.7436 1.36017 32.5383 1.51044 32.5525 1.99077C32.5743 2.76008 32.5717 3.53066 32.5525 4.29997C32.5409 4.77517 32.7539 4.9524 33.2094 4.93571C33.6995 4.91773 34.1922 4.93314 34.6837 4.93314C38.1236 4.93314 41.5623 4.92415 45.0022 4.94213C45.5809 4.9447 45.8195 4.75719 45.7874 4.16512C45.7515 3.50369 45.749 2.83842 45.7874 2.177C45.8234 1.57594 45.6283 1.34604 44.9945 1.3576C43.0506 1.39228 41.1068 1.37045 39.1629 1.37045H39.1642ZM20.1617 13.3634C22.1479 13.3634 24.1354 13.3505 26.1216 13.3724C26.6259 13.3775 26.8171 13.1951 26.7914 12.6994C26.7658 12.2088 26.7593 11.7143 26.794 11.225C26.8338 10.6638 26.6182 10.4801 26.0562 10.4878C24.1123 10.5161 22.1685 10.4981 20.2246 10.4981C18.2384 10.4981 16.2509 10.5122 14.2647 10.4891C13.7309 10.4827 13.5282 10.6663 13.5603 11.1942C13.5898 11.6848 13.5898 12.1792 13.5603 12.6686C13.5282 13.1964 13.7335 13.3801 14.266 13.3737C16.2316 13.3493 18.1973 13.3647 20.1617 13.3634ZM39.1655 6.37542C37.1793 6.37542 35.1918 6.38441 33.2055 6.369C32.7462 6.36515 32.5306 6.5167 32.5537 6.99575C32.5756 7.44397 32.5537 7.89348 32.5576 8.34299C32.564 9.12899 32.5948 9.16367 33.4019 9.16367C36.2849 9.16624 39.1693 9.16367 42.0524 9.16367C43.0776 9.16367 44.1028 9.15211 45.1279 9.16752C45.5873 9.17523 45.8016 9.00056 45.781 8.52794C45.7631 8.10154 45.781 7.67258 45.7785 7.2449C45.7746 6.3857 45.7656 6.37414 44.9316 6.37285C43.0096 6.37029 41.0862 6.37285 39.1642 6.37285L39.1655 6.37542Z" fill="white" fill-opacity="0.6"/>
    </g>
    <defs>
        <filter id="filter0_f_635_1135" x="-9.50098" y="-9.99542" width="69.4619" height="69.4586" filterUnits="userSpaceOnUse" color-interpolation-filters="sRGB">
            <feFlood flood-opacity="0" result="BackgroundImageFix"/>
            <feBlend mode="normal" in="SourceGraphic" in2="BackgroundImageFix" result="shape"/>
            <feGaussianBlur stdDeviation="5" result="effect1_foregroundBlur_635_1135"/>
        </filter>
        <clipPath id="clip0_635_1135">
            <rect width="49.4615" height="49.4615" fill="white" transform="translate(0.5)"/>
        </clipPath>
        <clipPath id="clip1_635_1135">
            <rect width="49.4615" height="49.4615" fill="white" transform="translate(0.5)"/>
        </clipPath>
    </defs>
</svg>
