<svg width="90" height="90" viewBox="0 0 90 90" fill="none" xmlns="http://www.w3.org/2000/svg">
    <g>
        <path
            d="M81.4604 18.9961C81.4604 23.2545 81.4774 27.5108 81.4498 31.7692C81.4434 32.9296 81.7561 33.8942 82.558 34.7608C87.6973 40.3116 87.0868 49.2607 80.6861 53.9747C75.0279 58.1395 70.3949 63.4007 65.4046 68.2787C62.7924 70.8295 60.3207 73.5357 57.5936 75.9545C51.4717 81.384 41.993 79.917 37.6302 72.9928C37.1878 72.2902 36.668 72.2348 36.071 72.8267C33.0356 75.8608 30.0129 78.9056 26.971 81.9312C19.4877 89.3685 7.19265 86.1683 4.49753 75.9737C3.24676 71.2426 4.34225 66.8692 7.84143 63.3028C12.1128 58.9507 16.4309 54.6412 20.7746 50.3593C22.4955 48.6624 23.2974 46.7141 23.2868 44.2804C23.2357 33.8154 23.2655 23.3482 23.2655 12.8832C23.2655 10.9286 23.5293 10.6581 25.4607 10.6581C32.8675 10.6581 40.2764 10.6581 47.6832 10.6581C49.7146 10.6581 49.9699 10.9094 49.9699 12.9023C49.9699 21.2403 50.0465 29.5783 49.9188 37.9141C49.8869 40.0518 50.9165 41.4401 52.1268 42.8794C52.5267 43.3542 52.8097 43.0157 53.0777 42.7261C54.2987 41.4039 54.7603 39.8134 54.7581 38.0419C54.7496 31.6904 54.756 25.3412 54.756 18.9897C54.756 14.627 54.7539 10.2621 54.756 5.89937C54.756 4.27691 55.0113 4.01289 56.5769 4.01076C64.2687 4.0065 71.9605 4.0065 79.6502 4.01076C81.1733 4.01076 81.454 4.28756 81.4562 5.80568C81.4625 10.2046 81.4562 14.6036 81.4583 19.0025L81.4604 18.9961ZM79.0674 27.3554C79.0674 25.9011 79.0716 24.4469 79.0674 22.9926C79.0631 21.6087 79.044 21.5895 77.6166 21.5895C71.2734 21.5895 64.9302 21.5874 58.5892 21.5895C57.1682 21.5895 57.1491 21.6087 57.1469 23.0012C57.1427 27.8962 57.1257 32.7912 57.1533 37.6842C57.1682 40.5671 56.2067 42.9752 54.1242 45.0171C49.821 49.2351 45.5837 53.5212 41.3379 57.7966C38.3598 60.7946 37.1686 64.4291 38.2365 68.5129C40.4636 77.0362 50.5889 79.7019 56.83 73.4932C60.6759 69.667 64.5239 65.8472 68.3252 61.9763C71.8818 58.3545 75.6043 54.9371 79.6162 51.8157C84.4597 48.0449 85.0723 41.2016 81.0307 36.6281C79.6502 35.0652 79.0418 33.3235 79.0652 31.2902C79.0823 29.9786 79.0674 28.6648 79.0674 27.3533V27.3554ZM36.656 28.4285C33.4652 28.4285 30.2766 28.4285 27.0859 28.4285C25.6692 28.4285 25.6628 28.4328 25.6607 29.8444C25.6586 34.5627 25.6437 39.2811 25.6649 43.9994C25.6798 47.1698 24.6822 49.8334 22.3423 52.0925C17.9561 56.3296 13.6635 60.6647 9.4049 65.0296C5.27608 69.2603 5.39945 76.21 9.58145 80.4131C13.7209 84.5714 20.6725 84.7545 24.8736 80.7048C28.4728 77.2342 31.955 73.6443 35.4946 70.1162C35.8753 69.7351 36.02 69.3731 35.8945 68.7961C34.8415 63.933 36.1731 59.7449 39.6191 56.2253C42.8205 52.957 46.0772 49.7461 49.3105 46.5119C50.8527 44.9682 50.9229 44.9043 49.419 43.2606C48.0278 41.7382 47.5237 40.0114 47.5619 38.0057C47.6151 35.2398 47.5449 32.4719 47.5917 29.7039C47.6066 28.7564 47.3365 28.3902 46.3282 28.4072C43.1034 28.4647 39.8786 28.4285 36.6539 28.4285H36.656ZM36.5496 19.1324C39.8403 19.1324 43.1332 19.109 46.4239 19.1473C47.3088 19.1579 47.6236 18.8471 47.5917 17.9762C47.5428 16.6668 47.5598 15.3552 47.5832 14.0436C47.596 13.3154 47.2833 13.0067 46.5643 13.0429C46.0346 13.0684 45.5029 13.045 44.9711 13.045C38.9895 13.045 33.0079 13.0684 27.0263 13.0237C25.9436 13.0152 25.5735 13.3729 25.6415 14.4332C25.7139 15.5979 25.7053 16.7732 25.6437 17.9379C25.5947 18.8833 25.9734 19.1579 26.8859 19.1452C30.1064 19.1026 33.327 19.1281 36.5475 19.1281L36.5496 19.1324ZM68.0997 6.27198C64.8069 6.27198 61.5119 6.28688 58.219 6.26133C57.4554 6.25495 57.115 6.50406 57.1384 7.30039C57.1746 8.57578 57.1703 9.8533 57.1384 11.1287C57.1193 11.9165 57.4724 12.2103 58.2275 12.1827C59.0401 12.1528 59.857 12.1784 60.6717 12.1784C66.3746 12.1784 72.0754 12.1635 77.7783 12.1933C78.7377 12.1976 79.1333 11.8867 79.0801 10.9051C79.0206 9.80859 79.0163 8.70566 79.0801 7.60912C79.1397 6.61265 78.8164 6.23152 77.7655 6.25069C74.5429 6.30818 71.3202 6.27198 68.0976 6.27198H68.0997ZM36.5964 26.1545C39.8893 26.1545 43.1842 26.1332 46.4771 26.1694C47.3131 26.1779 47.63 25.8756 47.5875 25.0537C47.5449 24.2404 47.5343 23.4206 47.5917 22.6094C47.6577 21.6789 47.3003 21.3744 46.3686 21.3872C43.146 21.4341 39.9233 21.4042 36.7007 21.4042C33.4078 21.4042 30.1128 21.4277 26.82 21.3893C25.9351 21.3787 25.599 21.6832 25.6522 22.5583C25.7011 23.3716 25.7011 24.1914 25.6522 25.0026C25.599 25.8777 25.9393 26.1822 26.8221 26.1715C30.0809 26.1311 33.3397 26.1566 36.5964 26.1545ZM68.1018 14.5695C64.809 14.5695 61.514 14.5844 58.2212 14.5589C57.4596 14.5525 57.1023 14.8037 57.1406 15.5979C57.1767 16.341 57.1406 17.0862 57.1469 17.8314C57.1576 19.1345 57.2086 19.192 58.5466 19.192C63.3264 19.1963 68.1082 19.192 72.888 19.192C74.5876 19.192 76.2872 19.1728 77.9868 19.1984C78.7483 19.2112 79.1035 18.9216 79.0695 18.138C79.0397 17.4312 79.0695 16.72 79.0652 16.011C79.0589 14.5865 79.044 14.5674 77.6613 14.5652C74.4748 14.561 71.2862 14.5652 68.0997 14.5652L68.1018 14.5695Z"
            fill="white" fill-opacity="0.6" />
    </g>
    <g>
        <g filter="url(#filter0_f_2035_11044)">
            <path
                d="M81.4604 18.9961C81.4604 23.2545 81.4774 27.5108 81.4498 31.7692C81.4434 32.9296 81.7561 33.8942 82.558 34.7608C87.6973 40.3116 87.0868 49.2607 80.6861 53.9747C75.0279 58.1395 70.3949 63.4007 65.4046 68.2787C62.7924 70.8295 60.3207 73.5357 57.5936 75.9545C51.4717 81.384 41.993 79.917 37.6302 72.9928C37.1878 72.2902 36.668 72.2348 36.071 72.8267C33.0356 75.8608 30.0129 78.9056 26.971 81.9312C19.4877 89.3685 7.19265 86.1683 4.49753 75.9737C3.24676 71.2426 4.34225 66.8692 7.84143 63.3028C12.1128 58.9507 16.4309 54.6412 20.7746 50.3593C22.4955 48.6624 23.2974 46.7141 23.2868 44.2804C23.2357 33.8154 23.2655 23.3482 23.2655 12.8832C23.2655 10.9286 23.5293 10.6581 25.4607 10.6581C32.8675 10.6581 40.2764 10.6581 47.6832 10.6581C49.7146 10.6581 49.9699 10.9094 49.9699 12.9023C49.9699 21.2403 50.0465 29.5783 49.9188 37.9141C49.8869 40.0518 50.9165 41.4401 52.1268 42.8794C52.5267 43.3542 52.8097 43.0157 53.0777 42.7261C54.2987 41.4039 54.7603 39.8134 54.7581 38.0419C54.7496 31.6904 54.756 25.3412 54.756 18.9897C54.756 14.627 54.7539 10.2621 54.756 5.89937C54.756 4.27691 55.0113 4.01289 56.5769 4.01076C64.2687 4.0065 71.9605 4.0065 79.6502 4.01076C81.1733 4.01076 81.454 4.28756 81.4562 5.80568C81.4625 10.2046 81.4562 14.6036 81.4583 19.0025L81.4604 18.9961ZM79.0674 27.3554C79.0674 25.9011 79.0716 24.4469 79.0674 22.9926C79.0631 21.6087 79.044 21.5895 77.6166 21.5895C71.2734 21.5895 64.9302 21.5874 58.5892 21.5895C57.1682 21.5895 57.1491 21.6087 57.1469 23.0012C57.1427 27.8962 57.1257 32.7912 57.1533 37.6842C57.1682 40.5671 56.2067 42.9752 54.1242 45.0171C49.821 49.2351 45.5837 53.5212 41.3379 57.7966C38.3598 60.7946 37.1686 64.4291 38.2365 68.5129C40.4636 77.0362 50.5889 79.7019 56.83 73.4932C60.6759 69.667 64.5239 65.8472 68.3252 61.9763C71.8818 58.3545 75.6043 54.9371 79.6162 51.8157C84.4597 48.0449 85.0723 41.2016 81.0307 36.6281C79.6502 35.0652 79.0418 33.3235 79.0652 31.2902C79.0823 29.9786 79.0674 28.6648 79.0674 27.3533V27.3554ZM36.656 28.4285C33.4652 28.4285 30.2766 28.4285 27.0859 28.4285C25.6692 28.4285 25.6628 28.4328 25.6607 29.8444C25.6586 34.5627 25.6437 39.2811 25.6649 43.9994C25.6798 47.1698 24.6822 49.8334 22.3423 52.0925C17.9561 56.3296 13.6635 60.6647 9.4049 65.0296C5.27608 69.2603 5.39945 76.21 9.58145 80.4131C13.7209 84.5714 20.6725 84.7545 24.8736 80.7048C28.4728 77.2342 31.955 73.6443 35.4946 70.1162C35.8753 69.7351 36.02 69.3731 35.8945 68.7961C34.8415 63.933 36.1731 59.7449 39.6191 56.2253C42.8205 52.957 46.0772 49.7461 49.3105 46.5119C50.8527 44.9682 50.9229 44.9043 49.419 43.2606C48.0278 41.7382 47.5237 40.0114 47.5619 38.0057C47.6151 35.2398 47.5449 32.4719 47.5917 29.7039C47.6066 28.7564 47.3365 28.3902 46.3282 28.4072C43.1034 28.4647 39.8786 28.4285 36.6539 28.4285H36.656ZM36.5496 19.1324C39.8403 19.1324 43.1332 19.109 46.4239 19.1473C47.3088 19.1579 47.6236 18.8471 47.5917 17.9762C47.5428 16.6668 47.5598 15.3552 47.5832 14.0436C47.596 13.3154 47.2833 13.0067 46.5643 13.0429C46.0346 13.0684 45.5029 13.045 44.9711 13.045C38.9895 13.045 33.0079 13.0684 27.0263 13.0237C25.9436 13.0152 25.5735 13.3729 25.6415 14.4332C25.7139 15.5979 25.7053 16.7732 25.6437 17.9379C25.5947 18.8833 25.9734 19.1579 26.8859 19.1452C30.1064 19.1026 33.327 19.1281 36.5475 19.1281L36.5496 19.1324ZM68.0997 6.27198C64.8069 6.27198 61.5119 6.28688 58.219 6.26133C57.4554 6.25495 57.115 6.50406 57.1384 7.30039C57.1746 8.57578 57.1703 9.8533 57.1384 11.1287C57.1193 11.9165 57.4724 12.2103 58.2275 12.1827C59.0401 12.1528 59.857 12.1784 60.6717 12.1784C66.3746 12.1784 72.0754 12.1635 77.7783 12.1933C78.7377 12.1976 79.1333 11.8867 79.0801 10.9051C79.0206 9.80859 79.0163 8.70566 79.0801 7.60912C79.1397 6.61265 78.8164 6.23152 77.7655 6.25069C74.5429 6.30818 71.3202 6.27198 68.0976 6.27198H68.0997ZM36.5964 26.1545C39.8893 26.1545 43.1842 26.1332 46.4771 26.1694C47.3131 26.1779 47.63 25.8756 47.5875 25.0537C47.5449 24.2404 47.5343 23.4206 47.5917 22.6094C47.6577 21.6789 47.3003 21.3744 46.3686 21.3872C43.146 21.4341 39.9233 21.4042 36.7007 21.4042C33.4078 21.4042 30.1128 21.4277 26.82 21.3893C25.9351 21.3787 25.599 21.6832 25.6522 22.5583C25.7011 23.3716 25.7011 24.1914 25.6522 25.0026C25.599 25.8777 25.9393 26.1822 26.8221 26.1715C30.0809 26.1311 33.3397 26.1566 36.5964 26.1545ZM68.1018 14.5695C64.809 14.5695 61.514 14.5844 58.2212 14.5589C57.4596 14.5525 57.1023 14.8037 57.1406 15.5979C57.1767 16.341 57.1406 17.0862 57.1469 17.8314C57.1576 19.1345 57.2086 19.192 58.5466 19.192C63.3264 19.1963 68.1082 19.192 72.888 19.192C74.5876 19.192 76.2872 19.1728 77.9868 19.1984C78.7483 19.2112 79.1035 18.9216 79.0695 18.138C79.0397 17.4312 79.0695 16.72 79.0652 16.011C79.0589 14.5865 79.044 14.5674 77.6613 14.5652C74.4748 14.561 71.2862 14.5652 68.0997 14.5652L68.1018 14.5695Z"
                fill="#FE5000" />
        </g>
    </g>
    <defs>
        <filter id="filter0_f_2035_11044" x="-11.0015" y="-10.9924" width="112.001" height="111.995"
            filterUnits="userSpaceOnUse" color-interpolation-filters="sRGB">
            <feFlood flood-opacity="0" result="BackgroundImageFix" />
            <feBlend mode="normal" in="SourceGraphic" in2="BackgroundImageFix" result="shape" />
            <feGaussianBlur stdDeviation="7.5" result="effect1_foregroundBlur_2035_11044" />
        </filter>

    </defs>
</svg>