<svg width="92" height="88" viewBox="0 0 92 88" fill="none" xmlns="http://www.w3.org/2000/svg">
<g filter="url(#filter0_f_900_488)">
<path d="M65.0877 55.3089H65.21V54.9837C65.1771 55.0917 65.1371 55.2009 65.0877 55.3089ZM27.7197 54.4576V55.3089H27.9582C27.8301 55.0259 27.7514 54.7418 27.7197 54.4576ZM55.0982 22.9589C51.5689 22.2755 47.6189 22.0606 44.0226 22.2356C40.3712 22.4129 36.3906 23.0552 32.9706 24.3434C30.2182 25.3803 26.4187 27.4024 26.1777 30.7091V54.4388C26.4093 57.1032 29.177 58.9868 31.3923 60.033C39.3675 63.7978 53.6573 63.7813 61.6372 60.033C63.7268 59.0513 66.5439 57.1455 66.8341 54.656L66.8506 30.5929C66.4498 25.9745 58.8707 23.6905 55.0982 22.9589ZM65.21 54.9837C65.1771 55.0917 65.1371 55.2009 65.0877 55.3089C64.6517 56.3 63.6034 57.3111 61.7782 58.2951C54.2438 62.3581 38.7869 62.3581 31.2513 58.2951C29.5002 57.351 28.4154 56.3364 27.9582 55.3089C27.8301 55.0259 27.7514 54.7418 27.7197 54.4576C27.6985 54.2638 27.6985 54.0701 27.7197 53.8763V50.7269C27.7197 50.7269 27.7138 50.7328 27.7103 50.7352V34.2954C28.8502 35.2723 30.0643 36.1084 31.4287 36.7449C39.4039 40.4591 53.6303 40.4838 61.5996 36.7449C62.9641 36.1049 64.1804 35.2747 65.3181 34.2954V50.7352C65.2816 50.7035 65.2464 50.6717 65.21 50.6412V53.4137C65.3674 53.9245 65.3757 54.4506 65.21 54.9837ZM63.1239 34.158C55.9866 39.3259 37.9513 39.1791 30.5402 34.5795C27.6127 32.7629 26.4328 30.4226 29.4719 27.8944C32.7803 25.1419 39.4498 23.9653 43.6701 23.7621C48.8858 23.5097 54.688 23.8831 59.5888 25.7525C63.44 27.2227 68.2421 30.4531 63.1239 34.158Z" fill="#00865B"/>
<path d="M47.7234 48.2753V54.9776C47.7234 55.079 47.5058 55.5354 47.4341 55.6435C45.8803 57.9637 40.9259 56.7354 41.8402 54.0807C42.4067 52.4366 45.0669 52.0073 46.5149 52.8682V42.8813C46.5149 42.8677 46.6511 42.6863 46.6803 42.6604C46.8833 42.4812 47.259 42.4655 47.4827 42.6187C47.7441 42.7979 47.704 43.0199 47.8256 43.2723C48.6 44.8926 50.752 45.3411 51.7854 46.7338C52.6669 47.9215 52.6487 49.2838 52.1575 50.6112C52.0006 51.0338 51.456 52.0817 51.0888 52.3454C50.5392 52.7409 49.783 52.1775 50.1891 51.5487C50.4104 51.2073 50.4894 51.3504 50.3557 50.8602C50.0371 49.6962 48.9453 48.6528 47.7259 48.2764L47.7234 48.2753Z" fill="#00865B"/>
</g>
<g clip-path="url(#clip0_900_488)">
<path d="M67.9839 56.4504H68.122V56.0827C68.0848 56.2048 68.0397 56.3283 67.9839 56.4504ZM25.743 55.488V56.4504H26.0127C25.8679 56.1305 25.7789 55.8093 25.743 55.488ZM56.6916 19.8823C52.7022 19.1098 48.2371 18.8668 44.1719 19.0646C40.0442 19.2651 35.5446 19.9911 31.6787 21.4473C28.5674 22.6194 24.2723 24.9051 24 28.643V55.4668C24.2617 58.4786 27.3903 60.6078 29.8945 61.7905C38.9097 66.0461 55.0629 66.0275 64.0834 61.7905C66.4455 60.6808 69.6299 58.5264 69.958 55.7124L69.9766 28.5116C69.5236 23.291 60.9561 20.7093 56.6916 19.8823ZM68.122 56.0827C68.0848 56.2048 68.0397 56.3283 67.9839 56.4504C67.491 57.5707 66.306 58.7136 64.2428 59.8259C55.7258 64.4187 38.2534 64.4187 29.7351 59.8259C27.7557 58.7587 26.5295 57.6119 26.0127 56.4504C25.8679 56.1305 25.7789 55.8093 25.743 55.488C25.7191 55.269 25.7191 55.05 25.743 54.831V51.2709C25.743 51.2709 25.7363 51.2776 25.7324 51.2802V32.6969C27.021 33.8012 28.3933 34.7463 29.9357 35.4658C38.9509 39.6643 55.0323 39.6922 64.0409 35.4658C65.5833 34.7424 66.9583 33.8039 68.2442 32.6969V51.2802C68.2031 51.2444 68.1632 51.2086 68.122 51.174V54.308C68.3 54.8854 68.3093 55.4801 68.122 56.0827ZM65.7639 32.5416C57.696 38.3834 37.3089 38.2174 28.9314 33.0181C25.6221 30.9646 24.2883 28.3191 27.7238 25.4613C31.4635 22.3499 39.0027 21.0199 43.7733 20.7902C49.6692 20.5048 56.228 20.9269 61.7678 23.0401C66.1213 24.702 71.5495 28.3537 65.7639 32.5416Z" fill="white" fill-opacity="0.6"/>
<path d="M47.9246 48.448V56.3433C47.9246 56.4627 47.6868 57.0003 47.6085 57.1277C45.9106 59.8608 40.497 58.414 41.496 55.2867C42.1151 53.35 45.0219 52.8443 46.6041 53.8584V42.0938C46.6041 42.0779 46.7529 41.8642 46.7848 41.8336C47.0066 41.6226 47.4172 41.604 47.6616 41.7845C47.9472 41.9956 47.9034 42.2571 48.0362 42.5544C48.8825 44.4632 51.2339 44.9915 52.3631 46.6321C53.3263 48.0312 53.3064 49.636 52.7697 51.1996C52.5983 51.6974 52.0031 52.9319 51.6019 53.2425C51.0014 53.7084 50.1751 53.0447 50.6188 52.304C50.8606 51.9018 50.947 52.0704 50.8008 51.493C50.4528 50.1218 49.2598 48.8927 47.9273 48.4493L47.9246 48.448Z" fill="white" fill-opacity="0.6"/>
</g>
<defs>
<filter id="filter0_f_900_488" x="9" y="5" width="75" height="75" filterUnits="userSpaceOnUse" color-interpolation-filters="sRGB">
<feFlood flood-opacity="0" result="BackgroundImageFix"/>
<feBlend mode="normal" in="SourceGraphic" in2="BackgroundImageFix" result="shape"/>
<feGaussianBlur stdDeviation="5" result="effect1_foregroundBlur_900_488"/>
</filter>
<clipPath id="clip0_900_488">
<rect width="45.9766" height="45.9766" fill="white" transform="translate(24 19)"/>
</clipPath>
</defs>
</svg>
