<svg width="66" height="66" viewBox="0 0 66 66" fill="none" xmlns="http://www.w3.org/2000/svg">
    <g clip-path="url(#clip0_897_466)" filter="url(#filter0_f_897_466)">
        <path d="M53.9839 47.4504H54.122V47.0827C54.0848 47.2048 54.0396 47.3283 53.9839 47.4504ZM11.743 46.488V47.4504H12.0127C11.8679 47.1305 11.7789 46.8093 11.743 46.488ZM42.6916 10.8823C38.7022 10.1098 34.2371 9.86684 30.1719 10.0646C26.0443 10.2651 21.5446 10.9911 17.6787 12.4473C14.5674 13.6194 10.2723 15.9051 10 19.643V46.4668C10.2617 49.4786 13.3903 51.6078 15.8945 52.7905C24.9097 57.0461 41.0629 57.0275 50.0834 52.7905C52.4455 51.6808 55.6299 49.5264 55.958 46.7124L55.9766 19.5116C55.5236 14.291 46.9561 11.7093 42.6916 10.8823ZM54.122 47.0827C54.0848 47.2048 54.0396 47.3283 53.9839 47.4504C53.491 48.5707 52.306 49.7136 50.2428 50.8259C41.7258 55.4187 24.2534 55.4187 15.7351 50.8259C13.7557 49.7587 12.5295 48.6119 12.0127 47.4504C11.8679 47.1305 11.7789 46.8093 11.743 46.488C11.7191 46.269 11.7191 46.05 11.743 45.831V42.2709C11.743 42.2709 11.7363 42.2776 11.7324 42.2802V23.6969C13.021 24.8012 14.3933 25.7463 15.9357 26.4658C24.9509 30.6643 41.0323 30.6922 50.0409 26.4658C51.5833 25.7424 52.9583 24.8039 54.2442 23.6969V42.2802C54.2031 42.2444 54.1632 42.2086 54.122 42.174V45.308C54.3 45.8854 54.3093 46.4801 54.122 47.0827ZM51.7639 23.5416C43.696 29.3834 23.3089 29.2174 14.9314 24.0181C11.6221 21.9646 10.2883 19.3191 13.7238 16.4613C17.4635 13.3499 25.0027 12.0199 29.7733 11.7902C35.6692 11.5048 42.228 11.9269 47.7678 14.0401C52.1213 15.702 57.5495 19.3537 51.7639 23.5416Z" fill="#00865B"/>
        <path d="M33.9246 39.448V47.3433C33.9246 47.4627 33.6868 48.0003 33.6085 48.1277C31.9106 50.8608 26.497 49.414 27.496 46.2867C28.1151 44.35 31.0219 43.8443 32.6041 44.8584V33.0938C32.6041 33.0779 32.7529 32.8642 32.7848 32.8336C33.0066 32.6226 33.4172 32.604 33.6616 32.7845C33.9472 32.9956 33.9034 33.2571 34.0362 33.5544C34.8825 35.4632 37.2339 35.9915 38.3631 37.6321C39.3263 39.0312 39.3064 40.636 38.7697 42.1996C38.5983 42.6974 38.0031 43.9319 37.6019 44.2425C37.0014 44.7084 36.1751 44.0447 36.6188 43.304C36.8606 42.9018 36.947 43.0704 36.8008 42.493C36.4528 41.1218 35.2598 39.8927 33.9273 39.4493L33.9246 39.448Z" fill="#00865B"/>
    </g>
    <g clip-path="url(#clip1_897_466)">
        <path d="M53.9839 47.4504H54.122V47.0827C54.0848 47.2048 54.0396 47.3283 53.9839 47.4504ZM11.743 46.488V47.4504H12.0127C11.8679 47.1305 11.7789 46.8093 11.743 46.488ZM42.6916 10.8823C38.7022 10.1098 34.2371 9.86684 30.1719 10.0646C26.0443 10.2651 21.5446 10.9911 17.6787 12.4473C14.5674 13.6194 10.2723 15.9051 10 19.643V46.4668C10.2617 49.4786 13.3903 51.6078 15.8945 52.7905C24.9097 57.0461 41.0629 57.0275 50.0834 52.7905C52.4455 51.6808 55.6299 49.5264 55.958 46.7124L55.9766 19.5116C55.5236 14.291 46.9561 11.7093 42.6916 10.8823ZM54.122 47.0827C54.0848 47.2048 54.0396 47.3283 53.9839 47.4504C53.491 48.5707 52.306 49.7136 50.2428 50.8259C41.7258 55.4187 24.2534 55.4187 15.7351 50.8259C13.7557 49.7587 12.5295 48.6119 12.0127 47.4504C11.8679 47.1305 11.7789 46.8093 11.743 46.488C11.7191 46.269 11.7191 46.05 11.743 45.831V42.2709C11.743 42.2709 11.7363 42.2776 11.7324 42.2802V23.6969C13.021 24.8012 14.3933 25.7463 15.9357 26.4658C24.9509 30.6643 41.0323 30.6922 50.0409 26.4658C51.5833 25.7424 52.9583 24.8039 54.2442 23.6969V42.2802C54.2031 42.2444 54.1632 42.2086 54.122 42.174V45.308C54.3 45.8854 54.3093 46.4801 54.122 47.0827ZM51.7639 23.5416C43.696 29.3834 23.3089 29.2174 14.9314 24.0181C11.6221 21.9646 10.2883 19.3191 13.7238 16.4613C17.4635 13.3499 25.0027 12.0199 29.7733 11.7902C35.6692 11.5048 42.228 11.9269 47.7678 14.0401C52.1213 15.702 57.5495 19.3537 51.7639 23.5416Z" fill="white" fill-opacity="0.6"/>
        <path d="M33.9246 39.448V47.3433C33.9246 47.4627 33.6868 48.0003 33.6085 48.1277C31.9106 50.8608 26.497 49.414 27.496 46.2867C28.1151 44.35 31.0219 43.8443 32.6041 44.8584V33.0938C32.6041 33.0779 32.7529 32.8642 32.7848 32.8336C33.0066 32.6226 33.4172 32.604 33.6616 32.7845C33.9472 32.9956 33.9034 33.2571 34.0362 33.5544C34.8825 35.4632 37.2339 35.9915 38.3631 37.6321C39.3263 39.0312 39.3064 40.636 38.7697 42.1996C38.5983 42.6974 38.0031 43.9319 37.6019 44.2425C37.0014 44.7084 36.1751 44.0447 36.6188 43.304C36.8606 42.9018 36.947 43.0704 36.8008 42.493C36.4528 41.1218 35.2598 39.8927 33.9273 39.4493L33.9246 39.448Z" fill="white" fill-opacity="0.6"/>
    </g>
    <defs>
        <filter id="filter0_f_897_466" x="0" y="0" width="65.9766" height="65.9766" filterUnits="userSpaceOnUse" color-interpolation-filters="sRGB">
            <feFlood flood-opacity="0" result="BackgroundImageFix"/>
            <feBlend mode="normal" in="SourceGraphic" in2="BackgroundImageFix" result="shape"/>
            <feGaussianBlur stdDeviation="5" result="effect1_foregroundBlur_897_466"/>
        </filter>
        <clipPath id="clip0_897_466">
            <rect width="45.9766" height="45.9766" fill="white" transform="translate(10 10)"/>
        </clipPath>
        <clipPath id="clip1_897_466">
            <rect width="45.9766" height="45.9766" fill="white" transform="translate(10 10)"/>
        </clipPath>
    </defs>
</svg>
