<svg width="90" height="90" viewBox="0 0 90 90" fill="none" xmlns="http://www.w3.org/2000/svg" overflow="visible">
    <g>
        <g filter="url(#filter0_f_2035_11044)">
            <path
                d="M70.602 44.0692C69.8193 46.3086 69.0346 48.548 68.254 50.7894C65.8717 57.6241 63.5096 64.465 61.0972 71.2897C60.1134 74.0703 57.4052 75.9777 54.4496 75.9817C41.2387 75.9998 28.0279 76.0018 14.8171 75.9817C11.4268 75.9777 9.79106 73.6719 10.9017 70.4507C14.2416 60.7568 17.6238 51.0751 20.9859 41.3893C23.4808 34.2044 25.9998 27.0255 28.4524 19.8266C29.8125 15.8428 32.2612 14.0018 36.4582 14.0018C49.1318 14.0018 61.8075 14.0018 74.4811 14.0018C74.8835 14.0018 75.2879 13.9877 75.6883 14.0159C78.4065 14.207 80.0141 16.2794 79.2536 18.887C78.4287 21.7138 77.3804 24.4763 76.4207 27.265C75.0364 31.289 73.622 35.3029 72.2679 39.337C71.8514 40.5804 72.4731 41.7856 72.7025 42.9747C74.4389 51.9885 76.2497 60.9882 78.0404 69.992C78.2174 70.8792 78.4387 71.7585 78.5776 72.6518C78.8975 74.7202 77.8653 75.9535 75.7406 75.9777C72.4892 76.0139 69.2358 75.9897 65.9824 75.9857C65.2661 75.9857 64.5237 75.8489 64.5136 74.9837C64.5016 74.0301 65.3023 73.9516 66.0407 73.9496C69.1594 73.9435 72.278 73.9496 75.3966 73.9435C76.7265 73.9415 76.811 73.7886 76.5454 72.4546C74.9781 64.5676 73.4268 56.6785 71.8635 48.7894C71.5516 47.218 71.2096 45.6547 70.8816 44.0853C70.7891 44.0793 70.6985 44.0713 70.606 44.0652L70.602 44.0692ZM34.6776 73.9476C41.281 73.9476 47.8864 73.9556 54.4898 73.9435C56.6869 73.9395 58.546 72.6418 59.2663 70.5875C61.727 63.5696 64.1696 56.5437 66.6122 49.5178C70.101 39.4859 73.5818 29.452 77.0686 19.4201C77.2114 19.0057 77.3442 18.5972 77.3683 18.1546C77.4488 16.6858 76.9378 16.1144 75.475 16.0661C75.2075 16.0581 74.9378 16.0621 74.6702 16.0621C61.8296 16.0621 48.991 16.0621 36.1504 16.0621C33.074 16.0621 31.5187 17.1184 30.4946 20.0258C28.3498 26.1262 26.2412 32.2386 24.1166 38.3471C21.9818 44.4857 19.8451 50.6244 17.7103 56.765C16.0927 61.4168 14.467 66.0665 12.8694 70.7263C12.0827 73.024 12.7547 73.9455 15.1591 73.9476C21.6619 73.9496 28.1667 73.9476 34.6695 73.9476H34.6776Z"
                fill="#5506F9" />
            <path
                d="M35.0055 72.4368C32.06 72.4368 29.1164 72.4368 26.1708 72.4368C25.9032 72.4368 25.6356 72.4388 25.368 72.4247C24.7523 72.3925 24.3177 72.1189 24.3278 71.4549C24.3379 70.7849 24.8026 70.5495 25.4062 70.5173C25.539 70.5093 25.6738 70.5093 25.8086 70.5093C32.0338 70.5093 38.2569 70.5093 44.4821 70.5093C44.6491 70.5093 44.8181 70.5093 44.9831 70.5294C45.5605 70.5958 45.9247 70.9097 45.9287 71.5012C45.9307 72.1249 45.5042 72.3684 44.9448 72.4187C44.6451 72.4448 44.3433 72.4348 44.0415 72.4348C41.0295 72.4348 38.0175 72.4348 35.0055 72.4348V72.4368Z"
                fill="#5506F9" />
            <path
                d="M46.2203 41.5867C46.2344 42.0213 46.003 42.309 45.7414 42.5706C42.8824 45.4337 40.0213 48.2907 37.1602 51.1518C36.6733 51.6387 36.1522 51.856 35.6049 51.2725C35.0939 50.7253 35.3454 50.2323 35.792 49.7877C38.6753 46.9024 41.5585 44.0192 44.4437 41.136C44.7656 40.8141 45.1298 40.5747 45.6066 40.7699C45.9728 40.9208 46.1841 41.2105 46.2203 41.5867Z"
                fill="#5506F9" />
            <path
                d="M53.4417 21.7401C52.0232 21.732 50.9589 20.6778 50.9629 19.2875C50.9669 17.8469 52.0695 16.7624 53.5101 16.7805C54.8581 16.7986 56.0311 17.9394 56.0432 19.2472C56.0553 20.5912 54.8501 21.7481 53.4437 21.7401H53.4417Z"
                fill="#5506F9" />
            <path
                d="M51.1742 43.9044C51.1541 44.3027 50.9207 44.5905 50.6592 44.852C49.3151 46.2021 47.9671 47.5501 46.615 48.8921C46.1422 49.3609 45.5909 49.6386 45.0436 49.0752C44.5185 48.534 44.7278 47.9726 45.2106 47.4877C46.5808 46.1156 47.951 44.7434 49.3252 43.3752C49.6793 43.0211 50.0958 42.8239 50.5948 43.0352C50.965 43.1921 51.1461 43.504 51.1722 43.9044H51.1742Z"
                fill="#5506F9" />
        </g>
        <g>
            <path
                d="M70.602 44.0692C69.8193 46.3086 69.0346 48.548 68.254 50.7894C65.8717 57.6241 63.5096 64.465 61.0972 71.2897C60.1134 74.0703 57.4052 75.9777 54.4496 75.9817C41.2387 75.9998 28.0279 76.0018 14.8171 75.9817C11.4268 75.9777 9.79106 73.6719 10.9017 70.4507C14.2416 60.7568 17.6238 51.0751 20.9859 41.3893C23.4808 34.2044 25.9998 27.0255 28.4524 19.8266C29.8125 15.8428 32.2612 14.0018 36.4582 14.0018C49.1318 14.0018 61.8075 14.0018 74.4811 14.0018C74.8835 14.0018 75.2879 13.9877 75.6883 14.0159C78.4065 14.207 80.0141 16.2794 79.2536 18.887C78.4287 21.7138 77.3804 24.4763 76.4207 27.265C75.0364 31.289 73.622 35.3029 72.2679 39.337C71.8514 40.5804 72.4731 41.7856 72.7025 42.9747C74.4389 51.9885 76.2497 60.9882 78.0404 69.992C78.2174 70.8792 78.4387 71.7585 78.5776 72.6518C78.8975 74.7202 77.8653 75.9535 75.7406 75.9777C72.4892 76.0139 69.2358 75.9897 65.9824 75.9857C65.2661 75.9857 64.5237 75.8489 64.5136 74.9837C64.5016 74.0301 65.3023 73.9516 66.0407 73.9496C69.1594 73.9435 72.278 73.9496 75.3966 73.9435C76.7265 73.9415 76.811 73.7886 76.5454 72.4546C74.9781 64.5676 73.4268 56.6785 71.8635 48.7894C71.5516 47.218 71.2096 45.6547 70.8816 44.0853C70.7891 44.0793 70.6985 44.0713 70.606 44.0652L70.602 44.0692ZM34.6776 73.9476C41.281 73.9476 47.8864 73.9556 54.4898 73.9435C56.6869 73.9395 58.546 72.6418 59.2663 70.5875C61.727 63.5696 64.1696 56.5437 66.6122 49.5178C70.101 39.4859 73.5818 29.452 77.0686 19.4201C77.2114 19.0057 77.3442 18.5972 77.3683 18.1546C77.4488 16.6858 76.9378 16.1144 75.475 16.0661C75.2075 16.0581 74.9378 16.0621 74.6702 16.0621C61.8296 16.0621 48.991 16.0621 36.1504 16.0621C33.074 16.0621 31.5187 17.1184 30.4946 20.0258C28.3498 26.1262 26.2412 32.2386 24.1166 38.3471C21.9818 44.4857 19.8451 50.6244 17.7103 56.765C16.0927 61.4168 14.467 66.0665 12.8694 70.7263C12.0827 73.024 12.7547 73.9455 15.1591 73.9476C21.6619 73.9496 28.1667 73.9476 34.6695 73.9476H34.6776Z"
                fill="white" fill-opacity="0.6" />
            <path
                d="M35.0055 72.4368C32.06 72.4368 29.1164 72.4368 26.1708 72.4368C25.9032 72.4368 25.6356 72.4388 25.368 72.4247C24.7523 72.3925 24.3177 72.1189 24.3278 71.4549C24.3379 70.7849 24.8026 70.5495 25.4062 70.5173C25.539 70.5093 25.6738 70.5093 25.8086 70.5093C32.0338 70.5093 38.2569 70.5093 44.4821 70.5093C44.6491 70.5093 44.8181 70.5093 44.9831 70.5294C45.5605 70.5958 45.9247 70.9097 45.9287 71.5012C45.9307 72.1249 45.5042 72.3684 44.9448 72.4187C44.6451 72.4448 44.3433 72.4348 44.0415 72.4348C41.0295 72.4348 38.0175 72.4348 35.0055 72.4348V72.4368Z"
                fill="white" fill-opacity="0.6" />
            <path
                d="M46.2203 41.5867C46.2344 42.0213 46.003 42.309 45.7414 42.5706C42.8824 45.4337 40.0213 48.2907 37.1602 51.1518C36.6733 51.6387 36.1522 51.856 35.6049 51.2725C35.0939 50.7253 35.3454 50.2323 35.792 49.7877C38.6753 46.9024 41.5585 44.0192 44.4437 41.136C44.7656 40.8141 45.1298 40.5747 45.6066 40.7699C45.9728 40.9208 46.1841 41.2105 46.2203 41.5867Z"
                fill="white" fill-opacity="0.6" />
            <path
                d="M53.4417 21.7401C52.0232 21.732 50.9589 20.6778 50.9629 19.2875C50.9669 17.8469 52.0695 16.7624 53.5101 16.7805C54.8581 16.7986 56.0311 17.9394 56.0432 19.2472C56.0553 20.5912 54.8501 21.7481 53.4437 21.7401H53.4417Z"
                fill="white" fill-opacity="0.6" />
            <path
                d="M51.1742 43.9044C51.1541 44.3027 50.9207 44.5905 50.6592 44.852C49.3151 46.2021 47.9671 47.5501 46.615 48.8921C46.1422 49.3609 45.5909 49.6386 45.0436 49.0752C44.5185 48.534 44.7278 47.9726 45.2106 47.4877C46.5808 46.1156 47.951 44.7434 49.3252 43.3752C49.6793 43.0211 50.0958 42.8239 50.5948 43.0352C50.965 43.1921 51.1461 43.504 51.1722 43.9044H51.1742Z"
                fill="white" fill-opacity="0.6" />
        </g>
    </g>
    <defs>
        <filter id="filter0_f_2035_11044" x="-4.44238" y="-1" width="98.8853" height="92" filterUnits="userSpaceOnUse"
            color-interpolation-filters="sRGB">
            <feFlood flood-opacity="0" result="BackgroundImageFix" />
            <feBlend mode="normal" in="SourceGraphic" in2="BackgroundImageFix" result="shape" />
            <feGaussianBlur stdDeviation="7.5" result="effect1_foregroundBlur_2035_11044" />
        </filter>

    </defs>
</svg>