<svg width="90" height="90" viewBox="0 0 90 90" fill="none" xmlns="http://www.w3.org/2000/svg" overflow="visible">
    <g>
        <g filter="url(#filter0_f_2035_11044)">
            <path
                d="M63.967 70.0812C63.2784 71.868 63.0091 73.6048 62.7476 75.3454C62.3552 77.9476 62.3456 77.9457 59.7606 77.9457C49.6959 77.9457 39.6311 77.9457 29.5663 77.9457C27.9257 77.9457 27.8046 77.8534 27.4699 76.2436C27.1372 74.6453 27.0179 73.0047 26.5313 71.4372C26.4005 71.0179 26.264 70.6005 26.0909 70.0581C25.1215 73.6355 24.3849 77.1091 23.7463 80.6057C23.5194 81.8424 23.3424 81.9866 22.1019 81.9905C19.6016 81.9962 17.1012 82.0001 14.6009 81.9866C13.5296 81.9808 13.22 81.6808 13.2277 80.5999C13.2681 74.4145 12.7334 68.2425 12.8815 62.0552C13.1392 51.2788 13.9104 40.5562 16.2723 30.0068C17.2397 25.6889 18.4668 21.4461 20.2613 17.3801C20.819 16.1165 21.7365 15.2337 22.7866 14.4278C26.2755 11.7525 30.1683 9.81762 34.2362 8.20779C34.7535 8.00392 35.294 7.87121 35.8094 8.19433C37.6578 9.35794 39.735 9.75799 41.8564 9.87532C45.2164 10.0619 48.5823 10.185 51.8788 9.23869C52.5943 9.0329 53.2886 8.78479 53.9022 8.37512C54.5657 7.93083 55.2139 7.9443 55.9044 8.24818C60.378 10.2081 64.7074 12.4122 68.5079 15.5414C69.1157 16.0415 69.4196 16.682 69.7158 17.3513C72.4565 23.5213 73.9606 30.0337 75.0492 36.6576C76.2455 43.9374 76.7917 51.2749 77.0436 58.647C77.2398 64.3536 77.1398 70.0466 76.8494 75.7435C76.7686 77.3418 76.8379 78.9478 76.8205 80.5499C76.809 81.6885 76.5244 81.9808 75.3954 81.9847C72.8623 81.9962 70.3312 81.9693 67.7982 81.9982C66.8943 82.0078 66.4577 81.6289 66.3076 80.7461C65.7076 77.2091 64.9305 73.7067 63.9631 70.0793L63.967 70.0812ZM44.9953 70.9583C49.994 70.9583 54.9927 70.9583 59.9914 70.9583C61.5109 70.9583 61.4936 70.9525 61.8551 69.5331C63.0803 64.7248 63.5188 59.8222 63.6092 54.8831C63.6861 50.6556 63.5727 46.4281 63.2515 42.2122C62.8533 37.0096 62.4225 31.8109 61.9802 26.614C61.6493 22.7212 62.2129 19.1746 65.6633 16.6935C66.3076 16.23 65.8614 15.9665 65.4806 15.703C62.6764 13.7643 59.651 12.2333 56.5448 10.8466C56.0121 10.6081 55.739 10.712 55.5409 11.2755C54.8562 13.2315 53.5675 14.7279 51.7884 15.7357C50.7575 16.3204 49.944 17.1013 49.1612 17.9456C48.1572 19.0246 47.1571 20.1055 46.1646 21.1941C45.328 22.1115 44.7145 22.1 43.8566 21.1633C42.645 19.842 41.4198 18.5303 40.1927 17.2224C39.8215 16.8262 39.4599 16.4262 38.9618 16.1646C36.8788 15.0664 35.2882 13.5008 34.4862 11.239C34.3035 10.7254 34.0535 10.6062 33.5534 10.8274C30.4145 12.2199 27.366 13.7739 24.5291 15.7222C23.9964 16.0877 23.906 16.3627 24.4868 16.7839C27.0814 18.6745 28.1315 21.3191 28.1354 24.4464C28.1373 26.7871 27.8065 29.1067 27.6353 31.4377C27.3314 35.5864 26.841 39.7273 26.6621 43.8797C26.4698 48.3553 26.3024 52.8347 26.5255 57.3257C26.7371 61.5647 27.2564 65.7364 28.2565 69.8581C28.4643 70.7101 28.8547 70.9833 29.7087 70.9775C34.8035 70.9448 39.8984 70.9621 44.9914 70.9621L44.9953 70.9583ZM15.0548 64.1901C15.0356 68.0329 15.0683 71.1083 15.2222 74.1818C15.2625 75.0011 15.5857 75.2223 16.3377 75.2069C18.0995 75.1742 19.8631 75.1703 21.6268 75.2069C22.3673 75.2223 22.727 74.953 22.8866 74.2221C23.3463 72.1257 23.8117 70.0293 24.3733 67.9598C24.8753 66.1096 25.0677 64.2785 24.8042 62.361C24.3907 59.3452 24.2695 56.3044 24.2503 53.2579C24.2195 48.4169 24.5464 43.5893 24.8619 38.7637C25.0734 35.5383 25.4158 32.3205 25.7178 29.1009C25.8966 27.1853 26.0716 25.2677 25.9351 23.3463C25.7947 21.3999 24.9677 19.7785 23.4098 18.5668C22.4962 17.8571 22.3692 17.8898 21.925 18.9457C21.0056 21.1345 20.2459 23.3809 19.5843 25.6581C17.4513 33.011 16.3473 40.5543 15.7049 48.1553C15.2337 53.7368 14.901 59.3414 15.0568 64.1882L15.0548 64.1901ZM75.0145 63.3842C75.0915 58.8932 74.7491 53.0444 74.2298 47.2013C73.5855 39.9446 72.4507 32.7725 70.4813 25.7485C69.8062 23.3405 68.9657 20.9902 68.0021 18.6803C67.7636 18.1072 67.4751 17.9033 66.9443 18.3495C66.675 18.5764 66.3788 18.7726 66.1249 19.015C64.4362 20.6209 63.9823 22.6577 64.0727 24.8927C64.2958 30.4299 64.9959 35.9306 65.3364 41.4602C65.7556 48.2784 66.0672 55.0793 65.3133 61.8936C65.1806 63.0938 64.8594 64.3132 65.1344 65.5268C65.7999 68.4637 66.5173 71.3872 67.1905 74.3222C67.3385 74.9703 67.6751 75.2165 68.331 75.2069C70.1254 75.18 71.9218 75.1665 73.7144 75.2127C74.5683 75.2357 74.778 74.8876 74.828 74.0837C75.0203 70.9775 74.978 67.8694 75.0165 63.3842H75.0145ZM45.0606 73.1201C40.0985 73.1201 35.1363 73.1162 30.1741 73.1278C29.8452 73.1278 29.3028 72.9662 29.2451 73.3759C29.1394 74.1298 29.3336 74.9107 29.5933 75.6204C29.7664 76.0916 30.3318 75.8839 30.7222 75.8839C40.0715 75.8935 49.4189 75.8954 58.7682 75.8877C60.8146 75.8877 60.353 76.0935 60.7723 74.201C60.9666 73.324 60.7319 73.097 59.853 73.1028C54.9235 73.1374 49.9921 73.1201 45.0626 73.1201H45.0606ZM53.1463 11.3101C47.6956 12.5314 42.3045 12.518 36.7115 11.1524C38.6079 14.2509 41.3967 15.376 44.626 15.4818C48.1572 15.5972 51.1903 14.474 53.1463 11.3101ZM18.7688 77.3629C17.936 77.3629 17.1012 77.3995 16.2704 77.3514C15.5299 77.3091 15.1818 77.561 15.2702 78.3323C15.3029 78.6169 15.2895 78.9093 15.2741 79.1959C15.2452 79.7286 15.4895 79.944 16.0184 79.9402C17.684 79.9267 19.3496 79.9267 21.0171 79.9402C21.5691 79.944 21.8519 79.7075 21.8923 79.1574C21.9115 78.9035 21.9423 78.6439 22.0077 78.3977C22.2058 77.6591 21.9903 77.3091 21.1729 77.3533C20.3748 77.3976 19.5708 77.3629 18.7707 77.3629H18.7688ZM71.3891 77.3629C70.5236 77.3629 69.6581 77.3879 68.7945 77.3552C68.0906 77.3283 67.8617 77.6245 68.0213 78.2881C68.0809 78.5362 68.131 78.792 68.1425 79.0459C68.1694 79.6786 68.4656 79.9537 69.1138 79.944C70.7467 79.919 72.3815 79.9267 74.0163 79.9402C74.5337 79.944 74.8011 79.7536 74.7741 79.2113C74.7587 78.892 74.7491 78.5689 74.778 78.2515C74.8376 77.586 74.5568 77.3245 73.8894 77.3552C73.0585 77.3918 72.2238 77.3649 71.391 77.3649L71.3891 77.3629Z"
                fill="#6DC3DE" />
        </g>
        <g>
            <path
                d="M63.967 70.0812C63.2784 71.868 63.0091 73.6048 62.7476 75.3454C62.3552 77.9476 62.3456 77.9457 59.7606 77.9457C49.6959 77.9457 39.6311 77.9457 29.5663 77.9457C27.9257 77.9457 27.8046 77.8534 27.4699 76.2436C27.1372 74.6453 27.0179 73.0047 26.5313 71.4372C26.4005 71.0179 26.264 70.6005 26.0909 70.0581C25.1215 73.6355 24.3849 77.1091 23.7463 80.6057C23.5194 81.8424 23.3424 81.9866 22.1019 81.9905C19.6016 81.9962 17.1012 82.0001 14.6009 81.9866C13.5296 81.9808 13.22 81.6808 13.2277 80.5999C13.2681 74.4145 12.7334 68.2425 12.8815 62.0552C13.1392 51.2788 13.9104 40.5562 16.2723 30.0068C17.2397 25.6889 18.4668 21.4461 20.2613 17.3801C20.819 16.1165 21.7365 15.2337 22.7866 14.4278C26.2755 11.7525 30.1683 9.81762 34.2362 8.20779C34.7535 8.00392 35.294 7.87121 35.8094 8.19433C37.6578 9.35794 39.735 9.75799 41.8564 9.87532C45.2164 10.0619 48.5823 10.185 51.8788 9.23869C52.5943 9.0329 53.2886 8.78479 53.9022 8.37512C54.5657 7.93083 55.2139 7.9443 55.9044 8.24818C60.378 10.2081 64.7074 12.4122 68.5079 15.5414C69.1157 16.0415 69.4196 16.682 69.7158 17.3513C72.4565 23.5213 73.9606 30.0337 75.0492 36.6576C76.2455 43.9374 76.7917 51.2749 77.0436 58.647C77.2398 64.3536 77.1398 70.0466 76.8494 75.7435C76.7686 77.3418 76.8379 78.9478 76.8205 80.5499C76.809 81.6885 76.5244 81.9808 75.3954 81.9847C72.8623 81.9962 70.3312 81.9693 67.7982 81.9982C66.8943 82.0078 66.4577 81.6289 66.3076 80.7461C65.7076 77.2091 64.9305 73.7067 63.9631 70.0793L63.967 70.0812ZM44.9953 70.9583C49.994 70.9583 54.9927 70.9583 59.9914 70.9583C61.5109 70.9583 61.4936 70.9525 61.8551 69.5331C63.0803 64.7248 63.5188 59.8222 63.6092 54.8831C63.6861 50.6556 63.5727 46.4281 63.2515 42.2122C62.8533 37.0096 62.4225 31.8109 61.9802 26.614C61.6493 22.7212 62.2129 19.1746 65.6633 16.6935C66.3076 16.23 65.8614 15.9665 65.4806 15.703C62.6764 13.7643 59.651 12.2333 56.5448 10.8466C56.0121 10.6081 55.739 10.712 55.5409 11.2755C54.8562 13.2315 53.5675 14.7279 51.7884 15.7357C50.7575 16.3204 49.944 17.1013 49.1612 17.9456C48.1572 19.0246 47.1571 20.1055 46.1646 21.1941C45.328 22.1115 44.7145 22.1 43.8566 21.1633C42.645 19.842 41.4198 18.5303 40.1927 17.2224C39.8215 16.8262 39.4599 16.4262 38.9618 16.1646C36.8788 15.0664 35.2882 13.5008 34.4862 11.239C34.3035 10.7254 34.0535 10.6062 33.5534 10.8274C30.4145 12.2199 27.366 13.7739 24.5291 15.7222C23.9964 16.0877 23.906 16.3627 24.4868 16.7839C27.0814 18.6745 28.1315 21.3191 28.1354 24.4464C28.1373 26.7871 27.8065 29.1067 27.6353 31.4377C27.3314 35.5864 26.841 39.7273 26.6621 43.8797C26.4698 48.3553 26.3024 52.8347 26.5255 57.3257C26.7371 61.5647 27.2564 65.7364 28.2565 69.8581C28.4643 70.7101 28.8547 70.9833 29.7087 70.9775C34.8035 70.9448 39.8984 70.9621 44.9914 70.9621L44.9953 70.9583ZM15.0548 64.1901C15.0356 68.0329 15.0683 71.1083 15.2222 74.1818C15.2625 75.0011 15.5857 75.2223 16.3377 75.2069C18.0995 75.1742 19.8631 75.1703 21.6268 75.2069C22.3673 75.2223 22.727 74.953 22.8866 74.2221C23.3463 72.1257 23.8117 70.0293 24.3733 67.9598C24.8753 66.1096 25.0677 64.2785 24.8042 62.361C24.3907 59.3452 24.2695 56.3044 24.2503 53.2579C24.2195 48.4169 24.5464 43.5893 24.8619 38.7637C25.0734 35.5383 25.4158 32.3205 25.7178 29.1009C25.8966 27.1853 26.0716 25.2677 25.9351 23.3463C25.7947 21.3999 24.9677 19.7785 23.4098 18.5668C22.4962 17.8571 22.3692 17.8898 21.925 18.9457C21.0056 21.1345 20.2459 23.3809 19.5843 25.6581C17.4513 33.011 16.3473 40.5543 15.7049 48.1553C15.2337 53.7368 14.901 59.3414 15.0568 64.1882L15.0548 64.1901ZM75.0145 63.3842C75.0915 58.8932 74.7491 53.0444 74.2298 47.2013C73.5855 39.9446 72.4507 32.7725 70.4813 25.7485C69.8062 23.3405 68.9657 20.9902 68.0021 18.6803C67.7636 18.1072 67.4751 17.9033 66.9443 18.3495C66.675 18.5764 66.3788 18.7726 66.1249 19.015C64.4362 20.6209 63.9823 22.6577 64.0727 24.8927C64.2958 30.4299 64.9959 35.9306 65.3364 41.4602C65.7556 48.2784 66.0672 55.0793 65.3133 61.8936C65.1806 63.0938 64.8594 64.3132 65.1344 65.5268C65.7999 68.4637 66.5173 71.3872 67.1905 74.3222C67.3385 74.9703 67.6751 75.2165 68.331 75.2069C70.1254 75.18 71.9218 75.1665 73.7144 75.2127C74.5683 75.2357 74.778 74.8876 74.828 74.0837C75.0203 70.9775 74.978 67.8694 75.0165 63.3842H75.0145ZM45.0606 73.1201C40.0985 73.1201 35.1363 73.1162 30.1741 73.1278C29.8452 73.1278 29.3028 72.9662 29.2451 73.3759C29.1394 74.1298 29.3336 74.9107 29.5933 75.6204C29.7664 76.0916 30.3318 75.8839 30.7222 75.8839C40.0715 75.8935 49.4189 75.8954 58.7682 75.8877C60.8146 75.8877 60.353 76.0935 60.7723 74.201C60.9666 73.324 60.7319 73.097 59.853 73.1028C54.9235 73.1374 49.9921 73.1201 45.0626 73.1201H45.0606ZM53.1463 11.3101C47.6956 12.5314 42.3045 12.518 36.7115 11.1524C38.6079 14.2509 41.3967 15.376 44.626 15.4818C48.1572 15.5972 51.1903 14.474 53.1463 11.3101ZM18.7688 77.3629C17.936 77.3629 17.1012 77.3995 16.2704 77.3514C15.5299 77.3091 15.1818 77.561 15.2702 78.3323C15.3029 78.6169 15.2895 78.9093 15.2741 79.1959C15.2452 79.7286 15.4895 79.944 16.0184 79.9402C17.684 79.9267 19.3496 79.9267 21.0171 79.9402C21.5691 79.944 21.8519 79.7075 21.8923 79.1574C21.9115 78.9035 21.9423 78.6439 22.0077 78.3977C22.2058 77.6591 21.9903 77.3091 21.1729 77.3533C20.3748 77.3976 19.5708 77.3629 18.7707 77.3629H18.7688ZM71.3891 77.3629C70.5236 77.3629 69.6581 77.3879 68.7945 77.3552C68.0906 77.3283 67.8617 77.6245 68.0213 78.2881C68.0809 78.5362 68.131 78.792 68.1425 79.0459C68.1694 79.6786 68.4656 79.9537 69.1138 79.944C70.7467 79.919 72.3815 79.9267 74.0163 79.9402C74.5337 79.944 74.8011 79.7536 74.7741 79.2113C74.7587 78.892 74.7491 78.5689 74.778 78.2515C74.8376 77.586 74.5568 77.3245 73.8894 77.3552C73.0585 77.3918 72.2238 77.3649 71.391 77.3649L71.3891 77.3629Z"
                fill="white" fill-opacity="0.6" />
        </g>
    </g>
    <defs>
        <filter id="filter0_f_2035_11044" x="-2.14551" y="-7" width="94.291" height="104" filterUnits="userSpaceOnUse"
            color-interpolation-filters="sRGB">
            <feFlood flood-opacity="0" result="BackgroundImageFix" />
            <feBlend mode="normal" in="SourceGraphic" in2="BackgroundImageFix" result="shape" />
            <feGaussianBlur stdDeviation="7.5" result="effect1_foregroundBlur_2035_11044" />
        </filter>

    </defs>
</svg>