<svg width="71" height="67" viewBox="0 0 71 67" fill="none" xmlns="http://www.w3.org/2000/svg">
    <g clip-path="url(#clip0_897_459)" filter="url(#filter0_f_897_459)">
        <path d="M23.3911 10.2207C31.0093 9.57859 39.3365 10.5903 47.0279 10.1721C52.8675 10.6164 55.0468 14.0473 56.1287 19.3281C57.8655 27.8021 58.8742 36.4636 60.5379 44.9567C60.74 50.9386 56.8255 56.0546 50.695 56.5128C40.6832 55.9748 29.9571 57.2069 20.0288 56.5041C15.6161 56.1917 11.6842 53.6233 10.409 49.2535C9.33408 45.571 10.6407 40.6546 11.2783 36.8558C12.4385 29.9471 13.8217 23.0593 15.0726 16.1662C16.4436 12.3795 19.4557 10.5504 23.3911 10.2207ZM24.783 13.5162C21.3563 13.728 18.9836 14.4655 18.1038 18.1428C16.015 26.865 15.3286 36.1963 13.3252 44.9671C12.928 49.3681 15.299 52.4814 19.6734 53.2155C29.694 52.615 40.6065 53.9895 50.5226 53.2155C55.3203 52.8406 57.552 49.1702 57.221 44.6217C56.6496 36.7864 53.6531 28.1353 52.9964 20.1958C52.6236 18.5802 52.5504 16.994 51.472 15.6404C49.9459 13.7297 47.5854 13.5631 45.2998 13.459C39.0508 13.1726 31.0093 13.1344 24.7865 13.518L24.783 13.5162Z" fill="#FE5000" fill-opacity="0.83"/>
        <path d="M42.2911 17.3321C43.251 16.1625 45.0593 16.7733 45.2092 18.4029C45.6499 23.1822 44.8607 27.8817 40.4828 30.5455C34.8419 33.9764 27.424 31.297 25.5652 24.9558C25.121 23.4408 24.9311 19.7912 25.1767 18.2467C25.3788 16.9712 26.999 16.4922 27.9606 17.3616C28.9223 18.2311 28.3282 21.4589 28.5216 22.8768C29.5529 30.4588 41.1727 30.8718 42.0438 22.2069C42.1448 21.1952 41.833 17.8892 42.2894 17.3304L42.2911 17.3321Z" fill="#FE5000" fill-opacity="0.83"/>
    </g>
    <g clip-path="url(#clip1_897_459)">
        <path d="M23.3911 10.2207C31.0093 9.57859 39.3365 10.5903 47.0279 10.1721C52.8675 10.6164 55.0468 14.0473 56.1287 19.3281C57.8655 27.8021 58.8742 36.4636 60.5379 44.9567C60.74 50.9386 56.8255 56.0546 50.695 56.5128C40.6832 55.9748 29.9571 57.2069 20.0288 56.5041C15.6161 56.1917 11.6842 53.6233 10.409 49.2535C9.33408 45.571 10.6407 40.6546 11.2783 36.8558C12.4385 29.9471 13.8217 23.0593 15.0726 16.1662C16.4436 12.3795 19.4557 10.5504 23.3911 10.2207ZM24.783 13.5162C21.3563 13.728 18.9836 14.4655 18.1038 18.1428C16.015 26.865 15.3286 36.1963 13.3252 44.9671C12.928 49.3681 15.299 52.4814 19.6734 53.2155C29.694 52.615 40.6065 53.9895 50.5226 53.2155C55.3203 52.8406 57.552 49.1702 57.221 44.6217C56.6496 36.7864 53.6531 28.1353 52.9964 20.1958C52.6236 18.5802 52.5504 16.994 51.472 15.6404C49.9459 13.7297 47.5854 13.5631 45.2998 13.459C39.0508 13.1726 31.0093 13.1344 24.7865 13.518L24.783 13.5162Z" fill="white" fill-opacity="0.6"/>
        <path d="M42.2911 17.3321C43.251 16.1625 45.0593 16.7733 45.2092 18.4029C45.6499 23.1822 44.8607 27.8817 40.4828 30.5455C34.8419 33.9764 27.424 31.297 25.5652 24.9558C25.121 23.4408 24.9311 19.7912 25.1767 18.2467C25.3788 16.9712 26.999 16.4922 27.9606 17.3616C28.9223 18.2311 28.3282 21.4589 28.5216 22.8768C29.5529 30.4588 41.1727 30.8718 42.0438 22.2069C42.1448 21.1952 41.833 17.8892 42.2894 17.3304L42.2911 17.3321Z" fill="white" fill-opacity="0.6"/>
    </g>
    <defs>
        <filter id="filter0_f_897_459" x="0" y="0" width="70.5469" height="66.7242" filterUnits="userSpaceOnUse" color-interpolation-filters="sRGB">
            <feFlood flood-opacity="0" result="BackgroundImageFix"/>
            <feBlend mode="normal" in="SourceGraphic" in2="BackgroundImageFix" result="shape"/>
            <feGaussianBlur stdDeviation="5" result="effect1_foregroundBlur_897_459"/>
        </filter>
        <clipPath id="clip0_897_459">
            <rect width="50.5471" height="46.7242" fill="white" transform="translate(10 10)"/>
        </clipPath>
        <clipPath id="clip1_897_459">
            <rect width="50.5471" height="46.7242" fill="white" transform="translate(10 10)"/>
        </clipPath>
    </defs>
</svg>
