<svg width="91" height="83" viewBox="0 0 91 83" fill="none" xmlns="http://www.w3.org/2000/svg">
<g filter="url(#filter0_f_900_480)">
<path d="M32.8837 19.211C40.2127 18.5944 48.2238 19.566 55.6232 19.1643C61.241 19.591 63.3376 22.8858 64.3784 27.9571C66.0493 36.0949 67.0197 44.4127 68.6203 52.5689C68.8147 58.3135 65.0488 63.2265 59.1511 63.6665C49.5193 63.1499 39.2004 64.3331 29.649 63.6582C25.4038 63.3582 21.6212 60.8917 20.3944 56.6953C19.3603 53.1588 20.6173 48.4375 21.2307 44.7894C22.3469 38.1548 23.6776 31.5402 24.8809 24.9206C26.1999 21.2842 29.0977 19.5276 32.8837 19.211ZM34.2228 22.3758C30.9261 22.5791 28.6435 23.2874 27.7971 26.8189C25.7876 35.195 25.1273 44.1561 23.1999 52.5789C22.8178 56.8053 25.0988 59.7951 29.3071 60.5C38.9473 59.9234 49.4455 61.2433 58.9851 60.5C63.6008 60.1401 65.7477 56.6153 65.4292 52.2472C64.8795 44.7227 61.9969 36.4149 61.365 28.7904C61.0064 27.2388 60.936 25.7156 59.8985 24.4157C58.4304 22.5808 56.1595 22.4208 53.9606 22.3208C47.9489 22.0458 40.2127 22.0092 34.2261 22.3775L34.2228 22.3758Z" fill="#FE5000" fill-opacity="0.83"/>
<path d="M51.1334 25.6399C52.0555 24.529 53.7926 25.1092 53.9366 26.6567C54.36 31.1956 53.6019 35.6587 49.3964 38.1885C43.9776 41.4468 36.8518 38.9021 35.0662 32.88C34.6394 31.4412 34.457 27.9752 34.693 26.5084C34.8871 25.2971 36.4435 24.8422 37.3672 25.6679C38.291 26.4936 37.7203 29.559 37.9061 30.9055C38.8968 38.1061 50.0591 38.4983 50.8958 30.2694C50.9929 29.3085 50.6933 26.1689 51.1318 25.6382L51.1334 25.6399Z" fill="#FE5000" fill-opacity="0.83"/>
</g>
<g clip-path="url(#clip0_900_480)">
<path d="M33.3911 18.2207C41.0093 17.5786 49.3365 18.5903 57.0279 18.1721C62.8674 18.6164 65.0468 22.0473 66.1287 27.3281C67.8655 35.8021 68.8742 44.4636 70.5379 52.9567C70.74 58.9386 66.8255 64.0546 60.695 64.5128C50.6832 63.9748 39.9571 65.2069 30.0288 64.5041C25.6161 64.1917 21.6842 61.6233 20.409 57.2535C19.3341 53.571 20.6407 48.6546 21.2783 44.8558C22.4385 37.9471 23.8217 31.0593 25.0726 24.1662C26.4436 20.3795 29.4557 18.5504 33.3911 18.2207ZM34.783 21.5162C31.3563 21.728 28.9836 22.4655 28.1038 26.1428C26.015 34.865 25.3286 44.1963 23.3252 52.9671C22.928 57.3681 25.299 60.4814 29.6734 61.2155C39.694 60.615 50.6065 61.9895 60.5226 61.2155C65.3203 60.8406 67.552 57.1702 67.221 52.6217C66.6496 44.7864 63.6531 36.1353 62.9964 28.1958C62.6236 26.5802 62.5504 24.994 61.472 23.6404C59.9459 21.7297 57.5854 21.5631 55.2998 21.459C49.0508 21.1726 41.0093 21.1344 34.7865 21.518L34.783 21.5162Z" fill="white" fill-opacity="0.6"/>
<path d="M52.2911 25.3321C53.251 24.1625 55.0593 24.7733 55.2092 26.4029C55.6499 31.1822 54.8607 35.8817 50.4828 38.5455C44.8419 41.9765 37.424 39.297 35.5652 32.9558C35.121 31.4408 34.9311 27.7912 35.1767 26.2467C35.3788 24.9712 36.999 24.4922 37.9606 25.3616C38.9223 26.2311 38.3282 29.4589 38.5216 30.8768C39.5529 38.4588 51.1727 38.8718 52.0438 30.2069C52.1448 29.1952 51.833 25.8892 52.2894 25.3304L52.2911 25.3321Z" fill="white" fill-opacity="0.6"/>
</g>
<defs>
<filter id="filter0_f_900_480" x="5" y="1" width="82" height="77" filterUnits="userSpaceOnUse" color-interpolation-filters="sRGB">
<feFlood flood-opacity="0" result="BackgroundImageFix"/>
<feBlend mode="normal" in="SourceGraphic" in2="BackgroundImageFix" result="shape"/>
<feGaussianBlur stdDeviation="5" result="effect1_foregroundBlur_900_480"/>
</filter>
<clipPath id="clip0_900_480">
<rect width="50.5471" height="46.7242" fill="white" transform="translate(20 18)"/>
</clipPath>
</defs>
</svg>
