<svg width="76" height="75" viewBox="0 0 76 75" fill="none" xmlns="http://www.w3.org/2000/svg">
    <g clip-path="url(#clip0_891_102)" filter="url(#filter0_f_891_102)">
        <path d="M25.9116 53.7043C25.887 55.884 23.8846 57.9297 21.7413 58.1225C19.5817 58.3153 15.1396 57.5751 13.4777 58.6993C11.8158 59.8234 11.7602 62.3707 13.9493 62.9459L51.6946 63.0145C54.1653 61.5145 56.1629 56.8072 59.6389 58.1993C60.4985 58.544 64.1088 62.0848 64.2218 62.9508C64.3266 63.7612 63.878 64.4573 63.2001 64.8559C46.6222 65.1468 29.982 64.8935 13.3811 64.9834C9.24852 64.0128 9.12244 58.6257 12.5952 56.6748C14.4618 55.6258 18.3406 56.3562 20.5952 56.1618C22.5911 55.9902 23.6128 55.1389 23.9517 53.1439C16.5248 50.3792 12.1449 44.2454 10.7254 36.5888C8.79334 26.1741 10.3537 19.3638 19.9059 14.1352C30.3913 8.3952 46.6484 8.60761 56.8424 14.9113C65.4089 20.2086 66.4649 27.0531 64.6721 36.5888C61.6643 52.5916 48.1891 56.0327 33.6807 55.183C31.1543 55.0343 28.3086 54.4608 25.9116 53.7059V53.7043ZM49.977 14.0012C41.5776 11.4082 32.3397 11.4213 24.0811 14.5453L21.1617 15.9587C24.1024 16.3705 26.4192 18.0077 28.6066 19.8834C33.2681 17.524 38.9971 17.3214 43.9861 18.7446C45.0929 17.0322 46.6762 15.6842 48.4511 14.6842L49.9754 14.0029L49.977 14.0012ZM50.6336 32.7899C53.6496 33.066 56.7605 34.2196 59.0642 36.2146C60.0859 35.1624 61.0879 34.0317 61.7936 32.736C65.1813 26.5205 61.8067 20.7984 56.4821 17.2299C54.7744 16.0861 54.0556 15.578 51.8813 15.8165C49.6316 16.0633 47.3671 17.7021 46.0491 19.4733C50.686 21.6252 54.3356 26.1365 51.5391 31.3243C51.4146 31.5546 50.4781 32.6608 50.6336 32.7883V32.7899ZM25.3516 22.2657C25.738 21.8507 26.1719 21.519 26.5616 21.1072C24.5919 18.957 20.5166 17.1891 17.6447 18.2511C16.6853 18.6057 14.7581 20.8981 14.1523 21.7919C10.4176 27.3113 12.4986 33.1232 17.3205 37.0316C17.9656 37.5545 22.1474 40.471 22.6222 40.1312C23.4409 37.9548 24.9128 36.1035 26.5534 34.4827C26.6042 34.1951 25.2567 33.1869 24.9587 32.8471C21.9345 29.3962 22.3259 25.5107 25.3516 22.2641V22.2657ZM37.1731 19.9308C32.9718 20.0435 24.849 22.4977 24.9456 27.7901C25.0422 33.0824 33.3467 35.566 37.6185 35.5823C41.9263 35.5986 50.3553 33.1624 50.4535 27.7901C50.5567 22.1088 41.5972 19.8115 37.1748 19.9308H37.1731ZM57.3467 37.6884C55.0921 35.4679 51.6045 35.0202 48.5771 34.6085C43.7126 37.6329 37.273 38.3976 31.77 36.8274C31.192 36.6623 28.7786 35.5692 28.6083 35.566C27.937 35.5594 24.4609 40.2652 24.5903 41.025C32.9079 44.1425 43.0184 44.1066 51.3164 40.9024C53.4646 40.074 55.4097 38.9041 57.3483 37.6868L57.3467 37.6884ZM21.4875 45.698C21.4024 44.5314 21.5661 43.4072 21.7462 42.2651C18.3062 40.6099 15.2706 38.5021 12.813 35.5676C12.9914 40.5103 17.5825 43.5412 21.4875 45.698ZM62.5845 35.5676C62.3585 35.9156 60.487 37.6198 60.487 37.7718C60.487 37.8649 61.3614 39.1083 61.5218 39.3224C61.9312 39.3371 62.6008 36.0774 62.5845 35.5676ZM23.8207 46.8042C33.6905 50.3564 46.6402 50.2355 55.7601 44.6866C56.451 44.265 59.9402 41.8942 59.9353 41.2374C59.932 40.9236 58.93 39.1623 58.7384 39.1655C48.975 46.3745 35.007 46.9594 23.7831 43.0854C23.729 43.7781 23.3541 46.4104 23.8224 46.8042H23.8207ZM21.7757 48.1881C21.5841 47.9823 19.8682 47.3009 19.413 47.0329L16.7393 45.3729C17.5694 46.4986 18.5911 47.5248 19.6996 48.3809C20.1138 48.6996 21.6791 49.827 22.0639 49.9446C22.2997 50.0165 22.3455 49.925 22.3095 49.7012C22.2849 49.5525 21.8297 48.247 21.7757 48.1881ZM58.4928 45.5363C58.3585 45.4137 56.6099 46.7013 56.3102 46.8695C47.2296 51.9838 34.7319 52.541 24.9243 49.376C24.7818 49.3303 24.5019 49.1718 24.4364 49.3727C25.2747 51.4985 26.0868 51.6946 28.1646 52.188C34.2129 53.6259 43.0692 53.4723 49.0307 51.6978C52.6475 50.6211 56.23 48.5836 58.4911 45.5363H58.4928ZM61.6037 63.0178C60.8735 62.392 59.6471 60.6584 58.9119 60.2319C58.4895 59.9884 58.1637 59.9901 57.7478 60.2319C57.0126 60.6584 55.7846 62.392 55.056 63.0178H61.6053H61.6037Z" fill="#5506F9"/>
        <path d="M38.3045 20.8951C38.9725 20.6876 39.7535 20.7905 39.8387 21.5928C39.9434 22.5748 39.3327 22.8607 38.9496 23.6613C37.72 26.2234 37.6463 28.4096 38.984 30.9389C39.3835 31.6938 40.248 32.2559 39.7486 33.282C39.5259 33.7395 38.4633 33.7166 38.0998 33.4552C37.9606 33.3555 37.2484 32.2395 37.1092 31.9928C35.6848 29.488 35.4997 26.8165 36.4379 24.0927C36.6459 23.4881 37.7871 21.0536 38.3061 20.8934L38.3045 20.8951Z" fill="#5506F9"/>
    </g>
    <g clip-path="url(#clip1_891_102)">
        <path d="M25.9116 53.7043C25.887 55.884 23.8846 57.9297 21.7413 58.1225C19.5817 58.3153 15.1396 57.5751 13.4777 58.6993C11.8158 59.8234 11.7602 62.3707 13.9493 62.9459L51.6946 63.0145C54.1653 61.5145 56.1629 56.8072 59.6389 58.1993C60.4985 58.544 64.1088 62.0848 64.2218 62.9508C64.3266 63.7612 63.878 64.4573 63.2001 64.8559C46.6222 65.1468 29.982 64.8935 13.3811 64.9834C9.24852 64.0128 9.12244 58.6257 12.5952 56.6748C14.4618 55.6258 18.3406 56.3562 20.5952 56.1618C22.5911 55.9902 23.6128 55.1389 23.9517 53.1439C16.5248 50.3792 12.1449 44.2454 10.7254 36.5888C8.79334 26.1741 10.3537 19.3638 19.9059 14.1352C30.3913 8.3952 46.6484 8.60761 56.8424 14.9113C65.4089 20.2086 66.4649 27.0531 64.6721 36.5888C61.6643 52.5916 48.1891 56.0327 33.6807 55.183C31.1543 55.0343 28.3086 54.4608 25.9116 53.7059V53.7043ZM49.977 14.0012C41.5776 11.4082 32.3397 11.4213 24.0811 14.5453L21.1617 15.9587C24.1024 16.3705 26.4192 18.0077 28.6066 19.8834C33.2681 17.524 38.9971 17.3214 43.9861 18.7446C45.0929 17.0322 46.6762 15.6842 48.4511 14.6842L49.9754 14.0029L49.977 14.0012ZM50.6336 32.7899C53.6496 33.066 56.7605 34.2196 59.0642 36.2146C60.0859 35.1624 61.0879 34.0317 61.7936 32.736C65.1813 26.5205 61.8067 20.7984 56.4821 17.2299C54.7744 16.0861 54.0556 15.578 51.8813 15.8165C49.6316 16.0633 47.3671 17.7021 46.0491 19.4733C50.686 21.6252 54.3356 26.1365 51.5391 31.3243C51.4146 31.5546 50.4781 32.6608 50.6336 32.7883V32.7899ZM25.3516 22.2657C25.738 21.8507 26.1719 21.519 26.5616 21.1072C24.5919 18.957 20.5166 17.1891 17.6447 18.2511C16.6853 18.6057 14.7581 20.8981 14.1523 21.7919C10.4176 27.3113 12.4986 33.1232 17.3205 37.0316C17.9656 37.5545 22.1474 40.471 22.6222 40.1312C23.4409 37.9548 24.9128 36.1035 26.5534 34.4827C26.6042 34.1951 25.2567 33.1869 24.9587 32.8471C21.9345 29.3962 22.3259 25.5107 25.3516 22.2641V22.2657ZM37.1731 19.9308C32.9718 20.0435 24.849 22.4977 24.9456 27.7901C25.0422 33.0824 33.3467 35.566 37.6185 35.5823C41.9263 35.5986 50.3553 33.1624 50.4535 27.7901C50.5567 22.1088 41.5972 19.8115 37.1748 19.9308H37.1731ZM57.3467 37.6884C55.0921 35.4679 51.6045 35.0202 48.5771 34.6085C43.7126 37.6329 37.273 38.3976 31.77 36.8274C31.192 36.6623 28.7786 35.5692 28.6083 35.566C27.937 35.5594 24.4609 40.2652 24.5903 41.025C32.9079 44.1425 43.0184 44.1066 51.3164 40.9024C53.4646 40.074 55.4097 38.9041 57.3483 37.6868L57.3467 37.6884ZM21.4875 45.698C21.4024 44.5314 21.5661 43.4072 21.7462 42.2651C18.3062 40.6099 15.2706 38.5021 12.813 35.5676C12.9914 40.5103 17.5825 43.5412 21.4875 45.698ZM62.5845 35.5676C62.3585 35.9156 60.487 37.6198 60.487 37.7718C60.487 37.8649 61.3614 39.1083 61.5218 39.3224C61.9312 39.3371 62.6008 36.0774 62.5845 35.5676ZM23.8207 46.8042C33.6905 50.3564 46.6402 50.2355 55.7601 44.6866C56.451 44.265 59.9402 41.8942 59.9353 41.2374C59.932 40.9236 58.93 39.1623 58.7384 39.1655C48.975 46.3745 35.007 46.9594 23.7831 43.0854C23.729 43.7781 23.3541 46.4104 23.8224 46.8042H23.8207ZM21.7757 48.1881C21.5841 47.9823 19.8682 47.3009 19.413 47.0329L16.7393 45.3729C17.5694 46.4986 18.5911 47.5248 19.6996 48.3809C20.1138 48.6996 21.6791 49.827 22.0639 49.9446C22.2997 50.0165 22.3455 49.925 22.3095 49.7012C22.2849 49.5525 21.8297 48.247 21.7757 48.1881ZM58.4928 45.5363C58.3585 45.4137 56.6099 46.7013 56.3102 46.8695C47.2296 51.9838 34.7319 52.541 24.9243 49.376C24.7818 49.3303 24.5019 49.1718 24.4364 49.3727C25.2747 51.4985 26.0868 51.6946 28.1646 52.188C34.2129 53.6259 43.0692 53.4723 49.0307 51.6978C52.6475 50.6211 56.23 48.5836 58.4911 45.5363H58.4928ZM61.6037 63.0178C60.8735 62.392 59.6471 60.6584 58.9119 60.2319C58.4895 59.9884 58.1637 59.9901 57.7478 60.2319C57.0126 60.6584 55.7846 62.392 55.056 63.0178H61.6053H61.6037Z" fill="white" fill-opacity="0.6"/>
        <path d="M38.3045 20.8951C38.9725 20.6876 39.7535 20.7905 39.8387 21.5928C39.9434 22.5748 39.3327 22.8607 38.9496 23.6613C37.72 26.2234 37.6463 28.4096 38.984 30.9389C39.3835 31.6938 40.248 32.2559 39.7486 33.282C39.5259 33.7395 38.4633 33.7166 38.0998 33.4552C37.9606 33.3555 37.2484 32.2395 37.1092 31.9928C35.6848 29.488 35.4997 26.8165 36.4379 24.0927C36.6459 23.4881 37.7871 21.0536 38.3061 20.8934L38.3045 20.8951Z" fill="white" fill-opacity="0.6"/>
    </g>
    <defs>
        <filter id="filter0_f_891_102" x="0" y="0" width="75.4102" height="75" filterUnits="userSpaceOnUse" color-interpolation-filters="sRGB">
            <feFlood flood-opacity="0" result="BackgroundImageFix"/>
            <feBlend mode="normal" in="SourceGraphic" in2="BackgroundImageFix" result="shape"/>
            <feGaussianBlur stdDeviation="5" result="effect1_foregroundBlur_891_102"/>
        </filter>
        <clipPath id="clip0_891_102">
            <rect width="55.4104" height="55" fill="white" transform="translate(10 10)"/>
        </clipPath>
        <clipPath id="clip1_891_102">
            <rect width="55.4104" height="55" fill="white" transform="translate(10 10)"/>
        </clipPath>
    </defs>
</svg>
