<svg width="106" height="103" viewBox="0 0 106 103" fill="none" xmlns="http://www.w3.org/2000/svg">
<g clip-path="url(#clip0_900_514)">
<g filter="url(#filter0_f_900_514)">
<path d="M44.3792 59.4488C44.357 61.4461 42.5491 63.3206 40.6141 63.4973C38.6643 63.674 34.6539 62.9957 33.1535 64.0258C31.6531 65.056 31.6028 67.3902 33.5792 67.9172L67.6569 67.9801C69.8876 66.6056 71.691 62.292 74.8293 63.5677C75.6054 63.8836 78.8649 67.1281 78.9669 67.9217C79.0615 68.6643 78.6564 69.3021 78.0444 69.6675C63.0773 69.934 48.0541 69.7019 33.0663 69.7843C29.3352 68.8949 29.2214 63.9585 32.3567 62.1708C34.0419 61.2095 37.5438 61.8788 39.5794 61.7006C41.3813 61.5434 42.3037 60.7633 42.6097 58.9352C35.9045 56.4019 31.9502 50.7812 30.6686 43.7651C28.9243 34.2217 30.333 27.9812 38.957 23.19C48.4236 17.9302 63.101 18.1248 72.3045 23.9012C80.0386 28.7552 80.992 35.0272 79.3734 43.7651C76.6579 58.4291 64.492 61.5823 51.3934 60.8038C49.1125 60.6675 46.5433 60.142 44.3792 59.4503V59.4488ZM66.1062 23.0672C58.5229 20.6911 50.1827 20.703 42.7265 23.5658L40.0908 24.8609C42.7457 25.2382 44.8374 26.7384 46.8124 28.4573C51.0209 26.2953 56.1932 26.1096 60.6974 27.4137C61.6967 25.8446 63.1261 24.6094 64.7285 23.693L66.1048 23.0687L66.1062 23.0672ZM66.699 40.284C69.4219 40.5371 72.2306 41.5941 74.3104 43.4223C75.2328 42.458 76.1375 41.4219 76.7746 40.2346C79.8331 34.5391 76.7865 29.2957 71.9793 26.0258C70.4375 24.9777 69.7885 24.512 67.8254 24.7306C65.7943 24.9567 63.7499 26.4585 62.56 28.0815C66.7463 30.0533 70.0413 34.1872 67.5165 38.941C67.4041 39.1521 66.5586 40.1657 66.699 40.2825V40.284ZM43.8736 30.6403C44.2225 30.26 44.6142 29.956 44.966 29.5787C43.1877 27.6083 39.5084 25.9883 36.9156 26.9615C36.0493 27.2864 34.3095 29.3871 33.7625 30.2061C30.3907 35.2638 32.2695 40.5895 36.6229 44.1709C37.2053 44.65 40.9807 47.3226 41.4094 47.0112C42.1485 45.0168 43.4775 43.3204 44.9586 41.8352C45.0045 41.5717 43.7879 40.6479 43.5188 40.3364C40.7886 37.1742 41.1419 33.6138 43.8736 30.6388V30.6403ZM54.5465 28.5007C50.7533 28.604 43.4198 30.8529 43.507 35.7025C43.5942 40.552 51.0918 42.8278 54.9485 42.8428C58.8378 42.8578 66.4477 40.6254 66.5364 35.7025C66.6295 30.4965 58.5406 28.3914 54.5479 28.5007H54.5465ZM72.7598 44.7728C70.7242 42.738 67.5756 42.3278 64.8424 41.9505C60.4505 44.7219 54.6366 45.4226 49.6683 43.9837C49.1465 43.8325 46.9676 42.8308 46.8138 42.8278C46.2078 42.8219 43.0695 47.1339 43.1862 47.8301C50.6957 50.6869 59.8238 50.6539 67.3154 47.7179C69.2549 46.9587 71.011 45.8867 72.7612 44.7713L72.7598 44.7728ZM40.385 52.1123C40.3081 51.0432 40.456 50.0131 40.6186 48.9666C37.5128 47.4498 34.7721 45.5184 32.5533 42.8293C32.7144 47.3585 36.8594 50.1359 40.385 52.1123ZM77.4886 42.8293C77.2846 43.1483 75.595 44.7099 75.595 44.8491C75.595 44.9345 76.3844 46.0739 76.5293 46.27C76.8988 46.2835 77.5034 43.2965 77.4886 42.8293ZM42.4915 53.1259C51.4023 56.3809 63.0936 56.2701 71.3274 51.1855C71.9512 50.7992 75.1013 48.6267 75.0969 48.0248C75.0939 47.7373 74.1892 46.1233 74.0163 46.1263C65.2016 52.7321 52.5908 53.2681 42.4575 49.7182C42.4087 50.353 42.0702 52.7651 42.493 53.1259H42.4915ZM40.6452 54.3941C40.4722 54.2054 38.923 53.5811 38.5121 53.3355L36.0981 51.8143C36.8476 52.8459 37.77 53.7862 38.7708 54.5707C39.1448 54.8627 40.5579 55.8958 40.9053 56.0036C41.1182 56.0695 41.1596 55.9856 41.1271 55.7805C41.1049 55.6443 40.6939 54.448 40.6452 54.3941ZM73.7945 51.964C73.6733 51.8517 72.0946 53.0316 71.824 53.1858C63.6258 57.8722 52.3424 58.3827 43.4878 55.4826C43.3592 55.4406 43.1064 55.2954 43.0473 55.4796C43.8041 57.4275 44.5374 57.6072 46.4132 58.0593C51.8738 59.3769 59.8696 59.2362 65.2518 57.6102C68.5172 56.6235 71.7516 54.7564 73.793 51.964H73.7945ZM76.6032 67.9831C75.9439 67.4096 74.8367 65.821 74.173 65.4303C73.7916 65.2072 73.4974 65.2087 73.1219 65.4303C72.4582 65.821 71.3495 67.4096 70.6917 67.9831H76.6046H76.6032Z" fill="#5506F9"/>
<path d="M55.403 28.4911C55.9937 28.2874 56.6843 28.3884 56.7595 29.1758C56.8522 30.1395 56.3122 30.4201 55.9734 31.2059C54.8862 33.7202 54.8211 35.8658 56.0038 38.348C56.3571 39.0889 57.1215 39.6405 56.6799 40.6475C56.483 41.0965 55.5435 41.0741 55.2221 40.8175C55.099 40.7197 54.4693 39.6245 54.3462 39.3823C53.0867 36.9241 52.9231 34.3023 53.7527 31.6292C53.9365 31.0359 54.9456 28.6466 55.4045 28.4895L55.403 28.4911Z" fill="#5506F9"/>
</g>
<g clip-path="url(#clip1_900_514)">
<path d="M40.9116 61.7043C40.887 63.884 38.8846 65.9297 36.7413 66.1225C34.5817 66.3153 30.1396 65.5751 28.4777 66.6993C26.8158 67.8234 26.7602 70.3707 28.9493 70.9459L66.6946 71.0145C69.1653 69.5145 71.1629 64.8072 74.6389 66.1993C75.4985 66.544 79.1088 70.0848 79.2218 70.9508C79.3266 71.7612 78.878 72.4573 78.2001 72.8559C61.6222 73.1468 44.982 72.8935 28.3811 72.9834C24.2485 72.0128 24.1224 66.6257 27.5952 64.6748C29.4618 63.6258 33.3406 64.3562 35.5952 64.1618C37.5911 63.9902 38.6128 63.1389 38.9517 61.1439C31.5248 58.3792 27.1449 52.2454 25.7254 44.5888C23.7933 34.1741 25.3537 27.3638 34.9059 22.1352C45.3913 16.3952 61.6484 16.6076 71.8424 22.9113C80.4089 28.2086 81.4649 35.0531 79.6721 44.5888C76.6643 60.5916 63.1891 64.0327 48.6807 63.183C46.1543 63.0343 43.3086 62.4608 40.9116 61.7059V61.7043ZM64.977 22.0012C56.5776 19.4082 47.3397 19.4213 39.0811 22.5453L36.1617 23.9587C39.1024 24.3705 41.4192 26.0077 43.6066 27.8834C48.2681 25.524 53.9971 25.3214 58.9861 26.7446C60.0929 25.0322 61.6762 23.6842 63.4511 22.6842L64.9754 22.0029L64.977 22.0012ZM65.6336 40.7899C68.6496 41.066 71.7605 42.2196 74.0642 44.2146C75.0859 43.1624 76.0879 42.0317 76.7936 40.736C80.1813 34.5205 76.8067 28.7984 71.4821 25.2299C69.7744 24.0861 69.0556 23.578 66.8813 23.8165C64.6316 24.0633 62.3671 25.7021 61.0491 27.4733C65.686 29.6252 69.3356 34.1365 66.5391 39.3243C66.4146 39.5546 65.4781 40.6608 65.6336 40.7883V40.7899ZM40.3516 30.2657C40.738 29.8507 41.1719 29.519 41.5616 29.1072C39.5919 26.957 35.5166 25.1891 32.6447 26.2511C31.6853 26.6057 29.7581 28.8981 29.1523 29.7919C25.4176 35.3113 27.4986 41.1232 32.3205 45.0316C32.9656 45.5545 37.1474 48.471 37.6222 48.1312C38.4409 45.9548 39.9128 44.1035 41.5534 42.4827C41.6042 42.1951 40.2567 41.1869 39.9587 40.8471C36.9345 37.3962 37.3259 33.5107 40.3516 30.2641V30.2657ZM52.1731 27.9308C47.9718 28.0435 39.849 30.4977 39.9456 35.7901C40.0422 41.0824 48.3467 43.566 52.6185 43.5823C56.9263 43.5986 65.3553 41.1624 65.4535 35.7901C65.5567 30.1088 56.5972 27.8115 52.1748 27.9308H52.1731ZM72.3467 45.6885C70.0921 43.4679 66.6045 43.0202 63.5771 42.6085C58.7126 45.6329 52.273 46.3976 46.77 44.8274C46.192 44.6623 43.7786 43.5692 43.6083 43.566C42.937 43.5594 39.4609 48.2652 39.5903 49.025C47.9079 52.1425 58.0184 52.1066 66.3164 48.9024C68.4645 48.074 70.4097 46.9041 72.3483 45.6868L72.3467 45.6885ZM36.4875 53.698C36.4024 52.5314 36.5661 51.4072 36.7462 50.2651C33.3062 48.6099 30.2706 46.5021 27.813 43.5676C27.9914 48.5103 32.5825 51.5412 36.4875 53.698ZM77.5845 43.5676C77.3585 43.9156 75.487 45.6198 75.487 45.7718C75.487 45.8649 76.3614 47.1083 76.5218 47.3224C76.9312 47.3371 77.6008 44.0774 77.5845 43.5676ZM38.8207 54.8042C48.6905 58.3564 61.6402 58.2355 70.7601 52.6866C71.451 52.2651 74.9402 49.8942 74.9353 49.2374C74.932 48.9236 73.93 47.1623 73.7384 47.1655C63.975 54.3745 50.007 54.9594 38.7831 51.0853C38.729 51.7781 38.3541 54.4104 38.8224 54.8042H38.8207ZM36.7757 56.1881C36.5841 55.9823 34.8682 55.3009 34.413 55.0329L31.7393 53.3729C32.5694 54.4986 33.5911 55.5248 34.6996 56.3809C35.1138 56.6996 36.6791 57.827 37.0639 57.9446C37.2997 58.0165 37.3455 57.925 37.3095 57.7012C37.2849 57.5525 36.8297 56.247 36.7757 56.1881ZM73.4928 53.5363C73.3585 53.4137 71.6099 54.7013 71.3102 54.8695C62.2296 59.9838 49.7319 60.541 39.9243 57.376C39.7818 57.3303 39.5019 57.1718 39.4364 57.3727C40.2747 59.4985 41.0868 59.6946 43.1646 60.188C49.2129 61.6259 58.0692 61.4723 64.0307 59.6978C67.6475 58.6211 71.23 56.5836 73.4911 53.5363H73.4928ZM76.6037 71.0178C75.8735 70.392 74.6471 68.6584 73.9119 68.2319C73.4895 67.9884 73.1637 67.9901 72.7478 68.2319C72.0126 68.6584 70.7846 70.392 70.056 71.0178H76.6053H76.6037Z" fill="white" fill-opacity="0.6"/>
<path d="M53.3045 28.8951C53.9725 28.6876 54.7535 28.7906 54.8387 29.5928C54.9434 30.5748 54.3327 30.8608 53.9496 31.6614C52.72 34.2234 52.6463 36.4096 53.984 38.939C54.3835 39.6938 55.248 40.2559 54.7486 41.282C54.5259 41.7395 53.4633 41.7167 53.0998 41.4552C52.9606 41.3556 52.2484 40.2396 52.1092 39.9929C50.6848 37.488 50.4997 34.8165 51.4379 32.0928C51.6459 31.4882 52.7871 29.0536 53.3061 28.8935L53.3045 28.8951Z" fill="white" fill-opacity="0.6"/>
</g>
</g>
<defs>
<filter id="filter0_f_900_514" x="-5" y="-14" width="119" height="119" filterUnits="userSpaceOnUse" color-interpolation-filters="sRGB">
<feFlood flood-opacity="0" result="BackgroundImageFix"/>
<feBlend mode="normal" in="SourceGraphic" in2="BackgroundImageFix" result="shape"/>
<feGaussianBlur stdDeviation="5" result="effect1_foregroundBlur_900_514"/>
</filter>
<clipPath id="clip0_900_514">
<rect width="106" height="103" fill="white"/>
</clipPath>
<clipPath id="clip1_900_514">
<rect width="55.4104" height="55" fill="white" transform="translate(25 18)"/>
</clipPath>
</defs>
</svg>
