<svg width="119" height="135" viewBox="0 0 119 135" fill="none" xmlns="http://www.w3.org/2000/svg">
<g filter="url(#filter0_f_1296_8)">
<path d="M90.1279 115.155C88.0248 115.155 86.0436 114.153 84.5368 112.337C83.6841 111.303 83.0365 109.995 82.53 108.537C90.0958 103.481 96.6743 96.1215 101.599 86.8944C109.838 71.4661 111.351 54.8404 105.369 45.5223C99.9892 37.1476 89.6406 35.7876 81.7798 38.1627C81.658 38.2018 81.549 38.2473 81.4271 38.2864V28.6819C81.4271 14.9064 72.0018 10 63.1728 10C58.6012 10 53.6065 11.4771 50.0479 15.082C46.5022 11.4901 41.4946 10 36.6601 10C32.2488 10 27.4464 11.386 23.92 14.7242C19.4574 10.013 12.8789 10 10 10V19.8387C15.3987 19.8387 18.7136 20.2682 18.7072 28.6819V97.8524H28.4018V28.6819C28.4018 28.5713 28.389 28.4802 28.389 28.3696H28.4018C28.4018 26.2612 28.4018 19.8387 36.6537 19.8387C44.2389 19.8387 45.2134 24.5629 45.2134 28.6819V97.8524H54.908V28.6819C54.908 28.5713 54.8952 28.4802 54.8952 28.3696H54.908C54.908 26.2612 54.908 19.8387 63.16 19.8387C70.7451 19.8387 71.7133 24.5629 71.7133 28.6819V101.483C71.7133 102.147 71.8095 102.746 71.8415 103.39C67.7059 105.27 62.9933 106.481 57.6266 106.481V116.32C63.2369 116.32 68.7254 115.2 73.9125 113.105C74.7589 115.155 75.7655 117.061 77.0928 118.669C80.4269 122.69 85.1716 125 90.1087 125C99.0787 125 108.158 117.523 108.158 103.227H98.4632C98.4632 111.426 94.1353 115.161 90.1151 115.161L90.1279 115.155ZM81.4271 49.1923C82.0619 48.457 84.9215 46.8497 89.1533 46.9734C91.2628 47.0189 95.1227 47.5915 97.245 50.8971C101.15 56.9813 99.3609 70.438 93.0773 82.2028C91.1217 85.8663 87.3067 91.97 81.4271 97.1431V49.1923Z" fill="#D451E0"/>
</g>
<path d="M90.1279 115.155C88.0248 115.155 86.0436 114.153 84.5368 112.337C83.6841 111.303 83.0365 109.995 82.53 108.537C90.0958 103.481 96.6743 96.1215 101.599 86.8944C109.838 71.4661 111.351 54.8404 105.369 45.5223C99.9892 37.1476 89.6406 35.7876 81.7798 38.1627C81.658 38.2018 81.549 38.2473 81.4271 38.2864V28.6819C81.4271 14.9064 72.0018 10 63.1728 10C58.6012 10 53.6065 11.4771 50.0479 15.082C46.5022 11.4901 41.4946 10 36.6601 10C32.2488 10 27.4464 11.386 23.92 14.7242C19.4574 10.013 12.8789 10 10 10V19.8387C15.3987 19.8387 18.7136 20.2682 18.7072 28.6819V97.8524H28.4018V28.6819C28.4018 28.5713 28.389 28.4802 28.389 28.3696H28.4018C28.4018 26.2612 28.4018 19.8387 36.6537 19.8387C44.2389 19.8387 45.2134 24.5629 45.2134 28.6819V97.8524H54.908V28.6819C54.908 28.5713 54.8952 28.4802 54.8952 28.3696H54.908C54.908 26.2612 54.908 19.8387 63.16 19.8387C70.7451 19.8387 71.7133 24.5629 71.7133 28.6819V101.483C71.7133 102.147 71.8095 102.746 71.8415 103.39C67.7059 105.27 62.9933 106.481 57.6266 106.481V116.32C63.2369 116.32 68.7254 115.2 73.9125 113.105C74.7589 115.155 75.7655 117.061 77.0928 118.669C80.4269 122.69 85.1716 125 90.1087 125C99.0787 125 108.158 117.523 108.158 103.227H98.4632C98.4632 111.426 94.1353 115.161 90.1151 115.161L90.1279 115.155ZM81.4271 49.1923C82.0619 48.457 84.9215 46.8497 89.1533 46.9734C91.2628 47.0189 95.1227 47.5915 97.245 50.8971C101.15 56.9813 99.3609 70.438 93.0773 82.2028C91.1217 85.8663 87.3067 91.97 81.4271 97.1431V49.1923Z" fill="#D451E0"/>
<defs>
<filter id="filter0_f_1296_8" x="0" y="0" width="119" height="135" filterUnits="userSpaceOnUse" color-interpolation-filters="sRGB">
<feFlood flood-opacity="0" result="BackgroundImageFix"/>
<feBlend mode="normal" in="SourceGraphic" in2="BackgroundImageFix" result="shape"/>
<feGaussianBlur stdDeviation="5" result="effect1_foregroundBlur_1296_8"/>
</filter>
</defs>
</svg>
