<svg xmlns="http://www.w3.org/2000/svg" width="71" height="71" viewBox="0 0 71 71" fill="none">

    <path
        d="M49.6626 66.8303C49.6626 66.6002 49.6626 66.3702 49.6626 66.1401C49.6626 63.1782 49.6626 63.207 46.8013 63.2357C45.9674 63.2357 45.6655 63.4514 45.6942 64.3141C45.7517 66.0251 45.723 67.7361 45.7086 69.4471C45.7086 70.238 45.5792 71.0431 44.5727 71C43.6813 70.9569 43.5518 70.238 43.5662 69.4759C43.5662 67.7217 43.5375 65.9532 43.5806 64.1991C43.595 63.4945 43.3937 63.2645 42.6604 63.2357C39.641 63.1351 39.641 63.1063 39.641 66.1258C39.641 67.276 39.641 68.4407 39.641 69.5909C39.641 70.353 39.4109 71.0431 38.5051 71C37.6999 70.9569 37.4842 70.3242 37.4842 69.6053C37.4842 67.808 37.4555 65.9964 37.4842 64.1991C37.4986 63.4802 37.2829 63.2645 36.5496 63.2357C33.5446 63.1351 33.5446 63.1063 33.5446 66.1401C33.5446 67.2904 33.5446 68.455 33.5446 69.6053C33.5446 70.3242 33.3433 70.9569 32.5237 71C31.6035 71.0431 31.3878 70.3674 31.3878 69.5909C31.3878 67.7936 31.3591 65.982 31.3878 64.1847C31.4022 63.4514 31.1578 63.2645 30.4388 63.2357C27.4338 63.1351 27.4482 63.1063 27.4482 66.1401C27.4482 67.2904 27.4482 68.455 27.4482 69.6053C27.4482 70.3386 27.2469 70.9569 26.4417 71C25.5215 71.0431 25.3202 70.3386 25.3058 69.5909C25.2914 67.8368 25.2627 66.0682 25.3058 64.3141C25.3346 63.437 25.0326 63.2357 24.1987 63.2357C21.3374 63.2213 21.3374 63.1782 21.3374 66.0107C21.3374 67.161 21.323 68.3256 21.3374 69.4759C21.3374 70.238 21.2367 70.9712 20.3309 71C19.3101 71.0431 19.2238 70.2236 19.2094 69.4471C19.2094 67.7361 19.1806 66.0251 19.2094 64.3141C19.2238 63.5952 19.0369 63.322 18.2461 63.1926C12.1209 62.1861 8.8139 58.8647 7.79304 52.6964C7.67801 51.9775 7.44796 51.7762 6.77218 51.7906C5.01803 51.8194 3.26388 51.805 1.49535 51.7906C0.776435 51.7906 6.95139e-06 51.7043 -0.0143713 50.7697C-0.0143713 49.7633 0.747678 49.6626 1.55286 49.677C3.26388 49.677 4.9749 49.6482 6.68591 49.6914C7.4192 49.7058 7.73553 49.562 7.74991 48.728C7.8218 45.7373 7.85055 45.7373 4.81673 45.7373C3.60896 45.7373 2.41556 45.7517 1.20778 45.723C0.56076 45.7086 -0.0287496 45.4498 -0.0287496 44.7021C-0.0287496 43.8825 0.517625 43.595 1.2653 43.595C3.01945 43.595 4.78798 43.5518 6.54213 43.595C7.37607 43.6237 7.74991 43.4656 7.74991 42.4879C7.74991 39.6409 7.79304 39.6409 4.94614 39.6409C3.83901 39.6409 2.73188 39.6409 1.61038 39.6409C0.833948 39.6409 -0.0143713 39.5978 -0.0287496 38.5913C-0.0431279 37.4986 0.848326 37.4698 1.66789 37.4698C3.29264 37.4698 4.903 37.4267 6.52775 37.4842C7.37607 37.513 7.73553 37.3404 7.73553 36.3771C7.73553 33.5446 7.77866 33.5446 4.93176 33.5446C3.82463 33.5446 2.7175 33.5446 1.596 33.5446C0.805191 33.5446 6.95139e-06 33.487 -0.0287496 32.4949C-0.0575062 31.4885 0.762056 31.3878 1.53848 31.3878C3.2495 31.3878 4.96052 31.3591 6.67153 31.3878C7.4192 31.4022 7.70677 31.2296 7.73553 30.3957C7.80742 27.4338 7.83617 27.4338 4.93176 27.4338C3.72398 27.4338 2.53059 27.4338 1.32281 27.4338C0.589517 27.4338 -0.0143713 27.2037 -0.0431279 26.3985C-0.0718845 25.5646 0.56076 25.3058 1.2653 25.3058C3.06258 25.277 4.87425 25.2627 6.67153 25.3058C7.4192 25.3202 7.70677 25.1333 7.72115 24.3137C7.79304 21.3518 7.8218 21.3518 4.91738 21.3518C3.66647 21.3518 2.41556 21.3518 1.16465 21.3518C0.474491 21.3518 -0.0287496 21.0498 -0.0718845 20.3309C-0.115019 19.5689 0.445734 19.2669 1.10714 19.2525C2.86129 19.2238 4.62982 19.195 6.38397 19.2525C7.23229 19.2813 7.63488 19.1375 7.79304 18.131C8.69887 12.2791 12.2359 8.78514 18.1454 7.85055C19.0081 7.72114 19.195 7.4192 19.1663 6.64277C19.1231 4.97489 19.1519 3.30701 19.1663 1.6535C19.1663 0.891454 19.195 0.0287566 20.2159 0.0287566C21.2224 0.0287566 21.2943 0.833941 21.2799 1.62475C21.2799 3.33576 21.3086 5.04678 21.2655 6.7578C21.2367 7.51985 21.4524 7.77866 22.2576 7.79303C25.2195 7.85055 25.2195 7.89368 25.2195 4.97489C25.2195 3.82463 25.2195 2.65998 25.2195 1.50972C25.2195 0.776428 25.3633 0.0287566 26.2835 0.0287566C27.1894 0.0287566 27.3763 0.704536 27.3619 1.48096C27.3619 3.23512 27.3907 5.00364 27.3475 6.7578C27.3331 7.51985 27.5344 7.77866 28.3396 7.79303C31.3015 7.85055 31.2872 7.89368 31.2872 4.97489C31.2872 3.76711 31.2872 2.57371 31.2872 1.36594C31.2872 0.647023 31.5316 0.0287566 32.3512 0.0287566C33.1707 0.0287566 33.4295 0.618267 33.4295 1.35156C33.4295 3.14885 33.4727 4.96051 33.4295 6.7578C33.4152 7.51985 33.6308 7.77866 34.436 7.79303C37.3836 7.85055 37.3692 7.89368 37.3836 4.96051C37.3836 3.75273 37.3836 2.55934 37.3836 1.35156C37.3836 0.618267 37.6424 0.0287566 38.4619 0.0143783C39.2959 0.0143783 39.5259 0.632645 39.5403 1.35156C39.5403 3.14885 39.5834 4.96051 39.5403 6.7578C39.5259 7.53422 39.7704 7.76428 40.5612 7.77866C43.4943 7.83617 43.4943 7.86493 43.4943 4.94613C43.4943 3.73836 43.4943 2.54496 43.4943 1.33718C43.4943 0.603888 43.7531 0.0143783 44.5583 0C45.3923 0 45.6223 0.632645 45.6223 1.33718C45.6367 3.13447 45.6655 4.94613 45.6223 6.74342C45.6079 7.53422 45.8811 7.7499 46.6576 7.76428C49.5907 7.82179 49.5907 7.85055 49.5907 4.93175C49.5907 3.78149 49.5907 2.61685 49.5907 1.46659C49.5907 0.690158 49.7489 0 50.6547 0C51.5893 0 51.7043 0.747671 51.7187 1.48096C51.7187 3.19198 51.7475 4.903 51.7187 6.61401C51.7043 7.37606 51.8625 7.69239 52.7396 7.83617C58.7209 8.78514 62.1574 12.2215 63.1207 18.2461C63.2645 19.1375 63.6239 19.2525 64.3572 19.2382C66.0683 19.2094 67.7793 19.2238 69.4903 19.2382C70.2236 19.2382 70.9713 19.3819 70.9425 20.3165C70.9137 21.2224 70.2092 21.3661 69.4472 21.3518C67.7361 21.3374 66.0251 21.3805 64.3141 21.3374C63.5377 21.323 63.1782 21.438 63.1638 22.3726C63.1351 25.3058 63.0919 25.3058 66.0251 25.3058C67.2329 25.3058 68.4263 25.3058 69.6341 25.3058C70.3386 25.3058 70.9713 25.5646 70.9425 26.3985C70.9137 27.2037 70.3242 27.4482 69.5909 27.4482C67.8368 27.4482 66.0683 27.4769 64.3141 27.4482C63.5377 27.4338 63.1782 27.5488 63.1638 28.4834C63.1351 31.4022 63.0919 31.4022 66.0251 31.4022C67.2329 31.4022 68.4263 31.4022 69.6341 31.4022C70.353 31.4022 70.9713 31.6754 70.9425 32.4949C70.9137 33.3145 70.3099 33.5446 69.5909 33.5446C67.8368 33.5446 66.0683 33.5733 64.3141 33.5446C63.5377 33.5302 63.1782 33.6452 63.1638 34.5798C63.1351 37.4842 63.0919 37.4842 66.0395 37.4842C67.0604 37.4842 68.0812 37.4842 69.0877 37.4842C69.9216 37.4842 70.9569 37.3979 70.9281 38.5913C70.8994 39.7704 69.8497 39.6266 69.0302 39.6409C67.4629 39.6409 65.8813 39.6841 64.3141 39.6409C63.5233 39.6122 63.1782 39.7847 63.1782 40.6906C63.1495 43.595 63.1063 43.595 66.0539 43.595C67.2041 43.595 68.3688 43.595 69.519 43.595C70.2955 43.595 70.9569 43.7963 70.9569 44.7021C70.9569 45.536 70.2811 45.7373 69.5909 45.7373C67.8799 45.7517 66.1689 45.7949 64.4579 45.7373C63.5233 45.7086 63.1782 45.9243 63.1926 46.9451C63.2214 49.7058 63.1638 49.7058 65.9245 49.7058C67.1754 49.7058 68.4263 49.7058 69.6772 49.7058C70.4249 49.7058 70.9856 49.9789 70.9856 50.7985C70.9856 51.5606 70.3961 51.805 69.7491 51.805C67.9518 51.8337 66.1401 51.8625 64.3429 51.805C63.5377 51.7762 63.2932 52.035 63.1495 52.8546C62.2149 58.7497 58.7353 62.258 52.8546 63.1926C51.9344 63.3364 51.7331 63.6527 51.7619 64.4866C51.8194 66.1545 51.7762 67.8224 51.7619 69.4759C51.7619 70.2523 51.6612 71.0719 50.6403 71.0288C49.7345 70.9856 49.6195 70.2523 49.6482 69.5047C49.6626 68.6276 49.6482 67.7505 49.6482 66.8734L49.6626 66.8303ZM35.5144 61.0934C40.7912 61.0934 46.0537 61.1221 51.3305 61.0934C57.1393 61.0646 61.0934 57.125 61.0934 51.3449C61.1221 40.8056 61.1221 30.2663 61.0934 19.7126C61.0934 13.8463 57.1393 9.92102 51.2442 9.90664C40.7481 9.89226 30.2519 9.89226 19.7558 9.90664C13.8751 9.90664 9.92103 13.8463 9.92103 19.727C9.90665 30.2232 9.90665 40.7193 9.92103 51.2155C9.92103 57.1681 13.8463 61.079 19.842 61.0934C25.0614 61.1077 30.2951 61.0934 35.5144 61.0934Z"
        fill="#4595D1" />
    <path
        d="M35.4134 58.3471C30.3235 58.3471 25.2336 58.2177 20.1581 58.3902C15.6145 58.5484 12.5663 55.227 12.6238 50.9279C12.7676 40.6618 12.667 30.3957 12.667 20.1296C12.667 15.2841 15.2695 12.6816 20.1149 12.6672C24.0977 12.6672 28.0661 12.6672 32.0489 12.6672C32.3221 12.6672 32.6097 12.6672 32.8829 12.6672C33.5586 12.6672 34.105 12.926 34.105 13.6881C34.105 14.4214 33.5874 14.709 32.8829 14.709C31.445 14.709 30.0072 14.7665 28.5837 14.6946C27.6492 14.6514 27.376 14.9965 27.4479 15.8736C27.5198 16.7938 27.4479 17.7284 27.4479 18.6486C27.4479 19.3388 27.1603 19.8708 26.4558 19.9283C25.6362 19.9858 25.3343 19.3819 25.3199 18.663C25.2911 17.6996 25.2767 16.7219 25.3199 15.7442C25.3486 14.9965 25.133 14.6658 24.3134 14.6946C22.6455 14.7521 20.9776 14.6658 19.3241 14.7233C16.7648 14.824 14.7806 16.6788 14.7518 19.2094C14.6799 27.0311 14.7375 34.8386 14.7087 42.6604C14.7087 43.4368 15.0106 43.5806 15.7008 43.5662C17.3687 43.5374 19.0366 43.5662 20.6901 43.5662C21.4377 43.5662 22.171 43.6525 22.1998 44.587C22.2429 45.6223 21.4377 45.7085 20.6613 45.7229C18.9934 45.7229 17.3255 45.7517 15.672 45.7229C14.9531 45.7085 14.6943 45.953 14.7231 46.6863C14.7662 48.3542 14.6943 50.022 14.7518 51.6755C14.8381 54.2924 16.736 56.2047 19.3385 56.3053C21.0064 56.3772 22.6743 56.2766 24.3278 56.3341C25.1617 56.3629 25.3343 56.0322 25.3343 55.2845C25.3055 52.0494 25.3199 48.8143 25.3343 45.5648C25.3343 43.8106 25.5787 43.5806 27.3472 43.5806C31.33 43.5806 35.2984 43.5662 39.2812 43.5806C40.0145 43.5806 40.4027 43.408 40.7478 42.7035C41.6967 40.748 43.7672 39.8278 45.7083 40.3454C47.6781 40.8631 49.0584 42.6028 49.1016 44.587C49.1303 46.6 47.7213 48.3829 45.6795 48.9149C43.681 49.4181 41.7255 48.5411 40.7334 46.5569C40.4027 45.9098 40.0576 45.7085 39.3675 45.7229C35.7585 45.7517 32.1496 45.7661 28.5406 45.7229C27.6779 45.7229 27.4479 45.9961 27.4622 46.8301C27.5054 49.6051 27.5054 52.3801 27.4622 55.1551C27.4479 56.0178 27.6348 56.3629 28.5981 56.3485C33.2279 56.3053 37.8434 56.3053 42.4732 56.3485C43.4078 56.3485 43.681 56.0465 43.6091 55.1695C43.5372 54.2493 43.6091 53.3147 43.6091 52.3945C43.6091 51.7043 43.8966 51.1723 44.6012 51.1148C45.4207 51.0573 45.7227 51.6612 45.737 52.3801C45.7658 53.3003 45.7946 54.2349 45.737 55.1551C45.6795 56.0322 45.9383 56.3916 46.8873 56.3485C48.4114 56.2766 49.9355 56.3485 51.4596 56.3197C54.3784 56.2622 56.3051 54.3355 56.3339 51.4024C56.3626 47.2902 56.3339 43.1636 56.3339 39.0514C56.3339 38.7207 56.3339 38.4044 56.3339 38.0737C56.3339 37.4267 56.6358 36.9809 57.2972 36.9378C58.0592 36.8947 58.3756 37.3979 58.3612 38.0881C58.3612 42.9479 58.4618 47.8078 58.2605 52.6533C58.1311 55.9028 55.1404 58.3183 51.5315 58.3471C46.1684 58.3902 40.8053 58.3471 35.4422 58.3471H35.4134ZM46.9017 44.6877C46.9304 43.3936 46.0102 42.3872 44.7306 42.344C43.3934 42.3009 42.3581 43.293 42.3581 44.6302C42.3581 45.9098 43.3215 46.8876 44.6155 46.9019C45.9096 46.9019 46.8873 45.9817 46.9161 44.6877H46.9017Z"
        fill="#4595D1" />
    <path
        d="M45.2488 12.6528C47.1899 12.6528 49.1309 12.6528 51.072 12.6528C55.6587 12.6816 58.3186 15.3128 58.333 19.8707C58.3474 23.9829 58.333 28.0951 58.333 32.2217C58.333 33.0268 58.5199 34.1052 57.269 34.0765C56.1475 34.0477 56.2913 33.07 56.2913 32.2792C56.2913 30.9851 56.2626 29.6911 56.2913 28.397C56.3201 27.6781 56.09 27.4193 55.3567 27.4337C53.8326 27.4768 52.3085 27.4624 50.7844 27.4337C49.9361 27.4337 48.8002 27.6637 48.829 26.3409C48.8577 25.0325 50.0224 25.3201 50.8563 25.3057C52.2941 25.2769 53.732 25.2482 55.1554 25.3057C56.09 25.3488 56.3344 25.0038 56.3057 24.1123C56.2482 22.5451 56.3201 20.9635 56.2769 19.3962C56.1907 16.7075 54.2927 14.7952 51.604 14.7089C49.9936 14.6514 48.3689 14.752 46.7441 14.6801C45.8383 14.637 45.6658 15.0108 45.6801 15.816C45.7089 19.0511 45.6945 22.2863 45.6801 25.5214C45.6801 27.1749 45.4069 27.4337 43.7391 27.4337C39.7563 27.4337 35.7879 27.4481 31.8051 27.4337C31.0287 27.4337 30.5973 27.6062 30.2235 28.3683C29.3176 30.2518 27.2759 31.1577 25.3636 30.6832C23.3506 30.1943 21.8984 28.3683 21.8984 26.3553C21.8984 24.3855 23.2788 22.6457 25.2486 22.1137C27.2472 21.5817 29.2457 22.4444 30.2235 24.3855C30.5685 25.0613 30.928 25.3057 31.6757 25.2913C35.2415 25.2482 38.7929 25.2482 42.3587 25.2913C43.2646 25.2913 43.5378 25.0325 43.5234 24.1267C43.4659 21.3517 43.4659 18.5767 43.5234 15.8017C43.5378 14.8527 43.2071 14.6226 42.33 14.6658C40.9928 14.7233 39.6556 14.6658 38.3041 14.6801C37.5276 14.6801 36.8519 14.5364 36.8519 13.6162C36.8519 12.7535 37.542 12.6384 38.2466 12.6384C40.5615 12.6384 42.8764 12.6384 45.1769 12.6384L45.2488 12.6528ZM28.6562 26.3985C28.6706 25.1044 27.7216 24.1267 26.442 24.0979C25.1336 24.0692 24.1558 24.9894 24.0983 26.269C24.0552 27.6206 25.0329 28.6558 26.3701 28.6558C27.6498 28.6558 28.6275 27.6925 28.6562 26.4128V26.3985Z"
        fill="#4595D1" />
    <path
        d="M39.9294 35.4713C39.9437 37.8581 37.9308 39.8998 35.5296 39.9286C33.1428 39.9429 31.0867 37.9156 31.0723 35.5288C31.058 33.142 33.0853 31.0859 35.4721 31.0715C37.8589 31.0715 39.9006 33.0701 39.9294 35.4713ZM33.2291 35.4713C33.2291 36.7797 34.1637 37.7574 35.4721 37.7718C36.7805 37.7718 37.7582 36.8372 37.7726 35.5288C37.7726 34.2204 36.838 33.2427 35.5296 33.2283C34.2212 33.2283 33.2435 34.1629 33.2291 35.4713Z"
        fill="#4595D1" />

</svg>