<svg xmlns="http://www.w3.org/2000/svg" width="71" height="71" viewBox="0 0 71 71" fill="none">

    <path
        d="M61.0067 51.3752C61.0719 49.4788 61.9197 48.0134 63.8598 47.1945C64.5934 46.8784 64.8217 46.5336 64.8217 45.844C64.7891 38.9624 64.7891 32.0664 64.8217 25.1848C64.8217 24.5096 64.626 24.136 63.8924 23.82C61.8545 22.9436 60.8926 21.4064 61.1046 19.4238C61.1698 18.7916 60.9741 18.5187 60.4035 18.2313C53.6051 14.769 46.8067 11.2922 40.041 7.80115C39.3725 7.45635 38.965 7.58565 38.378 7.93045C36.4869 9.06541 34.5142 9.06542 32.672 7.91608C31.9709 7.48508 31.5144 7.55692 30.8623 7.90172C24.2106 11.321 17.559 14.7115 10.891 18.102C10.2063 18.4468 9.86391 18.7629 9.96173 19.5818C10.19 21.5788 8.65748 23.4895 6.57069 24.0786C4.35347 24.6963 1.8917 23.8631 0.717874 22.096C-0.40704 20.4007 -0.0972815 18.2744 1.45151 16.8521C3.08182 15.3724 5.62511 15.0419 7.63039 16.22C8.47815 16.7228 9.01615 16.6654 9.83131 16.2487C16.3852 12.8582 22.939 9.49641 29.5255 6.17772C30.3569 5.76108 30.6341 5.35882 30.5689 4.46808C30.3895 2.05449 32.7046 0.028789 35.4435 5.57106e-05C38.2639 -0.0286776 40.6442 2.01139 40.4648 4.49682C40.3996 5.41628 40.7257 5.77545 41.5408 6.19208C48.1273 9.52515 54.6974 12.8726 61.235 16.2631C62.0664 16.6941 62.6044 16.6941 63.4359 16.22C65.7999 14.8695 68.8485 15.5591 70.2669 17.6423C71.7342 19.7973 70.9516 22.5126 68.392 23.705C67.5117 24.1073 67.2182 24.5096 67.2182 25.3716C67.2671 32.1239 67.2671 38.8619 67.2182 45.6142C67.2182 46.4618 67.5117 46.8784 68.3757 47.2807C70.9516 48.4731 71.7179 51.1884 70.2506 53.3434C68.8322 55.441 65.7835 56.1449 63.4196 54.7657C62.4903 54.2198 61.9197 54.3635 61.0883 54.7945C54.5833 58.1563 48.0621 61.4893 41.5245 64.7937C40.7094 65.2103 40.367 65.5695 40.4485 66.4889C40.6279 68.9744 38.2476 71.0144 35.4272 70.9857C32.623 70.957 30.3406 68.8738 30.5362 66.374C30.6015 65.5838 30.3243 65.239 29.6233 64.8799C22.9553 61.4893 16.3036 58.0988 9.65197 54.6652C8.95094 54.306 8.47815 54.2485 7.72821 54.6795C5.21753 56.1306 2.08733 55.4553 0.668964 53.2429C-0.733102 51.0591 0.114659 48.4013 2.72315 47.2232C3.58722 46.8354 3.76655 46.39 3.76655 45.6285C3.73395 40.0399 3.76655 34.4513 3.76655 28.8483C3.76655 28.4317 3.73395 28.015 3.81546 27.5984C3.92958 27.0525 4.32086 26.6502 4.97298 26.6502C5.62511 26.6502 6.04899 27.0237 6.14681 27.584C6.22832 27.9863 6.19572 28.4173 6.19572 28.8339C6.19572 34.3795 6.21202 39.925 6.19572 45.4705C6.19572 46.3181 6.34244 46.8354 7.35324 47.2807C9.2607 48.114 10.1411 49.6512 9.91282 51.5189C9.83131 52.2372 10.1248 52.4958 10.7117 52.7975C17.4612 56.2455 24.2106 59.6935 30.9438 63.1559C31.5633 63.4719 31.9872 63.4576 32.6067 63.084C34.5305 61.906 36.5358 61.9203 38.4432 63.1271C39.0139 63.4863 39.4051 63.4863 39.9757 63.199C46.7578 59.7079 53.5399 56.2311 60.3546 52.7831C61.1209 52.3952 61.235 51.9642 60.9904 51.3608L61.0067 51.3752ZM35.4924 6.65182C36.9434 6.65182 38.052 5.66052 38.052 4.35315C38.052 3.10325 36.9923 2.15505 35.5902 2.12632C34.1229 2.08322 32.9654 3.04579 32.9491 4.33879C32.9328 5.64615 34.0414 6.65182 35.4924 6.65182ZM5.00559 17.6567C3.53831 17.6567 2.4297 18.6336 2.4297 19.9266C2.4297 21.1621 3.4894 22.1391 4.87516 22.1822C6.32614 22.2396 7.48366 21.2483 7.51627 19.9697C7.54887 18.6623 6.47287 17.671 4.98929 17.6567H5.00559ZM68.5714 19.9553C68.604 18.648 67.5117 17.6567 66.0444 17.6567C64.6423 17.6567 63.5337 18.5761 63.4848 19.7973C63.4196 21.1047 64.4956 22.1391 65.9303 22.1822C67.3649 22.2253 68.5388 21.2483 68.5714 19.9553ZM7.53257 51.1597C7.56518 49.8523 6.47287 48.8323 5.02189 48.8179C3.57092 48.8036 2.4297 49.7949 2.4297 51.0879C2.4297 52.3234 3.4731 53.3003 4.85886 53.3434C6.32614 53.4009 7.49996 52.4383 7.51627 51.1597H7.53257ZM68.5714 51.1166C68.5714 49.8236 67.4628 48.8179 66.0118 48.8179C64.5608 48.8179 63.4522 49.8236 63.4685 51.131C63.4685 52.3665 64.5445 53.3147 65.9466 53.3578C67.4139 53.3865 68.5551 52.424 68.5714 51.131V51.1166ZM38.052 66.6613C38.0683 65.354 36.976 64.3483 35.5087 64.3483C34.0577 64.3483 32.9491 65.3396 32.9491 66.647C32.9491 67.8969 34.0088 68.8451 35.4109 68.8738C36.8782 68.9169 38.0357 67.9543 38.052 66.6613Z"
        fill="#4595D1" />
    <path
        d="M12.8625 35.4282C12.8625 32.052 12.8951 28.6758 12.8462 25.314C12.8462 24.3515 13.2212 23.7912 14.1504 23.3314C20.8347 19.9696 27.5027 16.5791 34.138 13.1598C35.1162 12.657 35.9151 12.657 36.8933 13.1598C43.5449 16.5791 50.2129 19.9696 56.8809 23.3314C57.8101 23.8055 58.1851 24.3802 58.1851 25.3284C58.1525 32.1238 58.1525 38.9049 58.1851 45.7003C58.1851 46.6629 57.8101 47.2232 56.8809 47.6973C50.164 51.0878 43.4471 54.5071 36.7465 57.9407C35.8662 58.3861 35.1325 58.3861 34.2685 57.9407C27.5679 54.5071 20.8673 51.0878 14.1504 47.6973C13.2212 47.2232 12.8299 46.6629 12.8462 45.7003C12.8951 42.281 12.8625 38.8618 12.8625 35.4425V35.4282ZM15.4058 26.7076C15.3732 26.88 15.308 27.0524 15.308 27.2248C15.308 33.1439 15.308 39.0485 15.2754 44.9676C15.2754 45.7865 15.7807 46.0738 16.4329 46.4043C22.4161 49.4356 28.4157 52.467 34.3826 55.5415C35.214 55.9725 35.801 56.0012 36.6487 55.5702C42.6157 52.4957 48.5826 49.45 54.5984 46.4474C55.5277 45.9876 55.7722 45.4704 55.7722 44.5941C55.7396 39.0486 55.7722 33.503 55.7396 27.9575C55.7396 27.5409 55.9516 27.0524 55.4788 26.6645C55.3158 26.722 55.169 26.7507 55.0386 26.8082C49.2347 29.7533 43.4471 32.7272 37.6106 35.6293C36.8117 36.0315 36.7465 36.5488 36.7465 37.224C36.7465 41.85 36.7465 46.4617 36.7465 51.0878C36.7465 51.5044 36.7791 51.9354 36.6813 52.3233C36.5509 52.8693 36.127 53.2284 35.4586 53.1997C34.8717 53.171 34.4804 52.8262 34.3663 52.3377C34.2685 51.9354 34.3011 51.5188 34.3011 51.1022C34.3011 46.5336 34.2685 41.9506 34.3174 37.382C34.3174 36.4482 34.0402 35.9023 33.062 35.4138C27.6331 32.7272 22.2694 29.9401 16.8568 27.2104C16.4166 26.9949 16.0416 26.6214 15.4058 26.6932V26.7076ZM54.3376 24.4664C48.2891 21.3919 42.2244 18.3031 36.1596 15.2143C35.6868 14.97 35.3282 14.9844 34.8554 15.2143C28.7906 18.3175 22.7259 21.3919 16.6285 24.4951C16.7915 24.6532 16.8568 24.7968 16.9872 24.8543C22.9215 27.8713 28.8558 30.8883 34.7739 33.9197C35.4586 34.2788 35.9477 34.0633 36.502 33.776C42.2081 30.8739 47.9142 27.9575 53.6202 25.0554C53.8811 24.9261 54.1909 24.8256 54.3376 24.452V24.4664Z"
        fill="#4595D1" />

</svg>