<svg xmlns="http://www.w3.org/2000/svg" width="71" height="67" viewBox="0 0 71 67" fill="none">

    <path
        d="M11.8055 5.83922C11.8222 9.00904 9.13919 11.7284 5.93631 11.7451C2.7502 11.7618 0.0168467 9.09246 7.77e-05 5.90595C-0.0166913 2.73613 2.68312 0.0167606 5.86923 7.73027e-05C9.05534 -0.016606 11.7887 2.6694 11.8055 5.83922ZM2.86758 5.83922C2.86758 7.59096 4.10849 8.87558 5.85246 8.89226C7.61321 8.89226 8.90442 7.6577 8.92119 5.92264C8.92119 4.17089 7.68028 2.88628 5.91954 2.8696C4.15879 2.8696 2.86758 4.10416 2.85081 5.83922H2.86758Z"
        fill="#4595D1" />
    <path
        d="M31.542 5.8391C31.5588 9.00892 28.8757 11.7283 25.6729 11.745C22.4868 11.7617 19.7534 9.07565 19.7366 5.90583C19.7031 2.73601 22.4029 0.0166385 25.6058 -4.47676e-05C28.7919 -0.016728 31.5253 2.66928 31.542 5.8391ZM22.6041 5.8391C22.6041 7.59084 23.845 8.87545 25.589 8.89214C27.3498 8.89214 28.641 7.65758 28.6578 5.92252C28.6578 4.17077 27.4168 2.88616 25.6561 2.86948C23.8954 2.86948 22.6041 4.10404 22.5874 5.8391H22.6041Z"
        fill="#4595D1" />
    <path
        d="M51.2625 5.8391C51.2793 9.00892 48.5962 11.7283 45.3933 11.745C42.2072 11.7617 39.4739 9.07565 39.4571 5.90583C39.4403 2.73601 42.1402 0.0166385 45.3263 -4.47676e-05C48.5124 -0.016728 51.2457 2.66928 51.2625 5.8391ZM42.3246 5.8391C42.3246 7.59084 43.5655 8.87545 45.3095 8.89214C47.0702 8.89214 48.3615 7.65758 48.3782 5.92252C48.3782 4.17077 47.1373 2.88616 45.3766 2.86948C43.6158 2.86948 42.3246 4.10404 42.3078 5.8391H42.3246Z"
        fill="#4595D1" />
    <path
        d="M71.0008 5.8391C71.0175 9.00892 68.3345 11.7283 65.1316 11.745C61.9455 11.7617 59.2122 9.07565 59.1954 5.90583C59.1786 2.73601 61.8784 0.0166385 65.0645 -4.47676e-05C68.2507 -0.016728 70.984 2.66928 71.0008 5.8391ZM62.0629 5.8391C62.0629 7.59084 63.3038 8.87545 65.0478 8.89214C66.8085 8.89214 68.0997 7.65758 68.1165 5.92252C68.1165 4.17077 66.8756 2.88616 65.1149 2.86948C63.3541 2.86948 62.0629 4.10404 62.0461 5.8391H62.0629Z"
        fill="#4595D1" />
    <path
        d="M11.8055 24.2574C11.8222 27.4273 9.13919 30.1466 5.93631 30.1633C2.7502 30.18 0.0168467 27.494 7.77e-05 24.3242C-0.0166913 21.1543 2.68312 18.435 5.86923 18.4183C9.05534 18.4016 11.7887 21.0876 11.8055 24.2574ZM2.86758 24.2574C2.86758 26.0092 4.10849 27.2938 5.85246 27.3105C7.61321 27.3105 8.90442 26.0759 8.92119 24.3409C8.92119 22.5891 7.68028 21.3045 5.91954 21.2878C4.15879 21.2878 2.86758 22.5224 2.85081 24.2574H2.86758Z"
        fill="#4595D1" />
    <path
        d="M31.5418 24.2574C31.5586 27.4273 28.8755 30.1466 25.6726 30.1633C22.4865 30.18 19.7532 27.494 19.7364 24.3242C19.7196 21.1543 22.4194 18.435 25.6056 18.4183C28.7917 18.4016 31.525 21.0876 31.5418 24.2574ZM22.6039 24.2574C22.6039 26.0092 23.8448 27.2938 25.5888 27.3105C27.3495 27.3105 28.6408 26.0759 28.6575 24.3409C28.6575 22.5891 27.4166 21.3045 25.6559 21.2878C23.8951 21.2878 22.6039 22.5224 22.5871 24.2574H22.6039Z"
        fill="#4595D1" />
    <path
        d="M51.2625 24.2574C51.2793 27.4273 48.5962 30.1466 45.3933 30.1633C42.2072 30.18 39.4739 27.494 39.4571 24.3242C39.4403 21.1543 42.1402 18.435 45.3263 18.4183C48.5124 18.4016 51.2457 21.0876 51.2625 24.2574ZM42.3246 24.2574C42.3246 26.0092 43.5655 27.2938 45.3095 27.3105C47.0702 27.3105 48.3615 26.0759 48.3782 24.3409C48.3782 22.5891 47.1373 21.3045 45.3766 21.2878C43.6158 21.2878 42.3246 22.5224 42.3078 24.2574H42.3246Z"
        fill="#4595D1" />
    <path
        d="M71.0008 24.2574C71.0175 27.4273 68.3345 30.1466 65.1316 30.1633C61.9455 30.18 59.2122 27.494 59.1954 24.3242C59.1786 21.1543 61.8784 18.435 65.0645 18.4183C68.2507 18.4016 70.984 21.0876 71.0008 24.2574ZM62.0629 24.2574C62.0629 26.0092 63.3038 27.2938 65.0478 27.3105C66.8085 27.3105 68.0997 26.0759 68.1165 24.3409C68.1165 22.5891 66.8756 21.3045 65.1149 21.2878C63.3541 21.2878 62.0629 22.5224 62.0461 24.2574H62.0629Z"
        fill="#4595D1" />
    <path
        d="M11.8055 42.6758C11.8222 45.8456 9.13919 48.565 5.93631 48.5816C2.7502 48.5983 0.0168467 45.9123 7.77e-05 42.7425C-0.0166913 39.5727 2.68312 36.8533 5.86923 36.8366C9.05534 36.8199 11.7887 39.5059 11.8055 42.6758ZM2.86758 42.6758C2.86758 44.4275 4.10849 45.7121 5.85246 45.7288C7.61321 45.7288 8.90442 44.4942 8.92119 42.7592C8.92119 41.0074 7.68028 39.7228 5.91954 39.7061C4.15879 39.7061 2.86758 40.9407 2.85081 42.6758H2.86758Z"
        fill="#4595D1" />
    <path
        d="M31.5418 42.6758C31.5586 45.8456 28.8755 48.565 25.6726 48.5816C22.4865 48.5983 19.7532 45.9123 19.7364 42.7425C19.7196 39.5727 22.4194 36.8533 25.6056 36.8366C28.7917 36.8199 31.525 39.5059 31.5418 42.6758ZM22.6039 42.6758C22.6039 44.4275 23.8448 45.7121 25.5888 45.7288C27.3495 45.7288 28.6408 44.4942 28.6575 42.7592C28.6575 41.0074 27.4166 39.7228 25.6559 39.7061C23.8951 39.7061 22.6039 40.9407 22.5871 42.6758H22.6039Z"
        fill="#4595D1" />
    <path
        d="M51.2625 42.6758C51.2793 45.8456 48.5962 48.565 45.3933 48.5816C42.2072 48.5983 39.4739 45.9123 39.4571 42.7425C39.4403 39.5727 42.1402 36.8533 45.3263 36.8366C48.5124 36.8199 51.2457 39.5059 51.2625 42.6758ZM42.3246 42.6758C42.3246 44.4275 43.5655 45.7121 45.3095 45.7288C47.0702 45.7288 48.3615 44.4942 48.3782 42.7592C48.3782 41.0074 47.1373 39.7228 45.3766 39.7061C43.6158 39.7061 42.3246 40.9407 42.3078 42.6758H42.3246Z"
        fill="#4595D1" />
    <path
        d="M71.0008 42.6758C71.0175 45.8456 68.3345 48.565 65.1316 48.5816C61.9455 48.5983 59.2122 45.9123 59.1954 42.7425C59.1786 39.5727 61.8784 36.8533 65.0645 36.8366C68.2507 36.8199 70.984 39.5059 71.0008 42.6758ZM62.0629 42.6758C62.0629 44.4275 63.3038 45.7121 65.0478 45.7288C66.8085 45.7288 68.0997 44.4942 68.1165 42.7592C68.1165 41.0074 66.8756 39.7228 65.1149 39.7061C63.3541 39.7061 62.0629 40.9407 62.0461 42.6758H62.0629Z"
        fill="#4595D1" />
    <path
        d="M11.8055 61.0941C11.8222 64.2639 9.13919 66.9833 5.93631 67C2.7502 67.0167 0.0168467 64.3307 7.77e-05 61.1608C-0.0166913 57.991 2.68312 55.2716 5.86923 55.255C9.05534 55.2383 11.7887 57.9243 11.8055 61.0941ZM2.86758 61.0941C2.86758 62.8458 4.10849 64.1305 5.85246 64.1471C7.61321 64.1471 8.90442 62.9126 8.92119 61.1775C8.92119 59.4258 7.68028 58.1412 5.91954 58.1245C4.15879 58.1245 2.86758 59.359 2.85081 61.0941H2.86758Z"
        fill="#4595D1" />
    <path
        d="M31.5418 61.0941C31.5586 64.2639 28.8755 66.9833 25.6726 67C22.4865 67.0167 19.7532 64.3307 19.7364 61.1608C19.7196 57.991 22.4194 55.2716 25.6056 55.255C28.7917 55.2383 31.525 57.9243 31.5418 61.0941ZM22.6039 61.0941C22.6039 62.8458 23.8448 64.1305 25.5888 64.1471C27.3495 64.1471 28.6408 62.9126 28.6575 61.1775C28.6575 59.4258 27.4166 58.1412 25.6559 58.1245C23.8951 58.1245 22.6039 59.359 22.5871 61.0941H22.6039Z"
        fill="#4595D1" />
    <path
        d="M51.2625 61.0941C51.2793 64.2639 48.5962 66.9833 45.3933 67C42.2072 67.0167 39.4739 64.3307 39.4571 61.1608C39.4403 57.991 42.1402 55.2716 45.3263 55.255C48.5124 55.2383 51.2457 57.9243 51.2625 61.0941ZM42.3246 61.0941C42.3246 62.8458 43.5655 64.1305 45.3095 64.1471C47.0702 64.1471 48.3615 62.9126 48.3782 61.1775C48.3782 59.4258 47.1373 58.1412 45.3766 58.1245C43.6158 58.1245 42.3246 59.359 42.3078 61.0941H42.3246Z"
        fill="#4595D1" />
    <path
        d="M71.0008 61.0941C71.0175 64.2639 68.3345 66.9833 65.1316 67C61.9455 67.0167 59.2122 64.3307 59.1954 61.1608C59.1786 57.991 61.8784 55.2716 65.0645 55.255C68.2507 55.2383 70.984 57.9243 71.0008 61.0941ZM62.0629 61.0941C62.0629 62.8458 63.3038 64.1305 65.0478 64.1471C66.8085 64.1471 68.0997 62.9126 68.1165 61.1775C68.1165 59.4258 66.8756 58.1412 65.1149 58.1245C63.3541 58.1245 62.0629 59.359 62.0461 61.0941H62.0629Z"
        fill="#4595D1" />

</svg>