<svg xmlns="http://www.w3.org/2000/svg" width="93" height="93" viewBox="0 0 93 93" fill="none">

    <path
        d="M62.6408 84.0284C61.2791 82.186 59.9173 80.3036 58.5155 78.4612C58.155 78.0206 57.7545 77.5801 57.2739 77.2196C55.6718 76.0581 54.0698 74.9367 52.4677 73.7752C51.4664 73.0542 51.4264 72.4134 52.3075 71.4922C52.4677 71.332 52.668 71.2119 52.7881 71.0116C53.6292 69.7299 54.8708 69.6098 56.2726 69.8501C56.9535 69.9703 57.6744 70.0504 58.3953 70.0504C58.6357 70.0504 58.9961 69.9703 59.1563 69.77C60.2778 68.6886 61.3592 67.6072 62.4806 66.4858C62.2804 66.3256 62.1202 66.1653 61.9599 66.0051C58.7959 63.4418 55.6718 60.9186 52.5077 58.3553C51.4664 57.5142 51.5065 56.9935 52.3876 55.9522C53.3889 54.7106 54.5103 54.4302 56.0723 54.7506C60.9987 55.7519 65.9251 56.593 70.8514 57.4741C71.0917 57.5142 71.4522 57.394 71.6525 57.2338C72.5336 56.4328 73.3346 55.5116 74.2158 54.7106C75.978 53.0684 78.0207 52.0672 80.4638 52.0271C82.5866 52.0271 83.9083 53.4289 83.708 55.5516C83.5077 57.7945 82.6266 59.7571 81.1046 61.3591C80.3036 62.2403 79.3824 63.0413 78.5814 63.9225C78.3411 64.1628 78.1809 64.6033 78.261 64.9237C79.2222 70.2506 80.2235 75.5775 81.1848 80.9444C81.2649 81.3449 81.0245 81.9057 80.7842 82.2261C80.3036 82.8669 79.6628 83.3475 79.1021 83.9082H78.2209C77.9806 83.6679 77.7003 83.4677 77.5 83.2274C75.938 81.3049 74.416 79.4225 72.854 77.5C71.6925 76.0581 70.531 74.6563 69.3295 73.1744C68.1279 74.3759 67.0065 75.4974 65.885 76.6188C65.7649 76.739 65.7248 77.0194 65.7649 77.2196C65.845 78.301 66.0052 79.3824 66.0452 80.5038C66.0452 80.9444 66.0452 81.5452 65.7248 81.8656C65.084 82.6266 64.323 83.2674 63.6021 83.9483H62.7209L62.6408 84.0284ZM60.7183 76.6589C61.7997 76.9392 62.6008 76.6589 63.3217 75.938C68.6886 70.571 74.0556 65.2041 79.4225 59.8372C80.584 58.6757 81.1447 57.1938 81.385 55.5917C81.5452 54.6705 81.1848 54.31 80.2636 54.3901C78.4612 54.5504 76.9393 55.2713 75.6576 56.5529C70.6111 61.5995 65.5646 66.646 60.5581 71.6524C60.2377 71.9728 59.8773 72.2933 59.5969 72.6537C59.0362 73.2945 58.8359 74.0555 59.1964 74.9767C59.4367 74.8165 59.5568 74.5762 59.7571 74.3759C60.5982 73.4948 61.4793 72.6537 62.3605 71.7726C62.761 71.4121 63.2015 71.292 63.6822 71.5723C64.1628 71.8527 64.4031 72.2532 64.2429 72.8139C64.1628 73.0943 63.9625 73.3746 63.7623 73.615C62.801 74.6162 61.7597 75.6175 60.7183 76.6589ZM69.2494 59.5969C64.3631 58.7157 59.5568 57.7945 54.7506 56.9134C54.7506 56.9935 54.6705 57.0336 54.6705 57.1137C57.8346 59.677 60.9987 62.2403 64.1227 64.7635C65.845 63.0413 67.5271 61.3591 69.2894 59.5969H69.2494ZM70.9716 71.6925C73.5349 74.8566 76.0982 77.9806 78.6214 81.1447C78.7015 81.1447 78.7416 81.0646 78.8217 81.0245C77.9406 76.1783 77.0194 71.3721 76.1382 66.5258C74.376 68.248 72.6938 69.9302 70.9716 71.6925ZM63.3217 81.1447C63.9625 80.3036 63.3217 79.5426 63.562 78.7015C62.9612 78.8617 62.4406 78.9819 61.8798 79.1421C62.3605 79.823 62.801 80.4237 63.3217 81.1847V81.1447ZM54.6705 72.4935C55.3114 72.9741 55.9522 73.3747 56.593 73.8553C56.7532 73.2945 56.8734 72.8139 57.0336 72.3734C55.5917 72.0529 55.1912 72.093 54.6705 72.5336V72.4935Z"
        fill="#4F9BD3" />
    <path
        d="M39.6123 37.3682C39.8526 38.0491 40.0929 38.6899 40.3332 39.3307C40.5735 39.9716 40.934 40.4522 41.6149 40.8126C42.2156 41.1331 42.6562 41.7338 43.0567 42.3346C44.2182 44.0568 44.4585 46.0194 44.7789 48.0219C44.9391 48.9832 45.0994 49.9444 45.2195 50.9057C45.2996 51.4263 45.58 51.4263 45.9805 51.4263C48.4637 51.4263 50.9469 51.4263 53.4702 51.4263C53.7505 51.4263 53.9908 51.4263 54.2712 51.4664C54.872 51.5865 55.2324 52.0672 55.1924 52.6679C55.1123 53.2687 54.7518 53.6692 54.151 53.6692C50.8668 53.6692 47.6226 53.6692 44.3384 53.6692C43.6575 53.6692 43.3371 53.2287 43.2169 52.6279C42.8565 50.5452 42.6161 48.4625 42.1355 46.4199C41.8952 45.2984 41.3345 44.2571 40.8939 43.1757C40.8138 43.0155 40.6136 42.8152 40.4133 42.7752C39.5322 42.5349 38.9714 41.894 38.651 41.1331C38.0903 39.8514 37.6497 38.4896 37.2092 37.1679C37.0089 36.5672 37.2092 36.0865 37.8099 35.7261C39.7725 34.5646 41.695 33.2429 43.7376 32.2416C45.3397 31.4406 47.182 31 48.8642 30.3592C50.9068 29.5581 52.9495 28.7571 54.9521 27.876C55.3926 27.6757 55.7931 27.3553 56.0735 26.9948C57.4353 25.1925 58.757 23.3501 60.1588 21.4276C59.5981 21.1072 59.1174 20.8269 58.6368 20.5465C51.9482 17.1021 44.9792 16.3811 37.7298 18.4238C37.6097 18.4238 37.4895 18.4638 37.3694 18.5039C36.6484 18.7041 36.0477 18.4238 35.8474 17.7829C35.6472 17.1021 35.9676 16.5013 36.7286 16.301C38.2505 15.9406 39.8125 15.5 41.3745 15.2997C47.8229 14.4186 53.9908 15.4199 59.7182 18.5439C68.4094 23.27 73.6562 30.5995 75.4185 40.332C76.0994 44.217 75.9391 48.062 75.0981 51.8669C74.8978 52.8682 74.257 53.3488 73.4559 53.0284C72.8552 52.7881 72.6549 52.2674 72.7751 51.4263C72.9753 50.1847 73.2557 48.9431 73.3358 47.6615C73.9366 40.6524 72.1342 34.3243 68.049 28.677C67.6484 28.1563 67.2479 27.6356 66.7673 27.0349C65.766 28.5168 64.6846 29.7584 64.5244 31.6408C64.3642 33.323 64.0037 35.0052 63.6833 36.6873C63.5231 37.6486 63.1627 37.9289 62.2014 37.9289C60.2389 37.9289 58.2363 37.9289 56.1937 37.9289C55.8733 39.4108 55.5929 40.8527 55.3125 42.2946C55.3125 42.4548 55.4727 42.6951 55.5929 42.8553C57.195 44.8178 58.8371 46.7803 60.4792 48.7028C60.7195 48.9832 61.0399 49.1834 61.3603 49.3036C64.4043 50.2248 66.6071 52.4276 68.9702 54.3902C69.4908 54.8307 69.4908 55.4716 69.0503 55.9522C68.6497 56.4328 68.049 56.553 67.4882 56.1124C66.6071 55.4315 65.726 54.7907 64.9249 54.0297C63.6032 52.748 62.0012 52.0672 60.319 51.3863C59.7583 51.146 59.1575 50.7455 58.757 50.2648C56.9146 48.1421 55.1523 45.9793 53.35 43.8165C52.9495 43.3359 52.7893 42.8953 52.9094 42.2946C53.3099 40.4522 53.6304 38.6098 54.0309 36.7674C54.2311 35.8462 54.5515 35.6059 55.5128 35.6059C57.2751 35.6059 59.0373 35.6059 60.7996 35.6059C61.0399 35.6059 61.2802 35.6059 61.5606 35.6059C61.881 33.6835 62.1614 31.8411 62.5218 29.9586C62.642 29.438 62.8422 28.8772 63.1226 28.4367C63.7634 27.3953 64.4443 26.394 65.1652 25.3126C64.1239 24.4315 63.1226 23.5904 62.0813 22.6692C61.4004 23.5904 60.7996 24.4716 60.1988 25.3126C59.558 26.2338 58.8371 27.115 58.1963 28.0362C57.5154 29.0375 56.6342 29.7584 55.4727 30.199C52.1484 31.4806 48.7841 32.7222 45.4598 34.0039C45.0593 34.1641 44.6588 34.3243 44.2583 34.5646C42.7363 35.4457 41.2143 36.3669 39.6123 37.3281V37.3682Z"
        fill="#4F9BD3" />
    <path
        d="M27.6772 66.7662C30.6411 69.2094 33.7651 70.9316 37.2496 72.013C41.2548 73.2546 45.3801 73.5349 49.5454 72.9742C50.3064 72.8541 50.9072 73.2946 50.9873 73.9755C51.0674 74.6163 50.6268 75.137 49.8659 75.2572C43.1372 76.1784 36.769 75.097 30.8814 71.7727C22.7509 67.1667 17.7444 60.1977 15.8219 51.0259C13.1385 38.0892 19.9873 24.1112 31.8827 18.3037C32.6436 17.9432 33.2444 18.1034 33.6049 18.7042C33.9653 19.345 33.725 19.9458 32.924 20.3864C28.9589 22.429 25.5945 25.2326 22.9511 28.8373C22.7909 29.0375 22.6307 29.2778 22.3904 29.6383C23.4318 29.6383 24.3129 29.6783 25.2341 29.6383C26.1152 29.5982 26.8762 29.7985 27.517 30.3993C27.6372 30.5194 27.8374 30.6396 27.9976 30.7597C30.9214 32.4419 32.924 34.9652 34.3258 38.0091C35.1268 39.7313 36.1281 41.3734 37.0894 43.0156C37.8103 44.2171 38.331 45.4587 38.4511 46.9006C38.7315 49.9845 39.132 53.0685 39.4124 56.1525C39.4124 56.4729 39.2922 56.8734 39.092 57.1538C37.1695 59.8773 35.247 62.6409 33.2444 65.2843C32.924 65.6848 32.2431 65.9251 31.6824 66.0453C30.4007 66.3657 29.1191 66.5659 27.6772 66.8463V66.7662ZM23.4718 31.8812C22.9511 31.8812 22.3904 31.9212 21.8697 31.8812C21.1889 31.8011 20.8684 32.0814 20.5881 32.6822C18.185 37.5685 17.2237 42.7352 17.7845 48.1422C18.4253 54.3502 20.9085 59.7572 25.1139 64.3631C25.4343 64.7236 25.7147 64.8037 26.1953 64.7236C27.7974 64.4032 29.4395 64.1228 31.0816 63.7623C31.362 63.6822 31.6824 63.482 31.8827 63.2417C33.4447 61.1189 34.9266 58.9561 36.4886 56.8334C37.0093 56.1525 37.0493 55.5117 36.9692 54.7106C36.7289 52.668 36.4886 50.6654 36.2883 48.6228C36.1281 46.8205 35.8077 45.1383 34.8064 43.5763C33.6449 41.774 32.6036 39.8515 31.6423 37.8889C30.7212 35.9665 29.3995 34.4845 27.6372 33.283C26.3555 32.3618 25.1139 31.5207 23.4318 31.9212L23.4718 31.8812Z"
        fill="#4F9BD3" />
    <path
        d="M44.8201 11.3346C44.2594 11.3346 43.8989 11.3346 43.4984 11.3346C42.8175 11.3346 42.3369 10.8941 42.2969 10.2933C42.2969 9.65247 42.6173 9.17185 43.2581 9.09175C44.2194 8.9716 45.2206 8.93154 46.1819 9.09175C46.5023 9.1318 46.9429 9.69253 47.023 10.093C47.1431 10.6137 46.7827 11.0943 46.2219 11.2145C45.7013 11.3346 45.1405 11.2946 44.8201 11.3346Z"
        fill="#4F9BD3" />
    <path
        d="M72.9733 22.0283C72.773 22.2687 72.5728 22.7493 72.2123 22.8694C71.8518 22.9896 71.2911 22.9495 71.0108 22.7092C70.3299 22.1485 69.7291 21.5077 69.1684 20.8268C68.7679 20.3462 68.8079 19.8255 69.1684 19.3449C69.5288 18.9043 70.0896 18.7441 70.5301 19.1046C71.3312 19.7854 72.012 20.5865 72.6929 21.3475C72.8131 21.4676 72.773 21.6679 72.8932 22.0283H72.9733Z"
        fill="#4F9BD3" />
    <path
        d="M39.2498 81.1046C38.5289 80.9444 37.6477 80.7841 36.8066 80.5438C36.2059 80.3836 35.9255 79.903 36.0056 79.2622C36.1257 78.6614 36.6464 78.2609 37.2872 78.341C38.1283 78.4611 38.9694 78.6614 39.7705 78.8617C40.4113 79.0219 40.7717 79.5826 40.6115 80.1834C40.4914 80.8242 40.0508 81.1046 39.2097 81.1046H39.2498Z"
        fill="#4F9BD3" />
    <path
        d="M16.6614 26.9948C16.5012 27.4353 16.4612 27.6757 16.341 27.8759C15.9806 28.5167 15.6602 29.1576 15.2596 29.7984C14.8992 30.4392 14.2183 30.6395 13.6576 30.3191C13.0968 29.9987 12.9366 29.3979 13.2571 28.717C13.6175 27.9961 14.018 27.2351 14.4586 26.5542C14.739 26.1136 15.2196 25.8333 15.7002 26.1136C16.1007 26.3139 16.341 26.7144 16.6614 26.9948Z"
        fill="#4F9BD3" />
    <path
        d="M9.29297 42.7752C9.33302 42.1744 9.37307 41.5336 9.49323 40.8928C9.61338 40.1318 10.094 39.7312 10.7749 39.8114C11.4157 39.8514 11.8162 40.332 11.7762 41.093C11.7762 41.8139 11.656 42.4948 11.616 43.2157C11.5359 44.0969 11.0552 44.5375 10.3343 44.4974C9.65343 44.4573 9.29297 43.9767 9.29297 43.0956C9.29297 43.0155 9.29297 42.9354 9.29297 42.8152V42.7752Z"
        fill="#4F9BD3" />
    <path
        d="M33.6453 77.7002C33.6453 78.7415 32.9644 79.3023 32.2435 79.0619C31.3623 78.7816 30.5213 78.3811 29.7202 77.9806C29.1595 77.7002 28.9993 77.0594 29.2797 76.5387C29.56 75.978 30.1608 75.7377 30.7215 75.9379C31.4825 76.2583 32.2435 76.5387 32.9644 76.9392C33.2848 77.1395 33.5251 77.54 33.6453 77.7002Z"
        fill="#4F9BD3" />
    <path
        d="M18.2648 24.3515C17.3035 24.3515 16.7027 23.3101 17.2234 22.5892C17.7841 21.8282 18.3849 21.1473 19.0257 20.5065C19.4263 20.106 19.9469 20.106 20.4276 20.4665C20.9082 20.8269 21.1084 21.3877 20.788 21.8282C20.1872 22.6693 19.4663 23.4303 18.7454 24.1913C18.6252 24.3515 18.3449 24.3515 18.2247 24.3915L18.2648 24.3515Z"
        fill="#4F9BD3" />
    <path
        d="M61.2019 13.0168C61.2019 14.0581 60.481 14.6189 59.72 14.3786C58.9189 14.0982 58.158 13.7778 57.3569 13.4173C56.7561 13.137 56.5158 12.5362 56.7562 11.9755C56.9965 11.3747 57.5572 11.0943 58.198 11.2946C58.999 11.5749 59.8401 11.8954 60.6011 12.2959C60.9215 12.4561 61.0817 12.8966 61.2019 13.0168Z"
        fill="#4F9BD3" />
    <path
        d="M81.6682 41.4535C81.6682 42.1745 81.2276 42.6951 80.6269 42.7352C79.986 42.7752 79.4654 42.4148 79.3853 41.774C79.2651 41.013 79.1449 40.252 79.0648 39.451C78.9847 38.69 79.3853 38.1293 80.0261 38.0491C80.6669 37.969 81.2276 38.4096 81.3478 39.1305C81.4679 39.9316 81.5881 40.7326 81.6682 41.4535Z"
        fill="#4F9BD3" />
    <path
        d="M78.4641 31C78.4641 31 79.0248 31.4006 79.2251 31.721C79.5855 32.4419 79.8258 33.2429 80.0662 34.044C80.2664 34.7249 79.9861 35.3256 79.3853 35.5259C78.7845 35.7261 78.1837 35.4458 77.9034 34.805C77.583 34.044 77.3026 33.283 77.0623 32.482C76.822 31.721 77.4628 30.96 78.4641 31Z"
        fill="#4F9BD3" />
    <path
        d="M67.49 16.7817C67.49 17.7429 66.6489 18.3837 65.968 17.9832C65.0869 17.5026 64.2858 16.9018 63.5248 16.301C63.0843 15.9406 63.1243 15.3798 63.4447 14.8992C63.7651 14.4587 64.2858 14.2183 64.8065 14.5388C65.6075 15.0194 66.4086 15.5801 67.1695 16.1408C67.3698 16.301 67.4499 16.6615 67.53 16.7817H67.49Z"
        fill="#4F9BD3" />
    <path
        d="M45.6594 79.3022C46.0599 79.3022 46.5004 79.3022 46.901 79.3022C47.5017 79.3423 47.9824 79.8229 47.9824 80.3836C47.9824 80.9844 47.6619 81.465 47.0612 81.5051C46.0999 81.5852 45.1787 81.5852 44.2175 81.5051C43.5767 81.465 43.2563 80.9444 43.2963 80.3436C43.3364 79.7028 43.7369 79.3022 44.3777 79.3022C44.8183 79.3022 45.2588 79.3022 45.6994 79.3022H45.6594Z"
        fill="#4F9BD3" />
    <path
        d="M11.9367 50.5053C11.9367 51.1862 11.4962 51.7068 10.8954 51.7869C10.3347 51.827 9.73389 51.4265 9.65379 50.7856C9.53364 49.9846 9.41348 49.1435 9.37343 48.3425C9.33338 47.6616 9.814 47.1409 10.4148 47.1009C11.0556 47.0608 11.5763 47.4614 11.6564 48.1422C11.7765 48.9433 11.8566 49.7443 11.9367 50.5053Z"
        fill="#4F9BD3" />
    <path
        d="M27.1952 74.416C27.1952 75.4573 26.274 76.018 25.513 75.5374C24.752 75.0968 24.0311 74.5361 23.3101 73.9754C22.8295 73.5749 22.7895 72.894 23.1499 72.4534C23.5505 71.9728 24.0711 71.8126 24.5918 72.133C25.3928 72.6136 26.1138 73.1743 26.8347 73.7351C27.0349 73.8953 27.1151 74.2557 27.1952 74.3759V74.416Z"
        fill="#4F9BD3" />
    <path
        d="M39.7728 10.9741C39.7327 11.4147 39.4523 11.8152 38.8516 11.9754C38.0906 12.1757 37.2896 12.3759 36.5286 12.5361C35.8477 12.6563 35.287 12.2958 35.1268 11.6951C34.9666 11.1343 35.287 10.5336 35.9278 10.3333C36.7689 10.093 37.61 9.89273 38.4911 9.73253C39.212 9.61237 39.7728 10.1731 39.7728 10.9741Z"
        fill="#4F9BD3" />
    <path
        d="M10.4926 35.7262C10.6929 35.0854 10.9332 34.0841 11.3738 33.203C11.534 32.8826 12.1748 32.6823 12.5753 32.7224C13.1761 32.7224 13.5366 33.2831 13.4164 33.8839C13.2162 34.8451 12.9358 35.7663 12.5753 36.6474C12.3751 37.1681 11.8544 37.3684 11.2937 37.2082C10.733 37.0479 10.4125 36.6474 10.4926 35.6862V35.7262Z"
        fill="#4F9BD3" />
    <path
        d="M75.016 24.5518C75.016 24.5518 75.5366 24.8321 75.7369 25.1525C76.1775 25.7934 76.578 26.4342 76.9785 27.1151C77.339 27.7559 77.1788 28.4368 76.578 28.7572C76.0173 29.0776 75.4165 28.9174 75.016 28.2766C74.5754 27.6357 74.1749 26.9549 73.7744 26.274C73.2937 25.4329 73.8545 24.4717 74.9759 24.5117L75.016 24.5518Z"
        fill="#4F9BD3" />
    <path
        d="M14.8605 60.9587C14.8605 60.9587 15.4213 61.2792 15.6215 61.5595C16.0621 62.2003 16.4626 62.8812 16.8231 63.5621C17.1835 64.1629 17.0233 64.8037 16.4626 65.1642C15.9419 65.4846 15.2611 65.3644 14.8605 64.7636C14.42 64.0828 13.9794 63.3618 13.6189 62.6409C13.2184 61.8399 13.7391 60.9587 14.8205 60.9587H14.8605Z"
        fill="#4F9BD3" />
    <path
        d="M52.911 12.0955C52.15 11.9754 51.2689 11.8552 50.3877 11.6149C49.827 11.4547 49.5466 10.9741 49.6267 10.3733C49.7068 9.8126 50.2275 9.33198 50.8283 9.41209C51.7094 9.53224 52.5505 9.69245 53.4317 9.89271C54.1125 10.0529 54.4329 10.6136 54.3128 11.2144C54.1526 11.8552 53.7521 12.1356 52.951 12.0955H52.911Z"
        fill="#4F9BD3" />
    <path
        d="M13.8993 57.7946C13.6189 58.115 13.3385 58.5556 12.9781 58.7158C12.4974 58.9561 11.9367 58.7558 11.7365 58.2752C11.3359 57.354 11.0155 56.3527 10.7752 55.3915C10.6551 54.8708 10.9755 54.4303 11.4962 54.2701C12.0168 54.1098 12.5775 54.1899 12.7778 54.6706C13.2184 55.6318 13.4987 56.6331 13.9393 57.7946H13.8993Z"
        fill="#4F9BD3" />
    <path
        d="M23.23 19.305C22.9096 19.0246 22.429 18.7843 22.3089 18.4239C22.1887 18.1035 22.3089 17.5027 22.5492 17.2624C23.19 16.6215 23.951 16.0608 24.752 15.5802C25.2326 15.2598 25.7533 15.3799 26.1538 15.8205C26.5143 16.221 26.6344 16.7817 26.274 17.1422C25.513 17.8631 24.5918 18.4639 23.7507 19.1047C23.6706 19.1848 23.5104 19.1448 23.3903 19.1848C23.3502 19.2249 23.3101 19.265 23.2701 19.305H23.23Z"
        fill="#4F9BD3" />
    <path
        d="M29.5604 15.2996C28.9196 15.1795 28.5591 14.8991 28.3989 14.3785C28.2387 13.8578 28.3589 13.3772 28.8395 13.0968C29.6806 12.6562 30.5217 12.2157 31.4429 11.9353C31.7633 11.8151 32.324 12.0955 32.6044 12.3759C32.9648 12.7363 33.0049 13.4172 32.5643 13.6976C31.6031 14.2984 30.6018 14.779 29.6005 15.2996H29.5604Z"
        fill="#4F9BD3" />
    <path
        d="M21.6284 70.0504C21.4281 70.2908 21.2278 70.7714 20.9074 70.8915C20.547 71.0117 19.9462 71.0117 19.7059 70.7714C19.025 70.1706 18.3842 69.4497 17.8235 68.7287C17.463 68.2882 17.5431 67.7675 17.9036 67.3269C18.3041 66.8864 18.9048 66.7662 19.3054 67.1267C20.1064 67.8476 20.7472 68.6887 21.4682 69.4897C21.5483 69.5698 21.5483 69.7701 21.6284 70.0504Z"
        fill="#4F9BD3" />
    <path
        d="M79.4648 47.1808C79.5049 46.8203 79.5449 46.4599 79.625 46.0994C79.7853 45.5387 80.2258 45.2583 80.8266 45.3384C81.4274 45.4185 81.7878 45.779 81.8279 46.4198C81.8279 46.8203 81.8279 47.1808 81.8279 47.5813C81.7478 48.3823 81.3072 48.863 80.5863 48.8229C79.9054 48.8229 79.5049 48.3022 79.5049 47.4612C79.5049 47.3811 79.5049 47.2609 79.5049 47.1808H79.4648Z"
        fill="#4F9BD3" />
    <path
        d="M53.9922 79.703C53.9922 80.464 53.4715 80.8244 51.9896 81.0647C51.3087 81.1849 50.748 80.8244 50.5878 80.2237C50.4276 79.6229 50.6679 79.1022 51.2286 78.902C51.7893 78.7017 52.3901 78.6216 52.9909 78.5815C53.5917 78.5815 53.9922 79.1022 53.9922 79.703Z"
        fill="#4F9BD3" />

</svg>