<svg xmlns="http://www.w3.org/2000/svg" width="95" height="94" viewBox="0 0 95 94" fill="none">
    <path
        d="M35.9932 9.89185C37.5042 10.2208 38.9575 10.4089 40.3301 10.9133L40.3311 10.9143C47.7025 13.6015 52.1837 18.7125 53.4004 26.2483L53.5078 26.9856C53.8709 29.8209 53.6677 32.6957 53.709 35.6653H53.708V36.8274C53.6485 37.4749 53.6395 38.124 53.8838 38.719C54.1422 39.3484 54.649 39.8412 55.46 40.2424L55.4688 40.2473C56.7864 40.8649 57.4316 42.2575 57.4316 43.9231V45.9231L57.7471 46.0481L57.9521 46.1292L58.3379 46.2815L58.5586 45.9309C58.7558 45.6187 58.9724 45.3322 59.2119 44.9875C59.4393 44.6603 59.6717 44.3007 59.8535 43.8997C60.1118 43.3703 60.4041 43.031 60.7451 42.8215C61.0853 42.6126 61.5243 42.5026 62.1309 42.5208H62.1406C65.8665 42.5613 69.5584 42.5208 73.2734 42.5208C73.7582 42.5208 74.1367 42.6179 74.4365 42.7952C74.7341 42.9712 74.9902 43.2469 75.2002 43.6624C75.9297 45.1669 76.9169 46.3233 78.1592 47.1174C79.4026 47.9123 80.8739 48.3264 82.542 48.3899H82.5439C83.4631 48.4213 84.1475 49.1339 84.1475 50.0364C84.1475 54.7152 84.3112 59.338 84.1074 63.9788C83.6678 73.3111 77.1523 81.4278 68.1113 84.0442C67.7736 84.1353 67.2606 84.1092 66.8701 84.0061C60.9026 82.1418 56.4685 78.4648 53.5449 72.9963L53.543 72.9934C53.3754 72.6855 53.1729 72.4308 52.875 72.2708C52.5855 72.1153 52.2696 72.0852 51.958 72.0852H15.873C14.3258 72.0852 13.0894 71.5856 12.2412 70.7463C11.3936 69.9076 10.8907 68.687 10.8906 67.1604V44.0852C10.8906 42.9916 11.1472 42.0897 11.6309 41.3606C12.1148 40.6313 12.8493 40.0403 13.8613 39.6057L13.873 39.6008L13.8857 39.595C14.1403 39.469 14.3589 39.3041 14.4883 39.0481C14.6085 38.8101 14.6133 38.5593 14.6133 38.3772V28.9045C14.6133 19.9481 21.4512 11.9226 30.3789 10.2434L30.8057 10.1682C31.0604 10.1262 31.324 10.074 31.5781 10.0237C31.8222 9.97538 32.058 9.92976 32.2832 9.89185H35.9932ZM63.5361 45.9739C63.283 45.9739 63.0305 46.011 62.791 46.1379C62.5517 46.2648 62.3727 46.4559 62.2217 46.6799L62.2158 46.6887C60.5682 49.2506 58.2649 50.8742 55.2812 51.5735L55.2725 51.5754L55.2646 51.5774C55.0124 51.6455 54.736 51.7541 54.5547 52.0051C54.3774 52.2506 54.3633 52.537 54.3633 52.7483V57.6331H54.2559L54.2822 58.1575C54.3942 60.4475 54.2958 62.9115 54.6602 65.2795L54.7393 65.7522C55.9174 72.8559 60.0948 77.6866 66.7891 80.3362L66.7998 80.3401C67.2452 80.5053 67.8533 80.4996 68.3164 80.3469L68.3252 80.343L68.335 80.3401C75.6855 77.5969 80.479 70.8178 80.6475 63.0833C80.7294 59.6354 80.6475 56.1323 80.6475 52.7083C80.6475 52.4679 80.6136 52.1899 80.4307 51.9524C80.251 51.7192 79.9927 51.61 79.7578 51.5403L79.7441 51.5364L79.7295 51.5325C76.7459 50.8332 74.4426 49.2105 72.7949 46.6487L72.7881 46.6399L72.6641 46.4739C72.5333 46.3177 72.3815 46.1918 72.1943 46.1057C71.954 45.9953 71.7044 45.9739 71.4736 45.9739H63.5361ZM16.1182 42.7346C15.8337 42.7346 15.5734 42.7476 15.3486 42.7932C15.1194 42.8397 14.8897 42.9281 14.7031 43.1077C14.5147 43.2891 14.4198 43.5156 14.3701 43.7434C14.3219 43.9644 14.3096 44.2184 14.3096 44.4905V66.9172C14.3096 67.2042 14.3186 67.4685 14.3623 67.6936C14.4072 67.9247 14.497 68.1616 14.6924 68.3499C14.8859 68.5361 15.1266 68.6194 15.3594 68.6614C15.5885 68.7027 15.8592 68.7131 16.1592 68.7131H51.8047L51.6201 68.0745C50.9071 65.6051 50.9443 63.1702 50.9443 60.6428V51.2502C50.9443 50.5934 50.9631 50.117 51.0244 49.7551C51.0845 49.4005 51.1792 49.1992 51.3008 49.0608C51.4241 48.9205 51.6202 48.7933 51.9814 48.6741C52.3475 48.5533 52.8382 48.4543 53.5127 48.343L53.9307 48.2747V44.4905C53.9307 44.2095 53.9191 43.9505 53.8711 43.7278C53.8215 43.498 53.7255 43.2681 53.5322 43.0872C53.3419 42.9092 53.1094 42.8271 52.8838 42.7854C52.6617 42.7444 52.403 42.7346 52.1221 42.7346H16.1182ZM49.873 26.4299C48.3078 17.2695 38.9739 11.3845 29.9404 13.8069C22.9396 15.6847 18.076 21.7849 17.9912 28.9788C17.9502 32.0593 17.9912 35.1484 17.9912 38.2561V39.2014H22.7051L23.4512 39.9397V29.3088C23.4512 28.7271 23.4903 28.1451 23.5684 27.5627C24.386 22.1695 29.3361 18.3283 35.0244 18.7151V18.7161C40.162 19.0899 44.3963 23.4572 44.6914 28.5725L44.708 29.0696V39.2415H50.167V29.593C50.167 28.5596 50.0836 27.4772 49.873 26.4299ZM41.1211 28.0295C40.6319 24.3335 36.7987 21.6497 33.1436 22.2161L33.1406 22.217C29.389 22.8213 26.9103 25.654 26.9102 29.3899V39.2014H40.7891V38.7415H41.2891V31.7385C41.2891 30.5324 41.2889 29.2429 41.1201 28.0295H41.1211Z"
        fill="#4595D1" stroke="#F1F1F1" />
    <path
        d="M28.2139 51.5701C29.119 48.8462 31.8399 47.1156 34.8076 47.4167H34.8115C37.4773 47.6699 39.8052 49.862 40.2568 52.5115L40.2939 52.7693C40.5952 55.3516 39.1932 57.931 36.7812 59.0125L36.7783 59.0134C36.4616 59.1581 36.1952 59.3473 36.0264 59.6375C35.8624 59.9195 35.8311 60.2296 35.8311 60.5212V60.5369L35.832 60.5525C35.8718 61.182 35.8311 61.7304 35.8311 62.4236C35.8311 63.2924 35.0622 64.0289 34.1221 64.0291C33.2169 64.0291 32.5337 63.4273 32.4258 62.5798L32.4121 62.407V60.9744C32.4792 60.5233 32.4007 60.1067 32.1592 59.7302C31.8862 59.3049 31.4399 58.9822 30.9248 58.7058C28.4079 57.3304 27.3038 54.3091 28.2139 51.5701ZM34.1221 50.7908C32.6744 50.7908 31.3728 52.0524 31.4131 53.5173H31.4121C31.4121 54.9407 32.6697 56.1548 34.1045 56.2039H34.1221C35.5677 56.2037 36.8721 54.984 36.8721 53.5173C36.8719 52.0683 35.5854 50.791 34.1631 50.7908H34.1221Z"
        fill="#4595D1" stroke="#F1F1F1" />
    <path
        d="M72.3574 58.205C73.216 57.3555 74.2135 57.3098 74.8799 57.8466L75.0088 57.9618L75.0166 57.9696C75.407 58.34 75.5683 58.7756 75.542 59.2108C75.5152 59.6535 75.2904 60.148 74.8115 60.6044H74.8105L74.8047 60.6112C73.4751 61.9268 72.145 63.2419 70.8154 64.5575L66.8262 68.5048C66.2948 69.0103 65.8109 69.2108 65.3828 69.2108C64.9551 69.2108 64.4807 69.0104 63.9697 68.5048C62.6935 67.242 61.3948 65.997 60.1299 64.705L60.124 64.7001L59.9707 64.535C59.6364 64.1475 59.4719 63.7356 59.4482 63.3544C59.4216 62.9252 59.5695 62.4951 59.9238 62.1268C60.3013 61.7554 60.7417 61.5921 61.1826 61.6073C61.6296 61.6228 62.1204 61.8242 62.5781 62.2596C62.9673 62.6446 63.3665 63.0291 63.7627 63.411C64.162 63.796 64.5584 64.1785 64.9443 64.5604L65.0908 64.705H65.1514L65.5205 65.4344L65.9971 64.7274C66.0925 64.5858 66.1761 64.4251 66.2266 64.3368C66.2851 64.2343 66.3296 64.1688 66.3838 64.1151C68.3937 62.1264 70.3509 60.1489 72.3535 58.2079L72.3574 58.205Z"
        fill="#4595D1" stroke="#F1F1F1" />
</svg>