<svg xmlns="http://www.w3.org/2000/svg" width="64" height="71" viewBox="0 0 64 71" fill="none">
    <g clip-path="url(#clip0_1240_1201)">
        <mask id="path-1-inside-1_1240_1201" fill="white">
            <path
                d="M33.8194 0C35.1232 0.267492 36.4653 0.458558 37.7308 0.840689C42.7158 2.25458 46.6271 5.15877 49.5031 9.47686C51.8422 13.0307 52.9543 17.0048 52.8776 21.2847C52.8776 23.9979 52.8776 26.711 52.8776 29.3859C52.8776 31.9462 51.1136 33.704 48.5444 33.704C47.7775 33.704 47.0106 33.704 46.2437 33.704C46.0136 34.8504 45.7835 35.9586 45.5151 37.0285C44.9015 39.3213 43.7511 41.3466 42.1406 43.0662C41.8338 43.4101 41.7955 43.6394 42.0256 44.0215C42.6774 45.2444 43.2526 46.5054 43.9045 47.7282C44.0579 47.9957 44.3647 48.2632 44.6715 48.3778C46.6655 49.0657 48.6978 49.7153 50.7302 50.4031C55.2934 52.0081 58.7062 55.0269 61.122 59.1157C62.9626 62.2492 63.9596 65.612 63.998 69.2422C63.998 70.465 63.4995 70.9618 62.2724 70.9618C42.1022 70.9618 21.9321 70.9618 1.76194 70.9618C0.496507 70.9618 -0.0403409 70.465 -0.00199458 69.204C0.458161 60.95 4.17775 54.683 11.6936 51.0527C14.0711 49.9064 16.7553 49.2567 19.2479 48.3778C19.5546 48.2632 19.9381 47.9957 20.0915 47.69C20.7434 46.4672 21.3186 45.2061 21.9704 43.9833C22.1622 43.6394 22.1238 43.4101 21.8554 43.0662C21.1268 42.1491 20.3599 41.2702 19.8614 40.2766C19.4396 39.3977 18.9411 39.2067 18.0208 39.2067C16.2568 39.2067 14.9531 38.3278 14.2628 36.7228C13.9561 35.9968 13.9561 35.1561 13.9177 34.3536C13.9177 33.7804 13.841 33.4365 13.2275 33.1308C11.847 32.4047 11.1184 31.1437 11.1184 29.577C11.1184 26.5199 11.1184 23.4629 11.1184 20.444C11.2335 11.5022 17.2538 3.51561 25.8434 0.955328C27.2622 0.496771 28.7577 0.305705 30.1765 0C31.3653 0 32.5924 0 33.7811 0H33.8194ZM22.4689 39.2449C23.7344 41.3466 25.3449 42.8751 27.4923 43.8305C34.1646 46.7729 41.1052 42.8751 42.7925 36.0732C43.5978 32.8633 43.7895 29.4623 44.2113 26.176C44.3263 25.3353 44.3263 24.4946 44.3647 23.7304C42.4474 23.31 40.6067 23.0425 38.8045 22.5075C35.1999 21.4758 31.9788 19.6798 29.1795 17.1959C28.9495 17.0048 28.6044 16.7756 28.2976 16.7756C26.4953 16.8902 24.8848 17.5398 23.4276 18.5716C21.8554 19.718 20.8584 21.3229 19.708 22.8515C19.593 23.0043 19.5546 23.2718 19.593 23.5011C19.708 25.2971 19.823 27.0931 20.0148 28.8891C20.3215 31.2583 20.7434 33.5893 21.0501 35.9203C21.1268 36.4553 21.3569 36.5318 21.8554 36.5318C22.7757 36.5318 23.696 36.5318 24.6547 36.5318C25.0765 36.5318 25.3066 36.4171 25.4983 36.035C26.0735 34.8886 26.9555 34.0861 28.2209 33.8951C29.4863 33.7422 30.7517 33.7422 32.0172 33.7422C34.318 33.7422 36.1586 35.6146 36.1586 37.9074C36.1586 40.2002 34.318 42.0345 32.0172 42.0727C31.1736 42.0727 30.2916 42.0727 29.448 42.0727C27.6073 42.0727 26.2652 41.3084 25.4216 39.6652C25.3449 39.5124 25.1532 39.3213 24.9998 39.3213C24.1945 39.3213 23.3893 39.3213 22.5073 39.3213L22.4689 39.2449ZM20.0148 51.1292C18.2508 51.7024 16.6403 52.2756 15.0298 52.8106C9.69962 54.4537 6.17176 58.0075 4.06271 63.0517C3.37248 64.6948 2.95067 66.4144 2.87398 68.2104H29.5247C25.7284 62.7842 22.0855 57.3961 20.0148 51.1292ZM43.9812 51.091C41.9105 57.4343 38.1909 62.746 34.4713 68.2104H61.1987C61.007 67.2169 60.9303 66.2616 60.6619 65.3445C59.243 60.0711 56.252 55.944 51.152 53.6512C48.8895 52.6195 46.4737 51.9699 43.9812 51.091ZM19.5546 18.2659C19.5546 18.2659 19.7847 18.113 19.823 18.0748C21.9704 15.7056 24.6163 14.3681 27.7607 13.9478C28.9111 13.7949 29.8698 13.9478 30.7901 14.8267C33.2059 17.1577 36.0819 18.8009 39.303 19.718C40.9519 20.2147 42.6774 20.4822 44.403 20.8644C44.8632 16.1642 42.3323 11.6168 38.306 9.5915C35.545 8.17761 32.5924 8.21582 29.6014 8.4451C27.1855 8.63617 25.0381 9.5915 23.2359 11.2347C21.1652 13.0689 19.9381 15.3999 19.5163 18.3041L19.5546 18.2659ZM16.6403 19.3741C16.717 18.7627 16.7553 18.1512 16.832 17.578C17.7523 12.2664 20.705 8.55974 25.69 6.49623C28.7577 5.2352 31.9788 5.31163 35.1232 5.73197C40.4917 6.45802 44.2113 9.47686 46.2437 14.4446C46.8955 15.9731 47.0873 17.6927 47.5091 19.4123H49.8866C49.5414 11.2729 42.3323 2.71313 31.7871 2.86599C20.59 2.98062 14.1861 12.2664 14.0328 19.4505H16.602L16.6403 19.3741ZM31.9788 66.873C33.436 64.6566 34.8931 62.5167 36.3503 60.3385C37.0789 59.2304 37.0789 59.1921 36.1202 58.2368C34.7014 56.8229 33.3209 55.4473 31.8638 53.9952C30.1766 55.753 28.566 57.4726 26.9171 59.2304C28.6427 61.7906 30.2916 64.3127 32.0172 66.873H31.9788ZM39.7248 45.7029C37.7308 47.8046 35.7751 49.8681 33.8961 51.8552C35.4683 53.422 37.0022 54.9505 38.6511 56.5937C39.6097 54.3009 40.5684 51.9699 41.4887 49.6389C41.5271 49.486 41.4887 49.2949 41.412 49.1421C40.8752 48.0339 40.3 46.9257 39.6864 45.7029H39.7248ZM23.9644 46.3143C23.5043 47.2696 23.0058 48.1868 22.5456 49.1421C22.4306 49.3714 22.4689 49.6771 22.5456 49.9064C23.4276 51.9699 24.3096 54.0716 25.2299 56.1351C25.3066 56.2879 25.4216 56.4026 25.5366 56.5937C26.9938 55.0269 28.4126 53.5366 29.7931 52.0845C27.8374 50.1356 25.9201 48.225 23.9644 46.3143ZM47.3557 22.2018C47.1256 25.1442 46.8955 27.972 46.6655 30.9144C47.164 30.9144 47.6625 30.9144 48.1226 30.9144C49.5798 30.9144 50.0783 30.4177 50.0783 28.9656C50.0783 27.0549 50.0783 25.1442 50.0783 23.2336C50.0783 22.8897 50.0783 22.5457 50.0783 22.2018H47.3173H47.3557ZM17.3305 30.9144C17.1005 27.972 16.8704 25.106 16.6403 22.24H13.8794C13.8794 24.6857 13.8794 27.0549 13.8794 29.4623C13.8794 30.3412 14.4546 30.8762 15.3365 30.9144C15.9884 30.9526 16.6403 30.9144 17.2922 30.9144H17.3305ZM30.7134 36.4171C30.0999 36.4553 29.5247 36.4171 28.9495 36.5318C28.2592 36.6464 27.7991 37.2578 27.8374 37.831C27.9141 38.4806 28.2209 39.0538 28.9111 39.092C30.0232 39.1685 31.1736 39.1685 32.2856 39.092C32.9758 39.0538 33.2826 38.4806 33.3593 37.831C33.3976 37.2578 32.9758 36.6846 32.3239 36.5318C31.7871 36.4171 31.2119 36.4171 30.7134 36.3789V36.4171ZM31.9021 49.8681C32.5924 49.1421 33.3593 48.3396 34.1646 47.4989H29.4863C30.2532 48.2632 31.0585 49.0275 31.9021 49.8681ZM18.2892 36.4171C18.1358 35.5 17.9824 34.6211 17.829 33.7422H16.7553C16.5253 35.6529 16.9087 36.3407 18.2892 36.4171Z" />
        </mask>
        <path
            d="M33.8194 0C35.1232 0.267492 36.4653 0.458558 37.7308 0.840689C42.7158 2.25458 46.6271 5.15877 49.5031 9.47686C51.8422 13.0307 52.9543 17.0048 52.8776 21.2847C52.8776 23.9979 52.8776 26.711 52.8776 29.3859C52.8776 31.9462 51.1136 33.704 48.5444 33.704C47.7775 33.704 47.0106 33.704 46.2437 33.704C46.0136 34.8504 45.7835 35.9586 45.5151 37.0285C44.9015 39.3213 43.7511 41.3466 42.1406 43.0662C41.8338 43.4101 41.7955 43.6394 42.0256 44.0215C42.6774 45.2444 43.2526 46.5054 43.9045 47.7282C44.0579 47.9957 44.3647 48.2632 44.6715 48.3778C46.6655 49.0657 48.6978 49.7153 50.7302 50.4031C55.2934 52.0081 58.7062 55.0269 61.122 59.1157C62.9626 62.2492 63.9596 65.612 63.998 69.2422C63.998 70.465 63.4995 70.9618 62.2724 70.9618C42.1022 70.9618 21.9321 70.9618 1.76194 70.9618C0.496507 70.9618 -0.0403409 70.465 -0.00199458 69.204C0.458161 60.95 4.17775 54.683 11.6936 51.0527C14.0711 49.9064 16.7553 49.2567 19.2479 48.3778C19.5546 48.2632 19.9381 47.9957 20.0915 47.69C20.7434 46.4672 21.3186 45.2061 21.9704 43.9833C22.1622 43.6394 22.1238 43.4101 21.8554 43.0662C21.1268 42.1491 20.3599 41.2702 19.8614 40.2766C19.4396 39.3977 18.9411 39.2067 18.0208 39.2067C16.2568 39.2067 14.9531 38.3278 14.2628 36.7228C13.9561 35.9968 13.9561 35.1561 13.9177 34.3536C13.9177 33.7804 13.841 33.4365 13.2275 33.1308C11.847 32.4047 11.1184 31.1437 11.1184 29.577C11.1184 26.5199 11.1184 23.4629 11.1184 20.444C11.2335 11.5022 17.2538 3.51561 25.8434 0.955328C27.2622 0.496771 28.7577 0.305705 30.1765 0C31.3653 0 32.5924 0 33.7811 0H33.8194ZM22.4689 39.2449C23.7344 41.3466 25.3449 42.8751 27.4923 43.8305C34.1646 46.7729 41.1052 42.8751 42.7925 36.0732C43.5978 32.8633 43.7895 29.4623 44.2113 26.176C44.3263 25.3353 44.3263 24.4946 44.3647 23.7304C42.4474 23.31 40.6067 23.0425 38.8045 22.5075C35.1999 21.4758 31.9788 19.6798 29.1795 17.1959C28.9495 17.0048 28.6044 16.7756 28.2976 16.7756C26.4953 16.8902 24.8848 17.5398 23.4276 18.5716C21.8554 19.718 20.8584 21.3229 19.708 22.8515C19.593 23.0043 19.5546 23.2718 19.593 23.5011C19.708 25.2971 19.823 27.0931 20.0148 28.8891C20.3215 31.2583 20.7434 33.5893 21.0501 35.9203C21.1268 36.4553 21.3569 36.5318 21.8554 36.5318C22.7757 36.5318 23.696 36.5318 24.6547 36.5318C25.0765 36.5318 25.3066 36.4171 25.4983 36.035C26.0735 34.8886 26.9555 34.0861 28.2209 33.8951C29.4863 33.7422 30.7517 33.7422 32.0172 33.7422C34.318 33.7422 36.1586 35.6146 36.1586 37.9074C36.1586 40.2002 34.318 42.0345 32.0172 42.0727C31.1736 42.0727 30.2916 42.0727 29.448 42.0727C27.6073 42.0727 26.2652 41.3084 25.4216 39.6652C25.3449 39.5124 25.1532 39.3213 24.9998 39.3213C24.1945 39.3213 23.3893 39.3213 22.5073 39.3213L22.4689 39.2449ZM20.0148 51.1292C18.2508 51.7024 16.6403 52.2756 15.0298 52.8106C9.69962 54.4537 6.17176 58.0075 4.06271 63.0517C3.37248 64.6948 2.95067 66.4144 2.87398 68.2104H29.5247C25.7284 62.7842 22.0855 57.3961 20.0148 51.1292ZM43.9812 51.091C41.9105 57.4343 38.1909 62.746 34.4713 68.2104H61.1987C61.007 67.2169 60.9303 66.2616 60.6619 65.3445C59.243 60.0711 56.252 55.944 51.152 53.6512C48.8895 52.6195 46.4737 51.9699 43.9812 51.091ZM19.5546 18.2659C19.5546 18.2659 19.7847 18.113 19.823 18.0748C21.9704 15.7056 24.6163 14.3681 27.7607 13.9478C28.9111 13.7949 29.8698 13.9478 30.7901 14.8267C33.2059 17.1577 36.0819 18.8009 39.303 19.718C40.9519 20.2147 42.6774 20.4822 44.403 20.8644C44.8632 16.1642 42.3323 11.6168 38.306 9.5915C35.545 8.17761 32.5924 8.21582 29.6014 8.4451C27.1855 8.63617 25.0381 9.5915 23.2359 11.2347C21.1652 13.0689 19.9381 15.3999 19.5163 18.3041L19.5546 18.2659ZM16.6403 19.3741C16.717 18.7627 16.7553 18.1512 16.832 17.578C17.7523 12.2664 20.705 8.55974 25.69 6.49623C28.7577 5.2352 31.9788 5.31163 35.1232 5.73197C40.4917 6.45802 44.2113 9.47686 46.2437 14.4446C46.8955 15.9731 47.0873 17.6927 47.5091 19.4123H49.8866C49.5414 11.2729 42.3323 2.71313 31.7871 2.86599C20.59 2.98062 14.1861 12.2664 14.0328 19.4505H16.602L16.6403 19.3741ZM31.9788 66.873C33.436 64.6566 34.8931 62.5167 36.3503 60.3385C37.0789 59.2304 37.0789 59.1921 36.1202 58.2368C34.7014 56.8229 33.3209 55.4473 31.8638 53.9952C30.1766 55.753 28.566 57.4726 26.9171 59.2304C28.6427 61.7906 30.2916 64.3127 32.0172 66.873H31.9788ZM39.7248 45.7029C37.7308 47.8046 35.7751 49.8681 33.8961 51.8552C35.4683 53.422 37.0022 54.9505 38.6511 56.5937C39.6097 54.3009 40.5684 51.9699 41.4887 49.6389C41.5271 49.486 41.4887 49.2949 41.412 49.1421C40.8752 48.0339 40.3 46.9257 39.6864 45.7029H39.7248ZM23.9644 46.3143C23.5043 47.2696 23.0058 48.1868 22.5456 49.1421C22.4306 49.3714 22.4689 49.6771 22.5456 49.9064C23.4276 51.9699 24.3096 54.0716 25.2299 56.1351C25.3066 56.2879 25.4216 56.4026 25.5366 56.5937C26.9938 55.0269 28.4126 53.5366 29.7931 52.0845C27.8374 50.1356 25.9201 48.225 23.9644 46.3143ZM47.3557 22.2018C47.1256 25.1442 46.8955 27.972 46.6655 30.9144C47.164 30.9144 47.6625 30.9144 48.1226 30.9144C49.5798 30.9144 50.0783 30.4177 50.0783 28.9656C50.0783 27.0549 50.0783 25.1442 50.0783 23.2336C50.0783 22.8897 50.0783 22.5457 50.0783 22.2018H47.3173H47.3557ZM17.3305 30.9144C17.1005 27.972 16.8704 25.106 16.6403 22.24H13.8794C13.8794 24.6857 13.8794 27.0549 13.8794 29.4623C13.8794 30.3412 14.4546 30.8762 15.3365 30.9144C15.9884 30.9526 16.6403 30.9144 17.2922 30.9144H17.3305ZM30.7134 36.4171C30.0999 36.4553 29.5247 36.4171 28.9495 36.5318C28.2592 36.6464 27.7991 37.2578 27.8374 37.831C27.9141 38.4806 28.2209 39.0538 28.9111 39.092C30.0232 39.1685 31.1736 39.1685 32.2856 39.092C32.9758 39.0538 33.2826 38.4806 33.3593 37.831C33.3976 37.2578 32.9758 36.6846 32.3239 36.5318C31.7871 36.4171 31.2119 36.4171 30.7134 36.3789V36.4171ZM31.9021 49.8681C32.5924 49.1421 33.3593 48.3396 34.1646 47.4989H29.4863C30.2532 48.2632 31.0585 49.0275 31.9021 49.8681ZM18.2892 36.4171C18.1358 35.5 17.9824 34.6211 17.829 33.7422H16.7553C16.5253 35.6529 16.9087 36.3407 18.2892 36.4171Z"
            fill="#4595D1" stroke="#F0F0F0" mask="url(#path-1-inside-1_1240_1201)" />
        <path
            d="M52.1533 58.7563C52.1562 58.7568 52.1831 58.7604 52.2314 58.7944V58.7954C53.7803 59.9028 54.9522 61.3899 55.835 63.1294C55.8358 63.1335 55.8368 63.1381 55.8379 63.1431C55.8415 63.1603 55.848 63.187 55.8555 63.2212C55.8439 63.2588 55.8328 63.2783 55.8281 63.2866C55.8219 63.2903 55.8111 63.297 55.793 63.3042C55.7307 63.329 55.6909 63.3369 55.6699 63.3394C55.6668 63.3367 55.6626 63.3338 55.6582 63.3296C55.6199 63.2823 55.5712 63.2103 55.4834 63.0659C55.4013 62.9309 55.2685 62.7048 55.1074 62.4907L55.0762 62.4517L54.4395 61.6763C53.7967 60.8981 53.1267 60.1102 52.4082 59.3638C52.293 59.2393 52.21 59.1492 52.1396 59.062C52.0731 58.9797 52.041 58.9273 52.0254 58.897C52.0747 58.7894 52.133 58.7617 52.1426 58.7583C52.1478 58.7565 52.1498 58.7558 52.1533 58.7563Z"
            stroke="#4595D1" stroke-width="2.5" />
        <path
            d="M47.3584 56.124C47.3791 56.1241 47.3974 56.1305 47.416 56.1504C47.4344 56.1702 47.4541 56.2064 47.4512 56.2666L47.4502 56.2959V56.3262C47.4502 56.3368 47.4488 56.3406 47.4482 56.3418C47.447 56.3446 47.442 56.3518 47.4307 56.3623C47.4052 56.3858 47.3539 56.4141 47.2812 56.4141C47.2604 56.414 47.2423 56.4068 47.2236 56.3867C47.2052 56.367 47.1847 56.3315 47.1875 56.2715L47.1895 56.2412V56.2119C47.1895 56.2013 47.1908 56.1975 47.1914 56.1963C47.1926 56.1937 47.1971 56.1857 47.209 56.1748C47.2345 56.1513 47.2859 56.124 47.3584 56.124Z"
            stroke="#4595D1" stroke-width="2.5" />
    </g>
    <defs>
        <clipPath id="clip0_1240_1201">
            <rect width="64" height="71" fill="white" />
        </clipPath>
    </defs>
</svg>