<svg width="40" height="40" viewBox="0 0 40 40" fill="none" xmlns="http://www.w3.org/2000/svg">
    <g clip-path="url(#clip0_2017_571)">
        <path
            d="M19.9966 6.50577C27.0811 6.63484 33.1155 9.1642 38.0385 14.221C38.8269 15.0315 38.5654 16.141 37.5462 16.3755C37.0548 16.4884 36.6635 16.2881 36.3404 15.9493C32.9376 12.3722 28.7781 10.1598 23.9004 9.27144C20.4716 8.64694 17.0775 8.85574 13.7343 9.82192C10.0632 10.883 6.88158 12.767 4.16338 15.4178C3.99319 15.5839 3.83935 15.768 3.67397 15.9389C3.12783 16.5036 2.40477 16.5615 1.87594 16.0879C1.37691 15.6399 1.36633 14.855 1.88651 14.3055C3.62493 12.4652 5.6018 10.921 7.82194 9.68145C10.8478 7.99301 14.0949 6.98126 17.5486 6.63674C18.3582 6.55607 19.1745 6.47824 19.9966 6.50482V6.50577Z"
            fill="black" />
        <path
            d="M20.0251 13.8099C25.0913 13.9342 29.3892 15.7717 32.8564 19.4485C33.3161 19.9354 33.4055 20.4375 33.1478 20.9196C32.9036 21.3771 32.4459 21.6096 31.9074 21.5517C31.568 21.5147 31.3199 21.3325 31.095 21.0923C28.6662 18.5098 25.7028 16.8916 22.1586 16.4019C17.7674 15.7945 13.8492 16.9239 10.4099 19.6791C9.86185 20.1176 9.36475 20.6102 8.88015 21.117C8.36862 21.6514 7.62249 21.7083 7.1225 21.266C6.59078 20.7962 6.56963 20.0702 7.10808 19.4931C9.95704 16.437 13.457 14.5882 17.629 13.994C18.4222 13.8811 19.2174 13.7957 20.0251 13.8099Z"
            fill="black" />
        <path
            d="M19.988 21.1143C23.1013 21.1959 25.6474 22.3718 27.6531 24.6705C28.1589 25.2504 28.1339 26.0221 27.6214 26.4558C27.0512 26.9389 26.3493 26.8497 25.809 26.2261C22.709 22.648 17.3015 22.6366 14.215 26.2024C13.6641 26.8392 12.9853 26.9427 12.4093 26.4776C11.8507 26.0259 11.818 25.2808 12.3555 24.6658C14.3756 22.3547 16.94 21.1845 19.988 21.1143Z"
            fill="black" />
        <path
            d="M20.0248 33.4999C18.6565 33.5189 17.4316 32.3306 17.4239 30.9763C17.4162 29.6456 18.596 28.4611 19.9555 28.4346C21.3315 28.407 22.5439 29.5621 22.5795 30.9326C22.6141 32.2689 21.4074 33.4809 20.0248 33.4999Z"
            fill="black" />
    </g>
    <defs>
        <clipPath id="clip0_2017_571">
            <rect width="37" height="27" fill="white" transform="translate(1.5 6.5)" />
        </clipPath>
    </defs>
</svg>