<svg width="40" height="40" viewBox="0 0 40 40" fill="none" xmlns="http://www.w3.org/2000/svg">
    <g clip-path="url(#clip0_2017_571)">
        <path
            d="M18.7346 1.52376C23.1129 1.52376 27.4922 1.56221 31.8705 1.50358C33.5088 1.48148 35.3286 2.79906 35.3623 5.04501C35.3744 5.87727 35.381 6.71049 35.3576 7.54275C35.3352 8.35483 34.7011 8.83919 34.0428 8.57779C33.6734 8.43171 33.4752 8.14821 33.4312 7.74457C33.3414 6.92961 33.4004 6.11273 33.391 5.2968C33.376 3.98979 32.9094 3.50158 31.6339 3.50158C22.9857 3.50158 14.3376 3.50158 5.68942 3.50158C4.46907 3.50158 3.95287 4.03208 3.95287 5.28143C3.95193 10.1337 3.95287 14.986 3.95287 19.8383C3.95287 21.1434 4.49431 21.6998 5.78293 21.7008C11.1123 21.7037 16.4416 21.7017 21.7701 21.7027C22.8137 21.7027 23.0998 21.9977 23.0998 23.0703C23.0998 24.1755 23.0998 25.2807 23.0998 26.3849C23.0998 27.4267 22.7463 27.7957 21.7168 27.7966C18.3979 27.7986 15.0791 27.7938 11.7594 27.7918C10.8177 27.7918 10.5998 28.0033 10.5942 28.9605C10.5886 29.9993 10.5119 29.8706 11.4555 29.8715C14.8528 29.8754 18.2493 29.8735 21.6466 29.8735C21.8177 29.8735 21.9907 29.8667 22.1609 29.8821C22.6753 29.9292 23.0774 30.3645 23.0764 30.8604C23.0755 31.3352 22.694 31.7725 22.2086 31.8407C22.0553 31.8628 21.8972 31.857 21.742 31.857C17.8154 31.857 13.8887 31.858 9.96207 31.857C8.95118 31.857 8.6641 31.5562 8.66223 30.5058C8.66223 29.9129 8.65661 29.3209 8.66597 28.7279C8.69308 26.9288 9.8433 25.7602 11.5836 25.7583C12.3317 25.7583 13.0798 25.7458 13.827 25.7631C14.1749 25.7717 14.303 25.6353 14.2843 25.2835C14.2646 24.9001 14.2665 24.5147 14.2843 24.1312C14.2992 23.7987 14.1702 23.6738 13.8476 23.6805C13.1312 23.6949 12.414 23.6844 11.6977 23.6844C9.67217 23.6844 7.64573 23.6575 5.62116 23.6911C3.51148 23.7257 1.97412 21.9679 2.00124 19.9671C2.06763 15.036 2.0695 10.102 1.99937 5.17091C1.97225 3.23922 3.55357 1.4661 5.55196 1.49974C9.94523 1.5747 14.3404 1.5228 18.7346 1.5228V1.52376ZM18.6093 25.7516C18.9515 25.7516 19.2947 25.7516 19.637 25.7516C21.2482 25.7516 21.2426 25.7516 21.1229 24.0755C21.1024 23.7872 20.9911 23.6834 20.7199 23.6844C19.3499 23.6901 17.979 23.6921 16.6081 23.6824C16.3004 23.6805 16.1938 23.8112 16.205 24.1149C16.22 24.5147 16.2237 24.9155 16.2041 25.3152C16.1873 25.6574 16.3313 25.7631 16.6464 25.7554C17.3001 25.74 17.9547 25.7506 18.6084 25.7516H18.6093Z"
            fill="black" />
        <path
            d="M24.7634 30.0814C24.7634 28.5927 24.7868 27.1041 24.7578 25.6164C24.7139 23.3118 26.5626 21.5714 28.5872 21.6925C29.6112 21.754 30.6417 21.6992 31.6694 21.704C33.7099 21.7136 35.3295 23.2801 35.3539 25.3675C35.3913 28.5197 35.3894 31.6729 35.3539 34.8251C35.3305 36.9144 33.7099 38.4905 31.6769 38.4962C30.5865 38.4991 29.4971 38.5001 28.4067 38.4962C26.4083 38.4886 24.8074 36.8932 24.77 34.8337C24.7419 33.2499 24.7644 31.6652 24.7644 30.0804H24.7616L24.7634 30.0814ZM26.744 30.1064C26.744 31.6431 26.7375 33.1807 26.7459 34.7174C26.7525 35.8207 27.423 36.5059 28.503 36.5165C29.5308 36.5271 30.5594 36.5252 31.5871 36.5165C32.7009 36.5079 33.3807 35.8409 33.3845 34.704C33.3966 31.6306 33.3976 28.5562 33.3845 25.4819C33.3798 24.3613 32.7084 23.6953 31.6217 23.6857C30.594 23.6761 29.5654 23.678 28.5376 23.6857C27.3996 23.6934 26.7497 24.3661 26.745 25.5424C26.7384 27.0637 26.7431 28.5841 26.744 30.1054V30.1064Z"
            fill="black" />
        <path
            d="M30.0739 9.68808C32.9364 9.71788 35.4238 10.7222 37.5176 12.7413C37.6195 12.8393 37.7215 12.9412 37.8047 13.0556C38.0806 13.4342 38.06 13.9599 37.7673 14.2963C37.4465 14.6653 36.9453 14.7595 36.5432 14.4693C36.1757 14.204 35.8577 13.8667 35.4996 13.5851C32.0134 10.8433 27.2348 11.0691 24.0096 14.1214C23.7206 14.3943 23.4316 14.6874 22.9977 14.6307C22.6209 14.5807 22.317 14.3847 22.187 13.9964C22.0467 13.5784 22.1486 13.2103 22.4516 12.8989C23.7692 11.5458 25.3318 10.6222 27.1189 10.0975C28.0811 9.81494 29.063 9.65637 30.073 9.68904L30.0739 9.68808Z"
            fill="black" />
        <path
            d="M30.0706 13.3977C31.9464 13.4554 33.6194 14.0848 35.0025 15.4428C35.5271 15.9579 35.5729 16.5028 35.1521 16.9555C34.7631 17.3745 34.1795 17.3812 33.697 16.9026C31.6874 14.9104 28.3976 14.9325 26.4198 16.9151C25.9513 17.3841 25.3406 17.3831 24.9619 16.9747C24.543 16.524 24.5888 15.9714 25.1106 15.4572C26.4908 14.0973 28.1601 13.4592 30.0706 13.3977Z"
            fill="black" />
        <path
            d="M30.0663 17.137C30.9771 17.1879 31.8122 17.4897 32.4957 18.1595C32.924 18.5785 32.9727 19.1724 32.6323 19.5742C32.2676 20.0047 31.7598 20.0383 31.2567 19.6655C30.3169 18.9687 29.811 18.9706 28.8599 19.6731C28.3643 20.0393 27.8416 19.9989 27.4853 19.5655C27.1533 19.1628 27.2104 18.5641 27.6396 18.1509C28.3138 17.5002 29.1311 17.1937 30.0663 17.1379V17.137Z"
            fill="black" />
        <path
            d="M29.9625 32.7683C30.3618 32.7904 30.6582 32.7452 30.949 32.8279C31.3998 32.9557 31.7205 33.3603 31.713 33.7947C31.7046 34.2752 31.3829 34.6625 30.8911 34.75C30.3524 34.8451 29.8082 34.8442 29.2686 34.7548C28.7645 34.6712 28.4335 34.3021 28.4148 33.8312C28.3961 33.3517 28.7318 32.9134 29.234 32.8192C29.5061 32.7674 29.7895 32.7789 29.9634 32.7693L29.9625 32.7683Z"
            fill="black" />
        <path
            d="M30.0768 29.1144C30.3106 29.1144 30.5453 29.0981 30.7782 29.1173C31.3121 29.1625 31.6993 29.569 31.7124 30.0774C31.7264 30.6002 31.329 31.049 30.7744 31.0807C30.2928 31.1086 29.8075 31.1105 29.3259 31.0778C28.7957 31.0423 28.4151 30.605 28.416 30.0976C28.416 29.5902 28.8004 29.1683 29.3287 29.1183C29.5756 29.0952 29.8271 29.1144 30.0759 29.1144C30.0759 29.1144 30.0759 29.1135 30.0759 29.1125L30.0768 29.1144Z"
            fill="black" />
    </g>
    <defs>
        <clipPath id="clip0_2017_571">
            <rect width="36" height="37" fill="white" transform="translate(2 1.5)" />
        </clipPath>
    </defs>
</svg>