<svg width="40" height="40" viewBox="0 0 40 40" fill="none" xmlns="http://www.w3.org/2000/svg">
    <path
        d="M3.01259 19.9248C3.01259 17.4015 3.03704 14.8783 3.00037 12.3657C3.00037 11.6463 3.28156 11.2275 3.97842 10.8839C8.99095 8.37139 13.9913 5.83736 18.9671 3.28186C19.7007 2.90605 20.2997 2.90605 21.0333 3.28186C26.0213 5.83736 31.0216 8.37139 36.0219 10.8839C36.7188 11.2383 37 11.6678 37 12.3764C36.9755 17.4552 36.9755 22.5233 37 27.6021C37 28.3215 36.7188 28.7402 36.0219 29.0946C30.985 31.6286 25.948 34.1841 20.9232 36.7504C20.263 37.0832 19.7129 37.0832 19.0649 36.7504C14.0402 34.1841 9.0154 31.6286 3.97842 29.0946C3.28156 28.7402 2.98814 28.3215 3.00037 27.6021C3.03704 25.0466 3.01259 22.4911 3.01259 19.9356V19.9248ZM4.9198 13.4072C4.89535 13.5361 4.84645 13.6649 4.84645 13.7938C4.84645 18.2176 4.84644 22.6307 4.82199 27.0545C4.82199 27.6665 5.20099 27.8813 5.69002 28.1282C10.1768 30.3938 14.6759 32.6594 19.1505 34.9572C19.774 35.2793 20.2141 35.3008 20.8499 34.9787C25.3245 32.6809 29.7991 30.4045 34.3104 28.1604C35.0072 27.8168 35.1906 27.4303 35.1906 26.7753C35.1661 22.6307 35.1906 18.486 35.1661 14.3414C35.1661 14.03 35.3251 13.6649 34.9705 13.375C34.8483 13.418 34.7382 13.4394 34.6404 13.4824C30.2881 15.6836 25.948 17.9062 21.5712 20.0752C20.9721 20.3758 20.9232 20.7624 20.9232 21.267C20.9232 24.7245 20.9232 28.1712 20.9232 31.6286C20.9232 31.94 20.9477 32.2621 20.8743 32.552C20.7765 32.96 20.4586 33.2285 19.9574 33.207C19.5173 33.1855 19.2239 32.9278 19.1383 32.5628C19.0649 32.2621 19.0894 31.9507 19.0894 31.6393C19.0894 28.2249 19.0649 24.7996 19.1016 21.3851C19.1016 20.6872 18.8938 20.2792 18.1602 19.9141C14.0891 17.9062 10.0668 15.8231 6.00789 13.783C5.67779 13.622 5.3966 13.3428 4.9198 13.3965V13.4072ZM34.1147 11.7322C29.579 9.43439 25.0311 7.12585 20.4831 4.81731C20.1286 4.63477 19.8596 4.64551 19.505 4.81731C14.9571 7.13659 10.4091 9.43439 5.83673 11.7537C5.95898 11.8718 6.00789 11.9792 6.10569 12.0221C10.5558 14.277 15.006 16.5318 19.4439 18.7974C19.9574 19.0658 20.3242 18.9048 20.7398 18.69C25.0188 16.5211 29.2978 14.3414 33.5768 12.1724C33.7724 12.0758 34.0047 12.0006 34.1147 11.7215V11.7322Z"
        fill="black" />
</svg>