<svg xmlns="http://www.w3.org/2000/svg" width="124" height="118" viewBox="0 0 124 118" fill="none">
    <g clip-path="url(#clip0_41_392)">
        <path
            d="M93.127 77.1484C99.6837 73.8973 106.532 71.309 113.754 69.3773C115.904 68.8001 117.31 71.3926 115.712 72.787C102.708 84.1425 94.0915 99.5556 85.2647 114.157C84.2459 115.856 81.6654 114.249 81.7793 112.555C83.0464 93.9564 78.5119 75.6626 69.0707 58.803C68.1779 57.1939 70.5412 55.6103 71.8641 56.8506C78.5484 63.1084 84.0178 70.2115 87.6759 78.3776C91.8725 69.0911 93.1153 59.522 88.9764 48.971C84.6885 38.0327 75.5395 29.7609 64.4966 25.6628C38.3232 15.9704 14.3619 32.0962 5.19227 54.883C4.77773 55.9246 3.29842 55.1656 3.56169 54.1453C10.6189 27.5212 39.0672 11.4628 66.9507 22.5814C87.7884 30.9003 102.479 57.4529 93.127 77.1484ZM85.8425 105.536C92.2108 94.976 98.812 84.4603 107.234 75.4955C102.622 77.1122 98.1521 79.0043 93.811 81.2137C93.8297 82.0498 93.3508 82.8613 92.2919 83.0108C91.2941 83.1559 90.2962 83.301 89.2984 83.446C89.1675 83.4659 89.0598 83.433 88.9463 83.4311C87.7166 84.1754 85.7244 82.9334 86.2402 81.4553C83.7977 76.7639 81.0618 72.3903 77.8462 68.3278C83.0085 80.2536 85.6839 92.8427 85.8425 105.536Z"
            fill="#FE5000" />
    </g>
    <defs>
        <clipPath id="clip0_41_392">
            <rect width="66.7026" height="105.406" fill="white"
                transform="matrix(0.625964 -0.779852 -0.779852 -0.625964 82.2007 117.998)" />
        </clipPath>
    </defs>
</svg>