<svg xmlns="http://www.w3.org/2000/svg" width="231" height="182" viewBox="0 0 231 182" fill="none">
    <g clip-path="url(#clip0_85_848)">
        <path
            d="M33.1212 54.9608C31.3629 53.7265 29.8371 52.6542 28.3209 51.5867C26.4028 50.2379 24.394 49.0003 22.5856 47.5259C20.9904 46.2282 21.4246 44.6107 23.4032 43.9789C23.7345 43.8664 24.0853 43.7874 24.4316 43.7421C27.6776 43.2421 30.9083 42.6269 34.1699 42.2663C40.6257 41.5358 47.0857 41.8722 53.4923 42.7328C58.0864 43.3495 62.6221 44.4759 66.6918 46.8692C67.9936 47.6401 69.2721 48.5072 70.393 49.5242C73.183 52.0549 73.6983 56.065 71.8238 59.3203C71.444 59.9714 71.1709 60.6988 70.9747 61.416C69.8393 65.5369 68.728 69.6576 67.6264 73.7831C67.4119 74.611 67.2842 75.4576 67.0764 76.5162C68.1318 76.6157 68.9849 76.7115 69.8425 76.7737C78.8237 77.4508 87.6887 76.3358 96.478 74.8128C107.349 72.9362 118.155 70.6802 128.976 68.5635C137.74 66.8484 146.544 65.4647 155.526 65.5554C159.455 65.5944 163.402 65.4268 167.31 65.7543C172.688 66.2174 178.031 67.166 183.145 68.9715C189.148 71.0937 194.986 73.6255 199.647 78.1396C201.618 80.0407 203.379 82.1978 205.044 84.3795C206.763 86.6234 206.708 89.1806 205.684 91.7291C205.618 91.8881 205.547 92.0568 205.472 92.211C204.309 94.871 203.913 94.6522 206.836 96.3747C210.431 98.4872 214.069 100.513 217.655 102.645C218.909 103.392 220.086 104.293 221.221 105.209C222.045 105.877 222.856 106.646 222.5 107.884C222.149 109.111 221.097 109.372 220.019 109.489C216.527 109.88 213.015 110.237 209.512 110.623C208.166 110.776 206.838 110.961 205.506 111.181C205.126 111.246 204.787 111.497 204.278 111.726C204.58 112.676 204.78 113.588 205.144 114.437C206.819 118.358 207.883 122.423 208.285 126.664C208.301 126.9 208.371 127.125 208.402 127.356C208.535 128.282 208.397 129.148 207.593 129.711C206.717 130.321 205.79 130.058 204.929 129.587C204.054 129.121 203.24 128.506 202.331 128.108C199.161 126.719 195.924 125.488 192.772 124.036C187.233 121.484 181.342 120.158 175.475 118.737C172.913 118.113 170.295 117.701 167.738 117.091C164.954 116.43 162.806 114.67 160.915 112.629C160.536 112.227 160.419 111.44 160.448 110.844C160.559 108.637 160.55 106.407 161.811 104.107C160.019 103.944 158.509 103.622 157.027 103.707C147.536 104.288 138.025 104.763 128.691 106.736C120.817 108.398 112.893 109.699 104.873 110.535C102.482 110.785 100.097 111.169 97.7317 111.611C91.4769 112.763 85.1623 113.109 78.8185 113.415C70.4145 113.812 62.0417 113.9 53.6828 112.787C47.4546 111.954 41.5551 110.134 36.0115 107.124C34.0427 106.05 32.7102 104.486 32.0137 102.409C31.2285 100.073 30.7796 97.6633 30.696 95.1694C30.5032 89.4271 31.4385 83.856 33.0632 78.3721C33.5408 76.764 33.4408 76.8944 31.9717 76.2687C27.8303 74.5103 23.3439 73.5277 19.5612 70.9164C18.5586 70.2207 17.3467 69.829 16.2633 69.2491C13.9366 67.9989 13.8099 66.106 16.0563 64.6844C18.3841 63.2191 20.8094 61.8974 23.2251 60.5709C26.1439 58.9531 29.0969 57.3879 32.0303 55.7892C32.3227 55.6337 32.5565 55.3775 33.121 54.9368L33.1212 54.9608ZM38.741 71.6C38.2937 72.8042 37.8886 73.8736 37.5126 74.9572C35.261 81.4734 33.6219 88.1109 34.0224 95.0679C34.1407 97.1002 34.5863 99.1257 35.0364 101.118C35.3367 102.462 36.1454 103.577 37.4509 104.218C39.0755 105.015 40.6674 105.929 42.3533 106.577C46.0296 107.987 49.8089 109.066 53.7421 109.537C60.7553 110.385 67.7733 110.66 74.8388 110.277C82.3999 109.862 89.9581 109.672 97.4589 108.378C103.296 107.368 109.219 106.842 115.076 105.937C120.352 105.118 125.581 103.976 130.851 103.118C143.118 101.113 155.453 100.434 167.876 101.533C168.681 101.605 169.515 101.764 170.269 102.038C175.065 103.807 179.767 105.793 184.318 108.135C187.64 109.85 191.668 108.418 193.533 105.134C194.425 103.562 195.409 102.023 196.49 100.579C198.099 98.4261 199.883 96.4065 201.473 94.2438C202.73 92.5398 203.682 90.6501 204.059 88.5379C204.219 87.6238 204.073 86.846 203.355 86.1342C201.815 84.6006 200.419 82.9219 198.847 81.4318C197.313 79.9846 195.698 78.6053 194.002 77.3657C190.659 74.9105 186.822 73.3617 182.949 71.9862C177.168 69.9491 171.148 68.7161 165.041 68.493C155.408 68.1418 145.775 68.4491 136.266 70.2407C127.045 71.9826 117.81 73.7534 108.629 75.6825C99.5927 77.5867 90.4851 79.0491 81.2985 79.719C71.5634 80.4306 61.8168 79.7725 52.1861 78.0227C47.46 77.1617 42.9222 75.795 39.563 72.0037C39.456 71.8793 39.2536 71.8517 38.7507 71.6048L38.741 71.6ZM18.7079 66.7882C19.1928 67.1938 19.4652 67.519 19.7987 67.6708C23.9027 69.5544 28.021 71.4332 32.1439 73.2782C32.6272 73.4916 33.1575 73.5605 33.6598 73.7354C34.2682 73.9384 34.7384 73.7386 34.9794 73.1989C35.8916 71.17 37.0403 69.1974 37.6003 67.0794C38.4262 63.9553 40.4533 62.2226 43.2461 61.0813C45.2376 60.2764 47.3147 59.9084 49.4384 59.9342C53.0212 59.9705 56.5957 60.1703 60.1779 60.1346C62.3397 60.1073 64.5044 59.8541 66.6493 59.5434C67.8757 59.3678 68.9588 58.751 69.6083 57.5504C70.7082 55.506 70.5939 53.368 68.9525 51.7244C67.9327 50.6972 66.7073 49.8441 65.473 49.0825C62.1236 47.031 58.3313 46.126 54.5957 45.1053C53.2492 44.7432 51.8587 44.2997 50.4815 44.2935C45.9598 44.2627 41.4338 44.2897 36.924 44.528C33.8292 44.6954 30.7472 45.228 27.6691 45.6549C27.0487 45.7451 26.2149 45.6588 25.9148 46.6122C26.1427 46.8079 26.3466 47.0037 26.5791 47.1657C29.6065 49.2864 32.6386 51.3975 35.6659 53.5183C35.9953 53.7518 36.344 53.9948 36.6018 54.3009C37.3363 55.1761 37.2423 56.0273 36.3237 56.7249C35.8117 57.1076 35.217 57.3899 34.6562 57.7008C29.8395 60.3729 25.0178 63.0306 20.1964 65.7123C19.7171 65.9795 19.3014 66.3617 18.7032 66.7978L18.7079 66.7882ZM168.874 112.528L168.773 113.125C169.262 113.377 169.722 113.71 170.234 113.866C173.371 114.809 176.528 115.737 179.671 116.645C183.107 117.639 186.629 118.387 189.976 119.636C194.531 121.334 198.955 123.423 203.434 125.323C203.831 125.494 204.274 125.544 204.771 125.681C204.859 125.281 204.968 125.059 204.938 124.853C204.75 123.696 204.663 122.504 204.307 121.396C203.357 118.441 202.369 115.491 201.252 112.586C200.533 110.725 201.261 109.096 203.237 108.714C205.299 108.303 207.381 107.974 209.479 107.735C211.807 107.467 214.161 107.366 216.499 107.15C216.966 107.104 217.421 106.909 218.272 106.669C217.042 105.825 216.213 105.191 215.308 104.663C211.625 102.484 207.914 100.338 204.231 98.1589C202.847 97.3356 202.592 97.3179 201.557 98.4968C199.201 101.193 197.082 104.065 195.361 107.204C194.327 109.089 192.87 110.492 190.81 111.095C187.942 111.949 185.035 112.639 181.991 112.532C178.479 112.399 174.954 112.319 171.438 112.268C170.591 112.259 169.735 112.437 168.884 112.533L168.874 112.528ZM67.8961 62.3572C67.3086 62.3559 67.0193 62.3095 66.7405 62.364C63.4377 62.9797 60.1053 62.9467 56.7579 62.8464C54.0029 62.7619 51.2535 62.7639 48.5094 62.8283C46.2996 62.8799 44.2343 63.4929 42.4155 64.8014C40.4675 66.202 40.2145 67.5973 41.565 69.5886C42.9401 71.6279 44.9291 72.808 47.194 73.5971C52.2213 75.3359 57.479 75.8477 62.7175 76.374C63.1656 76.4146 63.6175 76.3254 64.1854 76.2931C64.8386 71.5167 67.1575 67.2831 67.9058 62.3619L67.8961 62.3572ZM178.752 109.35C178.794 109.167 178.836 108.985 178.877 108.802C174.737 106.015 170.133 104.759 165.168 104.678C164.266 106.88 163.966 109.52 164.515 110.699C166.692 109.638 169.019 109.154 171.456 109.202C173.893 109.25 176.325 109.307 178.752 109.35Z"
            fill="white" />
    </g>
    <defs>
        <clipPath id="clip0_85_848">
            <rect width="207.872" height="99.7222" fill="white" transform="translate(43.9548) rotate(26.1532)" />
        </clipPath>
    </defs>
</svg>