<svg width="180" height="41" viewBox="0 0 180 41" fill="none" xmlns="http://www.w3.org/2000/svg">
<mask id="mask0_1761_356" style="mask-type:alpha" maskUnits="userSpaceOnUse" x="0" y="0" width="180" height="41">
<path d="M3.93364 29.5531C6.23503 33.0638 9.39252 35.9442 13.1147 37.9283C16.837 39.9124 21.004 40.9365 25.2314 40.9059C22.7937 37.5248 19.6076 34.7401 15.9165 32.7646C12.2264 30.792 8.12489 29.6928 3.93364 29.5531ZM0 17.5175C0.167614 19.9885 0.677677 22.425 1.51585 24.7584C5.74509 24.7584 12.2708 26.2591 17.8113 29.2605C23.3517 32.2619 28.2025 36.764 30.5899 40.2531C33.0191 39.6567 35.3548 38.7353 37.5326 37.5144V8.10815C37.5219 6.64311 37.1125 5.20801 36.3474 3.95393C35.5823 2.69984 34.4898 1.67316 33.185 0.981959C31.8802 0.290757 30.4112 -0.0393962 28.9328 0.0262529C27.4545 0.091902 26.0213 0.550925 24.7842 1.355L0 17.5175ZM30.3171 6.26229C30.5943 6.3959 30.8215 6.61325 30.9659 6.88297C31.1103 7.15269 31.1644 7.46084 31.1205 7.76299V31.7742C28.323 28.3757 24.8508 25.5818 20.9188 23.5653C17.0773 21.4204 12.8254 20.0939 8.43573 19.671L28.6496 6.40486C28.876 6.20883 29.1592 6.08874 29.4588 6.06179C29.7583 6.03483 30.0587 6.10239 30.3171 6.25479V6.26229Z" fill="white"/>
<path d="M162.326 5.94996H174.377V1.17773H162.326V5.94996ZM180 10.3245V34.8309H174.377V15.4719L165.13 34.8309H156.694V10.3245H162.326V29.676L171.572 10.3245H180ZM136.041 9.90431C140.058 9.90431 143.067 11.6976 144.476 14.684V10.3245H150.426V34.8309H144.476V30.4489C143.067 33.4503 139.974 35.2286 136.041 35.2286C129.977 35.2286 125.149 29.8186 125.149 22.5777C125.149 15.1793 130.015 9.92682 136.041 9.92682V9.90431ZM137.807 15.2393C133.714 15.2393 131.084 18.3833 131.084 22.5627C131.084 26.9748 133.941 29.8786 137.807 29.8786C141.869 29.8786 144.476 26.7347 144.476 22.5627C144.476 18.3908 141.907 15.2543 137.807 15.2543V15.2393ZM115.584 15.712V34.8084H109.642V15.757H102.002V10.3245H123.224V15.757L115.584 15.712ZM94.4003 26.8322L99.3799 29.5335C97.5381 33.3528 93.4983 35.3637 88.5339 35.3637C81.3943 35.3637 76.2404 30.0737 76.2404 22.6077C76.2404 15.4869 81.0608 9.85178 88.5339 9.85178C95.7721 9.85178 100.388 15.1493 100.388 22.6077C100.402 23.2716 100.374 23.9357 100.305 24.5962H82.1143C82.7131 27.8977 84.8807 30.2013 88.784 30.2013C89.9496 30.2405 91.1014 29.9428 92.0988 29.3445C93.0962 28.7462 93.8959 27.8732 94.4003 26.8322ZM88.5188 15.0067C86.9856 14.9119 85.4732 15.3968 84.2872 16.3635C83.1012 17.3301 82.33 18.7063 82.1295 20.2141H94.5064C94.082 16.9951 92.0356 15.0067 88.5415 15.0067H88.5188ZM67.168 10.3545H57.7394L50.1602 34.861H55.981L62.287 13.9337L68.5853 34.861H74.7776L67.168 10.3545Z" fill="white"/>
</mask>
<g mask="url(#mask0_1761_356)">
<rect x="-4.53516" y="-21.4287" width="211.966" height="89.0569" fill="#FE5000"/>
</g>
</svg>
