<svg xmlns="http://www.w3.org/2000/svg" width="37" height="52" viewBox="0 0 37 52" fill="none">
    <g opacity="0.39" clip-path="url(#clip0_1468_12006)">
        <path d="M27.0742 20.309V12.7047C27.0742 10.4089 26.1821 8.25066 24.5625 6.62727C22.9429 5.00388 20.7898 4.11033 18.4993 4.11033C16.2089 4.11033 14.0557 5.00453 12.4361 6.62727C10.8165 8.25066 9.92443 10.4089 9.92443 12.7047V20.309L5.82373 24.4193V12.7047C5.82373 10.9907 6.15884 9.32618 6.8206 7.75888C7.45893 6.24571 8.37251 4.88713 9.53596 3.72095C10.6994 2.55477 12.0548 1.63904 13.5644 0.99921C15.1294 0.335896 16.7893 0 18.5 0C20.2107 0 21.8706 0.335896 23.4342 0.99921C24.9438 1.63904 26.2992 2.55477 27.4627 3.72095C28.6261 4.88713 29.5397 6.24571 30.1781 7.75888C30.8398 9.32683 31.1749 10.9907 31.1749 12.7047V24.4193L27.0742 20.309Z"
              fill="black"/>
        <path d="M18.5 14.9131C8.28274 14.9131 0 23.2153 0 33.4565C0 43.6978 8.28274 52 18.5 52C28.7173 52 37 43.6978 37 33.4565C37 23.2153 28.7173 14.9131 18.5 14.9131ZM19.9927 34.7799L20.294 39.4172C20.361 40.4562 19.5392 41.3361 18.5 41.3361C17.4608 41.3361 16.639 40.4562 16.706 39.4172L17.0073 34.7799C15.0031 34.1453 13.5501 32.2669 13.5501 30.048C13.5501 27.308 15.7664 25.0865 18.5 25.0865C21.2336 25.0865 23.4499 27.308 23.4499 30.048C23.4499 32.2669 21.9969 34.1446 19.9927 34.7799Z"
              fill="black"/>
    </g>
    <defs>
        <clipPath id="clip0_1468_12006">
            <rect width="37" height="52" fill="white"/>
        </clipPath>
    </defs>
</svg>