<svg width="786" height="368" viewBox="0 0 786 368" fill="none" xmlns="http://www.w3.org/2000/svg"
     preserveAspectRatio="none">
    <g>
        <path
                d="M712.738 362.169C720.275 365.832 729.468 368 739.395 368C764.95 368 785.694 353.77 785.694 336.193C785.694 325.815 778.432 316.638 767.248 310.828C778.432 305.018 785.694 295.84 785.694 285.462C785.694 275.084 778.432 265.906 767.248 260.097C778.432 254.287 785.694 245.109 785.694 234.731C785.694 224.353 778.432 215.175 767.248 209.366C778.432 203.556 785.694 194.378 785.694 184C785.694 173.622 778.432 164.444 767.248 158.635C778.432 152.825 785.694 143.647 785.694 133.269C785.694 122.891 778.432 113.713 767.248 107.903C778.432 102.094 785.694 92.9157 785.694 82.538C785.694 72.1602 778.432 62.9823 767.248 57.1724C778.432 51.3626 785.694 42.1847 785.694 31.8069C785.694 14.23 764.98 3.34384e-05 739.395 3.232e-05C729.468 3.1886e-05 720.275 2.1682 712.738 5.83094C705.2 2.1682 696.008 3.04235e-05 686.08 2.99895e-05C676.153 2.95556e-05 666.96 2.1682 659.423 5.83094C651.885 2.1682 642.693 2.8093e-05 632.765 2.7659e-05C622.837 2.72251e-05 613.645 2.1682 606.107 5.83094C598.57 2.1682 589.378 2.57625e-05 579.45 2.53286e-05C569.522 2.48946e-05 560.33 2.1682 552.792 5.83094C545.255 2.1682 536.062 2.3432e-05 526.135 2.29981e-05C516.207 2.25641e-05 507.015 2.1682 499.477 5.83093C491.939 2.16819 482.747 2.11016e-05 472.82 2.06676e-05C462.892 2.02336e-05 453.7 2.16819 446.162 5.83093C438.624 2.16819 429.432 1.87711e-05 419.504 1.83371e-05C409.577 1.79032e-05 400.385 2.16819 392.847 5.83093C385.309 2.16819 376.117 1.64406e-05 366.189 1.60066e-05C356.262 1.55727e-05 347.069 2.16819 339.532 5.83093C331.994 2.16819 322.802 1.41101e-05 312.874 1.36762e-05C302.947 1.32422e-05 293.754 2.16819 286.217 5.83092C278.679 2.16819 269.487 1.17796e-05 259.559 1.13457e-05C249.631 1.09117e-05 240.439 2.16818 232.901 5.83092C225.364 2.16818 216.172 9.44916e-06 206.244 9.01521e-06C196.316 8.58125e-06 187.124 2.16818 179.586 5.83092C172.049 2.16818 162.856 7.11868e-06 152.929 6.68473e-06C143.001 6.25078e-06 133.809 2.16818 126.271 5.83092C118.733 2.16818 109.541 4.7882e-06 99.6136 4.35425e-06C89.6859 3.9203e-06 80.4937 2.16818 72.956 5.83092C65.4184 2.16818 56.2261 2.45772e-06 46.2985 2.02377e-06C20.744 9.06747e-07 4.44198e-05 14.23 4.36515e-05 31.8069C4.31979e-05 42.1846 7.26199 51.3625 18.4459 57.1724C7.26199 62.9823 4.18876e-05 72.1602 4.1434e-05 82.5379C4.09804e-05 92.9157 7.26199 102.094 18.4459 107.903C7.26199 113.713 3.96701e-05 122.891 3.92165e-05 133.269C3.87629e-05 143.647 7.26199 152.825 18.4459 158.634C7.26199 164.444 3.74526e-05 173.622 3.6999e-05 184C3.65453e-05 194.378 7.26199 203.556 18.4459 209.366C7.26199 215.175 3.52351e-05 224.353 3.47814e-05 234.731C3.43278e-05 245.109 7.26198 254.287 18.4459 260.097C7.26198 265.906 3.30175e-05 275.084 3.25639e-05 285.462C3.21103e-05 295.84 7.26198 305.018 18.4459 310.828C7.26198 316.637 3.08e-05 325.815 3.03464e-05 336.193C2.9579e-05 353.749 20.7133 368 46.2985 368C56.2261 368 65.4184 365.832 72.956 362.169C80.4937 365.832 89.6859 368 99.6136 368C109.541 368 118.733 365.832 126.271 362.169C133.809 365.832 143.001 368 152.929 368C162.856 368 172.049 365.832 179.586 362.169C187.124 365.832 196.316 368 206.244 368C216.172 368 225.364 365.832 232.901 362.169C240.439 365.832 249.631 368 259.559 368C269.487 368 278.679 365.832 286.217 362.169C293.754 365.832 302.947 368 312.874 368C322.802 368 331.994 365.832 339.532 362.169C347.069 365.832 356.262 368 366.189 368C376.117 368 385.309 365.832 392.847 362.169C400.385 365.832 409.577 368 419.504 368C429.432 368 438.624 365.832 446.162 362.169C453.7 365.832 462.892 368 472.82 368C482.747 368 491.939 365.832 499.477 362.169C507.015 365.832 516.207 368 526.135 368C536.062 368 545.255 365.832 552.792 362.169C560.33 365.832 569.522 368 579.45 368C589.378 368 598.57 365.832 606.107 362.169C613.645 365.832 622.837 368 632.765 368C642.693 368 651.885 365.832 659.423 362.169C666.96 365.832 676.153 368 686.08 368C696.008 368 705.2 365.832 712.738 362.169Z"
                fill="white"/>
    </g>
</svg>