<svg width="459" height="175" viewBox="0 0 459 175" fill="none" xmlns="http://www.w3.org/2000/svg">
<g clip-path="url(#clip0_5_1904)">
<path d="M86.0259 119.37L125.106 67.426H116.185L79.877 116.446H59.8687V67.426H52.8024V175.019H59.8687V122.919H79.7208L118.957 175.019H128.19L86.0454 119.39L86.0259 119.37Z" fill="white"/>
<path d="M214.801 67.4262L184.35 136.139L149.584 67.4262H141.268L180.504 144.114L166.664 175H174.668L222.824 67.4067H214.801V67.4262Z" fill="white"/>
<path d="M278.184 112.917H251.421V74.0363H305.883V67.4263H244.335V175.02H278.184C301.413 175.02 313.554 163.028 313.554 143.978C313.554 124.928 301.1 112.917 278.184 112.917ZM278.184 168.566H251.421V119.371H278.184C296.494 119.371 306.176 129.061 306.176 143.958C306.176 158.855 296.806 168.546 278.184 168.546V168.566Z" fill="white"/>
<path d="M400.498 73.8803V67.4263H338.189V175.02H400.498V168.585H345.255V122.939H391.284V116.485H345.255V73.9193H400.498V73.8803Z" fill="white"/>
<path d="M22.0189 88.3481C26.0596 86.4958 27.9921 83.142 27.9921 79.0278C27.9921 71.8328 23.6586 67.4846 13.3909 67.4846H0V110.967H14.6207C24.8884 110.967 29.2414 106.618 29.2414 98.7994C29.2414 93.8857 26.938 90.1615 22.0189 88.3481ZM4.35302 71.4623H13.3909C20.6525 71.4623 23.5219 74.3091 23.5219 79.0278C23.5219 83.7465 20.672 86.6127 13.3909 86.6127H4.35302V71.4428V71.4623ZM14.6207 106.969H4.35302V90.571H14.6207C21.9018 90.571 24.7712 93.4178 24.7712 98.7799C24.7712 104.142 21.9213 106.969 14.6207 106.969Z" fill="white"/>
<path d="M25.6498 0.389893L10.3459 28.9749L7.49596 35.1169V0.389893H0.0392113V43.8718H9.99456L25.2985 15.3063L28.0313 9.45675V43.8718H35.4881V0.389893H25.6693H25.6498Z" fill="white"/>
<path d="M72.1665 0.389893V18.2116H51.6312V0.389893H44.1744V43.8718H51.6312V24.8022H72.1665V43.8718H79.6233V0.389893H72.1665Z" fill="white"/>
<path d="M84.9132 0.389893V6.98042H98.2846V43.8718H105.741V6.98042H119.113V0.389893H84.9132Z" fill="white"/>
<path d="M152.375 6.98042V0.389893H124.403V43.8718H152.375V37.3008H131.86V24.8022H148.647V18.2116H131.86V6.98042H152.375Z" fill="white"/>
<path d="M174.14 0.389893H159.227V43.8718H166.684V29.0918H174.14C185.287 29.0918 190.928 23.4372 190.928 14.7409C190.928 5.49853 185.833 0.389893 174.14 0.389893ZM174.14 22.5208H166.684V6.98042H174.14C180.289 6.98042 183.1 9.76872 183.1 14.7409C183.1 19.713 180.036 22.5208 174.14 22.5208Z" fill="white"/>
<path d="M224.503 0.389893V18.2116H203.987V0.389893H196.53V43.8718H203.987V24.8022H224.503V43.8718H231.96V0.389893H224.503Z" fill="white"/>
<path d="M268.658 6.98042V0.389893H240.685V43.8718H268.658V37.3008H248.142V24.8022H264.91V18.2116H248.142V6.98042H268.658Z" fill="white"/>
<path d="M272.074 0.389893V6.98042H285.465V43.8718H292.921V6.98042H306.293V0.389893H272.093H272.074Z" fill="white"/>
<path d="M456.56 41.2201C454.94 38.2368 452.832 35.9944 450.216 34.454C447.62 32.9332 445.062 31.8412 442.525 31.1783C439.987 30.5348 437.489 30.2033 434.99 30.2033L458.473 3.10028V0H416.797V4.1532H446.624C449.045 4.1532 450.938 4.07521 452.246 3.95822V4.1532L449.025 7.48747L428.646 31.2563L429.876 34.376H434.873C440.143 34.376 444.692 35.9164 448.537 38.9972C452.383 42.078 454.315 46.3092 454.315 51.7103C454.315 57.1114 452.5 61.1866 448.869 64.5209C445.219 67.8747 440.983 69.571 436.142 69.571C432.394 69.571 428.763 68.6936 425.269 66.9582C421.775 65.2423 418.886 63.0975 416.602 60.5237L413.264 63.8579C416.251 66.9582 419.725 69.4345 423.707 71.2284C427.689 73.0223 431.769 73.9192 435.907 73.9192C442.213 73.9192 447.639 71.7549 452.187 67.4457C456.716 63.117 459 57.8719 459 51.7103C459 47.6936 458.18 44.2033 456.56 41.2396V41.2201Z" fill="white"/>
</g>
<defs>
<clipPath id="clip0_5_1904">
<rect width="459" height="175" fill="white"/>
</clipPath>
</defs>
</svg>
