<svg width="1427" height="820" viewBox="0 0 1427 820" fill="none" xmlns="http://www.w3.org/2000/svg">
    <g>
        <g opacity="0.85">
            <path d="M773.279 153.181C773.279 156.214 770.476 158.676 767.014 158.676C763.552 158.676 760.749 156.217 760.749 153.181C760.749 150.146 763.552 147.687 767.014 147.687C770.476 147.687 773.279 150.146 773.279 153.181Z"
                  fill="#FAFAFA"/>
            <path d="M754.501 153.181C754.501 159.232 760.114 164.155 767.014 164.155C773.914 164.155 779.527 159.232 779.527 153.181C779.527 147.131 773.914 142.208 767.014 142.208C760.114 142.208 754.501 147.131 754.501 153.181ZM756.215 153.181C756.215 147.958 761.061 143.708 767.018 143.708C772.974 143.708 777.82 147.958 777.82 153.181C777.82 158.405 772.974 162.655 767.018 162.655C761.061 162.655 756.215 158.405 756.215 153.181Z"
                  fill="#FAFAFA"/>
            <path d="M150.023 704.488C150.023 707.521 147.219 709.983 143.757 709.983C140.296 709.983 137.492 707.524 137.492 704.488C137.492 701.453 140.296 698.994 143.757 698.994C147.219 698.994 150.023 701.453 150.023 704.488Z"
                  fill="#FAFAFA"/>
            <path d="M131.248 704.488C131.248 710.539 136.861 715.462 143.761 715.462C150.661 715.462 156.274 710.539 156.274 704.488C156.274 698.438 150.661 693.515 143.761 693.515C136.861 693.515 131.248 698.438 131.248 704.488ZM132.958 704.488C132.958 699.265 137.805 695.018 143.757 695.018C149.71 695.018 154.557 699.268 154.557 704.488C154.557 709.709 149.71 713.962 143.757 713.962C137.805 713.962 132.958 709.712 132.958 704.488Z"
                  fill="#FAFAFA"/>
            <path d="M64.3206 74.1665C64.3206 77.1994 61.5172 79.6608 58.0555 79.6608C54.5937 79.6608 51.7904 77.2023 51.7904 74.1665C51.7904 71.1307 54.5937 68.6723 58.0555 68.6723C61.5172 68.6723 64.3206 71.1307 64.3206 74.1665Z"
                  fill="#FAFAFA"/>
            <path d="M45.5457 74.1695C45.5457 80.2203 51.1591 85.1431 58.0589 85.1431C64.9586 85.1431 70.5721 80.2203 70.5721 74.1695C70.5721 68.1186 64.9586 63.1958 58.0589 63.1958C51.1591 63.1958 45.5457 68.1186 45.5457 74.1695ZM47.2562 74.1695C47.2562 68.9461 52.1026 64.6959 58.0555 64.6959C64.0083 64.6959 68.8548 68.9461 68.8548 74.1695C68.8548 79.3929 64.0083 83.6401 58.0555 83.6401C52.1026 83.6401 47.2562 79.3899 47.2562 74.1695Z"
                  fill="#FAFAFA"/>
            <path d="M706.529 652.454C706.529 655.487 703.725 657.948 700.263 657.948C696.802 657.948 693.998 655.49 693.998 652.454C693.998 649.418 696.802 646.959 700.263 646.959C703.725 646.959 706.529 649.418 706.529 652.454Z"
                  fill="#FAFAFA"/>
            <path d="M687.75 652.454C687.75 658.505 693.364 663.427 700.263 663.427C707.163 663.427 712.777 658.505 712.777 652.454C712.777 646.403 707.163 641.48 700.263 641.48C693.364 641.48 687.75 646.403 687.75 652.454ZM689.464 652.454C689.464 647.23 694.311 642.98 700.267 642.98C706.223 642.98 711.069 647.23 711.069 652.454C711.069 657.677 706.223 661.927 700.267 661.927C694.311 661.927 689.464 657.677 689.464 652.454Z"
                  fill="#FAFAFA"/>
            <path d="M925.063 316.637C925.063 319.67 922.26 322.131 918.798 322.131C915.336 322.131 912.533 319.673 912.533 316.637C912.533 313.601 915.336 311.143 918.798 311.143C922.26 311.143 925.063 313.601 925.063 316.637Z"
                  fill="#FAFAFA"/>
            <path d="M217.024 613.062C217.024 616.095 214.221 618.557 210.759 618.557C207.297 618.557 204.494 616.098 204.494 613.062C204.494 610.026 207.297 607.568 210.759 607.568C214.221 607.568 217.024 610.026 217.024 613.062Z"
                  fill="#FAFAFA"/>
            <path d="M229.551 123.052C229.551 126.085 226.748 128.547 223.286 128.547C219.824 128.547 217.021 126.088 217.021 123.052C217.021 120.016 219.824 117.558 223.286 117.558C226.748 117.558 229.551 120.016 229.551 123.052Z"
                  fill="#FAFAFA"/>
            <path d="M563.779 251.599C563.779 254.632 560.976 257.093 557.514 257.093C554.052 257.093 551.249 254.635 551.249 251.599C551.249 248.563 554.052 246.105 557.514 246.105C560.976 246.105 563.779 248.563 563.779 251.599Z"
                  fill="#FAFAFA"/>
            <path d="M457.972 701.741C457.972 703.259 456.57 704.488 454.839 704.488C453.108 704.488 451.707 703.259 451.707 701.741C451.707 700.223 453.108 698.994 454.839 698.994C456.57 698.994 457.972 700.223 457.972 701.741Z"
                  fill="#FAFAFA"/>
            <path d="M758.489 371.374C758.489 372.892 757.087 374.122 755.356 374.122C753.625 374.122 752.224 372.892 752.224 371.374C752.224 369.856 753.625 368.627 755.356 368.627C757.087 368.627 758.489 369.856 758.489 371.374Z"
                  fill="#FAFAFA"/>
            <path d="M6.26508 800.671C6.26508 802.189 4.86341 803.418 3.13254 803.418C1.40167 803.418 0 802.189 0 800.671C0 799.153 1.40167 797.924 3.13254 797.924C4.86341 797.924 6.26508 799.153 6.26508 800.671Z"
                  fill="#FAFAFA"/>
            <path d="M37.1018 533.434C37.1018 534.952 35.7001 536.181 33.9692 536.181C32.2384 536.181 30.8367 534.952 30.8367 533.434C30.8367 531.916 32.2384 530.687 33.9692 530.687C35.7001 530.687 37.1018 531.916 37.1018 533.434Z"
                  fill="#FAFAFA"/>
            <path d="M166.802 311.146C166.802 312.664 165.4 313.893 163.669 313.893C161.938 313.893 160.537 312.664 160.537 311.146C160.537 309.628 161.938 308.399 163.669 308.399C165.4 308.399 166.802 309.628 166.802 311.146Z"
                  fill="#FAFAFA"/>
            <path d="M378.308 15.7177C378.308 17.2356 376.906 18.4648 375.175 18.4648C373.444 18.4648 372.043 17.2356 372.043 15.7177C372.043 14.1998 373.444 12.9706 375.175 12.9706C376.906 12.9706 378.308 14.1998 378.308 15.7177Z"
                  fill="#FAFAFA"/>
            <path d="M909.404 783.075C909.404 784.593 908.002 785.822 906.271 785.822C904.54 785.822 903.139 784.593 903.139 783.075C903.139 781.557 904.54 780.328 906.271 780.328C908.002 780.328 909.404 781.557 909.404 783.075Z"
                  fill="#FAFAFA"/>
            <path d="M805.008 626.444C805.008 623.411 807.812 620.949 811.273 620.949C814.735 620.949 817.539 623.408 817.539 626.444C817.539 629.48 814.735 631.938 811.273 631.938C807.812 631.938 805.008 629.48 805.008 626.444Z"
                  fill="#FAFAFA"/>
            <path d="M798.76 626.444C798.76 632.495 804.374 637.417 811.273 637.417C818.173 637.417 823.787 632.495 823.787 626.444C823.787 620.393 818.173 615.47 811.273 615.47C804.374 615.47 798.76 620.393 798.76 626.444ZM800.471 626.444C800.471 621.22 805.317 616.97 811.273 616.97C817.23 616.97 822.076 621.22 822.076 626.444C822.076 631.667 817.23 635.917 811.273 635.917C805.317 635.917 800.471 631.667 800.471 626.444Z"
                  fill="#FAFAFA"/>
            <path d="M497.1 628.277C497.1 625.244 499.903 622.783 503.365 622.783C506.827 622.783 509.63 625.241 509.63 628.277C509.63 631.313 506.827 633.771 503.365 633.771C499.903 633.771 497.1 631.313 497.1 628.277Z"
                  fill="#FAFAFA"/>
            <path d="M490.852 628.277C490.852 634.328 496.465 639.251 503.365 639.251C510.265 639.251 515.878 634.328 515.878 628.277C515.878 622.226 510.265 617.304 503.365 617.304C496.465 617.304 490.852 622.226 490.852 628.277ZM492.562 628.277C492.562 623.054 497.409 618.807 503.365 618.807C509.321 618.807 514.167 623.057 514.167 628.277C514.167 633.498 509.321 637.751 503.365 637.751C497.409 637.751 492.562 633.501 492.562 628.277Z"
                  fill="#FAFAFA"/>
            <path d="M590.302 360.639C590.302 357.606 593.105 355.145 596.567 355.145C600.029 355.145 602.832 357.603 602.832 360.639C602.832 363.675 600.029 366.133 596.567 366.133C593.105 366.133 590.302 363.675 590.302 360.639Z"
                  fill="#FAFAFA"/>
            <path d="M584.051 360.639C584.051 366.69 589.664 371.613 596.564 371.613C603.464 371.613 609.077 366.69 609.077 360.639C609.077 354.588 603.464 349.665 596.564 349.665C589.664 349.665 584.051 354.588 584.051 360.639ZM585.765 360.639C585.765 355.415 590.611 351.165 596.564 351.165C602.517 351.165 607.367 355.415 607.367 360.639C607.367 365.862 602.52 370.112 596.564 370.112C590.608 370.112 585.765 365.862 585.765 360.639Z"
                  fill="#FAFAFA"/>
            <path d="M63.4517 465.006C63.4517 461.973 66.2551 459.512 69.7168 459.512C73.1785 459.512 75.9819 461.97 75.9819 465.006C75.9819 468.042 73.1785 470.5 69.7168 470.5C66.2551 470.5 63.4517 468.042 63.4517 465.006Z"
                  fill="#FAFAFA"/>
            <path d="M57.2002 465.006C57.2002 471.057 62.8137 475.98 69.7134 475.98C76.6132 475.98 82.2266 471.057 82.2266 465.006C82.2266 458.955 76.6132 454.032 69.7134 454.032C62.8137 454.032 57.2002 458.955 57.2002 465.006ZM58.9141 465.006C58.9141 459.783 63.7606 455.532 69.7134 455.532C75.6663 455.532 80.5161 459.783 80.5161 465.006C80.5161 470.229 75.6697 474.48 69.7134 474.48C63.7572 474.48 58.9141 470.229 58.9141 465.006Z"
                  fill="#FAFAFA"/>
            <path d="M125.838 418.177C125.838 415.144 128.641 412.683 132.103 412.683C135.565 412.683 138.368 415.141 138.368 418.177C138.368 421.213 135.565 423.671 132.103 423.671C128.641 423.671 125.838 421.213 125.838 418.177Z"
                  fill="#FAFAFA"/>
            <path d="M119.586 418.177C119.586 424.228 125.2 429.15 132.1 429.15C138.999 429.15 144.613 424.228 144.613 418.177C144.613 412.126 138.999 407.203 132.1 407.203C125.2 407.203 119.586 412.126 119.586 418.177ZM121.3 418.177C121.3 412.953 126.147 408.703 132.103 408.703C138.059 408.703 142.902 412.953 142.902 418.177C142.902 423.4 138.056 427.65 132.103 427.65C126.15 427.65 121.3 423.4 121.3 418.177Z"
                  fill="#FAFAFA"/>
            <path d="M281.494 209.859C281.494 206.826 284.297 204.365 287.759 204.365C291.221 204.365 294.024 206.823 294.024 209.859C294.024 212.895 291.221 215.353 287.759 215.353C284.297 215.353 281.494 212.895 281.494 209.859Z"
                  fill="#FAFAFA"/>
            <path d="M275.243 209.859C275.243 215.91 280.856 220.833 287.756 220.833C294.656 220.833 300.269 215.91 300.269 209.859C300.269 203.808 294.656 198.886 287.756 198.886C280.856 198.886 275.243 203.808 275.243 209.859ZM276.957 209.859C276.957 204.636 281.803 200.389 287.756 200.389C293.709 200.389 298.559 204.639 298.559 209.859C298.559 215.08 293.712 219.333 287.756 219.333C281.8 219.333 276.957 215.083 276.957 209.859Z"
                  fill="#FAFAFA"/>
            <path d="M481.861 59.2135C481.861 56.1807 484.665 53.7193 488.126 53.7193C491.588 53.7193 494.391 56.1777 494.391 59.2135C494.391 62.2493 491.588 64.7078 488.126 64.7078C484.665 64.7078 481.861 62.2493 481.861 59.2135Z"
                  fill="#FAFAFA"/>
            <path d="M475.61 59.2134C475.61 65.2642 481.223 70.187 488.123 70.187C495.023 70.187 500.636 65.2642 500.636 59.2134C500.636 53.1626 495.023 48.2397 488.123 48.2397C481.223 48.2397 475.61 53.1626 475.61 59.2134ZM477.324 59.2134C477.324 53.99 482.17 49.7398 488.123 49.7398C494.076 49.7398 498.926 53.99 498.926 59.2134C498.926 64.4368 494.079 68.6869 488.123 68.6869C482.167 68.6869 477.324 64.4368 477.324 59.2134Z"
                  fill="#FAFAFA"/>
            <path d="M631.921 270.871C631.921 267.838 634.725 265.376 638.186 265.376C641.648 265.376 644.451 267.835 644.451 270.871C644.451 273.906 641.648 276.365 638.186 276.365C634.725 276.365 631.921 273.906 631.921 270.871Z"
                  fill="#FAFAFA"/>
            <path d="M625.67 270.868C625.67 276.918 631.283 281.841 638.183 281.841C645.083 281.841 650.696 276.918 650.696 270.868C650.696 264.817 645.083 259.894 638.183 259.894C631.283 259.894 625.67 264.817 625.67 270.868ZM627.384 270.868C627.384 265.644 632.23 261.397 638.186 261.397C644.142 261.397 648.986 265.647 648.986 270.868C648.986 276.088 644.139 280.341 638.186 280.341C632.233 280.341 627.384 276.091 627.384 270.868Z"
                  fill="#FAFAFA"/>
            <path d="M151.143 499.186C151.143 496.153 153.946 493.692 157.408 493.692C160.869 493.692 163.673 496.15 163.673 499.186C163.673 502.222 160.869 504.68 157.408 504.68C153.946 504.68 151.143 502.222 151.143 499.186Z"
                  fill="#FAFAFA"/>
            <path d="M144.894 499.186C144.894 505.237 150.508 510.16 157.408 510.16C164.307 510.16 169.921 505.237 169.921 499.186C169.921 493.135 164.307 488.212 157.408 488.212C150.508 488.212 144.894 493.135 144.894 499.186ZM146.605 499.186C146.605 493.962 151.451 489.712 157.408 489.712C163.364 489.712 168.207 493.962 168.207 499.186C168.207 504.409 163.36 508.656 157.408 508.656C151.455 508.656 146.605 504.406 146.605 499.186Z"
                  fill="#FAFAFA"/>
            <path d="M350.193 423.668C350.193 420.635 352.996 418.174 356.458 418.174C359.92 418.174 362.723 420.632 362.723 423.668C362.723 426.704 359.92 429.162 356.458 429.162C352.996 429.162 350.193 426.704 350.193 423.668Z"
                  fill="#FAFAFA"/>
            <path d="M94.386 448.946C97.5827 450.108 99.1008 453.322 97.7766 456.125C96.4525 458.928 92.7877 460.26 89.5909 459.098C86.3942 457.937 84.8762 454.723 86.2003 451.92C87.5244 449.116 91.1893 447.785 94.386 448.946Z"
                  fill="#FAFAFA"/>
            <path d="M105.906 431.758C105.906 428.725 108.709 426.263 112.171 426.263C115.632 426.263 118.436 428.722 118.436 431.758C118.436 434.794 115.632 437.252 112.171 437.252C108.709 437.252 105.906 434.794 105.906 431.758Z"
                  fill="#FAFAFA"/>
            <path d="M112.171 482.096C112.171 479.063 114.974 476.602 118.436 476.602C121.898 476.602 124.701 479.06 124.701 482.096C124.701 485.132 121.898 487.59 118.436 487.59C114.974 487.59 112.171 485.132 112.171 482.096Z"
                  fill="#FAFAFA"/>
            <path d="M900.01 560.221C900.01 557.188 902.813 554.727 906.275 554.727C909.736 554.727 912.54 557.185 912.54 560.221C912.54 563.257 909.736 565.715 906.275 565.715C902.813 565.715 900.01 563.257 900.01 560.221Z"
                  fill="#FAFAFA"/>
            <path d="M825.307 667.326C825.307 664.293 828.11 661.832 831.572 661.832C835.034 661.832 837.837 664.29 837.837 667.326C837.837 670.362 835.034 672.821 831.572 672.821C828.11 672.821 825.307 670.362 825.307 667.326Z"
                  fill="#FAFAFA"/>
            <path d="M657.657 573.861C657.657 570.829 660.46 568.367 663.922 568.367C667.384 568.367 670.187 570.826 670.187 573.861C670.187 576.897 667.384 579.356 663.922 579.356C660.46 579.356 657.657 576.897 657.657 573.861Z"
                  fill="#FAFAFA"/>
            <path d="M191.971 511.999C191.971 508.966 194.774 506.505 198.236 506.505C201.698 506.505 204.501 508.963 204.501 511.999C204.501 515.035 201.698 517.493 198.236 517.493C194.774 517.493 191.971 515.035 191.971 511.999Z"
                  fill="#FAFAFA"/>
            <path d="M328.625 235.262C328.625 232.229 331.428 229.768 334.89 229.768C338.352 229.768 341.155 232.226 341.155 235.262C341.155 238.298 338.352 240.756 334.89 240.756C331.428 240.756 328.625 238.298 328.625 235.262Z"
                  fill="#FAFAFA"/>
            <path d="M399.848 371.374C399.848 368.342 402.652 365.88 406.114 365.88C409.575 365.88 412.379 368.339 412.379 371.374C412.379 374.41 409.575 376.869 406.114 376.869C402.652 376.869 399.848 374.41 399.848 371.374Z"
                  fill="#FAFAFA"/>
            <path d="M371.816 326.512C375.184 327.209 377.269 330.169 376.474 333.122C375.679 336.075 372.305 337.904 368.938 337.207C365.57 336.51 363.484 333.551 364.279 330.598C365.074 327.644 368.448 325.815 371.816 326.512Z"
                  fill="#FAFAFA"/>
            <path d="M497.948 5.49428C497.948 2.46142 500.752 2.76566e-05 504.213 2.76566e-05C507.675 2.76566e-05 510.478 2.45844 510.478 5.49428C510.478 8.53011 507.675 10.9885 504.213 10.9885C500.752 10.9885 497.948 8.53011 497.948 5.49428Z"
                  fill="#FAFAFA"/>
            <path d="M399.848 251.599C399.848 248.566 402.652 246.105 406.114 246.105C409.575 246.105 412.379 248.563 412.379 251.599C412.379 254.635 409.575 257.093 406.114 257.093C402.652 257.093 399.848 254.635 399.848 251.599Z"
                  fill="#FAFAFA"/>
            <path d="M427.181 420.897C430.548 421.594 432.634 424.553 431.839 427.506C431.044 430.46 427.67 432.289 424.303 431.592C420.935 430.895 418.849 427.936 419.644 424.982C420.439 422.029 423.813 420.2 427.181 420.897Z"
                  fill="#FAFAFA"/>
            <path d="M551.249 376.869C551.249 373.836 554.052 371.374 557.514 371.374C560.976 371.374 563.779 373.833 563.779 376.869C563.779 379.904 560.976 382.363 557.514 382.363C554.052 382.363 551.249 379.904 551.249 376.869Z"
                  fill="#FAFAFA"/>
            <path d="M790.052 506.505C790.052 503.472 792.855 501.01 796.317 501.01C799.778 501.01 802.582 503.469 802.582 506.505C802.582 509.54 799.778 511.999 796.317 511.999C792.855 511.999 790.052 509.54 790.052 506.505Z"
                  fill="#FAFAFA"/>
            <path d="M694.002 462.262C694.002 459.229 696.805 456.768 700.267 456.768C703.729 456.768 706.532 459.226 706.532 462.262C706.532 465.298 703.729 467.756 700.267 467.756C696.805 467.756 694.002 465.298 694.002 462.262Z"
                  fill="#FAFAFA"/>
            <path d="M69.7134 464.256H484.868L576.737 544.822H751.412L795.709 505.975L796.921 507.037L752.122 546.322H576.027L484.159 465.756H69.7134V464.256Z"
                  fill="#FAFAFA"/>
            <path d="M91.9874 451.77H454.955L546.128 531.723H706.895L813.089 624.851L809.458 628.036L704.771 536.229H544L452.827 456.273H91.9874V451.77Z"
                  fill="#FAFAFA"/>
            <path d="M118.432 481.346H534.979L624.064 559.471H906.271V560.971H623.355L534.269 482.849H118.432V481.346Z"
                  fill="#FAFAFA"/>
            <path d="M594.748 359.046L598.38 362.231L509.24 440.404H401.325L384.624 425.757H356.455V421.251H386.748L403.453 435.901H507.112L594.748 359.046Z"
                  fill="#FAFAFA"/>
            <path d="M638.319 461.509L700.263 461.509V463.012L639.025 463.012L596.92 499.936H157.408V498.436H596.211L638.319 461.509Z"
                  fill="#FAFAFA"/>
            <path d="M198.232 511.249H503.341L548.347 550.718V589.889L503.969 628.807L502.757 627.744L546.637 589.267V551.34L502.632 512.749H198.232V511.249Z"
                  fill="#FAFAFA"/>
            <path d="M663.922 573.108H725.347L832.176 666.797L830.965 667.856L724.638 574.611H663.922V573.108Z"
                  fill="#FAFAFA"/>
            <path d="M556.91 376.336L558.118 377.398L501.542 427.013H424.04V425.513H500.833L556.91 376.336Z"
                  fill="#FAFAFA"/>
            <path d="M637.579 270.338L638.79 271.4L497.453 395.346H348.628L306.252 432.508H112.171V431.008H305.546L347.919 393.845H496.747L637.579 270.338Z"
                  fill="#FAFAFA"/>
            <path d="M337.15 233.673L385.408 275.99V342.623L296.689 420.427H132.103V415.924H294.564L380.273 340.76V277.856L333.519 236.857L337.15 233.673Z"
                  fill="#FAFAFA"/>
            <path d="M288.363 209.329L371.252 282.02V331.879H369.538V282.642L287.152 210.389L288.363 209.329Z"
                  fill="#FAFAFA"/>
            <path d="M487.268 59.2135H488.978L488.978 206.814L406.969 278.734V371.374H405.255V278.115L487.268 206.192L487.268 59.2135Z"
                  fill="#FAFAFA"/>
            <path d="M503.355 5.49419H505.065L505.065 165.881L406.718 252.129L405.506 251.069L503.355 165.259L503.355 5.49419Z"
                  fill="#FAFAFA"/>
        </g>
        <g opacity="0.23">
            <path d="M209.273 141.208C212.731 141.208 215.538 143.666 215.538 146.702C215.538 149.738 212.734 152.196 209.273 152.196C205.811 152.196 203.007 149.738 203.007 146.702C203.007 143.666 205.811 141.208 209.273 141.208Z"
                  fill="#FAFAFA"/>
            <path d="M196.756 146.702C196.756 152.753 202.369 157.676 209.269 157.676C216.169 157.676 221.782 152.753 221.782 146.702C221.782 140.651 216.169 135.728 209.269 135.728C202.369 135.728 196.756 140.651 196.756 146.702ZM198.47 146.702C198.47 141.479 203.316 137.228 209.273 137.228C215.229 137.228 220.075 141.479 220.075 146.702C220.075 151.925 215.229 156.173 209.273 156.173C203.316 156.173 198.47 151.922 198.47 146.702Z"
                  fill="#FAFAFA"/>
            <path d="M837.925 687.782C841.384 687.782 844.191 690.241 844.191 693.277C844.191 696.313 841.387 698.771 837.925 698.771C834.464 698.771 831.66 696.313 831.66 693.277C831.66 690.241 834.464 687.782 837.925 687.782Z"
                  fill="#FAFAFA"/>
            <path d="M825.412 693.274C825.412 699.325 831.026 704.247 837.925 704.247C844.825 704.247 850.439 699.325 850.439 693.274C850.439 687.223 844.825 682.3 837.925 682.3C831.026 682.3 825.412 687.223 825.412 693.274ZM827.123 693.274C827.123 688.05 831.969 683.8 837.922 683.8C843.875 683.8 848.725 688.05 848.725 693.274C848.725 698.497 843.878 702.744 837.922 702.744C831.966 702.744 827.123 698.494 827.123 693.274Z"
                  fill="#FAFAFA"/>
            <path d="M119.172 762.94C122.631 762.94 125.437 765.399 125.437 768.434C125.437 771.47 122.634 773.929 119.172 773.929C115.71 773.929 112.907 771.47 112.907 768.434C112.907 765.399 115.71 762.94 119.172 762.94Z"
                  fill="#FAFAFA"/>
            <path d="M106.659 768.431C106.659 774.482 112.272 779.405 119.172 779.405C126.072 779.405 131.685 774.482 131.685 768.431C131.685 762.381 126.072 757.458 119.172 757.458C112.272 757.458 106.659 762.381 106.659 768.431ZM108.373 768.431C108.373 763.208 113.219 758.958 119.172 758.958C125.125 758.958 129.975 763.208 129.975 768.431C129.975 773.655 125.128 777.905 119.172 777.905C113.216 777.905 108.373 773.655 108.373 768.431Z"
                  fill="#FAFAFA"/>
            <path d="M778.59 199.746C782.049 199.746 784.856 202.204 784.856 205.24C784.856 208.276 782.052 210.734 778.59 210.734C775.129 210.734 772.325 208.276 772.325 205.24C772.325 202.204 775.129 199.746 778.59 199.746Z"
                  fill="#FAFAFA"/>
            <path d="M766.077 205.237C766.077 211.288 771.691 216.211 778.59 216.211C785.49 216.211 791.104 211.288 791.104 205.237C791.104 199.186 785.49 194.263 778.59 194.263C771.691 194.263 766.077 199.186 766.077 205.237ZM767.788 205.237C767.788 200.014 772.634 195.766 778.59 195.766C784.547 195.766 789.393 200.017 789.393 205.237C789.393 210.457 784.547 214.711 778.59 214.711C772.634 214.711 767.788 210.46 767.788 205.237Z"
                  fill="#FAFAFA"/>
            <path d="M395.66 8.09842C399.119 8.09842 401.925 10.5568 401.925 13.5927C401.925 16.6285 399.122 19.0869 395.66 19.0869C392.199 19.0869 389.395 16.6285 389.395 13.5927C389.395 10.5568 392.199 8.09842 395.66 8.09842Z"
                  fill="#FAFAFA"/>
            <path d="M733.673 629.024C737.131 629.024 739.938 631.483 739.938 634.518C739.938 637.554 737.134 640.013 733.673 640.013C730.211 640.013 727.408 637.554 727.408 634.518C727.408 631.483 730.211 629.024 733.673 629.024Z"
                  fill="#FAFAFA"/>
            <path d="M174.916 618.039C178.375 618.039 181.182 620.497 181.182 623.533C181.182 626.569 178.378 629.027 174.916 629.027C171.455 629.027 168.651 626.569 168.651 623.533C168.651 620.497 171.455 618.039 174.916 618.039Z"
                  fill="#FAFAFA"/>
            <path d="M322.915 325.061C326.282 325.758 328.368 328.717 327.573 331.67C326.778 334.624 323.404 336.453 320.037 335.756C316.669 335.059 314.583 332.1 315.378 329.146C316.173 326.193 319.547 324.364 322.915 325.061Z"
                  fill="#FAFAFA"/>
            <path d="M889.357 302.517C891.804 304.663 891.804 308.142 889.357 310.287C886.911 312.433 882.944 312.433 880.497 310.287C878.051 308.142 878.051 304.663 880.497 302.517C882.944 300.372 886.911 300.372 889.357 302.517Z"
                  fill="#FAFAFA"/>
            <path d="M834.793 417.721C836.524 417.721 837.925 418.951 837.925 420.469C837.925 421.986 836.524 423.216 834.793 423.216C833.062 423.216 831.66 421.986 831.66 420.469C831.66 418.951 833.062 417.721 834.793 417.721Z"
                  fill="#FAFAFA"/>
            <path d="M1002.87 212.714C1004.6 212.714 1006 213.943 1006 215.461C1006 216.978 1004.6 218.208 1002.87 218.208C1001.14 218.208 999.735 216.978 999.735 215.461C999.735 213.943 1001.14 212.714 1002.87 212.714Z"
                  fill="#FAFAFA"/>
            <path d="M458.077 154.176C459.808 154.176 461.21 155.405 461.21 156.923C461.21 158.441 459.808 159.67 458.077 159.67C456.346 159.67 454.944 158.441 454.944 156.923C454.944 155.405 456.346 154.176 458.077 154.176Z"
                  fill="#FAFAFA"/>
            <path d="M947.602 813.853C949.333 813.853 950.734 815.082 950.734 816.6C950.734 818.118 949.333 819.347 947.602 819.347C945.871 819.347 944.469 818.118 944.469 816.6C944.469 815.082 945.871 813.853 947.602 813.853Z"
                  fill="#FAFAFA"/>
            <path d="M642.873 786.81C644.603 786.81 646.006 788.04 646.006 789.557C646.006 791.074 644.603 792.304 642.873 792.304C641.143 792.304 639.741 791.074 639.741 789.557C639.741 788.04 641.143 786.81 642.873 786.81Z"
                  fill="#FAFAFA"/>
            <path d="M389.399 673.068C391.13 673.068 392.531 674.297 392.531 675.815C392.531 677.333 391.13 678.562 389.399 678.562C387.668 678.562 386.266 677.333 386.266 675.815C386.266 674.297 387.668 673.068 389.399 673.068Z"
                  fill="#FAFAFA"/>
            <path d="M52.5234 487.584C54.2543 487.584 55.656 488.814 55.656 490.331C55.656 491.849 54.2543 493.079 52.5234 493.079C50.7926 493.079 49.3909 491.849 49.3909 490.331C49.3909 488.814 50.7926 487.584 52.5234 487.584Z"
                  fill="#FAFAFA"/>
            <path d="M927.537 21.8312C929.268 21.8312 930.67 23.0604 930.67 24.5783C930.67 26.0962 929.268 27.3254 927.537 27.3254C925.806 27.3254 924.405 26.0962 924.405 24.5783C924.405 23.0604 925.806 21.8312 927.537 21.8312Z"
                  fill="#FAFAFA"/>
            <path d="M748.931 113.382C745.473 113.382 742.666 110.924 742.666 107.888C742.666 104.852 745.47 102.394 748.931 102.394C752.393 102.394 755.197 104.852 755.197 107.888C755.197 110.924 752.393 113.382 748.931 113.382Z"
                  fill="#FAFAFA"/>
            <path d="M736.415 107.888C736.415 113.939 742.028 118.862 748.928 118.862C755.828 118.862 761.441 113.939 761.441 107.888C761.441 101.837 755.828 96.9144 748.928 96.9144C742.028 96.9144 736.415 101.837 736.415 107.888ZM738.129 107.888C738.129 102.665 742.975 98.4145 748.931 98.4145C754.888 98.4145 759.734 102.665 759.734 107.888C759.734 113.112 754.888 117.359 748.931 117.359C742.975 117.359 738.129 113.109 738.129 107.888Z"
                  fill="#FAFAFA"/>
            <path d="M751.022 383.408C747.564 383.408 744.757 380.949 744.757 377.913C744.757 374.878 747.56 372.419 751.022 372.419C754.484 372.419 757.287 374.878 757.287 377.913C757.287 380.949 754.484 383.408 751.022 383.408Z"
                  fill="#FAFAFA"/>
            <path d="M738.509 377.913C738.509 383.964 744.122 388.887 751.022 388.887C757.922 388.887 763.535 383.964 763.535 377.913C763.535 371.862 757.922 366.94 751.022 366.94C744.122 366.94 738.509 371.862 738.509 377.913ZM740.219 377.913C740.219 372.69 745.066 368.443 751.022 368.443C756.978 368.443 761.825 372.693 761.825 377.913C761.825 383.134 756.978 387.384 751.022 387.384C745.066 387.384 740.219 383.134 740.219 377.913Z"
                  fill="#FAFAFA"/>
            <path d="M445.835 301.672C442.377 301.672 439.57 299.214 439.57 296.178C439.57 293.142 442.374 290.684 445.835 290.684C449.297 290.684 452.1 293.142 452.1 296.178C452.1 299.214 449.297 301.672 445.835 301.672Z"
                  fill="#FAFAFA"/>
            <path d="M433.322 296.178C433.322 302.229 438.936 307.152 445.835 307.152C452.735 307.152 458.349 302.229 458.349 296.178C458.349 290.127 452.735 285.204 445.835 285.204C438.936 285.204 433.322 290.127 433.322 296.178ZM435.033 296.178C435.033 290.955 439.879 286.708 445.835 286.708C451.792 286.708 456.635 290.958 456.635 296.178C456.635 301.399 451.788 305.652 445.835 305.652C439.882 305.652 435.033 301.402 435.033 296.178Z"
                  fill="#FAFAFA"/>
            <path d="M564.845 763.702C561.386 763.702 558.58 761.244 558.58 758.208C558.58 755.172 561.383 752.714 564.845 752.714C568.306 752.714 571.11 755.172 571.11 758.208C571.11 761.244 568.306 763.702 564.845 763.702Z"
                  fill="#FAFAFA"/>
            <path d="M552.331 758.208C552.331 764.259 557.945 769.181 564.845 769.181C571.744 769.181 577.358 764.259 577.358 758.208C577.358 752.157 571.744 747.234 564.845 747.234C557.945 747.234 552.331 752.157 552.331 758.208ZM554.045 758.208C554.045 752.984 558.892 748.737 564.848 748.737C570.804 748.737 575.651 752.987 575.651 758.208C575.651 763.428 570.804 767.681 564.848 767.681C558.892 767.681 554.045 763.431 554.045 758.208Z"
                  fill="#FAFAFA"/>
            <path d="M515.877 699.614C518.323 701.759 518.323 705.238 515.877 707.384C513.43 709.529 509.463 709.529 507.017 707.384C504.57 705.238 504.57 701.759 507.017 699.614C509.463 697.468 513.43 697.468 515.877 699.614Z"
                  fill="#FAFAFA"/>
            <path d="M498.932 703.497C498.932 709.548 504.546 714.471 511.446 714.471C518.345 714.471 523.959 709.548 523.959 703.497C523.959 697.447 518.345 692.524 511.446 692.524C504.546 692.524 498.932 697.447 498.932 703.497ZM500.643 703.497C500.643 698.274 505.489 694.027 511.442 694.027C517.395 694.027 522.245 698.277 522.245 703.497C522.245 708.718 517.398 712.971 511.442 712.971C505.486 712.971 500.643 708.721 500.643 703.497Z"
                  fill="#FAFAFA"/>
            <path d="M273.902 572.486C270.444 572.486 267.637 570.028 267.637 566.992C267.637 563.956 270.44 561.498 273.902 561.498C277.364 561.498 280.167 563.956 280.167 566.992C280.167 570.028 277.364 572.486 273.902 572.486Z"
                  fill="#FAFAFA"/>
            <path d="M261.389 566.992C261.389 573.043 267.002 577.966 273.902 577.966C280.802 577.966 286.415 573.043 286.415 566.992C286.415 560.941 280.802 556.018 273.902 556.018C267.002 556.018 261.389 560.941 261.389 566.992ZM263.103 566.992C263.103 561.769 267.949 557.518 273.905 557.518C279.862 557.518 284.705 561.769 284.705 566.992C284.705 572.215 279.858 576.466 273.905 576.466C267.953 576.466 263.103 572.215 263.103 566.992Z"
                  fill="#FAFAFA"/>
            <path d="M102.121 396.771C98.663 396.771 95.8563 394.313 95.8563 391.277C95.8563 388.241 98.6596 385.783 102.121 385.783C105.583 385.783 108.386 388.241 108.386 391.277C108.386 394.313 105.583 396.771 102.121 396.771Z"
                  fill="#FAFAFA"/>
            <path d="M89.6082 391.28C89.6082 397.331 95.2217 402.254 102.121 402.254C109.021 402.254 114.635 397.331 114.635 391.28C114.635 385.229 109.021 380.306 102.121 380.306C95.2217 380.306 89.6082 385.229 89.6082 391.28ZM91.3221 391.28C91.3221 386.057 96.1686 381.806 102.121 381.806C108.074 381.806 112.921 386.057 112.921 391.28C112.921 396.503 108.074 400.754 102.121 400.754C96.1686 400.754 91.3221 396.503 91.3221 391.28Z"
                  fill="#FAFAFA"/>
            <path d="M343.473 265.174C340.015 265.174 337.208 262.715 337.208 259.68C337.208 256.644 340.011 254.185 343.473 254.185C346.935 254.185 349.738 256.644 349.738 259.68C349.738 262.715 346.935 265.174 343.473 265.174Z"
                  fill="#FAFAFA"/>
            <path d="M330.96 259.683C330.96 265.733 336.573 270.656 343.473 270.656C350.373 270.656 355.986 265.733 355.986 259.683C355.986 253.632 350.373 248.709 343.473 248.709C336.573 248.709 330.96 253.632 330.96 259.683ZM332.67 259.683C332.67 254.459 337.517 250.209 343.469 250.209C349.422 250.209 354.272 254.459 354.272 259.683C354.272 264.906 349.426 269.156 343.469 269.156C337.513 269.156 332.67 264.906 332.67 259.683Z"
                  fill="#FAFAFA"/>
            <path d="M603.82 686.8C600.362 686.8 597.555 684.342 597.555 681.306C597.555 678.27 600.358 675.812 603.82 675.812C607.282 675.812 610.085 678.27 610.085 681.306C610.085 684.342 607.282 686.8 603.82 686.8Z"
                  fill="#FAFAFA"/>
            <path d="M591.307 681.306C591.307 687.357 596.92 692.28 603.82 692.28C610.72 692.28 616.333 687.357 616.333 681.306C616.333 675.255 610.72 670.332 603.82 670.332C596.92 670.332 591.307 675.255 591.307 681.306ZM593.017 681.306C593.017 676.083 597.864 671.832 603.82 671.832C609.776 671.832 614.619 676.083 614.619 681.306C614.619 686.529 609.773 690.78 603.82 690.78C597.867 690.78 593.017 686.529 593.017 681.306Z"
                  fill="#FAFAFA"/>
            <path d="M517.707 501.254C521.167 501.254 523.972 503.714 523.972 506.749C523.972 509.783 521.167 512.243 517.707 512.243C514.247 512.243 511.442 509.783 511.442 506.749C511.442 503.714 514.247 501.254 517.707 501.254Z"
                  fill="#FAFAFA"/>
            <path d="M552.318 744.172C548.86 744.172 546.053 741.713 546.053 738.677C546.053 735.641 548.856 733.183 552.318 733.183C555.78 733.183 558.583 735.641 558.583 738.677C558.583 741.713 555.78 744.172 552.318 744.172Z"
                  fill="#FAFAFA"/>
            <path d="M526.932 726.471C523.473 726.471 520.667 724.013 520.667 720.977C520.667 717.941 523.47 715.483 526.932 715.483C530.394 715.483 533.197 717.941 533.197 720.977C533.197 724.013 530.394 726.471 526.932 726.471Z"
                  fill="#FAFAFA"/>
            <path d="M584.332 720.977C580.874 720.977 578.067 718.519 578.067 715.483C578.067 712.447 580.871 709.989 584.332 709.989C587.794 709.989 590.597 712.447 590.597 715.483C590.597 718.519 587.794 720.977 584.332 720.977Z"
                  fill="#FAFAFA"/>
            <path d="M673.418 30.0696C669.96 30.0696 667.153 27.6112 667.153 24.5753C667.153 21.5395 669.956 19.0811 673.418 19.0811C676.88 19.0811 679.683 21.5395 679.683 24.5753C679.683 27.6112 676.88 30.0696 673.418 30.0696Z"
                  fill="#FAFAFA"/>
            <path d="M795.55 95.5811C792.091 95.5811 789.285 93.1226 789.285 90.0868C789.285 87.051 792.088 84.5926 795.55 84.5926C799.011 84.5926 801.815 87.051 801.815 90.0868C801.815 93.1226 799.011 95.5811 795.55 95.5811Z"
                  fill="#FAFAFA"/>
            <path d="M688.972 242.605C685.514 242.605 682.707 240.146 682.707 237.11C682.707 234.074 685.51 231.616 688.972 231.616C692.434 231.616 695.237 234.074 695.237 237.11C695.237 240.146 692.434 242.605 688.972 242.605Z"
                  fill="#FAFAFA"/>
            <path d="M618.43 650.995C614.972 650.995 612.165 648.537 612.165 645.501C612.165 642.465 614.969 640.007 618.43 640.007C621.892 640.007 624.696 642.465 624.696 645.501C624.696 648.537 621.892 650.995 618.43 650.995Z"
                  fill="#FAFAFA"/>
            <path d="M302.869 531.154C299.41 531.154 296.604 528.696 296.604 525.66C296.604 522.624 299.407 520.166 302.869 520.166C306.33 520.166 309.134 522.624 309.134 525.66C309.134 528.696 306.33 531.154 302.869 531.154Z"
                  fill="#FAFAFA"/>
            <path d="M458.077 468.694C454.619 468.694 451.812 466.235 451.812 463.199C451.812 460.164 454.615 457.705 458.077 457.705C461.539 457.705 464.342 460.164 464.342 463.199C464.342 466.235 461.539 468.694 458.077 468.694Z"
                  fill="#FAFAFA"/>
            <path d="M414.468 489.156C417.835 489.853 419.921 492.812 419.126 495.765C418.331 498.718 414.957 500.547 411.589 499.85C408.222 499.153 406.136 496.194 406.931 493.241C407.726 490.288 411.1 488.459 414.468 489.156Z"
                  fill="#FAFAFA"/>
            <path d="M40.8655 382.664C37.4071 382.664 34.6004 380.205 34.6004 377.169C34.6004 374.133 37.4037 371.675 40.8655 371.675C44.3272 371.675 47.1305 374.133 47.1305 377.169C47.1305 380.205 44.3272 382.664 40.8655 382.664Z"
                  fill="#FAFAFA"/>
            <path d="M321.498 468.694C318.039 468.694 315.233 466.235 315.233 463.199C315.233 460.164 318.036 457.705 321.498 457.705C324.959 457.705 327.763 460.164 327.763 463.199C327.763 466.235 324.959 468.694 321.498 468.694Z"
                  fill="#FAFAFA"/>
            <path d="M520.667 451.467C517.208 451.467 514.402 449.008 514.402 445.973C514.402 442.937 517.205 440.478 520.667 440.478C524.128 440.478 526.932 442.937 526.932 445.973C526.932 449.008 524.128 451.467 520.667 451.467Z"
                  fill="#FAFAFA"/>
            <path d="M464.342 335.921C460.884 335.921 458.077 333.462 458.077 330.427C458.077 327.391 460.88 324.932 464.342 324.932C467.804 324.932 470.607 327.391 470.607 330.427C470.607 333.462 467.804 335.921 464.342 335.921Z"
                  fill="#FAFAFA"/>
            <path d="M612.165 126.499C608.707 126.499 605.9 124.04 605.9 121.005C605.9 117.969 608.704 115.51 612.165 115.51C615.627 115.51 618.43 117.969 618.43 121.005C618.43 124.04 615.627 126.499 612.165 126.499Z"
                  fill="#FAFAFA"/>
            <path d="M561.716 210.731C558.257 210.731 555.45 208.273 555.45 205.237C555.45 202.201 558.254 199.743 561.716 199.743C565.177 199.743 567.981 202.201 567.981 205.237C567.981 208.273 565.177 210.731 561.716 210.731Z"
                  fill="#FAFAFA"/>
            <path d="M612.773 120.478L657.569 159.762V314.191L565.703 394.756L565.703 758.208H563.989L563.989 394.134L655.858 313.569V160.384L611.561 121.537L612.773 120.478Z"
                  fill="#FAFAFA"/>
            <path d="M747.116 106.296L750.747 109.48L646.06 201.287V342.278L554.887 422.234L554.887 738.677H549.749L549.749 420.367L640.922 340.412V199.421L747.116 106.296Z"
                  fill="#FAFAFA"/>
            <path d="M672.563 24.5753H674.273V272.686L585.188 350.811L585.188 715.486H583.477L583.477 350.189L672.563 272.064V24.5753Z"
                  fill="#FAFAFA"/>
            <path d="M447.651 294.586L536.791 372.761V467.399L520.086 482.045V506.749H514.951V480.182L531.656 465.533V374.625L444.02 297.77L447.651 294.586Z"
                  fill="#FAFAFA"/>
            <path d="M560.857 205.237H562.571V258.944L604.675 295.868L604.675 681.306H602.965L602.965 296.491L560.857 259.567V205.237Z"
                  fill="#FAFAFA"/>
            <path d="M662.581 338.465H707.248L751.626 377.384L750.415 378.446L706.539 339.965H663.291L619.286 378.559V645.504H617.575V377.937L662.581 338.465Z"
                  fill="#FAFAFA"/>
            <path d="M794.946 89.557L796.154 90.6166L689.827 183.864V237.11H688.113V183.242L794.946 89.557Z"
                  fill="#FAFAFA"/>
            <path d="M464.946 329.897L521.522 379.512V447.479H519.811V380.134L463.735 330.956L464.946 329.897Z"
                  fill="#FAFAFA"/>
            <path d="M344.077 259.15L485.411 383.095L485.411 513.612L527.787 550.774V720.977H526.077V551.396L483.701 514.234L483.701 383.717L342.865 260.212L344.077 259.15Z"
                  fill="#FAFAFA"/>
            <path d="M349.31 481.358H425.292L514.011 559.161V703.497H508.876V561.025L423.168 485.861H351.438L304.684 526.863L301.053 523.678L349.31 481.358Z"
                  fill="#FAFAFA"/>
            <path d="M356.186 493.772H413.04V495.272H356.896L274.51 567.525L273.298 566.462L356.186 493.772Z"
                  fill="#FAFAFA"/>
            <path d="M102.121 390.527H270.43L352.443 462.449L458.077 462.449V463.949L351.734 463.949L269.721 392.03H102.121V390.527Z"
                  fill="#FAFAFA"/>
            <path d="M40.8655 376.422H223.754L322.105 462.67L320.893 463.732L223.045 377.922H40.8655V376.422Z"
                  fill="#FAFAFA"/>
        </g>
    </g>
    <g style="mix-blend-mode:color-dodge">
        <g opacity="0.85">
            <path d="M1297.15 387.457C1297.15 389.144 1295.59 390.513 1293.66 390.513C1291.74 390.513 1290.18 389.146 1290.18 387.457C1290.18 385.769 1291.74 384.401 1293.66 384.401C1295.59 384.401 1297.15 385.769 1297.15 387.457Z"
                  fill="#FAFAFA" fill-opacity="0.2"/>
            <path d="M1286.7 387.457C1286.7 390.823 1289.82 393.561 1293.66 393.561C1297.5 393.561 1300.62 390.823 1300.62 387.457C1300.62 384.091 1297.5 381.353 1293.66 381.353C1289.82 381.353 1286.7 384.091 1286.7 387.457ZM1287.66 387.457C1287.66 384.552 1290.35 382.187 1293.66 382.187C1296.98 382.187 1299.67 384.552 1299.67 387.457C1299.67 390.363 1296.98 392.727 1293.66 392.727C1290.35 392.727 1287.66 390.363 1287.66 387.457Z"
                  fill="#FAFAFA" fill-opacity="0.2"/>
            <path d="M950.452 694.13C950.452 695.817 948.893 697.186 946.967 697.186C945.042 697.186 943.482 695.818 943.482 694.13C943.482 692.441 945.042 691.073 946.967 691.073C948.893 691.073 950.452 692.441 950.452 694.13Z"
                  fill="#FAFAFA" fill-opacity="0.2"/>
            <path d="M940.008 694.13C940.008 697.496 943.131 700.234 946.969 700.234C950.807 700.234 953.93 697.496 953.93 694.13C953.93 690.764 950.807 688.025 946.969 688.025C943.131 688.025 940.008 690.764 940.008 694.13ZM940.96 694.13C940.96 691.224 943.656 688.862 946.967 688.862C950.278 688.862 952.974 691.226 952.974 694.13C952.974 697.034 950.278 699.399 946.967 699.399C943.656 699.399 940.96 697.035 940.96 694.13Z"
                  fill="#FAFAFA" fill-opacity="0.2"/>
            <path d="M902.779 343.504C902.779 345.191 901.22 346.56 899.294 346.56C897.369 346.56 895.809 345.193 895.809 343.504C895.809 341.815 897.369 340.448 899.294 340.448C901.22 340.448 902.779 341.815 902.779 343.504Z"
                  fill="#FAFAFA" fill-opacity="0.2"/>
            <path d="M892.335 343.506C892.335 346.872 895.458 349.61 899.296 349.61C903.134 349.61 906.257 346.872 906.257 343.506C906.257 340.14 903.134 337.401 899.296 337.401C895.458 337.401 892.335 340.14 892.335 343.506ZM893.287 343.506C893.287 340.6 895.983 338.236 899.294 338.236C902.605 338.236 905.301 340.6 905.301 343.506C905.301 346.411 902.605 348.774 899.294 348.774C895.983 348.774 893.287 346.41 893.287 343.506Z"
                  fill="#FAFAFA" fill-opacity="0.2"/>
            <path d="M1260.02 665.185C1260.02 666.872 1258.46 668.241 1256.53 668.241C1254.61 668.241 1253.05 666.873 1253.05 665.185C1253.05 663.496 1254.61 662.128 1256.53 662.128C1258.46 662.128 1260.02 663.496 1260.02 665.185Z"
                  fill="#FAFAFA" fill-opacity="0.2"/>
            <path d="M1249.57 665.185C1249.57 668.55 1252.69 671.289 1256.53 671.289C1260.37 671.289 1263.49 668.55 1263.49 665.185C1263.49 661.819 1260.37 659.08 1256.53 659.08C1252.69 659.08 1249.57 661.819 1249.57 665.185ZM1250.52 665.185C1250.52 662.279 1253.22 659.915 1256.53 659.915C1259.85 659.915 1262.54 662.279 1262.54 665.185C1262.54 668.09 1259.85 670.454 1256.53 670.454C1253.22 670.454 1250.52 668.09 1250.52 665.185Z"
                  fill="#FAFAFA" fill-opacity="0.2"/>
            <path d="M1381.58 478.382C1381.58 480.069 1380.02 481.438 1378.09 481.438C1376.17 481.438 1374.61 480.071 1374.61 478.382C1374.61 476.693 1376.17 475.326 1378.09 475.326C1380.02 475.326 1381.58 476.693 1381.58 478.382Z"
                  fill="#FAFAFA" fill-opacity="0.2"/>
            <path d="M987.723 643.273C987.723 644.96 986.163 646.329 984.238 646.329C982.312 646.329 980.753 644.961 980.753 643.273C980.753 641.584 982.312 640.216 984.238 640.216C986.163 640.216 987.723 641.584 987.723 643.273Z"
                  fill="#FAFAFA" fill-opacity="0.2"/>
            <path d="M994.691 370.697C994.691 372.385 993.132 373.754 991.206 373.754C989.28 373.754 987.721 372.386 987.721 370.697C987.721 369.009 989.28 367.641 991.206 367.641C993.132 367.641 994.691 369.009 994.691 370.697Z"
                  fill="#FAFAFA" fill-opacity="0.2"/>
            <path d="M1180.61 442.203C1180.61 443.89 1179.05 445.26 1177.13 445.26C1175.2 445.26 1173.64 443.892 1173.64 442.203C1173.64 440.515 1175.2 439.147 1177.13 439.147C1179.05 439.147 1180.61 440.515 1180.61 442.203Z"
                  fill="#FAFAFA" fill-opacity="0.2"/>
            <path d="M1121.75 692.602C1121.75 693.446 1120.97 694.13 1120.01 694.13C1119.05 694.13 1118.27 693.446 1118.27 692.602C1118.27 691.757 1119.05 691.073 1120.01 691.073C1120.97 691.073 1121.75 691.757 1121.75 692.602Z"
                  fill="#FAFAFA" fill-opacity="0.2"/>
            <path d="M1288.92 508.83C1288.92 509.675 1288.14 510.358 1287.18 510.358C1286.21 510.358 1285.44 509.675 1285.44 508.83C1285.44 507.986 1286.21 507.302 1287.18 507.302C1288.14 507.302 1288.92 507.986 1288.92 508.83Z"
                  fill="#FAFAFA" fill-opacity="0.2"/>
            <path d="M870.485 747.632C870.485 748.477 869.705 749.161 868.743 749.161C867.78 749.161 867 748.477 867 747.632C867 746.788 867.78 746.104 868.743 746.104C869.705 746.104 870.485 746.788 870.485 747.632Z"
                  fill="#FAFAFA" fill-opacity="0.2"/>
            <path d="M887.638 598.978C887.638 599.823 886.859 600.506 885.896 600.506C884.933 600.506 884.153 599.823 884.153 598.978C884.153 598.134 884.933 597.45 885.896 597.45C886.859 597.45 887.638 598.134 887.638 598.978Z"
                  fill="#FAFAFA" fill-opacity="0.2"/>
            <path d="M959.786 475.327C959.786 476.172 959.006 476.855 958.043 476.855C957.081 476.855 956.301 476.172 956.301 475.327C956.301 474.483 957.081 473.799 958.043 473.799C959.006 473.799 959.786 474.483 959.786 475.327Z"
                  fill="#FAFAFA" fill-opacity="0.2"/>
            <path d="M1077.44 310.991C1077.44 311.835 1076.66 312.519 1075.7 312.519C1074.73 312.519 1073.95 311.835 1073.95 310.991C1073.95 310.147 1074.73 309.463 1075.7 309.463C1076.66 309.463 1077.44 310.147 1077.44 310.991Z"
                  fill="#FAFAFA" fill-opacity="0.2"/>
            <path d="M1372.87 737.844C1372.87 738.689 1372.09 739.373 1371.13 739.373C1370.16 739.373 1369.38 738.689 1369.38 737.844C1369.38 737 1370.16 736.316 1371.13 736.316C1372.09 736.316 1372.87 737 1372.87 737.844Z"
                  fill="#FAFAFA" fill-opacity="0.2"/>
            <path d="M1314.8 650.716C1314.8 649.029 1316.36 647.66 1318.28 647.66C1320.21 647.66 1321.77 649.028 1321.77 650.716C1321.77 652.405 1320.21 653.773 1318.28 653.773C1316.36 653.773 1314.8 652.405 1314.8 650.716Z"
                  fill="#FAFAFA" fill-opacity="0.2"/>
            <path d="M1311.32 650.716C1311.32 654.082 1314.44 656.82 1318.28 656.82C1322.12 656.82 1325.24 654.082 1325.24 650.716C1325.24 647.35 1322.12 644.612 1318.28 644.612C1314.44 644.612 1311.32 647.35 1311.32 650.716ZM1312.27 650.716C1312.27 647.811 1314.97 645.446 1318.28 645.446C1321.6 645.446 1324.29 647.811 1324.29 650.716C1324.29 653.622 1321.6 655.986 1318.28 655.986C1314.97 655.986 1312.27 653.622 1312.27 650.716Z"
                  fill="#FAFAFA" fill-opacity="0.2"/>
            <path d="M1143.52 651.736C1143.52 650.049 1145.08 648.68 1147 648.68C1148.93 648.68 1150.49 650.047 1150.49 651.736C1150.49 653.425 1148.93 654.792 1147 654.792C1145.08 654.792 1143.52 653.425 1143.52 651.736Z"
                  fill="#FAFAFA" fill-opacity="0.2"/>
            <path d="M1140.04 651.736C1140.04 655.102 1143.17 657.84 1147 657.84C1150.84 657.84 1153.96 655.102 1153.96 651.736C1153.96 648.37 1150.84 645.632 1147 645.632C1143.17 645.632 1140.04 648.37 1140.04 651.736ZM1140.99 651.736C1140.99 648.83 1143.69 646.468 1147 646.468C1150.32 646.468 1153.01 648.832 1153.01 651.736C1153.01 654.64 1150.32 657.006 1147 657.006C1143.69 657.006 1140.99 654.642 1140.99 651.736Z"
                  fill="#FAFAFA" fill-opacity="0.2"/>
            <path d="M1195.36 502.858C1195.36 501.171 1196.92 499.802 1198.85 499.802C1200.77 499.802 1202.33 501.17 1202.33 502.858C1202.33 504.547 1200.77 505.915 1198.85 505.915C1196.92 505.915 1195.36 504.547 1195.36 502.858Z"
                  fill="#FAFAFA" fill-opacity="0.2"/>
            <path d="M1191.89 502.858C1191.89 506.224 1195.01 508.963 1198.85 508.963C1202.69 508.963 1205.81 506.224 1205.81 502.858C1205.81 499.493 1202.69 496.754 1198.85 496.754C1195.01 496.754 1191.89 499.493 1191.89 502.858ZM1192.84 502.858C1192.84 499.953 1195.54 497.589 1198.85 497.589C1202.16 497.589 1204.86 499.953 1204.86 502.858C1204.86 505.764 1202.16 508.128 1198.85 508.128C1195.53 508.128 1192.84 505.764 1192.84 502.858Z"
                  fill="#FAFAFA" fill-opacity="0.2"/>
            <path d="M902.296 560.914C902.296 559.227 903.855 557.858 905.781 557.858C907.707 557.858 909.266 559.225 909.266 560.914C909.266 562.603 907.707 563.97 905.781 563.97C903.855 563.97 902.296 562.603 902.296 560.914Z"
                  fill="#FAFAFA" fill-opacity="0.2"/>
            <path d="M898.818 560.914C898.818 564.28 901.941 567.018 905.779 567.018C909.617 567.018 912.74 564.28 912.74 560.914C912.74 557.548 909.617 554.81 905.779 554.81C901.941 554.81 898.818 557.548 898.818 560.914ZM899.772 560.914C899.772 558.009 902.468 555.644 905.779 555.644C909.09 555.644 911.788 558.009 911.788 560.914C911.788 563.82 909.092 566.184 905.779 566.184C902.466 566.184 899.772 563.82 899.772 560.914Z"
                  fill="#FAFAFA" fill-opacity="0.2"/>
            <path d="M936.999 534.865C936.999 533.178 938.558 531.808 940.484 531.808C942.41 531.808 943.969 533.176 943.969 534.865C943.969 536.553 942.41 537.921 940.484 537.921C938.558 537.921 936.999 536.553 936.999 534.865Z"
                  fill="#FAFAFA" fill-opacity="0.2"/>
            <path d="M933.522 534.865C933.522 538.231 936.644 540.969 940.482 540.969C944.32 540.969 947.443 538.231 947.443 534.865C947.443 531.499 944.32 528.761 940.482 528.761C936.644 528.761 933.522 531.499 933.522 534.865ZM934.475 534.865C934.475 531.959 937.171 529.595 940.484 529.595C943.797 529.595 946.491 531.959 946.491 534.865C946.491 537.77 943.795 540.135 940.484 540.135C937.173 540.135 934.475 537.77 934.475 534.865Z"
                  fill="#FAFAFA" fill-opacity="0.2"/>
            <path d="M1023.59 418.985C1023.59 417.298 1025.14 415.929 1027.07 415.929C1029 415.929 1030.56 417.296 1030.56 418.985C1030.56 420.674 1029 422.041 1027.07 422.041C1025.14 422.041 1023.59 420.674 1023.59 418.985Z"
                  fill="#FAFAFA" fill-opacity="0.2"/>
            <path d="M1020.11 418.985C1020.11 422.351 1023.23 425.089 1027.07 425.089C1030.91 425.089 1034.03 422.351 1034.03 418.985C1034.03 415.619 1030.91 412.881 1027.07 412.881C1023.23 412.881 1020.11 415.619 1020.11 418.985ZM1021.06 418.985C1021.06 416.08 1023.76 413.717 1027.07 413.717C1030.38 413.717 1033.08 416.081 1033.08 418.985C1033.08 421.889 1030.38 424.255 1027.07 424.255C1023.76 424.255 1021.06 421.891 1021.06 418.985Z"
                  fill="#FAFAFA" fill-opacity="0.2"/>
            <path d="M1135.04 335.186C1135.04 333.499 1136.6 332.13 1138.53 332.13C1140.45 332.13 1142.01 333.498 1142.01 335.186C1142.01 336.875 1140.45 338.243 1138.53 338.243C1136.6 338.243 1135.04 336.875 1135.04 335.186Z"
                  fill="#FAFAFA" fill-opacity="0.2"/>
            <path d="M1131.56 335.186C1131.56 338.552 1134.69 341.29 1138.53 341.29C1142.36 341.29 1145.49 338.552 1145.49 335.186C1145.49 331.82 1142.36 329.082 1138.53 329.082C1134.69 329.082 1131.56 331.82 1131.56 335.186ZM1132.52 335.186C1132.52 332.281 1135.21 329.916 1138.53 329.916C1141.84 329.916 1144.53 332.281 1144.53 335.186C1144.53 338.092 1141.84 340.456 1138.53 340.456C1135.21 340.456 1132.52 338.092 1132.52 335.186Z"
                  fill="#FAFAFA" fill-opacity="0.2"/>
            <path d="M1218.52 452.924C1218.52 451.236 1220.07 449.867 1222 449.867C1223.93 449.867 1225.49 451.235 1225.49 452.924C1225.49 454.612 1223.93 455.98 1222 455.98C1220.07 455.98 1218.52 454.612 1218.52 452.924Z"
                  fill="#FAFAFA" fill-opacity="0.2"/>
            <path d="M1215.04 452.922C1215.04 456.288 1218.16 459.026 1222 459.026C1225.84 459.026 1228.96 456.288 1228.96 452.922C1228.96 449.556 1225.84 446.818 1222 446.818C1218.16 446.818 1215.04 449.556 1215.04 452.922ZM1215.99 452.922C1215.99 450.016 1218.69 447.654 1222 447.654C1225.31 447.654 1228.01 450.018 1228.01 452.922C1228.01 455.826 1225.31 458.192 1222 458.192C1218.69 458.192 1215.99 455.827 1215.99 452.922Z"
                  fill="#FAFAFA" fill-opacity="0.2"/>
            <path d="M951.075 579.927C951.075 578.24 952.635 576.871 954.56 576.871C956.486 576.871 958.045 578.238 958.045 579.927C958.045 581.616 956.486 582.983 954.56 582.983C952.635 582.983 951.075 581.616 951.075 579.927Z"
                  fill="#FAFAFA" fill-opacity="0.2"/>
            <path d="M947.6 579.927C947.6 583.293 950.722 586.031 954.56 586.031C958.398 586.031 961.521 583.293 961.521 579.927C961.521 576.561 958.398 573.823 954.56 573.823C950.722 573.823 947.6 576.561 947.6 579.927ZM948.551 579.927C948.551 577.022 951.247 574.657 954.56 574.657C957.873 574.657 960.568 577.022 960.568 579.927C960.568 582.833 957.872 585.195 954.56 585.195C951.249 585.195 948.551 582.831 948.551 579.927Z"
                  fill="#FAFAFA" fill-opacity="0.2"/>
            <path d="M1061.8 537.919C1061.8 536.232 1063.36 534.863 1065.28 534.863C1067.21 534.863 1068.77 536.231 1068.77 537.919C1068.77 539.608 1067.21 540.976 1065.28 540.976C1063.36 540.976 1061.8 539.608 1061.8 537.919Z"
                  fill="#FAFAFA" fill-opacity="0.2"/>
            <path d="M919.504 551.981C921.282 552.627 922.126 554.414 921.39 555.974C920.653 557.533 918.614 558.274 916.836 557.628C915.058 556.982 914.214 555.194 914.95 553.635C915.687 552.075 917.725 551.335 919.504 551.981Z"
                  fill="#FAFAFA" fill-opacity="0.2"/>
            <path d="M925.911 542.419C925.911 540.732 927.471 539.363 929.397 539.363C931.322 539.363 932.882 540.731 932.882 542.419C932.882 544.108 931.322 545.476 929.397 545.476C927.471 545.476 925.911 544.108 925.911 542.419Z"
                  fill="#FAFAFA" fill-opacity="0.2"/>
            <path d="M929.397 570.421C929.397 568.734 930.956 567.364 932.882 567.364C934.807 567.364 936.367 568.732 936.367 570.421C936.367 572.109 934.807 573.477 932.882 573.477C930.956 573.477 929.397 572.109 929.397 570.421Z"
                  fill="#FAFAFA" fill-opacity="0.2"/>
            <path d="M1367.64 613.879C1367.64 612.192 1369.2 610.823 1371.13 610.823C1373.05 610.823 1374.61 612.19 1374.61 613.879C1374.61 615.568 1373.05 616.935 1371.13 616.935C1369.2 616.935 1367.64 615.568 1367.64 613.879Z"
                  fill="#FAFAFA" fill-opacity="0.2"/>
            <path d="M1326.09 673.458C1326.09 671.771 1327.65 670.401 1329.57 670.401C1331.5 670.401 1333.06 671.769 1333.06 673.458C1333.06 675.146 1331.5 676.514 1329.57 676.514C1327.65 676.514 1326.09 675.146 1326.09 673.458Z"
                  fill="#FAFAFA" fill-opacity="0.2"/>
            <path d="M1232.83 621.467C1232.83 619.779 1234.39 618.41 1236.32 618.41C1238.24 618.41 1239.8 619.778 1239.8 621.467C1239.8 623.155 1238.24 624.523 1236.32 624.523C1234.39 624.523 1232.83 623.155 1232.83 621.467Z"
                  fill="#FAFAFA" fill-opacity="0.2"/>
            <path d="M973.786 587.055C973.786 585.368 975.346 583.998 977.271 583.998C979.197 583.998 980.757 585.366 980.757 587.055C980.757 588.743 979.197 590.111 977.271 590.111C975.346 590.111 973.786 588.743 973.786 587.055Z"
                  fill="#FAFAFA" fill-opacity="0.2"/>
            <path d="M1049.8 433.116C1049.8 431.429 1051.36 430.059 1053.29 430.059C1055.21 430.059 1056.77 431.427 1056.77 433.116C1056.77 434.804 1055.21 436.172 1053.29 436.172C1051.36 436.172 1049.8 434.804 1049.8 433.116Z"
                  fill="#FAFAFA" fill-opacity="0.2"/>
            <path d="M1089.42 508.83C1089.42 507.143 1090.98 505.774 1092.91 505.774C1094.83 505.774 1096.39 507.141 1096.39 508.83C1096.39 510.519 1094.83 511.886 1092.91 511.886C1090.98 511.886 1089.42 510.519 1089.42 508.83Z"
                  fill="#FAFAFA" fill-opacity="0.2"/>
            <path d="M1073.83 483.875C1075.7 484.263 1076.86 485.909 1076.42 487.552C1075.98 489.194 1074.1 490.212 1072.23 489.824C1070.35 489.436 1069.19 487.79 1069.64 486.148C1070.08 484.505 1071.95 483.487 1073.83 483.875Z"
                  fill="#FAFAFA" fill-opacity="0.2"/>
            <path d="M1143.99 305.304C1143.99 303.617 1145.55 302.248 1147.48 302.248C1149.4 302.248 1150.96 303.615 1150.96 305.304C1150.96 306.993 1149.4 308.36 1147.48 308.36C1145.55 308.36 1143.99 306.993 1143.99 305.304Z"
                  fill="#FAFAFA" fill-opacity="0.2"/>
            <path d="M1089.42 442.203C1089.42 440.516 1090.98 439.147 1092.91 439.147C1094.83 439.147 1096.39 440.515 1096.39 442.203C1096.39 443.892 1094.83 445.26 1092.91 445.26C1090.98 445.26 1089.42 443.892 1089.42 442.203Z"
                  fill="#FAFAFA" fill-opacity="0.2"/>
            <path d="M1104.63 536.378C1106.5 536.766 1107.66 538.412 1107.22 540.055C1106.77 541.697 1104.9 542.715 1103.02 542.327C1101.15 541.939 1099.99 540.293 1100.43 538.65C1100.88 537.008 1102.75 535.99 1104.63 536.378Z"
                  fill="#FAFAFA" fill-opacity="0.2"/>
            <path d="M1173.64 511.887C1173.64 510.199 1175.2 508.83 1177.13 508.83C1179.05 508.83 1180.61 510.198 1180.61 511.887C1180.61 513.575 1179.05 514.943 1177.13 514.943C1175.2 514.943 1173.64 513.575 1173.64 511.887Z"
                  fill="#FAFAFA" fill-opacity="0.2"/>
            <path d="M1306.48 583.998C1306.48 582.311 1308.04 580.942 1309.96 580.942C1311.89 580.942 1313.45 582.31 1313.45 583.998C1313.45 585.687 1311.89 587.055 1309.96 587.055C1308.04 587.055 1306.48 585.687 1306.48 583.998Z"
                  fill="#FAFAFA" fill-opacity="0.2"/>
            <path d="M1253.05 559.388C1253.05 557.701 1254.61 556.331 1256.53 556.331C1258.46 556.331 1260.02 557.699 1260.02 559.388C1260.02 561.076 1258.46 562.444 1256.53 562.444C1254.61 562.444 1253.05 561.076 1253.05 559.388Z"
                  fill="#FAFAFA" fill-opacity="0.2"/>
            <path d="M905.779 560.497H1136.71L1187.82 605.313H1284.98L1309.62 583.704L1310.3 584.295L1285.38 606.147H1187.42L1136.32 561.331H905.779V560.497Z"
                  fill="#FAFAFA" fill-opacity="0.2"/>
            <path d="M918.169 553.552H1120.08L1170.79 598.026H1260.22L1319.29 649.83L1317.27 651.602L1259.04 600.533H1169.61L1118.89 556.057H918.169V553.552Z"
                  fill="#FAFAFA" fill-opacity="0.2"/>
            <path d="M932.88 570.003H1164.59L1214.14 613.462H1371.13V614.296H1213.75L1164.2 570.84H932.88V570.003Z"
                  fill="#FAFAFA" fill-opacity="0.2"/>
            <path d="M1197.84 501.973L1199.86 503.744L1150.27 547.229H1090.24L1080.95 539.082H1065.28V536.575H1082.13L1091.43 544.724H1149.09L1197.84 501.973Z"
                  fill="#FAFAFA" fill-opacity="0.2"/>
            <path d="M1222.07 558.969H1256.53V559.805H1222.47L1199.05 580.344H954.56V579.51H1198.65L1222.07 558.969Z"
                  fill="#FAFAFA" fill-opacity="0.2"/>
            <path d="M977.27 586.637H1146.99L1172.03 608.593V630.382L1147.34 652.031L1146.67 651.44L1171.07 630.036V608.939L1146.6 587.472H977.27V586.637Z"
                  fill="#FAFAFA" fill-opacity="0.2"/>
            <path d="M1236.32 621.048H1270.48L1329.91 673.163L1329.24 673.752L1270.09 621.884H1236.32V621.048Z"
                  fill="#FAFAFA" fill-opacity="0.2"/>
            <path d="M1176.79 511.59L1177.46 512.181L1145.99 539.78H1102.88V538.946H1145.6L1176.79 511.59Z"
                  fill="#FAFAFA" fill-opacity="0.2"/>
            <path d="M1221.66 452.627L1222.34 453.218L1143.72 522.165H1060.93L1037.36 542.836H929.397V542.002H1036.96L1060.53 521.33H1143.32L1221.66 452.627Z"
                  fill="#FAFAFA" fill-opacity="0.2"/>
            <path d="M1054.54 432.232L1081.39 455.771V492.837L1032.04 536.116H940.484V533.611H1030.86L1078.53 491.801V456.809L1052.52 434.003L1054.54 432.232Z"
                  fill="#FAFAFA" fill-opacity="0.2"/>
            <path d="M1027.41 418.69L1073.51 459.125V486.86H1072.56V459.471L1026.73 419.28L1027.41 418.69Z"
                  fill="#FAFAFA" fill-opacity="0.2"/>
            <path d="M1138.05 335.186H1139V417.291L1093.38 457.298V508.83H1092.43V456.953L1138.05 416.945V335.186Z"
                  fill="#FAFAFA" fill-opacity="0.2"/>
            <path d="M1147 305.304H1147.95V394.522L1093.24 442.498L1092.57 441.909L1147 394.176V305.304Z" fill="#FAFAFA"
                  fill-opacity="0.2"/>
        </g>
        <g opacity="0.23">
            <path d="M983.411 380.797C985.335 380.797 986.896 382.164 986.896 383.853C986.896 385.542 985.336 386.909 983.411 386.909C981.485 386.909 979.926 385.542 979.926 383.853C979.926 382.164 981.485 380.797 983.411 380.797Z"
                  fill="#FAFAFA" fill-opacity="0.2"/>
            <path d="M976.448 383.853C976.448 387.219 979.571 389.957 983.409 389.957C987.247 389.957 990.37 387.219 990.37 383.853C990.37 380.487 987.247 377.749 983.409 377.749C979.571 377.749 976.448 380.487 976.448 383.853ZM977.402 383.853C977.402 380.947 980.098 378.583 983.411 378.583C986.724 378.583 989.42 380.947 989.42 383.853C989.42 386.759 986.724 389.121 983.411 389.121C980.098 389.121 977.402 386.757 977.402 383.853Z"
                  fill="#FAFAFA" fill-opacity="0.2"/>
            <path d="M1333.11 684.837C1335.03 684.837 1336.59 686.204 1336.59 687.893C1336.59 689.582 1335.03 690.949 1333.11 690.949C1331.18 690.949 1329.62 689.582 1329.62 687.893C1329.62 686.204 1331.18 684.837 1333.11 684.837Z"
                  fill="#FAFAFA" fill-opacity="0.2"/>
            <path d="M1326.15 687.891C1326.15 691.257 1329.27 693.996 1333.11 693.996C1336.95 693.996 1340.07 691.257 1340.07 687.891C1340.07 684.525 1336.95 681.787 1333.11 681.787C1329.27 681.787 1326.15 684.525 1326.15 687.891ZM1327.1 687.891C1327.1 684.986 1329.79 682.622 1333.11 682.622C1336.42 682.622 1339.12 684.986 1339.12 687.891C1339.12 690.797 1336.42 693.159 1333.11 693.159C1329.79 693.159 1327.1 690.795 1327.1 687.891Z"
                  fill="#FAFAFA" fill-opacity="0.2"/>
            <path d="M933.291 726.644C935.215 726.644 936.776 728.012 936.776 729.701C936.776 731.389 935.217 732.757 933.291 732.757C931.366 732.757 929.806 731.389 929.806 729.701C929.806 728.012 931.366 726.644 933.291 726.644Z"
                  fill="#FAFAFA" fill-opacity="0.2"/>
            <path d="M926.331 729.699C926.331 733.065 929.453 735.803 933.291 735.803C937.129 735.803 940.252 733.065 940.252 729.699C940.252 726.333 937.129 723.595 933.291 723.595C929.453 723.595 926.331 726.333 926.331 729.699ZM927.284 729.699C927.284 726.793 929.98 724.429 933.291 724.429C936.603 724.429 939.3 726.793 939.3 729.699C939.3 732.604 936.604 734.969 933.291 734.969C929.978 734.969 927.284 732.604 927.284 729.699Z"
                  fill="#FAFAFA" fill-opacity="0.2"/>
            <path d="M1300.1 413.359C1302.03 413.359 1303.59 414.727 1303.59 416.416C1303.59 418.104 1302.03 419.472 1300.1 419.472C1298.18 419.472 1296.62 418.104 1296.62 416.416C1296.62 414.727 1298.18 413.359 1300.1 413.359Z"
                  fill="#FAFAFA" fill-opacity="0.2"/>
            <path d="M1293.14 416.414C1293.14 419.78 1296.26 422.518 1300.1 422.518C1303.94 422.518 1307.06 419.78 1307.06 416.414C1307.06 413.048 1303.94 410.31 1300.1 410.31C1296.26 410.31 1293.14 413.048 1293.14 416.414ZM1294.09 416.414C1294.09 413.508 1296.79 411.146 1300.1 411.146C1303.42 411.146 1306.11 413.51 1306.11 416.414C1306.11 419.318 1303.42 421.684 1300.1 421.684C1296.79 421.684 1294.09 419.319 1294.09 416.414Z"
                  fill="#FAFAFA" fill-opacity="0.2"/>
            <path d="M1087.09 306.753C1089.02 306.753 1090.58 308.12 1090.58 309.809C1090.58 311.498 1089.02 312.865 1087.09 312.865C1085.17 312.865 1083.61 311.498 1083.61 309.809C1083.61 308.12 1085.17 306.753 1087.09 306.753Z"
                  fill="#FAFAFA" fill-opacity="0.2"/>
            <path d="M1275.12 652.152C1277.04 652.152 1278.6 653.519 1278.6 655.208C1278.6 656.897 1277.04 658.264 1275.12 658.264C1273.19 658.264 1271.63 656.897 1271.63 655.208C1271.63 653.519 1273.19 652.152 1275.12 652.152Z"
                  fill="#FAFAFA" fill-opacity="0.2"/>
            <path d="M964.3 646.041C966.223 646.041 967.785 647.408 967.785 649.097C967.785 650.786 966.225 652.153 964.3 652.153C962.374 652.153 960.815 650.786 960.815 649.097C960.815 647.408 962.374 646.041 964.3 646.041Z"
                  fill="#FAFAFA" fill-opacity="0.2"/>
            <path d="M1046.63 483.068C1048.5 483.455 1049.66 485.101 1049.22 486.744C1048.78 488.387 1046.9 489.404 1045.02 489.017C1043.15 488.629 1041.99 486.983 1042.43 485.34C1042.88 483.697 1044.75 482.68 1046.63 483.068Z"
                  fill="#FAFAFA" fill-opacity="0.2"/>
            <path d="M1361.72 470.527C1363.08 471.721 1363.08 473.656 1361.72 474.85C1360.36 476.043 1358.15 476.043 1356.79 474.85C1355.43 473.656 1355.43 471.721 1356.79 470.527C1358.15 469.334 1360.36 469.334 1361.72 470.527Z"
                  fill="#FAFAFA" fill-opacity="0.2"/>
            <path d="M1331.37 534.611C1332.33 534.611 1333.11 535.295 1333.11 536.14C1333.11 536.984 1332.33 537.668 1331.37 537.668C1330.4 537.668 1329.62 536.984 1329.62 536.14C1329.62 535.295 1330.4 534.611 1331.37 534.611Z"
                  fill="#FAFAFA" fill-opacity="0.2"/>
            <path d="M1424.86 420.573C1425.82 420.573 1426.6 421.257 1426.6 422.101C1426.6 422.945 1425.82 423.629 1424.86 423.629C1423.9 423.629 1423.12 422.945 1423.12 422.101C1423.12 421.257 1423.9 420.573 1424.86 420.573Z"
                  fill="#FAFAFA" fill-opacity="0.2"/>
            <path d="M1121.81 388.01C1122.77 388.01 1123.55 388.694 1123.55 389.538C1123.55 390.383 1122.77 391.067 1121.81 391.067C1120.85 391.067 1120.07 390.383 1120.07 389.538C1120.07 388.694 1120.85 388.01 1121.81 388.01Z"
                  fill="#FAFAFA" fill-opacity="0.2"/>
            <path d="M1394.12 754.965C1395.08 754.965 1395.86 755.649 1395.86 756.493C1395.86 757.338 1395.08 758.021 1394.12 758.021C1393.15 758.021 1392.37 757.338 1392.37 756.493C1392.37 755.649 1393.15 754.965 1394.12 754.965Z"
                  fill="#FAFAFA" fill-opacity="0.2"/>
            <path d="M1224.61 739.922C1225.57 739.922 1226.35 740.606 1226.35 741.45C1226.35 742.294 1225.57 742.979 1224.61 742.979C1223.65 742.979 1222.86 742.294 1222.86 741.45C1222.86 740.606 1223.65 739.922 1224.61 739.922Z"
                  fill="#FAFAFA" fill-opacity="0.2"/>
            <path d="M1083.61 676.651C1084.57 676.651 1085.35 677.335 1085.35 678.18C1085.35 679.024 1084.57 679.708 1083.61 679.708C1082.65 679.708 1081.87 679.024 1081.87 678.18C1081.87 677.335 1082.65 676.651 1083.61 676.651Z"
                  fill="#FAFAFA" fill-opacity="0.2"/>
            <path d="M896.217 573.474C897.18 573.474 897.959 574.157 897.959 575.002C897.959 575.846 897.18 576.53 896.217 576.53C895.254 576.53 894.474 575.846 894.474 575.002C894.474 574.157 895.254 573.474 896.217 573.474Z"
                  fill="#FAFAFA" fill-opacity="0.2"/>
            <path d="M1382.96 314.392C1383.92 314.392 1384.7 315.076 1384.7 315.92C1384.7 316.764 1383.92 317.448 1382.96 317.448C1381.99 317.448 1381.21 316.764 1381.21 315.92C1381.21 315.076 1381.99 314.392 1382.96 314.392Z"
                  fill="#FAFAFA" fill-opacity="0.2"/>
            <path d="M1283.6 365.318C1281.68 365.318 1280.12 363.951 1280.12 362.262C1280.12 360.573 1281.68 359.206 1283.6 359.206C1285.53 359.206 1287.09 360.573 1287.09 362.262C1287.09 363.951 1285.53 365.318 1283.6 365.318Z"
                  fill="#FAFAFA" fill-opacity="0.2"/>
            <path d="M1276.64 362.262C1276.64 365.628 1279.76 368.366 1283.6 368.366C1287.44 368.366 1290.56 365.628 1290.56 362.262C1290.56 358.896 1287.44 356.158 1283.6 356.158C1279.76 356.158 1276.64 358.896 1276.64 362.262ZM1277.59 362.262C1277.59 359.357 1280.29 356.992 1283.6 356.992C1286.92 356.992 1289.61 359.357 1289.61 362.262C1289.61 365.168 1286.92 367.53 1283.6 367.53C1280.29 367.53 1277.59 365.166 1277.59 362.262Z"
                  fill="#FAFAFA" fill-opacity="0.2"/>
            <path d="M1284.77 515.524C1282.84 515.524 1281.28 514.156 1281.28 512.468C1281.28 510.779 1282.84 509.411 1284.77 509.411C1286.69 509.411 1288.25 510.779 1288.25 512.468C1288.25 514.156 1286.69 515.524 1284.77 515.524Z"
                  fill="#FAFAFA" fill-opacity="0.2"/>
            <path d="M1277.81 512.468C1277.81 515.833 1280.93 518.572 1284.77 518.572C1288.6 518.572 1291.73 515.833 1291.73 512.468C1291.73 509.102 1288.6 506.363 1284.77 506.363C1280.93 506.363 1277.81 509.102 1277.81 512.468ZM1278.76 512.468C1278.76 509.562 1281.45 507.199 1284.77 507.199C1288.08 507.199 1290.78 509.564 1290.78 512.468C1290.78 515.371 1288.08 517.736 1284.77 517.736C1281.45 517.736 1278.76 515.371 1278.76 512.468Z"
                  fill="#FAFAFA" fill-opacity="0.2"/>
            <path d="M1115 470.057C1113.08 470.057 1111.52 468.69 1111.52 467.001C1111.52 465.312 1113.08 463.945 1115 463.945C1116.93 463.945 1118.49 465.312 1118.49 467.001C1118.49 468.69 1116.93 470.057 1115 470.057Z"
                  fill="#FAFAFA" fill-opacity="0.2"/>
            <path d="M1108.04 467.001C1108.04 470.367 1111.16 473.105 1115 473.105C1118.84 473.105 1121.96 470.367 1121.96 467.001C1121.96 463.635 1118.84 460.897 1115 460.897C1111.16 460.897 1108.04 463.635 1108.04 467.001ZM1108.99 467.001C1108.99 464.096 1111.69 461.733 1115 461.733C1118.32 461.733 1121.01 464.097 1121.01 467.001C1121.01 469.905 1118.31 472.271 1115 472.271C1111.69 472.271 1108.99 469.907 1108.99 467.001Z"
                  fill="#FAFAFA" fill-opacity="0.2"/>
            <path d="M1181.2 727.068C1179.28 727.068 1177.72 725.701 1177.72 724.012C1177.72 722.323 1179.28 720.956 1181.2 720.956C1183.13 720.956 1184.69 722.323 1184.69 724.012C1184.69 725.701 1183.13 727.068 1181.2 727.068Z"
                  fill="#FAFAFA" fill-opacity="0.2"/>
            <path d="M1174.24 724.012C1174.24 727.378 1177.36 730.116 1181.2 730.116C1185.04 730.116 1188.16 727.378 1188.16 724.012C1188.16 720.646 1185.04 717.908 1181.2 717.908C1177.36 717.908 1174.24 720.646 1174.24 724.012ZM1175.2 724.012C1175.2 721.106 1177.89 718.744 1181.2 718.744C1184.52 718.744 1187.21 721.108 1187.21 724.012C1187.21 726.916 1184.52 729.282 1181.2 729.282C1177.89 729.282 1175.2 726.917 1175.2 724.012Z"
                  fill="#FAFAFA" fill-opacity="0.2"/>
            <path d="M1153.96 691.418C1155.32 692.612 1155.32 694.547 1153.96 695.74C1152.6 696.934 1150.4 696.934 1149.04 695.74C1147.67 694.547 1147.67 692.612 1149.04 691.418C1150.4 690.224 1152.6 690.224 1153.96 691.418Z"
                  fill="#FAFAFA" fill-opacity="0.2"/>
            <path d="M1144.54 693.578C1144.54 696.944 1147.66 699.683 1151.5 699.683C1155.34 699.683 1158.46 696.944 1158.46 693.578C1158.46 690.213 1155.34 687.474 1151.5 687.474C1147.66 687.474 1144.54 690.213 1144.54 693.578ZM1145.49 693.578C1145.49 690.673 1148.19 688.31 1151.5 688.31C1154.81 688.31 1157.51 690.674 1157.51 693.578C1157.51 696.482 1154.81 698.848 1151.5 698.848C1148.18 698.848 1145.49 696.484 1145.49 693.578Z"
                  fill="#FAFAFA" fill-opacity="0.2"/>
            <path d="M1019.36 620.702C1017.44 620.702 1015.88 619.334 1015.88 617.645C1015.88 615.957 1017.44 614.589 1019.36 614.589C1021.29 614.589 1022.85 615.957 1022.85 617.645C1022.85 619.334 1021.29 620.702 1019.36 620.702Z"
                  fill="#FAFAFA" fill-opacity="0.2"/>
            <path d="M1012.4 617.645C1012.4 621.011 1015.52 623.75 1019.36 623.75C1023.2 623.75 1026.32 621.011 1026.32 617.645C1026.32 614.279 1023.2 611.541 1019.36 611.541C1015.52 611.541 1012.4 614.279 1012.4 617.645ZM1013.35 617.645C1013.35 614.74 1016.05 612.376 1019.36 612.376C1022.68 612.376 1025.37 614.74 1025.37 617.645C1025.37 620.551 1022.68 622.915 1019.36 622.915C1016.05 622.915 1013.35 620.551 1013.35 617.645Z"
                  fill="#FAFAFA" fill-opacity="0.2"/>
            <path d="M923.807 522.958C921.883 522.958 920.321 521.59 920.321 519.901C920.321 518.213 921.881 516.845 923.807 516.845C925.732 516.845 927.292 518.213 927.292 519.901C927.292 521.59 925.732 522.958 923.807 522.958Z"
                  fill="#FAFAFA" fill-opacity="0.2"/>
            <path d="M916.846 519.903C916.846 523.269 919.968 526.007 923.807 526.007C927.645 526.007 930.767 523.269 930.767 519.903C930.767 516.537 927.645 513.799 923.807 513.799C919.968 513.799 916.846 516.537 916.846 519.903ZM917.799 519.903C917.799 516.997 920.495 514.633 923.807 514.633C927.118 514.633 929.814 516.997 929.814 519.903C929.814 522.809 927.118 525.173 923.807 525.173C920.495 525.173 917.799 522.809 917.799 519.903Z"
                  fill="#FAFAFA" fill-opacity="0.2"/>
            <path d="M1058.06 449.755C1056.14 449.755 1054.58 448.387 1054.58 446.698C1054.58 445.01 1056.14 443.642 1058.06 443.642C1059.99 443.642 1061.55 445.01 1061.55 446.698C1061.55 448.387 1059.99 449.755 1058.06 449.755Z"
                  fill="#FAFAFA" fill-opacity="0.2"/>
            <path d="M1051.1 446.7C1051.1 450.066 1054.22 452.804 1058.06 452.804C1061.9 452.804 1065.02 450.066 1065.02 446.7C1065.02 443.334 1061.9 440.596 1058.06 440.596C1054.22 440.596 1051.1 443.334 1051.1 446.7ZM1052.05 446.7C1052.05 443.794 1054.75 441.43 1058.06 441.43C1061.37 441.43 1064.07 443.794 1064.07 446.7C1064.07 449.606 1061.37 451.97 1058.06 451.97C1054.75 451.97 1052.05 449.606 1052.05 446.7Z"
                  fill="#FAFAFA" fill-opacity="0.2"/>
            <path d="M1202.88 684.29C1200.96 684.29 1199.4 682.923 1199.4 681.234C1199.4 679.545 1200.96 678.178 1202.88 678.178C1204.81 678.178 1206.37 679.545 1206.37 681.234C1206.37 682.923 1204.81 684.29 1202.88 684.29Z"
                  fill="#FAFAFA" fill-opacity="0.2"/>
            <path d="M1195.92 681.234C1195.92 684.6 1199.05 687.338 1202.88 687.338C1206.72 687.338 1209.84 684.6 1209.84 681.234C1209.84 677.868 1206.72 675.13 1202.88 675.13C1199.05 675.13 1195.92 677.868 1195.92 681.234ZM1196.87 681.234C1196.87 678.329 1199.57 675.964 1202.88 675.964C1206.2 675.964 1208.89 678.329 1208.89 681.234C1208.89 684.14 1206.19 686.504 1202.88 686.504C1199.57 686.504 1196.87 684.14 1196.87 681.234Z"
                  fill="#FAFAFA" fill-opacity="0.2"/>
            <path d="M1154.98 581.078C1156.91 581.078 1158.47 582.446 1158.47 584.134C1158.47 585.822 1156.91 587.19 1154.98 587.19C1153.06 587.19 1151.5 585.822 1151.5 584.134C1151.5 582.446 1153.06 581.078 1154.98 581.078Z"
                  fill="#FAFAFA" fill-opacity="0.2"/>
            <path d="M1174.23 716.204C1172.31 716.204 1170.75 714.836 1170.75 713.148C1170.75 711.459 1172.31 710.091 1174.23 710.091C1176.16 710.091 1177.72 711.459 1177.72 713.148C1177.72 714.836 1176.16 716.204 1174.23 716.204Z"
                  fill="#FAFAFA" fill-opacity="0.2"/>
            <path d="M1160.11 706.358C1158.19 706.358 1156.63 704.991 1156.63 703.302C1156.63 701.613 1158.19 700.246 1160.11 700.246C1162.04 700.246 1163.6 701.613 1163.6 703.302C1163.6 704.991 1162.04 706.358 1160.11 706.358Z"
                  fill="#FAFAFA" fill-opacity="0.2"/>
            <path d="M1192.04 703.302C1190.12 703.302 1188.56 701.934 1188.56 700.246C1188.56 698.557 1190.12 697.189 1192.04 697.189C1193.97 697.189 1195.53 698.557 1195.53 700.246C1195.53 701.934 1193.97 703.302 1192.04 703.302Z"
                  fill="#FAFAFA" fill-opacity="0.2"/>
            <path d="M1241.6 318.974C1239.67 318.974 1238.11 317.607 1238.11 315.918C1238.11 314.23 1239.67 312.862 1241.6 312.862C1243.52 312.862 1245.08 314.23 1245.08 315.918C1245.08 317.607 1243.52 318.974 1241.6 318.974Z"
                  fill="#FAFAFA" fill-opacity="0.2"/>
            <path d="M1309.54 355.416C1307.61 355.416 1306.05 354.049 1306.05 352.36C1306.05 350.671 1307.61 349.304 1309.54 349.304C1311.46 349.304 1313.02 350.671 1313.02 352.36C1313.02 354.049 1311.46 355.416 1309.54 355.416Z"
                  fill="#FAFAFA" fill-opacity="0.2"/>
            <path d="M1250.25 437.2C1248.33 437.2 1246.77 435.833 1246.77 434.144C1246.77 432.455 1248.32 431.088 1250.25 431.088C1252.18 431.088 1253.74 432.455 1253.74 434.144C1253.74 435.833 1252.18 437.2 1250.25 437.2Z"
                  fill="#FAFAFA" fill-opacity="0.2"/>
            <path d="M1211.01 664.373C1209.09 664.373 1207.53 663.006 1207.53 661.317C1207.53 659.628 1209.09 658.261 1211.01 658.261C1212.94 658.261 1214.5 659.628 1214.5 661.317C1214.5 663.006 1212.94 664.373 1211.01 664.373Z"
                  fill="#FAFAFA" fill-opacity="0.2"/>
            <path d="M1035.48 597.71C1033.55 597.71 1031.99 596.343 1031.99 594.654C1031.99 592.965 1033.55 591.598 1035.48 591.598C1037.4 591.598 1038.96 592.965 1038.96 594.654C1038.96 596.343 1037.4 597.71 1035.48 597.71Z"
                  fill="#FAFAFA" fill-opacity="0.2"/>
            <path d="M1121.81 562.965C1119.89 562.965 1118.33 561.598 1118.33 559.909C1118.33 558.22 1119.89 556.853 1121.81 556.853C1123.74 556.853 1125.3 558.22 1125.3 559.909C1125.3 561.598 1123.74 562.965 1121.81 562.965Z"
                  fill="#FAFAFA" fill-opacity="0.2"/>
            <path d="M1097.55 574.348C1099.43 574.735 1100.59 576.382 1100.14 578.024C1099.7 579.667 1097.83 580.685 1095.95 580.297C1094.08 579.909 1092.92 578.263 1093.36 576.62C1093.8 574.977 1095.68 573.96 1097.55 574.348Z"
                  fill="#FAFAFA" fill-opacity="0.2"/>
            <path d="M889.732 515.11C887.808 515.11 886.247 513.742 886.247 512.054C886.247 510.365 887.806 508.997 889.732 508.997C891.658 508.997 893.217 510.365 893.217 512.054C893.217 513.742 891.658 515.11 889.732 515.11Z"
                  fill="#FAFAFA" fill-opacity="0.2"/>
            <path d="M1045.84 562.965C1043.91 562.965 1042.35 561.598 1042.35 559.909C1042.35 558.22 1043.91 556.853 1045.84 556.853C1047.76 556.853 1049.32 558.22 1049.32 559.909C1049.32 561.598 1047.76 562.965 1045.84 562.965Z"
                  fill="#FAFAFA" fill-opacity="0.2"/>
            <path d="M1156.63 553.383C1154.7 553.383 1153.14 552.015 1153.14 550.326C1153.14 548.638 1154.7 547.27 1156.63 547.27C1158.55 547.27 1160.11 548.638 1160.11 550.326C1160.11 552.015 1158.55 553.383 1156.63 553.383Z"
                  fill="#FAFAFA" fill-opacity="0.2"/>
            <path d="M1125.3 489.109C1123.37 489.109 1121.81 487.741 1121.81 486.052C1121.81 484.364 1123.37 482.996 1125.3 482.996C1127.22 482.996 1128.78 484.364 1128.78 486.052C1128.78 487.741 1127.22 489.109 1125.3 489.109Z"
                  fill="#FAFAFA" fill-opacity="0.2"/>
            <path d="M1207.53 372.615C1205.6 372.615 1204.04 371.247 1204.04 369.558C1204.04 367.87 1205.6 366.502 1207.53 366.502C1209.45 366.502 1211.01 367.87 1211.01 369.558C1211.01 371.247 1209.45 372.615 1207.53 372.615Z"
                  fill="#FAFAFA" fill-opacity="0.2"/>
            <path d="M1179.46 419.47C1177.54 419.47 1175.98 418.103 1175.98 416.414C1175.98 414.725 1177.54 413.358 1179.46 413.358C1181.39 413.358 1182.95 414.725 1182.95 416.414C1182.95 418.103 1181.39 419.47 1179.46 419.47Z"
                  fill="#FAFAFA" fill-opacity="0.2"/>
            <path d="M1207.86 369.265L1232.78 391.118V477.021L1181.68 521.837V724.012H1180.73V521.491L1231.83 476.675V391.464L1207.19 369.855L1207.86 369.265Z"
                  fill="#FAFAFA" fill-opacity="0.2"/>
            <path d="M1282.59 361.376L1284.61 363.148L1226.38 414.217V492.645L1175.66 537.121V713.148H1172.81V536.083L1223.52 491.607V413.179L1282.59 361.376Z"
                  fill="#FAFAFA" fill-opacity="0.2"/>
            <path d="M1241.12 315.918H1242.07V453.933L1192.52 497.392V700.247H1191.57V497.046L1241.12 453.587V315.918Z"
                  fill="#FAFAFA" fill-opacity="0.2"/>
            <path d="M1116.01 466.115L1165.6 509.602V562.245L1156.31 570.392V584.134H1153.45V569.356L1162.74 561.207V510.638L1113.99 467.887L1116.01 466.115Z"
                  fill="#FAFAFA" fill-opacity="0.2"/>
            <path d="M1178.98 416.414H1179.94V446.289L1203.36 466.829V681.234H1202.41V467.175L1178.98 446.635V416.414Z"
                  fill="#FAFAFA" fill-opacity="0.2"/>
            <path d="M1235.57 490.524H1260.42L1285.1 512.173L1284.43 512.764L1260.02 491.358H1235.96L1211.49 512.827V661.319H1210.54V512.481L1235.57 490.524Z"
                  fill="#FAFAFA" fill-opacity="0.2"/>
            <path d="M1309.2 352.065L1309.87 352.655L1250.73 404.525V434.144H1249.77V404.179L1309.2 352.065Z"
                  fill="#FAFAFA" fill-opacity="0.2"/>
            <path d="M1125.63 485.758L1157.1 513.357V551.164H1156.15V513.703L1124.96 486.347L1125.63 485.758Z"
                  fill="#FAFAFA" fill-opacity="0.2"/>
            <path d="M1058.4 446.404L1137.02 515.35V587.952L1160.59 608.624V703.302H1159.64V608.97L1136.07 588.298V515.696L1057.72 446.995L1058.4 446.404Z"
                  fill="#FAFAFA" fill-opacity="0.2"/>
            <path d="M1061.31 570.01H1103.57L1152.93 613.289V693.578H1150.07V614.326L1102.39 572.515H1062.49L1036.49 595.323L1034.47 593.551L1061.31 570.01Z"
                  fill="#FAFAFA" fill-opacity="0.2"/>
            <path d="M1065.13 576.916H1096.76V577.75H1065.53L1019.7 617.942L1019.03 617.351L1065.13 576.916Z"
                  fill="#FAFAFA" fill-opacity="0.2"/>
            <path d="M923.807 519.484H1017.43L1063.05 559.492H1121.81V560.326H1062.66L1017.04 520.32H923.807V519.484Z"
                  fill="#FAFAFA" fill-opacity="0.2"/>
            <path d="M889.732 511.638H991.466L1046.18 559.615L1045.5 560.206L991.072 512.473H889.732V511.638Z"
                  fill="#FAFAFA" fill-opacity="0.2"/>
        </g>
    </g>
</svg>
