<svg width="430" height="487" viewBox="0 0 430 487" fill="none" xmlns="http://www.w3.org/2000/svg">
<g style="mix-blend-mode:color-dodge">
<g opacity="0.85">
<path d="M371.079 196.702C370.719 197.926 369.357 198.412 368.036 197.787C366.715 197.161 365.938 195.662 366.299 194.437C366.659 193.212 368.021 192.727 369.341 193.353C370.662 193.978 371.44 195.477 371.079 196.702Z" fill="#FAFAFA"/>
<path d="M363.915 193.308C363.196 195.749 364.753 198.75 367.385 199.997C370.017 201.244 372.744 200.273 373.462 197.831C374.181 195.39 372.624 192.389 369.992 191.142C367.36 189.895 364.633 190.867 363.915 193.308ZM364.568 193.618C365.189 191.51 367.543 190.671 369.815 191.748C372.087 192.824 373.432 195.415 372.811 197.523C372.191 199.63 369.837 200.469 367.564 199.393C365.292 198.316 363.948 195.725 364.568 193.618Z" fill="#FAFAFA"/>
<path d="M67.7499 338.538C67.3896 339.761 66.0277 340.248 64.7071 339.622C63.3864 338.997 62.6089 337.498 62.9695 336.273C63.3301 335.048 64.6917 334.563 66.0123 335.189C67.333 335.814 68.1105 337.313 67.7499 338.538Z" fill="#FAFAFA"/>
<path d="M60.5867 335.144C59.868 337.586 61.4248 340.587 64.0571 341.834C66.6894 343.081 69.4157 342.109 70.1345 339.667C70.8532 337.226 69.2964 334.225 66.6641 332.978C64.0318 331.731 61.3055 332.703 60.5867 335.144ZM61.2393 335.453C61.8598 333.346 64.2132 332.508 66.4843 333.584C68.7553 334.66 70.0994 337.251 69.4793 339.357C68.8592 341.463 66.505 342.304 64.234 341.228C61.9629 340.152 60.6188 337.561 61.2393 335.453Z" fill="#FAFAFA"/>
<path d="M119.597 52.5224C119.236 53.7461 117.874 54.2326 116.554 53.6069C115.233 52.9813 114.456 51.4827 114.816 50.2577C115.177 49.0328 116.538 48.5475 117.859 49.1732C119.18 49.7989 119.957 51.2975 119.597 52.5224Z" fill="#FAFAFA"/>
<path d="M112.433 49.1303C111.714 51.5717 113.271 54.5726 115.903 55.8196C118.536 57.0666 121.262 56.0949 121.981 53.6535C122.699 51.2121 121.143 48.2112 118.51 46.9642C115.878 45.7171 113.152 46.6889 112.433 49.1303ZM113.085 49.4395C113.706 47.3319 116.06 46.4929 118.331 47.5688C120.602 48.6447 121.946 51.2355 121.326 53.3431C120.705 55.4507 118.352 56.2884 116.081 55.2125C113.809 54.1366 112.465 51.5458 113.085 49.4395Z" fill="#FAFAFA"/>
<path d="M280.266 402.364C279.905 403.588 278.543 404.074 277.223 403.448C275.902 402.823 275.125 401.324 275.485 400.099C275.846 398.874 277.207 398.389 278.528 399.015C279.849 399.64 280.626 401.139 280.266 402.364Z" fill="#FAFAFA"/>
<path d="M273.102 398.97C272.383 401.412 273.94 404.412 276.572 405.659C279.204 406.907 281.931 405.935 282.649 403.493C283.368 401.052 281.811 398.051 279.179 396.804C276.547 395.557 273.82 396.529 273.102 398.97ZM273.755 399.28C274.376 397.172 276.73 396.333 279.002 397.41C281.274 398.486 282.619 401.077 281.998 403.185C281.378 405.292 279.024 406.131 276.751 405.055C274.479 403.978 273.135 401.388 273.755 399.28Z" fill="#FAFAFA"/>
<path d="M405.504 290.971C405.143 292.196 403.781 292.683 402.461 292.058C401.141 291.433 400.364 289.934 400.724 288.709C401.085 287.483 402.447 286.997 403.767 287.622C405.088 288.247 405.865 289.746 405.504 290.971Z" fill="#FAFAFA"/>
<path d="M104.618 309.375C104.258 310.599 102.896 311.086 101.575 310.461C100.255 309.836 99.4781 308.337 99.839 307.112C100.2 305.886 101.561 305.4 102.882 306.026C104.202 306.651 104.979 308.149 104.618 309.375Z" fill="#FAFAFA"/>
<path d="M174.169 99.3077C173.808 100.532 172.447 101.019 171.126 100.394C169.806 99.7687 169.029 98.2701 169.39 97.0448C169.751 95.8194 171.112 95.3333 172.433 95.9585C173.753 96.5837 174.53 98.0823 174.169 99.3077Z" fill="#FAFAFA"/>
<path d="M280.631 206.78C280.271 208.004 278.909 208.491 277.589 207.866C276.268 207.241 275.491 205.742 275.852 204.517C276.213 203.291 277.575 202.805 278.895 203.431C280.215 204.056 280.992 205.554 280.631 206.78Z" fill="#FAFAFA"/>
<path d="M181.859 385.046C181.679 385.659 180.998 385.902 180.338 385.589C179.678 385.277 179.289 384.527 179.47 383.915C179.65 383.302 180.331 383.059 180.991 383.371C181.651 383.684 182.04 384.433 181.859 385.046Z" fill="#FAFAFA"/>
<path d="M336.667 288.731C336.487 289.344 335.806 289.587 335.146 289.274C334.486 288.962 334.097 288.212 334.278 287.6C334.458 286.987 335.139 286.744 335.799 287.057C336.459 287.369 336.848 288.119 336.667 288.731Z" fill="#FAFAFA"/>
<path d="M1.85197 357.768C1.67151 358.381 0.990755 358.624 0.330562 358.311C-0.329631 357.999 -0.718125 357.249 -0.537671 356.637C-0.357216 356.024 0.323543 355.781 0.983736 356.094C1.64393 356.406 2.03242 357.155 1.85197 357.768Z" fill="#FAFAFA"/>
<path d="M48.652 246.929C48.4716 247.541 47.7908 247.784 47.1306 247.472C46.4704 247.159 46.0819 246.41 46.2624 245.797C46.4428 245.185 47.1236 244.941 47.7838 245.254C48.444 245.567 48.8325 246.316 48.652 246.929Z" fill="#FAFAFA"/>
<path d="M126.026 170.874C125.846 171.487 125.165 171.73 124.505 171.417C123.845 171.105 123.456 170.355 123.637 169.743C123.817 169.13 124.498 168.887 125.158 169.2C125.818 169.512 126.207 170.262 126.026 170.874Z" fill="#FAFAFA"/>
<path d="M243.317 75.8671C243.137 76.4798 242.456 76.7228 241.796 76.4102C241.135 76.0976 240.747 75.3483 240.927 74.7356C241.108 74.1229 241.789 73.8799 242.449 74.1925C243.109 74.5051 243.498 75.2544 243.317 75.8671Z" fill="#FAFAFA"/>
<path d="M319.949 406.07C320.309 404.845 321.671 404.358 322.992 404.983C324.312 405.609 325.089 407.107 324.728 408.333C324.367 409.558 323.006 410.044 321.685 409.419C320.365 408.794 319.588 407.295 319.949 406.07Z" fill="#FAFAFA"/>
<path d="M317.566 404.941C316.846 407.384 318.402 410.385 321.034 411.631C323.665 412.877 326.392 411.903 327.111 409.461C327.831 407.019 326.275 404.018 323.643 402.772C321.012 401.526 318.285 402.499 317.566 404.941ZM318.218 405.25C318.839 403.142 321.193 402.302 323.465 403.377C325.737 404.453 327.08 407.044 326.459 409.152C325.838 411.261 323.484 412.101 321.212 411.025C318.94 409.949 317.597 407.359 318.218 405.25Z" fill="#FAFAFA"/>
<path d="M205.938 359.092C206.298 357.868 207.66 357.38 208.98 358.006C210.301 358.631 211.078 360.129 210.717 361.355C210.356 362.58 208.994 363.066 207.674 362.441C206.354 361.816 205.577 360.317 205.938 359.092Z" fill="#FAFAFA"/>
<path d="M203.555 357.964C202.835 360.406 204.391 363.407 207.022 364.653C209.654 365.899 212.38 364.926 213.1 362.483C213.819 360.041 212.264 357.04 209.632 355.794C207 354.548 204.274 355.521 203.555 357.964ZM204.207 358.273C204.828 356.164 207.182 355.325 209.453 356.401C211.725 357.477 213.068 360.067 212.448 362.175C211.827 364.282 209.473 365.123 207.201 364.048C204.929 362.972 203.586 360.381 204.207 358.273Z" fill="#FAFAFA"/>
<path d="M275.834 257.754C276.194 256.53 277.556 256.042 278.876 256.668C280.197 257.293 280.974 258.791 280.613 260.017C280.252 261.242 278.89 261.728 277.57 261.103C276.25 260.478 275.473 258.979 275.834 257.754Z" fill="#FAFAFA"/>
<path d="M273.45 256.625C272.73 259.067 274.286 262.068 276.918 263.314C279.549 264.56 282.276 263.587 282.995 261.145C283.715 258.702 282.159 255.702 279.527 254.455C276.896 253.209 274.169 254.183 273.45 256.625ZM274.104 256.935C274.725 254.826 277.078 253.986 279.349 255.061C281.619 256.136 282.964 258.727 282.343 260.836C281.722 262.944 279.368 263.784 277.096 262.709C274.824 261.633 273.482 259.043 274.104 256.935Z" fill="#FAFAFA"/>
<path d="M67.3422 221.171C67.7028 219.946 69.0647 219.459 70.385 220.084C71.7054 220.71 72.4823 222.208 72.1213 223.434C71.7604 224.659 70.3989 225.145 69.0785 224.52C67.7582 223.895 66.9813 222.396 67.3422 221.171Z" fill="#FAFAFA"/>
<path d="M64.9579 220.042C64.2384 222.484 65.7941 225.485 68.4258 226.731C71.0574 227.977 73.7838 227.004 74.5032 224.562C75.2227 222.119 73.667 219.119 71.0354 217.873C68.4037 216.626 65.6773 217.6 64.9579 220.042ZM65.6116 220.352C66.2327 218.243 68.5865 217.403 70.857 218.478C73.1275 219.553 74.4719 222.144 73.8508 224.253C73.2298 226.361 70.8759 227.201 68.6041 226.126C66.3323 225.05 64.9905 222.46 65.6116 220.352Z" fill="#FAFAFA"/>
<path d="M96.5978 210.588C96.9584 209.364 98.3203 208.877 99.6406 209.502C100.961 210.127 101.738 211.626 101.377 212.851C101.016 214.076 99.6545 214.562 98.3341 213.937C97.0138 213.312 96.2369 211.813 96.5978 210.588Z" fill="#FAFAFA"/>
<path d="M94.2132 209.46C93.4938 211.902 95.0495 214.903 97.6811 216.149C100.313 217.395 103.039 216.422 103.759 213.979C104.478 211.537 102.922 208.536 100.291 207.29C97.6591 206.044 94.9327 207.017 94.2132 209.46ZM94.8669 209.769C95.488 207.661 97.8419 206.821 100.114 207.896C102.385 208.972 103.727 211.562 103.106 213.67C102.485 215.779 100.131 216.619 97.8608 215.544C95.5903 214.469 94.2459 211.878 94.8669 209.769Z" fill="#FAFAFA"/>
<path d="M181.711 144.606C182.072 143.381 183.434 142.894 184.754 143.519C186.075 144.145 186.851 145.643 186.49 146.868C186.13 148.094 184.768 148.58 183.448 147.955C182.127 147.33 181.35 145.831 181.711 144.606Z" fill="#FAFAFA"/>
<path d="M179.327 143.477C178.608 145.92 180.163 148.921 182.795 150.167C185.427 151.413 188.153 150.439 188.872 147.997C189.592 145.555 188.036 142.554 185.404 141.308C182.773 140.062 180.046 141.035 179.327 143.477ZM179.981 143.787C180.602 141.679 182.955 140.84 185.226 141.915C187.496 142.99 188.841 145.581 188.22 147.688C187.599 149.795 185.245 150.637 182.973 149.561C180.701 148.486 179.36 145.895 179.981 143.787Z" fill="#FAFAFA"/>
<path d="M275.704 110.513C276.064 109.289 277.426 108.801 278.746 109.427C280.067 110.052 280.844 111.55 280.483 112.776C280.122 114.001 278.76 114.487 277.44 113.862C276.12 113.237 275.343 111.738 275.704 110.513Z" fill="#FAFAFA"/>
<path d="M273.319 109.384C272.599 111.826 274.155 114.827 276.787 116.073C279.418 117.319 282.145 116.346 282.864 113.904C283.584 111.461 282.028 108.461 279.396 107.215C276.765 105.969 274.038 106.942 273.319 109.384ZM273.972 109.694C274.593 107.585 276.947 106.745 279.218 107.82C281.488 108.895 282.833 111.487 282.212 113.595C281.591 115.703 279.237 116.544 276.965 115.468C274.693 114.392 273.351 111.802 273.972 109.694Z" fill="#FAFAFA"/>
<path d="M303.106 225.371C303.467 224.147 304.829 223.66 306.149 224.285C307.469 224.91 308.246 226.409 307.885 227.634C307.524 228.86 306.163 229.346 304.842 228.72C303.522 228.095 302.745 226.597 303.106 225.371Z" fill="#FAFAFA"/>
<path d="M300.721 224.241C300.002 226.683 301.558 229.684 304.189 230.93C306.821 232.176 309.547 231.203 310.267 228.76C310.986 226.318 309.43 223.317 306.799 222.071C304.167 220.825 301.441 221.798 300.721 224.241ZM301.375 224.55C301.996 222.442 304.35 221.603 306.621 222.679C308.893 223.754 310.235 226.344 309.614 228.452C308.994 230.559 306.639 231.4 304.369 230.325C302.098 229.25 300.754 226.659 301.375 224.55Z" fill="#FAFAFA"/>
<path d="M95.2145 249.564C95.5751 248.34 96.937 247.853 98.2573 248.478C99.5777 249.103 100.355 250.602 99.9937 251.827C99.6327 253.053 98.2712 253.539 96.9508 252.913C95.6305 252.288 94.8536 250.79 95.2145 249.564Z" fill="#FAFAFA"/>
<path d="M92.8309 248.436C92.1115 250.878 93.6672 253.879 96.2988 255.125C98.9305 256.371 101.657 255.398 102.376 252.956C103.096 250.513 101.54 247.513 98.9084 246.267C96.2768 245.02 93.5504 245.994 92.8309 248.436ZM93.4833 248.745C94.1044 246.637 96.4583 245.796 98.73 246.872C101.002 247.948 102.344 250.538 101.723 252.646C101.102 254.755 98.748 255.594 96.4775 254.519C94.207 253.444 92.8626 250.852 93.4833 248.745Z" fill="#FAFAFA"/>
<path d="M178.768 247.775C179.129 246.549 180.491 246.06 181.811 246.684C183.13 247.307 183.906 248.806 183.544 250.033C183.182 251.259 181.82 251.748 180.501 251.124C179.182 250.5 178.406 249.001 178.768 247.775Z" fill="#FAFAFA"/>
<path d="M80.9267 219.351C81.9804 220.443 82.1582 222.069 81.3239 222.983C80.4895 223.897 78.959 223.752 77.9054 222.66C76.8517 221.568 76.6739 219.942 77.5082 219.028C78.3425 218.114 79.873 218.259 80.9267 219.351Z" fill="#FAFAFA"/>
<path d="M87.435 213.374C87.7965 212.149 89.1584 211.659 90.4778 212.283C91.7972 212.907 92.5726 214.406 92.2107 215.632C91.8488 216.859 90.4873 217.347 89.1679 216.724C87.8485 216.1 87.0731 214.601 87.435 213.374Z" fill="#FAFAFA"/>
<path d="M83.0807 236.126C83.4422 234.901 84.8041 234.411 86.1235 235.035C87.4429 235.659 88.2184 237.158 87.8565 238.384C87.4946 239.611 86.1331 240.099 84.8137 239.476C83.4942 238.852 82.7188 237.353 83.0807 236.126Z" fill="#FAFAFA"/>
<path d="M363.826 392.159C364.188 390.933 365.55 390.444 366.869 391.068C368.189 391.692 368.964 393.19 368.602 394.417C368.24 395.644 366.879 396.132 365.559 395.508C364.24 394.884 363.464 393.386 363.826 392.159Z" fill="#FAFAFA"/>
<path d="M322.034 426.91C322.396 425.684 323.758 425.195 325.077 425.819C326.397 426.442 327.172 427.941 326.81 429.168C326.448 430.394 325.087 430.883 323.767 430.259C322.448 429.635 321.672 428.136 322.034 426.91Z" fill="#FAFAFA"/>
<path d="M272.473 360.46C272.834 359.235 274.196 358.745 275.516 359.369C276.835 359.993 277.61 361.491 277.249 362.718C276.887 363.945 275.525 364.433 274.206 363.809C272.886 363.185 272.111 361.687 272.473 360.46Z" fill="#FAFAFA"/>
<path d="M108.603 261.444C108.965 260.219 110.327 259.73 111.646 260.353C112.965 260.977 113.741 262.476 113.379 263.703C113.017 264.929 111.656 265.418 110.336 264.794C109.017 264.17 108.241 262.671 108.603 261.444Z" fill="#FAFAFA"/>
<path d="M195.761 162.911C196.122 161.686 197.484 161.196 198.804 161.82C200.123 162.444 200.899 163.943 200.537 165.17C200.175 166.396 198.813 166.884 197.494 166.261C196.174 165.637 195.399 164.138 195.761 162.911Z" fill="#FAFAFA"/>
<path d="M204.044 232.853C204.405 231.627 205.767 231.138 207.086 231.762C208.406 232.386 209.181 233.884 208.819 235.111C208.457 236.338 207.096 236.826 205.777 236.202C204.457 235.578 203.682 234.08 204.044 232.853Z" fill="#FAFAFA"/>
<path d="M199.647 209.412C200.83 210.325 201.258 211.929 200.604 212.994C199.95 214.059 198.461 214.182 197.278 213.269C196.095 212.355 195.667 210.752 196.321 209.686C196.975 208.621 198.464 208.499 199.647 209.412Z" fill="#FAFAFA"/>
<path d="M288.766 89.7684C289.128 88.5429 290.49 88.0535 291.809 88.6773C293.128 89.3012 293.904 90.7998 293.542 92.0265C293.18 93.2533 291.819 93.7415 290.499 93.1176C289.18 92.4938 288.404 90.9952 288.766 89.7684Z" fill="#FAFAFA"/>
<path d="M219.913 181.03C220.275 179.805 221.636 179.315 222.956 179.939C224.275 180.563 225.051 182.061 224.689 183.288C224.327 184.515 222.965 185.003 221.646 184.379C220.327 183.755 219.551 182.257 219.913 181.03Z" fill="#FAFAFA"/>
<path d="M207.598 258.839C208.781 259.752 209.21 261.356 208.556 262.421C207.902 263.486 206.413 263.609 205.23 262.696C204.047 261.782 203.618 260.178 204.272 259.113C204.927 258.048 206.416 257.925 207.598 258.839Z" fill="#FAFAFA"/>
<path d="M259.256 258.719C259.618 257.494 260.98 257.004 262.299 257.628C263.619 258.252 264.394 259.751 264.032 260.977C263.67 262.204 262.309 262.692 260.989 262.068C259.67 261.445 258.895 259.946 259.256 258.719Z" fill="#FAFAFA"/>
<path d="M330.316 351.858C330.677 350.632 332.039 350.143 333.358 350.767C334.678 351.39 335.453 352.889 335.091 354.116C334.729 355.343 333.368 355.831 332.049 355.207C330.729 354.583 329.954 353.084 330.316 351.858Z" fill="#FAFAFA"/>
<path d="M300.688 317.814C301.049 316.588 302.411 316.099 303.73 316.723C305.05 317.347 305.825 318.845 305.463 320.072C305.102 321.299 303.74 321.787 302.421 321.163C301.101 320.539 300.326 319.041 300.688 317.814Z" fill="#FAFAFA"/>
<path d="M68.3677 221.977L222.597 288.869L247.487 334.262L312.379 362.406L333.29 354.793L333.618 355.392L312.47 363.09L247.052 334.717L222.161 289.324L68.1957 222.547L68.3677 221.977Z" fill="#FAFAFA"/>
<path d="M76.9883 220.031L212.472 280.399L237.147 326.501L297.156 353.24L325.896 406.939L324.168 407.568L295.836 354.63L235.826 327.891L211.151 281.787L76.4613 221.773L76.9883 220.031Z" fill="#FAFAFA"/>
<path d="M84.1247 236.93L238.796 303.814L262.938 347.73L367.726 393.043L367.555 393.612L262.503 348.184L238.36 304.27L83.9528 237.5L84.1247 236.93Z" fill="#FAFAFA"/>
<path d="M277.745 261.225L278.729 263.085L236.13 278.61L195.734 260.368L191.211 251.813L180.667 247.051L181.199 245.288L192.539 250.408L197.062 258.965L235.865 276.488L277.745 261.225Z" fill="#FAFAFA"/>
<path d="M280.203 310.89L303.174 320.743L303.004 321.31L280.294 311.569L260.488 318.804L97.5044 248.893L97.6747 248.327L260.395 318.125L280.203 310.89Z" fill="#FAFAFA"/>
<path d="M109.396 262.249L223.606 313.82L235.793 336.872L231.168 352.201L209.96 359.93L209.632 359.31L230.601 351.669L235.079 336.827L223.164 314.287L109.219 262.836L109.396 262.249Z" fill="#FAFAFA"/>
<path d="M273.75 361.264L296.888 371.932L325.912 427.938L325.329 428.151L296.441 372.41L273.57 361.864L273.75 361.264Z" fill="#FAFAFA"/>
<path d="M261.485 261.509L261.812 262.132L234.731 272.015L205.684 258.833L205.861 258.244L234.642 271.305L261.485 261.509Z" fill="#FAFAFA"/>
<path d="M305.336 233.954L305.667 234.569L238.392 258.218L182.623 232.926L162.452 240.017L89.7241 207.034L89.8973 206.457L162.361 239.32L182.53 232.229L238.301 257.522L305.336 233.954Z" fill="#FAFAFA"/>
<path d="M198.696 168.534L212.012 194.115L204.118 220.816L161.203 236.138L98.689 206.726L99.2225 204.921L160.929 233.954L202.388 219.152L209.84 193.945L196.939 169.161L198.696 168.534Z" fill="#FAFAFA"/>
<path d="M182.944 145.637L206.262 190.895L200.255 211.485L199.591 211.17L205.524 190.837L182.347 145.852L182.944 145.637Z" fill="#FAFAFA"/>
<path d="M277.718 114.087L278.408 114.406L260.181 177.025L218.245 192.236L206.805 231.538L206.114 231.218L217.63 191.654L259.569 176.442L277.718 114.087Z" fill="#FAFAFA"/>
<path d="M290.793 93.7791L291.469 94.0971L271.887 161.497L222.485 179.452L222.135 178.781L271.287 160.917L290.793 93.7791Z" fill="#FAFAFA"/>
</g>
<g opacity="0.23">
<path d="M164.121 104.017C165.44 104.642 166.219 106.141 165.858 107.366C165.497 108.591 164.136 109.077 162.815 108.451C161.495 107.826 160.717 106.327 161.078 105.102C161.439 103.877 162.8 103.392 164.121 104.017Z" fill="#FAFAFA"/>
<path d="M158.694 103.973C157.975 106.415 159.531 109.416 162.163 110.662C164.796 111.909 167.522 110.937 168.241 108.495C168.96 106.054 167.403 103.053 164.771 101.806C162.139 100.559 159.413 101.531 158.694 103.973ZM159.348 104.283C159.968 102.175 162.322 101.336 164.594 102.412C166.866 103.488 168.21 106.079 167.59 108.187C166.969 110.295 164.616 111.133 162.343 110.056C160.071 108.98 158.727 106.389 159.348 104.283Z" fill="#FAFAFA"/>
<path d="M323.984 438.035C325.303 438.66 326.082 440.16 325.721 441.385C325.36 442.61 323.999 443.095 322.678 442.47C321.358 441.844 320.58 440.345 320.941 439.12C321.302 437.895 322.663 437.41 323.984 438.035Z" fill="#FAFAFA"/>
<path d="M318.558 437.99C317.839 440.432 319.396 443.432 322.028 444.679C324.66 445.926 327.386 444.954 328.105 442.512C328.824 440.07 327.268 437.07 324.636 435.823C322.004 434.576 319.277 435.548 318.558 437.99ZM319.211 438.299C319.831 436.191 322.185 435.352 324.456 436.428C326.727 437.503 328.072 440.095 327.452 442.202C326.831 444.31 324.477 445.148 322.205 444.072C319.933 442.996 318.591 440.406 319.211 438.299Z" fill="#FAFAFA"/>
<path d="M48.4551 359.041C49.7744 359.666 50.5531 361.165 50.1924 362.39C49.8317 363.615 48.4701 364.101 47.1495 363.475C45.8289 362.85 45.0516 361.351 45.4123 360.126C45.773 358.901 47.1345 358.416 48.4551 359.041Z" fill="#FAFAFA"/>
<path d="M43.0297 358.996C42.3107 361.438 43.8673 364.439 46.4994 365.685C49.1316 366.932 51.8579 365.96 52.5769 363.518C53.2958 361.077 51.7393 358.076 49.1071 356.829C46.475 355.582 43.7486 356.554 43.0297 358.996ZM43.6835 359.306C44.3041 357.198 46.658 356.359 48.9289 357.434C51.1998 358.51 52.545 361.101 51.9243 363.209C51.3037 365.317 48.9499 366.156 46.6776 365.08C44.4054 364.004 43.0629 361.414 43.6835 359.306Z" fill="#FAFAFA"/>
<path d="M366.721 217.673C368.041 218.298 368.819 219.797 368.458 221.022C368.098 222.247 366.736 222.732 365.416 222.107C364.095 221.481 363.318 219.983 363.678 218.758C364.039 217.533 365.401 217.047 366.721 217.673Z" fill="#FAFAFA"/>
<path d="M361.296 217.627C360.577 220.069 362.133 223.07 364.765 224.317C367.397 225.563 370.124 224.591 370.843 222.149C371.562 219.708 370.005 216.707 367.373 215.46C364.741 214.213 362.015 215.186 361.296 217.627ZM361.948 217.936C362.569 215.829 364.922 214.99 367.194 216.067C369.467 217.143 370.81 219.734 370.19 221.84C369.57 223.947 367.216 224.787 364.944 223.711C362.671 222.635 361.327 220.044 361.948 217.936Z" fill="#FAFAFA"/>
<path d="M250.626 75.3415C251.945 75.9658 252.723 77.465 252.361 78.6907C252 79.9164 250.639 80.4031 249.319 79.7782C247.999 79.1534 247.222 77.6548 247.583 76.429C247.944 75.2033 249.306 74.7167 250.626 75.3415Z" fill="#FAFAFA"/>
<path d="M293.25 396.437C294.569 397.061 295.347 398.561 294.986 399.786C294.625 401.012 293.263 401.499 291.943 400.874C290.623 400.249 289.846 398.75 290.207 397.525C290.568 396.299 291.93 395.812 293.25 396.437Z" fill="#FAFAFA"/>
<path d="M88.2514 304.994C89.5702 305.618 90.3481 307.118 89.9869 308.343C89.6258 309.569 88.2643 310.056 86.9441 309.431C85.624 308.806 84.8474 307.307 85.2085 306.082C85.5697 304.856 86.9312 304.369 88.2514 304.994Z" fill="#FAFAFA"/>
<path d="M181.77 201.199C182.953 202.113 183.383 203.717 182.73 204.781C182.076 205.846 180.587 205.967 179.404 205.052C178.22 204.138 177.79 202.534 178.444 201.47C179.097 200.406 180.586 200.285 181.77 201.199Z" fill="#FAFAFA"/>
<path d="M394.073 279.378C394.712 280.804 394.281 282.309 393.111 282.739C391.942 283.17 390.476 282.362 389.838 280.936C389.199 279.509 389.63 278.004 390.799 277.574C391.969 277.144 393.435 277.951 394.073 279.378Z" fill="#FAFAFA"/>
<path d="M358.645 320.622C359.305 320.934 359.694 321.684 359.513 322.297C359.333 322.91 358.652 323.153 357.992 322.84C357.332 322.528 356.943 321.779 357.124 321.166C357.305 320.553 357.985 320.31 358.645 320.622Z" fill="#FAFAFA"/>
<path d="M254.371 148.148C255.031 148.461 255.42 149.21 255.239 149.823C255.059 150.436 254.378 150.679 253.718 150.367C253.058 150.054 252.669 149.305 252.85 148.692C253.031 148.079 253.711 147.836 254.371 148.148Z" fill="#FAFAFA"/>
<path d="M238.833 450.539C239.492 450.851 239.881 451.601 239.7 452.213C239.52 452.826 238.839 453.069 238.179 452.757C237.519 452.445 237.131 451.695 237.311 451.083C237.492 450.47 238.173 450.227 238.833 450.539Z" fill="#FAFAFA"/>
<path d="M160.247 362.001C160.907 362.313 161.295 363.062 161.115 363.675C160.934 364.288 160.253 364.531 159.593 364.219C158.933 363.907 158.545 363.157 158.725 362.544C158.906 361.932 159.587 361.688 160.247 362.001Z" fill="#FAFAFA"/>
<path d="M60.3502 229.483C61.0102 229.795 61.3985 230.545 61.218 231.158C61.0374 231.77 60.3566 232.014 59.6966 231.701C59.0365 231.389 58.6482 230.64 58.8288 230.027C59.0093 229.414 59.6901 229.171 60.3502 229.483Z" fill="#FAFAFA"/>
<path d="M367.356 175.383C366.036 174.757 365.256 173.258 365.616 172.034C365.977 170.809 367.338 170.325 368.659 170.951C369.98 171.578 370.759 173.076 370.398 174.3C370.038 175.525 368.677 176.009 367.356 175.383Z" fill="#FAFAFA"/>
<path d="M363.231 170.903C362.513 173.343 364.071 176.344 366.705 177.592C369.338 178.84 372.064 177.871 372.782 175.431C373.5 172.99 371.942 169.989 369.308 168.741C366.675 167.493 363.949 168.463 363.231 170.903ZM363.885 171.213C364.505 169.106 366.859 168.269 369.132 169.347C371.405 170.424 372.75 173.015 372.13 175.122C371.511 177.228 369.157 178.064 366.884 176.986C364.611 175.909 363.266 173.318 363.885 171.213Z" fill="#FAFAFA"/>
<path d="M332.352 292.538C331.032 291.913 330.253 290.413 330.613 289.189C330.973 287.965 332.335 287.481 333.656 288.107C334.977 288.733 335.755 290.232 335.395 291.456C335.035 292.68 333.673 293.165 332.352 292.538Z" fill="#FAFAFA"/>
<path d="M328.229 288.058C327.511 290.498 329.069 293.499 331.702 294.747C334.335 295.996 337.062 295.026 337.78 292.586C338.497 290.146 336.939 287.145 334.306 285.896C331.673 284.648 328.946 285.618 328.229 288.058ZM328.881 288.367C329.501 286.261 331.855 285.425 334.128 286.503C336.401 287.58 337.746 290.171 337.127 292.276C336.507 294.382 334.154 295.219 331.88 294.141C329.607 293.064 328.262 290.473 328.881 288.367Z" fill="#FAFAFA"/>
<path d="M230.418 209.825C229.098 209.2 228.319 207.7 228.679 206.476C229.039 205.252 230.4 204.768 231.722 205.394C233.043 206.02 233.821 207.519 233.461 208.743C233.1 209.967 231.739 210.452 230.418 209.825Z" fill="#FAFAFA"/>
<path d="M226.295 205.346C225.577 207.786 227.135 210.787 229.769 212.035C232.402 213.283 235.128 212.314 235.846 209.873C236.564 207.433 235.006 204.432 232.372 203.184C229.739 201.936 227.013 202.905 226.295 205.346ZM226.948 205.655C227.568 203.549 229.921 202.713 232.194 203.79C234.467 204.868 235.811 207.458 235.192 209.563C234.573 211.669 232.218 212.507 229.947 211.43C227.675 210.353 226.328 207.762 226.948 205.655Z" fill="#FAFAFA"/>
<path d="M213.176 428.194C211.856 427.568 211.077 426.069 211.437 424.845C211.797 423.62 213.159 423.136 214.48 423.762C215.801 424.389 216.579 425.887 216.219 427.112C215.859 428.336 214.497 428.82 213.176 428.194Z" fill="#FAFAFA"/>
<path d="M209.053 423.714C208.335 426.154 209.893 429.155 212.526 430.404C215.159 431.652 217.886 430.682 218.604 428.242C219.321 425.802 217.763 422.801 215.13 421.553C212.497 420.304 209.771 421.274 209.053 423.714ZM209.707 424.024C210.326 421.918 212.68 421.082 214.953 422.159C217.226 423.237 218.571 425.828 217.952 427.933C217.333 430.038 214.979 430.877 212.705 429.799C210.432 428.722 209.087 426.131 209.707 424.024Z" fill="#FAFAFA"/>
<path d="M203.463 393.247C204.102 394.676 203.673 396.181 202.504 396.609C201.335 397.038 199.869 396.227 199.23 394.799C198.591 393.371 199.02 391.866 200.189 391.437C201.358 391.009 202.824 391.819 203.463 393.247Z" fill="#FAFAFA"/>
<path d="M196.571 391.758C195.853 394.199 197.411 397.2 200.044 398.448C202.677 399.696 205.404 398.726 206.122 396.286C206.839 393.846 205.281 390.845 202.648 389.597C200.015 388.349 197.289 389.318 196.571 391.758ZM197.223 392.068C197.843 389.961 200.197 389.125 202.468 390.202C204.74 391.279 206.087 393.871 205.468 395.976C204.848 398.082 202.494 398.92 200.221 397.842C197.948 396.765 196.604 394.174 197.223 392.068Z" fill="#FAFAFA"/>
<path d="M131.011 300.323C129.691 299.697 128.912 298.198 129.272 296.974C129.632 295.749 130.994 295.265 132.315 295.891C133.636 296.518 134.414 298.016 134.054 299.241C133.694 300.465 132.332 300.949 131.011 300.323Z" fill="#FAFAFA"/>
<path d="M126.888 295.843C126.17 298.283 127.728 301.284 130.361 302.533C132.994 303.781 135.721 302.811 136.438 300.371C137.156 297.931 135.598 294.93 132.965 293.682C130.332 292.433 127.605 293.403 126.888 295.843ZM127.542 296.153C128.161 294.047 130.515 293.21 132.788 294.287C135.061 295.365 136.405 297.955 135.786 300.062C135.166 302.168 132.812 303.005 130.54 301.928C128.269 300.851 126.922 298.26 127.542 296.153Z" fill="#FAFAFA"/>
<path d="M90.8209 197.646C89.5011 197.02 88.7216 195.521 89.0818 194.296C89.442 193.072 90.8035 192.588 92.1246 193.214C93.4457 193.84 94.2239 195.339 93.8637 196.563C93.5035 197.788 92.142 198.272 90.8209 197.646Z" fill="#FAFAFA"/>
<path d="M86.6969 193.167C85.9791 195.607 87.5373 198.608 90.1705 199.856C92.8036 201.105 95.5299 200.135 96.2478 197.695C96.9656 195.255 95.4074 192.254 92.7742 191.005C90.1411 189.757 87.4148 190.727 86.6969 193.167ZM87.351 193.477C87.9707 191.37 90.3245 190.533 92.5963 191.61C94.8681 192.687 96.2134 195.278 95.5937 197.385C94.974 199.491 92.6202 200.328 90.3484 199.251C88.0766 198.174 86.7313 195.583 87.351 193.477Z" fill="#FAFAFA"/>
<path d="M197.432 178.153C196.112 177.527 195.333 176.028 195.693 174.804C196.053 173.579 197.415 173.095 198.736 173.721C200.057 174.348 200.835 175.846 200.475 177.071C200.115 178.295 198.753 178.779 197.432 178.153Z" fill="#FAFAFA"/>
<path d="M193.309 173.674C192.591 176.114 194.149 179.115 196.782 180.364C199.415 181.612 202.142 180.642 202.86 178.202C203.578 175.762 202.019 172.761 199.386 171.513C196.753 170.264 194.027 171.234 193.309 173.674ZM193.962 173.984C194.581 171.877 196.935 171.04 199.207 172.117C201.479 173.194 202.825 175.785 202.206 177.892C201.586 179.998 199.232 180.836 196.959 179.758C194.686 178.68 193.342 176.09 193.962 173.984Z" fill="#FAFAFA"/>
<path d="M237.766 400.968C236.446 400.342 235.666 398.843 236.027 397.619C236.387 396.394 237.748 395.91 239.069 396.536C240.391 397.163 241.169 398.661 240.809 399.886C240.448 401.11 239.087 401.594 237.766 400.968Z" fill="#FAFAFA"/>
<path d="M233.642 396.488C232.924 398.929 234.482 401.929 237.115 403.178C239.748 404.426 242.475 403.456 243.193 401.016C243.911 398.576 242.352 395.575 239.719 394.327C237.086 393.079 234.36 394.048 233.642 396.488ZM234.295 396.798C234.914 394.691 237.268 393.854 239.541 394.932C241.814 396.009 243.158 398.6 242.539 400.706C241.919 402.813 239.565 403.65 237.293 402.573C235.021 401.496 233.675 398.904 234.295 396.798Z" fill="#FAFAFA"/>
<path d="M230.378 307.653C231.699 308.28 232.479 309.779 232.119 311.002C231.76 312.225 230.398 312.709 229.077 312.082C227.755 311.455 226.976 309.956 227.335 308.733C227.695 307.51 229.057 307.026 230.378 307.653Z" fill="#FAFAFA"/>
<path d="M211.136 417.799C209.816 417.173 209.035 415.673 209.395 414.45C209.755 413.226 211.116 412.743 212.438 413.37C213.759 413.997 214.539 415.496 214.179 416.719C213.819 417.943 212.458 418.426 211.136 417.799Z" fill="#FAFAFA"/>
<path d="M204.102 406.203C202.782 405.576 202.001 404.077 202.361 402.854C202.72 401.63 204.082 401.147 205.404 401.774C206.725 402.401 207.504 403.899 207.145 405.123C206.785 406.347 205.424 406.83 204.102 406.203Z" fill="#FAFAFA"/>
<path d="M226.038 412.731C224.718 412.104 223.938 410.605 224.297 409.381C224.657 408.158 226.018 407.675 227.34 408.302C228.662 408.929 229.441 410.427 229.081 411.651C228.722 412.875 227.36 413.358 226.038 412.731Z" fill="#FAFAFA"/>
<path d="M350.494 127.619C349.173 126.993 348.393 125.494 348.752 124.27C349.112 123.046 350.474 122.563 351.795 123.19C353.117 123.817 353.896 125.316 353.536 126.54C353.177 127.763 351.815 128.246 350.494 127.619Z" fill="#FAFAFA"/>
<path d="M386.94 174.912C385.62 174.286 384.84 172.787 385.199 171.563C385.559 170.34 386.92 169.857 388.242 170.484C389.564 171.111 390.343 172.609 389.983 173.833C389.623 175.056 388.262 175.539 386.94 174.912Z" fill="#FAFAFA"/>
<path d="M328.081 221.989C326.761 221.363 325.981 219.864 326.34 218.64C326.7 217.417 328.061 216.934 329.383 217.561C330.705 218.188 331.484 219.686 331.124 220.91C330.765 222.133 329.403 222.616 328.081 221.989Z" fill="#FAFAFA"/>
<path d="M247.909 387.742C246.588 387.116 245.808 385.617 246.168 384.393C246.527 383.169 247.889 382.686 249.211 383.313C250.532 383.94 251.311 385.439 250.952 386.662C250.592 387.886 249.23 388.369 247.909 387.742Z" fill="#FAFAFA"/>
<path d="M147.191 286.932C145.87 286.306 145.09 284.807 145.45 283.583C145.809 282.36 147.171 281.877 148.492 282.504C149.814 283.131 150.593 284.629 150.234 285.853C149.874 287.076 148.512 287.559 147.191 286.932Z" fill="#FAFAFA"/>
<path d="M212.814 283.988C211.493 283.362 210.713 281.862 211.072 280.639C211.432 279.415 212.794 278.932 214.115 279.559C215.437 280.186 216.216 281.685 215.856 282.908C215.497 284.132 214.135 284.615 212.814 283.988Z" fill="#FAFAFA"/>
<path d="M193.853 286.406C195.038 287.322 195.47 288.926 194.818 289.988C194.166 291.05 192.677 291.168 191.492 290.251C190.307 289.335 189.875 287.731 190.527 286.669C191.179 285.607 192.668 285.489 193.853 286.406Z" fill="#FAFAFA"/>
<path d="M70.0575 182.037C68.7371 181.41 67.9568 179.911 68.3164 178.687C68.676 177.464 70.0375 176.981 71.3592 177.608C72.6809 178.235 73.4599 179.733 73.1003 180.957C72.7407 182.181 71.3792 182.664 70.0575 182.037Z" fill="#FAFAFA"/>
<path d="M162.349 262.798C161.029 262.172 160.249 260.672 160.608 259.449C160.968 258.225 162.33 257.742 163.651 258.369C164.973 258.996 165.752 260.495 165.392 261.718C165.033 262.942 163.671 263.425 162.349 262.798Z" fill="#FAFAFA"/>
<path d="M238.223 286.245C236.902 285.619 236.122 284.12 236.482 282.896C236.841 281.673 238.203 281.189 239.524 281.816C240.846 282.443 241.625 283.942 241.266 285.166C240.906 286.389 239.544 286.872 238.223 286.245Z" fill="#FAFAFA"/>
<path d="M232.72 227.513C231.4 226.887 230.619 225.388 230.979 224.164C231.339 222.941 232.7 222.457 234.022 223.084C235.343 223.711 236.123 225.21 235.763 226.434C235.403 227.657 234.042 228.14 232.72 227.513Z" fill="#FAFAFA"/>
<path d="M315.086 159.838C313.765 159.211 312.985 157.712 313.345 156.489C313.704 155.265 315.066 154.782 316.388 155.409C317.709 156.036 318.488 157.535 318.129 158.758C317.769 159.982 316.407 160.465 315.086 159.838Z" fill="#FAFAFA"/>
<path d="M285.286 188.455C283.965 187.829 283.185 186.33 283.544 185.106C283.904 183.882 285.266 183.399 286.587 184.026C287.909 184.653 288.688 186.152 288.328 187.376C287.969 188.599 286.607 189.082 285.286 188.455Z" fill="#FAFAFA"/>
<path d="M313.795 159.127L327.664 184.385L308.334 250.44L259.723 267.565L214.23 423.027L213.511 422.704L259.082 266.975L307.695 249.851L326.869 184.328L313.154 159.352L313.795 159.127Z" fill="#FAFAFA"/>
<path d="M367.428 178.749L368.502 180.777L315.158 199.813L297.961 259.327L251.504 275.905L212.907 409.48L210.838 408.512L249.663 274.149L296.12 257.571L313.317 198.057L367.428 178.749Z" fill="#FAFAFA"/>
<path d="M350.739 128.258L351.461 128.581L320.291 234.837L272.907 251.488L227.094 407.664L226.373 407.341L272.264 250.898L319.648 234.248L350.739 128.258Z" fill="#FAFAFA"/>
<path d="M229.562 207.32L255.447 256.754L244.018 296.36L235.63 299.357L232.646 309.695L230.611 308.732L233.82 297.614L242.209 294.616L253.187 256.571L227.738 207.972L229.562 207.32Z" fill="#FAFAFA"/>
<path d="M283.018 186.108L283.753 186.431L276.931 209.503L290.296 233.3L241.334 398.885L240.601 398.563L289.484 233.245L276.117 209.448L283.018 186.108Z" fill="#FAFAFA"/>
<path d="M303.163 260.992L320.866 269.369L333.754 293.981L333.145 294.198L320.403 269.864L303.263 261.753L281.161 269.651L248.922 381.372L248.244 381.052L280.558 269.07L303.163 260.992Z" fill="#FAFAFA"/>
<path d="M387.416 175.568L387.758 176.227L335.416 194.857L329.08 216.729L328.415 216.412L334.826 194.284L387.416 175.568Z" fill="#FAFAFA"/>
<path d="M232.267 225.202L248.597 256.476L240.418 284.815L239.743 284.495L247.848 256.415L231.662 225.417L232.267 225.202Z" fill="#FAFAFA"/>
<path d="M193.655 175.839L234.365 254.204L218.416 309.072L230.622 332.569L209.824 404.121L209.148 403.803L229.87 332.512L217.664 309.016L233.613 254.148L193.046 176.06L193.655 175.839Z" fill="#FAFAFA"/>
<path d="M168.66 274.028L197.754 287.819L222.419 335.619L205.153 394.42L203.187 393.488L220.23 335.446L196.402 289.268L168.936 276.248L146.129 284.466L145.119 282.509L168.66 274.028Z" fill="#FAFAFA"/>
<path d="M171.317 280.866L192.774 290.834L192.598 291.426L171.409 281.582L131.827 295.637L131.494 295.005L171.317 280.866Z" fill="#FAFAFA"/>
<path d="M90.2258 195.105L153.051 223.076L175.454 263.974L214.884 281.529L214.713 282.098L175.018 264.425L152.614 223.528L90.0542 195.675L90.2258 195.105Z" fill="#FAFAFA"/>
<path d="M69.3349 179.499L137.868 210.58L164.751 260.499L164.174 260.702L137.429 211.037L69.1615 180.076L69.3349 179.499Z" fill="#FAFAFA"/>
</g>
</g>
</svg>
