<svg xmlns="http://www.w3.org/2000/svg" width="106" height="145" viewBox="0 0 106 145" fill="none">
    <g clip-path="url(#clip0_5_1924)">
        <path d="M21.1069 79.6926C16.285 75.151 8.44276 75.151 3.62094 79.6926C-1.20088 84.2342 -1.20088 91.6208 3.62094 96.1624C8.44276 100.704 16.285 100.704 21.1069 96.1624C25.9287 91.6208 25.9287 84.2342 21.1069 79.6926Z"
              fill="white"/>
        <path d="M7.04168 36.333C3.36617 36.333 0.400299 39.1265 0.400299 42.5885C0.400299 46.0504 3.38437 48.8439 7.04168 48.8439C19.542 48.8439 31.2964 53.4369 40.1394 61.7661C48.9824 70.0953 53.8588 81.1665 53.8588 92.9405C53.8588 94.6715 54.6049 96.231 55.8058 97.3622C57.0067 98.4933 58.6625 99.1959 60.5002 99.1959C64.1757 99.1959 67.1416 96.4024 67.1416 92.9405C67.1416 61.7318 40.1758 36.333 7.04168 36.333Z"
              fill="white"/>
        <path d="M48.7095 8.65479C47.8907 10.8485 47.4358 13.2136 47.4358 15.6643V22.0397C35.172 15.8357 21.3616 12.528 7.04168 12.528C5.22212 12.528 3.54813 11.8254 2.36542 10.6942C1.18271 9.56312 0.400299 8.00354 0.400299 6.25545C0.400299 2.8278 3.36617 0 7.02348 0C21.6709 0 35.8452 2.99919 48.7095 8.65479Z"
              fill="white"/>
        <path d="M105.716 92.9577C105.716 96.4025 102.75 99.196 99.0748 99.196C95.3993 99.196 92.4334 96.4025 92.4334 92.9577C92.4334 79.4699 88.9217 66.462 82.2803 54.9109H89.0854C91.6874 54.9109 94.1984 54.4824 96.5274 53.7112C102.532 65.8279 105.716 79.1786 105.716 92.9748V92.9577Z"
              fill="white"/>
        <path d="M71.4539 49.5466L87.3751 49.5466C97.5046 49.5466 105.716 41.8122 105.716 32.2713V17.2754C105.716 7.7345 97.5046 8.01086e-05 87.3751 8.01086e-05L71.4539 8.01086e-05C61.3244 8.01086e-05 53.1128 7.7345 53.1128 17.2754L53.1128 32.2713C53.1128 41.8122 61.3244 49.5466 71.4539 49.5466Z"
              fill="white"/>
        <path d="M66.7049 27.5067V24.9703C66.7049 12.3908 72.2182 7.21509 80.206 7.21509C86.4835 7.21509 90.3227 10.8312 91.3599 15.7328H84.9732C84.1908 14.1218 82.6988 12.6993 79.9331 12.6993C75.8391 12.6993 72.9824 15.2358 72.7094 21.9025C74.62 20.0345 77.2219 18.9719 80.1878 18.9719C87.6116 18.9719 92.1241 23.2222 92.1241 30.3688V30.9515C92.1241 37.5497 87.0293 42.3484 79.6601 42.3484C71.7633 42.3484 66.6685 37.5497 66.6685 27.5239L66.7049 27.5067ZM73.2371 30.3517V30.9344C73.2371 34.6019 75.6207 36.847 79.6783 36.847C83.2083 36.847 85.5919 34.6019 85.5919 30.9344V30.3517C85.5919 26.6841 83.2083 24.439 79.6783 24.439C75.6207 24.439 73.2371 26.6841 73.2371 30.3517Z"
              fill="#1D1D1B"/>
        <path d="M20.3062 121.116L14.6656 144.03H8.09702L0 115.186H5.51325L11.4632 138.014L17.0674 115.186H23.636L29.7315 138.048L35.3722 115.186H40.7035L33.0431 144.03H26.4745L20.3062 121.116Z"
              fill="white"/>
        <path d="M44.6155 117.86C44.6155 116.129 46.0529 114.775 47.8907 114.775C49.7285 114.775 51.1659 116.146 51.1659 117.86C51.1659 119.573 49.6921 120.962 47.8907 120.962C46.0893 120.962 44.6155 119.59 44.6155 117.86ZM45.3615 123.429H50.4381V144.03H45.3615V123.429Z"
              fill="white"/>
        <path d="M55.9877 131.142H69.9801V135.512H55.9877V131.142Z" fill="white"/>
        <path d="M75.5479 115.186H95.2355V119.556H80.7883V127.423H92.5972V131.793H80.7883V144.03H75.5479V115.186Z"
              fill="white"/>
        <path d="M99.1658 117.86C99.1658 116.129 100.603 114.775 102.441 114.775C104.279 114.775 105.716 116.146 105.716 117.86C105.716 119.573 104.242 120.962 102.441 120.962C100.64 120.962 99.1658 119.59 99.1658 117.86ZM99.9118 123.429H104.988V144.03H99.9118V123.429Z"
              fill="white"/>
    </g>
    <defs>
        <clipPath id="clip0_5_1924">
            <rect width="105.716" height="144.029" fill="white"/>
        </clipPath>
    </defs>
</svg>