<svg xmlns="http://www.w3.org/2000/svg" width="51" height="69" viewBox="0 0 51 69" fill="none">
    <g clip-path="url(#clip0_7_24)">
        <path d="M10.1824 38.1782C7.85629 36.0024 4.07298 36.0024 1.74682 38.1782C-0.579343 40.3539 -0.579343 43.8926 1.74682 46.0684C4.07298 48.2441 7.85629 48.2441 10.1824 46.0684C12.5086 43.8926 12.5086 40.3539 10.1824 38.1782Z"
              fill="black"/>
        <path d="M3.39707 17.406C1.62392 17.406 0.193115 18.7443 0.193115 20.4028C0.193115 22.0613 1.6327 23.3996 3.39707 23.3996C9.42754 23.3996 15.0981 25.6 19.3642 29.5902C23.6303 33.5804 25.9828 38.8843 25.9828 44.5249C25.9828 45.3541 26.3427 46.1013 26.922 46.6432C27.5014 47.185 28.3002 47.5217 29.1867 47.5217C30.9599 47.5217 32.3907 46.1834 32.3907 44.5249C32.3907 29.5738 19.3818 17.406 3.39707 17.406Z"
              fill="black"/>
        <path d="M23.4986 4.14624C23.1036 5.19717 22.8842 6.3302 22.8842 7.50428V10.5585C16.9678 7.58639 10.3053 6.00178 3.39707 6.00178C2.51928 6.00178 1.7117 5.66516 1.14114 5.12327C0.570568 4.58139 0.193115 3.83425 0.193115 2.99679C0.193115 1.35471 1.62392 0 3.3883 0C10.4546 0 17.2926 1.43682 23.4986 4.14624Z"
              fill="black"/>
        <path d="M51 44.533C51 46.1833 49.5692 47.5215 47.796 47.5215C46.0229 47.5215 44.5921 46.1833 44.5921 44.533C44.5921 38.0714 42.8979 31.8397 39.694 26.3059H42.9769C44.2322 26.3059 45.4435 26.1007 46.5671 25.7312C49.4638 31.5359 51 37.9318 51 44.5412V44.533Z"
              fill="black"/>
        <path d="M34.4711 23.7361L42.1518 23.7361C47.0385 23.7361 51 20.0308 51 15.46V8.27595C51 3.70521 47.0385 -0.000112534 42.1518 -0.000112534L34.4711 -0.000112534C29.5844 -0.000112534 25.6229 3.70521 25.6229 8.27595L25.6229 15.46C25.6229 20.0308 29.5844 23.7361 34.4711 23.7361Z"
              fill="#FAFAFA"/>
        <path d="M32.18 13.1776V11.9625C32.18 5.93608 34.8398 3.45654 38.6933 3.45654C41.7217 3.45654 43.5738 5.18893 44.0742 7.5371H40.9931C40.6157 6.76532 39.8959 6.08386 38.5616 6.08386C36.5866 6.08386 35.2084 7.299 35.0768 10.4928C35.9984 9.5979 37.2537 9.08886 38.6845 9.08886C42.2659 9.08886 44.4429 11.125 44.4429 14.5488V14.8279C44.4429 17.9889 41.985 20.2878 38.4299 20.2878C34.6203 20.2878 32.1625 17.9889 32.1625 13.1858L32.18 13.1776ZM35.3313 14.5405V14.8197C35.3313 16.5767 36.4812 17.6523 38.4387 17.6523C40.1417 17.6523 41.2916 16.5767 41.2916 14.8197V14.5405C41.2916 12.7835 40.1417 11.708 38.4387 11.708C36.4812 11.708 35.3313 12.7835 35.3313 14.5405Z"
              fill="#FE5000"/>
        <path d="M9.79621 58.0227L7.07504 68.9999H3.9062L0 55.1819H2.65972L5.53012 66.1181L8.23374 55.1819H11.4026L14.3432 66.1345L17.0644 55.1819H19.6363L15.9408 68.9999H12.7719L9.79621 58.0227Z"
              fill="black"/>
        <path d="M21.5236 56.4627C21.5236 55.6335 22.217 54.9849 23.1036 54.9849C23.9902 54.9849 24.6836 55.6417 24.6836 56.4627C24.6836 57.2838 23.9726 57.9488 23.1036 57.9488C22.2346 57.9488 21.5236 57.292 21.5236 56.4627ZM21.8835 59.1311H24.3325V69H21.8835V59.1311Z"
              fill="black"/>
        <path d="M27.0098 62.8257H33.7601V64.9193H27.0098V62.8257Z" fill="black"/>
        <path d="M36.4461 55.1819H45.9439V57.2755H38.9742V61.0441H44.6711V63.1377H38.9742V68.9999H36.4461V55.1819Z"
              fill="black"/>
        <path d="M47.8399 56.4627C47.8399 55.6335 48.5334 54.9849 49.4199 54.9849C50.3065 54.9849 51 55.6417 51 56.4627C51 57.2838 50.289 57.9488 49.4199 57.9488C48.5509 57.9488 47.8399 57.292 47.8399 56.4627ZM48.1998 59.1311H50.6489V69H48.1998V59.1311Z"
              fill="black"/>
    </g>
    <defs>
        <clipPath id="clip0_7_24">
            <rect width="51" height="69" fill="white"/>
        </clipPath>
    </defs>
</svg>