<svg xmlns="http://www.w3.org/2000/svg" width="1120" height="538" viewBox="0 0 1120 538" fill="none"
     preserveAspectRatio="none">
    <path d="M1015.61 529.475C1026.35 534.83 1039.44 538 1053.59 538C1090 538 1119.56 517.196 1119.56 491.5C1119.56 476.328 1109.22 462.91 1093.28 454.416C1109.22 445.923 1119.56 432.505 1119.56 417.333C1119.56 402.161 1109.22 388.744 1093.28 380.25C1109.22 371.756 1119.56 358.338 1119.56 343.167C1119.56 327.995 1109.22 314.577 1093.28 306.083C1109.22 297.589 1119.56 284.172 1119.56 269C1119.56 253.828 1109.22 240.41 1093.28 231.917C1109.22 223.423 1119.56 210.005 1119.56 194.833C1119.56 179.662 1109.22 166.244 1093.28 157.75C1109.22 149.256 1119.56 135.839 1119.56 120.667C1119.56 105.495 1109.22 92.0773 1093.28 83.5836C1109.22 75.0898 1119.56 61.6721 1119.56 46.5003C1119.56 20.8036 1090.05 -1.29014e-06 1053.59 -2.88374e-06C1039.44 -3.50209e-06 1026.35 3.16977 1015.61 8.52453C1004.87 3.16977 991.767 -5.58617e-06 977.621 -6.20452e-06C963.474 -6.82288e-06 950.376 3.16977 939.635 8.52453C928.895 3.16977 915.796 -8.90695e-06 901.65 -9.52531e-06C887.504 -1.01437e-05 874.405 3.16976 863.665 8.52453C852.924 3.16976 839.825 -1.22277e-05 825.679 -1.28461e-05C811.533 -1.34644e-05 798.434 3.16976 787.694 8.52452C776.953 3.16976 763.855 -1.55485e-05 749.708 -1.61669e-05C735.562 -1.67852e-05 722.464 3.16976 711.723 8.52452C700.982 3.16976 687.884 -1.88693e-05 673.738 -1.94877e-05C659.592 -2.0106e-05 646.493 3.16975 635.752 8.52452C625.012 3.16975 611.913 -2.21901e-05 597.767 -2.28084e-05C583.621 -2.34268e-05 570.522 3.16975 559.782 8.52451C549.041 3.16975 535.943 -2.55109e-05 521.796 -2.61292e-05C507.65 -2.67476e-05 494.552 3.16975 483.811 8.52451C473.07 3.16975 459.972 -2.88317e-05 445.826 -2.945e-05C431.679 -3.00684e-05 418.581 3.16974 407.84 8.52451C397.1 3.16974 384.001 -3.21524e-05 369.855 -3.27708e-05C355.709 -3.33891e-05 342.61 3.16974 331.87 8.5245C321.129 3.16974 308.031 -3.54732e-05 293.884 -3.60916e-05C279.738 -3.67099e-05 266.64 3.16974 255.899 8.5245C245.158 3.16974 232.06 -3.8794e-05 217.914 -3.94124e-05C203.767 -4.00307e-05 190.669 3.16973 179.928 8.5245C169.188 3.16973 156.089 -4.21148e-05 141.943 -4.27331e-05C127.797 -4.33515e-05 114.698 3.16973 103.958 8.52449C93.217 3.16973 80.1186 -4.54356e-05 65.9723 -4.60539e-05C29.5588 -4.76456e-05 -9.09353e-07 20.8035 -2.03259e-06 46.5002C-2.69577e-06 61.6721 10.3478 75.0898 26.2842 83.5835C10.3478 92.0773 -4.61133e-06 105.495 -5.27452e-06 120.667C-5.9377e-06 135.839 10.3478 149.256 26.2842 157.75C10.3478 166.244 -7.85326e-06 179.662 -8.51644e-06 194.833C-9.17962e-06 210.005 10.3478 223.423 26.2842 231.917C10.3478 240.41 -1.10952e-05 253.828 -1.17584e-05 269C-1.24215e-05 284.172 10.3478 297.589 26.2842 306.083C10.3478 314.577 -1.43371e-05 327.995 -1.50003e-05 343.167C-1.56635e-05 358.338 10.3478 371.756 26.2842 380.25C10.3478 388.744 -1.7579e-05 402.161 -1.82422e-05 417.333C-1.89054e-05 432.505 10.3478 445.923 26.2842 454.416C10.3478 462.91 -2.0821e-05 476.328 -2.14841e-05 491.5C-2.2606e-05 517.166 29.5151 538 65.9723 538C80.1185 538 93.2169 534.83 103.958 529.475C114.698 534.83 127.797 538 141.943 538C156.089 538 169.188 534.83 179.928 529.475C190.669 534.83 203.767 538 217.914 538C232.06 538 245.158 534.83 255.899 529.475C266.64 534.83 279.738 538 293.884 538C308.031 538 321.129 534.83 331.87 529.475C342.61 534.83 355.709 538 369.855 538C384.001 538 397.1 534.83 407.84 529.475C418.581 534.83 431.679 538 445.826 538C459.972 538 473.07 534.83 483.811 529.475C494.552 534.83 507.65 538 521.796 538C535.943 538 549.041 534.83 559.782 529.475C570.522 534.83 583.621 538 597.767 538C611.913 538 625.012 534.83 635.752 529.475C646.493 534.83 659.592 538 673.738 538C687.884 538 700.982 534.83 711.723 529.475C722.464 534.83 735.562 538 749.708 538C763.855 538 776.953 534.83 787.694 529.475C798.434 534.83 811.533 538 825.679 538C839.825 538 852.924 534.83 863.664 529.475C874.405 534.83 887.504 538 901.65 538C915.796 538 928.894 534.83 939.635 529.475C950.376 534.83 963.474 538 977.621 538C991.767 538 1004.87 534.83 1015.61 529.475Z"
          fill="white"/>
</svg>