<svg xmlns="http://www.w3.org/2000/svg" width="891" height="717" viewBox="0 0 891 717" fill="none"
     preserveAspectRatio="none">
    <path d="M807.87 705.639C816.413 712.776 826.833 717 838.085 717C867.051 717 890.563 689.275 890.563 655.028C890.563 634.809 882.332 616.927 869.656 605.607C882.332 594.287 890.563 576.405 890.563 556.186C890.563 535.966 882.332 518.084 869.656 506.764C882.332 495.444 890.563 477.562 890.563 457.343C890.563 437.123 882.332 419.241 869.656 407.921C882.332 396.602 890.563 378.72 890.563 358.5C890.563 338.28 882.332 320.398 869.656 309.079C882.332 297.759 890.563 279.877 890.563 259.657C890.563 239.437 882.332 221.556 869.656 210.236C882.332 198.916 890.563 181.034 890.563 160.814C890.563 140.595 882.332 122.713 869.656 111.393C882.332 100.073 890.563 82.1913 890.563 61.9716C890.563 27.7252 867.086 -1.02625e-06 838.085 -2.29389e-06C826.833 -2.78576e-06 816.414 4.2244 807.87 11.3608C799.326 4.2244 788.907 -4.44355e-06 777.654 -4.93542e-06C766.401 -5.4273e-06 755.982 4.2244 747.438 11.3608C738.895 4.22439 728.475 -7.08509e-06 717.223 -7.57696e-06C705.97 -8.06884e-06 695.551 4.22439 687.007 11.3608C678.463 4.22439 668.044 -9.72663e-06 656.791 -1.02185e-05C645.539 -1.07104e-05 635.119 4.22439 626.576 11.3608C618.032 4.22439 607.613 -1.23682e-05 596.36 -1.286e-05C585.107 -1.33519e-05 574.688 4.22439 566.144 11.3608C557.601 4.22439 547.181 -1.50097e-05 535.929 -1.55016e-05C524.676 -1.59934e-05 514.257 4.22438 505.713 11.3608C497.169 4.22438 486.75 -1.76512e-05 475.497 -1.81431e-05C464.245 -1.8635e-05 453.825 4.22438 445.282 11.3608C436.738 4.22438 426.319 -2.02928e-05 415.066 -2.07847e-05C403.813 -2.12765e-05 393.394 4.22438 384.85 11.3607C376.307 4.22438 365.887 -2.29343e-05 354.635 -2.34262e-05C343.382 -2.39181e-05 332.963 4.22438 324.419 11.3607C315.875 4.22438 305.456 -2.55759e-05 294.203 -2.60677e-05C282.951 -2.65596e-05 272.531 4.22437 263.988 11.3607C255.444 4.22437 245.025 -2.82174e-05 233.772 -2.87093e-05C222.519 -2.92011e-05 212.1 4.22437 203.556 11.3607C195.013 4.22437 184.593 -3.08589e-05 173.341 -3.13508e-05C162.088 -3.18427e-05 151.669 4.22437 143.125 11.3607C134.581 4.22437 124.162 -3.35005e-05 112.909 -3.39923e-05C101.657 -3.44842e-05 91.2374 4.22437 82.6937 11.3607C74.1499 4.22437 63.7307 -3.6142e-05 52.478 -3.66339e-05C23.5126 -3.79e-05 -3.72763e-05 27.7252 -3.87732e-05 61.9715C-3.96571e-05 82.1912 8.23118 100.073 20.9079 111.393C8.23118 122.713 -4.22099e-05 140.595 -4.30938e-05 160.814C-4.39776e-05 181.034 8.23117 198.916 20.9079 210.236C8.23117 221.555 -4.65305e-05 239.437 -4.74143e-05 259.657C-4.82982e-05 279.877 8.23117 297.759 20.9079 309.079C8.23117 320.398 -5.08511e-05 338.28 -5.17349e-05 358.5C-5.26187e-05 378.72 8.23117 396.602 20.9079 407.921C8.23116 419.241 -5.51716e-05 437.123 -5.60554e-05 457.343C-5.69393e-05 477.562 8.23116 495.444 20.9079 506.764C8.23116 518.084 -5.94922e-05 535.966 -6.0376e-05 556.186C-6.12598e-05 576.405 8.23116 594.287 20.9078 605.607C8.23116 616.927 -6.38127e-05 634.809 -6.46966e-05 655.028C-6.61917e-05 689.234 23.4779 717 52.478 717C63.7307 717 74.1499 712.776 82.6937 705.639C91.2374 712.776 101.657 717 112.909 717C124.162 717 134.581 712.776 143.125 705.639C151.669 712.776 162.088 717 173.341 717C184.593 717 195.013 712.776 203.556 705.639C212.1 712.776 222.519 717 233.772 717C245.025 717 255.444 712.776 263.988 705.639C272.531 712.776 282.951 717 294.203 717C305.456 717 315.875 712.776 324.419 705.639C332.963 712.776 343.382 717 354.635 717C365.887 717 376.307 712.776 384.85 705.639C393.394 712.776 403.813 717 415.066 717C426.319 717 436.738 712.776 445.282 705.639C453.825 712.776 464.245 717 475.497 717C486.75 717 497.169 712.776 505.713 705.639C514.257 712.776 524.676 717 535.929 717C547.181 717 557.601 712.776 566.144 705.639C574.688 712.776 585.107 717 596.36 717C607.613 717 618.032 712.776 626.576 705.639C635.119 712.776 645.539 717 656.791 717C668.044 717 678.463 712.776 687.007 705.639C695.551 712.776 705.97 717 717.223 717C728.475 717 738.895 712.776 747.438 705.639C755.982 712.776 766.401 717 777.654 717C788.907 717 799.326 712.776 807.87 705.639Z"
          fill="white"/>
</svg>