<svg width="301" height="116" viewBox="0 0 301 116" fill="none" xmlns="http://www.w3.org/2000/svg">
    <g clip-path="url(#clip0_316_785)">
        <path
            d="M56.9531 79.0402L82.8236 44.5235H76.9287L52.8865 77.0916H39.636V44.5235H34.96V116H39.636V81.389H52.7814L78.7571 116H84.8622L56.9636 79.0402H56.9531Z"
            fill="#1D1D1B" />
        <path
            d="M142.204 44.534L122.039 90.1841L99.0267 44.534H93.5205L119.496 95.4822L110.323 116H115.619L147.51 44.5235H142.204V44.534Z"
            fill="#1D1D1B" />
        <path
            d="M184.172 74.7532H166.456V48.9263H202.519V44.534H161.77V116.011H184.183C199.556 116.011 207.605 108.048 207.605 95.3874C207.605 82.7267 199.356 74.7532 184.183 74.7532H184.172ZM184.172 111.724H166.456V79.0402H184.172C196.288 79.0402 202.708 85.4758 202.708 95.3769C202.708 105.278 196.498 111.714 184.172 111.714V111.724Z"
            fill="#1D1D1B" />
        <path
            d="M265.147 48.821V44.534H223.893V116.011H265.147V111.735H228.569V81.3995H259.042V77.1126H228.569V48.8315H265.147V48.821Z"
            fill="#1D1D1B" />
        <path
            d="M299.55 24.6372C298.583 22.8466 297.322 21.5194 295.777 20.603C294.233 19.6972 292.709 19.0442 291.196 18.6544C289.683 18.2647 288.201 18.0751 286.719 18.0751L300.695 1.88589V0.0110168H275.886V2.49681H293.644C295.084 2.49681 296.208 2.45467 296.986 2.37041V2.49681L295.073 4.48755L282.947 18.686L283.683 20.5504H286.656C289.798 20.5504 292.499 21.4668 294.79 23.31C297.08 25.1533 298.226 27.6812 298.226 30.9043C298.226 34.1274 297.143 36.5606 294.979 38.5618C292.814 40.5736 290.292 41.5743 287.402 41.5743C285.164 41.5743 283.01 41.0582 280.93 40.0154C278.849 38.9937 277.136 37.7087 275.77 36.1708L273.784 38.1616C275.56 40.0154 277.63 41.49 280.005 42.5644C282.369 43.6387 284.807 44.1759 287.266 44.1759C291.017 44.1759 294.254 42.8804 296.954 40.2998C299.655 37.7192 301 34.5803 301 30.9043C301 28.5133 300.516 26.4278 299.55 24.6477V24.6372Z"
            fill="#1D1D1B" />
        <path
            d="M14.5745 58.4376C17.254 57.2052 18.5255 54.9722 18.5255 52.2442C18.5255 47.4622 15.6568 44.5762 8.85819 44.5762H0V73.4577H9.67781C16.4659 73.4577 19.3556 70.5716 19.3556 65.3683C19.3556 62.1031 17.832 59.6278 14.5745 58.4271V58.4376ZM2.88968 47.22H8.8687C13.6813 47.22 15.5728 49.1159 15.5728 52.2547C15.5728 55.3936 13.6813 57.3 8.8687 57.3H2.87918V47.2305L2.88968 47.22ZM9.67781 70.8244H2.87918V59.9333H9.66731C14.4905 59.9333 16.3819 61.8292 16.3819 65.3789C16.3819 68.9285 14.4905 70.8139 9.66731 70.8139L9.67781 70.8244Z"
            fill="#1D1D1B" />
        <path
            d="M16.9813 0.000488281L6.86215 18.9915L4.97073 23.0783V0.000488281H0.0214844V28.882H6.60996L16.7396 9.91205L18.547 6.02537V28.882H23.4857V0.000488281H16.9813Z"
            fill="#1D1D1B" />
        <path
            d="M47.7794 0.000488281V11.8396H34.1821V0.000488281H29.2539V28.882H34.1821V16.2108H47.7794V28.882H52.7076V0.000488281H47.7794Z"
            fill="#1D1D1B" />
        <path d="M56.2175 0.000488281V4.38222H65.0652V28.882H70.004V4.38222H78.8516V0.000488281H56.207H56.2175Z"
            fill="#1D1D1B" />
        <path
            d="M100.876 4.38222V0.000488281H82.3506V28.882H100.876V24.5108H87.2893V16.2108H98.4067V11.8291H87.2893V4.37169H100.876V4.38222Z"
            fill="#1D1D1B" />
        <path
            d="M115.293 0.000488281H105.416V28.882H110.344V19.0652H115.283C122.66 19.0652 126.4 15.3155 126.4 9.53286C126.4 3.39212 123.017 0.000488281 115.283 0.000488281H115.293ZM115.293 14.694H110.355V4.38222H115.293C119.371 4.38222 121.23 6.23603 121.23 9.53286C121.23 12.8297 119.202 14.694 115.293 14.694Z"
            fill="#1D1D1B" />
        <path
            d="M148.624 0.000488281V11.8396H135.037V0.000488281H130.099V28.882H135.037V16.2108H148.624V28.882H153.563V0.000488281H148.624Z"
            fill="#1D1D1B" />
        <path
            d="M177.868 4.38222V0.000488281H159.343V28.882H177.868V24.5108H164.282V16.2108H175.388V11.8291H164.282V4.37169H177.868V4.38222Z"
            fill="#1D1D1B" />
        <path d="M180.117 0.000488281V4.38222H188.975V28.882H193.903V4.38222H202.751V0.000488281H180.106H180.117Z"
            fill="#1D1D1B" />
    </g>
    <defs>
        <clipPath id="clip0_316_785">
            <rect width="301" height="116" fill="white" transform="translate(0 0.000488281)" />
        </clipPath>
    </defs>
</svg>