<svg xmlns="http://www.w3.org/2000/svg" width="59" height="42" viewBox="0 0 59 42" fill="none">
    <g clip-path="url(#clip0_41_379)">
        <path
            d="M35.3248 34.1957C36.5638 37.1969 38.8244 39.8274 41.8778 41.1368C45.1073 42.5215 48.7302 42.226 51.7131 40.372C53.1047 39.5087 54.3026 38.3731 55.2362 37.0637C59.0235 34.0277 59.9747 28.5756 57.9842 23.9521C56.7687 21.1189 54.555 18.8071 51.6367 17.6657C48.5775 16.4663 45.1543 16.8198 42.1949 18.1176C40.8502 18.7086 39.5878 19.5371 38.4839 20.5337C39.3881 14.8151 42.9171 9.33985 47.8201 6.26908C49.9868 4.91331 52.4705 3.98628 54.9543 3.74294C55.9701 3.64444 56.845 2.95497 56.845 1.8773C56.845 0.944483 55.976 -0.0926255 54.9543 0.0116648C43.516 1.14148 34.8199 11.7096 34.4969 22.8107C34.4617 24.0969 34.5556 25.3658 34.767 26.6173C34.1387 29.1202 34.3208 31.768 35.3248 34.1957ZM49.7167 34.3116C49.7167 34.3116 49.6873 34.3463 49.6579 34.3753C49.5229 34.5202 49.3878 34.6592 49.241 34.7925C49.2293 34.8041 49.2293 34.8041 49.2176 34.8156C49.1471 34.8678 49.0708 34.9199 48.9944 34.9605C48.9064 35.0126 48.5599 35.1807 48.5658 35.1865C47.7613 35.4993 47.1448 35.4935 46.4167 35.2965C45.6945 35.0995 44.9429 34.6534 44.3557 34.1088C43.0052 32.8457 42.2595 31.2234 42.3006 29.5142C42.3241 28.4134 43.0815 27.3299 43.9858 26.6868C43.9447 26.9533 43.9153 27.2198 43.9094 27.4921C43.8742 29.1376 44.4966 30.7483 45.5242 32.023C46.4578 33.1818 47.8083 34.0682 49.3115 34.2826C49.4466 34.3 49.5816 34.3116 49.7167 34.3116C49.7167 34.3116 49.7167 34.3174 49.7167 34.3232V34.3116ZM44.2265 21.2985C48.2135 19.7747 52.1946 21.1246 54.1792 24.7169C53.9855 24.5431 53.7917 24.3692 53.5803 24.2128C49.059 20.8407 41.3317 21.3912 39.0241 27.0866C38.9419 27.2836 38.889 27.4864 38.8244 27.6891C38.7481 27.4226 38.6835 27.1503 38.6248 26.8838C39.5232 24.3808 41.6253 22.295 44.2206 21.2985H44.2265Z"
            fill="white" />
        <path
            d="M0.921861 34.1957C2.16081 37.1969 4.42146 39.8274 7.47481 41.1368C10.7043 42.5215 14.3272 42.226 17.3101 40.372C18.7017 39.5087 19.8996 38.3731 20.8332 37.0637C24.6205 34.0277 25.5717 28.5756 23.5812 23.9521C22.3657 21.1189 20.1521 18.8071 17.2338 17.6657C14.1745 16.4663 10.7513 16.8198 7.79189 18.1176C6.44724 18.7086 5.1848 19.5371 4.0809 20.5337C4.98516 14.8151 8.51412 9.33985 13.4171 6.26908C15.5838 4.91331 18.0676 3.98628 20.5513 3.74294C21.5672 3.64444 22.4421 2.95497 22.4421 1.8773C22.4421 0.944483 21.573 -0.0926255 20.5513 0.0116648C9.11304 1.13568 0.416885 11.7096 0.0939352 22.8107C0.0587043 24.0969 0.152653 25.3658 0.364039 26.6173C-0.264246 29.1202 -0.0822193 31.768 0.921861 34.1957ZM15.3137 34.3116C15.3137 34.3116 15.2843 34.3463 15.255 34.3753C15.1199 34.5202 14.9849 34.6592 14.8381 34.7925C14.8263 34.8041 14.8263 34.8041 14.8146 34.8156C14.7441 34.8678 14.6678 34.9199 14.5914 34.9605C14.5092 35.0126 14.1569 35.1807 14.1628 35.1865C13.3584 35.4993 12.7418 35.4935 12.0137 35.2965C11.2915 35.0995 10.5399 34.6534 9.95271 34.1088C8.6022 32.8457 7.85647 31.2234 7.89758 29.5142C7.92106 28.4134 8.67853 27.3299 9.58279 26.6868C9.54169 26.9533 9.51233 27.2198 9.50646 27.4921C9.47122 29.1376 10.0936 30.7483 11.1212 32.023C12.0548 33.1818 13.4053 34.0682 14.9085 34.2826C15.0436 34.3 15.1786 34.3116 15.3137 34.3116C15.3137 34.3116 15.3137 34.3174 15.3137 34.3232V34.3116ZM9.82353 21.2985C13.8105 19.7747 17.7916 21.1246 19.7763 24.7169C19.5825 24.5431 19.3887 24.3692 19.1773 24.2128C14.656 20.8407 6.92873 21.3912 4.6211 27.0866C4.5389 27.2836 4.48605 27.4864 4.42146 27.6891C4.34513 27.4226 4.28054 27.1503 4.22182 26.8838C5.12021 24.3808 7.22232 22.295 9.81766 21.2985H9.82353Z"
            fill="white" />
    </g>
    <defs>
        <clipPath id="clip0_41_379">
            <rect width="59" height="42" fill="white" />
        </clipPath>
    </defs>
</svg>