<svg width="180" height="41" viewBox="0 0 180 41" fill="#FE5000" xmlns="http://www.w3.org/2000/svg">

    <path
        d="M3.93364 29.5536C6.23503 33.0643 9.39252 35.9446 13.1147 37.9288C16.837 39.9129 21.004 40.937 25.2314 40.9064C22.7937 37.5253 19.6076 34.7406 15.9165 32.7651C12.2264 30.7925 8.12489 29.6933 3.93364 29.5536ZM0 17.518C0.167614 19.989 0.677677 22.4255 1.51585 24.7589C5.74509 24.7589 12.2708 26.2596 17.8113 29.261C23.3517 32.2624 28.2025 36.7645 30.5899 40.2536C33.0191 39.6572 35.3548 38.7358 37.5326 37.5148V8.10864C37.5219 6.6436 37.1125 5.2085 36.3474 3.95442C35.5823 2.70033 34.4898 1.67365 33.185 0.982448C31.8802 0.291246 30.4112 -0.0389079 28.9328 0.0267412C27.4545 0.0923903 26.0213 0.551414 24.7842 1.35549L0 17.518ZM30.3171 6.26278C30.5943 6.39639 30.8215 6.61373 30.9659 6.88345C31.1103 7.15318 31.1644 7.46133 31.1205 7.76348V31.7747C28.323 28.3762 24.8508 25.5823 20.9188 23.5658C17.0773 21.4209 12.8254 20.0944 8.43573 19.6715L28.6496 6.40534C28.876 6.20932 29.1592 6.08923 29.4588 6.06227C29.7583 6.03532 30.0587 6.10288 30.3171 6.25527V6.26278Z" />
    <path
        d="M162.325 5.95094H174.376V1.17871H162.325V5.95094ZM179.999 10.3255V34.8319H174.376V15.4729L165.129 34.8319H156.693V10.3255H162.325V29.677L171.571 10.3255H179.999ZM136.04 9.90529C140.057 9.90529 143.066 11.6986 144.475 14.685V10.3255H150.425V34.8319H144.475V30.4499C143.066 33.4513 139.973 35.2296 136.04 35.2296C129.976 35.2296 125.148 29.8196 125.148 22.5787C125.148 15.1802 130.014 9.9278 136.04 9.9278V9.90529ZM137.806 15.2403C133.713 15.2403 131.083 18.3842 131.083 22.5637C131.083 26.9758 133.94 29.8796 137.806 29.8796C141.868 29.8796 144.475 26.7356 144.475 22.5637C144.475 18.3917 141.906 15.2553 137.806 15.2553V15.2403ZM115.583 15.713V34.8094H109.641V15.758H102.001V10.3255H123.223V15.758L115.583 15.713ZM94.3993 26.8332L99.3789 29.5345C97.5371 33.3537 93.4974 35.3647 88.533 35.3647C81.3933 35.3647 76.2394 30.0747 76.2394 22.6087C76.2394 15.4879 81.0598 9.85276 88.533 9.85276C95.7711 9.85276 100.387 15.1502 100.387 22.6087C100.401 23.2726 100.373 23.9367 100.304 24.5971H82.1133C82.7121 27.8987 84.8798 30.2023 88.7831 30.2023C89.9486 30.2415 91.1004 29.9438 92.0978 29.3454C93.0952 28.7471 93.8949 27.8742 94.3993 26.8332ZM88.5178 15.0077C86.9846 14.9129 85.4722 15.3978 84.2862 16.3644C83.1002 17.331 82.329 18.7073 82.1285 20.2151H94.5054C94.081 16.9961 92.0346 15.0077 88.5405 15.0077H88.5178ZM67.167 10.3555H57.7384L50.1592 34.8619H55.98L62.286 13.9347L68.5844 34.8619H74.7766L67.167 10.3555Z" />

</svg>