<svg width="890" height="652" viewBox="0 0 890 652" fill="none" xmlns="http://www.w3.org/2000/svg"
     preserveAspectRatio="none">
    <path d="M807.044 641.669C815.579 648.159 825.988 652 837.229 652C866.165 652 889.653 626.788 889.653 595.647C889.653 577.26 881.431 560.999 868.767 550.706C881.431 540.412 889.653 524.151 889.653 505.764C889.653 487.378 881.431 471.117 868.767 460.823C881.431 450.53 889.653 434.269 889.653 415.882C889.653 397.496 881.431 381.235 868.767 370.941C881.431 360.648 889.653 344.387 889.653 326C889.653 307.613 881.431 291.353 868.767 281.059C881.431 270.765 889.653 254.505 889.653 236.118C889.653 217.731 881.431 201.47 868.767 191.177C881.431 180.883 889.653 164.622 889.653 146.236C889.653 127.849 881.431 111.588 868.767 101.295C881.431 91.0011 889.653 74.7402 889.653 56.3535C889.653 25.2118 866.199 3.78628e-05 837.229 3.65964e-05C825.988 3.61051e-05 815.579 3.84147 807.044 10.3309C798.509 3.84147 788.101 3.4449e-05 776.859 3.39576e-05C765.618 3.34662e-05 755.21 3.84147 746.675 10.3309C738.14 3.84147 727.731 3.18101e-05 716.49 3.13188e-05C705.249 3.08274e-05 694.84 3.84147 686.305 10.3309C677.77 3.84147 667.361 2.91713e-05 656.12 2.86799e-05C644.879 2.81885e-05 634.47 3.84146 625.935 10.3309C617.4 3.84146 606.992 2.65325e-05 595.751 2.60411e-05C584.509 2.55497e-05 574.101 3.84146 565.566 10.3309C557.031 3.84146 546.622 2.38936e-05 535.381 2.34022e-05C524.14 2.29109e-05 513.731 3.84146 505.196 10.3309C496.661 3.84146 486.253 2.12548e-05 475.012 2.07634e-05C463.77 2.0272e-05 453.362 3.84146 444.827 10.3309C436.292 3.84146 425.883 1.86159e-05 414.642 1.81246e-05C403.401 1.76332e-05 392.992 3.84145 384.457 10.3309C375.922 3.84145 365.514 1.59771e-05 354.272 1.54857e-05C343.031 1.49944e-05 332.623 3.84145 324.088 10.3309C315.553 3.84145 305.144 1.33383e-05 293.903 1.28469e-05C282.662 1.23555e-05 272.253 3.84145 263.718 10.3309C255.183 3.84145 244.774 1.06994e-05 233.533 1.02081e-05C222.292 9.71669e-06 211.884 3.84145 203.349 10.3309C194.814 3.84145 184.405 8.06059e-06 173.164 7.56922e-06C161.923 7.07785e-06 151.514 3.84144 142.979 10.3309C134.444 3.84144 124.035 5.42175e-06 112.794 4.93038e-06C101.553 4.43901e-06 91.1444 3.84144 82.6094 10.3309C74.0744 3.84144 63.6658 2.78291e-06 52.4246 2.29154e-06C23.4888 1.02672e-06 0.000182003 25.2118 0.000180642 56.3535C0.000179838 74.7402 8.22298 91.001 20.8867 101.295C8.22298 111.588 0.000177517 127.849 0.000176713 146.236C0.00017591 164.622 8.22298 180.883 20.8867 191.177C8.22298 201.47 0.000173588 217.731 0.000172784 236.118C0.000171981 254.505 8.22298 270.765 20.8867 281.059C8.22297 291.353 0.000169659 307.613 0.000168856 326C0.000168052 344.387 8.22297 360.648 20.8867 370.941C8.22297 381.235 0.00016573 397.496 0.000164927 415.882C0.000164123 434.269 8.22297 450.53 20.8867 460.823C8.22297 471.117 0.000161802 487.378 0.000160998 505.764C0.000160194 524.151 8.22296 540.412 20.8867 550.705C8.22296 560.999 0.000157873 577.26 0.000157069 595.647C0.000155709 626.751 23.4541 652 52.4245 652C63.6658 652 74.0743 648.159 82.6093 641.669C91.1444 648.159 101.553 652 112.794 652C124.035 652 134.444 648.159 142.979 641.669C151.514 648.159 161.922 652 173.164 652C184.405 652 194.813 648.159 203.348 641.669C211.883 648.159 222.292 652 233.533 652C244.774 652 255.183 648.159 263.718 641.669C272.253 648.159 282.662 652 293.903 652C305.144 652 315.553 648.159 324.088 641.669C332.623 648.159 343.031 652 354.272 652C365.514 652 375.922 648.159 384.457 641.669C392.992 648.159 403.401 652 414.642 652C425.883 652 436.292 648.159 444.827 641.669C453.362 648.159 463.77 652 475.012 652C486.253 652 496.661 648.159 505.196 641.669C513.731 648.159 524.14 652 535.381 652C546.622 652 557.031 648.159 565.566 641.669C574.101 648.159 584.509 652 595.751 652C606.992 652 617.4 648.159 625.935 641.669C634.47 648.159 644.879 652 656.12 652C667.361 652 677.77 648.159 686.305 641.669C694.84 648.159 705.249 652 716.49 652C727.731 652 738.14 648.159 746.675 641.669C755.21 648.159 765.618 652 776.859 652C788.101 652 798.509 648.159 807.044 641.669Z"
          fill="white"/>
</svg>
