<svg xmlns="http://www.w3.org/2000/svg" width="102" height="129" viewBox="0 0 102 129" fill="none">
  <path d="M50.9993 9.10715C50.2684 9.10715 49.6752 8.52021 49.6752 7.79396V1.31319C49.6752 0.5883 50.2671 0 50.9993 0C51.7316 0 52.3235 0.586948 52.3235 1.31319V7.79531C52.3235 8.52021 51.7316 9.10851 50.9993 9.10851V9.10715Z" fill="white" fill-opacity="0.6"/>
  <path d="M81.5042 21.6386C81.166 21.6386 80.8265 21.5102 80.5688 21.2546C80.0519 20.742 80.0519 19.9102 80.5688 19.3977L85.1916 14.8144C85.7084 14.3018 86.5457 14.3018 87.0639 14.8144C87.5807 15.3269 87.5807 16.1587 87.0639 16.6699L82.4411 21.2532C82.182 21.5102 81.8438 21.6373 81.5056 21.6373L81.5042 21.6386Z" fill="white" fill-opacity="0.6"/>
  <path d="M15.873 86.7288C15.5348 86.7288 15.1952 86.6004 14.9375 86.3447C14.4207 85.8322 14.4207 85.0004 14.9375 84.4892L19.5589 79.9059C20.0757 79.3933 20.913 79.3933 21.4312 79.9059C21.948 80.4185 21.948 81.2502 21.4312 81.7614L16.8098 86.3447C16.5507 86.6017 16.2125 86.7288 15.8743 86.7288H15.873Z" fill="white" fill-opacity="0.6"/>
  <path d="M100.676 51.892H94.1399C93.409 51.892 92.8158 51.3051 92.8158 50.5788C92.8158 49.8526 93.4076 49.2656 94.1399 49.2656H100.676C101.407 49.2656 102 49.8526 102 50.5788C102 51.3051 101.408 51.892 100.676 51.892Z" fill="white" fill-opacity="0.6"/>
  <path d="M7.86011 51.892H1.32411C0.59319 51.892 0 51.3051 0 50.5788C0 49.8526 0.591826 49.2656 1.32411 49.2656H7.86011C8.59102 49.2656 9.18421 49.8526 9.18421 50.5788C9.18421 51.3051 8.59239 51.892 7.86011 51.892Z" fill="white" fill-opacity="0.6"/>
  <path d="M86.1257 86.7288C85.7875 86.7288 85.4479 86.6004 85.1902 86.3447L80.5674 81.7614C80.0506 81.2489 80.0506 80.4185 80.5674 79.9059C81.0843 79.3933 81.9215 79.3933 82.4397 79.9059L87.0625 84.4892C87.5793 85.0018 87.5793 85.8322 87.0625 86.3447C86.8048 86.6017 86.4652 86.7288 86.1271 86.7288H86.1257Z" fill="white" fill-opacity="0.6"/>
  <path d="M20.4957 21.6385C20.1575 21.6385 19.818 21.51 19.5603 21.2544L14.9388 16.6711C14.422 16.1585 14.422 15.3268 14.9388 14.8156C15.4557 14.303 16.2929 14.303 16.8111 14.8156L21.4325 19.3989C21.9494 19.9115 21.9494 20.7432 21.4325 21.2558C21.1735 21.5127 20.8353 21.6399 20.4971 21.6399L20.4957 21.6385Z" fill="white" fill-opacity="0.6"/>
  <path d="M67.6604 12.4273C67.49 12.4273 67.3168 12.3949 67.1504 12.3246C66.4768 12.0446 66.1577 11.2751 66.44 10.607L68.9641 4.62797C69.2464 3.95853 70.0237 3.64477 70.6959 3.92337C71.3696 4.20332 71.6887 4.97284 71.4064 5.64093L68.8823 11.62C68.6696 12.1231 68.1786 12.426 67.6604 12.426V12.4273Z" fill="white" fill-opacity="0.6"/>
  <path d="M90.919 35.6699C90.3981 35.6699 89.9044 35.3629 89.693 34.8544C89.4162 34.1836 89.7394 33.4168 90.4158 33.1422L96.4636 30.6849C97.14 30.4104 97.9132 30.7309 98.19 31.4017C98.4668 32.0725 98.1436 32.8393 97.4672 33.1138L91.4194 35.5712C91.2558 35.6374 91.0853 35.6699 90.9176 35.6699H90.919Z" fill="white" fill-opacity="0.6"/>
  <path d="M5.03323 70.573C4.51232 70.573 4.01731 70.266 3.80731 69.7575C3.53049 69.0867 3.85367 68.3199 4.53004 68.0453L10.5779 65.588C11.2529 65.3134 12.0274 65.634 12.3042 66.3048C12.5811 66.9756 12.2579 67.7424 11.5815 68.0169L5.53369 70.4743C5.37006 70.5405 5.1996 70.573 5.03187 70.573H5.03323Z" fill="white" fill-opacity="0.6"/>
  <path d="M96.8208 70.9193C96.6504 70.9193 96.4772 70.8868 96.3108 70.8179L90.2807 68.3145C89.6071 68.0346 89.288 67.2651 89.5703 66.597C89.8526 65.9275 90.6298 65.6138 91.3021 65.8924L97.3322 68.3957C98.0059 68.6756 98.3249 69.4452 98.0427 70.1132C97.8299 70.6163 97.339 70.9193 96.8208 70.9193Z" fill="white" fill-opacity="0.6"/>
  <path d="M11.2065 35.3696C11.036 35.3696 10.8629 35.3372 10.6965 35.2668L4.66778 32.7635C3.99413 32.4836 3.67503 31.714 3.95731 31.0459C4.23959 30.3765 5.01687 30.0627 5.68915 30.3413L11.7179 32.8447C12.3915 33.1246 12.7106 33.8941 12.4283 34.5622C12.2156 35.0653 11.7247 35.3683 11.2065 35.3683V35.3696Z" fill="white" fill-opacity="0.6"/>
  <path d="M34.6423 12.303C34.1214 12.303 33.6264 11.996 33.4164 11.4875L30.9386 5.48952C30.6618 4.81872 30.985 4.0519 31.6613 3.77736C32.3377 3.50417 33.1109 3.82334 33.3877 4.49414L35.8655 10.4921C36.1423 11.1629 35.8191 11.9297 35.1427 12.2043C34.9791 12.2705 34.8086 12.303 34.6409 12.303H34.6423Z" fill="white" fill-opacity="0.6"/>
  <path d="M62.5944 113.037H40.2359C38.9745 113.037 37.9518 112.023 37.9518 110.772C37.9518 109.521 38.9745 108.507 40.2359 108.507H62.5944C63.8558 108.507 64.8785 109.521 64.8785 110.772C64.8785 112.023 63.8558 113.037 62.5944 113.037Z" fill="white" fill-opacity="0.6"/>
  <path d="M62.5944 120.152H40.2359C38.9745 120.152 37.9518 119.138 37.9518 117.887C37.9518 116.636 38.9745 115.622 40.2359 115.622H62.5944C63.8558 115.622 64.8785 116.636 64.8785 117.887C64.8785 119.138 63.8558 120.152 62.5944 120.152Z" fill="white" fill-opacity="0.6"/>
  <path d="M45.9905 122.833C45.4369 122.833 45.0169 123.332 45.1192 123.872C45.6701 126.79 48.2488 129 51.3511 129C54.4534 129 57.0321 126.79 57.583 123.872C57.6852 123.332 57.2652 122.833 56.7116 122.833H45.9905Z" fill="white" fill-opacity="0.6"/>
  <path d="M60.2285 105.652H42.276C39.1655 105.652 36.5472 103.241 36.3141 100.164C35.5531 90.1262 31.424 83.7658 27.0507 77.0321C22.282 69.6885 17.3511 62.0961 17.3511 49.8175C17.3511 33.2383 29.309 19.2841 45.786 16.6401C49.6383 16.022 53.6979 16.0707 57.5271 16.7794C73.535 19.7479 85.1534 33.6426 85.1534 49.8175C85.1534 62.0961 80.2224 69.6899 75.4523 77.0321C71.0791 83.7658 66.9486 90.1262 66.189 100.164C65.9558 103.242 63.3362 105.652 60.2271 105.652H60.2285ZM51.2474 20.5824C49.6479 20.5824 48.051 20.7068 46.4924 20.957C32.1645 23.2574 21.7639 35.3927 21.7639 49.8148C21.7639 60.8059 26.1344 67.5355 30.7613 74.6613C35.2395 81.5573 39.8705 88.6886 40.7146 99.8352C40.7759 100.643 41.4619 101.275 42.276 101.275H60.2285C61.0562 101.275 61.7285 100.656 61.7899 99.8352C62.634 88.6899 67.2663 81.5587 71.7445 74.6613C76.3714 67.5368 80.7419 60.8072 80.7419 49.8148C80.7419 35.7456 70.6386 23.6605 56.7171 21.0787C54.9307 20.7474 53.0884 20.5824 51.2461 20.5824H51.2474Z" fill="white" fill-opacity="0.6"/>
  <path d="M34.8277 70.88C34.1459 70.88 33.4749 70.5676 33.0427 69.9806C20.7957 53.2959 29.8231 37.6377 30.2131 36.979C30.8308 35.9377 32.1822 35.5901 33.2336 36.2014C34.2822 36.8127 34.634 38.1516 34.0204 39.1916C33.6822 39.7691 26.1126 53.1039 36.61 67.4043C37.3273 68.3807 37.1104 69.7494 36.1259 70.4607C35.7332 70.7434 35.2791 70.88 34.829 70.88H34.8277Z" fill="white" fill-opacity="0.6"/>
</svg>