<svg xmlns="http://www.w3.org/2000/svg" width="59" height="42" viewBox="0 0 59 42" fill="none">
    <g clip-path="url(#clip0_41_386)">
        <path
            d="M23.6752 7.80431C22.4362 4.80307 20.1756 2.17263 17.1222 0.863212C13.8927 -0.521531 10.2698 -0.226041 7.28692 1.62801C5.8953 2.4913 4.69745 3.6269 3.76383 4.93632C-0.0234879 7.97233 -0.974723 13.4244 1.01582 18.0479C2.23129 20.8811 4.44496 23.1929 7.36325 24.3343C10.4225 25.5337 13.8457 25.1802 16.8051 23.8824C18.1498 23.2914 19.4122 22.4629 20.5161 21.4663C19.6119 27.1849 16.0829 32.6602 11.1799 35.7309C9.01323 37.0867 6.52946 38.0137 4.04568 38.2571C3.02985 38.3556 2.15495 39.045 2.15495 40.1227C2.15495 41.0555 3.02398 42.0926 4.04568 41.9883C15.484 40.8585 24.1801 30.2904 24.5031 19.1893C24.5383 17.9031 24.4444 16.6342 24.233 15.3827C24.8613 12.8798 24.6792 10.232 23.6752 7.80431ZM9.28334 7.68843C9.28334 7.68843 9.3127 7.65366 9.34206 7.62469C9.47711 7.47985 9.61216 7.34079 9.75896 7.20753C9.7707 7.19595 9.7707 7.19594 9.78244 7.18436C9.8529 7.13221 9.92924 7.08007 10.0056 7.03951C10.0936 6.98736 10.4401 6.81934 10.4342 6.81355C11.2387 6.50068 11.8552 6.50647 12.5833 6.70347C13.3055 6.90046 14.0571 7.34659 14.6443 7.89122C15.9948 9.15428 16.7405 10.7766 16.6994 12.4858C16.676 13.5866 15.9185 14.6701 15.0142 15.3132C15.0553 15.0467 15.0847 14.7802 15.0906 14.5079C15.1258 12.8624 14.5034 11.2517 13.4758 9.97702C12.5422 8.81824 11.1917 7.93177 9.68849 7.7174C9.55344 7.70002 9.41839 7.68843 9.28334 7.68843C9.28334 7.68843 9.28334 7.68263 9.28334 7.67684L9.28334 7.68843ZM14.7735 20.7015C10.7865 22.2253 6.80543 20.8754 4.82076 17.2831C5.01453 17.4569 5.2083 17.6308 5.41968 17.7872C9.94098 21.1593 17.6683 20.6088 19.9759 14.9134C20.0581 14.7164 20.111 14.5136 20.1756 14.3109C20.2519 14.5774 20.3165 14.8497 20.3752 15.1162C19.4768 17.6192 17.3747 19.705 14.7794 20.7015L14.7735 20.7015Z"
            fill="white" />
        <path
            d="M58.0781 7.80431C56.8392 4.80307 54.5785 2.17263 51.5252 0.863212C48.2957 -0.521531 44.6728 -0.226041 41.6899 1.62801C40.2983 2.4913 39.1004 3.6269 38.1668 4.93632C34.3795 7.97233 33.4282 13.4244 35.4188 18.0479C36.6342 20.8811 38.8479 23.1929 41.7662 24.3343C44.8254 25.5337 48.2487 25.1802 51.2081 23.8824C52.5527 23.2914 53.8152 22.4629 54.9191 21.4663C54.0148 27.1849 50.4859 32.6602 45.5829 35.7309C43.4162 37.0867 40.9324 38.0137 38.4486 38.2571C37.4328 38.3556 36.5579 39.045 36.5579 40.1227C36.5579 41.0555 37.4269 42.0926 38.4486 41.9883C49.8869 40.8643 58.5831 30.2904 58.906 19.1893C58.9413 17.9031 58.8473 16.6342 58.6359 15.3827C59.2642 12.8798 59.0822 10.232 58.0781 7.80431ZM43.6863 7.68843C43.6863 7.68843 43.7157 7.65366 43.745 7.62469C43.8801 7.47985 44.0151 7.34079 44.1619 7.20753C44.1737 7.19595 44.1737 7.19594 44.1854 7.18436C44.2559 7.13221 44.3322 7.08007 44.4085 7.03951C44.4907 6.98736 44.843 6.81934 44.8372 6.81355C45.6416 6.50068 46.2581 6.50647 46.9863 6.70347C47.7085 6.90046 48.4601 7.34659 49.0473 7.89122C50.3978 9.15428 51.1435 10.7766 51.1024 12.4858C51.0789 13.5866 50.3214 14.6701 49.4172 15.3132C49.4583 15.0467 49.4876 14.7802 49.4935 14.5079C49.5287 12.8624 48.9063 11.2517 47.8788 9.97702C46.9451 8.81824 45.5946 7.93177 44.0914 7.7174C43.9564 7.70002 43.8213 7.68843 43.6863 7.68843C43.6863 7.68843 43.6863 7.68263 43.6863 7.67684L43.6863 7.68843ZM49.1764 20.7015C45.1895 22.2253 41.2084 20.8754 39.2237 17.2831C39.4175 17.4569 39.6113 17.6308 39.8226 17.7872C44.3439 21.1593 52.0712 20.6088 54.3789 14.9134C54.4611 14.7164 54.5139 14.5136 54.5785 14.3109C54.6548 14.5774 54.7194 14.8497 54.7782 15.1162C53.8798 17.6192 51.7777 19.705 49.1823 20.7015L49.1764 20.7015Z"
            fill="white" />
    </g>
    <defs>
        <clipPath id="clip0_41_386">
            <rect width="59" height="42" fill="white" transform="translate(59 42) rotate(-180)" />
        </clipPath>
    </defs>
</svg>