<?xml version="1.0" encoding="UTF-8"?>
<svg xmlns="http://www.w3.org/2000/svg" viewBox="0 0 1000 1000">
  <defs>
    <style>
      .cls-1 {
        fill: #fff;
      }

      .cls-2 {
        isolation: isolate;
      }

      .cls-3 {
        mix-blend-mode: screen;
      }
    </style>
  </defs>
  <g class="cls-2">
    <g id="_Слой_1" data-name="Слой 1">
      <g>
        <g>
          <path class="cls-1" d="M499.8,20.46c264.84,0,479.54,214.7,479.54,479.54s-214.7,479.54-479.54,479.54S20.26,764.84,20.26,500,234.96,20.46,499.8,20.46M499.8,19.24c-64.9,0-127.86,12.71-187.13,37.78-57.25,24.21-108.66,58.88-152.82,103.03-44.15,44.15-78.82,95.57-103.03,152.82-25.07,59.27-37.78,122.23-37.78,187.13s12.71,127.86,37.78,187.13c24.21,57.25,58.88,108.66,103.03,152.82,44.15,44.15,95.57,78.82,152.82,103.03,59.27,25.07,122.23,37.78,187.13,37.78s127.86-12.71,187.13-37.78c57.25-24.21,108.66-58.88,152.82-103.03,44.15-44.15,78.82-95.57,103.03-152.82,25.07-59.27,37.78-122.23,37.78-187.13s-12.71-127.86-37.78-187.13c-24.21-57.25-58.88-108.66-103.03-152.82-44.15-44.15-95.57-78.82-152.82-103.03-59.27-25.07-122.23-37.78-187.13-37.78h0Z"/>
          <path class="cls-1" d="M499.8,73.69c235.44,0,426.31,190.86,426.31,426.31s-190.86,426.31-426.31,426.31S73.5,735.44,73.5,500,264.36,73.69,499.8,73.69M499.8,72.59c-57.7,0-113.67,11.3-166.37,33.59-50.9,21.53-96.6,52.34-135.86,91.6-39.25,39.25-70.07,84.96-91.6,135.86-22.29,52.69-33.59,108.67-33.59,166.37s11.3,113.67,33.59,166.37c21.53,50.9,52.34,96.6,91.6,135.86,39.25,39.25,84.96,70.07,135.86,91.6,52.69,22.29,108.67,33.59,166.37,33.59s113.67-11.3,166.37-33.59c50.9-21.53,96.6-52.34,135.86-91.6,39.25-39.25,70.07-84.96,91.6-135.86,22.29-52.69,33.59-108.67,33.59-166.37s-11.3-113.67-33.59-166.37c-21.53-50.9-52.34-96.6-91.6-135.86-39.25-39.25-84.96-70.07-135.86-91.6-52.69-22.29-108.67-33.59-166.37-33.59h0Z"/>
          <path class="cls-1" d="M499.8,224.03c152.41,0,275.97,123.55,275.97,275.97s-123.55,275.97-275.97,275.97-275.97-123.56-275.97-275.97,123.56-275.97,275.97-275.97M499.8,223.32c-37.35,0-73.59,7.32-107.7,21.74-32.95,13.94-62.54,33.89-87.95,59.3-25.41,25.41-45.36,55-59.29,87.95-14.43,34.11-21.74,70.35-21.74,107.7s7.32,73.59,21.74,107.7c13.94,32.95,33.89,62.54,59.29,87.95,25.41,25.41,55,45.36,87.95,59.29,34.11,14.43,70.35,21.74,107.7,21.74s73.59-7.32,107.7-21.74c32.95-13.94,62.54-33.89,87.95-59.29,25.41-25.41,45.36-55,59.3-87.95,14.43-34.11,21.74-70.35,21.74-107.7s-7.32-73.59-21.74-107.7c-13.94-32.95-33.89-62.54-59.3-87.95-25.41-25.41-55-45.36-87.95-59.3-34.11-14.43-70.35-21.74-107.7-21.74h0Z"/>
          <path class="cls-1" d="M499.8,32.69c258.09,0,467.31,209.22,467.31,467.31s-209.22,467.31-467.31,467.31S32.5,758.09,32.5,500,241.72,32.69,499.8,32.69M499.8,31.48c-63.25,0-124.61,12.39-182.37,36.82-55.79,23.6-105.9,57.38-148.92,100.41-43.03,43.03-76.81,93.13-100.41,148.92-24.43,57.76-36.82,119.12-36.82,182.37s12.39,124.61,36.82,182.37c23.6,55.79,57.38,105.9,100.41,148.92,43.03,43.03,93.13,76.81,148.92,100.41,57.76,24.43,119.12,36.82,182.37,36.82s124.61-12.39,182.37-36.82c55.79-23.6,105.9-57.38,148.92-100.41,43.03-43.03,76.81-93.13,100.41-148.92,24.43-57.76,36.82-119.12,36.82-182.37s-12.39-124.61-36.82-182.37c-23.6-55.79-57.38-105.9-100.41-148.92-43.03-43.03-93.13-76.81-148.92-100.41-57.76-24.43-119.12-36.82-182.37-36.82h0Z"/>
          <path class="cls-1" d="M499.8,280.33c121.32,0,219.67,98.35,219.67,219.67s-98.35,219.67-219.67,219.67-219.67-98.35-219.67-219.67,98.35-219.67,219.67-219.67M499.8,279.5c-58.9,0-114.27,22.94-155.92,64.58-41.65,41.65-64.58,97.02-64.58,155.92s22.94,114.27,64.58,155.92c41.65,41.65,97.02,64.58,155.92,64.58s114.27-22.94,155.92-64.58c41.65-41.65,64.58-97.02,64.58-155.92s-22.94-114.27-64.58-155.92c-41.65-41.65-97.02-64.58-155.92-64.58h0Z"/>
          <path class="cls-1" d="M499.8,306.06c107.11,0,193.94,86.83,193.94,193.94s-86.83,193.94-193.94,193.94-193.94-86.83-193.94-193.94,86.83-193.94,193.94-193.94M499.8,305.23c-52.02,0-100.94,20.26-137.72,57.05-36.79,36.79-57.05,85.7-57.05,137.72s20.26,100.94,57.05,137.72c36.79,36.79,85.7,57.05,137.72,57.05s100.94-20.26,137.72-57.05c36.79-36.79,57.05-85.7,57.05-137.72s-20.26-100.94-57.05-137.72c-36.79-36.79-85.7-57.05-137.72-57.05h0Z"/>
        </g>
        <g>
          <path class="cls-1" d="M595.35,334.52l95.54,165.48-95.54,165.48h-191.08l-95.54-165.48,95.54-165.48h191.08M595.63,334.03h-191.64l-.14.24-95.54,165.48-.14.24.14.24,95.54,165.48.14.24h191.64l.14-.24,95.54-165.48.14-.24-.14-.24-95.54-165.48-.14-.24h0Z"/>
          <path class="cls-1" d="M499.8,420.64l68.73,39.68v79.36l-68.73,39.68-68.73-39.68v-79.36l68.73-39.68M499.8,419.23l-.61.35-68.73,39.68-.61.35v80.77l.61.35,68.73,39.68.61.35.61-.35,68.73-39.68.61-.35v-80.77l-.61-.35-68.73-39.68-.61-.35h0Z"/>
          <path class="cls-1" d="M596.33,667.19l-96.53-87.01-96.53,87.01,27.09-127.1-123.62-40.09,123.62-40.09-27.09-127.1,96.53,87.01,96.53-87.01-27.09,127.1,123.62,40.09-123.62,40.09,27.09,127.1ZM499.81,578.54l.41.37,94.14,84.86-26.53-124.5.52-.17,120.56-39.1-121.08-39.27.11-.54,26.42-123.96-94.55,85.23-94.55-85.23,26.53,124.5-.52.17-120.56,39.1,121.09,39.27-26.53,124.5,94.55-85.23Z"/>
          <path class="cls-1" d="M643.98,584.3h-287.11l.52-.91,142.44-250.35,144.16,251.26ZM358.96,583.08h282.91l-142.05-247.58-140.87,247.58Z"/>
          <path class="cls-1" d="M499.83,667.48l-.53-.92-143.81-249.28h287.12l-142.78,250.2ZM357.6,418.5l142.23,246.53,140.68-246.53h-282.91Z"/>
          <path class="cls-1" d="M550.83,529.94h-101.71l.31-.55,50.55-88.94,50.86,89.49ZM450.38,529.2h99.2l-49.6-87.27-49.6,87.27Z"/>
          <path class="cls-1" d="M499.01,559.77l-.31-.56-50.05-88.45h101.72l-51.35,89ZM449.89,471.5l49.12,86.79,50.07-86.79h-99.19Z"/>
          <path class="cls-1" d="M499.81,534.9c-19.25,0-34.9-15.66-34.9-34.9s15.66-34.9,34.9-34.9,34.9,15.66,34.9,34.9-15.66,34.9-34.9,34.9ZM499.81,465.83c-18.84,0-34.17,15.33-34.17,34.17s15.33,34.17,34.17,34.17,34.17-15.33,34.17-34.17-15.33-34.17-34.17-34.17Z"/>
          <path class="cls-1" d="M499.81,665.5c-91.26,0-165.5-74.25-165.5-165.51s74.24-165.5,165.5-165.5,165.5,74.24,165.5,165.5-74.24,165.51-165.5,165.51ZM499.81,335.23c-90.86,0-164.77,73.92-164.77,164.77s73.92,164.77,164.77,164.77,164.77-73.91,164.77-164.77-73.92-164.77-164.77-164.77Z"/>
          <path class="cls-1" d="M499.81,615.29c-63.57,0-115.29-51.72-115.29-115.3s51.72-115.29,115.29-115.29,115.29,51.72,115.29,115.29-51.72,115.3-115.29,115.3ZM499.81,385.44c-63.17,0-114.56,51.39-114.56,114.56s51.39,114.56,114.56,114.56,114.56-51.39,114.56-114.56-51.39-114.56-114.56-114.56Z"/>
        </g>
        <g class="cls-3">
          <path class="cls-1" d="M767.97,244.92c-9.2,3.92-13.55,1.6-16.59-1.18-3.04-2.78-5.73-6.91-2.56-16.64,4.08-12.53,7.03-21.59-.71-28.68l-5.16,5.64c3.95,3.62,2.43,8.95-1.47,20.89-2.26,6.92-2.28,12.75-.14,17.66-9.98-4.48-22.14-2.35-29.93,6.16-9.71,10.61-8.98,27.13,1.62,36.84,10.61,9.71,27.13,8.98,36.85-1.62,7.79-8.5,8.84-20.81,3.5-30.36,5.1,1.7,10.95,1.15,17.79-1.76,11.35-4.84,16.53-6.83,20.48-3.21l5.16-5.64c-7.75-7.1-16.52-3.36-28.84,1.9ZM744.24,278.83c-6.86,7.5-18.55,8.01-26.04,1.15-7.5-6.86-8.01-18.54-1.15-26.04,6.86-7.5,18.54-8.01,26.04-1.15,7.5,6.86,8.01,18.55,1.15,26.04Z"/>
          <path class="cls-1" d="M558.42,121.65c4.26-3.87,9.75-5.11,15.46-3.5,10,2.83,19.25,13.51,16.6,44.67,14.06-27.93,27.54-32.18,37.54-29.35,5.71,1.62,9.74,5.55,11.34,11.08,2.69,9.33-1.93,20.91-7.88,27.52l-5.68-5.12c5.13-5.7,7.86-14.61,6.22-20.29-.87-3.02-2.86-4.94-6.07-5.85-7.03-1.99-25.51.89-45.19,70.41l-7.36-2.08c19.67-69.52,5.44-81.66-1.59-83.65-3.21-.91-5.91-.32-8.24,1.8-4.37,3.98-6.72,13-5.33,20.54l-7.52,1.38c-1.61-8.76.53-21.04,7.71-27.58Z"/>
          <path class="cls-1" d="M376.04,170.81l18.17-5.16c-8.65-26.89-24.8-29.54-24.96-29.56l1.06-7.57c.89.12,21.23,3.35,31.3,35.03l14.7-4.18c-8.1-32.25,7.51-45.69,8.2-46.26l2.44,2.94,2.47,2.92c-.53.46-12.42,11.24-5.72,38.3l18.17-5.16,2.09,7.36-18.11,5.15c8.92,25.77,25.48,31.71,26.22,31.96l-2.4,7.26c-.89-.29-20.96-7.24-31.17-37.14l-14.92,4.24c7.04,30.8-6.37,47.26-6.98,47.98l-5.84-4.93c.48-.59,11.43-14.35,5.47-40.96l-18.11,5.15-2.09-7.36Z"/>
          <path class="cls-1" d="M275.96,257.31l-18.5-2.96-5.56,27.41-18.5-2.96-6.29,31.01,7.49,1.52,4.83-23.82,18.5,2.96,5.56-27.41,18.5,2.96,5.56-27.41,14.88,2.38,1.21-7.55-22.12-3.54-5.56,27.41ZM215.77,264.24l18.5,2.96,5.56-27.41,18.5,2.96,5.56-27.41,14.88,2.38,1.21-7.55-22.12-3.54-5.56,27.41-18.5-2.96-5.56,27.41-18.5-2.96-6.29,31.01,7.49,1.52,4.83-23.82Z"/>
          <path class="cls-1" d="M120.84,396.18c3.11,5.94,9.54,8.91,17.63,8.14,6.89-.65,12.39-5.14,17.01-10.43.08,3.75-1.38,7.96-2.91,12.35l-6.54,18.88c-5.3,15.3,3.28,24.35,12.25,27.46,4.97,1.72,10.6,1.91,15.44.51.64-.18,1.25-.4,1.84-.63.16,1.46.47,2.85,1.09,4.06,2.23,4.4,6.64,5.75,9.01,6.49.28.09.55.17.77.25l2.5-7.23c-.3-.11-.65-.21-1.03-.33-1.64-.5-3.67-1.13-4.44-2.64-.74-1.46-.54-3.92.57-7.12l17.22-49.7-7.23-2.5-16.28,46.97c-1.87,5.38-10.5,6.9-16.97,4.66-2.4-.83-5.63-2.53-7.43-5.91-1.69-3.17-1.72-7.15-.1-11.83l6.54-18.88c2.44-7.02,5.2-14.98,1.62-22.47.28-.38.55-.76.83-1.14,2.42-3.34,6.47-8.92,8.04-9.06l13.24,4.59,2.5-7.23-13.24-4.59c-6.34-2.2-11.19,4.17-16.27,11.15-3.38-2.92-8.05-5.35-14.19-7.33-7.65-2.48-14.64-.83-19.18,4.55-4.44,5.25-5.38,13.04-2.3,18.93ZM128.97,382.18c2.47-2.92,6.37-3.71,10.98-2.21,5.35,1.74,9.4,3.84,11.97,6.23-4.19,5.33-8.84,10.01-14.18,10.52-4.98.47-8.49-.94-10.13-4.07-1.66-3.17-1.08-7.56,1.36-10.46Z"/>
          <polygon class="cls-1" points="179.41 589.23 186.31 606.01 179.24 608.92 172.34 592.14 128.27 610.24 158.43 622.83 155.48 629.89 113.28 612.27 130.9 570.07 137.96 573.02 125.37 603.17 169.44 585.06 162.54 568.28 169.61 565.38 176.51 582.16 206.59 569.8 209.49 576.87 179.41 589.23"/>
          <path class="cls-1" d="M252.92,798.21l-5.61,5.2c-1.54-1.66-5.06-5.48-4.77-10.55-3.79-.28-7.16-2.32-9.52-4.88-2.59-2.8-4.42-6.48-4.28-10.43-3.96-.16-7.48-2.26-9.93-4.91-4.73-5.11-6.99-13.15.86-20.43l39.43-36.54c7.41-6.87,7.13-8.64-2.93-19.64l-4.08,3.78-.41-14.27,14.2,1.5-4.09,3.79c10.17,11.12,15.33,18.58,2.52,30.44l-39.43,36.54c-2.35,2.17-4.52,5.23-.45,9.62,4.42,4.77,8.08,1.38,9.29.27h0c.06-.05.11-.11.17-.16l39.43-36.54,5.2,5.61-39.43,36.54c-2.35,2.17-4.52,5.23-.45,9.62,4.43,4.78,8.09,1.39,9.29.27h0c.06-.05.11-.11.17-.16l39.43-36.54,5.2,5.61-39.43,36.54c-4.8,4.44-3.27,6.59-.37,9.71Z"/>
          <path class="cls-1" d="M550.92,803.79c1.59-.46,3.31-.15,4.85.87.87.58,1.64,1.41,2.34,2.39-4.63,5.44-8.01,12.38-9.74,20.35-2.89,13.33-.42,26.07,6.13,31.7,5.89,5.06,14.02,3.8,19.46.29.09-.06.16-.12.24-.17l2.09,7.17c2.99,10.28,11.2,11.86,17.88,9.91,3.46-1.01,6.92-3.21,8.83-6.68,3.47,1.9,7.58,1.91,11.24.84,3.34-.97,6.67-3.07,8.62-6.33,4.4,2.53,9.39,1.09,11.57.45l-2.14-7.34c-4.09,1.19-6.69,1.6-8.52-4.68l-15.03-51.61-7.34,2.14,15.03,51.61c.02.08.05.15.08.23h-.01c.46,1.58,1.85,6.37-4.4,8.19-5.75,1.67-7.51-1.64-8.4-4.71l-15.03-51.61-7.34,2.14,15.03,51.61c.02.08.05.15.08.23h-.01c.46,1.58,1.85,6.37-4.4,8.19-5.74,1.67-7.51-1.64-8.4-4.71l-15.82-54.32c-.14-.49-.35-.92-.51-1.39,2.72-2.32,6.03-4.26,10.09-5.44l-2.14-7.34c-4.25,1.24-8.16,3.28-11.63,5.99-1.08-1.34-2.26-2.54-3.62-3.45-3.4-2.27-7.49-2.94-11.23-1.85-6.79,1.98-12.04,9.56-8.93,20.23l7.34-2.14c-1.78-6.12.68-9.86,3.73-10.75ZM571.85,851.09c-.32.69-2.14,2.52-5.37,3.36-1.61.43-4.65.86-6.98-1.14-4.28-3.68-5.85-14.12-3.64-24.28.69-3.17,2.25-8.56,5.58-13.72l10.42,35.78Z"/>
          <path class="cls-1" d="M704.82,726.5c4.91-.04,11.8,6.96,15.06,26.81,2.78,16.96,12.68,30.42,25.22,34.29,9.34,2.88,18.74,0,26.41-8.05,7.2-7.55,9.35-16.67,6.07-25.7-2.81-7.73-9.52-14.67-17.55-18.91.71-.51,1.4-1.05,2.05-1.66,7.79-7.35,8.15-19.67.8-27.47-7.35-7.79-19.67-8.15-27.47-.8-7.79,7.35-8.15,19.67-.8,27.47,3.2,3.39,7.34,5.37,11.64,5.93h0c10.27,1.16,20.88,9.09,24.14,18.06,2.3,6.33.82,12.32-4.42,17.8-5.69,5.96-12.11,8.03-18.62,6.02-9.64-2.97-17.64-14.31-19.93-28.21-1.28-7.82-6.71-33.33-22.65-33.22-3.48.02-6.67,1.42-9.2,3.81-2.84,2.68-4.86,6.61-5.56,11.27l7.56,1.13c.74-4.94,3.78-8.55,7.25-8.57ZM740.17,727.23c-4.46-4.73-4.24-12.2.49-16.66,4.73-4.46,12.2-4.24,16.66.49,4.46,4.73,4.24,12.2-.49,16.66-4.73,4.46-12.2,4.24-16.66-.49Z"/>
          <path class="cls-1" d="M823.57,559.09c.03,10.88,8.9,19.71,19.79,19.68,6.83-.02,12.85-3.53,16.38-8.83,1.62,6.67,2.95,15,2.97,24.53.07,24.64-8.6,41.47-8.68,41.63l6.76,3.57c.39-.74,9.64-18.57,9.57-45.22-.07-26.65-9.41-44.43-9.81-45.17l-.08.04c-3.4-5.99-9.84-10.04-17.22-10.03-10.88.03-19.71,8.9-19.68,19.79ZM855.39,559.01c.02,6.67-5.39,12.1-12.06,12.12-6.66.02-12.1-5.39-12.12-12.06-.02-6.67,5.39-12.1,12.06-12.12,6.66-.02,12.1,5.39,12.12,12.06ZM825.84,641.8c10.88-.03,19.71-8.9,19.68-19.79-.03-10.88-8.91-19.71-19.79-19.68-6.84.02-12.87,3.53-16.39,8.84-1.62-6.66-2.94-14.99-2.96-24.55-.07-24.64,8.6-41.47,8.68-41.63l-6.76-3.57c-.39.75-9.64,18.57-9.57,45.22.07,26.65,9.41,44.42,9.81,45.17l.08-.04c3.4,6,9.84,10.05,17.22,10.03ZM813.7,622.1c-.02-6.67,5.39-12.1,12.06-12.12,6.66-.02,12.1,5.39,12.12,12.06.02,6.67-5.39,12.1-12.06,12.12-6.66.02-12.1-5.39-12.12-12.06Z"/>
          <path class="cls-1" d="M869.74,425.07c6,13.36,11.47,20.22,11.79,20.6l5.94-4.81c-.1-.12-9.63-12.11-17.03-35.43-7.4-23.33-6.52-38.62-6.51-38.77l-7.63-.51c-.03.49-.55,9.25,2.25,23.63l-61.09,19.38c-6-13.36-11.47-20.22-11.78-20.6l-5.94,4.81c.1.12,9.63,12.11,17.03,35.43,7.4,23.33,6.52,38.62,6.51,38.77l7.63.51c.03-.49.55-9.25-2.25-23.63l61.09-19.38ZM806.99,436.95c-.81-3.29-1.77-6.77-2.94-10.47-1.17-3.7-2.4-7.09-3.63-10.25l59.79-18.97c.81,3.29,1.77,6.77,2.94,10.47,1.17,3.7,2.4,7.09,3.63,10.25l-59.79,18.97Z"/>
          <path class="cls-1" d="M461.51,812.01l-88.73-23.95-1.99,7.38,88.73,23.95,1.99-7.38ZM389.85,827.23c-5.17,3.37-10.2,8.89-12.23,16.39-3.75,13.89,4.27,26.47,19.51,30.58,15.23,4.11,28.49-2.72,32.24-16.61,2.03-7.5.46-14.8-2.32-20.32l25.76,6.95,1.99-7.38-38.52-10.4-1.99,7.36,1.95,1.56c2.88,2.32,8.33,10.62,5.74,20.23-2.62,9.7-11.81,14.21-22.87,11.22-11.06-2.99-16.73-11.51-14.12-21.2,2.59-9.6,11.48-14.04,15.14-14.59l2.47-.37,1.99-7.36-38.52-10.4-1.99,7.38,25.76,6.95Z"/>
        </g>
        <g>
          <rect class="cls-1" x="499.2" y="19.15" width="1.21" height="961.7"/>
          <rect class="cls-1" x="499.22" y="19.33" width="1.21" height="961.7" transform="translate(-183.12 316.93) rotate(-30)"/>
          <rect class="cls-1" x="499.33" y="19.47" width="1.21" height="961.7" transform="translate(-183.32 683.12) rotate(-60)"/>
          <rect class="cls-1" x="19.26" y="499.78" width="961.7" height="1.21"/>
          <rect class="cls-1" x="19.44" y="499.76" width="961.7" height="1.21" transform="translate(-183.07 316.84) rotate(-29.97)"/>
          <rect class="cls-1" x="19.58" y="499.65" width="961.7" height="1.21" transform="translate(-183.09 683.23) rotate(-59.98)"/>
        </g>
        <g>
          <path class="cls-1" d="M579.33,62.24l.3-1.49c1.21-5.96,5.53-8.82,10.83-7.74,5.36,1.09,8.17,5.34,6.94,11.35l-.3,1.49c-1.22,5.99-5.53,8.82-10.83,7.73-5.36-1.09-8.17-5.34-6.94-11.35ZM593.49,65.12l.3-1.49c.84-4.13-.92-6.78-3.98-7.41-3.15-.64-5.71,1.05-6.56,5.26l-.31,1.49c-.85,4.16.89,6.78,3.98,7.41,3.12.64,5.7-1.05,6.56-5.26Z"/>
          <path class="cls-1" d="M603.22,55.99l6.68,1.66c5.26,1.31,6.75,3.79,5.9,7.2-.43,1.73-1.63,3.03-3.59,3.51,1.91,1.41,2.49,3.34,1.98,5.38-.93,3.75-3.42,5.24-8.68,3.93l-7.24-1.81,4.96-19.89ZM603.88,67.89l-1.48,5.94,3.84.96c2.7.67,3.9-.05,4.41-2.07.5-1.99-.23-3.19-2.93-3.87l-3.84-.96ZM605.91,59.74l-1.34,5.37,3.27.82c2.7.67,3.91-.05,4.34-1.79.43-1.71-.3-2.91-3-3.58l-3.27-.81Z"/>
          <path class="cls-1" d="M621.21,60.68l12.68,3.53-.83,2.99-9.3-2.58-1.42,5.1,7.61,2.12-.83,2.99-7.61-2.12-1.57,5.67,9.3,2.58-.83,2.99-12.68-3.53,5.48-19.73Z"/>
          <path class="cls-1" d="M646.58,80.57l-9.15-3.08-2.87,8.52-3.33-1.12,6.53-19.42,3.33,1.12-2.68,7.96,9.15,3.08,2.68-7.97,3.33,1.12-6.53,19.42-3.33-1.12,2.86-8.52Z"/>
        </g>
        <g>
          <path class="cls-1" d="M631.76,915.05l12.01-4.03-1.4-4.16,3.22-1.08,2.38,7.1-1.61.54c-.7,2.33-.61,4.34,1.53,10.72l2.14,6.38-13.18,4.42-5.52-16.48-1.8.6-2.38-7.1,3.22-1.08,1.4,4.16ZM642.62,914.68l-7.96,2.67,4.54,13.54,6.52-2.18-1.15-3.44c-1.89-5.66-2.35-8.41-1.94-10.58Z"/>
          <path class="cls-1" d="M632,936.42l-12.66,3.66-.87-2.98,9.29-2.68-1.47-5.09-7.6,2.2-.86-2.98,7.6-2.2-1.64-5.65-9.29,2.68-.86-2.98,12.66-3.66,5.69,19.69Z"/>
          <path class="cls-1" d="M615.65,941.06l-6.68,1.65c-5.26,1.29-7.74-.2-8.58-3.62-.43-1.73.03-3.44,1.54-4.78-2.35-.35-3.76-1.79-4.26-3.83-.92-3.75.57-6.23,5.83-7.53l7.25-1.79,4.9,19.9ZM609.51,930.84l-1.46-5.94-3.84.95c-2.7.67-3.43,1.87-2.93,3.89.49,1.99,1.69,2.72,4.39,2.05l3.84-.95ZM611.52,939l-1.33-5.37-3.27.81c-2.7.66-3.43,1.87-3,3.6.42,1.71,1.63,2.43,4.33,1.77l3.27-.81Z"/>
          <path class="cls-1" d="M583.6,932.65l7.61-1.55.63-5.42,3.62-.73-3.09,21.55-4.02.82-11.26-18.63,3.79-.77,2.73,4.74ZM590.82,934.35l-5.6,1.14,2.33,4.1,2.19,3.86.51-4.41.57-4.69Z"/>
        </g>
        <g>
          <path class="cls-1" d="M788.8,147.18l12.27,10.42-2.01,2.36-4.8-4.07-11.25,13.25-2.68-2.27,11.25-13.25-4.79-4.07,2.01-2.37Z"/>
          <path class="cls-1" d="M803.32,159.62l9.72,8.9-2.1,2.29-7.12-6.53-3.58,3.91,5.83,5.34-2.1,2.29-5.83-5.34-3.98,4.34,7.13,6.53-2.1,2.29-9.72-8.9,13.84-15.11Z"/>
          <path class="cls-1" d="M802.27,182.34l.41.41c1.22,1.22,2.92,1.21,6.77-2.64l7.64-7.68,9.96,9.91-14.45,14.52-2.49-2.48,12.27-12.32-4.98-4.96-5.45,5.48c-5.5,5.52-8.52,5.53-11.57,2.49l-.41-.41,2.31-2.32Z"/>
          <path class="cls-1" d="M830.31,185.79l8.95,9.67-2.28,2.11-6.56-7.09-3.89,3.6,5.37,5.8-2.28,2.11-5.37-5.8-4.32,4,6.56,7.09-2.28,2.11-8.95-9.67,15.04-13.92Z"/>
          <path class="cls-1" d="M841.84,198.34l2.27,2.68-13.26,11.25,6.06,7.15,13.26-11.25,2.27,2.68-13.26,11.25,1.42,1.67-5.72,4.85-2.2-2.59,3.35-2.84-9.83-11.59,15.63-13.26Z"/>
        </g>
        <g>
          <path class="cls-1" d="M917.54,310.71l5.4,12.34-2.84,1.25-4-9.12-4.08,1.79,1.53,3.49c1.98,4.53.61,8.04-2.87,9.57-3.73,1.63-6.89.4-8.98-4.38l-2.94-6.71,18.78-8.22ZM909.18,318.2l-6.17,2.7,1.52,3.49c1.05,2.39,2.78,3.06,4.66,2.24,1.77-.78,2.51-2.67,1.51-4.95l-1.53-3.49Z"/>
          <path class="cls-1" d="M907.96,332.38l.21.55c.62,1.61,2.18,2.29,7.25.33l10.1-3.91,5.08,13.1-19.11,7.41-1.27-3.27,16.21-6.28-2.54-6.55-7.21,2.79c-7.26,2.81-10.03,1.59-11.58-2.42l-.21-.54,3.06-1.19Z"/>
          <path class="cls-1" d="M932.41,360.77l-3.02-.34-15.06-2.53-1.49-4.44,19.42-6.54,1.12,3.33-15.51,5.22,3.18.35,15.07,2.53,1.48,4.38-19.43,6.54-1.12-3.33,15.38-5.18Z"/>
          <path class="cls-1" d="M925.61,370.12l1.02,3.55c-2.48,1.02-3.3,2.51-2.59,4.98.71,2.47,2.2,3.3,3.92,2.8,1.71-.49,2.54-1.98,1.82-4.46l-.69-2.39,2.98-.86.69,2.39c.64,2.22,1.91,2.92,3.51,2.46,1.6-.46,2.3-1.73,1.66-3.95-.64-2.22-1.91-2.92-4.16-2.58l-1.02-3.54c4.05-.86,7.06.8,8.33,5.22,1.27,4.42-.39,7.43-3.51,8.33-1.86.54-3.6.19-5-1.15-.41,2.16-1.83,3.58-3.89,4.17-3.29.95-6.45-.79-7.81-5.52-1.37-4.73.38-7.88,4.71-9.44Z"/>
          <path class="cls-1" d="M935.83,400.23l-2.27-9.38-8.73,2.11-.82-3.41,19.91-4.81.82,3.41-8.17,1.97,2.27,9.39,8.16-1.97.83,3.41-19.91,4.81-.83-3.41,8.74-2.11Z"/>
          <path class="cls-1" d="M948.84,405.65l2.55,12.93-3.04.6-1.87-9.48-5.2,1.03,1.53,7.76-3.05.6-1.53-7.76-5.77,1.14,1.87,9.48-3.04.6-2.55-12.92,20.11-3.97Z"/>
          <path class="cls-1" d="M952.07,422.37l.54,3.47-17.18,2.64,1.42,9.25,17.18-2.64.54,3.47-17.18,2.64.33,2.17-7.4,1.14-.52-3.35,4.34-.67-2.31-15.01,20.24-3.11Z"/>
          <path class="cls-1" d="M955.31,444.02l.35,3.5-6.93.69.31,3.06c.52,5.21-1.86,8.13-5.94,8.54-4.34.43-6.97-1.71-7.52-7.19l-.66-6.55,20.39-2.05ZM956.97,460.62l.35,3.5-20.39,2.04-.35-3.49,20.39-2.05ZM945.64,448.52l-7.28.73.3,3.06c.29,2.88,1.73,4.06,4.06,3.83,2.21-.22,3.5-1.79,3.22-4.56l-.31-3.06Z"/>
        </g>
        <g>
          <path class="cls-1" d="M946.22,593.94l-1.55,6.85c-1.22,5.37-4.09,7.18-8.34,6.22-4-.91-6.01-4.09-4.85-9.2l.78-3.43-6.8-1.54.78-3.43,19.99,4.53ZM942.42,596.68l-7.14-1.61-.78,3.43c-.61,2.71.47,4.43,2.64,4.92,2.29.52,3.86-.48,4.5-3.3l.78-3.43Z"/>
          <path class="cls-1" d="M924.78,617.12l2-7.49-4.57-2.97.95-3.56,17.9,12.35-1.06,3.96-21.68,1.79.99-3.73,5.45-.33ZM929.51,611.41l-1.47,5.51,4.71-.26,4.43-.24-3.72-2.42-3.94-2.6Z"/>
          <path class="cls-1" d="M924.64,631.1l.61-1.95-8.57-2.69,1.05-3.35,19.54,6.13-1.05,3.35-8.01-2.52-.61,1.96,6.28,8.04-1.24,3.97-7.27-9.58-12.45,4,1.32-4.19,10.41-3.17Z"/>
        </g>
        <g>
          <path class="cls-1" d="M828.66,790.37l-.4.43c-1.17,1.27-1.1,2.96,2.89,6.66l7.95,7.35-9.53,10.31-15.04-13.9,2.38-2.58,12.76,11.8,4.77-5.15-5.67-5.24c-5.71-5.28-5.84-8.3-2.91-11.46l.39-.43,2.41,2.22Z"/>
          <path class="cls-1" d="M826.24,818.52l-9.33,9.29-2.19-2.2,6.84-6.81-3.74-3.75-5.6,5.57-2.19-2.2,5.6-5.57-4.15-4.17-6.84,6.81-2.19-2.2,9.33-9.29,14.45,14.52Z"/>
          <path class="cls-1" d="M814.13,830.48l-5.06,4.66c-3.98,3.67-6.88,3.55-9.26.96-1.21-1.31-1.63-3.03-.96-4.93-2.23.82-4.15.24-5.58-1.31-2.62-2.85-2.49-5.74,1.49-9.41l5.49-5.05,13.88,15.08ZM803.84,824.48l-4.14-4.5-2.91,2.68c-2.05,1.88-2.11,3.29-.7,4.82,1.39,1.51,2.8,1.57,4.84-.32l2.91-2.68ZM809.53,830.66l-3.75-4.07-2.48,2.28c-2.04,1.88-2.1,3.29-.89,4.6,1.19,1.29,2.6,1.35,4.64-.53l2.48-2.28Z"/>
        </g>
        <g>
          <path class="cls-1" d="M419.2,948.74l-6.75-1.33c-5.31-1.05-6.93-3.45-6.25-6.9.35-1.75,1.48-3.11,3.41-3.68-1.98-1.31-2.65-3.21-2.24-5.27.75-3.79,3.15-5.4,8.47-4.36l7.32,1.44-3.96,20.1ZM416.33,945.13l1.07-5.43-3.3-.65c-2.73-.54-3.9.25-4.24,2-.34,1.72.44,2.89,3.18,3.43l3.3.65ZM417.95,936.89l1.18-6-3.88-.76c-2.72-.54-3.89.25-4.3,2.29-.4,2.01.39,3.18,3.12,3.72l3.88.76Z"/>
          <path class="cls-1" d="M400.82,945l-12.81-3.06.72-3.02,9.39,2.24,1.23-5.15-7.69-1.83.72-3.02,7.68,1.83,1.36-5.72-9.39-2.24.72-3.02,12.81,3.05-4.75,19.92Z"/>
          <path class="cls-1" d="M388.22,930.66l-.4,1.47c-1.65,5.92-6.07,8.42-11.2,7-4.59-1.28-6.67-4.95-6.28-8.55l3.72,1.03c.08,1.9,1.1,3.7,3.44,4.35,2.99.83,5.62-.66,6.77-4.83l.41-1.46c1.14-4.12-.38-6.82-3.32-7.63-2.28-.63-4.19.44-5.35,2.52l-3.72-1.03c1.67-3.82,5.38-5.91,9.94-4.65,5.18,1.44,7.65,5.8,5.99,11.78Z"/>
          <path class="cls-1" d="M349.13,930.25l-3.33-1.11,6.48-19.44,3.33,1.11-6.48,19.44ZM364.96,935.53l-3.33-1.11,2.2-6.61-2.92-.97c-4.97-1.66-6.65-5.03-5.35-8.92,1.38-4.14,4.41-5.65,9.63-3.91l6.25,2.08-6.48,19.44ZM364.82,924.86l2.31-6.94-2.92-.97c-2.75-.92-4.41-.08-5.15,2.14-.71,2.11.2,3.93,2.84,4.8l2.92.97Z"/>
        </g>
        <g>
          <path class="cls-1" d="M248.04,866.88l-.88,1.24c-3.58,5-8.6,5.83-12.93,2.74-3.88-2.77-4.57-6.94-2.97-10.18l3.14,2.24c-.58,1.82-.24,3.86,1.74,5.27,2.52,1.8,5.5,1.31,8.02-2.22l.88-1.24c2.48-3.48,1.97-6.54-.5-8.31-1.93-1.38-4.09-1.02-5.89.54l-3.14-2.24c2.88-3.02,7.08-3.72,10.94-.96,4.38,3.13,5.2,8.07,1.59,13.12Z"/>
          <path class="cls-1" d="M227.33,851.03l1.61,1.26,5.54-7.07,2.76,2.17-12.62,16.13-2.77-2.16,5.17-6.61-1.61-1.26-9.73,3.04-3.27-2.56,11.52-3.43.63-13.06,3.46,2.71-.7,10.86Z"/>
          <path class="cls-1" d="M218.11,844.42l-.99,1.16c-3.95,4.63-9.11,5.03-13.22,1.52-4.16-3.55-4.56-8.62-.57-13.3l.99-1.16c3.97-4.65,9.11-5.03,13.22-1.52,4.16,3.55,4.56,8.63.57,13.3ZM207.12,835.04l-.99,1.16c-2.74,3.21-2.49,6.38-.1,8.41,2.45,2.09,5.5,1.85,8.29-1.42l.99-1.16c2.75-3.23,2.51-6.36.1-8.42-2.42-2.07-5.5-1.85-8.29,1.42Z"/>
          <path class="cls-1" d="M194.18,838.29l-5.14-4.79c-4.03-3.75-4.15-7.14-1.17-10.34,2.79-3,6.56-3.13,10.39.44l2.57,2.39,4.75-5.1,2.57,2.39-13.97,15ZM193.72,833.62l4.99-5.35-2.57-2.39c-2.04-1.9-4.06-1.82-5.58-.2-1.6,1.71-1.53,3.58.59,5.55l2.57,2.39Z"/>
          <path class="cls-1" d="M174.07,814.44l6.57,6.67,12.39-12.2,2.46,2.5-14.6,14.37-11.5-11.68,14.6-14.37,2.46,2.5-12.39,12.2Z"/>
          <path class="cls-1" d="M160.52,797.94l2.91-.87,14.83-3.61,3.12,3.49-15.26,13.66-2.34-2.62,12.19-10.91-3.06.93-14.83,3.61-3.08-3.44,15.26-13.66,2.34,2.62-12.08,10.81Z"/>
          <path class="cls-1" d="M160.84,788.11l-1.18.96c-4.72,3.84-9.87,3.32-13.29-.88-3.45-4.24-2.93-9.31,1.83-13.19l1.18-.96c4.75-3.86,9.87-3.31,13.29.89,3.45,4.24,2.93,9.31-1.83,13.19ZM151.72,776.9l-1.18.96c-3.27,2.66-3.6,5.83-1.62,8.26,2.03,2.5,5.08,2.81,8.42.09l1.18-.96c3.29-2.68,3.61-5.81,1.62-8.26-2.02-2.47-5.08-2.81-8.42-.09Z"/>
          <path class="cls-1" d="M139.78,760.28l5.73,7.76,7.23-5.33,2.08,2.82-16.47,12.16-2.09-2.82,6.76-4.98-5.73-7.77-6.75,4.99-2.08-2.82,16.47-12.16,2.09,2.82-7.23,5.34Z"/>
        </g>
        <g>
          <path class="cls-1" d="M92.25,678.1l-1.41.58c-5.68,2.36-10.38.41-12.42-4.51-1.83-4.41-.22-8.31,2.86-10.22l1.48,3.57c-1.45,1.24-2.24,3.15-1.31,5.39,1.19,2.87,3.98,4.02,7.98,2.36l1.41-.58c3.95-1.64,5.13-4.51,3.97-7.32-.91-2.19-2.94-3.03-5.29-2.65l-1.48-3.57c4.04-1.04,7.98.59,9.79,4.97,2.06,4.97.15,9.6-5.58,11.98Z"/>
          <path class="cls-1" d="M75.15,665.54l-5.59-15.1,2.91-1.08,2.18,5.9,16.31-6.04,1.22,3.3-16.31,6.03,2.18,5.9-2.91,1.08Z"/>
          <path class="cls-1" d="M68.56,647.49l-2.18-6.68c-1.71-5.23-.17-8.26,3.98-9.61,3.9-1.27,7.26.44,8.88,5.42l1.09,3.34,6.63-2.16,1.09,3.34-19.48,6.35ZM70.42,643.18l6.96-2.27-1.09-3.34c-.86-2.64-2.67-3.56-4.79-2.87-2.23.73-3.07,2.39-2.17,5.14l1.09,3.34Z"/>
          <path class="cls-1" d="M63.03,630.2l-3.61-12.66,2.98-.85,2.64,9.29,5.09-1.45-2.16-7.6,2.98-.85,2.17,7.6,5.65-1.61-2.64-9.29,2.98-.85,3.61,12.66-19.7,5.61Z"/>
          <path class="cls-1" d="M75.84,611.46l-.14-.57c-.4-1.68-1.85-2.57-7.14-1.29l-10.53,2.53-3.28-13.66,19.91-4.79.82,3.42-16.9,4.06,1.64,6.83,7.51-1.81c7.57-1.82,10.15-.24,11.15,3.94l.14.57-3.18.76Z"/>
          <path class="cls-1" d="M53.76,593.81l-2.55-12.93,3.05-.6,1.87,9.48,5.2-1.02-1.53-7.76,3.05-.6,1.53,7.76,5.78-1.14-1.87-9.48,3.04-.6,2.55,12.93-20.11,3.97Z"/>
          <path class="cls-1" d="M50.52,577.05l-.53-3.47,17.19-2.62-1.41-9.26-17.19,2.62-.53-3.47,17.19-2.62-.33-2.17,7.41-1.13.51,3.36-4.34.66,2.29,15.02-20.26,3.08Z"/>
        </g>
        <g>
          <path class="cls-1" d="M59.62,440.21l-.28,2.03,8.9,1.25-.49,3.48-20.29-2.85.49-3.48,8.32,1.17.29-2.03-7.51-6.91.58-4.12,8.74,8.27,11.63-5.99-.61,4.35-9.75,4.84Z"/>
          <path class="cls-1" d="M60.72,428.97l-1.5-.28c-5.99-1.1-8.92-5.36-7.94-10.69.99-5.38,5.18-8.27,11.22-7.16l1.5.28c6.01,1.11,8.92,5.36,7.95,10.69-.99,5.38-5.18,8.27-11.23,7.16ZM63.33,414.75l-1.5-.28c-4.14-.76-6.77,1.05-7.34,4.13-.58,3.17,1.16,5.69,5.39,6.46l1.5.28c4.18.77,6.76-1.02,7.34-4.13.58-3.14-1.16-5.69-5.39-6.46Z"/>
          <path class="cls-1" d="M67.1,409.17l.82-3.59c2.66.31,4.1-.59,4.68-3.1.58-2.51-.33-3.95-2.07-4.35-1.74-.4-3.18.5-3.75,3.01l-.56,2.43-3.02-.69.55-2.42c.51-2.26-.25-3.48-1.88-3.86-1.62-.37-2.86.4-3.37,2.65-.52,2.25.25,3.48,2.38,4.27l-.82,3.6c-3.96-1.21-5.79-4.12-4.76-8.6s3.94-6.3,7.11-5.58c1.88.43,3.24,1.58,3.81,3.43,1.41-1.69,3.34-2.24,5.42-1.76,3.34.76,5.25,3.82,4.16,8.61-1.1,4.79-4.15,6.71-8.7,5.96Z"/>
          <path class="cls-1" d="M58.17,387.66l3.43-12.71,3,.81-2.51,9.32,5.11,1.38,2.06-7.63,3,.81-2.06,7.63,5.68,1.53,2.51-9.32,2.99.81-3.43,12.71-19.78-5.33Z"/>
          <path class="cls-1" d="M62.67,371.19l2.1-6.7c1.65-5.25,4.65-6.82,8.81-5.51,3.91,1.23,5.65,4.56,4.08,9.56l-1.05,3.35,6.64,2.09-1.05,3.35-19.54-6.13ZM66.68,368.77l6.98,2.19,1.05-3.35c.83-2.65-.1-4.45-2.23-5.11-2.23-.7-3.88.16-4.75,2.92l-1.05,3.35Z"/>
          <path class="cls-1" d="M78.26,358.23l-1.43-.51c-5.73-2.05-7.94-6.72-6.12-11.82,1.84-5.15,6.44-7.33,12.23-5.26l1.43.51c5.76,2.06,7.94,6.73,6.12,11.82-1.84,5.15-6.44,7.33-12.23,5.26ZM83.12,344.61l-1.43-.51c-3.97-1.42-6.85-.06-7.9,2.89-1.08,3.03.23,5.8,4.28,7.25l1.43.51c3.99,1.43,6.84.08,7.9-2.89,1.07-3-.23-5.8-4.28-7.25Z"/>
          <path class="cls-1" d="M75.48,333.77l4.72-11.67,2.88,1.16-3.41,8.42,16.13,6.52-1.32,3.26-19-7.68Z"/>
        </g>
        <g>
          <path class="cls-1" d="M132.25,230.36l4.16-5.48c3.27-4.32,6.15-4.71,8.95-2.59,1.42,1.08,2.15,2.69,1.81,4.69,2.05-1.2,4.04-.98,5.72.3,3.08,2.33,3.47,5.21.2,9.52l-4.51,5.95-16.33-12.38ZM136.76,229.36l4.41,3.34,2.03-2.68c1.68-2.22,1.49-3.61.07-4.69-1.4-1.06-2.8-.87-4.48,1.35l-2.03,2.68ZM143.45,234.44l4.88,3.7,2.39-3.15c1.68-2.22,1.49-3.61-.17-4.87-1.63-1.24-3.03-1.05-4.71,1.17l-2.39,3.15Z"/>
          <path class="cls-1" d="M151.69,222.99l-1.17-.97c-4.68-3.89-5.16-9.04-1.71-13.21,3.5-4.21,8.57-4.69,13.3-.76l1.17.97c4.71,3.91,5.16,9.04,1.71,13.21-3.5,4.21-8.57,4.69-13.3.76ZM160.93,211.86l-1.17-.97c-3.25-2.69-6.42-2.4-8.42.01-2.06,2.48-1.77,5.53,1.54,8.28l1.17.97c3.27,2.71,6.4,2.42,8.42-.01,2.04-2.46,1.77-5.53-1.54-8.28Z"/>
          <path class="cls-1" d="M181.74,202.77l-8.52,9.38,3.25,2.95-2.28,2.51-5.55-5.04,1.14-1.26c-.53-2.38-1.59-4.09-6.57-8.62l-4.98-4.53,9.35-10.29,12.86,11.69,1.28-1.41,5.55,5.04-2.28,2.51-3.25-2.95ZM172.44,208.39l5.65-6.21-10.57-9.6-4.62,5.09,2.68,2.44c4.42,4.01,6.16,6.19,6.86,8.29Z"/>
          <path class="cls-1" d="M178.14,192.7l-1.08-1.07c-4.32-4.3-4.33-9.47-.51-13.31,3.86-3.88,8.95-3.89,13.31.45l1.08,1.07c4.34,4.32,4.33,9.47.51,13.31-3.86,3.88-8.96,3.89-13.31-.44ZM188.35,182.44l-1.08-1.07c-2.99-2.97-6.17-2.97-8.38-.75-2.27,2.28-2.27,5.35.79,8.38l1.08,1.07c3.01,2.99,6.15,2.99,8.38.75,2.25-2.26,2.27-5.34-.78-8.38Z"/>
          <path class="cls-1" d="M196.64,183.33l.43-.4c1.27-1.16,1.35-2.86-2.33-6.88l-7.31-7.99,10.37-9.49,13.84,15.12-2.6,2.37-11.74-12.83-5.18,4.74,5.22,5.7c5.26,5.75,5.13,8.77,1.95,11.67l-.43.4-2.21-2.42Z"/>
          <path class="cls-1" d="M201.41,155.49l10.07-8.48,2,2.37-7.39,6.22,3.41,4.05,6.04-5.09,1.99,2.37-6.04,5.09,3.79,4.5,7.39-6.22,2,2.37-10.07,8.48-13.19-15.67Z"/>
          <path class="cls-1" d="M213.9,137.6l2.13-1.64c.82,1.07,1.81,1.15,2.69.47.93-.72,1.09-1.7.27-2.76l2.09-1.61c1.54,1.99,1.25,4.17-1.11,5.99-2.36,1.82-4.54,1.54-6.08-.45ZM227.5,139.91l.66,2.96,2.52,15.06-3.71,2.86-12.51-16.23,2.78-2.14,9.99,12.96-.7-3.12-2.52-15.06,3.66-2.82,12.51,16.22-2.78,2.14-9.9-12.84Z"/>
        </g>
        <g>
          <path class="cls-1" d="M342.28,72.32l6.62-2.34c5.19-1.83,8.25-.36,9.7,3.75,1.36,3.87-.26,7.26-5.21,9l-3.31,1.17,2.32,6.57-3.31,1.17-6.81-19.32ZM346.62,74.07l2.43,6.9,3.31-1.17c2.62-.92,3.5-2.75,2.76-4.85-.78-2.21-2.46-3.01-5.19-2.05l-3.31,1.16Z"/>
          <path class="cls-1" d="M359.57,66.27l3.36-1.01,2,6.67,2.94-.88c5.01-1.51,8.33.28,9.51,4.2,1.25,4.18-.36,7.16-5.63,8.74l-6.3,1.89-5.88-19.61ZM365.83,74.91l2.1,7,2.94-.88c2.77-.83,3.66-2.47,2.98-4.71-.64-2.13-2.42-3.09-5.08-2.29l-2.94.88ZM375.54,61.48l3.36-1.01,5.88,19.61-3.36,1.01-5.88-19.61Z"/>
          <path class="cls-1" d="M383.61,59.27l13.06-3.24.75,3.01-9.65,2.4,1.07,4.32,3.69-.92c4.8-1.19,8.03.75,8.94,4.44.98,3.95-.77,6.86-5.82,8.11l-7.1,1.76-4.94-19.88ZM389.58,68.76l1.62,6.54,3.69-.92c2.53-.63,3.49-2.22,2.99-4.21-.46-1.87-2.2-2.92-4.61-2.32l-3.69.91Z"/>
          <path class="cls-1" d="M401.73,54.8l3.45-.68,1.35,6.84,3.02-.6c5.14-1.01,8.27,1.09,9.07,5.11.85,4.28-1.05,7.1-6.45,8.17l-6.46,1.28-3.97-20.11ZM407.13,64l1.42,7.18,3.02-.6c2.84-.56,3.88-2.11,3.43-4.41-.43-2.18-2.12-3.32-4.85-2.78l-3.02.6ZM418.11,51.57l3.45-.68,3.97,20.11-3.45.68-3.97-20.11Z"/>
        </g>
      </g>
    </g>
  </g>
</svg>