<svg width="773" height="773" viewBox="0 0 773 773" fill="none" xmlns="http://www.w3.org/2000/svg">
<path d="M386.345 15.8151C591.067 15.8151 757.03 181.778 757.03 386.5C757.03 591.221 591.067 757.184 386.345 757.184C181.624 757.184 15.6608 591.221 15.6608 386.5C15.6608 181.778 181.624 15.8151 386.345 15.8151ZM386.345 14.8721C336.178 14.8721 287.509 24.6969 241.694 44.076C197.44 62.7903 157.7 89.5902 123.564 123.718C89.436 157.846 62.636 197.594 43.9217 241.848C24.5426 287.664 14.7178 336.332 14.7178 386.5C14.7178 436.667 24.5426 485.335 43.9217 531.151C62.636 575.405 89.436 615.145 123.564 649.281C157.692 683.409 197.44 710.209 241.694 728.923C287.509 748.302 336.178 758.127 386.345 758.127C436.513 758.127 485.181 748.302 530.997 728.923C575.251 710.209 614.991 683.409 649.127 649.281C683.255 615.153 710.055 575.405 728.769 531.151C748.148 485.335 757.973 436.667 757.973 386.5C757.973 336.332 748.148 287.664 728.769 241.848C710.055 197.594 683.255 157.854 649.127 123.718C614.999 89.5902 575.251 62.7903 530.997 44.076C485.181 24.6969 436.513 14.8721 386.345 14.8721Z" fill="white"/>
<path d="M386.345 56.9621C568.34 56.9621 715.883 204.497 715.883 386.5C715.883 568.503 568.348 716.037 386.345 716.037C204.342 716.037 56.815 568.495 56.815 386.5C56.815 204.505 204.35 56.9621 386.345 56.9621ZM386.345 56.1118C341.743 56.1118 298.478 64.8467 257.741 82.0769C218.395 98.7196 183.069 122.536 152.721 152.884C122.381 183.224 98.557 218.558 81.9143 257.904C64.6841 298.633 55.9492 341.905 55.9492 386.508C55.9492 431.11 64.6841 474.374 81.9143 515.112C98.557 554.457 122.373 589.783 152.721 620.131C183.061 650.472 218.395 674.295 257.741 690.938C298.47 708.168 341.743 716.903 386.345 716.903C430.947 716.903 474.212 708.168 514.949 690.938C554.295 674.295 589.621 650.479 619.969 620.131C650.309 589.791 674.133 554.457 690.776 515.112C708.006 474.382 716.741 431.11 716.741 386.508C716.741 341.905 708.006 298.641 690.776 257.904C674.133 218.558 650.317 183.232 619.969 152.884C589.628 122.543 554.295 98.7196 514.949 82.0769C474.22 64.8467 430.947 56.1118 386.345 56.1118Z" fill="white"/>
<path d="M386.345 173.175C504.158 173.175 599.67 268.679 599.67 386.5C599.67 504.32 504.166 599.824 386.345 599.824C268.525 599.824 173.021 504.313 173.021 386.5C173.021 268.687 268.532 173.175 386.345 173.175ZM386.345 172.626C357.474 172.626 329.46 178.284 303.093 189.431C277.623 200.207 254.75 215.628 235.108 235.27C215.466 254.912 200.045 277.785 189.277 303.255C178.122 329.622 172.472 357.636 172.472 386.507C172.472 415.379 178.13 443.392 189.277 469.759C200.052 495.23 215.474 518.103 235.108 537.745C254.75 557.387 277.623 572.808 303.093 583.576C329.46 594.73 357.474 600.381 386.345 600.381C415.217 600.381 443.23 594.723 469.597 583.576C495.068 572.8 517.941 557.379 537.583 537.745C557.225 518.103 572.646 495.23 583.422 469.759C594.576 443.392 600.227 415.379 600.227 386.507C600.227 357.636 594.568 329.622 583.422 303.255C572.646 277.785 557.225 254.912 537.583 235.27C517.941 215.628 495.068 200.207 469.597 189.431C443.23 178.277 415.217 172.626 386.345 172.626Z" fill="white"/>
<path d="M386.346 25.2688C585.849 25.2688 747.576 186.996 747.576 386.499C747.576 586.003 585.849 747.73 386.346 747.73C186.842 747.73 25.1227 586.003 25.1227 386.499C25.1227 186.996 186.85 25.2688 386.346 25.2688ZM386.346 24.3335C337.453 24.3335 290.022 33.911 245.374 52.7954C202.248 71.0382 163.513 97.1501 130.258 130.412C96.9963 163.674 70.8843 202.402 52.6415 245.527C33.7572 290.176 24.1797 337.607 24.1797 386.499C24.1797 435.392 33.7572 482.823 52.6415 527.471C70.8843 570.597 96.9963 609.332 130.258 642.587C163.521 675.849 202.248 701.961 245.374 720.204C290.022 739.088 337.453 748.665 386.346 748.665C435.238 748.665 482.669 739.088 527.318 720.204C570.443 701.961 609.178 675.849 642.433 642.587C675.695 609.324 701.807 570.597 720.05 527.471C738.934 482.823 748.512 435.392 748.512 386.499C748.512 337.607 738.934 290.176 720.05 245.527C701.807 202.402 675.695 163.667 642.433 130.412C609.171 97.1501 570.443 71.0382 527.318 52.7954C482.669 33.911 435.238 24.3335 386.346 24.3335Z" fill="white"/>
<path d="M386.345 216.695C480.125 216.695 556.15 292.719 556.15 386.5C556.15 480.28 480.125 556.305 386.345 556.305C292.565 556.305 216.54 480.28 216.54 386.5C216.54 292.719 292.565 216.695 386.345 216.695ZM386.345 216.053C340.815 216.053 298.014 233.786 265.819 265.974C233.623 298.169 215.898 340.97 215.898 386.5C215.898 432.029 233.631 474.83 265.819 507.026C298.014 539.221 340.815 556.946 386.345 556.946C431.875 556.946 474.676 539.214 506.871 507.026C539.067 474.83 556.791 432.029 556.791 386.5C556.791 340.97 539.059 298.169 506.871 265.974C474.676 233.778 431.875 216.053 386.345 216.053Z" fill="white"/>
<path d="M386.345 236.584C469.141 236.584 536.261 303.704 536.261 386.5C536.261 469.296 469.141 536.415 386.345 536.415C303.549 536.415 236.43 469.296 236.43 386.5C236.43 303.704 303.549 236.584 386.345 236.584ZM386.345 235.942C346.134 235.942 308.319 251.603 279.888 280.042C251.449 308.481 235.788 346.288 235.788 386.5C235.788 426.711 251.449 464.526 279.888 492.957C308.326 521.396 346.134 537.057 386.345 537.057C426.557 537.057 464.372 521.396 492.803 492.957C521.242 464.518 536.902 426.711 536.902 386.5C536.902 346.288 521.242 308.473 492.803 280.042C464.364 251.603 426.557 235.942 386.345 235.942Z" fill="white"/>
<path d="M460.205 258.583L534.057 386.499L460.205 514.415H312.5L238.648 386.499L312.5 258.583H460.205ZM460.421 258.205H312.284L312.175 258.39L238.323 386.306L238.215 386.492L238.323 386.677L312.175 514.593L312.284 514.779H460.421L460.53 514.593L534.382 386.677L534.49 386.492L534.382 386.306L460.53 258.39L460.421 258.205Z" fill="white"/>
<path d="M386.345 325.154L439.473 355.827V417.172L386.345 447.845L333.216 417.172V355.827L386.345 325.154ZM386.345 324.064L385.873 324.335L332.745 355.008L332.273 355.278V417.713L332.745 417.984L385.873 448.657L386.345 448.927L386.816 448.657L439.945 417.984L440.416 417.713V355.278L439.945 355.008L386.816 324.335L386.345 324.064Z" fill="white"/>
<path d="M460.962 515.737L386.345 448.479L311.727 515.737L332.668 417.489L237.109 386.5L332.668 355.51L311.727 257.262L386.345 324.52L460.962 257.262L440.022 355.51L535.58 386.5L440.022 417.489L460.962 515.737ZM386.352 447.211L386.669 447.497L459.44 513.094L438.932 416.855L439.334 416.724L532.527 386.5L438.932 356.144L439.017 355.726L459.44 259.905L386.352 325.788L313.265 259.905L333.773 356.144L333.371 356.275L240.178 386.5L333.781 416.855L313.273 513.094L386.36 447.211H386.352Z" fill="white"/>
<path d="M497.796 451.663H275.86L276.262 450.96L386.368 257.439L497.804 451.663H497.796ZM277.476 450.72H496.165L386.361 259.341L277.468 450.72H277.476Z" fill="white"/>
<path d="M386.368 515.962L385.958 515.251L274.793 322.557H496.737L386.368 515.962ZM276.424 323.5L386.368 514.068L495.113 323.5H276.424Z" fill="white"/>
<path d="M425.791 409.643H347.169L347.409 409.218L386.484 340.467L425.799 409.643H425.791ZM348.143 409.071H424.825L386.484 341.611L348.143 409.071Z" fill="white"/>
<path d="M385.734 432.702L385.494 432.269L346.806 363.897H425.435L385.742 432.694L385.734 432.702ZM347.764 364.469L385.734 431.558L424.438 364.469H347.764Z" fill="white"/>
<path d="M386.353 413.477C371.472 413.477 359.375 401.372 359.375 386.5C359.375 371.627 371.48 359.522 386.353 359.522C401.225 359.522 413.33 371.627 413.33 386.5C413.33 401.372 401.225 413.477 386.353 413.477ZM386.353 360.086C371.789 360.086 359.939 371.936 359.939 386.5C359.939 401.063 371.789 412.913 386.353 412.913C400.916 412.913 412.766 401.063 412.766 386.5C412.766 371.936 400.916 360.086 386.353 360.086Z" fill="white"/>
<path d="M386.352 514.431C315.808 514.431 258.421 457.036 258.421 386.492C258.421 315.948 315.808 258.561 386.352 258.561C456.896 258.561 514.284 315.948 514.284 386.492C514.284 457.036 456.896 514.431 386.352 514.431ZM386.352 259.133C316.118 259.133 258.985 316.273 258.985 386.5C258.985 456.727 316.125 513.867 386.352 513.867C456.579 513.867 513.72 456.735 513.72 386.5C513.72 316.265 456.579 259.133 386.352 259.133Z" fill="white"/>
<path d="M386.353 475.619C337.213 475.619 297.233 435.639 297.233 386.492C297.233 337.344 337.213 297.373 386.353 297.373C435.492 297.373 475.472 337.352 475.472 386.492C475.472 435.631 435.492 475.619 386.353 475.619ZM386.353 297.945C337.522 297.945 297.798 337.669 297.798 386.499C297.798 435.33 337.522 475.054 386.353 475.054C435.183 475.054 474.907 435.33 474.907 386.499C474.907 337.669 435.183 297.945 386.353 297.945Z" fill="white"/>
<g style="mix-blend-mode:screen">
<path d="M593.64 189.323C586.529 192.353 583.166 190.56 580.816 188.411C578.466 186.262 576.387 183.069 578.838 175.548C581.991 165.862 584.272 158.859 578.289 153.378L574.3 157.738C577.353 160.536 576.178 164.656 573.164 173.886C571.417 179.235 571.401 183.742 573.056 187.537C565.341 184.074 555.941 185.721 549.92 192.299C542.414 200.5 542.978 213.27 551.172 220.776C559.373 228.282 572.143 227.718 579.657 219.524C585.679 212.954 586.49 203.438 582.362 196.056C586.305 197.37 590.827 196.945 596.114 194.695C604.888 190.954 608.892 189.416 611.945 192.214L615.934 187.854C609.943 182.366 603.164 185.257 593.64 189.323ZM575.297 215.535C569.994 221.333 560.958 221.727 555.168 216.424C549.371 211.122 548.977 202.093 554.279 196.295C559.582 190.498 568.611 190.104 574.408 195.406C580.206 200.709 580.6 209.746 575.297 215.535Z" fill="white"/>
<path d="M431.659 94.035C434.952 91.0435 439.196 90.085 443.61 91.3295C451.34 93.5171 458.49 101.773 456.441 125.859C467.31 104.27 477.73 100.984 485.46 103.172C489.874 104.424 492.989 107.462 494.226 111.737C496.305 118.949 492.734 127.9 488.134 133.01L483.744 129.052C487.709 124.646 489.819 117.758 488.552 113.368C487.879 111.033 486.341 109.549 483.86 108.846C478.425 107.307 464.14 109.534 448.928 163.273L443.238 161.665C458.443 107.926 447.444 98.5416 442.009 97.0033C439.528 96.2999 437.441 96.756 435.64 98.3947C432.262 101.471 430.445 108.444 431.52 114.272L425.707 115.339C424.462 108.567 426.117 99.075 431.667 94.0196L431.659 94.035Z" fill="white"/>
<path d="M290.679 132.036L304.725 128.047C298.038 107.261 285.554 105.213 285.431 105.197L286.25 99.3455C286.938 99.4383 302.661 101.935 310.445 126.424L321.808 123.193C315.547 98.2633 327.613 87.8742 328.147 87.4336L330.033 89.7062L331.942 91.9634C331.532 92.319 322.341 100.652 327.521 121.569L341.566 117.581L343.181 123.27L329.182 127.251C336.078 147.171 348.879 151.763 349.451 151.956L347.595 157.568C346.907 157.344 331.393 151.971 323.501 128.859L311.968 132.136C317.41 155.945 307.044 168.668 306.572 169.225L302.058 165.414C302.429 164.958 310.893 154.321 306.286 133.752L292.287 137.733L290.672 132.043L290.679 132.036Z" fill="white"/>
<path d="M213.317 198.9L199.016 196.612L194.718 217.8L180.418 215.512L175.556 239.483L181.346 240.658L185.079 222.245L199.38 224.533L203.678 203.345L217.978 205.633L222.276 184.445L233.778 186.285L234.713 180.449L217.615 177.712L213.317 198.9ZM166.79 204.257L181.09 206.545L185.388 185.357L199.689 187.645L203.987 166.457L215.489 168.297L216.424 162.461L199.326 159.725L195.028 180.913L180.727 178.624L176.429 199.812L162.129 197.524L157.267 221.495L163.056 222.67L166.79 204.257Z" fill="white"/>
<path d="M93.4091 306.247C95.8131 310.838 100.783 313.134 107.037 312.539C112.363 312.036 116.615 308.566 120.186 304.476C120.248 307.375 119.119 310.63 117.936 314.023L112.881 328.617C108.784 340.444 115.416 347.44 122.35 349.844C126.192 351.173 130.544 351.32 134.285 350.238C134.78 350.099 135.252 349.929 135.708 349.751C135.831 350.88 136.071 351.954 136.55 352.889C138.274 356.291 141.683 357.334 143.515 357.906C143.731 357.976 143.94 358.038 144.11 358.099L146.043 352.511C145.811 352.426 145.54 352.348 145.246 352.256C143.979 351.869 142.41 351.382 141.814 350.215C141.242 349.086 141.397 347.185 142.255 344.711L155.566 306.293L149.977 304.361L137.393 340.668C135.947 344.827 129.276 346.002 124.275 344.271C122.42 343.629 119.923 342.315 118.532 339.702C117.225 337.252 117.202 334.175 118.454 330.558L123.51 315.963C125.396 310.537 127.529 304.384 124.762 298.594C124.978 298.3 125.187 298.006 125.404 297.713C127.274 295.131 130.405 290.818 131.618 290.709L141.853 294.257L143.785 288.669L133.551 285.121C128.65 283.42 124.901 288.344 120.974 293.74C118.362 291.482 114.752 289.604 110.005 288.073C104.092 286.156 98.6887 287.432 95.1792 291.591C91.7471 295.649 91.0205 301.67 93.4013 306.223L93.4091 306.247ZM99.6936 295.425C101.603 293.167 104.618 292.557 108.181 293.716C112.317 295.061 115.447 296.685 117.434 298.532C114.195 302.652 110.601 306.27 106.473 306.664C102.623 307.027 99.91 305.937 98.6423 303.518C97.3591 301.068 97.8074 297.674 99.6936 295.432V295.425Z" fill="white"/>
<path d="M138.684 455.474L144.018 468.445L138.553 470.694L133.219 457.724L99.1527 471.715L122.466 481.447L120.186 486.904L87.5654 473.284L101.186 440.663L106.643 442.944L96.911 466.25L130.977 452.251L125.643 439.28L131.109 437.038L136.442 450.009L159.694 440.455L161.936 445.92L138.684 455.474Z" fill="white"/>
<path d="M195.507 617.016L191.17 621.035C189.98 619.752 187.259 616.799 187.483 612.88C184.553 612.664 181.948 611.087 180.124 609.108C178.122 606.944 176.708 604.099 176.816 601.046C173.755 600.922 171.034 599.299 169.14 597.25C165.484 593.3 163.737 587.085 169.805 581.458L200.284 553.212C206.012 547.902 205.796 546.534 198.019 538.031L194.865 540.953L194.548 529.922L205.525 531.081L202.363 534.011C210.225 542.607 214.213 548.373 204.311 557.541L173.832 585.787C172.015 587.464 170.338 589.829 173.484 593.223C176.901 596.91 179.73 594.29 180.665 593.432C180.712 593.393 180.75 593.347 180.797 593.308L211.276 565.062L215.296 569.399L184.816 597.644C183 599.322 181.322 601.687 184.468 605.081C187.893 608.776 190.722 606.155 191.65 605.289C191.696 605.251 191.735 605.204 191.781 605.166L222.26 576.92L226.28 581.257L195.801 609.502C192.09 612.934 193.273 614.596 195.515 617.008L195.507 617.016Z" fill="white"/>
<path d="M425.861 621.329C427.09 620.974 428.42 621.213 429.61 622.002C430.283 622.45 430.878 623.092 431.419 623.849C427.84 628.054 425.227 633.419 423.89 639.58C421.656 649.884 423.565 659.732 428.628 664.084C433.181 667.995 439.466 667.021 443.671 664.308C443.74 664.262 443.795 664.215 443.856 664.177L445.472 669.719C447.783 677.666 454.13 678.887 459.293 677.38C461.968 676.599 464.642 674.898 466.119 672.216C468.801 673.685 471.978 673.692 474.807 672.865C477.389 672.115 479.963 670.492 481.471 667.972C484.872 669.928 488.729 668.815 490.414 668.32L488.76 662.646C485.598 663.566 483.589 663.883 482.174 659.029L470.556 619.134L464.882 620.788L476.5 660.683C476.516 660.745 476.539 660.799 476.562 660.861H476.554C476.91 662.082 477.984 665.785 473.153 667.191C468.708 668.482 467.348 665.924 466.66 663.551L455.042 623.656L449.368 625.31L460.986 665.205C461.002 665.267 461.025 665.321 461.048 665.383H461.04C461.396 666.604 462.47 670.307 457.639 671.713C453.202 673.004 451.834 670.446 451.146 668.073L438.917 626.083C438.809 625.705 438.646 625.372 438.523 625.009C440.625 623.215 443.184 621.716 446.322 620.804L444.668 615.13C441.383 616.088 438.36 617.665 435.678 619.76C434.843 618.724 433.931 617.797 432.88 617.093C430.252 615.339 427.09 614.821 424.199 615.663C418.95 617.194 414.892 623.053 417.296 631.301L422.97 629.647C421.594 624.916 423.496 622.025 425.853 621.337L425.861 621.329ZM442.04 657.892C441.792 658.426 440.386 659.84 437.889 660.49C436.644 660.822 434.294 661.154 432.493 659.608C429.185 656.764 427.971 648.694 429.68 640.84C430.213 638.389 431.419 634.223 433.993 630.234L442.048 657.892H442.04Z" fill="white"/>
<path d="M544.826 561.584C548.621 561.553 553.947 566.964 556.467 582.308C558.616 595.418 566.269 605.823 575.962 608.814C583.182 611.04 590.449 608.814 596.377 602.592C601.943 596.755 603.605 589.706 601.07 582.725C598.897 576.75 593.711 571.386 587.503 568.108C588.052 567.714 588.586 567.296 589.088 566.825C595.11 561.143 595.388 551.62 589.706 545.591C584.025 539.569 574.501 539.291 568.472 544.972C562.45 550.654 562.172 560.177 567.854 566.206C570.327 568.827 573.528 570.357 576.851 570.79C584.79 571.687 592.992 577.817 595.512 584.751C597.29 589.644 596.145 594.274 592.095 598.51C587.697 603.117 582.734 604.717 577.702 603.164C570.25 600.868 564.066 592.102 562.296 581.357C561.306 575.312 557.109 555.593 544.787 555.678C542.097 555.694 539.631 556.776 537.676 558.623C535.48 560.695 533.919 563.733 533.378 567.335L539.222 568.209C539.794 564.39 542.144 561.599 544.826 561.584ZM572.152 562.148C568.704 558.492 568.874 552.718 572.53 549.27C576.187 545.822 581.961 545.993 585.409 549.649C588.856 553.305 588.686 559.079 585.03 562.527C581.374 565.975 575.599 565.805 572.152 562.148Z" fill="white"/>
<path d="M636.62 432.176C636.643 440.586 643.499 447.412 651.917 447.389C657.197 447.373 661.85 444.66 664.579 440.563C665.831 445.719 666.859 452.158 666.875 459.525C666.929 478.571 660.227 491.581 660.165 491.705L665.391 494.464C665.692 493.892 672.842 480.11 672.788 459.509C672.734 438.909 665.514 425.165 665.205 424.593L665.143 424.624C662.515 419.994 657.537 416.863 651.832 416.871C643.422 416.894 636.596 423.75 636.62 432.168V432.176ZM661.216 432.114C661.232 437.27 657.05 441.468 651.894 441.483C646.746 441.498 642.541 437.316 642.525 432.161C642.51 427.005 646.692 422.807 651.848 422.792C656.996 422.776 661.201 426.958 661.216 432.114ZM638.374 496.111C646.785 496.088 653.61 489.231 653.587 480.813C653.564 472.403 646.7 465.577 638.289 465.601C633.002 465.616 628.341 468.329 625.62 472.434C624.368 467.286 623.347 460.847 623.332 453.457C623.278 434.41 629.98 421.4 630.041 421.277L624.816 418.517C624.514 419.097 617.364 432.872 617.418 453.472C617.472 474.073 624.692 487.809 625.001 488.389L625.063 488.358C627.691 492.996 632.67 496.126 638.374 496.111ZM628.99 480.883C628.975 475.727 633.157 471.529 638.312 471.514C643.461 471.499 647.666 475.68 647.681 480.836C647.697 485.992 643.515 490.19 638.359 490.205C633.211 490.221 629.006 486.039 628.99 480.883Z" fill="white"/>
<path d="M672.309 328.579C676.947 338.906 681.176 344.209 681.423 344.503L686.015 340.785C685.937 340.692 678.571 331.423 672.85 313.397C667.13 295.363 667.81 283.544 667.818 283.428L661.92 283.034C661.897 283.412 661.495 290.184 663.659 301.3L616.437 316.28C611.799 305.953 607.571 300.65 607.331 300.357L602.739 304.075C602.817 304.168 610.183 313.436 615.903 331.462C621.624 349.496 620.943 361.315 620.936 361.431L626.834 361.826C626.857 361.447 627.259 354.675 625.094 343.56L672.317 328.579H672.309ZM623.804 337.762C623.177 335.219 622.435 332.529 621.531 329.669C620.626 326.809 619.676 324.188 618.725 321.746L664.943 307.082C665.569 309.625 666.311 312.315 667.215 315.175C668.12 318.035 669.07 320.656 670.021 323.098L623.804 337.762Z" fill="white"/>
<path d="M356.747 627.683L288.159 609.17L286.62 614.875L355.209 633.388L356.747 627.683ZM301.354 639.448C297.357 642.053 293.469 646.32 291.9 652.118C289.001 662.855 295.201 672.579 306.981 675.756C318.754 678.933 329.004 673.654 331.903 662.917C333.472 657.119 332.258 651.476 330.109 647.209L350.022 652.582L351.56 646.877L321.784 638.838L320.246 644.527L321.753 645.733C323.98 647.526 328.192 653.942 326.19 661.371C324.165 668.869 317.061 672.355 308.512 670.044C299.962 667.732 295.579 661.146 297.597 653.656C299.599 646.235 306.471 642.803 309.3 642.378L311.21 642.092L312.748 636.403L282.972 628.364L281.434 634.068L301.346 639.441L301.354 639.448Z" fill="white"/>
</g>
<path d="M386.816 14.8027H385.881V758.197H386.816V14.8027Z" fill="white"/>
<path d="M200.925 64.5109L200.115 64.9785L571.812 708.777L572.622 708.309L200.925 64.5109Z" fill="white"/>
<path d="M64.786 200.497L64.3184 201.307L708.117 573.004L708.584 572.194L64.786 200.497Z" fill="white"/>
<path d="M758.282 386.33H14.8877V387.265H758.282V386.33Z" fill="white"/>
<path d="M708.479 200.709L64.4863 572.069L64.9536 572.88L708.946 201.52L708.479 200.709Z" fill="white"/>
<path d="M572.383 64.5948L200.461 708.263L201.271 708.731L573.193 65.0627L572.383 64.5948Z" fill="white"/>
<path d="M447.822 48.1114L448.054 46.9596C448.989 42.3525 452.329 40.1417 456.425 40.9766C460.569 41.8191 462.741 45.1044 461.79 49.7501L461.558 50.9019C460.615 55.5322 457.283 57.7197 453.187 56.8772C449.043 56.0346 446.871 52.7494 447.822 48.1036V48.1114ZM458.768 50.3376L458.999 49.1858C459.649 45.9933 458.288 43.9449 455.923 43.4579C453.488 42.9632 451.509 44.2695 450.852 47.5239L450.612 48.6756C449.955 51.8913 451.3 53.9166 453.689 54.4036C456.101 54.8983 458.095 53.5919 458.76 50.3376H458.768Z" fill="white"/>
<path d="M466.289 43.2801L471.453 44.5633C475.519 45.5759 476.671 47.493 476.014 50.1289C475.681 51.4662 474.754 52.4711 473.239 52.8421C474.715 53.932 475.163 55.4239 474.769 57.0009C474.05 59.8996 472.125 61.0514 468.059 60.0387L462.463 58.6396L466.297 43.2646L466.289 43.2801ZM466.799 52.4788L465.655 57.0704L468.624 57.8125C470.711 58.3304 471.638 57.7739 472.033 56.2124C472.419 54.6741 471.855 53.7465 469.768 53.2209L466.799 52.4788ZM468.369 46.1789L467.333 50.3299L469.861 50.9637C471.948 51.4816 472.883 50.9251 473.215 49.5801C473.548 48.2582 472.983 47.3306 470.896 46.8127L468.369 46.1866V46.1789Z" fill="white"/>
<path d="M480.195 46.9053L489.997 49.634L489.355 51.9452L482.166 49.9509L481.069 53.8932L486.951 55.5319L486.309 57.8432L480.427 56.2045L479.213 60.5874L486.402 62.5817L485.761 64.893L475.959 62.1643L480.195 46.913V46.9053Z" fill="white"/>
<path d="M499.806 62.2802L492.733 59.8994L490.515 66.4853L487.94 65.6196L492.988 50.6079L495.562 51.4737L493.491 57.6268L500.564 60.0076L502.635 53.8468L505.209 54.7125L500.162 69.7242L497.588 68.8584L499.798 62.2725L499.806 62.2802Z" fill="white"/>
<path d="M488.351 707.334L497.634 704.218L496.552 701.003L499.041 700.168L500.881 705.656L499.636 706.074C499.095 707.875 499.165 709.428 500.819 714.36L502.473 719.292L492.285 722.709L488.018 709.97L486.627 710.433L484.787 704.945L487.276 704.11L488.358 707.326L488.351 707.334ZM496.745 707.048L490.592 709.112L494.102 719.578L499.142 717.893L498.253 715.234C496.792 710.859 496.436 708.733 496.753 707.055L496.745 707.048Z" fill="white"/>
<path d="M488.536 723.853L478.75 726.682L478.077 724.378L485.259 722.307L484.122 718.372L478.247 720.073L477.583 717.769L483.457 716.069L482.19 711.701L475.009 713.773L474.344 711.469L484.13 708.64L488.528 723.861L488.536 723.853Z" fill="white"/>
<path d="M475.898 727.439L470.734 728.715C466.668 729.712 464.751 728.56 464.102 725.917C463.77 724.579 464.125 723.257 465.293 722.222C463.476 721.951 462.386 720.838 462 719.261C461.288 716.362 462.44 714.445 466.506 713.44L472.11 712.057L475.898 727.439ZM471.152 719.539L470.023 714.948L467.055 715.682C464.968 716.2 464.404 717.128 464.79 718.689C465.169 720.227 466.096 720.792 468.184 720.274L471.152 719.539ZM472.706 725.847L471.678 721.696L469.15 722.322C467.063 722.832 466.498 723.768 466.831 725.105C467.155 726.427 468.091 726.983 470.178 726.473L472.706 725.847Z" fill="white"/>
<path d="M451.123 720.938L457.006 719.74L457.493 715.551L460.291 714.986L457.902 731.644L454.795 732.278L446.091 717.877L449.02 717.282L451.131 720.946L451.123 720.938ZM456.704 722.252L452.375 723.134L454.176 726.303L455.869 729.287L456.263 725.878L456.704 722.252Z" fill="white"/>
<path d="M609.743 113.77L619.227 121.825L617.674 123.649L613.963 120.503L605.267 130.745L603.195 128.99L611.892 118.748L608.189 115.602L609.743 113.77Z" fill="white"/>
<path d="M620.967 123.386L628.48 130.266L626.857 132.036L621.353 126.988L618.586 130.011L623.093 134.139L621.469 135.909L616.963 131.781L613.886 135.136L619.398 140.184L617.774 141.954L610.261 135.074L620.959 123.394L620.967 123.386Z" fill="white"/>
<path d="M620.155 140.949L620.472 141.265C621.415 142.209 622.729 142.201 625.705 139.225L631.611 133.288L639.31 140.949L628.14 152.172L626.215 150.255L635.7 140.732L631.85 136.898L627.638 141.134C623.386 145.401 621.052 145.409 618.694 143.059L618.377 142.742L620.163 140.949H620.155Z" fill="white"/>
<path d="M641.83 143.616L648.748 151.091L646.986 152.722L641.915 147.241L638.908 150.024L643.059 154.507L641.297 156.138L637.146 151.655L633.806 154.747L638.877 160.227L637.115 161.859L630.196 154.384L641.822 143.623L641.83 143.616Z" fill="white"/>
<path d="M650.742 153.317L652.497 155.389L642.247 164.085L646.931 169.612L657.181 160.915L658.936 162.987L648.686 171.683L649.784 172.974L645.362 176.723L643.661 174.721L646.251 172.526L638.652 163.567L650.734 153.317H650.742Z" fill="white"/>
<path d="M717.506 265.649L720.931 275.481L718.666 276.27L716.13 269.004L712.884 270.132L713.85 272.915C715.11 276.525 713.85 279.153 711.059 280.119C708.091 281.155 705.726 280.011 704.396 276.208L702.533 270.867L717.498 265.649H717.506ZM710.619 270.921L705.702 272.637L706.669 275.412C707.334 277.313 708.632 277.94 710.124 277.422C711.531 276.927 712.219 275.512 711.585 273.696L710.619 270.921Z" fill="white"/>
<path d="M708.834 281.774L708.965 282.207C709.351 283.482 710.503 284.108 714.538 282.895L722.554 280.483L725.685 290.887L710.519 295.448L709.738 292.851L722.608 288.978L721.047 283.776L715.327 285.5C709.56 287.231 707.504 286.126 706.546 282.941L706.414 282.508L708.841 281.774H708.834Z" fill="white"/>
<path d="M725.978 305.118L723.675 304.67L712.219 301.818L711.33 298.308L726.69 294.428L727.354 297.064L715.087 300.163L717.514 300.627L728.978 303.48L729.851 306.95L714.492 310.831L713.827 308.195L725.986 305.126L725.978 305.118Z" fill="white"/>
<path d="M720.18 311.913L720.76 314.711C718.789 315.345 718.07 316.443 718.472 318.399C718.874 320.347 719.972 321.073 721.325 320.787C722.677 320.509 723.396 319.411 722.994 317.463L722.608 315.577L724.958 315.09L725.344 316.976C725.707 318.731 726.643 319.342 727.903 319.079C729.163 318.816 729.781 317.881 729.426 316.134C729.062 314.379 728.127 313.768 726.372 313.892L725.8 311.101C728.969 310.676 731.188 312.137 731.907 315.624C732.626 319.102 731.165 321.328 728.707 321.831C727.246 322.132 725.916 321.761 724.927 320.648C724.478 322.287 723.296 323.292 721.68 323.632C719.083 324.165 716.756 322.635 715.991 318.909C715.218 315.183 716.756 312.856 720.188 311.913H720.18Z" fill="white"/>
<path d="M726.248 335.737L725.058 328.37L718.201 329.476L717.769 326.793L733.406 324.273L733.839 326.956L727.431 327.992L728.622 335.358L735.03 334.322L735.463 337.005L719.825 339.517L719.392 336.835L726.248 335.729V335.737Z" fill="white"/>
<path d="M735.95 340.692L737.141 350.803L734.76 351.081L733.886 343.66L729.82 344.139L730.539 350.207L728.158 350.486L727.44 344.418L722.925 344.951L723.799 352.364L721.418 352.642L720.22 342.531L735.958 340.676L735.95 340.692Z" fill="white"/>
<path d="M737.442 353.763L737.65 356.469L724.254 357.481L724.795 364.701L738.191 363.689L738.4 366.394L725.004 367.407L725.128 369.1L719.353 369.532L719.16 366.92L722.546 366.665L721.665 354.961L737.449 353.771L737.442 353.763Z" fill="white"/>
<path d="M738.647 370.646L738.709 373.359L733.321 373.475L733.375 375.856C733.468 379.906 731.458 382.009 728.289 382.078C724.919 382.155 723.025 380.339 722.925 376.087L722.809 371.001L738.647 370.646ZM738.933 383.539L738.995 386.252L723.164 386.608L723.102 383.895L738.933 383.539ZM730.925 373.537L725.274 373.66L725.329 376.033C725.383 378.275 726.419 379.264 728.227 379.226C729.943 379.187 731.033 378.051 730.979 375.902L730.925 373.529V373.537Z" fill="white"/>
<path d="M731.428 459.115L730.23 464.411C729.287 468.562 727.069 469.961 723.783 469.219C720.691 468.515 719.138 466.057 720.034 462.107L720.637 459.456L715.381 458.265L715.984 455.614L731.436 459.115H731.428ZM728.491 461.233L722.972 459.989L722.369 462.64C721.897 464.735 722.732 466.065 724.409 466.444C726.18 466.845 727.393 466.072 727.888 463.893L728.491 461.241V461.233Z" fill="white"/>
<path d="M714.855 477.034L716.401 471.244L712.868 468.948L713.603 466.196L727.439 475.743L726.62 478.804L709.861 480.188L710.627 477.304L714.839 477.049L714.855 477.034ZM718.511 472.62L717.375 476.879L721.016 476.678L724.44 476.493L721.565 474.622L718.519 472.612L718.511 472.62Z" fill="white"/>
<path d="M714.747 487.84L715.219 486.333L708.594 484.254L709.406 481.664L724.51 486.403L723.698 488.992L717.507 487.044L717.035 488.559L721.89 494.774L720.931 497.843L715.311 490.438L705.688 493.53L706.708 490.291L714.755 487.84H714.747Z" fill="white"/>
<path d="M640.553 610.956L640.244 611.288C639.34 612.27 639.394 613.576 642.478 616.436L648.623 622.118L641.257 630.088L629.631 619.343L631.471 617.349L641.334 626.47L645.021 622.489L640.638 618.439C636.225 614.357 636.124 612.023 638.389 609.58L638.69 609.248L640.553 610.964V610.956Z" fill="white"/>
<path d="M638.684 632.716L631.471 639.897L629.779 638.196L635.066 632.932L632.175 630.033L627.846 634.339L626.153 632.638L630.482 628.333L627.274 625.109L621.987 630.373L620.294 628.673L627.506 621.492L638.676 632.716H638.684Z" fill="white"/>
<path d="M629.322 641.961L625.411 645.563C622.334 648.4 620.093 648.307 618.253 646.305C617.317 645.293 616.993 643.963 617.511 642.494C615.787 643.128 614.303 642.68 613.197 641.482C611.172 639.279 611.273 637.045 614.349 634.208L618.593 630.304L629.322 641.961ZM621.368 637.323L618.168 633.845L615.918 635.916C614.334 637.369 614.287 638.459 615.377 639.642C616.452 640.809 617.542 640.856 619.119 639.395L621.368 637.323ZM625.766 642.1L622.868 638.954L620.951 640.716C619.374 642.17 619.327 643.26 620.263 644.272C621.182 645.269 622.272 645.316 623.849 643.863L625.766 642.1Z" fill="white"/>
<path d="M324.042 733.376L318.824 732.348C314.72 731.536 313.468 729.681 313.993 727.014C314.264 725.661 315.137 724.61 316.629 724.169C315.099 723.157 314.581 721.688 314.898 720.096C315.477 717.166 317.333 715.921 321.445 716.725L327.103 717.838L324.042 733.376ZM321.824 730.585L322.651 726.388L320.1 725.885C317.99 725.468 317.085 726.079 316.822 727.431C316.56 728.761 317.162 729.665 319.28 730.083L321.831 730.585H321.824ZM323.076 724.216L323.988 719.578L320.989 718.99C318.886 718.573 317.982 719.183 317.665 720.76C317.356 722.314 317.966 723.218 320.077 723.636L323.076 724.223V724.216Z" fill="white"/>
<path d="M309.834 730.485L299.932 728.119L300.488 725.785L307.747 727.516L308.697 723.535L302.753 722.121L303.31 719.786L309.246 721.201L310.298 716.779L303.039 715.048L303.596 712.713L313.498 715.071L309.826 730.469L309.834 730.485Z" fill="white"/>
<path d="M300.094 719.4L299.785 720.536C298.51 725.112 295.093 727.045 291.127 725.947C287.579 724.958 285.972 722.121 286.273 719.338L289.149 720.134C289.21 721.603 289.999 722.994 291.808 723.497C294.119 724.138 296.152 722.987 297.041 719.763L297.358 718.635C298.239 715.45 297.064 713.363 294.791 712.737C293.029 712.25 291.553 713.077 290.656 714.685L287.78 713.888C289.071 710.936 291.939 709.32 295.464 710.294C299.468 711.407 301.377 714.777 300.094 719.4Z" fill="white"/>
<path d="M269.878 719.083L267.304 718.225L272.313 703.198L274.887 704.056L269.878 719.083ZM282.114 723.164L279.54 722.306L281.241 717.197L278.984 716.447C275.142 715.164 273.843 712.559 274.848 709.552C275.915 706.352 278.257 705.184 282.292 706.529L287.123 708.137L282.114 723.164ZM282.006 714.916L283.792 709.552L281.535 708.802C279.409 708.091 278.126 708.74 277.554 710.456C277.005 712.087 277.708 713.494 279.749 714.167L282.006 714.916Z" fill="white"/>
<path d="M191.735 670.098L191.054 671.057C188.287 674.922 184.407 675.563 181.06 673.175C178.06 671.033 177.527 667.81 178.764 665.306L181.191 667.037C180.743 668.444 181.005 670.021 182.536 671.111C184.484 672.502 186.787 672.123 188.735 669.395L189.416 668.436C191.333 665.746 190.938 663.381 189.029 662.013C187.537 660.946 185.868 661.224 184.476 662.43L182.049 660.698C184.275 658.364 187.522 657.823 190.506 659.956C193.891 662.376 194.525 666.194 191.735 670.098Z" fill="white"/>
<path d="M175.727 657.846L176.971 658.82L181.253 653.355L183.387 655.033L173.632 667.501L171.49 665.831L175.487 660.722L174.242 659.748L166.721 662.098L164.193 660.119L173.098 657.467L173.585 647.372L176.26 649.467L175.719 657.862L175.727 657.846Z" fill="white"/>
<path d="M168.599 652.736L167.834 653.633C164.78 657.212 160.792 657.521 157.615 654.808C154.399 652.064 154.09 648.145 157.174 644.527L157.939 643.63C161.008 640.036 164.981 639.742 168.158 642.456C171.374 645.2 171.683 649.127 168.599 652.736ZM160.104 645.486L159.338 646.382C157.22 648.864 157.414 651.314 159.261 652.883C161.155 654.499 163.513 654.313 165.669 651.786L166.435 650.889C168.56 648.392 168.375 645.973 166.512 644.38C164.641 642.78 162.26 642.95 160.104 645.478V645.486Z" fill="white"/>
<path d="M150.102 647.998L146.128 644.295C143.013 641.397 142.92 638.776 145.224 636.303C147.381 633.984 150.295 633.883 153.256 636.643L155.242 638.49L158.914 634.548L160.9 636.395L150.102 647.99V647.998ZM149.746 644.388L153.603 640.253L151.617 638.405C150.04 636.936 148.478 636.998 147.303 638.251C146.067 639.572 146.121 641.018 147.759 642.541L149.746 644.388Z" fill="white"/>
<path d="M134.556 629.562L139.635 634.718L149.212 625.288L151.114 627.22L139.828 638.328L130.938 629.299L142.224 618.191L144.126 620.124L134.548 629.555L134.556 629.562Z" fill="white"/>
<path d="M124.082 616.808L126.332 616.135L137.795 613.345L140.207 616.042L128.411 626.602L126.602 624.576L136.025 616.143L133.66 616.862L122.196 619.652L119.815 616.993L131.611 606.434L133.42 608.459L124.082 616.815V616.808Z" fill="white"/>
<path d="M124.33 609.209L123.417 609.951C119.769 612.919 115.788 612.517 113.144 609.271C110.477 605.993 110.879 602.074 114.559 599.075L115.471 598.333C119.143 595.349 123.1 595.774 125.744 599.021C128.411 602.298 128.009 606.217 124.33 609.217V609.209ZM117.28 600.544L116.368 601.286C113.84 603.342 113.585 605.792 115.115 607.671C116.685 609.603 119.042 609.843 121.624 607.74L122.536 606.998C125.079 604.926 125.327 602.507 123.788 600.613C122.227 598.704 119.862 598.441 117.28 600.544Z" fill="white"/>
<path d="M108.05 587.696L112.479 593.695L118.068 589.575L119.676 591.755L106.945 601.154L105.329 598.974L110.555 595.125L106.125 589.119L100.908 592.976L99.2998 590.796L112.031 581.396L113.647 583.576L108.058 587.704L108.05 587.696Z" fill="white"/>
<path d="M71.309 524.171L70.2191 524.619C65.8284 526.443 62.1953 524.936 60.6184 521.133C59.2038 517.724 60.4484 514.709 62.8292 513.233L63.9732 515.992C62.8524 516.951 62.2417 518.427 62.9606 520.159C63.8805 522.377 66.0372 523.266 69.1292 521.983L70.2191 521.535C73.2724 520.267 74.1846 518.049 73.2879 515.876C72.5845 514.184 71.0153 513.534 69.1987 513.828L68.0547 511.068C71.1776 510.264 74.2232 511.524 75.6224 514.91C77.2147 518.752 75.7383 522.331 71.309 524.171Z" fill="white"/>
<path d="M58.0906 514.462L53.7695 502.79L56.019 501.955L57.7041 506.516L70.3117 501.847L71.2548 504.398L58.6472 509.059L60.3323 513.62L58.0829 514.454L58.0906 514.462Z" fill="white"/>
<path d="M52.9964 500.509L51.3113 495.346C49.9894 491.303 51.1799 488.961 54.3878 487.917C57.4025 486.935 59.9998 488.257 61.252 492.107L62.0946 494.689L67.2196 493.019L68.0622 495.601L53.0041 500.509H52.9964ZM54.4342 497.178L59.8143 495.423L58.9717 492.841C58.3069 490.8 56.9078 490.089 55.269 490.623C53.5452 491.187 52.8959 492.47 53.5916 494.596L54.4342 497.178Z" fill="white"/>
<path d="M48.7222 487.144L45.9316 477.358L48.2352 476.701L50.2759 483.882L54.2105 482.761L52.5408 476.886L54.8443 476.229L56.5217 482.104L60.8892 480.86L58.8485 473.679L61.152 473.021L63.9425 482.808L48.7144 487.144H48.7222Z" fill="white"/>
<path d="M58.6239 472.658L58.5156 472.217C58.2064 470.919 57.0856 470.231 52.9964 471.22L44.8567 473.176L42.3213 462.617L57.7117 458.914L58.3456 461.558L45.2819 464.696L46.5496 469.976L52.3548 468.577C58.2064 467.17 60.2008 468.391 60.9738 471.622L61.082 472.063L58.6239 472.65V472.658Z" fill="white"/>
<path d="M41.5561 459.014L39.585 449.02L41.9426 448.556L43.3881 455.884L47.4077 455.095L46.225 449.097L48.5827 448.633L49.7654 454.632L54.2333 453.75L52.7878 446.422L55.1377 445.958L57.1089 455.953L41.5638 459.022L41.5561 459.014Z" fill="white"/>
<path d="M39.0519 446.059L38.6422 443.377L51.9301 441.352L50.8401 434.194L37.5523 436.219L37.1426 433.537L50.4304 431.511L50.1754 429.834L55.9033 428.96L56.2975 431.558L52.9427 432.068L54.7129 443.678L39.0519 446.059Z" fill="white"/>
<path d="M46.0862 340.282L45.8698 341.851L52.7495 342.817L52.3707 345.507L36.6865 343.304L37.0653 340.614L43.4967 341.519L43.7208 339.95L37.9156 334.608L38.3639 331.423L45.12 337.816L54.1099 333.186L53.6384 336.548L46.1017 340.29L46.0862 340.282Z" fill="white"/>
<path d="M46.9369 331.593L45.7774 331.377C41.1472 330.527 38.8823 327.234 39.6398 323.113C40.4051 318.955 43.644 316.721 48.3129 317.579L49.4724 317.795C54.1181 318.653 56.3675 321.939 55.6177 326.059C54.8525 330.217 51.6136 332.451 46.9369 331.593ZM48.9545 320.601L47.795 320.385C44.5947 319.797 42.5618 321.196 42.1211 323.577C41.6728 326.028 43.0178 327.976 46.2876 328.571L47.4471 328.787C50.6783 329.383 52.6726 327.999 53.1209 325.595C53.5693 323.168 52.2243 321.196 48.9545 320.601Z" fill="white"/>
<path d="M51.8682 316.288L52.502 313.513C54.5582 313.752 55.6713 313.057 56.1197 311.117C56.568 309.176 55.8646 308.063 54.5196 307.754C53.1746 307.445 52.0614 308.14 51.6208 310.081L51.188 311.959L48.8535 311.426L49.2786 309.555C49.6729 307.808 49.0854 306.865 47.8254 306.571C46.5731 306.285 45.6146 306.88 45.2204 308.62C44.8184 310.359 45.4136 311.31 47.0601 311.92L46.4263 314.703C43.3652 313.768 41.9506 311.518 42.7468 308.055C43.543 304.592 45.7924 303.186 48.2428 303.742C49.6961 304.074 50.7473 304.963 51.188 306.393C52.2779 305.087 53.7698 304.662 55.3776 305.033C57.9594 305.62 59.4359 307.986 58.5933 311.689C57.743 315.391 55.3853 316.875 51.8682 316.296V316.288Z" fill="white"/>
<path d="M44.9658 299.661L47.6172 289.836L49.9362 290.462L47.996 297.666L51.946 298.733L53.5384 292.835L55.8574 293.461L54.265 299.359L58.6556 300.542L60.5959 293.338L62.9072 293.964L60.2558 303.789L44.9658 299.668V299.661Z" fill="white"/>
<path d="M48.4443 286.93L50.0676 281.751C51.343 277.692 53.662 276.479 56.8777 277.491C59.9001 278.442 61.2451 281.016 60.0315 284.881L59.2199 287.471L64.3526 289.086L63.5409 291.676L48.4365 286.937L48.4443 286.93ZM51.544 285.059L56.9395 286.752L57.7512 284.162C58.3928 282.114 57.6739 280.722 56.0274 280.212C54.3036 279.671 53.0281 280.336 52.3556 282.469L51.544 285.059Z" fill="white"/>
<path d="M60.495 276.912L59.3897 276.517C54.9604 274.933 53.252 271.323 54.6589 267.38C56.0812 263.4 59.637 261.714 64.1127 263.314L65.2181 263.709C69.6706 265.301 71.3557 268.911 69.9488 272.846C68.5265 276.827 64.9707 278.512 60.495 276.912ZM64.2518 266.383L63.1464 265.989C60.0776 264.891 57.8514 265.943 57.0397 268.223C56.2049 270.565 57.2175 272.706 60.3482 273.827L61.4536 274.222C64.5378 275.327 66.7409 274.283 67.5603 271.988C68.3874 269.669 67.3825 267.504 64.2518 266.383Z" fill="white"/>
<path d="M58.3457 258.004L61.9943 248.983L64.2205 249.88L61.5846 256.388L74.0531 261.428L73.0327 263.948L58.3457 258.012V258.004Z" fill="white"/>
<path d="M102.229 178.068L105.445 173.832C107.973 170.492 110.199 170.191 112.364 171.83C113.461 172.665 114.025 173.909 113.763 175.455C115.347 174.528 116.886 174.698 118.184 175.687C120.565 177.488 120.867 179.714 118.339 183.046L114.853 187.645L102.229 178.076V178.068ZM105.716 177.295L109.125 179.877L110.694 177.805C111.992 176.089 111.846 175.015 110.748 174.18C109.666 173.36 108.584 173.507 107.285 175.223L105.716 177.295ZM110.887 181.222L114.659 184.082L116.507 181.647C117.805 179.931 117.659 178.856 116.375 177.882C115.115 176.924 114.033 177.071 112.735 178.787L110.887 181.222Z" fill="white"/>
<path d="M117.257 172.371L116.352 171.621C112.735 168.614 112.364 164.633 115.031 161.41C117.736 158.155 121.655 157.784 125.311 160.822L126.216 161.572C129.857 164.594 130.205 168.56 127.538 171.783C124.832 175.038 120.913 175.409 117.257 172.371ZM124.399 163.767L123.495 163.017C120.983 160.938 118.532 161.162 116.986 163.025C115.394 164.942 115.618 167.3 118.177 169.426L119.081 170.175C121.609 172.27 124.028 172.046 125.59 170.168C127.167 168.266 126.958 165.893 124.399 163.767Z" fill="white"/>
<path d="M140.486 156.741L133.9 163.992L136.412 166.272L134.65 168.212L130.359 164.316L131.241 163.342C130.831 161.503 130.012 160.181 126.162 156.679L122.312 153.177L129.54 145.223L139.481 154.26L140.47 153.17L144.76 157.066L142.998 159.006L140.486 156.725V156.741ZM133.297 161.085L137.664 156.285L129.494 148.864L125.922 152.799L127.994 154.685C131.411 157.784 132.756 159.47 133.297 161.093V161.085Z" fill="white"/>
<path d="M137.703 148.957L136.868 148.13C133.528 144.806 133.521 140.809 136.473 137.841C139.457 134.842 143.392 134.834 146.762 138.189L147.597 139.016C150.952 142.355 150.944 146.336 147.991 149.305C145.007 152.304 141.065 152.311 137.703 148.964V148.957ZM145.595 141.026L144.76 140.199C142.449 137.903 139.991 137.903 138.282 139.619C136.528 141.381 136.528 143.754 138.893 146.097L139.728 146.924C142.055 149.235 144.482 149.235 146.206 147.503C147.945 145.756 147.96 143.376 145.603 141.026H145.595Z" fill="white"/>
<path d="M152.003 141.714L152.336 141.404C153.317 140.508 153.379 139.194 150.534 136.086L144.884 129.91L152.9 122.574L163.598 134.262L161.588 136.094L152.513 126.176L148.509 129.84L152.544 134.247C156.61 138.691 156.51 141.026 154.052 143.267L153.719 143.577L152.011 141.706L152.003 141.714Z" fill="white"/>
<path d="M155.69 120.193L163.475 113.638L165.021 115.47L159.308 120.278L161.944 123.409L166.613 119.474L168.151 121.306L163.482 125.241L166.412 128.719L172.124 123.911L173.67 125.743L165.886 132.298L155.69 120.185V120.193Z" fill="white"/>
<path d="M165.345 106.364L166.991 105.097C167.625 105.924 168.39 105.986 169.071 105.46C169.789 104.903 169.913 104.146 169.279 103.327L170.895 102.082C172.085 103.62 171.861 105.305 170.037 106.712C168.212 108.119 166.527 107.903 165.337 106.364H165.345ZM175.857 108.15L176.368 110.438L178.316 122.08L175.448 124.29L165.778 111.745L167.926 110.09L175.649 120.108L175.108 117.697L173.16 106.055L175.989 103.875L185.659 116.413L183.51 118.068L175.857 108.142V108.15Z" fill="white"/>
<path d="M264.582 55.9031L269.699 54.0943C273.711 52.6797 276.077 53.816 277.197 56.9931C278.249 59.9846 276.996 62.6051 273.17 63.9501L270.611 64.8545L272.405 69.9331L269.846 70.8375L264.582 55.9031ZM267.937 57.2559L269.815 62.5896L272.374 61.6852C274.399 60.974 275.079 59.5594 274.507 57.9361C273.904 56.2278 272.606 55.6094 270.495 56.3515L267.937 57.2482V57.2559Z" fill="white"/>
<path d="M277.947 51.2266L280.545 50.4458L282.091 55.6017L284.363 54.9215C288.236 53.7543 290.802 55.1379 291.714 58.1681C292.681 61.3992 291.436 63.7028 287.362 64.9241L282.493 66.3851L277.947 51.2266ZM282.786 57.9053L284.41 63.3163L286.682 62.636C288.823 61.9945 289.511 60.7267 288.986 58.9952C288.491 57.3487 287.115 56.6066 285.059 57.225L282.786 57.9053ZM290.292 47.5239L292.889 46.7432L297.435 61.9017L294.837 62.6824L290.292 47.5239Z" fill="white"/>
<path d="M296.53 45.8156L306.626 43.311L307.205 45.6378L299.746 47.493L300.573 50.8323L303.425 50.1212C307.136 49.2013 309.633 50.7009 310.336 53.5533C311.094 56.6066 309.741 58.8561 305.837 59.8223L300.349 61.1828L296.53 45.8156ZM301.145 53.1513L302.397 58.2067L305.25 57.4956C307.205 57.0086 307.947 55.7795 307.561 54.2413C307.205 52.7957 305.86 51.9841 303.997 52.4479L301.145 53.1513Z" fill="white"/>
<path d="M310.537 42.3603L313.204 41.8347L314.247 47.122L316.582 46.6582C320.555 45.8775 322.975 47.5008 323.593 50.6082C324.25 53.9167 322.781 56.0965 318.607 56.9236L313.614 57.9131L310.545 42.3681L310.537 42.3603ZM314.711 49.4719L315.809 55.0221L318.143 54.5583C320.339 54.1254 321.143 52.9272 320.795 51.1493C320.462 49.4642 319.156 48.583 317.046 49.0004L314.711 49.4642V49.4719ZM323.199 39.8635L325.866 39.3379L328.934 54.8829L326.268 55.4086L323.199 39.8635Z" fill="white"/>
</svg>
