<svg width="140" height="140" viewBox="0 0 140 140" fill="none" xmlns="http://www.w3.org/2000/svg">
    <g filter="url(#filter0_f_2014_112)">
        <path
            d="M89.6938 37.923L112.972 37.9119C118.138 38.2895 122.393 40.9936 123.143 46.3796V108.313C122.485 112.677 119.036 115.945 114.644 116.503H24.618C20.232 115.942 16.7768 112.68 16.1191 108.31V46.3768C16.8213 41.1574 20.9955 38.3339 26.0279 37.9258H49.5711C50.368 32.3038 49.9472 25.1521 56.9469 23.7556C64.9692 24.3748 74.1703 22.9588 82.0477 23.7473C89.1031 24.4553 89.0167 32.6314 89.6938 37.923ZM56.2559 37.9202H83.0062C82.5715 36.0768 82.6356 32.3316 81.9864 30.763C81.7049 30.0856 80.7102 30.1744 80.0916 30.1328C72.9358 29.6497 65.1197 30.4187 57.9027 30.266C57.7411 30.3188 57.5572 30.366 57.4345 30.4881C56.9664 30.9601 56.4565 36.7653 56.2531 37.9175L56.2559 37.9202ZM56.8132 74.012V69.1535C56.8132 68.0457 58.2454 66.3078 59.4771 66.255C65.8163 66.6826 73.025 65.6248 79.2584 66.2217C80.7715 66.3661 82.4489 67.5071 82.4489 69.1507V74.0092L107.383 74.0036C111.222 73.6733 114.909 71.1413 116.101 67.4211C117.127 64.2256 117.091 51.7434 116.717 48.0537C116.506 45.9493 115.399 44.7721 113.251 44.5667C83.7335 44.7999 54.1019 44.1669 24.6542 44.8859C23.0492 45.6161 22.6674 46.6461 22.5281 48.3202C22.2049 52.1626 22.0962 64.1145 23.1578 67.4238C24.3505 71.1441 28.037 73.676 31.8768 74.0064L56.8104 74.012H56.8132ZM75.7613 72.6238H63.5008V81.3691C64.685 82.0576 68.575 84.634 69.7481 84.5591C71.0076 84.4785 74.4879 82.0576 75.7613 81.3691V72.6238ZM56.8132 80.675H31.0381C30.5337 80.675 28.0481 80.0532 27.4017 79.856C25.6322 79.3119 24.1359 78.2264 22.5392 77.3435V107.466C22.5392 108.724 25.0025 110.298 26.2899 110.115H112.694C114.053 110.401 116.723 108.815 116.723 107.466V77.3435C115.123 78.2264 113.63 79.3119 111.86 79.856C111.214 80.0559 108.728 80.675 108.224 80.675H82.4489C82.4768 82.6851 82.6635 84.8395 80.9164 86.2276C79.9857 86.9661 72.0163 91.2471 70.9491 91.5636C70.0518 91.8302 69.2047 91.9634 68.3158 91.5636C66.1758 89.9006 58.5408 87.2548 57.4095 85.217C56.6738 83.89 56.8132 82.1409 56.8132 80.675Z"
            fill="#00865B" />
    </g>
    <g>
        <path
            d="M90.4321 37.923L113.711 37.9119C118.877 38.2895 123.132 40.9936 123.881 46.3796V108.313C123.224 112.677 119.774 115.945 115.382 116.503H25.3562C20.9703 115.942 17.515 112.68 16.8574 108.31V46.3768C17.5596 41.1574 21.7338 38.3339 26.7662 37.9258H50.3093C51.1063 32.3038 50.6855 25.1521 57.6852 23.7556C65.7075 24.3748 74.9085 22.9588 82.786 23.7473C89.8414 24.4553 89.755 32.6314 90.4321 37.923ZM56.9941 37.9202H83.7445C83.3098 36.0768 83.3739 32.3316 82.7247 30.763C82.4432 30.0856 81.4484 30.1744 80.8298 30.1328C73.6741 29.6497 65.858 30.4187 58.641 30.266C58.4793 30.3188 58.2954 30.366 58.1728 30.4881C57.7047 30.9601 57.1948 36.7653 56.9914 37.9175L56.9941 37.9202ZM57.5514 74.012V69.1535C57.5514 68.0457 58.9837 66.3078 60.2153 66.255C66.5546 66.6826 73.7633 65.6248 79.9967 66.2217C81.5097 66.3661 83.1872 67.5071 83.1872 69.1507V74.0092L108.121 74.0036C111.961 73.6733 115.647 71.1413 116.84 67.4211C117.865 64.2256 117.829 51.7434 117.456 48.0537C117.244 45.9493 116.138 44.7721 113.989 44.5667C84.4718 44.7999 54.8402 44.1669 25.3925 44.8859C23.7874 45.6161 23.4057 46.6461 23.2664 48.3202C22.9431 52.1626 22.8345 64.1145 23.8961 67.4238C25.0887 71.1441 28.7753 73.676 32.6151 74.0064L57.5487 74.012H57.5514ZM76.4996 72.6238H64.239V81.3691C65.4233 82.0576 69.3132 84.634 70.4864 84.5591C71.7459 84.4785 75.2262 82.0576 76.4996 81.3691V72.6238ZM57.5514 80.675H31.7763C31.272 80.675 28.7864 80.0532 28.14 79.856C26.3705 79.3119 24.8742 78.2264 23.2775 77.3435V107.466C23.2775 108.724 25.7408 110.298 27.0281 110.115H113.432C114.792 110.401 117.461 108.815 117.461 107.466V77.3435C115.862 78.2264 114.368 79.3119 112.599 79.856C111.952 80.0559 109.467 80.675 108.962 80.675H83.1872C83.2151 82.6851 83.4018 84.8395 81.6546 86.2276C80.724 86.9661 72.7546 91.2471 71.6873 91.5636C70.7901 91.8302 69.943 91.9634 69.0541 91.5636C66.9141 89.9006 59.2791 87.2548 58.1477 85.217C57.4121 83.89 57.5514 82.1409 57.5514 80.675Z"
            fill="#EBFFF8" fill-opacity="0.8" />
    </g>
    <defs>
        <filter id="filter0_f_2014_112" x="6.11914" y="13.5" width="127.024" height="113" filterUnits="userSpaceOnUse"
            color-interpolation-filters="sRGB">
            <feFlood flood-opacity="0" result="BackgroundImageFix" />
            <feBlend mode="normal" in="SourceGraphic" in2="BackgroundImageFix" result="shape" />
            <feGaussianBlur stdDeviation="5" result="effect1_foregroundBlur_2014_112" />
        </filter>

    </defs>
</svg>