<svg width="140" height="140" viewBox="0 0 140 140" fill="none" xmlns="http://www.w3.org/2000/svg">
    <g filter="url(#filter0_f_2014_112)">
        <path
            d="M60.4371 38.2756C63.4442 38.1138 62.1667 37.0931 62.4176 34.8072C62.6553 32.627 64.2397 30.285 66.5372 30.0108C68.0127 29.8325 74.0171 29.8358 75.1988 30.2784C76.8625 30.8994 77.9254 32.8913 78.1762 34.566C78.2819 35.2763 78.163 37.8099 78.2819 37.9288C78.3512 37.9982 79.8729 38.1006 80.2426 38.2756V25.8883C80.2426 24.3854 83.0253 21.4884 84.4117 20.8112C88.0823 19.0109 95.6183 20.7385 99.8402 20.0647C101.124 18.0431 101.93 16.0182 104.234 14.8818C109.753 12.1665 116.176 16.0182 116.094 22.1986C115.995 29.6045 106.607 33.03 101.854 27.3847C101.108 26.4995 100.385 24.2301 99.5563 24.0682C94.9614 24.8577 85.1379 21.5644 84.2301 28.2337C83.9297 30.4303 83.9165 36.9114 84.1839 39.1246C84.3291 40.327 86.5903 41.4798 87.5938 41.2056C88.9636 40.8324 90.2741 37.5621 93.5222 38.0147C96.0375 38.3648 101.613 43.9474 101.963 46.4611C102.141 47.7296 101.676 48.6347 101.048 49.6884C100.487 50.6332 97.7375 52.7572 99.0414 53.659C99.4804 53.9629 109.142 53.9728 109.743 53.7647C110.179 53.6127 111.007 51.4689 111.459 50.8578C116.041 44.717 126.102 48.1062 125.997 55.8986C125.868 65.4186 112.651 66.6739 109.786 57.7716H101.038L102.042 61.7223C104.712 61.4613 108.611 61.904 109.693 64.8042C110.116 65.9373 110.156 73.0988 109.802 74.3044C108.921 77.2906 104.679 77.8786 102.045 77.6077L101.042 81.5584H109.789C111.067 78.9753 112.951 76.0783 116.091 75.6423C129.284 73.8057 128.997 93.3049 116.091 91.4385C113.093 91.0058 110.978 88.089 109.746 85.5653C109.129 85.3539 99.487 85.3671 99.048 85.671C97.7441 86.5695 100.494 88.6968 101.055 89.6416C101.682 90.6953 102.148 91.6004 101.969 92.8689C101.619 95.3826 96.0441 100.965 93.5288 101.315C90.2807 101.768 88.9735 98.4976 87.6004 98.1244C86.5969 97.8502 84.3325 99.003 84.1905 100.205C83.9231 102.419 83.9396 108.903 84.2367 111.096C85.1445 117.762 94.968 114.472 99.5629 115.262C100.391 115.097 101.114 112.831 101.86 111.945C106.614 106.297 116.002 109.725 116.101 117.131C116.183 123.312 109.759 127.163 104.24 124.448C101.936 123.315 101.131 121.287 99.8468 119.265C95.6249 118.591 88.0889 120.319 84.4183 118.519C83.0352 117.842 80.2492 114.941 80.2492 113.442V101.054C77.3015 101.282 78.5228 101.953 78.2653 104.189C78.0079 106.425 76.7238 109.012 74.1524 109.322C72.6769 109.501 66.6725 109.498 65.4908 109.055C63.8271 108.434 62.7642 106.442 62.5133 104.767C62.4077 104.057 62.5265 101.523 62.4077 101.405C62.3384 101.335 60.8167 101.233 60.447 101.058V113.445C60.447 114.948 57.6643 117.845 56.2779 118.522C52.6073 120.322 45.0713 118.595 40.8494 119.269C39.5653 121.29 38.7599 123.315 36.4558 124.451C30.9532 127.16 24.5131 123.289 24.5956 117.135C24.6946 109.729 34.0825 106.303 38.8358 111.949C39.5818 112.834 40.3047 115.103 41.1333 115.265C44.4144 114.799 53.0463 116.388 55.314 113.921C55.8752 113.31 56.3505 111.602 56.4495 110.763C56.7268 108.467 56.7796 102.485 56.5057 100.209C56.3604 99.0063 54.0993 97.8535 53.0958 98.1277C51.7259 98.5009 50.4155 101.771 47.1673 101.319C44.7115 100.975 39.255 95.5412 38.7995 93.1397C38.542 91.7788 38.9678 90.5334 39.704 89.3806C40.2255 88.5647 43.0412 86.6389 41.6482 85.6776C41.2092 85.3737 31.5474 85.3638 30.9466 85.5719C30.5109 85.7239 29.6823 87.8677 29.2301 88.4788C24.6418 94.6031 14.5806 91.2172 14.6829 83.4215C14.8117 73.9014 28.0286 72.6462 30.8938 81.5485H39.6412L38.6378 77.5978C36.0003 77.8687 31.7619 77.2807 30.8806 74.2945C30.5274 73.0921 30.5637 65.9174 30.9862 64.7943C32.1217 61.7685 35.8914 61.5208 38.6378 61.7157L39.6412 57.765H30.8938C30.7023 57.765 29.415 60.4935 28.9198 61.0748C24.1962 66.6607 14.782 63.3211 14.6829 55.892C14.5773 48.0533 24.7409 44.7203 29.2202 50.8512C29.6625 51.459 30.5076 53.6094 30.9367 53.7581C31.5342 53.9662 41.196 53.9563 41.6383 53.6524C42.9422 52.7539 40.1925 50.6266 39.6313 49.6818C39.0042 48.6281 38.5387 47.723 38.717 46.4545C39.0669 43.9407 44.6421 38.3582 47.1574 38.0081C50.4055 37.5555 51.7127 40.8258 53.0859 41.199C54.0894 41.4732 56.3538 40.3204 56.4958 39.118C56.7631 36.9048 56.7466 30.4204 56.4495 28.2271C55.5418 21.5611 45.7182 24.8511 41.1233 24.0616C40.2948 24.2268 39.5719 26.4928 38.8259 27.3781C34.0726 33.0267 24.6847 29.5979 24.5857 22.192C24.5032 16.0116 30.9268 12.1599 36.4459 14.8752C38.75 16.0082 39.5554 18.0365 40.8395 20.0581C45.0614 20.7319 52.5974 19.0043 56.268 20.8046C57.6511 21.4818 60.4371 24.3821 60.4371 25.8817V38.269V38.2756ZM32.5971 18.2214C27.4872 18.489 28.1177 26.2022 32.8248 25.9577C37.9347 25.6901 37.3042 17.977 32.5971 18.2214ZM107.858 18.2214C102.748 18.489 103.379 26.2022 108.086 25.9577C113.196 25.6901 112.565 17.977 107.858 18.2214ZM94.0009 43.0224C92.149 41.7441 91.238 44.5519 89.4522 45.3446C86.2074 46.7849 84.3985 44.5651 81.5597 43.4023C78.6152 42.1966 74.6508 42.0645 73.8058 38.2789C73.4757 36.7991 73.9576 35.3886 73.3338 34.1267C73.0202 33.9087 68.4979 33.8658 67.8641 33.9814C66.4612 34.2423 67.194 36.548 67.0191 37.7603C66.415 41.9257 61.7244 42.4378 58.4697 43.7392C55.3998 44.9648 54.1785 47.0392 50.6333 44.9549C49.5341 44.3107 48.5735 42.5236 47.471 42.6227C47.1673 42.6492 43.8268 45.741 43.599 46.1176C42.6649 47.6569 44.4342 48.2879 45.2462 49.3548C48.1213 53.1305 45.5301 54.9539 44.1074 58.4355C42.9025 61.382 42.7705 65.3493 38.9876 66.1949C37.5088 66.5252 36.0993 66.043 34.8384 66.6673C34.6205 66.9811 34.5776 71.5066 34.6931 72.1408C34.9539 73.5447 37.258 72.8114 38.4694 72.9864C42.6748 73.5975 42.7507 77.5813 44.015 80.65C45.2792 83.7188 47.7417 85.8461 45.6555 89.3872C45.0085 90.4839 43.226 91.4517 43.3251 92.5517C43.3515 92.8556 46.4411 96.1986 46.8174 96.4265C48.3557 97.3613 48.9862 95.5907 50.0523 94.7781C53.6702 92.0199 54.9773 94.1803 58.2386 95.4884C60.0641 96.2217 63.5003 97.0739 64.8999 98.0715C67.907 100.212 66.6395 104.698 67.3525 105.197C68.4253 105.283 73.271 105.801 73.5978 104.8C74.0897 103.297 73.2017 101.755 74.3901 99.6472C75.7599 97.2193 78.1003 97.2952 80.3284 96.3406C83.6459 94.9202 86.5375 92.304 90.053 94.3718C91.1522 95.016 92.1127 96.8031 93.2152 96.704C93.5189 96.6775 96.8595 93.5857 97.0872 93.2091C98.0214 91.6698 96.2521 91.0355 95.4368 89.9719C92.5286 86.1731 95.1331 84.4191 96.5789 80.8912C98.0511 77.2939 97.7705 73.7495 102.554 72.9964C103.649 72.8246 104.927 73.2936 105.848 72.6594C106.066 72.3456 106.109 67.8201 105.993 67.1859C105.732 65.782 103.428 66.5153 102.217 66.3402C97.9851 65.7258 97.8563 61.5637 96.5789 58.4388C95.3014 55.3139 92.8917 53.583 95.0307 49.9395C95.6744 48.8395 97.4602 47.8782 97.3612 46.775C97.3315 46.4512 94.4267 43.3197 94.0009 43.029V43.0224ZM22.6943 51.9149C17.5845 52.1824 18.2149 59.8956 22.9221 59.6511C28.0319 59.3836 27.4014 51.6704 22.6943 51.9149ZM117.761 51.9149C112.651 52.1824 113.282 59.8956 117.989 59.6511C123.098 59.3836 122.468 51.6704 117.761 51.9149ZM22.6943 79.6624C17.5845 79.9299 18.2149 87.6431 22.9221 87.3986C28.0319 87.1311 27.4014 79.4179 22.6943 79.6624ZM117.761 79.6624C112.651 79.9299 113.282 87.6431 117.989 87.3986C123.098 87.1311 122.468 79.4179 117.761 79.6624ZM32.5971 113.356C27.4872 113.623 28.1177 121.336 32.8248 121.092C37.9347 120.824 37.3042 113.111 32.5971 113.356ZM107.858 113.356C102.748 113.623 103.379 121.336 108.086 121.092C113.196 120.824 112.565 113.111 107.858 113.356Z"
            fill="#5A04D8" />
        <path
            d="M68.6237 46.6331C99.626 44.4397 101.788 91.4519 71.4922 92.7765C41.3977 94.0912 38.8526 48.7406 68.6237 46.6331ZM68.287 50.9207C44.012 53.6657 47.8047 90.3982 71.8223 88.4823C96.7575 86.4937 93.0637 48.1228 68.287 50.9207Z"
            fill="#5A04D8" />
    </g>
    <g>
        <path
            d="M59.754 38.4246C62.7611 38.2618 61.4836 37.2348 61.7345 34.9349C61.9722 32.7414 63.5566 30.385 65.8541 30.1091C67.3296 29.9296 73.334 29.933 74.5157 30.3783C76.1794 31.0031 77.2423 33.0072 77.4931 34.6923C77.5987 35.4068 77.4799 37.956 77.5987 38.0756C77.6681 38.1454 79.1898 38.2485 79.5595 38.4246V25.9613C79.5595 24.4491 82.3422 21.5344 83.7286 20.8531C87.3992 19.0417 94.9352 20.7799 99.1571 20.1019C100.441 18.0679 101.247 16.0306 103.551 14.8873C109.07 12.1553 115.493 16.0306 115.411 22.2489C115.312 29.7003 105.924 33.1468 101.171 27.4669C100.425 26.5762 99.7017 24.2929 98.8732 24.1301C94.2783 24.9244 84.4548 21.6108 83.547 28.321C83.2466 30.5312 83.2334 37.052 83.5008 39.2788C83.646 40.4885 85.9072 41.6484 86.9107 41.3726C88.2805 40.997 89.591 37.7067 92.8391 38.1621C95.3544 38.5143 100.93 44.1311 101.28 46.6603C101.458 47.9366 100.992 48.8472 100.365 49.9074C99.8041 50.858 97.0544 52.995 98.3583 53.9023C98.7973 54.2081 108.459 54.2181 109.06 54.0087C109.496 53.8558 110.324 51.6988 110.776 51.084C115.358 44.9055 125.419 48.3155 125.314 56.1557C125.185 65.7341 111.968 66.9971 109.103 58.0401H100.355L101.359 62.0151C104.029 61.7525 107.928 62.1979 109.01 65.116C109.433 66.2559 109.472 73.4614 109.119 74.6745C108.238 77.679 103.996 78.2705 101.362 77.998L100.359 81.973H109.106C110.384 79.374 112.268 76.4592 115.408 76.0205C128.601 74.1726 128.314 93.7915 115.408 91.9137C112.41 91.4783 110.294 88.5436 109.063 86.0044C108.446 85.7917 98.8039 85.805 98.3649 86.1108C97.061 87.0148 99.8107 89.1551 100.372 90.1057C100.999 91.1659 101.464 92.0765 101.286 93.3528C100.936 95.882 95.361 101.499 92.8457 101.851C89.5976 102.306 88.2904 99.0161 86.9173 98.6405C85.9138 98.3647 83.6493 99.5246 83.5074 100.734C83.24 102.961 83.2565 109.485 83.5536 111.692C84.4614 118.399 94.2849 115.089 98.8798 115.883C99.7083 115.717 100.431 113.437 101.177 112.546C105.931 106.863 115.318 110.313 115.417 117.764C115.5 123.983 109.076 127.858 103.557 125.126C101.253 123.986 100.448 121.945 99.1637 119.911C94.9418 119.233 87.4058 120.971 83.7352 119.16C82.3521 118.479 79.5661 115.561 79.5661 114.052V101.589C76.6184 101.818 77.8397 102.493 77.5822 104.743C77.3248 106.993 76.0407 109.595 73.4693 109.907C71.9938 110.087 65.9894 110.083 64.8077 109.638C63.144 109.013 62.0811 107.009 61.8302 105.324C61.7246 104.61 61.8434 102.06 61.7246 101.941C61.6553 101.871 60.1336 101.768 59.7639 101.592V114.055C59.7639 115.567 56.9812 118.482 55.5948 119.163C51.9242 120.975 44.3881 119.237 40.1663 119.915C38.8822 121.949 38.0768 123.986 35.7727 125.129C30.2701 127.854 23.83 123.959 23.9125 117.768C24.0115 110.316 33.3994 106.87 38.1527 112.55C38.8987 113.44 39.6216 115.724 40.4501 115.886C43.7313 115.418 52.3632 117.016 54.6309 114.534C55.1921 113.919 55.6674 112.201 55.7664 111.356C56.0437 109.047 56.0965 103.028 55.8225 100.738C55.6773 99.5279 53.4162 98.368 52.4127 98.6438C51.0428 99.0194 49.7323 102.31 46.4842 101.854C44.0283 101.509 38.5719 96.0415 38.1164 93.6253C37.8589 92.256 38.2847 91.003 39.0208 89.8431C39.5424 89.0222 42.3581 87.0846 40.9651 86.1174C40.5261 85.8117 30.8643 85.8017 30.2635 86.0111C29.8278 86.164 28.9992 88.3209 28.547 88.9358C23.9587 95.0976 13.8975 91.691 13.9998 83.8474C14.1286 74.269 27.3455 73.0061 30.2107 81.963H38.9581L37.9546 77.988C35.3172 78.2606 31.0788 77.669 30.1975 74.6645C29.8443 73.4547 29.8806 66.236 30.3031 65.106C31.4386 62.0616 35.2083 61.8124 37.9546 62.0085L38.9581 58.0335H30.2107C30.0192 58.0335 28.7319 60.7787 28.2367 61.3637C23.5131 66.9838 14.0989 63.6237 13.9998 56.1491C13.8942 48.2623 24.0578 44.9088 28.5371 51.0773C28.9794 51.6889 29.8245 53.8525 30.2536 54.0021C30.8511 54.2114 40.5129 54.2015 40.9552 53.8957C42.2591 52.9917 39.5094 50.8513 38.9482 49.9008C38.3211 48.8406 37.8556 47.9299 38.0339 46.6537C38.3838 44.1245 43.959 38.5077 46.4743 38.1554C49.7224 37.7001 51.0296 40.9904 52.4028 41.3659C53.4063 41.6418 55.6707 40.4819 55.8126 39.2721C56.08 37.0453 56.0635 30.5212 55.7664 28.3144C54.8587 21.6075 45.0351 24.9177 40.4402 24.1234C39.6117 24.2896 38.8888 26.5695 38.1428 27.4603C33.3895 33.1435 24.0016 29.6937 23.9026 22.2423C23.8201 16.0239 30.2437 12.1487 35.7628 14.8806C38.0669 16.0206 38.8723 18.0613 40.1564 20.0953C44.3782 20.7733 51.9143 19.0351 55.5849 20.8464C56.968 21.5277 59.754 24.4458 59.754 25.9547V38.418V38.4246ZM31.914 18.2474C26.8041 18.5166 27.4346 26.2771 32.1417 26.0311C37.2516 25.7619 36.6211 18.0015 31.914 18.2474ZM107.175 18.2474C102.065 18.5166 102.696 26.2771 107.403 26.0311C112.513 25.7619 111.882 18.0015 107.175 18.2474ZM93.3177 43.2005C91.4659 41.9143 90.5549 44.7393 88.7691 45.537C85.5243 46.9861 83.7154 44.7526 80.8766 43.5828C77.9321 42.3697 73.9677 42.2367 73.1227 38.4279C72.7926 36.939 73.2745 35.5198 72.6507 34.2502C72.3371 34.0309 67.8148 33.9877 67.181 34.104C65.7781 34.3666 66.5109 36.6864 66.336 37.9061C65.7319 42.0971 61.0413 42.6123 57.7866 43.9218C54.7167 45.1548 53.4954 47.242 49.9502 45.1448C48.851 44.4967 47.8904 42.6987 46.7879 42.7984C46.4842 42.825 43.1437 45.9358 42.9159 46.3147C41.9818 47.8635 43.7511 48.4983 44.5631 49.5718C47.4382 53.3706 44.847 55.2052 43.4243 58.7082C42.2194 61.6728 42.0874 65.6644 38.3045 66.5152C36.8257 66.8475 35.4162 66.3623 34.1553 66.9904C33.9374 67.3062 33.8945 71.8594 34.01 72.4976C34.2708 73.9101 36.5749 73.1722 37.7863 73.3484C41.9917 73.9632 42.0676 77.9714 43.3319 81.059C44.5961 84.1466 47.0586 86.2869 44.9724 89.8498C44.3254 90.9532 42.5429 91.927 42.642 93.0337C42.6684 93.3395 45.758 96.7029 46.1343 96.9322C47.6726 97.8728 48.303 96.0914 49.3692 95.2738C52.9871 92.4986 54.2942 94.6722 57.5555 95.9883C59.3809 96.7262 62.8172 97.5836 64.2168 98.5873C67.2239 100.741 65.9564 105.254 66.6694 105.756C67.7422 105.843 72.5879 106.364 72.9147 105.357C73.4066 103.845 72.5186 102.293 73.707 100.173C75.0768 97.7299 77.4172 97.8063 79.6453 96.8458C82.9627 95.4167 85.8544 92.7844 89.3698 94.865C90.4691 95.5131 91.4296 97.3111 92.5321 97.2114C92.8358 97.1848 96.1763 94.074 96.4041 93.6951C97.3383 92.1463 95.569 91.5082 94.7537 90.438C91.8455 86.616 94.45 84.8512 95.8958 81.3016C97.368 77.6823 97.0874 74.1161 101.87 73.3584C102.966 73.1855 104.244 73.6575 105.165 73.0194C105.383 72.7036 105.426 68.1504 105.31 67.5122C105.049 66.0997 102.745 66.8376 101.534 66.6614C97.302 66.0432 97.1732 61.8556 95.8958 58.7115C94.6183 55.5674 92.2086 53.8259 94.3476 50.16C94.9913 49.0533 96.7771 48.0861 96.6781 46.9761C96.6484 46.6504 93.7436 43.4997 93.3177 43.2072V43.2005ZM22.0112 52.1475C16.9014 52.4167 17.5318 60.1772 22.2389 59.9312C27.3488 59.662 26.7183 51.9016 22.0112 52.1475ZM117.078 52.1475C111.968 52.4167 112.598 60.1772 117.306 59.9312C122.415 59.662 121.785 51.9016 117.078 52.1475ZM22.0112 80.0653C16.9014 80.3345 17.5318 88.0949 22.2389 87.849C27.3488 87.5798 26.7183 79.8193 22.0112 80.0653ZM117.078 80.0653C111.968 80.3345 112.598 88.0949 117.306 87.849C122.415 87.5798 121.785 79.8193 117.078 80.0653ZM31.914 113.965C26.8041 114.235 27.4346 121.995 32.1417 121.749C37.2516 121.48 36.6211 113.719 31.914 113.965ZM107.175 113.965C102.065 114.235 102.696 121.995 107.403 121.749C112.513 121.48 111.882 113.719 107.175 113.965Z"
            fill="white" fill-opacity="0.8" />
        <path
            d="M67.9406 46.8333C98.9428 44.6265 101.105 91.9271 70.8091 93.2598C40.7145 94.5826 38.1695 48.9537 67.9406 46.8333ZM67.6039 51.1472C43.3289 53.9091 47.1216 90.8669 71.1392 88.9392C96.0743 86.9385 92.3806 48.3322 67.6039 51.1472Z"
            fill="white" fill-opacity="0.8" />
    </g>
    <defs>
        <filter id="filter0_f_2014_112" x="4.68311" y="4" width="131.317" height="131.317" filterUnits="userSpaceOnUse"
            color-interpolation-filters="sRGB">
            <feFlood flood-opacity="0" result="BackgroundImageFix" />
            <feBlend mode="normal" in="SourceGraphic" in2="BackgroundImageFix" result="shape" />
            <feGaussianBlur stdDeviation="5" result="effect1_foregroundBlur_2014_112" />
        </filter>

    </defs>
</svg>