<svg width="140" height="140" viewBox="0 0 140 140" fill="none" xmlns="http://www.w3.org/2000/svg">
    <g>
        <g filter="url(#filter0_f_2014_112)">
            <path
                d="M73.0004 33.7873V44.4626H105.86C110.357 44.4626 118.037 50.6376 118.037 55.3047V65.8132H126.877C127.178 65.8132 129.376 66.6473 129.82 66.8741C132.389 68.1918 133.85 70.4604 134.063 73.306C134.714 81.9697 133.613 91.5108 133.97 100.261C133.696 101.899 132.202 103.881 130.877 104.842C130.203 105.332 127.545 106.51 126.874 106.51H118.034V117.352C118.034 120.744 111.612 126.986 108.045 127.38L32.4942 127.497C28.7178 127.303 21.9556 120.901 21.9556 117.352V106.51H13.1151C12.4446 106.51 9.78574 105.329 9.11186 104.842C7.78745 103.881 6.29624 101.899 6.01935 100.261C6.37631 91.5108 5.27541 81.9664 5.92594 73.306C6.13945 70.4604 7.60063 68.1918 10.1694 66.8741C10.6131 66.6473 12.8115 65.8132 13.1118 65.8132H21.9523V54.9711C21.9523 53.4465 25.1682 48.8928 26.4659 47.8086C27.9538 46.5643 32.274 44.4626 34.1288 44.4626H66.9888V33.7873C66.9888 33.6138 64.7637 33.0233 63.8763 32.3961C52.8107 24.5464 62.7621 8.10308 74.6584 13.6075C83.7191 17.7976 82.5114 31.1785 72.9904 33.7906L73.0004 33.7873ZM68.2465 18.5215C67.4125 18.735 65.4509 20.6433 65.1774 21.4572C63.3792 26.7816 69.5409 30.9183 73.5175 27.1285C77.494 23.3388 73.7643 17.1137 68.2465 18.5215ZM33.2114 50.5409C30.269 51.5684 28.0939 53.8235 27.6302 56.9694L27.6202 115.03C27.8037 118.693 31.1064 121.865 34.7894 121.872H105.54C109.146 121.669 112.176 118.636 112.379 115.03V57.293C112.145 53.9203 109.233 50.7777 105.88 50.4508L33.2148 50.5442L33.2114 50.5409ZM21.959 71.4845H13.7857C13.1551 71.4845 11.307 73.0124 11.6106 73.9799C12.2911 81.6594 10.7198 90.8536 11.6106 98.3463C11.6773 98.9034 12.2678 100.508 12.7848 100.508H21.959V71.4845ZM118.037 100.508H127.211C127.728 100.508 128.319 98.9034 128.385 98.3463C129.273 90.8502 127.701 81.6594 128.385 73.9799C128.692 73.0124 126.841 71.4845 126.21 71.4845H118.037V100.508Z"
                fill="#00865B" />
            <path
                d="M53.2446 65.89C64.1268 64.7457 65.3078 82.2366 54.1387 82.5034C44.0538 82.7436 42.7394 66.9942 53.2446 65.89ZM53.8751 71.5612C50.6192 71.8281 50.816 77.7229 55.0895 76.4218C57.2012 75.778 56.4839 71.3477 53.8751 71.5612Z"
                fill="#00865B" />
            <path
                d="M85.2705 65.89C96.1527 64.7457 97.3336 82.2366 86.1646 82.5034C76.0797 82.7436 74.7653 66.9942 85.2705 65.89ZM85.901 71.5612C82.645 71.8281 82.8419 77.7229 87.1153 76.4218C89.227 75.778 88.5098 71.3477 85.901 71.5612Z"
                fill="#00865B" />
            <path
                d="M55.8966 97.569C57.6514 97.1854 60.13 98.8601 61.9182 99.4139C66.9456 100.968 72.7636 101.015 77.8177 99.4872C79.5191 98.9735 82.2547 97.3121 83.8126 97.5123C86.5615 97.8626 86.9985 101.542 84.3597 103.03C79.2756 105.896 71.2591 106.993 65.5311 106.143C63.3527 105.819 56.0167 103.837 54.6322 102.363C53.2611 100.905 53.7916 98.0294 55.8933 97.569H55.8966Z"
                fill="#00865B" />
        </g>
        <g>
            <path
                d="M73.0004 33.7873V44.4626H105.86C110.357 44.4626 118.037 50.6376 118.037 55.3047V65.8132H126.877C127.178 65.8132 129.376 66.6473 129.82 66.8741C132.389 68.1918 133.85 70.4604 134.063 73.306C134.714 81.9697 133.613 91.5108 133.97 100.261C133.696 101.899 132.202 103.881 130.877 104.842C130.203 105.332 127.545 106.51 126.874 106.51H118.034V117.352C118.034 120.744 111.612 126.986 108.045 127.38L32.4942 127.497C28.7178 127.303 21.9556 120.901 21.9556 117.352V106.51H13.1151C12.4446 106.51 9.78574 105.329 9.11186 104.842C7.78745 103.881 6.29624 101.899 6.01935 100.261C6.37631 91.5108 5.27541 81.9664 5.92594 73.306C6.13945 70.4604 7.60063 68.1918 10.1694 66.8741C10.6131 66.6473 12.8115 65.8132 13.1118 65.8132H21.9523V54.9711C21.9523 53.4465 25.1682 48.8928 26.4659 47.8086C27.9538 46.5643 32.274 44.4626 34.1288 44.4626H66.9888V33.7873C66.9888 33.6138 64.7637 33.0233 63.8763 32.3961C52.8107 24.5464 62.7621 8.10308 74.6584 13.6075C83.7191 17.7976 82.5114 31.1785 72.9904 33.7906L73.0004 33.7873ZM68.2465 18.5215C67.4125 18.735 65.4509 20.6433 65.1774 21.4572C63.3792 26.7816 69.5409 30.9183 73.5175 27.1285C77.494 23.3388 73.7643 17.1137 68.2465 18.5215ZM33.2114 50.5409C30.269 51.5684 28.0939 53.8235 27.6302 56.9694L27.6202 115.03C27.8037 118.693 31.1064 121.865 34.7894 121.872H105.54C109.146 121.669 112.176 118.636 112.379 115.03V57.293C112.145 53.9203 109.233 50.7777 105.88 50.4508L33.2148 50.5442L33.2114 50.5409ZM21.959 71.4845H13.7857C13.1551 71.4845 11.307 73.0124 11.6106 73.9799C12.2911 81.6594 10.7198 90.8536 11.6106 98.3463C11.6773 98.9034 12.2678 100.508 12.7848 100.508H21.959V71.4845ZM118.037 100.508H127.211C127.728 100.508 128.319 98.9034 128.385 98.3463C129.273 90.8502 127.701 81.6594 128.385 73.9799C128.692 73.0124 126.841 71.4845 126.21 71.4845H118.037V100.508Z"
                fill="white" fill-opacity="0.8" />
            <path
                d="M53.2446 65.89C64.1268 64.7457 65.3078 82.2366 54.1387 82.5034C44.0538 82.7436 42.7394 66.9942 53.2446 65.89ZM53.8751 71.5612C50.6192 71.8281 50.816 77.7229 55.0895 76.4218C57.2012 75.778 56.4839 71.3477 53.8751 71.5612Z"
                fill="white" fill-opacity="0.8" />
            <path
                d="M85.2705 65.89C96.1527 64.7457 97.3336 82.2366 86.1646 82.5034C76.0797 82.7436 74.7653 66.9942 85.2705 65.89ZM85.901 71.5612C82.645 71.8281 82.8419 77.7229 87.1153 76.4218C89.227 75.778 88.5098 71.3477 85.901 71.5612Z"
                fill="white" fill-opacity="0.8" />
            <path
                d="M55.8966 97.569C57.6514 97.1854 60.13 98.8601 61.9182 99.4139C66.9456 100.968 72.7636 101.015 77.8177 99.4872C79.5191 98.9735 82.2547 97.3121 83.8126 97.5123C86.5615 97.8626 86.9985 101.542 84.3597 103.03C79.2756 105.896 71.2591 106.993 65.5311 106.143C63.3527 105.819 56.0167 103.837 54.6322 102.363C53.2611 100.905 53.7916 98.0294 55.8933 97.569H55.8966Z"
                fill="white" fill-opacity="0.8" />
        </g>
    </g>
    <defs>
        <filter id="filter0_f_2014_112" x="-4.27734" y="2.5" width="148.554" height="135" filterUnits="userSpaceOnUse"
            color-interpolation-filters="sRGB">
            <feFlood flood-opacity="0" result="BackgroundImageFix" />
            <feBlend mode="normal" in="SourceGraphic" in2="BackgroundImageFix" result="shape" />
            <feGaussianBlur stdDeviation="5" result="effect1_foregroundBlur_2014_112" />
        </filter>

    </defs>
</svg>