<svg width="140" height="140" viewBox="0 0 140 140" fill="none" xmlns="http://www.w3.org/2000/svg">
    <g filter="url(#filter0_f_2014_112)">
        <path
            d="M42.4742 29.4658C42.7018 27.8392 44.3955 26.3338 46.0027 26.1485C47.6098 25.9632 53.4649 25.9151 54.8285 26.2011C55.6958 26.3818 57.4987 27.9375 57.4987 28.7794V35.5284H82.5397V28.7794C82.5397 28.6788 83.3819 27.2237 83.5572 27.0567C83.8008 26.8302 84.8867 26.2652 85.2076 26.1988C86.6077 25.9128 92.4832 25.9677 94.0357 26.1462C95.4721 26.3109 97.5642 27.949 97.5642 29.4635V35.5261H105.19C108.787 35.5261 112.279 39.6899 112.357 43.1948L112.37 105.199C112.118 109.243 109.543 113.215 105.418 113.997L34.0377 113.897C30.9531 112.998 28.7313 110.264 27.9687 107.184C27.2948 85.8324 27.8639 64.3615 27.6796 42.966C27.8822 39.5572 31.331 35.5284 34.8481 35.5284H42.4742C42.6631 33.641 42.2169 31.2914 42.4742 29.4658ZM52.9458 30.4953H47.2547V41.9343H52.9458V30.4953ZM93.0113 30.4953H86.8649V41.9343H93.0113V30.4953ZM32.2302 42.735V55.661H107.808V42.735C107.808 42.4902 107.03 41.2548 106.793 41.01C105.061 39.2369 99.9704 40.4701 97.5642 40.1017C97.76 42.1745 97.4436 44.7826 95.3674 45.7869C93.4165 46.734 86.6691 46.8988 84.7569 45.9951C82.4577 44.9107 82.3894 42.3209 82.5397 40.1017H57.4987C57.6626 42.3369 57.5488 45.1234 55.1198 46.0614C53.0802 46.8484 46.6651 46.7546 44.671 45.7869C42.6768 44.8192 42.2784 42.1722 42.4742 40.1017C39.6218 40.5158 32.9541 38.6375 32.2279 42.735H32.2302ZM107.808 60.2366H32.2302V105.878C32.2302 107.26 34.1333 109.818 35.7587 109.653C58.8464 109.548 81.9705 109.861 105.036 109.495C106.283 109.39 107.808 106.91 107.808 105.876V60.2343V60.2366Z"
            fill="#0077FF" />
        <path
            d="M70.6244 66.0341L75.7077 76.1393L86.5163 77.8597C88.0074 78.5163 88.4513 80.0079 87.5475 81.4012L79.8418 89.0013C79.9488 92.2705 81.3624 95.8738 81.5992 99.0447C81.7039 100.427 81.2782 101.943 79.6688 102.101C77.7975 102.286 71.2049 97.6194 68.9899 96.9285L59.1398 102.044C58.0357 102.348 57.0773 101.877 56.5287 100.902C56.1622 96.9834 57.7557 92.9248 58.1404 88.9944L50.3345 81.2754C49.4079 79.6213 50.1136 78.045 51.969 77.6767L62.2835 76.1461L67.2758 66.0638C68.3662 65.1052 69.5204 65.119 70.6199 66.0341H70.6244ZM80.9458 81.5156C79.0359 80.8613 74.2463 81.1129 72.7529 80.024C71.7171 79.2667 69.9051 74.1992 69.1038 72.822C68.7327 72.5406 65.6595 79.7883 65.0767 80.1544C63.531 81.1267 58.9417 80.7881 57.0409 81.5179C58.0289 83.2497 62.0491 85.5741 62.5795 87.2717C63.1099 88.9692 61.3343 95.3636 61.596 95.6999C63.399 95.128 67.3236 92.0372 68.9922 92.0349C70.2033 92.0349 75.817 95.8326 76.163 95.4689C76.1721 94.9838 76.1881 94.4965 76.1357 94.0092C75.9536 92.3025 75.1819 90.0994 75.0772 88.4339C74.9406 86.3039 79.687 83.204 80.9458 81.5179V81.5156Z"
            fill="#0077FF" />
    </g>
    <g>
        <path
            d="M42.4742 29.4658C42.7018 27.8392 44.3955 26.3338 46.0027 26.1485C47.6098 25.9632 53.4649 25.9151 54.8285 26.2011C55.6958 26.3818 57.4987 27.9375 57.4987 28.7794V35.5284H82.5397V28.7794C82.5397 28.6788 83.3819 27.2237 83.5572 27.0567C83.8008 26.8302 84.8867 26.2652 85.2076 26.1988C86.6077 25.9128 92.4832 25.9677 94.0357 26.1462C95.4721 26.3109 97.5642 27.949 97.5642 29.4635V35.5261H105.19C108.787 35.5261 112.279 39.6899 112.357 43.1948L112.37 105.199C112.118 109.243 109.543 113.215 105.418 113.997L34.0377 113.897C30.9531 112.998 28.7313 110.264 27.9687 107.184C27.2948 85.8324 27.8639 64.3615 27.6796 42.966C27.8822 39.5572 31.331 35.5284 34.8481 35.5284H42.4742C42.6631 33.641 42.2169 31.2914 42.4742 29.4658ZM52.9458 30.4953H47.2547V41.9343H52.9458V30.4953ZM93.0113 30.4953H86.8649V41.9343H93.0113V30.4953ZM32.2302 42.735V55.661H107.808V42.735C107.808 42.4902 107.03 41.2548 106.793 41.01C105.061 39.2369 99.9704 40.4701 97.5642 40.1017C97.76 42.1745 97.4436 44.7826 95.3674 45.7869C93.4165 46.734 86.6691 46.8988 84.7569 45.9951C82.4577 44.9107 82.3894 42.3209 82.5397 40.1017H57.4987C57.6626 42.3369 57.5488 45.1234 55.1198 46.0614C53.0802 46.8484 46.6651 46.7546 44.671 45.7869C42.6768 44.8192 42.2784 42.1722 42.4742 40.1017C39.6218 40.5158 32.9541 38.6375 32.2279 42.735H32.2302ZM107.808 60.2366H32.2302V105.878C32.2302 107.26 34.1333 109.818 35.7587 109.653C58.8464 109.548 81.9705 109.861 105.036 109.495C106.283 109.39 107.808 106.91 107.808 105.876V60.2343V60.2366Z"
            fill="white" fill-opacity="0.8" />
        <path
            d="M70.6244 66.0341L75.7077 76.1393L86.5163 77.8597C88.0074 78.5163 88.4513 80.0079 87.5475 81.4012L79.8418 89.0013C79.9488 92.2705 81.3624 95.8738 81.5992 99.0447C81.7039 100.427 81.2782 101.943 79.6688 102.101C77.7975 102.286 71.2049 97.6194 68.9899 96.9285L59.1398 102.044C58.0357 102.348 57.0773 101.877 56.5287 100.902C56.1622 96.9834 57.7557 92.9248 58.1404 88.9944L50.3345 81.2754C49.4079 79.6213 50.1136 78.045 51.969 77.6767L62.2835 76.1461L67.2758 66.0638C68.3662 65.1052 69.5204 65.119 70.6199 66.0341H70.6244ZM80.9458 81.5156C79.0359 80.8613 74.2463 81.1129 72.7529 80.024C71.7171 79.2667 69.9051 74.1992 69.1038 72.822C68.7327 72.5406 65.6595 79.7883 65.0767 80.1544C63.531 81.1267 58.9417 80.7881 57.0409 81.5179C58.0289 83.2497 62.0491 85.5741 62.5795 87.2717C63.1099 88.9692 61.3343 95.3636 61.596 95.6999C63.399 95.128 67.3236 92.0372 68.9922 92.0349C70.2033 92.0349 75.817 95.8326 76.163 95.4689C76.1721 94.9838 76.1881 94.4965 76.1357 94.0092C75.9536 92.3025 75.1819 90.0994 75.0772 88.4339C74.9406 86.3039 79.687 83.204 80.9458 81.5179V81.5156Z"
            fill="white" fill-opacity="0.8" />
    </g>
    <defs>
        <filter id="filter0_f_2014_112" x="17.6294" y="16" width="104.741" height="108" filterUnits="userSpaceOnUse"
            color-interpolation-filters="sRGB">
            <feFlood flood-opacity="0" result="BackgroundImageFix" />
            <feBlend mode="normal" in="SourceGraphic" in2="BackgroundImageFix" result="shape" />
            <feGaussianBlur stdDeviation="5" result="effect1_foregroundBlur_2014_112" />
        </filter>

    </defs>
</svg>