<svg width="140" height="140" viewBox="0 0 140 140" fill="none" xmlns="http://www.w3.org/2000/svg">
    <g filter="url(#filter0_f_2014_112)">
        <path
            d="M96.768 51.9316H82.3513C81.2169 51.9316 78.6515 50.6017 77.7623 49.7772C76.8218 48.9014 75.2104 46.2659 75.2104 45.0387V30.3069H38.4278C38.3281 30.3069 36.908 31.1151 36.6924 31.2692C35.1429 32.3855 34.7145 33.9993 34.5097 35.8374V104.245C34.7522 107.075 35.919 108.951 38.7134 109.759L66.1185 109.84C70.4273 110.897 70.1093 116.325 65.6442 116.803C57.2907 116.346 48.3119 117.406 40.0338 116.814C34.0893 116.387 29.5137 113.067 28.1206 107.14C27.5601 82.4657 27.5601 57.6162 28.1206 32.9424C29.511 27.0172 34.0866 23.6951 40.0338 23.268C51.8905 22.4165 64.7388 23.933 76.7006 23.268C78.277 23.4842 79.856 23.8546 81.2276 24.6736C87.3527 31.5881 95.8356 37.9917 101.624 45.0306C102.195 45.7253 102.785 46.4794 103.092 47.3417C104.151 50.2989 104.095 61.5816 103.785 65.0524C103.515 68.069 101.071 70.5343 98.2473 68.4231C97.8836 68.1501 96.768 66.7121 96.768 66.3931V51.9316ZM82.2166 35.1724V44.9035H91.9175L82.2166 35.1724Z"
            fill="#FE5000" />
        <path
            d="M98.9913 77.2727C99.1637 77.4592 100.603 78.1323 100.94 78.1701C102.737 78.3674 104.41 77.1591 106.396 77.8187C108.552 78.5323 112.335 85.3468 112.241 87.6498C112.131 90.3448 108.897 91.5234 109.153 94.2346C109.339 96.2051 112.319 97.7026 112.3 100.135C112.284 102.214 109.045 107.945 107.42 109.245C105.009 111.172 101.815 108.569 99.638 110.088C97.4607 111.607 98.5601 115.27 94.987 116.235C92.4755 116.914 85.8493 117.192 84.1408 115.011C83.4348 114.108 82.4809 110.672 82.0336 110.299C79.9425 108.556 76.8139 110.75 74.3995 109.645C72.5267 108.788 68.6005 101.976 68.7487 99.9462C68.9319 97.4269 72.4243 96.07 71.9608 93.1695C71.7102 91.6018 69.0505 89.861 68.7945 87.9445C68.525 85.9307 71.985 79.9163 73.583 78.5458C76.3451 76.1806 79.7188 79.5325 82.0282 77.3565C82.6183 76.7996 83.3998 73.5235 84.2459 72.4828C85.9274 70.4176 93.5426 70.642 95.7927 71.6908C96.4017 71.9746 96.9002 72.3368 97.264 72.918C97.8568 73.8614 98.4604 76.6969 98.9886 77.2727H98.9913ZM93.8956 82.1139C93.1034 81.3192 92.3165 78.2674 91.9285 78.0052C91.6159 77.7944 89.7889 77.7917 89.4009 77.9241C88.6975 78.1647 88.0885 81.03 87.617 81.7436C87.4095 82.0571 82.4755 85.0278 82.0174 85.1197C80.6242 85.4036 78.4227 84.3791 77.5496 84.671C77.2181 84.7819 76.0945 86.6227 76.1133 86.9335C76.1645 87.7472 78.9454 89.8772 78.9939 91.8099C79.0101 92.4559 78.6841 93.0506 78.6894 93.694C78.7002 95.5131 79.4008 95.6861 78.3472 97.6513C77.9215 98.4433 76.337 99.9651 76.1591 100.584C76.0433 100.984 77.1966 102.89 77.5415 102.99C78.2313 103.187 80.6485 102.252 82.0201 102.541C82.2896 102.598 86.5687 104.947 86.8652 105.174C88.0805 106.107 88.5736 109.58 89.6245 109.775C92.7773 110.359 92.109 108.615 93.2166 106.62C94.095 105.042 98.5952 102.398 100.395 102.474C101.099 102.503 103.168 103.109 103.597 102.987C103.906 102.898 105.027 101.049 105.025 100.717C105.019 100.171 103.047 98.3676 102.675 97.4945C102.303 96.6214 102.252 91.5153 102.481 90.5016C102.71 89.4879 105 87.5228 105.033 86.9281C105.038 86.8119 103.998 84.9792 103.912 84.9008C103.149 84.2007 100.495 85.3928 99.1206 85.1143C98.8242 85.0549 94.1354 82.3491 93.8956 82.1085V82.1139Z"
            fill="#FE5000" />
        <path
            d="M43.0652 60.3675L83.9518 60.327C87.234 61.0973 87.0831 66.4062 83.7039 66.8063L43.2916 66.7847C40.163 65.8548 39.9986 61.6028 43.0625 60.3702L43.0652 60.3675Z"
            fill="#FE5000" />
        <path
            d="M43.3348 44.9599L64.2322 44.968C67.7838 45.8438 67.9751 51.1905 64.0328 51.669C57.7191 52.4312 49.821 51.1392 43.3402 51.5987C39.953 50.6878 40.0419 46.0763 43.3321 44.9626L43.3348 44.9599Z"
            fill="#FE5000" />
        <path
            d="M43.882 75.2426C46.2938 74.8345 57.2396 74.8345 59.6514 75.2426C63.7823 75.94 63.7284 81.5949 59.4223 82.1815C56.7465 82.5464 46.4662 82.5761 43.882 82.1409C39.8669 81.4625 39.8615 75.9211 43.882 75.2426Z"
            fill="#FE5000" />
        <path
            d="M43.882 90.38C46.2964 89.9718 57.2369 89.9718 59.6514 90.38C63.6853 91.0612 63.7877 96.7241 59.4223 97.3188C56.7465 97.6837 46.4662 97.7135 43.882 97.2783C39.8669 96.5998 39.8615 91.0585 43.882 90.38Z"
            fill="#FE5000" />
        <path
            d="M94.763 97.5026C92.3809 100.446 87.1289 99.7516 85.5848 96.2619C83.4668 91.472 87.975 86.7686 92.8039 88.75C96.2882 90.1799 97.0535 94.6752 94.763 97.5026Z"
            fill="#FE5000" />
    </g>
    <g>
        <path
            d="M96.768 51.9316H82.3513C81.2169 51.9316 78.6515 50.6017 77.7623 49.7772C76.8218 48.9014 75.2104 46.2659 75.2104 45.0387V30.3069H38.4278C38.3281 30.3069 36.908 31.1151 36.6924 31.2692C35.1429 32.3855 34.7145 33.9993 34.5097 35.8374V104.245C34.7522 107.075 35.919 108.951 38.7134 109.759L66.1185 109.84C70.4273 110.897 70.1093 116.325 65.6442 116.803C57.2907 116.346 48.3119 117.406 40.0338 116.814C34.0893 116.387 29.5137 113.067 28.1206 107.14C27.5601 82.4657 27.5601 57.6162 28.1206 32.9424C29.511 27.0172 34.0866 23.6951 40.0338 23.268C51.8905 22.4165 64.7388 23.933 76.7006 23.268C78.277 23.4842 79.856 23.8546 81.2276 24.6736C87.3527 31.5881 95.8356 37.9917 101.624 45.0306C102.195 45.7253 102.785 46.4794 103.092 47.3417C104.151 50.2989 104.095 61.5816 103.785 65.0524C103.515 68.069 101.071 70.5343 98.2473 68.4231C97.8836 68.1501 96.768 66.7121 96.768 66.3931V51.9316ZM82.2166 35.1724V44.9035H91.9175L82.2166 35.1724Z"
            fill="white" fill-opacity="0.8" />
        <path
            d="M98.9913 77.2727C99.1637 77.4592 100.603 78.1323 100.94 78.1701C102.737 78.3674 104.41 77.1591 106.396 77.8187C108.552 78.5323 112.335 85.3468 112.241 87.6498C112.131 90.3448 108.897 91.5234 109.153 94.2346C109.339 96.2051 112.319 97.7026 112.3 100.135C112.284 102.214 109.045 107.945 107.42 109.245C105.009 111.172 101.815 108.569 99.638 110.088C97.4607 111.607 98.5601 115.27 94.987 116.235C92.4755 116.914 85.8493 117.192 84.1408 115.011C83.4348 114.108 82.4809 110.672 82.0336 110.299C79.9425 108.556 76.8139 110.75 74.3995 109.645C72.5267 108.788 68.6005 101.976 68.7487 99.9462C68.9319 97.4269 72.4243 96.07 71.9608 93.1695C71.7102 91.6018 69.0505 89.861 68.7945 87.9445C68.525 85.9307 71.985 79.9163 73.583 78.5458C76.3451 76.1806 79.7188 79.5325 82.0282 77.3565C82.6183 76.7996 83.3998 73.5235 84.2459 72.4828C85.9274 70.4176 93.5426 70.642 95.7927 71.6908C96.4017 71.9746 96.9002 72.3368 97.264 72.918C97.8568 73.8614 98.4604 76.6969 98.9886 77.2727H98.9913ZM93.8956 82.1139C93.1034 81.3192 92.3165 78.2674 91.9285 78.0052C91.6159 77.7944 89.7889 77.7917 89.4009 77.9241C88.6975 78.1647 88.0885 81.03 87.617 81.7436C87.4095 82.0571 82.4755 85.0278 82.0174 85.1197C80.6242 85.4036 78.4227 84.3791 77.5496 84.671C77.2181 84.7819 76.0945 86.6227 76.1133 86.9335C76.1645 87.7472 78.9454 89.8772 78.9939 91.8099C79.0101 92.4559 78.6841 93.0506 78.6894 93.694C78.7002 95.5131 79.4008 95.6861 78.3472 97.6513C77.9215 98.4433 76.337 99.9651 76.1591 100.584C76.0433 100.984 77.1966 102.89 77.5415 102.99C78.2313 103.187 80.6485 102.252 82.0201 102.541C82.2896 102.598 86.5687 104.947 86.8652 105.174C88.0805 106.107 88.5736 109.58 89.6245 109.775C92.7773 110.359 92.109 108.615 93.2166 106.62C94.095 105.042 98.5952 102.398 100.395 102.474C101.099 102.503 103.168 103.109 103.597 102.987C103.906 102.898 105.027 101.049 105.025 100.717C105.019 100.171 103.047 98.3676 102.675 97.4945C102.303 96.6214 102.252 91.5153 102.481 90.5016C102.71 89.4879 105 87.5228 105.033 86.9281C105.038 86.8119 103.998 84.9792 103.912 84.9008C103.149 84.2007 100.495 85.3928 99.1206 85.1143C98.8242 85.0549 94.1354 82.3491 93.8956 82.1085V82.1139Z"
            fill="white" fill-opacity="0.8" />
        <path
            d="M43.0652 60.3675L83.9518 60.327C87.234 61.0973 87.0831 66.4062 83.7039 66.8063L43.2916 66.7847C40.163 65.8548 39.9986 61.6028 43.0625 60.3702L43.0652 60.3675Z"
            fill="white" fill-opacity="0.8" />
        <path
            d="M43.3348 44.9599L64.2322 44.968C67.7838 45.8438 67.9751 51.1905 64.0328 51.669C57.7191 52.4312 49.821 51.1392 43.3402 51.5987C39.953 50.6878 40.0419 46.0763 43.3321 44.9626L43.3348 44.9599Z"
            fill="white" fill-opacity="0.8" />
        <path
            d="M43.882 75.2426C46.2938 74.8345 57.2396 74.8345 59.6514 75.2426C63.7823 75.94 63.7284 81.5949 59.4223 82.1815C56.7465 82.5464 46.4662 82.5761 43.882 82.1409C39.8669 81.4625 39.8615 75.9211 43.882 75.2426Z"
            fill="white" fill-opacity="0.8" />
        <path
            d="M43.882 90.38C46.2964 89.9718 57.2369 89.9718 59.6514 90.38C63.6853 91.0612 63.7877 96.7241 59.4223 97.3188C56.7465 97.6837 46.4662 97.7135 43.882 97.2783C39.8669 96.5998 39.8615 91.0585 43.882 90.38Z"
            fill="white" fill-opacity="0.8" />
        <path
            d="M94.763 97.5026C92.3809 100.446 87.1289 99.7516 85.5848 96.2619C83.4668 91.472 87.975 86.7686 92.8039 88.75C96.2882 90.1799 97.0535 94.6752 94.763 97.5026Z"
            fill="white" fill-opacity="0.8" />
    </g>
    <defs>
        <filter id="filter0_f_2014_112" x="17.7002" y="13" width="104.6" height="114" filterUnits="userSpaceOnUse"
            color-interpolation-filters="sRGB">
            <feFlood flood-opacity="0" result="BackgroundImageFix" />
            <feBlend mode="normal" in="SourceGraphic" in2="BackgroundImageFix" result="shape" />
            <feGaussianBlur stdDeviation="5" result="effect1_foregroundBlur_2014_112" />
        </filter>

    </defs>
</svg>