<svg width="140" height="140" viewBox="0 0 140 140" fill="none" xmlns="http://www.w3.org/2000/svg">
    <g>
        <g filter="url(#filter0_f_2014_112)">
            <path
                d="M90.3244 47.5792C91.4002 47.7015 90.9682 47.5589 91.1435 46.9762C98.4819 22.6709 129.714 36.2395 122.119 55.9445C121.695 57.0447 118.097 61.8609 118.435 62.2398C124.739 63.56 130.533 70.8007 131.083 77.1001C131.287 79.4675 131.45 86.8263 131.059 88.9207C130.916 89.6908 130.439 90.1308 129.812 90.5261C127.139 92.2048 115.31 96.3773 112.617 95.5746C110.29 94.8819 110.339 91.6751 112.356 90.5913C114.218 89.593 119.45 89.1122 122.099 88.1098C123.211 87.6901 125.986 86.7367 126.181 85.6732C126.548 83.6603 126.128 79.3086 125.66 77.2305C124.56 72.345 120.974 68.1725 116.08 66.8442C112.939 65.9926 102.907 65.9111 99.525 66.3512C96.8969 66.6975 93.955 68.527 91.9543 70.1936L97.1739 75.9714C99.9732 80.0013 101.379 84.8705 101.729 89.7519C101.901 92.1641 102.112 98.9891 101.648 101.071C101.232 102.933 97.5936 104.327 95.8986 105.101C80.1745 112.297 59.7442 112.297 44.0079 105.101C41.7587 104.074 38.4745 103.06 38.1608 100.354C36.9261 89.6826 38.7597 78.95 46.7175 71.3915C47.4632 70.6866 48.6367 70.9515 47.5162 69.8105C43.2459 65.4792 32.3177 65.8052 26.5439 66.3063C16.3451 67.1946 12.4538 77.1775 13.9207 86.2925C14.1162 86.6144 17.4208 87.955 18.1135 88.2117C20.4768 89.0796 26.3524 89.8049 27.7948 90.7543C29.4777 91.8585 29.5632 94.2259 27.8071 95.2771C26.0509 96.3284 21.1043 94.7148 19.1158 94.1362C17.323 93.6187 9.65857 90.9132 9.0433 89.54C8.60324 88.558 8.66843 78.3958 8.83549 76.7171C9.52411 69.9328 15.5383 64.2935 21.4506 61.6409C3.57512 39.2303 41.3431 20.0509 48.9627 47.5752C50.0832 44.7351 50.6699 42.1274 52.255 39.4585C62.2705 22.622 88.2342 28.3306 90.3204 47.5752L90.3244 47.5792ZM69.0507 34.6382C46.3345 36.4269 52.9558 71.5871 74.7226 64.7784C91.8524 59.4202 86.2865 33.2813 69.0507 34.6382ZM24.9018 42.8567C15.2123 54.3676 32.4359 68.2214 41.4164 56.735C50.2584 45.4238 33.3649 32.8046 24.9018 42.8567ZM114.194 42.054C102.447 32.1648 88.609 50.1829 100.715 58.9842C111.761 67.0153 124.238 50.5089 114.194 42.054ZM56.9082 66.3145C54.3697 63.6497 52.2835 61.4168 50.7922 57.9696C50.0913 56.3479 49.9935 54.0335 48.763 52.8722C48.4167 56.1564 46.5464 59.2613 44.285 61.6327C46.1267 62.7533 47.9236 63.4541 49.7083 64.758C50.5151 65.3488 52.1694 67.3495 52.7154 67.488C53.6893 67.7366 55.6451 66.0537 56.9082 66.3145ZM91.1353 52.8722C90.0514 52.7744 90.4752 52.8559 90.3326 53.4875C89.0776 59.029 87.1258 62.4232 82.9901 66.3186C84.2532 66.0619 86.2091 67.7406 87.1829 67.4921C87.7289 67.3535 89.3832 65.3529 90.19 64.7621C91.9747 63.4582 93.7716 62.7573 95.6133 61.6368C93.3519 59.2653 91.4776 56.1605 91.1353 52.8722ZM95.9597 99.2621C96.575 88.9166 96.6361 79.1659 86.6613 73.4451C80.6309 69.9858 69.397 70.3403 62.3886 70.7844C56.3541 71.1633 51.3097 73.5755 47.6058 78.4121C42.6551 84.8745 43.9182 91.5651 43.9345 99.2621C60.5061 107.191 79.3881 107.187 95.9556 99.2621H95.9597Z"
                fill="#5A04D8" />
        </g>
        <g>
            <path
                d="M90.3244 47.5792C91.4002 47.7015 90.9682 47.5589 91.1435 46.9762C98.4819 22.6709 129.714 36.2395 122.119 55.9445C121.695 57.0447 118.097 61.8609 118.435 62.2398C124.739 63.56 130.533 70.8007 131.083 77.1001C131.287 79.4675 131.45 86.8263 131.059 88.9207C130.916 89.6908 130.439 90.1308 129.812 90.5261C127.139 92.2048 115.31 96.3773 112.617 95.5746C110.29 94.8819 110.339 91.6751 112.356 90.5913C114.218 89.593 119.45 89.1122 122.099 88.1098C123.211 87.6901 125.986 86.7367 126.181 85.6732C126.548 83.6603 126.128 79.3086 125.66 77.2305C124.56 72.345 120.974 68.1725 116.08 66.8442C112.939 65.9926 102.907 65.9111 99.525 66.3512C96.8969 66.6975 93.955 68.527 91.9543 70.1936L97.1739 75.9714C99.9732 80.0013 101.379 84.8705 101.729 89.7519C101.901 92.1641 102.112 98.9891 101.648 101.071C101.232 102.933 97.5936 104.327 95.8986 105.101C80.1745 112.297 59.7442 112.297 44.0079 105.101C41.7587 104.074 38.4745 103.06 38.1608 100.354C36.9261 89.6826 38.7597 78.95 46.7175 71.3915C47.4632 70.6866 48.6367 70.9515 47.5162 69.8105C43.2459 65.4792 32.3177 65.8052 26.5439 66.3063C16.3451 67.1946 12.4538 77.1775 13.9207 86.2925C14.1162 86.6144 17.4208 87.955 18.1135 88.2117C20.4768 89.0796 26.3524 89.8049 27.7948 90.7543C29.4777 91.8585 29.5632 94.2259 27.8071 95.2771C26.0509 96.3284 21.1043 94.7148 19.1158 94.1362C17.323 93.6187 9.65857 90.9132 9.0433 89.54C8.60324 88.558 8.66843 78.3958 8.83549 76.7171C9.52411 69.9328 15.5383 64.2935 21.4506 61.6409C3.57512 39.2303 41.3431 20.0509 48.9627 47.5752C50.0832 44.7351 50.6699 42.1274 52.255 39.4585C62.2705 22.622 88.2342 28.3306 90.3204 47.5752L90.3244 47.5792ZM69.0507 34.6382C46.3345 36.4269 52.9558 71.5871 74.7226 64.7784C91.8524 59.4202 86.2865 33.2813 69.0507 34.6382ZM24.9018 42.8567C15.2123 54.3676 32.4359 68.2214 41.4164 56.735C50.2584 45.4238 33.3649 32.8046 24.9018 42.8567ZM114.194 42.054C102.447 32.1648 88.609 50.1829 100.715 58.9842C111.761 67.0153 124.238 50.5089 114.194 42.054ZM56.9082 66.3145C54.3697 63.6497 52.2835 61.4168 50.7922 57.9696C50.0913 56.3479 49.9935 54.0335 48.763 52.8722C48.4167 56.1564 46.5464 59.2613 44.285 61.6327C46.1267 62.7533 47.9236 63.4541 49.7083 64.758C50.5151 65.3488 52.1694 67.3495 52.7154 67.488C53.6893 67.7366 55.6451 66.0537 56.9082 66.3145ZM91.1353 52.8722C90.0514 52.7744 90.4752 52.8559 90.3326 53.4875C89.0776 59.029 87.1258 62.4232 82.9901 66.3186C84.2532 66.0619 86.2091 67.7406 87.1829 67.4921C87.7289 67.3535 89.3832 65.3529 90.19 64.7621C91.9747 63.4582 93.7716 62.7573 95.6133 61.6368C93.3519 59.2653 91.4776 56.1605 91.1353 52.8722ZM95.9597 99.2621C96.575 88.9166 96.6361 79.1659 86.6613 73.4451C80.6309 69.9858 69.397 70.3403 62.3886 70.7844C56.3541 71.1633 51.3097 73.5755 47.6058 78.4121C42.6551 84.8745 43.9182 91.5651 43.9345 99.2621C60.5061 107.191 79.3881 107.187 95.9556 99.2621H95.9597Z"
                fill="white" fill-opacity="0.8" />
        </g>
    </g>
    <defs>
        <filter id="filter0_f_2014_112" x="-1.29492" y="19.5" width="142.59" height="101" filterUnits="userSpaceOnUse"
            color-interpolation-filters="sRGB">
            <feFlood flood-opacity="0" result="BackgroundImageFix" />
            <feBlend mode="normal" in="SourceGraphic" in2="BackgroundImageFix" result="shape" />
            <feGaussianBlur stdDeviation="5" result="effect1_foregroundBlur_2014_112" />
        </filter>

    </defs>
</svg>