<svg width="110" height="110" viewBox="0 0 110 110" fill="none" xmlns="http://www.w3.org/2000/svg">
    <g clip-path="url(#clip0_2011_364)">
        <path
            d="M15.0244 26.4192C15.0244 21.3826 15.0536 16.3433 15.0033 11.3067C14.99 10.1026 15.3342 9.4899 16.5679 9.16368C24.1239 7.16654 31.77 5.71311 39.5404 4.82196C46.972 3.97058 54.4195 3.84328 61.8616 4.15359C72.6423 4.60182 83.243 6.34169 93.6504 9.23264C94.6352 9.50582 95.0006 9.98853 94.998 10.9937C94.9741 21.2022 95.0377 31.408 94.9609 41.6165C94.8947 50.3928 93.51 58.941 90.0127 67.0622C87.0289 73.9898 82.7982 80.1006 77.8209 85.7234C71.3265 93.0621 63.8764 99.3453 56.2516 105.443C55.4573 106.077 54.7663 106.244 53.9032 105.552C45.0711 98.4833 36.4534 91.1896 29.3157 82.3205C22.6334 74.019 18.0611 64.7361 16.1549 54.1855C15.3421 49.6873 15.1224 45.1493 15.043 40.6034C14.9609 35.8771 15.0244 31.1481 15.0244 26.4192ZM93.0309 27.8753H93.0361C93.0361 22.706 93.0229 17.5342 93.0494 12.3649C93.0547 11.487 92.8164 11.0096 91.8951 10.7656C81.8848 8.11869 71.713 6.50613 61.3718 6.09768C53.1248 5.77146 44.8884 6.02077 36.6917 7.12145C30.4806 7.95426 24.3437 9.15307 18.2809 10.7391C17.4019 10.9699 16.9412 11.3332 16.9545 12.357C17.108 23.4009 16.7188 34.4475 17.1822 45.4888C17.3993 50.6793 18.2412 55.761 19.7608 60.726C22.7737 70.5764 28.3732 78.8593 35.3176 86.3068C41.0813 92.4892 47.5042 97.9475 54.0726 103.241C54.8192 103.843 55.3488 103.721 56.0345 103.165C59.9343 99.9871 63.834 96.8044 67.53 93.3883C74.0032 87.4075 79.9786 80.9971 84.5773 73.4037C90.341 63.8901 92.7846 53.4694 93.015 42.4599C93.1156 37.601 93.0309 32.7395 93.0309 27.8779V27.8753Z"
            fill="#FE5000" />
        <path
            d="M86.2495 31.0184C86.2283 35.2116 86.3474 40.4259 86.0509 45.6349C85.4579 56.053 82.1352 65.4976 76.0539 73.9768C70.3644 81.9097 63.2082 88.3865 55.7607 94.5794C55.2974 94.964 54.9082 95.1258 54.3734 94.6802C45.1945 87.0152 36.357 79.0267 30.4346 68.4018C26.2965 60.9782 24.2261 52.971 23.9243 44.4706C23.6172 35.811 23.8449 27.1515 23.7655 18.4919C23.7469 16.3807 23.7787 16.4311 25.8729 15.9484C37.5087 13.267 49.306 12.4076 61.2093 12.8691C69.2445 13.1794 77.1711 14.3756 85.0237 16.0863C86.1171 16.325 86.2548 17.0199 86.2521 17.9349C86.2362 21.9557 86.2468 25.9792 86.2468 31.0184H86.2495ZM84.3009 31.9467C84.3009 27.2151 84.2612 23.3269 84.3247 19.4387C84.3433 18.2744 83.9488 17.8447 82.8157 17.6113C72.8954 15.5664 62.8878 14.5639 52.7531 14.739C43.9951 14.8901 35.3536 15.9086 26.7916 17.7174C25.9708 17.8898 25.6928 18.2691 25.7008 19.0621C25.7246 21.359 25.6743 23.6584 25.714 25.9553C25.8385 33.4134 25.3831 40.8821 26.1668 48.3323C27.0749 56.9547 30.0109 64.7921 34.9009 71.9266C40.2754 79.7667 47.1854 86.1161 54.384 92.1924C54.9373 92.6592 55.2788 92.4789 55.7369 92.0943C61.6488 87.1081 67.3409 81.9097 72.2097 75.8573C79.493 66.8025 83.5755 56.5569 84.1368 44.8844C84.3565 40.288 84.1632 35.6996 84.3009 31.952V31.9467Z"
            fill="#FE5000" />
        <path
            d="M74.0903 39.4578C74.0824 39.9511 73.7541 40.2588 73.4417 40.5717C65.4144 48.5815 57.3792 56.586 49.3599 64.6064C48.5206 65.4445 47.8693 65.4259 47.03 64.5719C43.5989 61.0762 40.1386 57.6097 36.6491 54.1698C35.7569 53.2892 35.7331 52.5917 36.6544 51.7403C37.8193 50.6609 38.9498 49.5416 40.0327 48.3799C40.8984 47.449 41.6132 47.5179 42.4657 48.4038C44.0251 50.0243 45.6904 51.5467 47.2313 53.1858C47.9858 53.9894 48.4597 54.1379 49.3281 53.268C55.2109 47.3562 61.1492 41.5 67.0664 35.6253C68.3196 34.3823 69.5489 34.3743 70.7544 35.6014C71.6519 36.5138 72.5495 37.4262 73.4417 38.3438C73.7488 38.6595 74.0665 38.9751 74.0903 39.4604V39.4578ZM48.0943 62.763C48.6609 62.7259 48.8965 62.3042 49.1984 62.0072C56.2196 55.0503 63.2355 48.0882 70.2514 41.1234C71.3387 40.0448 71.3404 38.9574 70.2567 37.8611C69.3671 36.9594 68.4626 36.9673 67.543 37.885C61.5914 43.7889 55.6398 49.6954 49.6829 55.594C48.5153 56.7504 48.2744 56.7478 47.0856 55.6126C45.8413 54.4244 44.6155 53.215 43.3632 52.0374C40.8401 49.6636 41.7774 49.4939 39.0107 52.1408C38.3938 52.7323 38.3859 53.1805 38.9975 53.7852C41.8541 56.6072 44.679 59.461 47.5198 62.2989C47.7025 62.4819 47.9196 62.6304 48.0917 62.7684L48.0943 62.763Z"
            fill="#FE5000" />
    </g>
    <defs>
        <clipPath id="clip0_2011_364">
            <rect width="80" height="102" fill="white" transform="translate(15 4)" />
        </clipPath>
    </defs>
</svg>