<svg width="110" height="110" viewBox="0 0 110 110" fill="none" xmlns="http://www.w3.org/2000/svg">
    <g clip-path="url(#clip0_2011_364)">
        <path
            d="M57.2288 91C48.9812 91 40.7312 91 32.4836 91C29.6403 91 26.9913 90.3733 24.6685 88.6426C17.8206 83.5445 18.6118 73.1096 26.2163 69.2051C27.4633 68.5647 27.9746 67.8898 27.9121 66.5103C27.8681 65.5416 28.1596 64.5431 28.3933 63.5813C28.539 62.9845 28.4373 62.5668 27.9907 62.149C24.2429 58.66 22.2371 54.3194 21.9317 49.2718C21.6263 44.2586 23.1416 39.7435 26.3898 35.8781C30.1192 31.4388 34.9637 28.9873 40.7636 28.8174C50.6909 28.5259 58.8159 35.497 60.5534 44.5983C60.8217 45.9985 60.794 46.0031 62.1335 45.5371C72.6252 41.8852 83.8226 48.6451 85.3195 59.5644C85.4559 60.556 85.8099 61.0403 86.8441 61.3456C93.6596 63.3564 98.1455 69.4071 97.9998 76.2405C97.8378 83.7671 91.7024 90.2264 84.165 90.8553C82.8556 90.9655 81.5507 91 80.2413 91C72.5697 91 64.9004 91 57.2288 91ZM57.3769 88.1881C65.8976 88.1881 74.4182 88.1881 82.9388 88.1881C83.0545 88.1881 83.1702 88.1881 83.2859 88.1835C92.3942 88.0022 98.2288 77.705 93.6434 69.8983C91.6469 66.4988 88.7296 64.3824 84.7989 63.68C82.999 63.3587 82.7653 63.0649 82.6959 61.2767C82.6728 60.7052 82.6705 60.1245 82.571 59.5621C81.4744 53.3163 76.4842 48.31 70.5361 47.4584C63.746 46.4897 57.68 49.5771 54.7118 55.5153C53.8049 57.3286 53.3051 57.4618 51.6186 56.3761C48.3496 54.2735 44.8123 53.6239 41.0065 54.4755C35.114 55.7953 30.14 61.3617 30.6721 68.505C30.7993 70.2059 30.6235 70.3689 29.0272 70.8922C25.0549 72.196 22.3851 75.9834 22.753 79.7984C23.255 85.0021 26.7646 88.1812 32.044 88.1881C40.4883 88.1973 48.9303 88.1881 57.3746 88.1881H57.3769ZM24.6778 48.1333C24.6709 52.2351 25.9942 55.8619 28.6732 58.9882C29.6241 60.0992 29.6403 60.0717 30.406 58.8758C31.2158 57.6087 32.1458 56.4311 33.3164 55.4786C38.9452 50.8992 45.0598 50.1027 51.6348 53.2635C52.315 53.5894 52.6805 53.6101 53.0923 52.8824C54.064 51.1678 55.3271 49.6413 56.9397 48.5005C58.0339 47.727 58.1728 46.9006 57.9715 45.6657C56.5302 36.8605 48.8447 30.8948 39.7572 31.6086C31.387 32.2651 24.7009 39.5966 24.6824 48.131L24.6778 48.1333Z"
            fill="#FE5000" />
        <path
            d="M53.1135 29.2857C52.1441 29.2742 51.4963 28.34 51.966 27.4172C52.6924 25.9918 53.5392 24.6214 54.3952 23.2672C54.7607 22.6887 55.3784 22.5097 56.0123 22.8655C56.6393 23.2167 57.0418 23.7836 56.667 24.486C55.8943 25.9321 55.0499 27.3415 54.2031 28.7486C53.9787 29.1204 53.5739 29.2995 53.1158 29.288L53.1135 29.2857Z"
            fill="#FE5000" />
        <path
            d="M15.7686 61.9745C15.8149 61.4213 16.1666 61.0816 16.6131 60.8222C17.8415 60.1107 19.07 59.4014 20.3054 58.7013C21.011 58.2996 21.6681 58.3937 22.1308 59.0617C22.6328 59.7916 22.4292 60.5055 21.7213 60.9439C20.3864 61.7725 19.026 62.569 17.6194 63.2669C16.6825 63.7328 15.6761 62.9662 15.7686 61.9722V61.9745Z"
            fill="#FE5000" />
        <path
            d="M30.9613 27.6974C30.9404 28.5788 30.686 28.9851 30.177 29.1894C29.6241 29.4121 29.0665 29.318 28.7125 28.852C27.6715 27.4793 26.8409 25.9758 26.0913 24.4333C25.8322 23.9008 26.0844 23.3797 26.5471 23.0148C27.0144 22.6475 27.6344 22.5167 28.0324 22.9321C29.4182 24.3851 30.1538 26.2306 30.9636 27.6974H30.9613Z"
            fill="#FE5000" />
        <path
            d="M20.9162 37.8039C20.775 37.758 20.4627 37.7075 20.2036 37.5629C18.9983 36.8949 17.7999 36.2132 16.613 35.5154C15.8611 35.0723 15.4748 34.4227 15.9491 33.6033C16.4534 32.7333 17.2145 32.7471 18.0289 33.2268C19.2481 33.9453 20.4905 34.6293 21.6981 35.3685C22.2696 35.7174 22.531 36.2705 22.3112 36.9431C22.1238 37.5147 21.6819 37.7786 20.9185 37.8039H20.9162Z"
            fill="#FE5000" />
        <path
            d="M62.0389 37.8017C61.169 37.7948 60.7225 37.5377 60.5212 36.9708C60.3269 36.4199 60.4125 35.8369 60.9053 35.5293C62.3304 34.6409 63.7879 33.8031 65.2639 33.002C65.7937 32.7151 66.3189 32.9492 66.7052 33.39C67.0939 33.8353 67.2605 34.4504 66.8556 34.8521C65.4305 36.2661 63.5843 37.019 62.0389 37.7994V37.8017Z"
            fill="#FE5000" />
        <path
            d="M40.0792 22.5717C40.0792 21.8486 40.063 21.1233 40.0839 20.4025C40.107 19.5486 40.5581 19.0023 41.4234 19C42.2308 19 42.712 19.5279 42.7328 20.3153C42.7745 21.8371 42.7791 23.3613 42.7305 24.8831C42.7051 25.6704 42.2007 26.1846 41.3979 26.1731C40.6021 26.1617 40.1278 25.659 40.0931 24.8556C40.0584 24.0958 40.0862 23.3337 40.0862 22.5717C40.0862 22.5717 40.0839 22.5717 40.0816 22.5717H40.0792Z"
            fill="#FE5000" />
        <path
            d="M15.5672 49.4852C14.7991 49.4852 14.0287 49.5311 13.2653 49.4737C12.4671 49.414 11.9743 48.9251 12.0021 48.1217C12.0275 47.3803 12.4995 46.896 13.2537 46.8776C14.8269 46.8363 16.4024 46.8294 17.9756 46.8776C18.7784 46.9029 19.2642 47.4285 19.2434 48.225C19.2225 48.9641 18.7321 49.4255 17.9871 49.4737C17.1843 49.5265 16.3746 49.4852 15.5695 49.4852H15.5672Z"
            fill="#FE5000" />
    </g>
    <defs>
        <clipPath id="clip0_2011_364">
            <rect width="86" height="72" fill="white" transform="translate(12 19)" />
        </clipPath>
    </defs>
</svg>