<svg width="110" height="110" viewBox="0 0 110 110" fill="none" xmlns="http://www.w3.org/2000/svg">
    <g clip-path="url(#clip0_2011_364)">
        <path
            d="M16.5002 67.4795C16.5002 60.6345 16.5002 53.7895 16.5002 46.9424C16.5002 45.1379 16.849 44.7753 18.6203 44.7732C23.9466 44.7669 29.2709 44.7669 34.5972 44.7732C36.5565 44.7753 36.8677 45.1106 36.8719 47.1122C36.8761 49.2059 36.8886 49.2415 38.8792 48.4849C43.1235 46.8711 46.4593 43.9936 49.4483 40.6675C51.1047 38.8252 52.6232 36.8698 53.9182 34.7467C55.5412 32.085 56.2514 29.1655 56.3913 26.0847C56.4352 25.1436 56.3892 24.1984 56.3976 23.2553C56.4331 19.0992 60.3078 16.425 64.1824 17.9109C67.1025 19.0301 68.6544 21.3229 69.4356 24.2508C70.6116 28.6646 69.7865 32.9024 68.3119 37.0794C67.6706 38.8944 66.7265 40.5732 65.8722 42.2917C65.373 43.2956 64.974 44.331 64.6628 45.4103C64.4331 46.2047 64.6712 46.4708 65.4941 46.4604C68.2429 46.4268 70.9938 46.4478 73.7426 46.4478C77.327 46.4478 80.9134 46.4415 84.4977 46.452C86.6491 46.4583 88.5582 47.0912 89.9702 48.8035C91.8647 51.1005 91.9587 54.1646 90.1979 56.6608C89.7989 57.2267 89.8219 57.4551 90.413 57.8554C94.3336 60.5171 94.5488 65.3983 90.8746 68.3828C90.2814 68.8648 90.3044 69.0996 90.7639 69.6591C93.2684 72.7086 92.4684 77.1769 89.0512 79.1428C88.2825 79.585 88.0799 79.8135 88.6501 80.6455C90.0015 82.6177 90.0914 84.789 89.0157 86.9079C87.823 89.2594 85.8094 90.4645 83.1859 90.4771C75.9463 90.5085 68.7067 90.4771 61.4649 90.498C57.3104 90.5085 53.206 90.0621 49.1287 89.2908C46.5658 88.8067 44.1679 87.9013 42.0165 86.4132C40.7298 85.5246 39.3617 85.1033 37.793 85.2417C37.1413 85.2983 36.8364 85.4974 36.8656 86.1785C36.8949 86.8764 36.8782 87.5743 36.8656 88.2743C36.8468 89.6031 36.4437 90.0244 35.1152 90.0579C34.1753 90.081 33.2354 90.0663 32.2954 90.0663C27.7001 90.0663 23.107 90.0705 18.5117 90.0621C16.8637 90.06 16.496 89.6786 16.496 88.0145C16.494 81.1695 16.496 74.3245 16.496 67.4774L16.5002 67.4795ZM36.874 67.1777C36.874 72.0316 36.8865 76.8877 36.8614 81.7416C36.8573 82.5171 37.0411 82.9593 37.9058 82.8524C39.9632 82.5967 41.7199 83.3428 43.3825 84.4683C45.1643 85.6755 47.1298 86.4384 49.2373 86.8701C54.2065 87.8845 59.232 88.1297 64.2868 88.1025C70.4466 88.069 76.6084 88.0878 82.7703 88.0983C84.5791 88.1004 86.0559 87.524 86.9123 85.8222C88.2679 83.127 86.3295 80.1278 83.1546 80.0671C80.4747 80.0147 77.7948 80.0461 75.115 80.0566C74.2711 80.0608 73.5484 79.8952 73.4293 78.906C73.3395 78.1557 74.0163 77.682 75.1317 77.6485C75.445 77.6401 75.7583 77.6443 76.0716 77.6443C79.3092 77.6443 82.5468 77.6589 85.7823 77.6359C88.107 77.6191 89.801 75.9529 89.8198 73.7293C89.8386 71.4155 88.1822 69.7556 85.7823 69.7367C82.8246 69.7115 79.8648 69.7304 76.9071 69.7241C75.4345 69.7199 74.7661 69.307 74.7912 68.4373C74.8142 67.6052 75.4596 67.2133 76.8653 67.2091C80.1718 67.2007 83.4784 67.2049 86.7849 67.2007C87.4094 67.2007 88.0318 67.2133 88.6334 66.9597C90.3775 66.222 91.3759 64.3881 91.0209 62.5333C90.6679 60.689 89.0971 59.3267 87.1755 59.3057C84.1468 59.2701 81.1181 59.2952 78.0914 59.2911C77.6048 59.2911 77.1139 59.312 76.6314 59.2617C75.9693 59.1946 75.4909 58.8195 75.4659 58.1363C75.4387 57.3922 75.9317 57.0045 76.6335 56.906C76.9405 56.862 77.258 56.8788 77.5713 56.8788C80.0779 56.8746 82.5844 56.8829 85.0888 56.862C86.3337 56.8515 87.4157 56.4177 88.1906 55.4075C89.1974 54.0976 89.3331 52.6095 88.6731 51.1529C88.0172 49.7068 86.7911 48.9607 85.1619 48.9628C80.4288 48.967 75.6936 48.9628 70.9604 48.9586C68.5939 48.9586 66.2252 48.9796 63.8607 48.9418C62.4111 48.9188 61.9997 48.4598 62.0498 47.0074C62.1145 45.1609 62.6743 43.4486 63.4827 41.7992C64.6336 39.4519 65.9161 37.1611 66.6325 34.621C67.6247 31.1021 68.0111 27.5706 66.8623 24.0056C66.3484 22.4107 65.4503 21.1217 63.9192 20.3714C61.3751 19.1223 58.5323 20.6439 58.7892 23.5068C58.8456 24.1313 58.808 24.7643 58.8059 25.393C58.7997 29.6664 57.6613 33.5919 55.2321 37.1234C53.7866 39.2255 52.2263 41.2375 50.4697 43.084C46.9397 46.7915 43.0128 49.9227 37.9622 51.2829C37.0578 51.526 36.851 51.964 36.8573 52.8233C36.8907 57.6081 36.874 62.3929 36.874 67.1777ZM34.474 67.5109C34.474 61.1228 34.4594 54.7347 34.4907 48.3487C34.4949 47.4433 34.2359 47.1352 33.3085 47.1436C28.8907 47.1855 24.473 47.1855 20.0553 47.1436C19.107 47.1352 18.8877 47.481 18.8898 48.3655C18.9127 61.0704 18.9127 73.7775 18.8898 86.4824C18.8898 87.3836 19.1404 87.7001 20.0699 87.6896C24.4187 87.6477 28.7675 87.6728 33.1142 87.6707C34.4677 87.6707 34.4719 87.6666 34.4719 86.2582C34.4719 80.0105 34.4719 73.7628 34.4719 67.513L34.474 67.5109Z"
            fill="#FE5000" />
    </g>
    <defs>
        <clipPath id="clip0_2011_364">
            <rect width="77" height="73" fill="white" transform="translate(16.5 17.5)" />
        </clipPath>
    </defs>
</svg>