<svg width="110" height="110" viewBox="0 0 110 110" fill="none" xmlns="http://www.w3.org/2000/svg">
    <g clip-path="url(#clip0_2011_364)">
        <path
            d="M12.0041 63.6852C11.7473 45.105 25.5842 27.5281 45.0545 23.2008C59.4206 20.0086 72.3778 23.1723 83.5085 32.7643C91.9732 40.0576 96.7113 49.3642 97.7897 60.3415C98.6404 69.0026 96.9055 77.2378 92.5626 84.8802C91.8571 86.1228 91.4328 86.2436 90.1489 85.5301C88.3671 84.5421 86.592 83.5388 84.837 82.5047C83.7385 81.8593 83.6893 81.4729 84.2654 80.351C90.7786 67.6546 90.073 55.3622 81.2533 44.0687C73.7867 34.5097 63.4956 30.4107 51.2842 31.6753C37.0141 33.1551 25.6802 43.0412 22.389 56.6641C20.3995 64.8949 21.5338 72.7898 25.6177 80.2544C26.2898 81.4838 26.2317 81.8483 25.017 82.5596C23.2911 83.5695 21.5495 84.5575 19.7989 85.5235C18.4123 86.2875 18.0819 86.1777 17.3383 84.8363C13.7792 78.4146 11.888 71.5757 12.0041 63.6852ZM56.1049 26.685C56.1049 27.1241 56.1428 27.5676 56.0982 28.0023C55.9999 28.9442 56.4442 29.324 57.3664 29.3745C62.7743 29.6709 67.8094 31.2165 72.5118 33.8313C73.0789 34.1474 73.3602 34.0464 73.6505 33.5129C74.1239 32.6413 74.6039 31.7697 75.1666 30.9552C75.7873 30.0573 75.5395 29.6072 74.6039 29.1198C69.6113 26.5182 64.3552 24.8342 58.7016 24.3886C56.1004 24.1844 56.1049 24.1383 56.1049 26.6894V26.685ZM53.8251 26.786C53.8251 26.3842 53.8274 25.9803 53.8251 25.5785C53.8117 24.259 53.7046 24.1427 52.3269 24.2634C51.0698 24.3732 49.8105 24.5027 48.5623 24.6871C43.764 25.3941 39.2782 26.999 35.0291 29.2866C34.357 29.6489 34.194 30.009 34.6138 30.6654C35.1675 31.5326 35.7101 32.413 36.1656 33.3307C36.5385 34.0837 36.898 34.1189 37.6214 33.7105C41.9107 31.2933 46.5461 29.8531 51.4606 29.4491C54.3699 29.2098 53.7559 29.0627 53.8251 26.786ZM77.9197 31.1747C77.5848 31.1199 77.4441 31.2889 77.3302 31.4843C76.6782 32.593 76.0374 33.7061 75.3787 34.8082C75.1063 35.2627 75.2782 35.5371 75.669 35.8094C80.0744 38.894 83.5576 42.7931 86.2035 47.419C86.5764 48.071 86.956 48.0908 87.5455 47.7307C88.3962 47.2082 89.2603 46.6945 90.1579 46.2598C90.9416 45.8822 91.0532 45.4716 90.6156 44.7208C87.5432 39.4275 83.4839 35.019 78.4332 31.4909C78.2524 31.3636 78.0581 31.2582 77.9197 31.1726V31.1747ZM34.6741 35.1661C34.6473 35.0849 34.6294 34.9729 34.5758 34.8807C33.9149 33.7369 33.2495 32.5974 32.5819 31.458C32.3117 30.9969 31.9857 31.155 31.653 31.3855C26.4639 34.9773 22.3042 39.4802 19.2072 44.9337C18.87 45.5287 19.0263 45.8558 19.5957 46.1544C20.5447 46.655 21.4847 47.1753 22.3979 47.7351C23.0053 48.1084 23.3647 48.0337 23.7265 47.3992C26.3344 42.7975 29.8199 38.9555 34.1561 35.8599C34.3905 35.6908 34.6651 35.5393 34.6741 35.1683V35.1661ZM95.7869 63.1385C95.8494 62.2142 95.6752 60.9804 95.5368 59.7465C95.0969 55.8298 94.0408 52.0756 92.4845 48.4487C92.2322 47.8603 91.9352 47.6429 91.3078 48.0249C90.2985 48.6419 89.2647 49.2237 88.222 49.7857C87.7174 50.0579 87.6683 50.3785 87.8826 50.8659C89.7694 55.1558 90.5419 59.6675 90.696 64.3131C90.7161 64.941 90.2025 65.7314 90.8367 66.1727C91.4038 66.5678 92.2143 66.3285 92.9132 66.3176C96.1865 66.2715 95.7489 66.8423 95.7869 63.1363V63.1385ZM14.1454 63.2768C14.1454 63.3866 14.1454 63.4964 14.1454 63.6062C14.1811 66.7962 13.7769 66.2868 16.9364 66.3198C17.671 66.3263 18.5351 66.603 19.1112 66.1529C19.7185 65.6765 19.2072 64.8466 19.2318 64.177C19.4015 59.6104 20.1383 55.1668 21.9916 50.9449C22.2439 50.3719 22.1702 50.0118 21.5718 49.7067C20.6161 49.2171 19.6739 48.6946 18.7785 48.1084C18.026 47.6166 17.6889 47.8493 17.3763 48.587C15.3824 53.2919 14.2704 58.179 14.1431 63.2768H14.1454ZM17.0324 68.5525C16.4385 68.5525 15.8446 68.5613 15.2506 68.5503C14.5495 68.5372 14.3285 68.8819 14.4468 69.5229C14.5852 70.2782 14.6946 71.0356 14.8353 71.7908C15.523 75.477 16.7667 78.9766 18.4212 82.351C18.9035 83.3346 19.3925 83.4378 20.2611 82.8406C20.989 82.3401 21.7817 81.9229 22.5766 81.5299C23.338 81.1523 23.4429 80.7352 23.041 79.969C21.5361 77.0951 20.5424 74.0434 19.9061 70.8731C19.4394 68.546 19.4283 68.5481 17.0347 68.5547L17.0324 68.5525ZM95.4631 69.5251C95.5926 68.7699 95.2733 68.5569 94.733 68.5547C93.5451 68.5525 92.3572 68.5569 91.1694 68.5503C90.6424 68.5481 90.3722 68.7567 90.2874 69.3056C89.7091 73.1235 88.5748 76.7768 86.7818 80.217C86.5027 80.7527 86.592 81.0908 87.1212 81.3806C88.1595 81.9471 89.1911 82.5289 90.2115 83.126C90.658 83.3873 90.9572 83.3258 91.2028 82.867C93.4803 78.6231 94.8714 74.1071 95.4631 69.5251Z"
            fill="#FE5000" />
        <path
            d="M47.5753 67.7887C47.5552 64.4494 49.5737 61.6217 52.568 60.6096C62.2719 57.3273 71.9825 54.0627 81.6998 50.8134C82.4634 50.5587 83.4012 49.9835 83.9974 51.0044C84.5735 51.9945 83.5776 52.4512 83.0083 52.9408C75.8967 59.053 68.7627 65.1388 61.6378 71.2356C61.0773 71.7164 60.5615 72.2455 59.9944 72.7197C57.6812 74.6517 55.0911 75.3016 52.2219 74.1292C49.2388 72.9107 47.8031 70.5835 47.5753 67.7887ZM54.9526 72.4782C57.9179 72.4826 60.106 70.3464 60.106 67.4506C60.106 64.5263 57.9357 62.3901 54.9727 62.3945C51.9897 62.3989 49.826 64.5153 49.8238 67.4309C49.8238 70.3508 51.9807 72.476 54.9526 72.4782ZM77.8482 54.5632C77.8303 54.5062 77.8102 54.4491 77.7923 54.392C71.3908 56.5523 64.987 58.7149 58.36 60.952C61.0103 62.5481 62.2161 64.7787 62.4304 67.7558C67.6776 63.2661 72.764 58.9147 77.8482 54.5632Z"
            fill="#FE5000" />
    </g>
    <defs>
        <clipPath id="clip0_2011_364">
            <rect width="86" height="64" fill="white" transform="translate(12 22)" />
        </clipPath>
    </defs>
</svg>