<svg width="35" height="35" viewBox="0 0 35 35" fill="none" xmlns="http://www.w3.org/2000/svg">
<path d="M11.7137 33.4954C11.7137 33.4954 11.5987 33.4069 11.5987 33.4954L11.7137 33.4954L11.7137 33.3184C11.7137 33.1414 11.7137 32.9644 11.7137 32.7873C11.7137 32.4333 11.7137 31.9908 11.7137 31.6368C11.7137 30.8402 11.7137 30.1322 11.7137 29.3356C11.7137 27.831 11.5987 26.3264 11.4836 24.8218C11.4836 21.8126 11.2535 18.8034 11.2535 15.7942C11.2535 14.1126 11.2535 12.3425 11.2535 10.6608C11.2535 10.3953 10.9083 10.2183 10.6782 10.3068C9.64267 10.5723 8.60715 10.5723 7.57162 10.3953C7.57162 10.5723 7.80174 10.7494 7.9168 11.0149C10.218 8.5367 12.5191 6.14704 14.8203 3.66887C15.5107 2.96082 16.0859 2.25278 16.7763 1.54473C16.5462 1.54473 16.3161 1.54473 16.0859 1.54473C19.0775 4.1114 22.184 6.67807 25.2906 9.15624C26.2111 9.86429 27.1316 10.5723 28.052 11.2804C28.052 11.1034 28.052 10.9264 28.052 10.7494C26.7864 11.1919 25.4057 11.2804 24.14 11.1034C23.7949 11.1034 23.4497 11.1919 23.4497 11.4574C23.6798 14.4666 24.025 17.4758 24.2551 20.485C24.4852 23.4942 24.8304 26.5034 25.0605 29.5126C25.1756 31.1942 25.4057 32.9644 25.5207 34.646C25.6358 34.5575 25.8659 34.3805 25.981 34.292C21.8389 34.292 17.5817 34.1149 13.4396 34.1149C13.0944 34.1149 12.5191 34.1149 12.174 34.0264C12.174 34.0264 12.0589 34.0264 12.0589 33.8494C12.0589 33.8494 12.0589 33.8494 12.0589 33.7609C12.6342 33.6724 12.4041 33.0529 11.8288 33.1414C10.9083 33.3184 10.9083 34.2034 11.5987 34.646C11.9438 34.9115 12.5191 34.9115 12.9794 35C13.5547 35 14.13 35 14.7052 35C17.1215 35 19.5377 35 21.9539 35C22.8744 35 24.2551 35 25.6358 35C25.8659 35 26.096 34.823 26.096 34.646C25.8659 31.6368 25.5207 28.6276 25.2906 25.6184C25.0605 22.6092 24.8304 19.6 24.6003 16.5907C24.4852 14.9091 24.3702 13.139 24.2551 11.4574C24.025 11.5459 23.7949 11.7229 23.5648 11.8114C25.1756 12.0769 26.7864 11.8114 28.2821 11.2804C28.5123 11.1919 28.6273 10.8379 28.2821 10.7494C25.0605 8.35969 21.8389 5.88152 18.8474 3.31485C17.9269 2.6068 17.1215 1.81025 16.3161 1.1022C16.0859 0.925186 15.7408 1.01369 15.6257 1.1022C13.4396 3.58037 11.1384 6.05853 8.7222 8.4482C8.03185 9.15624 7.3415 9.77579 6.65115 10.4838C6.42103 10.6608 6.42103 11.1034 6.88127 11.1919C8.14691 11.3689 9.41256 11.3689 10.5631 11.0149C10.333 10.9264 10.218 10.7494 9.98785 10.6608C9.98785 12.3425 9.98785 14.1126 10.1029 15.7942C10.1029 17.4758 10.218 19.2459 10.333 20.9275C10.4481 24.3793 10.6782 27.7425 10.7933 31.1942C10.7933 31.7253 10.7933 32.1678 10.7933 32.6988C10.7933 33.0529 10.7933 33.4954 11.1384 33.7609C11.3686 33.9379 11.8288 33.8494 11.8288 33.5839C11.8288 33.4069 11.7137 33.1414 11.3686 33.2299C11.1384 33.2299 11.3686 33.4954 11.4836 33.4954L11.7137 33.4954Z" fill="#FE5000"/>
<path d="M11.6207 32.76C16.3276 32.76 20.9138 32.76 25.5 32.92L25.5 32.88C21.0345 32.64 16.4483 32.48 11.8621 32.32L11.8621 32.36C16.3276 32.32 20.6724 32.36 25.1379 32.52L25.1379 32.48C22.3621 32.32 19.5862 32.16 16.8103 32C16.8103 32 16.8103 32 16.8103 32.04C19.5862 32.2 22.3621 32.36 25.1379 32.56L25.1379 32.52C20.7931 32.4 16.3276 32.32 11.8621 32.4L11.8621 32.44C16.4483 32.56 20.9138 32.76 25.3793 33C25.3793 33 25.3793 33 25.3793 32.96C20.7931 32.84 16.0862 32.76 11.5 32.8L11.5 32.84L11.5 32.76L11.6207 32.76Z" fill="#FE5000"/>
<path d="M11.5 30.823C15.8077 30.4689 20.1154 30.823 24.4231 31C24.4231 31 24.5427 30.9115 24.4231 30.9115C20.3547 30.4689 16.2863 29.9379 12.3376 29.2298C12.3376 29.2298 12.3376 29.2298 12.3376 29.3183C16.6453 29.1413 20.953 29.3183 25.2607 29.6724C25.2607 29.6724 25.3803 29.5838 25.2607 29.5838C21.312 29.0528 17.2436 28.5217 13.2949 27.9022C13.2949 27.9022 13.2949 27.9022 13.2949 27.9907C16.8846 27.8136 20.594 27.8136 24.3034 27.9907C24.3034 27.9907 24.4231 27.9022 24.3034 27.9022C20.4744 27.4596 16.765 26.9285 12.9359 26.486C12.9359 26.486 12.9359 26.486 12.9359 26.5745C16.765 26.486 20.594 26.5745 24.3034 26.7515C24.3034 26.7515 24.4231 26.663 24.3034 26.5745C20.594 26.132 17.0043 25.6009 13.4145 24.8928L13.4145 24.9813C16.6453 24.8043 19.9957 24.8928 23.2265 25.0698L23.2265 24.8928C20.7137 24.8043 18.3205 24.4503 16.047 23.8307L16.047 24.0077C18.4402 23.7422 20.953 23.7422 23.3462 24.0077C23.4658 24.0077 23.4658 23.9192 23.3462 23.8307C21.312 23.5652 19.2778 23.1226 17.2436 22.5916L17.2436 22.7686C18.7991 22.5916 20.3547 22.5031 22.0299 22.5916C22.0299 22.5916 22.1496 22.5031 22.0299 22.4145C20.8333 22.149 19.6368 21.795 18.4402 21.5295L18.4402 21.7065C19.2778 21.5294 20.1154 21.4409 20.8333 21.2639L20.8333 21.0869C19.9957 21.0869 19.2778 20.8214 18.9188 20.2903L18.9188 20.3788C19.5171 20.3788 20.235 20.3788 20.8333 20.1133C20.8333 20.1133 20.8333 19.9363 20.8333 20.0248C20.235 20.2903 19.5171 20.3788 18.9188 20.2903C18.9188 20.2903 18.7991 20.2903 18.9188 20.3788C19.3974 20.9099 20.1154 21.1754 21.0726 21.2639C21.0726 21.2639 21.0726 21.1754 21.0726 21.0869C20.235 21.2639 19.3974 21.3524 18.6795 21.5295C18.6795 21.5295 18.6795 21.618 18.6795 21.7065C19.8761 21.972 21.0726 22.2375 22.2692 22.5916C22.2692 22.5916 22.2692 22.5031 22.2692 22.4145C20.7137 22.326 19.0385 22.4145 17.4829 22.5916C17.4829 22.5916 17.4829 22.6801 17.4829 22.7686C19.3974 23.2996 21.4316 23.7422 23.5855 24.0077C23.5855 24.0077 23.5855 23.9192 23.5855 23.8307C21.1923 23.5652 18.6795 23.5652 16.1667 23.8307C16.1667 23.8307 16.1667 23.9192 16.1667 24.0077C18.4402 24.6273 20.953 24.9813 23.4658 25.0698C23.5855 25.0698 23.5855 24.8928 23.4658 24.8928C20.235 24.7158 16.8846 24.6273 13.6538 24.8043C13.6538 24.8043 13.5342 24.8928 13.6538 24.9813C17.2436 25.6894 20.953 26.309 24.5427 26.663C24.5427 26.663 24.5427 26.5745 24.5427 26.486C20.7137 26.309 17.0043 26.2205 13.1752 26.309C13.1752 26.309 13.0556 26.3975 13.1752 26.3975C17.0043 26.84 20.7137 27.3711 24.5427 27.8136C24.5427 27.8136 24.5427 27.8136 24.5427 27.7251C20.953 27.5481 17.2436 27.5481 13.5342 27.7251L13.5342 27.8136C17.4829 28.3447 21.5513 28.9643 25.5 29.4953C25.5 29.4953 25.5 29.4953 25.5 29.4068C21.1923 29.0528 16.8846 28.9643 12.5769 29.1413L12.5769 29.2298C16.5256 29.9379 20.594 30.4689 24.6624 30.9115C24.6624 30.9115 24.6624 30.9115 24.6624 30.823C20.3547 30.5575 16.047 30.2919 11.7393 30.646L11.7393 30.7345L11.7393 30.823L11.5 30.823Z" fill="#FE5000"/>
<path d="M9.5 10.9091C13.6176 10.7273 17.7353 10.6364 21.8529 10.8182C23.0294 10.8182 24.2059 10.9091 25.3824 11L25.3824 10.9091C21.9706 10.7273 18.6765 10.4545 15.3824 10C15.3824 10 15.2647 10 15.3824 10.0909C18.6765 10.5455 22.0882 10.9091 25.5 11L25.5 10.9091C21.3824 10.6364 17.2647 10.6364 13.1471 10.7273C11.9706 10.7273 10.7941 10.7273 9.61765 10.9091L9.61765 11L9.5 10.9091Z" fill="#FE5000"/>
<path d="M13.2101 9.91429C11.9348 9.91429 10.7754 9.91429 9.5 9.91429L9.5 10C13.6739 10 17.8478 10 21.9058 10C23.0652 10 24.2246 10 25.3841 10L25.3841 9.91429C20.6304 9.48571 15.7609 8.97143 11.0072 8.54286L11.0072 8.62857C15.1812 8.62857 19.3551 8.62857 23.413 8.8C23.529 8.8 23.413 8.71428 23.413 8.62857C19.7029 8.37143 15.9928 7.94286 12.3986 7.51429C12.3986 7.51429 12.3986 7.6 12.3986 7.68571C15.6449 7.51429 19.0072 7.51429 22.2536 7.68571C22.3696 7.68571 22.3696 7.6 22.2536 7.51429C19.587 7.25714 16.8043 6.91429 14.1377 6.48571C14.1377 6.48571 14.1377 6.57143 14.1377 6.65714C16.4565 6.57143 18.6594 6.57143 20.9783 6.65714C21.0942 6.65714 21.0942 6.48571 20.9783 6.48571C18.6594 6.31429 16.3406 5.88571 14.1377 5.37143C14.1377 5.37143 14.1377 5.45714 14.1377 5.54286C16.3406 5.54286 18.4275 5.54286 20.6304 5.54286C20.6304 5.54286 20.7464 5.45714 20.6304 5.37143C18.7754 5.11429 17.0362 4.68571 15.2971 4.17143C15.2971 4.17143 15.2971 4.25714 15.2971 4.34286C16.2246 4.34286 17.2681 4.17143 18.1957 4.17143C18.3116 4.17143 18.3116 4 18.1957 4C17.2681 4 16.2246 4.17143 15.2971 4.17143C15.2971 4.17143 15.1812 4.25714 15.2971 4.34286C17.0362 4.85714 18.7754 5.2 20.6304 5.54286L20.6304 5.37143C18.5435 5.37143 16.3406 5.37143 14.1377 5.37143C14.1377 5.37143 14.0217 5.45714 14.1377 5.54286C16.3406 6.05714 18.6594 6.48571 20.9783 6.65714L20.9783 6.48571C18.6594 6.31429 16.4565 6.31429 14.1377 6.48571C14.1377 6.48571 14.0217 6.57143 14.1377 6.65714C16.8043 7.17143 19.471 7.51429 22.2536 7.77143L22.2536 7.6C19.0072 7.42857 15.6449 7.42857 12.3986 7.6C12.3986 7.6 12.2826 7.68571 12.3986 7.77143C16.1087 8.2 19.8188 8.62857 23.529 8.88571L23.529 8.71428C19.3551 8.54286 15.1812 8.45714 11.1232 8.54286L11.1232 8.62857C15.8768 9.05714 20.7464 9.57143 25.5 10L25.5 9.91429C21.3261 9.91429 17.1522 9.91429 13.0942 9.91429C11.9348 9.91429 10.7754 9.91429 9.61594 9.91429L9.61594 10C10.8913 10 12.0507 10 13.3261 10L13.3261 9.91429L13.2101 9.91429Z" fill="#FE5000"/>
<path d="M11.5 12.4091C13.2045 12.4091 14.9091 12.4091 16.5 12.8182C18.2045 12.8182 19.9091 13.2273 21.5 12.8182L21.5 12.4091C19.7955 12.4091 18.0909 12.4091 16.5 12C14.7955 12 13.0909 12 11.5 12L11.5 12.4091Z" fill="#FE5000"/>
<path d="M14.5 13.2387C16.3889 13.9548 18.5 14.1936 20.5 13.8355L20.5 13.7161C19.5 13.7161 18.5 13.8355 17.6111 13.7161C16.6111 13.7161 15.6111 13.3581 14.6111 13C14.6111 13 14.5 13.1194 14.6111 13.1194L14.5 13.2387Z" fill="#FE5000"/>
</svg>
