<svg width="40" height="40" viewBox="0 0 40 40" fill="none" xmlns="http://www.w3.org/2000/svg">
<g clip-path="url(#clip0_2001_84)">
<path d="M19.9967 7.00577C27.2726 7.13484 33.4701 9.6642 38.5261 14.721C39.3359 15.5315 39.0673 16.641 38.0205 16.8755C37.5159 16.9884 37.114 16.7881 36.7822 16.4493C33.2874 12.8722 29.0155 10.6598 24.0059 9.77144C20.4845 9.14694 16.9986 9.35574 13.5651 10.3219C9.79481 11.383 6.52717 13.267 3.73551 15.9178C3.56072 16.0839 3.40272 16.268 3.23287 16.4389C2.67197 17.0036 1.92937 17.0615 1.38625 16.5879C0.873733 16.1399 0.86287 15.355 1.39711 14.8055C3.18251 12.9652 5.21281 11.421 7.49295 10.1815C10.6006 8.49301 13.9354 7.48126 17.4825 7.13674C18.314 7.05607 19.1524 6.97824 19.9967 7.00482V7.00577Z" fill="black"/>
<path d="M20.0262 14.31C25.2293 14.4343 29.6434 16.2718 33.2044 19.9486C33.6764 20.4355 33.7682 20.9375 33.5036 21.4197C33.2527 21.8771 32.7827 22.1097 32.2297 22.0518C31.8811 22.0148 31.6263 21.8325 31.3953 21.5924C28.9008 19.0099 25.8574 17.3917 22.2174 16.902C17.7075 16.2945 13.6835 17.424 10.1512 20.1792C9.58829 20.6177 9.07775 21.1103 8.58005 21.6171C8.0547 22.1514 7.2884 22.2084 6.7749 21.7661C6.22881 21.2963 6.20709 20.5702 6.76009 19.9932C9.68605 16.9371 13.2806 15.0882 17.5653 14.4941C18.38 14.3811 19.1967 14.2957 20.0262 14.31Z" fill="black"/>
<path d="M19.9876 21.6143C23.1851 21.6959 25.8 22.8718 27.86 25.1705C28.3794 25.7504 28.3537 26.5221 27.8274 26.9558C27.2418 27.4389 26.5209 27.3497 25.9659 26.7261C22.7822 23.148 17.2285 23.1366 14.0587 26.7024C13.4928 27.3392 12.7956 27.4427 12.2041 26.9776C11.6304 26.5259 11.5968 25.7808 12.1488 25.1658C14.2236 22.8547 16.8572 21.6845 19.9876 21.6143Z" fill="black"/>
<path d="M20.0252 34C18.62 34.019 17.3619 32.8307 17.354 31.4763C17.3461 30.1457 18.5577 28.9612 19.9541 28.9347C21.3672 28.9071 22.6124 30.0622 22.649 31.4327C22.6845 32.769 21.4452 33.981 20.0252 34Z" fill="black"/>
</g>
<defs>
<clipPath id="clip0_2001_84">
<rect width="38" height="27" fill="white" transform="translate(1 7)"/>
</clipPath>
</defs>
</svg>
