<svg width="40" height="40" viewBox="0 0 40 40" fill="none" xmlns="http://www.w3.org/2000/svg">
<g clip-path="url(#clip0_2001_95)">
<path d="M18.735 1.0238C23.1133 1.0238 27.4926 1.06224 31.8709 1.00361C33.5093 0.981509 35.329 2.29909 35.3627 4.54504C35.3749 5.3773 35.3814 6.21052 35.358 7.04278C35.3356 7.85486 34.7016 8.33922 34.0432 8.07782C33.6738 7.93174 33.4756 7.64824 33.4316 7.2446C33.3419 6.42964 33.4008 5.61276 33.3914 4.79683C33.3765 3.48982 32.9098 3.00161 31.6343 3.00161C22.9862 3.00161 14.338 3.00161 5.68985 3.00161C4.46949 3.00161 3.9533 3.53211 3.9533 4.78146C3.95236 9.63374 3.9533 14.486 3.9533 19.3383C3.9533 20.6434 4.49474 21.1998 5.78336 21.2008C11.1127 21.2037 16.4421 21.2018 21.7705 21.2027C22.8141 21.2027 23.1002 21.4978 23.1002 22.5703C23.1002 23.6755 23.1002 24.7807 23.1002 25.8849C23.1002 26.9267 22.7468 27.2957 21.7172 27.2967C18.3984 27.2986 15.0796 27.2938 11.7598 27.2919C10.8181 27.2919 10.6003 27.5033 10.5946 28.4605C10.589 29.4994 10.5124 29.3706 11.4559 29.3716C14.8533 29.3754 18.2497 29.3735 21.647 29.3735C21.8182 29.3735 21.9912 29.3668 22.1614 29.3821C22.6757 29.4292 23.0778 29.8646 23.0769 30.3605C23.0759 30.8352 22.6944 31.2725 22.2091 31.3407C22.0557 31.3628 21.8977 31.3571 21.7424 31.3571C17.8158 31.3571 13.8891 31.358 9.96249 31.3571C8.95161 31.3571 8.66452 31.0563 8.66265 30.0058C8.66265 29.4129 8.65704 28.8209 8.66639 28.2279C8.69351 26.4289 9.84373 25.2602 11.584 25.2583C12.3321 25.2583 13.0802 25.2458 13.8274 25.2631C14.1753 25.2718 14.3034 25.1353 14.2847 24.7836C14.2651 24.4001 14.2669 24.0147 14.2847 23.6313C14.2997 23.2988 14.1706 23.1738 13.848 23.1805C13.1317 23.195 12.4144 23.1844 11.6981 23.1844C9.6726 23.1844 7.64616 23.1575 5.62158 23.1911C3.51191 23.2257 1.97455 21.468 2.00166 19.4671C2.06806 14.536 2.06993 9.60203 1.99979 4.67094C1.97268 2.73925 3.55399 0.966133 5.55238 0.999769C9.94566 1.07473 14.3408 1.02283 18.735 1.02283V1.0238ZM18.6097 25.2516C18.952 25.2516 19.2952 25.2516 19.6374 25.2516C21.2487 25.2516 21.2431 25.2516 21.1234 23.5755C21.1028 23.2872 20.9915 23.1834 20.7203 23.1844C19.3503 23.1902 17.9794 23.1921 16.6085 23.1825C16.3009 23.1805 16.1943 23.3113 16.2055 23.6149C16.2204 24.0147 16.2242 24.4155 16.2045 24.8153C16.1877 25.1574 16.3317 25.2631 16.6469 25.2554C17.3005 25.2401 17.9551 25.2506 18.6088 25.2516H18.6097Z" fill="black"/>
<path d="M24.7631 29.5813C24.7631 28.0926 24.7865 26.604 24.7575 25.1163C24.7136 22.8117 26.5623 21.0713 28.5869 21.1924C29.6109 21.2539 30.6414 21.1991 31.6691 21.2039C33.7096 21.2135 35.3292 22.78 35.3536 24.8674C35.391 28.0196 35.3891 31.1728 35.3536 34.325C35.3302 36.4143 33.7096 37.9904 31.6766 37.9962C30.5862 37.999 29.4968 38 28.4064 37.9962C26.408 37.9885 24.8071 36.3931 24.7697 34.3336C24.7416 32.7498 24.7641 31.1651 24.7641 29.5803H24.7612L24.7631 29.5813ZM26.7437 29.6063C26.7437 31.143 26.7372 32.6806 26.7456 34.2173C26.7522 35.3206 27.4227 36.0058 28.5027 36.0164C29.5305 36.027 30.5591 36.0251 31.5868 36.0164C32.7006 36.0078 33.3804 35.3408 33.3842 34.2039C33.3963 31.1305 33.3972 28.0561 33.3842 24.9818C33.3795 23.8612 32.7081 23.1952 31.6214 23.1856C30.5937 23.176 29.5651 23.1779 28.5373 23.1856C27.3993 23.1933 26.7493 23.866 26.7447 25.0423C26.7381 26.5636 26.7428 28.084 26.7437 29.6053V29.6063Z" fill="black"/>
<path d="M30.0738 9.18805C32.9363 9.21784 35.4237 10.2221 37.5175 12.2413C37.6194 12.3393 37.7214 12.4412 37.8046 12.5555C38.0804 12.9342 38.0599 13.4599 37.7672 13.7962C37.4464 14.1653 36.9452 14.2595 36.5431 13.9692C36.1756 13.704 35.8576 13.3667 35.4995 13.0851C32.0133 10.3432 27.2347 10.5691 24.0094 13.6213C23.7205 13.8943 23.4315 14.1874 22.9976 14.1307C22.6207 14.0807 22.3168 13.8846 22.1868 13.4964C22.0466 13.0783 22.1485 12.7103 22.4515 12.3989C23.7691 11.0457 25.3317 10.1222 27.1188 9.59746C28.081 9.31491 29.0629 9.15634 30.0729 9.18901L30.0738 9.18805Z" fill="black"/>
<path d="M30.071 12.8977C31.9469 12.9553 33.6198 13.5848 35.0029 14.9428C35.5275 15.4579 35.5733 16.0028 35.1525 16.4554C34.7635 16.8744 34.18 16.8812 33.6974 16.4026C31.6878 14.4103 28.398 14.4324 26.4202 16.4151C25.9517 16.884 25.3411 16.8831 24.9623 16.4746C24.5434 16.0239 24.5892 15.4713 25.111 14.9572C26.4913 13.5973 28.1605 12.9592 30.071 12.8977Z" fill="black"/>
<path d="M30.0663 16.6371C30.9771 16.688 31.8122 16.9898 32.4957 17.6596C32.924 18.0786 32.9727 18.6726 32.6323 19.0743C32.2676 19.5048 31.7598 19.5384 31.2567 19.1656C30.3169 18.4688 29.811 18.4707 28.8599 19.1733C28.3643 19.5394 27.8416 19.499 27.4853 19.0656C27.1533 18.6629 27.2104 18.0642 27.6396 17.651C28.3138 17.0003 29.1311 16.6938 30.0663 16.638V16.6371Z" fill="black"/>
<path d="M29.9625 32.2684C30.3618 32.2905 30.6582 32.2453 30.949 32.328C31.3998 32.4558 31.7205 32.8604 31.713 33.2948C31.7046 33.7753 31.3829 34.1626 30.8911 34.25C30.3524 34.3452 29.8082 34.3442 29.2686 34.2548C28.7645 34.1712 28.4335 33.8022 28.4148 33.3313C28.3961 32.8517 28.7318 32.4135 29.234 32.3193C29.5061 32.2674 29.7895 32.2789 29.9634 32.2693L29.9625 32.2684Z" fill="black"/>
<path d="M30.0766 28.6145C30.3104 28.6145 30.5451 28.5981 30.7779 28.6174C31.3119 28.6625 31.699 29.0691 31.7121 29.5774C31.7262 30.1003 31.3287 30.5491 30.7742 30.5808C30.2926 30.6086 29.8073 30.6106 29.3257 30.5779C28.7954 30.5423 28.4148 30.1051 28.4158 29.5976C28.4158 29.0902 28.8001 28.6683 29.3285 28.6183C29.5753 28.5953 29.8269 28.6145 30.0756 28.6145C30.0756 28.6145 30.0756 28.6135 30.0756 28.6126L30.0766 28.6145Z" fill="black"/>
</g>
<defs>
<clipPath id="clip0_2001_95">
<rect width="36" height="37" fill="white" transform="translate(2 1)"/>
</clipPath>
</defs>
</svg>
