<svg width="120" height="150" viewBox="0 0 120 150" fill="none" xmlns="http://www.w3.org/2000/svg">
<g clip-path="url(#clip0_2001_47)">
<path d="M112.857 72.8337C107.937 68.7661 101.053 67.2296 93.9612 68.6251C92.8679 68.8403 91.7747 69.1372 90.7036 69.4861C93.193 65.5818 95.542 63.6371 95.771 63.4589C96.5097 62.8725 96.7978 61.8779 96.4875 60.9872C96.1773 60.089 95.3352 59.4878 94.397 59.4878H2.21605C1.27792 59.4878 0.4432 60.089 0.125564 60.9797C-0.184685 61.8705 0.0960164 62.8651 0.834705 63.4589C1.32963 63.8597 12.964 73.4795 12.0037 94.6935C11.4423 107.238 13.9538 116.271 19.686 122.298C20.8015 123.471 22.0425 124.525 23.409 125.468L19.9298 140.269C19.7747 140.929 19.9298 141.627 20.3509 142.161C20.7719 142.696 21.4146 143.008 22.0868 143.008H75.9815C76.6611 143.008 77.2964 142.696 77.7174 142.161C78.1385 141.627 78.2936 140.929 78.1385 140.269L74.445 124.54C75.3241 123.842 76.1514 123.1 76.9123 122.298C78.4561 120.673 79.7562 118.825 80.8347 116.761C83.5531 117.919 86.5374 118.513 89.6547 118.505C91.3389 118.505 93.0674 118.335 94.8107 117.993C108.698 115.262 120 102.116 120 88.7034C120 82.2828 117.459 76.649 112.857 72.8337ZM73.1893 138.547H24.8938L27.4349 127.732C32.8421 130.226 39.7414 131.458 48.3029 131.458C57.5734 131.458 64.9086 130.018 70.4931 127.086L73.1893 138.547ZM73.7137 119.218C68.7276 124.458 60.4173 127.004 48.3029 127.004C36.1884 127.004 27.8781 124.458 22.892 119.218C18.0388 114.119 15.9261 106.161 16.4358 94.8939C17.145 79.1207 11.4275 69.0333 7.37949 63.9414H89.2262C85.1782 69.0333 79.4607 79.1207 80.1699 94.8939C80.6796 106.161 78.5669 114.119 73.7137 119.218ZM93.9686 113.621C89.8689 114.43 85.9612 114.081 82.5928 112.656C84.2548 107.728 84.9197 101.767 84.602 94.6935C84.2401 86.6844 85.6731 80.3232 87.6306 75.491C87.8227 75.4539 88.0074 75.3946 88.1847 75.3055C90.3269 74.2218 92.5577 73.4424 94.8181 72.997C100.683 71.8391 106.09 73.0045 110.042 76.2704C113.61 79.2172 115.575 83.6337 115.575 88.7034C115.575 100.097 105.884 111.276 93.9686 113.621Z" fill="white"/>
<path d="M46.8476 50.2982C46.0055 50.2982 45.2004 49.8083 44.8236 48.9844C41.5734 41.7473 44.3213 36.4475 46.9806 31.3259C50.1274 25.2542 53.1043 19.5165 47.1283 9.35485C46.5078 8.29341 46.855 6.92764 47.9114 6.30413C48.9677 5.68063 50.3269 6.0295 50.9474 7.09094C58.1717 19.3829 54.1459 27.147 50.9104 33.382C48.4432 38.1325 46.5005 41.8884 48.8643 47.151C49.3666 48.2718 48.8717 49.5931 47.7562 50.0978C47.4608 50.2314 47.1505 50.2982 46.8476 50.2982Z" fill="white"/>
<path d="M23.35 50.2986C22.6039 50.2986 21.8726 49.9201 21.4515 49.2298C17.7433 43.0987 19.9963 38.4372 21.9834 34.3251C24.0222 30.109 25.9428 26.123 23.446 19.4798C23.0102 18.3293 23.5937 17.0451 24.7387 16.6072C25.8837 16.1693 27.1616 16.7556 27.5974 17.9062C30.7664 26.3383 28.1145 31.8459 25.9797 36.2698C24.0665 40.2409 22.7959 42.8611 25.2484 46.9213C25.8837 47.9753 25.5512 49.3411 24.5023 49.9795C24.1404 50.2021 23.7489 50.3061 23.3573 50.3061L23.35 50.2986Z" fill="white"/>
<path d="M72.4949 50.2986C71.7488 50.2986 71.0175 49.9201 70.5965 49.2298C66.8883 43.0987 69.1413 38.4372 71.1283 34.3251C73.1671 30.109 75.0877 26.123 72.5909 19.4798C72.1551 18.3293 72.7387 17.0451 73.8836 16.6072C75.0286 16.1693 76.3066 16.7556 76.7424 17.9062C79.9114 26.3383 77.2595 31.8459 75.1246 36.2698C73.2114 40.2409 71.9409 42.8611 74.3933 46.9213C75.0286 47.9753 74.6962 49.3411 73.6473 49.9795C73.2853 50.2021 72.8938 50.3061 72.5023 50.3061L72.4949 50.2986Z" fill="white"/>
</g>
<defs>
<clipPath id="clip0_2001_47">
<rect width="120" height="137" fill="white" transform="translate(0 6)"/>
</clipPath>
</defs>
</svg>
