<svg width="149" height="150" viewBox="0 0 149 150" fill="none" xmlns="http://www.w3.org/2000/svg">
<g clip-path="url(#clip0_2001_46)">
<path d="M32.8076 105.297C32.8076 99.4768 28.078 94.7524 22.2326 94.7524C16.3872 94.7524 11.6575 99.4685 11.6575 105.297C11.6575 111.126 16.3872 115.842 22.2326 115.842C28.078 115.842 32.8076 111.126 32.8076 105.297Z" stroke="white" stroke-width="3.5" stroke-miterlimit="10"/>
<path d="M43.0163 134.092C43.0163 135.985 42.7582 137.803 42.2836 139.547H2.18997C1.70702 137.812 1.45721 135.985 1.45721 134.092C1.45721 126.686 5.35416 120.193 11.2162 116.523C13.9058 119.57 17.8527 121.488 22.2409 121.488C26.6292 121.488 30.5761 119.57 33.2656 116.523C39.1277 120.185 43.0247 126.677 43.0247 134.092H43.0163Z" stroke="white" stroke-width="3.5" stroke-miterlimit="10"/>
<path d="M85.075 20.9978C85.075 15.1775 80.3454 10.4531 74.5 10.4531C68.6546 10.4531 63.9249 15.1692 63.9249 20.9978C63.9249 26.8265 68.6546 31.5426 74.5 31.5426C80.3454 31.5426 85.075 26.8265 85.075 20.9978Z" stroke="white" stroke-width="3.5" stroke-miterlimit="10"/>
<path d="M95.2754 49.7921C95.2754 51.6852 95.0173 53.5036 94.5427 55.2472H54.4574C53.9744 53.5119 53.7246 51.6852 53.7246 49.7921C53.7246 42.3859 57.6216 35.893 63.4836 32.2314C66.1732 35.2786 70.1201 37.1966 74.5083 37.1966C78.8966 37.1966 82.8435 35.2786 85.533 32.2314C91.3951 35.893 95.2921 42.3859 95.2921 49.7921H95.2754Z" stroke="white" stroke-width="3.5" stroke-miterlimit="10"/>
<path d="M84.9835 105.297C84.9835 99.4768 80.2538 94.7524 74.4084 94.7524C68.563 94.7524 63.8334 99.4685 63.8334 105.297C63.8334 111.126 68.563 115.842 74.4084 115.842C80.2538 115.842 84.9835 111.126 84.9835 105.297Z" stroke="white" stroke-width="3.5" stroke-miterlimit="10"/>
<path d="M95.1838 134.092C95.1838 135.985 94.9257 137.803 94.451 139.547H54.3658C53.8828 137.812 53.633 135.985 53.633 134.092C53.633 126.686 57.5299 120.193 63.392 116.523C66.0816 119.57 70.0285 121.488 74.4167 121.488C78.805 121.488 82.7519 119.57 85.4414 116.523C91.3035 120.185 95.2004 126.677 95.2004 134.092H95.1838Z" stroke="white" stroke-width="3.5" stroke-miterlimit="10"/>
<path d="M137.334 105.297C137.334 99.4768 132.604 94.7524 126.759 94.7524C120.914 94.7524 116.184 99.4685 116.184 105.297C116.184 111.126 120.914 115.842 126.759 115.842C132.604 115.842 137.334 111.126 137.334 105.297Z" stroke="white" stroke-width="3.5" stroke-miterlimit="10"/>
<path d="M147.543 134.092C147.543 135.985 147.285 137.803 146.81 139.547H106.725C106.242 137.812 105.992 135.985 105.992 134.092C105.992 126.686 109.889 120.193 115.751 116.523C118.441 119.57 122.387 121.488 126.776 121.488C131.164 121.488 135.111 119.57 137.8 116.523C143.663 120.185 147.559 126.677 147.559 134.092H147.543Z" stroke="white" stroke-width="3.5" stroke-miterlimit="10"/>
<path d="M126.759 86.6741V72.4844H74.4084H22.2409V86.6741" stroke="white" stroke-width="3.5" stroke-miterlimit="10"/>
<path d="M74.4084 86.6737V72.484V60.7271" stroke="white" stroke-width="3.5" stroke-miterlimit="10"/>
</g>
<defs>
<clipPath id="clip0_2001_46">
<rect width="149" height="132" fill="white" transform="translate(0 9)"/>
</clipPath>
</defs>
</svg>
