<svg width="131" height="150" viewBox="0 0 131 150" fill="none" xmlns="http://www.w3.org/2000/svg">
<g clip-path="url(#clip0_2001_45)">
<path d="M121.43 95.6699C126.708 95.6699 131 91.3721 131 86.0872V34.5619H27.3037V18.8154C27.3037 17.756 26.4501 16.9013 25.3921 16.9013H9.22146C8.47605 15.1918 6.79286 14 4.8091 14C2.15207 14 0 16.1549 0 18.8154C0 21.476 2.15207 23.6309 4.8091 23.6309C6.78084 23.6309 8.47605 22.4391 9.22146 20.7296H23.4805V86.0751C23.4805 91.3601 27.7726 95.6578 33.0506 95.6578H48.3315V102.532H30.9947C26.8468 102.532 23.4684 105.915 23.4684 110.068C23.4684 114.221 26.8468 117.604 30.9947 117.604H45.3258C42.6447 119.266 40.8413 122.203 40.8413 125.586C40.8413 130.774 45.0493 135 50.2311 135C55.4129 135 59.6209 130.774 59.6209 125.586C59.6209 122.203 57.8175 119.266 55.1364 117.604H96.0859C93.4048 119.266 91.6014 122.203 91.6014 125.586C91.6014 130.774 95.8214 135 100.991 135C106.161 135 110.393 130.774 110.393 125.586C110.393 122.203 108.59 119.266 105.908 117.604H129.052V113.776H30.9947C28.9508 113.776 27.2917 112.115 27.2917 110.068C27.2917 108.021 28.9508 106.36 30.9947 106.36H129.076V102.532H102.927V95.6578H121.418L121.43 95.6699ZM50.2551 131.172C47.1893 131.172 44.6886 128.668 44.6886 125.598C44.6886 122.528 47.1893 120.024 50.2551 120.024C53.3209 120.024 55.8217 122.528 55.8217 125.598C55.8217 128.668 53.3209 131.172 50.2551 131.172ZM101.027 131.172C97.9615 131.172 95.4607 128.668 95.4607 125.598C95.4607 122.528 97.9615 120.024 101.027 120.024C104.093 120.024 106.594 122.528 106.594 125.598C106.594 128.668 104.093 131.172 101.027 131.172ZM121.43 91.8296H102.939V75.5895H127.177V86.0751C127.177 89.2413 124.604 91.8296 121.43 91.8296ZM27.3037 54.4497H48.3315V71.7612H27.3037V54.4497ZM52.1547 54.4497H75.3106V71.7612H52.1547V54.4497ZM99.1036 71.7612H79.1458V54.4497H99.1036V71.7612ZM102.927 54.4497H127.153V71.7612H102.927V54.4497ZM79.1338 50.6214V38.3902H99.0916V50.6214H79.1338ZM75.3106 50.6214H52.1547V38.3902H75.3106V50.6214ZM75.3106 75.6015V91.8416H52.1547V75.6015H75.3106ZM79.1338 75.6015H99.0916V91.8416H79.1338V75.6015ZM127.153 50.6214H102.927V38.3902H127.153V50.6214ZM27.3037 38.3902H48.3315V50.6214H27.3037V38.3902ZM33.0506 91.8296C29.8886 91.8296 27.3037 89.2533 27.3037 86.0751V75.5895H48.3315V91.8296H33.0506ZM99.1156 102.532H52.1668V95.6578H99.1156V102.532Z" fill="white"/>
</g>
<defs>
<clipPath id="clip0_2001_45">
<rect width="131" height="121" fill="white" transform="translate(0 14)"/>
</clipPath>
</defs>
</svg>
