<svg width="172" height="150" viewBox="0 0 172 150" fill="none" xmlns="http://www.w3.org/2000/svg">
<g clip-path="url(#clip0_2001_44)">
<path d="M27.9979 98.3691C20.0366 98.3691 13.599 104.779 13.599 112.678C13.599 120.577 20.0493 126.987 27.9979 126.987C35.9466 126.987 42.3969 120.577 42.3969 112.678C42.3969 104.779 35.9466 98.3691 27.9979 98.3691ZM27.9979 120.603C23.5919 120.603 20.0239 117.057 20.0239 112.678C20.0239 108.3 23.5919 104.754 27.9979 104.754C32.404 104.754 35.9719 108.3 35.9719 112.678C35.9719 117.057 32.404 120.603 27.9979 120.603Z" fill="white"/>
<path d="M139.888 98.3691C131.927 98.3691 125.489 104.779 125.489 112.678C125.489 120.577 131.939 126.987 139.888 126.987C147.837 126.987 154.287 120.577 154.287 112.678C154.287 104.779 147.837 98.3691 139.888 98.3691ZM139.888 120.603C135.482 120.603 131.914 117.057 131.914 112.678C131.914 108.3 135.482 104.754 139.888 104.754C144.294 104.754 147.862 108.3 147.862 112.678C147.862 117.057 144.294 120.603 139.888 120.603Z" fill="white"/>
<path d="M170.324 79.5174L158.68 47.9842H159.176V43.9716H122.873V23H0V110.849H11.542V106.836H4.0378V96.0347H118.823V106.836H46.003V110.849H122.873V47.9716H130.657V75.1893L167.95 83.1136V106.823H160.966V110.836H171.987V79.858L170.311 79.5047L170.324 79.5174ZM118.836 92.0095H4.0378V27.0126H118.823V92.0095H118.836ZM134.72 71.9464V47.9716H156.534L168 79.0126L134.72 71.9464Z" fill="white"/>
<path d="M136.79 89.8896C137.907 89.8896 138.809 88.9937 138.809 87.8833C138.809 86.7728 137.907 85.877 136.79 85.877H129.844C128.727 85.877 127.825 86.7728 127.825 87.8833C127.825 88.9937 128.727 89.8896 129.844 89.8896H136.79Z" fill="white"/>
</g>
<defs>
<clipPath id="clip0_2001_44">
<rect width="172" height="104" fill="white" transform="translate(0 23)"/>
</clipPath>
</defs>
</svg>
