<svg xmlns="http://www.w3.org/2000/svg" width="44" height="52" viewBox="0 0 44 52" fill="none">
    <g clip-path="url(#clip0_32_850)">
        <path
            d="M43.0974 1.68566C43.2356 1.32747 43.3738 0.969279 43.5121 0.607195C43.6695 0.202283 43.082 0.0387611 42.8285 0.0115075C42.41 -0.0352131 41.9645 0.0465479 41.5536 0.190603C41.5191 0.171136 41.4883 0.155563 41.4576 0.147776C41.1312 0.0309744 40.655 0.077695 40.3286 0.155563C39.6413 0.315191 38.6927 0.650022 38.4047 1.38198C37.1913 4.49279 36.0085 7.61528 34.8526 10.7495C34.2997 12.2484 33.7544 13.7474 33.2167 15.2541C32.3988 15.2658 31.5847 15.2775 30.7668 15.293C27.4374 15.3553 24.108 15.4449 20.7825 15.5578C20.9706 14.8764 21.1588 14.1951 21.347 13.5138C22.1918 10.4224 23.0251 7.32717 23.843 4.22804C23.9429 3.84649 24.0466 3.46494 24.1464 3.08339C24.2386 2.72909 24.2539 2.39815 24.0082 2.09057C23.7893 1.81804 23.3784 1.6623 23.0366 1.63505C22.956 1.52603 22.8369 1.44427 22.7256 1.40534C22.4299 1.30411 22.1111 1.3119 21.8039 1.35472C21.4238 1.40534 21.0282 1.51046 20.6826 1.68955C20.3754 1.84918 19.9376 2.07111 19.7879 2.40204C19.5459 2.93544 19.3002 3.46883 19.0583 4.00222C18.9623 4.21636 18.8893 4.41492 19.0237 4.6018C18.2019 7.06242 17.3955 9.53082 16.6083 12.0031C16.2089 13.2529 15.8172 14.5027 15.4293 15.7563C14.1928 15.807 12.9602 15.8615 11.7236 15.9238C11.2859 15.9432 10.7828 16.1067 10.3873 16.2975C10.1262 16.4221 9.73446 16.6401 9.53478 16.901L8.68227 16.9438C8.24066 16.9672 7.74145 17.1268 7.34591 17.3176C7.05791 17.4578 6.61629 17.703 6.43965 17.995C6.32445 18.1897 6.22844 18.4428 6.45501 18.6141C6.7123 18.8088 7.08095 18.7971 7.38048 18.7815C9.78823 18.6569 12.1998 18.5323 14.6076 18.4077C14.308 19.3928 14.0085 20.3778 13.7128 21.3628C12.7758 24.4892 11.8657 27.6273 10.9825 30.7731C10.7636 31.5479 10.5524 32.3227 10.3412 33.0975C7.99489 33.3038 5.64859 33.5063 3.30228 33.7126C2.86835 33.7515 2.46129 33.8294 2.0504 33.9696C1.67023 34.0981 1.22094 34.2811 0.898368 34.5302C0.756284 34.6392 0.449075 34.8456 0.522037 35.0636C0.591159 35.2739 0.994371 35.2739 1.1403 35.2583C4.07798 35.0013 7.01951 34.7444 9.96103 34.4874C9.93031 34.6003 9.89959 34.7132 9.86503 34.83C7.51104 35.0792 5.15321 35.3323 2.79922 35.5814C2.36529 35.6282 1.96208 35.706 1.54735 35.8462C1.16718 35.9747 0.717883 36.1538 0.391473 36.399C0.257069 36.5003 -0.0616597 36.7027 0.00746228 36.9169C0.0727442 37.1193 0.483636 37.1076 0.62188 37.096L9.5079 36.1499C9.13925 37.5242 8.7706 38.8986 8.40963 40.273C7.584 43.4344 6.78526 46.5997 6.0134 49.7767C5.91739 50.1777 5.81755 50.5826 5.72155 50.9837C5.66779 51.2134 5.81371 51.3886 5.99036 51.4898C5.98268 51.5209 5.98268 51.5482 5.99804 51.5755C6.25532 51.9726 6.71998 52.0154 7.15391 51.9959C7.6416 51.9687 8.14466 51.8402 8.60547 51.6845C8.81284 51.6144 9.02404 51.5326 9.23141 51.4431C9.43494 51.3886 9.63462 51.3107 9.81127 51.2017C10.057 51.0498 10.322 50.8513 10.4948 50.5982C10.5178 50.5749 10.5409 50.5554 10.5639 50.5281L10.7982 50.2595C10.9249 50.1349 11.0055 49.9908 11.0439 49.8195C11.1054 49.6872 11.1131 49.5509 11.067 49.4068C11.1284 49.2239 11.186 49.037 11.2475 48.854C11.812 47.1876 12.3765 45.5251 12.941 43.8588C13.0024 43.6719 12.8834 43.594 12.6913 43.5668C12.9371 42.7569 13.179 41.951 13.421 41.1412C13.9778 39.2802 14.5308 37.4152 15.0799 35.5503C15.2949 35.5269 15.5062 35.5036 15.7212 35.4802C19.4039 35.087 23.0827 34.6976 26.7654 34.3044C26.2431 35.9513 25.7247 37.606 25.2178 39.2568C24.2347 42.4494 23.2862 45.6536 22.3608 48.8657C22.2455 49.2628 22.1342 49.6599 22.019 50.0609C21.946 50.3218 22.1687 50.497 22.38 50.571C22.4875 50.6099 22.6104 50.6294 22.7371 50.6371C23.0789 51.2095 23.9621 51.373 24.6034 51.2796C25.6824 51.1238 26.7423 50.3802 27.3452 49.4691C27.7523 48.854 28.0288 48.1882 28.24 47.4835C28.478 46.697 28.6969 45.9067 28.9235 45.1163C29.1923 44.1897 29.4573 43.2592 29.7261 42.3326C29.7837 42.1379 29.8106 41.9471 29.7798 41.7641C30.2253 40.1873 30.6746 38.6105 31.1354 37.0376C31.458 35.9357 31.7882 34.8339 32.1185 33.7321L39.2265 32.9768C39.887 32.9067 40.5168 32.7354 41.1197 32.4473C41.3424 32.3383 41.5575 32.2215 41.7495 32.0657C41.8493 31.984 42.0759 31.8088 42.0144 31.6452C41.8148 31.0924 41.3501 30.6291 40.7971 30.4422C40.5091 30.3448 40.2173 30.3682 39.9177 30.4149C39.695 30.45 39.4608 30.5045 39.2342 30.5707C37.126 30.7536 35.0178 30.9366 32.9095 31.1235C33.2167 30.1229 33.5278 29.1184 33.8427 28.1178C34.7758 25.155 35.7435 22.1999 36.7381 19.2526C36.9685 18.5752 37.1989 17.8977 37.4293 17.2241L41.6112 17.01C42.0452 16.9867 42.5597 16.8309 42.9476 16.6362C43.2394 16.4883 43.5198 16.3209 43.7463 16.0756C43.8654 15.9471 44.0535 15.7096 43.9652 15.5111C43.8539 15.2658 43.5428 15.1645 43.297 15.1645C41.5767 15.1645 39.8563 15.1723 38.1359 15.1879C38.6927 13.5916 39.2572 11.9992 39.8294 10.4107C40.8854 7.4868 41.9684 4.57455 43.0858 1.67787L43.0974 1.68566ZM27.1955 32.9884C26.8998 33.0196 26.6041 33.0507 26.3045 33.0819C22.6948 33.4673 19.0851 33.8489 15.4716 34.2343C15.4946 34.1565 15.5177 34.0786 15.5407 34.0046C19.4269 33.6659 23.3093 33.3272 27.1955 32.9884ZM31.4733 20.1792C30.3751 23.3329 29.3075 26.4982 28.2668 29.6713C28.0595 30.3098 27.8521 30.9483 27.6447 31.5907C26.9228 31.653 26.2009 31.7153 25.4828 31.7776C22.3032 32.054 19.1274 32.3305 15.9478 32.6108C16.013 32.385 16.0822 32.1553 16.1475 31.9294C17.0384 28.8654 17.9139 25.8013 18.7818 22.7333C19.2157 21.1993 19.642 19.6653 20.0682 18.1274C20.2948 18.1157 20.5252 18.1041 20.7517 18.0924C24.6379 17.8938 28.528 17.6914 32.4142 17.4928C32.0993 18.3883 31.7805 19.2837 31.4695 20.1792H31.4733Z"
            fill="#FE5000" />
    </g>
    <defs>
        <clipPath id="clip0_32_850">
            <rect width="44" height="52" fill="white" />
        </clipPath>
    </defs>
</svg>