<svg xmlns="http://www.w3.org/2000/svg" width="96" height="92" viewBox="0 0 96 92" fill="none">
    <g clip-path="url(#clip0_31_844)">
        <path
            d="M6.08149 24.5177C6.4377 29.2312 6.78063 33.9358 7.15013 38.6582C7.42674 42.0887 7.25992 46.1194 8.4023 49.5188C8.66658 50.2782 9.68198 50.5598 9.8422 49.7609C10.4838 46.7135 9.84495 42.828 9.64035 39.5751C9.47137 36.8639 9.29329 34.1558 9.11522 31.4477C13.8785 44.5185 23.9954 55.4287 34.5191 60.5086C38.4925 62.4362 44.7758 63.8842 49.9935 63.1491C54.3262 67.2218 59.3058 70.137 64.2947 71.6436C77.3431 75.6015 91.9932 68.9622 90.4222 50.5374C90.2384 48.3988 87.5992 48.3715 87.7878 50.4949C89.2115 67.1197 75.179 71.9902 63.8286 68.225C60.2013 67.0282 56.5726 65.0076 53.2812 62.3157C57.4682 60.6692 60.1519 56.8705 58.7448 49.5771C57.5677 43.5007 52.9924 38.8774 48.2749 37.6817C44.2287 36.6577 38.5137 37.4577 38.7362 43.5149C38.9573 49.451 43.7002 56.3132 47.4175 60.4919C47.3993 60.4983 47.3902 60.5014 47.372 60.5078C42.3054 60.7983 36.685 58.7953 31.7705 55.8035C23.1741 50.5798 16.6767 42.396 11.832 32.4885C15.2828 36.1655 19.2715 39.0742 23.4107 40.336C24.0408 40.5356 24.7549 40.0979 24.7675 39.2558C24.7689 39.2012 24.7662 39.1346 24.7676 39.0801C24.7837 38.1016 24.1887 37.2412 23.3705 37.1746C23.3705 37.1746 23.3523 37.181 23.3432 37.1841C17.4363 34.0647 12.6169 30.3506 8.39494 23.7261C7.49434 22.3099 5.96485 22.9233 6.08569 24.5298L6.08149 24.5177ZM42.8639 48.7265C42.178 46.6681 41.9882 42.4912 43.2632 41.088C44.1395 40.1209 47.0214 40.6989 48.176 40.9997C52.4264 42.1418 56.8918 47.006 56.3199 52.7722C55.9363 56.6487 53.4018 58.855 50.5603 59.8575C50.1387 59.4367 49.7261 59.0128 49.3184 58.5737C47.0361 56.0575 44.0349 52.2375 42.8639 48.7265Z"
            fill="#FE5000" />
    </g>
    <defs>
        <clipPath id="clip0_31_844">
            <rect width="69.4998" height="77.2044" fill="white"
                transform="translate(22.8451 91.0155) rotate(-109.19)" />
        </clipPath>
    </defs>
</svg>