<svg xmlns="http://www.w3.org/2000/svg" width="126" height="102" viewBox="0 0 126 102" fill="none">
    <g clip-path="url(#clip0_32_847)">
        <path
            d="M1.1468 12.5854C8.94588 18.0103 10.0831 27.6288 12.8429 36.0275C15.3795 43.745 19.2594 51.4143 26.0088 56.2678C40.1857 66.4723 53.3393 57.0338 62.8083 45.5909C68.8585 38.2834 75.3606 30.2493 85.6 29.6771C96.1403 29.0801 108.609 35.0287 114.746 43.5983C127.503 61.418 115.669 84.8357 95.037 88.4365C94.7897 88.4778 94.6116 88.5969 94.4775 88.7437C97.1675 83.8748 100.358 78.3693 101.258 73.0631C101.427 72.0779 99.9866 71.1941 99.3556 72.1547C95.9297 77.3453 93.9798 83.845 91.0412 89.3715C90.5165 90.3546 91.4102 91.3148 92.3817 91.3183C99.2263 91.3705 106.161 91.8851 112.963 92.6823C113.723 92.7763 113.945 91.6719 113.19 91.5044C108.893 90.5635 104.618 89.8819 100.315 89.3697C110.656 86.6064 119.133 78.4619 121.894 67.8642C125.323 54.726 119.367 40.8781 108.068 33.6634C96.0636 25.9952 81.0478 23.8594 69.8048 33.7983C63.6915 39.2 59.4212 46.3087 53.3191 51.7198C45.5035 58.6403 35.8466 60.073 27.2144 53.6621C19.0166 47.5808 16.083 37.327 13.3517 28.007C11.3458 21.1544 8.8377 14.4163 2.48236 10.5434C1.31617 9.82489 0.0360075 11.7788 1.16669 12.5733L1.1468 12.5854Z"
            fill="#FE5000" />
    </g>
    <defs>
        <clipPath id="clip0_32_847">
            <rect width="91.1427" height="117.839" fill="white"
                transform="translate(8.08502 101.345) rotate(-94.7107)" />
        </clipPath>
    </defs>
</svg>