<svg width="90" height="84" viewBox="0 0 90 84" fill="none" xmlns="http://www.w3.org/2000/svg">
    <g clip-path="url(#clip0_2004_263)">
        <path
            d="M54.9929 27.1851C54.9929 27.1851 54.9668 27.2025 54.9581 27.2112C54.9668 27.2112 54.9755 27.1938 54.9929 27.1851Z"
            fill="#FE5000" />
        <path
            d="M55.0194 27.1672C55.0194 27.1672 55.0021 27.1845 54.9935 27.1845C55.0021 27.1845 55.0107 27.1759 55.0194 27.1672Z"
            fill="#FE5000" />
        <path
            d="M86.9737 65.1023C86.8146 64.6147 85.5152 64.074 85.1793 63.8878C77.2771 59.4905 69.4015 55.0489 61.5346 50.5896C59.6077 49.1091 57.6896 47.6374 55.7539 46.1658C52.8016 43.9228 49.8228 41.7065 46.844 39.499C53.1817 34.5255 59.5812 29.6495 66.0603 24.8621C70.9306 21.2628 75.8452 17.7255 80.7951 14.2325C81.5553 13.6917 81.7762 12.2909 81.6967 11.4665C81.5906 10.3671 80.9719 9.11712 80.1852 8.35469C79.3632 7.5568 78.3113 6.82983 77.1357 6.72345C76.0397 6.62593 75.2441 6.89189 74.3425 7.5302C74.316 7.54794 74.2983 7.56567 74.2718 7.57453C73.273 7.71638 72.1858 7.94688 71.3638 8.5054C62.2948 14.7201 53.3584 21.1209 44.5458 27.6902C44.4486 24.3568 44.3691 21.0234 44.3072 17.69C44.2099 12.2643 44.1569 6.82983 44.1481 1.40419C44.1481 -0.918556 41.6024 -2.2661 39.5252 -1.94695C38.4115 -1.7785 37.2801 -1.27317 36.4315 -0.50188C36.0072 -0.679189 35.5564 -0.785574 35.141 -0.679189C34.4516 -0.50188 34.3985 0.0832386 34.4162 0.703819C34.6725 10.8104 34.9289 20.917 35.194 31.0236C31.2783 28.2399 27.3184 25.5093 23.3231 22.8319C16.9236 18.5499 10.4091 14.4364 3.78862 10.509C3.33783 10.243 2.75444 10.2874 2.57766 10.8281C2.37436 11.4576 2.87819 12.5835 3.12569 13.0888C4.08915 15.0215 5.48573 16.7857 7.35079 17.885C7.39499 17.9116 7.54525 18.0003 7.59829 18.0269C7.669 18.0712 7.73971 18.1155 7.81042 18.151C8.10212 18.3283 8.40265 18.5056 8.69434 18.6829C9.36611 19.0907 10.0379 19.4897 10.7008 19.8975C11.956 20.6599 13.2023 21.4312 14.4486 22.2114C16.9412 23.7717 19.4074 25.3497 21.8646 26.9632C24.6578 28.7984 27.4333 30.6601 30.1911 32.5573C27.7692 31.1389 25.3473 29.7293 22.9342 28.3019C17.0915 24.8621 11.2577 21.4046 5.4327 17.9294C3.86817 16.9985 2.1799 16.1385 0.438593 15.5446C-0.489516 14.9417 -1.42646 14.3389 -2.35457 13.736C-2.66394 13.5321 -2.99983 13.2927 -3.00867 13.7271C-3.00867 14.1527 -1.93913 15.2786 -1.75351 15.5002C-0.401124 17.0694 1.12805 18.7361 2.87819 19.8709C12.2477 25.9083 21.5995 31.9811 30.9247 38.0894C26.293 41.6887 21.6879 45.3236 17.1357 49.0293C12.2565 52.9922 7.43034 57.0171 2.63954 61.0952C2.15338 61.5118 1.96776 62.1945 2.35668 62.7264C2.79864 63.347 3.94773 63.6307 4.6195 63.7105C6.01608 63.8878 7.60713 63.7903 9.00371 63.2849C9.24236 63.7193 9.53405 64.1094 9.85226 64.4108C11.3991 65.9091 13.8741 66.8222 15.6949 65.2442C22.2536 59.5437 28.9094 53.9585 35.6448 48.4797C35.7421 52.1588 35.8305 55.8468 35.9277 59.526C36.0691 65.1023 36.2105 70.6698 36.352 76.2462C36.3696 77.0796 37.2094 78.2498 37.6778 78.8526C38.3761 79.748 39.3396 80.6966 40.3296 81.2729C40.9837 81.6452 41.8676 82.1772 42.6543 81.9821C43.3437 81.8048 43.3968 81.2197 43.3791 80.5991V80.2888C45.253 79.7215 47.2506 78.17 47.0827 76.0334C46.3579 66.5474 45.7656 57.0525 45.306 47.5488C51.2105 51.4407 57.1151 55.3504 63.0019 59.2689C67.8811 62.5136 72.7427 65.785 77.6042 69.0475C78.4439 70.1645 79.4869 71.2372 80.7067 71.7248C81.3696 71.9908 82.2182 72.044 82.5099 71.2284C82.9695 69.9429 81.9088 68.1255 81.2901 67.1237C79.8228 64.7389 77.7103 63.1165 75.5447 61.4321C74.2276 60.4125 72.9194 59.3841 71.6024 58.3646C71.0014 57.8947 70.4003 57.4337 69.7992 56.9727C73.3526 58.9675 76.897 60.9711 80.4592 62.948C81.4934 63.5243 82.5983 64.0296 83.7032 64.4729C84.5252 64.8098 85.4622 65.1999 86.3549 65.3506C86.6731 65.4038 87.1239 65.5456 86.9737 65.1023ZM22.3331 29.7559C25.0379 31.3428 27.7338 32.9297 30.4474 34.4989C31.4197 35.0662 32.392 35.6248 33.3643 36.1833C33.1787 36.3251 32.9931 36.4759 32.8075 36.6177C29.316 34.3216 25.8246 32.0431 22.3331 29.7559ZM45.1823 44.765C45.1557 44.2242 45.1381 43.6835 45.1115 43.1338C51.3166 47.6729 57.451 52.3007 63.5411 56.9816C57.4333 52.8946 51.3078 48.8165 45.1823 44.765Z"
            fill="#FE5000" />
    </g>
    <path
        d="M89.9737 67.1023C89.8146 66.6147 88.5152 66.074 88.1793 65.8878C80.2771 61.4905 72.4015 57.0489 64.5346 52.5896C62.6077 51.1091 60.6896 49.6374 58.7539 48.1658C55.8016 45.9228 52.8228 43.7065 49.844 41.499C56.1817 36.5255 62.5812 31.6495 69.0603 26.8621C73.9306 23.2628 78.8452 19.7255 83.7951 16.2325C84.5553 15.6917 84.7762 14.2909 84.6967 13.4665C84.5906 12.3671 83.9719 11.1171 83.1852 10.3547C82.3632 9.5568 81.3113 8.82983 80.1357 8.72345C79.0397 8.62593 78.2441 8.89189 77.3425 9.5302C77.316 9.54794 77.2983 9.56567 77.2718 9.57453C76.273 9.71638 75.1858 9.94688 74.3638 10.5054C65.2948 16.7201 56.3584 23.1209 47.5458 29.6902C47.4486 26.3568 47.3691 23.0234 47.3072 19.69C47.2099 14.2643 47.1569 8.82983 47.1481 3.40419C47.1481 1.08144 44.6024 -0.266102 42.5252 0.0530538C41.4115 0.221497 40.2801 0.726827 39.4315 1.49812C39.0072 1.32081 38.5564 1.21443 38.141 1.32081C37.4516 1.49812 37.3985 2.08324 37.4162 2.70382C37.6725 12.8104 37.9289 22.917 38.194 33.0236C34.2783 30.2399 30.3184 27.5093 26.3231 24.8319C19.9236 20.5499 13.4091 16.4364 6.78862 12.509C6.33783 12.243 5.75444 12.2874 5.57766 12.8281C5.37436 13.4576 5.87819 14.5835 6.12569 15.0888C7.08915 17.0215 8.48573 18.7857 10.3508 19.885C10.395 19.9116 10.5453 20.0003 10.5983 20.0269C10.669 20.0712 10.7397 20.1155 10.8104 20.151C11.1021 20.3283 11.4026 20.5056 11.6943 20.6829C12.3661 21.0907 13.0379 21.4897 13.7008 21.8975C14.956 22.6599 16.2023 23.4312 17.4486 24.2114C19.9412 25.7717 22.4074 27.3497 24.8646 28.9632C27.6578 30.7984 30.4333 32.6601 33.1911 34.5573C30.7692 33.1389 28.3473 31.7293 25.9342 30.3019C20.0915 26.8621 14.2577 23.4046 8.4327 19.9294C6.86817 18.9985 5.1799 18.1385 3.43859 17.5446C2.51048 16.9417 1.57354 16.3389 0.645428 15.736C0.336059 15.5321 0.000172135 15.2927 -0.00866699 15.7271C-0.00866699 16.1527 1.06087 17.2786 1.24649 17.5002C2.59888 19.0694 4.12805 20.7361 5.87819 21.8709C15.2477 27.9083 24.5995 33.9811 33.9247 40.0894C29.293 43.6887 24.6879 47.3236 20.1357 51.0293C15.2565 54.9922 10.4303 59.0171 5.63954 63.0952C5.15338 63.5118 4.96776 64.1945 5.35668 64.7264C5.79864 65.347 6.94773 65.6307 7.6195 65.7105C9.01608 65.8878 10.6071 65.7903 12.0037 65.2849C12.2424 65.7193 12.5341 66.1094 12.8523 66.4108C14.3991 67.9091 16.8741 68.8222 18.6949 67.2442C25.2536 61.5437 31.9094 55.9585 38.6448 50.4797C38.7421 54.1588 38.8305 57.8468 38.9277 61.526C39.0691 67.1023 39.2105 72.6698 39.352 78.2462C39.3696 79.0796 40.2094 80.2498 40.6778 80.8526C41.3761 81.748 42.3396 82.6966 43.3296 83.2729C43.9837 83.6452 44.8676 84.1772 45.6543 83.9821C46.3437 83.8048 46.3968 83.2197 46.3791 82.5991V82.2888C48.253 81.7215 50.2506 80.17 50.0827 78.0334C49.3579 68.5474 48.7656 59.0525 48.306 49.5488C54.2105 53.4407 60.1151 57.3504 66.0019 61.2689C70.8811 64.5136 75.7427 67.785 80.6042 71.0475C81.4439 72.1645 82.4869 73.2372 83.7067 73.7248C84.3696 73.9908 85.2182 74.044 85.5099 73.2284C85.9695 71.9429 84.9088 70.1255 84.2901 69.1237C82.8228 66.7389 80.7103 65.1165 78.5447 63.4321C77.2276 62.4125 75.9194 61.3841 74.6024 60.3646C74.0014 59.8947 73.4003 59.4337 72.7992 58.9727C76.3526 60.9675 79.897 62.9711 83.4592 64.948C84.4934 65.5243 85.5983 66.0296 86.7032 66.4729C87.5252 66.8098 88.4622 67.1999 89.3549 67.3506C89.6731 67.4038 90.1239 67.5456 89.9737 67.1023ZM25.3331 31.7559C28.0379 33.3428 30.7338 34.9297 33.4474 36.4989C34.4197 37.0662 35.392 37.6248 36.3643 38.1833C36.1787 38.3251 35.9931 38.4759 35.8075 38.6177C32.316 36.3216 28.8246 34.0431 25.3331 31.7559ZM48.1823 46.765C48.1557 46.2242 48.1381 45.6835 48.1115 45.1338C54.3166 49.6729 60.451 54.3007 66.5411 58.9816C60.4333 54.8946 54.3078 50.8165 48.1823 46.765Z"
        fill="white" />
    <defs>
        <clipPath id="clip0_2004_263">
            <rect width="90" height="84" fill="white" transform="translate(-3 -2)" />
        </clipPath>
    </defs>
</svg>