<svg width="68" height="68" viewBox="0 0 68 68" fill="none" xmlns="http://www.w3.org/2000/svg">
    <g clip-path="url(#clip0_2013_389)">
        <path
            d="M33.0431 65.4648C26.767 65.4648 20.4925 65.4563 14.2163 65.4749C13.284 65.4783 12.48 65.3111 11.9497 64.4734C11.622 63.9566 11.345 64.3163 11.0545 64.5139C8.17992 66.4747 4.3865 65.4074 2.95933 62.2339C2.04222 60.192 2.50838 57.8596 4.24294 56.1014C6.47575 53.8366 8.72376 51.5869 10.9954 49.3626C11.5021 48.8661 11.6913 48.356 11.6896 47.6535C11.671 35.5253 11.6761 23.3955 11.6778 11.2674C11.6778 9.21707 12.3027 8.59048 14.3379 8.58879C15.2111 8.58879 16.0843 8.5567 16.9541 8.59893C17.5993 8.62933 17.8087 8.36248 17.7648 7.75447C17.731 7.27819 17.7496 6.79854 17.7682 6.32058C17.8459 4.29894 19.5517 2.58976 21.5751 2.52051C22.3621 2.49349 23.1509 2.50362 23.9379 2.51376C25.8346 2.5374 27.3513 3.63858 27.8682 5.48794C28.059 6.17026 28.3681 6.31551 29.0031 6.226C33.9856 5.52172 38.9697 4.83602 43.9538 4.14356C47.7405 3.61831 51.5255 3.0711 55.3155 2.57456C58.1023 2.20975 59.4416 3.2839 59.7727 6.06555C60.656 13.4613 61.5427 20.8571 62.4108 28.2545C63.2891 35.7365 64.1488 43.22 65.0152 50.7036C65.1807 52.1274 65.4104 53.5478 65.4881 54.9766C65.608 57.1688 64.5085 58.449 62.3382 58.8341C60.0395 59.2411 57.7493 59.687 55.4455 60.0586C54.6332 60.1886 54.2514 60.4909 54.3528 61.3624C54.4271 62.0008 54.3764 62.6561 54.3629 63.303C54.3342 64.6676 53.5674 65.4513 52.2044 65.4597C49.6152 65.4766 47.0261 65.4665 44.4369 65.4665C40.6384 65.4665 36.8382 65.4665 33.0398 65.4665L33.0431 65.4648ZM13.8363 46.2145C13.9106 46.2449 13.9832 46.2736 14.0575 46.304C15.2246 45.1285 16.4018 43.9632 17.5537 42.7742C17.9776 42.3367 18.4522 42.0412 19.0332 41.852C21.6021 41.016 24.1643 40.1597 26.7214 39.2916C27.3429 39.0805 27.9661 38.9809 28.6231 38.9809C34.7321 38.991 40.8394 38.9859 46.9484 38.9859C47.8216 38.9859 48.6931 38.9826 49.5663 38.9927C49.8112 38.9961 50.1439 38.937 50.23 39.2291C50.3922 39.773 50.4226 40.3641 50.225 40.8893C50.0679 41.3065 49.5832 41.1393 49.2403 41.1393C42.7378 41.1477 36.2353 41.1562 29.7345 41.1309C29.0234 41.1275 28.6856 41.3487 28.4711 42.0344C27.7922 44.2098 27.022 46.3564 26.3346 48.53C26.0559 49.4133 25.61 50.1328 24.9463 50.7881C21.3808 54.3078 17.8577 57.8714 14.299 61.3979C13.8042 61.8893 13.7146 62.4534 13.8971 63.0158C14.066 63.5394 14.6334 63.2979 15.0202 63.2979C27.0389 63.3097 39.0592 63.308 51.0779 63.308C51.8323 63.308 52.2106 62.9438 52.2129 62.2153C52.2129 45.4106 52.2061 28.6075 52.2314 11.8028C52.2314 10.9246 51.9595 10.7236 51.1252 10.7287C44.9334 10.7607 38.74 10.7455 32.5466 10.7455C31.3086 10.7455 30.0689 10.7726 28.8309 10.7354C28.1924 10.7168 27.9847 10.96 28.0134 11.5748C28.0506 12.3889 27.9881 13.208 28.0286 14.022C28.0742 14.9526 27.429 14.7753 26.8869 14.7989C26.3126 14.8243 25.8093 14.8175 25.8549 13.995C25.9005 13.1539 25.8313 12.3044 25.8718 11.4633C25.9107 10.6408 25.3651 10.7624 24.8601 10.7405C24.3163 10.7168 23.9194 10.781 23.9599 11.4904C24.0021 12.247 23.9802 13.0104 23.9633 13.7704C23.9261 15.5573 22.6087 16.8307 20.8286 16.8206C19.0991 16.8104 17.8019 15.5319 17.7631 13.7856C17.7462 13.0543 17.7209 12.3196 17.7682 11.59C17.8121 10.9043 17.5266 10.6932 16.8798 10.7354C16.2633 10.7759 15.6418 10.7439 15.0219 10.7439C14.2315 10.7439 13.8357 11.1469 13.8346 11.9531C13.8346 23.0713 13.8346 34.1894 13.8346 45.3075C13.8346 45.6082 13.8346 45.9105 13.8346 46.2111L13.8363 46.2145ZM28.8815 8.51617C28.8934 8.53982 28.9069 8.56515 28.9187 8.58879C29.0876 8.58879 29.2565 8.58879 29.4254 8.58879C36.9396 8.58879 44.4538 8.59386 51.968 8.57866C52.8108 8.57866 53.5184 8.76613 54.0302 9.48223C54.4035 10.0041 54.3697 10.5969 54.3697 11.1863C54.3697 26.0454 54.3697 40.9045 54.3697 55.7653C54.3697 56.2433 54.3883 56.7229 54.3663 57.2009C54.341 57.7515 54.5166 57.9609 55.1111 57.8461C57.4031 57.4053 59.7034 57.0117 61.997 56.5811C63.0898 56.375 63.3651 55.9933 63.2384 54.882C62.8432 51.4197 62.4328 47.9575 62.0308 44.4952C61.4498 39.4977 60.8739 34.4985 60.2861 29.501C59.7473 24.9223 59.195 20.3453 58.6495 15.7684C58.2543 12.4463 57.8591 9.12587 57.4655 5.80377C57.3828 5.09949 57.0011 4.74144 56.2816 4.7786C55.9725 4.79549 55.6634 4.81744 55.3577 4.85966C50.1777 5.57577 44.9993 6.29524 39.8193 7.01134C36.1745 7.51464 32.528 8.01456 28.8832 8.51448L28.8815 8.51617ZM12.7688 59.5502C12.985 59.5316 13.1168 59.3762 13.2536 59.2394C16.4373 56.0592 19.6159 52.8739 22.8046 49.6987C23.1458 49.3593 23.2218 49.0823 22.8435 48.7124C21.6578 47.5504 20.484 46.3766 19.3237 45.1927C18.9623 44.8228 18.687 44.8583 18.3373 45.2096C15.1621 48.3983 11.9818 51.5819 8.78963 54.7537C8.39272 55.1489 8.42988 55.4309 8.8099 55.8025C9.95839 56.9222 11.0816 58.0656 12.2165 59.1972C12.3736 59.3526 12.5138 59.5417 12.7688 59.5519V59.5502ZM7.75261 63.2371C8.94164 63.2371 9.75234 62.7726 10.4853 62.038C10.9937 61.5279 11.0613 61.1952 10.5022 60.6767C9.43313 59.6836 8.39441 58.6534 7.40637 57.5792C6.84226 56.9645 6.41833 56.9678 5.93528 57.6079C5.83563 57.7414 5.69545 57.8444 5.58736 57.9727C4.69896 59.0165 4.51487 60.192 5.08236 61.4232C5.62114 62.5936 6.59229 63.1966 7.75092 63.2371H7.75261ZM25.865 7.40993C25.8617 5.37141 25.1675 4.67219 23.1407 4.66544C22.9719 4.66544 22.8046 4.66544 22.6357 4.66544C20.4773 4.67388 19.4098 6.06048 19.9267 8.17332C19.979 8.38781 20.0736 8.50942 20.2915 8.57191C21.3167 8.86747 21.7794 8.53306 21.8166 7.46735C21.8267 7.17517 21.7034 6.76645 22.0649 6.64992C22.6003 6.47765 23.2032 6.44556 23.7167 6.65836C24.1524 6.83908 23.9768 7.36095 23.9565 7.72407C23.9194 8.38106 24.1541 8.62257 24.823 8.60062C25.865 8.56684 25.8684 8.60231 25.865 7.41162V7.40993ZM19.9165 12.3956C19.9165 12.3956 19.925 12.3956 19.9283 12.3956C19.9283 12.7604 19.8996 13.1303 19.9351 13.4917C19.9908 14.0676 20.202 14.5591 20.8978 14.5405C21.5447 14.522 21.7575 14.0457 21.7879 13.5069C21.8301 12.7773 21.8048 12.0443 21.8065 11.313C21.8065 11.0394 21.7389 10.8384 21.4197 10.7557C20.3438 10.4736 19.9165 10.7861 19.9148 11.8889C19.9148 12.0578 19.9148 12.2267 19.9148 12.3956H19.9165ZM24.8145 45.8936C24.8061 45.8277 24.8179 45.7568 24.7892 45.7196C24.0629 44.7924 23.2624 43.9243 22.2946 43.2623C22.0058 43.0647 21.4771 43.2994 21.2559 43.6186C21.0599 43.9024 21.4484 44.0949 21.6291 44.2824C22.3115 44.9867 23.0023 45.6842 23.7099 46.3631C23.9143 46.559 24.0883 46.9813 24.4311 46.7904C24.7216 46.63 24.7098 46.2027 24.8128 45.8953L24.8145 45.8936Z"
            fill="white" />
        <path
            d="M50.3162 22.843C50.3162 25.9101 50.2942 28.9771 50.3314 32.0442C50.3398 32.8211 50.0831 33.0559 49.3163 33.0525C43.182 33.0272 37.0477 33.0272 30.9117 33.0525C30.1347 33.0559 29.9017 32.8042 29.9034 32.0375C29.9287 25.9033 29.9287 19.7692 29.9034 13.6333C29.9 12.8564 30.1516 12.6217 30.9184 12.625C37.0527 12.6504 43.187 12.6504 49.3231 12.625C50.1 12.6217 50.3398 12.8733 50.3314 13.6401C50.2959 16.7071 50.3178 19.7742 50.3178 22.8413L50.3162 22.843ZM48.1577 22.9274C48.1577 20.4802 48.1458 18.033 48.1661 15.5857C48.1712 15.0132 47.9905 14.7868 47.3926 14.7902C42.5267 14.8071 37.6608 14.8037 32.7932 14.7953C32.3118 14.7953 32.0686 14.9321 32.0686 15.4641C32.0787 20.3856 32.0754 25.3088 32.0754 30.2303C32.0754 30.5597 32.0973 30.862 32.5432 30.8721C32.9249 30.8822 33.0989 30.6998 33.1529 30.33C33.2475 29.6915 33.3961 29.0599 33.4789 28.4198C33.7289 26.4792 34.5463 24.8764 36.2116 23.7803C36.6525 23.4898 36.72 23.2264 36.4751 22.7433C35.5259 20.867 35.9566 18.8234 37.5172 17.5719C39.0474 16.3457 41.2312 16.3575 42.7445 17.5989C44.2629 18.8453 44.7004 20.9075 43.7697 22.7079C43.5012 23.2264 43.5823 23.4949 44.0535 23.8057C45.6327 24.8477 46.4366 26.3762 46.722 28.2121C46.8217 28.8505 46.9501 29.4838 47.043 30.1239C47.1038 30.5428 47.1696 30.9295 47.7304 30.8653C48.3012 30.7995 48.1475 30.3468 48.1492 30.0141C48.161 27.6513 48.156 25.2885 48.1543 22.9257L48.1577 22.9274ZM40.1081 30.8805C41.4018 30.8805 42.6972 30.8552 43.991 30.8907C44.7037 30.9109 44.8861 30.6407 44.7274 29.9787C44.5906 29.4061 44.545 28.8133 44.4318 28.234C44.1329 26.6954 43.2597 25.6229 41.7497 25.1602C40.8276 24.8781 39.8699 24.8545 38.9123 25.0622C37.3736 25.3966 36.3315 26.2799 35.9194 27.8118C35.7168 28.5684 35.6391 29.3588 35.482 30.129C35.3655 30.6948 35.5833 30.8957 36.1424 30.8873C37.4648 30.867 38.7873 30.8805 40.1098 30.8822L40.1081 30.8805ZM40.157 18.8926C39.1775 18.8656 38.257 19.7303 38.1979 20.7302C38.1404 21.7367 39.0457 22.7045 40.0743 22.7332C41.0556 22.7602 41.9744 21.8989 42.0335 20.8957C42.0909 19.8874 41.1873 18.9213 40.157 18.8926Z"
            fill="white" />
        <path
            d="M43.1701 53.1742C45.2239 53.1742 47.2777 53.2047 49.3315 53.159C50.1219 53.1405 50.3465 53.4259 50.3313 54.1825C50.2925 56.2633 50.2959 58.3457 50.3296 60.4281C50.3415 61.129 50.1675 61.4331 49.3923 61.4263C45.229 61.3942 41.064 61.3993 36.9007 61.4229C36.193 61.4263 35.9785 61.1713 35.9887 60.4873C36.0191 58.3491 36.0224 56.2109 35.9887 54.0727C35.9768 53.3634 36.2437 53.1523 36.926 53.1624C39.0068 53.1945 41.0893 53.1742 43.1718 53.1742H43.1701ZM43.1634 55.3327C41.7311 55.3327 40.2989 55.3428 38.8666 55.3276C38.3785 55.3226 38.1387 55.4796 38.1522 56.0032C38.1759 56.873 38.1708 57.7445 38.1539 58.6143C38.1455 59.0888 38.3566 59.2577 38.8143 59.256C41.7058 59.2476 44.599 59.2442 47.4905 59.2577C48.0174 59.2594 48.1745 59.0247 48.1627 58.5399C48.1424 57.7259 48.1306 56.9101 48.1661 56.0978C48.1914 55.5016 47.9482 55.3124 47.374 55.3242C45.9704 55.3513 44.5669 55.3327 43.1617 55.3344L43.1634 55.3327Z"
            fill="white" />
        <path
            d="M33.0279 37.0908C27.6249 37.0908 22.2219 37.0942 16.819 37.0841C16.4744 37.0841 15.9897 37.2496 15.8275 36.8425C15.6215 36.3207 15.6806 35.7346 15.809 35.1806C15.8529 34.9932 16.0488 34.9594 16.2194 34.951C16.4727 34.9374 16.7261 34.9324 16.9777 34.9324C27.6705 34.9324 38.3651 34.9324 49.0579 34.9324C50.2148 34.9324 50.7097 35.6873 50.2722 36.7648C50.0966 37.1972 49.7166 37.0824 49.4041 37.0841C47.2929 37.0959 45.1834 37.0908 43.0722 37.0908C39.723 37.0908 36.3755 37.0908 33.0262 37.0908H33.0279Z"
            fill="white" />
        <path
            d="M21.8115 20.8772C20.0685 20.8772 18.3221 20.8417 16.5808 20.8924C15.7177 20.916 15.7161 20.4245 15.7279 19.8182C15.7397 19.244 15.6468 18.7001 16.5437 18.7086C20.0871 18.7407 23.6322 18.7457 27.1757 18.7052C28.1282 18.6951 28.0016 19.271 28.032 19.8638C28.0658 20.5259 27.9408 20.9143 27.1284 20.8924C25.3583 20.8417 23.5849 20.8772 21.8132 20.8772H21.8115Z"
            fill="white" />
        <path
            d="M21.867 24.9304C20.124 24.9304 18.3776 24.8882 16.6363 24.9473C15.7377 24.9777 15.7242 24.4964 15.7192 23.8428C15.7124 23.1672 15.78 22.745 16.6548 22.7551C20.1426 22.799 23.6303 22.799 27.118 22.7551C28.0148 22.7433 28.0283 23.206 28.0351 23.8613C28.0418 24.5369 27.976 24.9777 27.0994 24.9473C25.3581 24.8865 23.6117 24.9287 21.8687 24.9287L21.867 24.9304Z"
            fill="white" />
        <path
            d="M21.8519 28.9839C20.1089 28.9839 18.3625 28.9484 16.6212 28.9991C15.8021 29.0227 15.6974 28.6174 15.7244 27.9638C15.7497 27.3642 15.6399 26.8001 16.5874 26.8103C20.1022 26.8508 23.6186 26.8525 27.135 26.8103C28.0487 26.7984 28.02 27.2933 28.0352 27.9317C28.0521 28.6259 27.9423 29.0329 27.0827 29.0025C25.3413 28.9434 23.5949 28.9839 21.8519 28.9839Z"
            fill="white" />
        <path
            d="M21.7914 33.0373C20.0484 33.0373 18.3037 33.0035 16.5607 33.0508C15.679 33.0745 15.728 32.5458 15.728 31.9581C15.728 31.3687 15.6858 30.8586 16.5641 30.867C20.1075 30.9008 23.6526 30.9008 27.1961 30.867C28.076 30.8586 28.0287 31.372 28.0287 31.9598C28.0287 32.5492 28.071 33.0728 27.1927 33.0508C25.394 33.0035 23.5935 33.0373 21.7931 33.0373H21.7914Z"
            fill="white" />
        <path
            d="M29.9105 57.3561C28.8144 57.3561 27.7166 57.3274 26.6204 57.3662C25.7607 57.3966 25.8604 56.8224 25.8672 56.2921C25.8739 55.777 25.7253 55.1875 26.5985 55.1977C28.8482 55.223 31.0979 55.2264 33.3459 55.196C34.2056 55.1842 34.1059 55.7415 34.0992 56.2718C34.0924 56.7869 34.241 57.3899 33.3678 57.3662C32.216 57.3342 31.0624 57.3578 29.9088 57.3595L29.9105 57.3561Z"
            fill="white" />
        <path
            d="M29.8999 61.4095C28.8037 61.4095 27.7059 61.3825 26.6098 61.418C25.7433 61.445 25.8666 60.8572 25.8666 60.3337C25.8666 59.8118 25.7416 59.2376 26.6081 59.2477C28.8578 59.2764 31.1075 59.2764 33.3555 59.2477C34.2219 59.2376 34.0986 59.8101 34.0986 60.332C34.0986 60.8539 34.2236 61.4433 33.3572 61.4163C32.2053 61.3825 31.0517 61.4078 29.8999 61.4078V61.4095Z"
            fill="white" />
    </g>
    <defs>
        <clipPath id="clip0_2013_389">
            <rect width="63" height="63" fill="white" transform="translate(2.5 2.5)" />
        </clipPath>
    </defs>
</svg>