<svg width="68" height="68" viewBox="0 0 68 68" fill="none" xmlns="http://www.w3.org/2000/svg">
    <g clip-path="url(#clip0_2013_389)">
        <path
            d="M63.4981 34.0285C63.4981 41.1319 63.4981 48.2353 63.4981 55.3403C63.4981 57.7965 62.6086 58.6827 60.1167 58.6858C55.0301 58.6904 49.945 58.6873 44.8583 58.6873C41.1519 58.6873 37.4469 58.6888 33.7404 58.6873C32.6716 58.6873 32.6256 58.6352 32.6179 57.5588C32.6056 55.722 32.647 56.0302 34.1483 56.0287C42.6854 56.0195 51.2208 56.0241 59.7578 56.0241C60.8282 56.0241 60.8328 56.0226 60.8328 54.9754C60.8328 43.4516 60.8328 31.9264 60.8328 20.4027C60.8328 19.3494 60.8282 19.3494 59.7655 19.3463C58.7427 19.3448 57.7214 19.331 56.6985 19.3494C56.2109 19.357 56.0084 19.1684 56.0161 18.6747C56.0483 16.427 55.7293 16.7076 57.8578 16.6831C58.5985 16.6754 59.3407 16.6693 60.0814 16.6831C60.5844 16.6938 60.8436 16.5098 60.8359 15.9717C60.8206 14.8739 60.8236 13.7746 60.8359 12.6752C60.842 12.2015 60.6733 11.9715 60.1658 11.9807C59.0156 12.0006 57.8655 11.993 56.7154 11.9838C56.3504 11.9807 56.1833 12.1126 56.0897 12.4867C55.7983 13.658 55.0055 14.302 53.8186 14.4538C52.8003 14.5841 51.7775 14.5994 50.7654 14.4216C49.7456 14.2422 49.0065 13.6519 48.7596 12.6507C48.6093 12.0405 48.301 11.9776 47.7904 11.9792C44.2127 11.993 40.6351 11.9853 37.0559 11.9853C32.302 11.9853 27.5481 11.993 22.7943 11.9761C22.1932 11.9746 21.8174 12.062 21.638 12.7458C21.3804 13.7224 20.632 14.2621 19.646 14.4247C18.5802 14.5994 17.5052 14.601 16.441 14.4247C15.3875 14.2499 14.6667 13.632 14.3815 12.6047C14.2557 12.1509 14.0656 11.97 13.5994 11.9792C12.5014 12.0006 11.4019 11.9991 10.3024 11.9792C9.81624 11.97 9.60155 12.1555 9.60769 12.6492C9.62302 13.773 9.61842 14.8984 9.61229 16.0223C9.61075 16.4669 9.81164 16.6846 10.261 16.6754C10.5171 16.6693 10.7716 16.6785 11.0277 16.6785C24.7771 16.6785 38.528 16.6785 52.2774 16.6785C52.558 16.6785 52.8402 16.6862 53.1208 16.6862C53.5686 16.6862 53.7695 16.9223 53.768 17.3562C53.7665 17.8161 53.7695 18.2761 53.7634 18.7361C53.7588 19.1316 53.584 19.3586 53.1546 19.3402C52.9 19.3294 52.6439 19.3417 52.3878 19.3417C38.5096 19.3417 24.633 19.3417 10.7547 19.3417C9.99311 19.3417 9.61127 19.7194 9.60922 20.4748C9.60922 25.4317 9.60922 30.3886 9.60922 35.347C9.60922 36.5874 9.59082 36.6027 8.38702 36.6058C7.36468 36.6089 6.85352 36.0881 6.85352 35.0435C6.85352 27.71 6.85352 20.3766 6.85658 13.0417C6.85658 12.5833 6.87498 12.1202 6.93939 11.6679C7.12341 10.3861 7.88863 9.6088 9.18137 9.40948C10.5017 9.20556 11.8343 9.34968 13.1623 9.32055C14.1775 9.29755 14.2113 9.28222 14.2128 8.29636C14.2143 7.7076 14.2097 7.12037 14.3247 6.54081C14.5563 5.37403 15.504 4.54609 16.6848 4.51542C17.5528 4.49243 18.4223 4.49703 19.2918 4.51236C20.5814 4.53229 21.523 5.31883 21.7607 6.58834C21.8404 7.01151 21.8665 7.45002 21.8711 7.88238C21.8895 9.31902 21.8818 9.31902 23.3571 9.31902C30.6673 9.31902 37.976 9.31902 45.2862 9.31902C46.1296 9.31902 46.9746 9.29295 47.8165 9.32668C48.436 9.35275 48.7151 9.14576 48.6645 8.49414C48.6231 7.96058 48.6461 7.42088 48.6645 6.88579C48.7151 5.53962 49.7211 4.54609 51.0752 4.51542C51.9692 4.49549 52.8648 4.49243 53.7588 4.51696C55.0684 4.55222 56.0682 5.54882 56.1234 6.85512C56.1464 7.39022 56.171 7.93145 56.125 8.46348C56.0667 9.15803 56.3703 9.35275 57.019 9.32975C58.0649 9.29142 59.1138 9.31442 60.1627 9.32362C60.4939 9.32668 60.8282 9.34508 61.1549 9.39414C62.7006 9.62719 63.4889 10.5349 63.4904 12.1034C63.495 19.4122 63.4919 26.7196 63.4935 34.0285H63.4981ZM19.2166 9.58886C19.2166 9.25769 19.2166 8.92804 19.2166 8.59687C19.2166 7.58392 18.708 7.10913 17.6908 7.1725C17.6647 7.17404 17.6402 7.17557 17.6141 7.17557C17.1617 7.16177 16.9731 7.39329 16.9762 7.83179C16.9823 8.97557 16.9762 10.1194 16.9792 11.2631C16.9792 11.5253 17.0222 11.7553 17.3427 11.8488C18.6324 12.2291 19.2166 11.8166 19.2151 10.5027C19.2151 10.1976 19.2151 9.89244 19.2151 9.58733L19.2166 9.58886ZM53.472 9.55053C53.472 9.55053 53.4751 9.55053 53.4766 9.55053C53.4766 9.19482 53.4766 8.83912 53.4766 8.48341C53.4766 7.1403 53.4536 7.14337 52.1133 7.16177C51.5122 7.17097 51.3021 7.41322 51.319 7.98818C51.3435 8.82685 51.3236 9.66552 51.3236 10.5042C51.3236 11.4517 51.8031 11.9051 52.762 11.8642C52.8126 11.8626 52.8632 11.8596 52.9138 11.8611C53.3003 11.8749 53.4705 11.674 53.4705 11.303C53.4705 10.7188 53.4705 10.1332 53.4705 9.549L53.472 9.55053Z"
            fill="white" />
        <path
            d="M18.0424 63.497C10.4745 63.4939 4.48928 57.4852 4.50001 49.9019C4.51075 42.4382 10.6325 36.3175 18.0608 36.3436C25.5335 36.3697 31.6967 42.4857 31.6507 49.9969C31.6016 57.8793 25.0321 63.6687 18.0424 63.497ZM18.1145 39.0651C11.9789 39.0467 7.19438 43.7767 7.16678 49.8866C7.13917 56.0164 11.8716 60.8016 17.9872 60.8307C24.1166 60.8598 28.8566 56.1145 28.9548 50.0153C29.0514 43.9576 23.9172 38.9393 18.1145 39.0651Z"
            fill="white" />
        <path
            d="M41.2933 31.6658C40.502 31.6658 39.7061 31.7271 38.9225 31.6535C37.3507 31.5063 36.5226 30.6814 36.3524 29.1252C36.2496 28.1869 36.242 27.2393 36.3953 26.301C36.5839 25.148 37.3292 24.3063 38.487 24.1637C40.3885 23.9291 42.31 23.9322 44.2116 24.1606C45.4016 24.3032 46.153 25.1496 46.3293 26.3562C46.4812 27.3957 46.4827 28.4429 46.3155 29.4825C46.133 30.6155 45.328 31.4066 44.1978 31.6029C43.9969 31.6382 43.7945 31.6811 43.592 31.6842C42.8268 31.6934 42.0601 31.6888 41.2948 31.6888C41.2948 31.6811 41.2948 31.675 41.2948 31.6673L41.2933 31.6658ZM41.3593 26.7043C41.0541 26.7043 40.7489 26.7043 40.4438 26.7043C38.9839 26.7043 39.0023 26.7042 39.0483 28.193C39.0651 28.7542 39.2906 28.9627 39.8334 28.9489C40.6462 28.929 41.4605 28.9458 42.2732 28.9443C43.6994 28.9443 43.6779 28.9443 43.6702 27.5046C43.6672 26.9312 43.5 26.6491 42.8836 26.695C42.3775 26.7318 41.8668 26.7027 41.3593 26.7027V26.7043Z"
            fill="white" />
        <path
            d="M41.3775 51.3339C40.4605 51.2864 39.5404 51.4014 38.6264 51.2404C37.3413 51.0135 36.5684 50.2576 36.3859 48.9789C36.2372 47.9394 36.2357 46.8907 36.4074 45.8527C36.5884 44.7625 37.3873 43.9055 38.4776 43.7828C40.4068 43.5666 42.3513 43.5605 44.2804 43.7889C45.3278 43.9131 46.1252 44.7702 46.3046 45.8189C46.4825 46.8569 46.481 47.9041 46.3368 48.9452C46.1544 50.2668 45.3799 51.0212 44.0504 51.2481C43.161 51.3999 42.2669 51.2879 41.376 51.3355L41.3775 51.3339ZM41.3499 48.6615C41.6551 48.6615 41.9602 48.6615 42.2654 48.6615C43.7314 48.6615 43.713 48.6615 43.6701 47.182C43.6547 46.6285 43.4462 46.4046 42.8941 46.4154C41.8529 46.4353 40.8101 46.42 39.7673 46.4246C39.5404 46.4246 39.2505 46.4 39.1616 46.6469C38.9607 47.2096 38.973 47.8183 39.1263 48.3718C39.2597 48.8547 39.7765 48.6263 40.1292 48.6539C40.5341 48.6861 40.942 48.6615 41.3484 48.6615H41.3499Z"
            fill="white" />
        <path
            d="M16.7912 31.7087C15.9002 31.6642 15.0062 31.767 14.1183 31.6244C12.7182 31.3975 11.887 30.476 11.8625 29.0808C11.8487 28.2651 11.8472 27.4494 11.8625 26.6337C11.887 25.3397 12.6553 24.3339 13.9251 24.1698C15.8496 23.9199 17.7956 23.9245 19.7202 24.1698C20.8412 24.3124 21.5435 25.0668 21.7582 26.1784C21.9729 27.2869 21.9637 28.4138 21.7674 29.5254C21.565 30.6738 20.7675 31.4113 19.6159 31.6121C18.6774 31.7762 17.7327 31.6642 16.7912 31.7102V31.7087ZM16.8771 26.7043C16.5458 26.7043 16.2161 26.7043 15.8849 26.7043C14.4695 26.7043 14.4909 26.7043 14.5124 28.1424C14.5216 28.7297 14.7347 28.9719 15.3251 28.952C16.1118 28.9259 16.9016 28.9458 17.6898 28.9474C19.3353 28.9474 19.323 28.9474 19.2248 27.293C19.2003 26.8745 19.0546 26.692 18.6314 26.7027C18.0471 26.7181 17.4613 26.7073 16.8771 26.7043Z"
            fill="white" />
        <path
            d="M29.0146 31.6888C28.1237 31.6642 27.2296 31.7685 26.3417 31.6182C25.141 31.4143 24.3451 30.6799 24.1427 29.4932C23.9556 28.4061 23.9556 27.3068 24.1473 26.2198C24.3451 25.099 25.0965 24.2971 26.2267 24.1606C28.1282 23.9307 30.0467 23.9245 31.9467 24.1606C33.2563 24.3232 34.0307 25.3259 34.0522 26.6644C34.066 27.4801 34.0675 28.2957 34.0522 29.1114C34.0246 30.4622 33.1919 31.3959 31.8409 31.6136C31.6645 31.6428 31.4882 31.6826 31.3103 31.6842C30.5451 31.6918 29.7798 31.6872 29.0146 31.6872V31.6888ZM28.9379 28.9397C28.9379 28.9397 28.9379 28.9443 28.9379 28.9458C29.2937 28.9458 29.6495 28.9458 30.0068 28.9458C31.4345 28.9458 31.4145 28.9458 31.4038 27.5061C31.3992 26.9312 31.229 26.6659 30.6141 26.6951C29.8013 26.7334 28.987 26.6951 28.1727 26.7058C26.5503 26.7288 26.7036 26.4283 26.6975 28.2344C26.6975 28.285 26.7021 28.3356 26.7006 28.3862C26.6852 28.7741 26.8892 28.9412 27.2603 28.9397C27.82 28.9397 28.3797 28.9397 28.9395 28.9397H28.9379Z"
            fill="white" />
        <path
            d="M53.6138 24.0317C54.5293 24.0793 55.4494 23.9643 56.3619 24.1253C57.6454 24.3522 58.3984 25.0897 58.5962 26.3898C58.7541 27.4278 58.7572 28.4766 58.5732 29.5115C58.3677 30.6629 57.5856 31.4709 56.4309 31.5936C54.5524 31.7929 52.6615 31.8037 50.7845 31.5875C49.5225 31.4418 48.699 30.4391 48.6683 29.1696C48.6484 28.3294 48.6514 27.4861 48.6668 26.6459C48.6898 25.315 49.4826 24.392 50.7891 24.1406C51.7261 23.9597 52.6723 24.0762 53.6138 24.0317ZM53.7273 26.7026C53.3961 26.7026 53.0664 26.7026 52.7351 26.7026C51.2615 26.7026 51.2799 26.7026 51.3167 28.1699C51.3305 28.7142 51.5191 28.9626 52.0803 28.9473C52.8931 28.9258 53.7074 28.9427 54.5217 28.9442C56.1058 28.9442 56.092 28.9442 56.0276 27.3374C56.0092 26.8912 55.8712 26.6811 55.4034 26.698C54.8452 26.7195 54.284 26.7026 53.7258 26.7011L53.7273 26.7026Z"
            fill="white" />
        <path
            d="M53.6698 43.6584C54.5853 43.7014 55.5054 43.5941 56.4178 43.755C57.5695 43.9574 58.3654 44.6934 58.5693 45.8402C58.7626 46.9257 58.761 48.0251 58.5755 49.1137C58.3776 50.2743 57.6216 51.0762 56.4485 51.2126C54.573 51.4319 52.6791 51.438 50.8037 51.2126C49.4818 51.0532 48.689 50.0597 48.666 48.7365C48.6506 47.8702 48.646 47.0024 48.6706 46.1361C48.7043 44.9525 49.5309 44.008 50.6917 43.7796C51.6778 43.5849 52.6761 43.7029 53.6683 43.6615L53.6698 43.6584ZM53.6959 48.6629C53.975 48.6629 54.2556 48.6675 54.5347 48.6629C56.1617 48.6292 56.013 48.9864 56.0237 47.0683C56.0268 46.616 55.8443 46.4183 55.3919 46.4229C54.2479 46.432 53.1039 46.4244 51.9584 46.429C51.7544 46.429 51.5014 46.4321 51.4278 46.6482C51.2346 47.214 51.2407 47.8212 51.3941 48.3746C51.5275 48.8576 52.0443 48.6292 52.3985 48.6552C52.8279 48.6874 53.2619 48.6629 53.6943 48.6629H53.6959Z"
            fill="white" />
        <path
            d="M41.362 41.4171C40.4955 41.4171 39.6276 41.437 38.7612 41.4109C37.5788 41.3757 36.6188 40.5508 36.4164 39.3809C36.2247 38.2693 36.2263 37.144 36.4103 36.0308C36.6112 34.8181 37.5712 33.9748 38.7934 33.9564C40.5017 33.9319 42.2115 33.9319 43.9199 33.9564C45.1436 33.9733 46.1051 34.815 46.3075 36.0247C46.49 37.1118 46.4885 38.2111 46.3137 39.2997C46.1128 40.5554 45.1543 41.3849 43.8877 41.4155C43.0458 41.4355 42.2039 41.4186 41.3635 41.4186L41.362 41.4171ZM41.4095 36.6104C40.8759 36.6104 40.3422 36.6273 39.8085 36.6058C39.2457 36.5828 39.0188 36.8419 39.0556 37.3862C39.0709 37.6131 39.0663 37.8431 39.0587 38.0716C39.0402 38.553 39.2657 38.763 39.7457 38.7584C40.813 38.7477 41.8803 38.7446 42.9461 38.76C43.4721 38.7676 43.6868 38.5269 43.6607 38.0194C43.6484 37.791 43.6484 37.5625 43.6607 37.3341C43.6883 36.8174 43.4506 36.5905 42.9338 36.6073C42.4262 36.6242 41.9171 36.6104 41.4095 36.6104Z"
            fill="white" />
        <path
            d="M53.6228 41.4154C52.7548 41.4154 51.8853 41.4384 51.0174 41.4092C49.7108 41.3663 48.7125 40.3651 48.6726 39.0542C48.645 38.1358 48.6435 37.2143 48.6726 36.2959C48.7141 34.9896 49.717 33.9792 51.0296 33.9562C52.741 33.9256 54.4524 33.9302 56.1638 33.9532C57.4029 33.97 58.3414 34.7734 58.5668 36.0123C58.7646 37.0993 58.7631 38.2017 58.5776 39.2903C58.3537 40.6028 57.4075 41.3924 56.0733 41.4169C55.256 41.4322 54.4386 41.42 53.6213 41.42C53.6213 41.42 53.6213 41.4169 53.6213 41.4154H53.6228ZM53.6933 36.6102C53.6933 36.6102 53.6933 36.6118 53.6933 36.6133C53.1091 36.6133 52.5233 36.6133 51.939 36.6133C51.5326 36.6133 51.3287 36.8096 51.3302 37.2189C51.3302 37.4474 51.3425 37.6774 51.3225 37.9043C51.2704 38.5176 51.5173 38.789 52.1552 38.7644C52.9925 38.7322 53.8329 38.7568 54.6717 38.7568C55.5949 38.7568 56.0442 38.2988 56.0197 37.383C56.0197 37.3324 56.0151 37.2818 56.0197 37.2312C56.0534 36.762 55.805 36.5995 55.371 36.6072C54.8113 36.6179 54.2531 36.6102 53.6933 36.6102Z"
            fill="white" />
        <path
            d="M19.334 47.7523C19.334 48.8485 19.3493 49.9463 19.3294 51.0426C19.3125 51.9656 18.8724 52.4394 17.9784 52.4501C16.1673 52.4731 14.3547 52.4501 12.5436 52.4639C12.0652 52.467 11.8474 52.2983 11.8551 51.7985C11.8873 49.5201 11.5622 49.8252 13.7582 49.7976C14.4467 49.7899 15.1368 49.7715 15.8238 49.8022C16.4495 49.8313 16.6918 49.586 16.6795 48.9543C16.6519 47.5008 16.6948 46.0458 16.6626 44.5923C16.6473 43.8962 16.9172 43.6463 17.6073 43.654C19.6928 43.6754 19.3002 43.6018 19.3325 45.3773C19.3478 46.1685 19.3355 46.9596 19.3355 47.7492H19.3325L19.334 47.7523Z"
            fill="white" />
    </g>
    <defs>
        <clipPath id="clip0_2013_389">
            <rect width="59" height="59" fill="white" transform="translate(4.5 4.5)" />
        </clipPath>
    </defs>
</svg>