<svg width="68" height="68" viewBox="0 0 68 68" fill="none" xmlns="http://www.w3.org/2000/svg">
    <g clip-path="url(#clip0_2013_389)">
        <path
            d="M22.1565 26.6162C18.5521 26.6162 14.9494 26.6225 11.3451 26.6162C7.48973 26.6067 4.57691 23.8836 4.49955 20.0529C4.44903 17.4891 5.671 15.5138 7.886 14.2091C8.35963 13.9298 8.53014 13.6269 8.53961 13.0889C8.5996 9.57217 10.8004 6.41044 14.0369 5.13092C17.3649 3.81511 21.0545 4.5803 23.5331 7.19772C24.1441 7.843 24.6398 8.06231 25.5429 7.82249C27.5069 7.30185 29.2956 7.88718 30.8412 9.14777C31.3054 9.52484 31.749 9.6905 32.3332 9.68892C37.0158 9.67315 41.6968 9.67788 46.3794 9.68419C47.3314 9.68419 48.2661 9.77885 49.1202 10.2774C50.6263 11.1578 51.291 12.5178 51.351 14.2012C51.392 15.3561 51.3778 16.5141 51.3541 17.6706C51.3431 18.1928 51.4946 18.5383 51.9667 18.8302C53.0623 19.5054 53.4302 20.5972 53.3876 21.8136C53.3607 22.6056 53.5739 23.1941 54.1612 23.7589C55.0642 24.6298 55.4984 25.7626 55.5047 27.0264C55.5173 29.2336 55.5015 31.4424 55.5157 33.6496C55.5205 34.3154 55.3784 34.8518 54.6458 35.0427C54.2638 35.1421 54.1943 35.434 54.1943 35.7748C54.1927 36.4847 54.2148 37.1963 54.1675 37.9031C54.1059 38.8119 53.7207 39.1795 52.8082 39.1905C51.1252 39.2126 49.4407 39.211 47.7577 39.1905C46.8641 39.181 46.4631 38.7677 46.4363 37.8778C46.4157 37.1947 46.4157 36.51 46.4331 35.8284C46.4442 35.4072 46.3242 35.1279 45.879 35.0159C45.3564 34.8849 45.0533 34.4952 45.0517 33.9841C45.0375 31.4897 44.8922 28.9906 45.1243 26.501C45.2411 25.2451 45.8521 24.2007 46.7836 23.3677C47.1151 23.071 47.2525 22.7555 47.2193 22.3358C47.0978 20.7534 47.4956 19.4155 48.9797 18.5809C49.2796 18.4121 49.2623 18.0997 49.2623 17.8094C49.2623 16.5472 49.2844 15.2851 49.2544 14.0245C49.2228 12.6503 48.3261 11.7794 46.9367 11.7762C42.4909 11.7652 38.0467 11.7683 33.6009 11.781C33.3357 11.781 32.8415 11.598 32.881 12.1012C32.9142 12.5241 32.8321 13.1062 33.4478 13.2798C33.6988 13.3508 33.964 13.3776 34.2245 13.417C37.4057 13.9061 40.0391 16.8296 39.8197 20.2959C39.586 23.9893 36.7553 26.6004 33.1273 26.6146C29.4709 26.6288 25.8145 26.6177 22.158 26.6177L22.1565 26.6162ZM22.5069 21.0279C22.5069 21.9225 22.5417 22.817 22.4959 23.71C22.4612 24.3837 22.6617 24.6724 23.3784 24.6267C24.2167 24.573 25.0614 24.6172 25.9029 24.614C26.7822 24.6109 27.0238 24.289 26.8185 23.456C26.7191 23.0537 26.3465 22.989 26.0781 22.8028C24.8703 21.9667 24.3257 20.5436 24.7251 19.2136C25.1466 17.8141 26.3907 16.888 27.8479 16.8912C29.2767 16.8943 30.5081 17.7983 30.9328 19.1536C31.367 20.542 30.8507 21.9477 29.5909 22.7981C29.4377 22.9007 29.2704 22.9811 29.1188 23.0837C28.6404 23.4071 28.8204 23.8962 28.8725 24.3096C28.9215 24.6992 29.3114 24.6077 29.5861 24.6109C30.5334 24.6204 31.4806 24.6267 32.4279 24.6109C33.1904 24.5983 33.9577 24.573 34.6871 24.3238C36.8642 23.5807 38.1635 21.2804 37.6868 19.0463C37.1863 16.7066 35.1118 15.2062 32.6742 15.4192C31.2091 15.547 30.9454 15.3071 30.9596 13.8604C30.9896 10.776 27.7658 8.76439 24.9998 10.1401C23.8252 10.7239 23.6231 10.6655 22.8811 9.58006C21.6465 7.77674 19.9367 6.70705 17.7564 6.58715C13.579 6.3568 10.5257 9.40967 10.6346 13.6143C10.6609 14.6429 10.2126 15.3603 9.28952 15.7663C7.39185 16.5993 6.2583 18.6866 6.58984 20.7376C6.91348 22.7445 8.5475 24.2701 10.592 24.521C11.4587 24.6267 12.3271 24.5715 13.1907 24.6251C13.8821 24.6677 14.1695 24.4105 14.0953 23.7211C14.0669 23.4607 14.07 23.1941 14.0953 22.9338C14.1521 22.3327 13.9769 21.9304 13.4054 21.5864C12.1534 20.8339 11.6529 19.3903 12.0492 18.0287C12.4502 16.6466 13.7274 15.6732 15.1562 15.659C16.4887 15.6464 17.8338 16.6403 18.2553 17.9498C18.6863 19.2893 18.2364 20.7629 16.9702 21.5344C16.2771 21.9572 16.1224 22.4494 16.1856 23.1484C16.2092 23.4087 16.2061 23.6753 16.1871 23.9372C16.1493 24.4563 16.3908 24.6346 16.8913 24.6219C17.8117 24.5999 18.7337 24.5872 19.6541 24.6267C20.3061 24.6551 20.5351 24.4153 20.5224 23.7605C20.4893 22.0519 20.4877 20.3416 20.5224 18.633C20.5366 17.9435 20.3661 17.5159 19.7204 17.1136C17.6412 15.8152 17.848 12.7008 20.0314 11.5885C21.5344 10.8217 23.3895 11.3376 24.2531 12.7607C25.1829 14.2958 24.774 16.2001 23.2111 17.1736C22.6506 17.5222 22.4754 17.8977 22.5022 18.5083C22.5401 19.3477 22.5117 20.1902 22.5117 21.0327L22.5069 21.0279ZM47.1262 29.6122C47.1262 29.6122 47.1246 29.6122 47.123 29.6122C47.123 30.5305 47.1293 31.4487 47.1199 32.3653C47.1151 32.7818 47.273 33.0011 47.7166 32.9996C49.4486 32.9933 51.1805 32.9964 52.9124 32.998C53.2313 32.998 53.506 32.9223 53.5012 32.5326C53.4712 30.5683 53.6828 28.593 53.397 26.6414C53.1523 24.969 51.7188 23.9561 49.9853 24.0697C48.416 24.1723 47.1909 25.4534 47.1309 27.0926C47.1009 27.9304 47.1262 28.7713 47.1262 29.6107V29.6122ZM50.339 37.1095C52.1893 37.1095 52.1719 37.1095 52.104 35.7511C52.0804 35.2825 51.8988 35.0869 51.4394 35.0963C50.811 35.1074 50.1811 35.0932 49.5512 35.0963C48.5565 35.1011 48.5313 35.1279 48.5313 36.1061C48.5313 37.0843 48.5502 37.1016 49.5528 37.1079C49.8148 37.1095 50.0769 37.1079 50.339 37.1079V37.1095ZM21.5123 13.3255C20.8256 13.3224 20.2951 13.8383 20.3077 14.5009C20.3188 15.1304 20.8287 15.6243 21.4792 15.6353C22.1643 15.6479 22.6743 15.1415 22.6774 14.4473C22.6806 13.8131 22.177 13.3287 21.5107 13.3255H21.5123ZM16.3403 18.9154C16.3403 18.2685 15.854 17.7763 15.2036 17.7668C14.5121 17.7573 13.9832 18.2559 13.9863 18.9185C13.9879 19.5606 14.4758 20.0545 15.1231 20.0671C15.824 20.0813 16.3403 19.5938 16.3419 18.9154H16.3403ZM29.0257 20.0671C29.0051 19.436 28.391 18.8649 27.7737 18.9027C27.1911 18.939 26.637 19.5464 26.6528 20.127C26.6701 20.7439 27.2969 21.3198 27.9174 21.2851C28.5189 21.252 29.0462 20.6729 29.0272 20.0671H29.0257ZM50.3216 21.984C50.6847 21.872 51.3525 22.3847 51.3068 21.4665C51.2752 20.8212 50.8142 20.3037 50.2537 20.3258C49.7012 20.3479 49.3286 20.8275 49.3175 21.4744C49.3017 22.3784 49.9601 21.8657 50.3232 21.984H50.3216Z"
            fill="white" />
        <path
            d="M45.7877 63.4954C42.3681 63.4954 38.9485 63.4812 35.5289 63.4985C32.2908 63.5143 29.8927 62.2032 28.587 59.163C28.3755 58.6707 28.0408 58.6045 27.5893 58.6061C25.7737 58.6155 23.9597 58.6171 22.1441 58.6061C19.3623 58.5903 17.542 56.7728 17.5278 54.007C17.5215 52.8506 17.5152 51.6941 17.531 50.5377C17.5373 50.1069 17.4268 49.8056 17.0289 49.5642C15.9506 48.9095 15.4059 47.9297 15.4896 46.6596C15.5433 45.8313 15.3633 45.1892 14.7081 44.5723C13.7388 43.6588 13.3078 42.414 13.2888 41.0793C13.2588 38.951 13.2825 36.8211 13.2793 34.6911C13.2793 34.0001 13.4625 33.4369 14.2234 33.2523C14.6071 33.1592 14.6939 32.8878 14.6908 32.5392C14.6844 31.8292 14.6955 31.1192 14.6923 30.4092C14.6908 29.6583 15.046 29.1818 15.8006 29.1408C17.6383 29.0382 19.4807 29.0524 21.32 29.1345C21.9941 29.1644 22.3636 29.5668 22.362 30.272C22.362 31.0072 22.3762 31.744 22.3841 32.4792C22.3888 32.872 22.4646 33.1781 22.943 33.2807C23.5461 33.41 23.775 33.8581 23.775 34.4545C23.7687 36.7942 23.805 39.134 23.7545 41.4721C23.7276 42.7564 23.1719 43.8671 22.2294 44.7475C21.8331 45.1166 21.6389 45.5111 21.6626 46.057C21.7305 47.5637 21.3737 48.8795 19.9259 49.6699C19.6244 49.834 19.6276 50.1432 19.6276 50.4351C19.6276 51.7493 19.607 53.0636 19.637 54.3778C19.6654 55.6147 20.4896 56.4714 21.721 56.4951C23.6408 56.5329 25.5606 56.5014 27.4819 56.514C27.9808 56.5172 28.1766 56.2789 28.2476 55.8167C28.5855 53.6489 29.7269 52.027 31.6514 50.9747C32.0493 50.757 32.2166 50.4935 32.2087 50.0407C32.1203 45.377 36.1777 41.0383 41.4256 41.3491C43.8253 41.4911 45.8445 42.4645 47.4233 44.2757C47.8622 44.779 48.23 44.9021 48.8994 44.7001C52.188 43.7046 55.8697 45.9276 56.5675 49.3197C56.7001 49.9634 56.9543 50.1558 57.5937 50.2095C60.7923 50.4824 63.4304 53.3996 63.4998 56.6686C63.5709 60.0055 60.9596 63.0158 57.6995 63.3786C56.9922 63.4575 56.2865 63.4922 55.576 63.4906C52.3143 63.4859 49.0526 63.4891 45.7908 63.4891L45.7877 63.4954ZM46.8218 57.8093C46.8218 58.7812 46.8265 59.7546 46.8186 60.7265C46.8155 61.1162 46.896 61.4018 47.3712 61.3986C48.4495 61.3923 49.5278 61.3954 50.6061 61.397C50.9613 61.397 51.1034 61.2298 51.146 60.8732C51.2202 60.2595 50.9534 59.9376 50.4371 59.6284C49.0684 58.808 48.5679 57.1751 49.1568 55.7094C49.7172 54.3163 51.2265 53.4611 52.6506 53.7309C54.2941 54.0433 55.3439 55.2929 55.3582 56.9258C55.3676 58.1785 54.8198 59.1283 53.7368 59.6947C53.1242 60.0149 53.0689 60.4677 53.1653 60.9994C53.2789 61.6353 53.8299 61.3765 54.2009 61.3907C55.0677 61.427 55.936 61.3844 56.8043 61.4049C57.5353 61.4238 58.2078 61.2361 58.8583 60.93C60.8033 60.0165 61.869 57.6768 61.269 55.64C60.6091 53.398 58.522 51.9339 56.4065 52.2258C54.9303 52.4309 54.6209 52.1595 54.6303 50.667C54.6493 47.6189 51.4776 45.6057 48.7337 46.9247C47.417 47.5574 47.2828 47.5195 46.4444 46.2889C44.3289 43.1792 39.9826 42.4251 36.9687 44.6844C34.9353 46.2084 34.0606 48.2768 34.3069 50.809C34.4001 51.7683 34.2138 52.0917 33.3344 52.4467C33.1149 52.535 32.8939 52.6202 32.6824 52.7259C30.9094 53.6221 29.9337 55.5942 30.2605 57.6121C30.5589 59.4596 32.1851 61.1399 34.0606 61.3402C35.3094 61.4743 36.5819 61.386 37.8433 61.3923C38.0628 61.3923 38.3028 61.3481 38.3438 61.1004C38.4543 60.4236 38.4291 59.7373 38.3643 59.0589C38.3217 58.6171 37.867 58.5556 37.5844 58.3426C36.4067 57.4591 35.9488 56.0644 36.4082 54.7028C36.8503 53.3917 38.1796 52.4483 39.5437 52.4782C40.9125 52.5082 42.166 53.4864 42.5733 54.8448C42.9806 56.2016 42.4849 57.6515 41.2314 58.4041C40.6441 58.7559 40.4183 59.1551 40.4925 59.802C40.5288 60.1128 40.513 60.433 40.4972 60.747C40.4736 61.2187 40.6851 61.4112 41.154 61.4033C42.1013 61.3891 43.0485 61.367 43.9942 61.4128C44.6715 61.4444 44.8452 61.1619 44.8341 60.5324C44.8025 58.8254 44.7931 57.1151 44.8388 55.408C44.8562 54.728 44.651 54.3336 44.0574 53.955C42.1692 52.7512 42.0555 50.1274 43.7748 48.7832C45.303 47.5889 47.3475 47.895 48.4953 49.4869C49.5199 50.91 49.122 52.9894 47.5591 53.9692C46.9891 54.3273 46.7681 54.7091 46.8091 55.3639C46.8612 56.1748 46.8218 56.9921 46.8234 57.8077L46.8218 57.8093ZM15.3838 38.6449H15.387C15.387 39.4842 15.3696 40.3251 15.3902 41.1645C15.4344 42.8432 16.6547 44.118 18.2903 44.2174C20.0459 44.3246 21.4289 43.296 21.661 41.6047C21.9247 39.6751 21.7273 37.7267 21.7652 35.7877C21.7731 35.3491 21.4826 35.2875 21.1321 35.2875C19.4507 35.2907 17.7709 35.3033 16.0911 35.2796C15.5196 35.2717 15.3665 35.5336 15.3791 36.0464C15.3996 36.9126 15.3854 37.7787 15.3854 38.6449H15.3838ZM18.5824 31.1776C18.2414 31.1776 17.8988 31.2028 17.5594 31.1729C16.811 31.1034 16.7668 31.5673 16.7905 32.1195C16.8126 32.637 16.68 33.227 17.5246 33.1939C18.1262 33.1702 18.734 33.1497 19.3323 33.2018C20.1075 33.2681 20.3933 33.0109 20.3885 32.1952C20.3838 31.4158 20.1801 31.0593 19.3671 31.1729C19.1097 31.2091 18.8429 31.1792 18.5808 31.1792L18.5824 31.1776ZM46.9986 51.2839C46.9797 50.6023 46.446 50.0975 45.7687 50.1196C45.0962 50.1416 44.5894 50.6954 44.6273 51.3644C44.6636 51.9907 45.1846 52.4435 45.854 52.4293C46.5092 52.4151 47.016 51.9071 46.9986 51.2839ZM52.1959 55.7772C51.4791 55.7646 50.9913 56.2348 50.9929 56.9353C50.9929 57.6074 51.4507 58.0728 52.1233 58.0854C52.8037 58.098 53.35 57.5805 53.3452 56.9258C53.3421 56.2947 52.8353 55.7898 52.1959 55.7772ZM39.4821 56.9258C40.1089 56.9305 40.5999 56.4225 40.6062 55.763C40.6125 55.0988 40.1483 54.5829 39.5231 54.5577C38.8522 54.5308 38.3075 55.0436 38.2949 55.7141C38.2838 56.3736 38.8206 56.9226 39.4821 56.9274V56.9258ZM18.6961 46.3078C18.2556 46.3993 17.5404 46.0443 17.5941 46.9705C17.6273 47.5447 17.9178 47.9155 18.5161 47.9534C19.0955 47.9881 19.5407 47.4643 19.5739 46.8143C19.6149 46.0365 19.0576 46.3693 18.6961 46.3094V46.3078Z"
            fill="white" />
    </g>
    <defs>
        <clipPath id="clip0_2013_389">
            <rect width="59" height="59" fill="white" transform="translate(4.5 4.5)" />
        </clipPath>
    </defs>
</svg>