<svg width="68" height="68" viewBox="0 0 68 68" fill="#FE5000" xmlns="http://www.w3.org/2000/svg">
    <g clip-path="url(#clip0_2013_389)">
        <path
            d="M6.99997 47.4173C6.99997 42.6656 6.99852 37.9139 6.99997 33.1622C6.99997 31.5323 7.65071 30.8208 9.20003 30.8162C13.5465 30.804 17.893 30.8055 22.2395 30.8162C23.6033 30.8193 24.1917 31.3636 24.4207 32.8264C24.4801 33.2067 24.5744 33.3309 24.9236 33.1499C28.8716 31.0999 32.6383 28.7831 35.4312 25.0602C37.1109 22.8216 38.0631 20.2686 38.3197 17.4167C38.5226 15.1719 40.4632 13.7429 42.7937 14.0848C46.1445 14.577 48.7257 17.6789 48.817 21.2561C48.8967 24.381 48.375 27.3586 47.0025 30.1401C46.7286 30.6951 46.8315 30.8162 47.3967 30.8132C50.1736 30.7948 52.9505 30.7733 55.7274 30.8147C59.2144 30.8684 61.6754 34.2309 60.8347 37.733C60.6724 38.4107 60.4014 39.0378 59.9869 39.5806C59.7376 39.9072 59.726 40.1602 59.9463 40.5297C61.5753 43.2682 61.2449 45.8273 58.984 48.0107C58.6869 48.2974 58.6245 48.5121 58.7651 48.9215C59.6594 51.5343 59.1811 53.5337 57.2144 55.4028C56.91 55.6926 56.8607 55.9057 57.0129 56.309C58.4564 60.13 56.0027 63.9617 52.1055 63.9739C47.5416 63.9877 42.9777 63.9693 38.4139 63.9877C33.5601 64.0077 28.844 63.2518 24.3396 61.2661C23.9584 61.0975 23.7453 61.1557 23.5033 61.5237C22.3859 63.2211 20.8569 64.0261 18.8757 63.9969C15.593 63.9479 12.3074 63.9862 9.02321 63.9816C7.61303 63.9801 7.00287 63.33 7.00142 61.8243C6.99707 57.0219 6.99997 52.2181 6.99997 47.4158V47.4173ZM44.8314 60.3446C47.2213 60.3446 49.6127 60.363 52.0026 60.3369C53.2056 60.3247 53.9259 59.6332 53.9679 58.5537C54.0114 57.462 53.3722 56.7736 52.162 56.6064C51.2577 56.4822 50.5475 55.7324 50.5113 54.8646C50.4721 53.9385 51.1171 53.1212 52.0809 52.9802C52.6751 52.8928 53.2838 52.9173 53.8867 52.8989C55.036 52.8636 55.7027 52.2089 55.7114 51.1019C55.7201 50.0362 54.9926 49.2864 53.8998 49.2527C53.3447 49.2358 52.7867 49.2711 52.2345 49.2266C51.4214 49.1622 50.8011 48.5872 50.6229 47.8053C50.4562 47.0739 50.804 46.2597 51.4635 45.8488C51.8722 45.5942 52.3258 45.536 52.7896 45.5344C53.7317 45.5329 54.6737 45.5421 55.6143 45.5283C56.7593 45.5114 57.4361 44.8429 57.4506 43.7405C57.4651 42.6396 56.7288 41.899 55.5824 41.8836C54.4954 41.8698 53.407 41.9158 52.3229 41.8622C50.9881 41.7962 50.1924 40.4423 50.7548 39.2586C51.1185 38.492 51.7562 38.1822 52.536 38.173C53.6461 38.1608 54.7578 38.1868 55.8679 38.1531C56.8578 38.1224 57.4651 37.4248 57.4767 36.3791C57.4883 35.338 56.8941 34.6204 55.9274 34.5299C55.639 34.5038 55.3476 34.513 55.0592 34.513C50.1823 34.513 45.3039 34.5161 40.427 34.5084C39.1965 34.5069 38.3573 33.7234 38.3718 32.6378C38.3863 31.5783 39.1921 30.8408 40.3965 30.8055C40.927 30.7902 41.4603 30.7794 41.9893 30.8055C42.4792 30.83 42.7806 30.623 43.0459 30.1799C44.6981 27.42 45.514 24.4408 45.2995 21.1549C45.1894 19.4713 43.9734 17.9994 42.3908 17.7203C41.9748 17.6467 41.7618 17.751 41.7081 18.234C41.1023 23.6818 38.4095 27.834 34.4819 31.218C31.6499 33.6575 28.4455 35.4361 25.1744 37.0905C24.6468 37.3573 24.4251 37.6778 24.4265 38.3126C24.4468 44.3661 24.4454 50.4211 24.4265 56.4746C24.4251 57.1017 24.6193 57.4451 25.1715 57.692C28.5672 59.2054 32.1035 60.0073 35.7776 60.2311C38.7936 60.4136 41.811 60.3354 44.8271 60.34L44.8314 60.3446ZM10.4305 47.379C10.4305 51.4147 10.4421 55.4518 10.4189 59.4875C10.4146 60.1422 10.5783 60.4228 11.2334 60.3738C11.9059 60.3232 12.5856 60.3354 13.261 60.3707C13.8031 60.3983 13.9799 60.1683 13.9712 59.6086C13.948 58.0769 13.9654 56.5436 13.9639 55.0103C13.9639 54.3019 14.1784 53.7054 14.7625 53.3083C15.9886 52.4742 17.393 53.3589 17.4568 55.0532C17.5104 56.4822 17.4713 57.9143 17.4756 59.3449C17.4785 60.3553 17.4858 60.3599 18.451 60.363C18.5959 60.363 18.7409 60.3645 18.8858 60.363C20.2583 60.337 20.9235 59.6362 20.9235 58.1781C20.9279 50.5913 20.9177 43.0045 20.9395 35.4177C20.9409 34.6894 20.696 34.5115 20.0539 34.5176C17.1568 34.5452 14.2581 34.5529 11.3624 34.513C10.6349 34.5023 10.4088 34.7185 10.416 35.5036C10.4508 39.4625 10.4319 43.4231 10.4319 47.3821L10.4305 47.379Z" />
        <path
            d="M36.6019 4.9999C37.27 4.97996 37.7686 5.30196 38.1019 5.89228C38.6715 6.90119 39.231 7.91624 39.7687 8.94509C40.3063 9.97393 40.0701 10.9874 39.1976 11.5333C38.3367 12.073 37.3671 11.7878 36.7845 10.7713C36.1961 9.74547 35.6236 8.70589 35.1004 7.64178C34.47 6.36607 35.2671 4.9999 36.6019 4.9999Z" />
        <path
            d="M50.553 5.00318C51.8096 5.00931 52.6632 6.32949 52.1024 7.51933C51.5429 8.70457 50.8994 9.85148 50.2183 10.9647C49.6791 11.8463 48.7269 12.0303 47.9341 11.5289C47.1196 11.0137 46.8355 10.0094 47.3138 9.06797C47.8733 7.96705 48.4805 6.89221 49.0936 5.82196C49.4153 5.26077 49.911 4.96791 50.5516 5.00164L50.553 5.00318Z" />
        <path
            d="M31.4031 21.3542C30.8002 21.3542 30.1958 21.3772 29.5929 21.3481C28.6088 21.3005 27.8842 20.5032 27.8987 19.525C27.9117 18.5943 28.6335 17.7831 29.5712 17.7509C30.777 17.7095 31.9843 17.7111 33.1901 17.7509C34.0988 17.7816 34.851 18.6387 34.8539 19.5434C34.8568 20.517 34.1191 21.3082 33.1394 21.3511C32.5611 21.3757 31.9814 21.3557 31.4016 21.3557L31.4031 21.3542Z" />
        <path
            d="M55.7858 21.3557C55.2075 21.3557 54.6278 21.3711 54.0495 21.3527C53.0901 21.3205 52.29 20.5094 52.29 19.5909C52.29 18.605 53.064 17.7663 54.0539 17.7433C55.1872 17.7172 56.3206 17.7157 57.4539 17.7433C58.496 17.7678 59.241 18.5498 59.2381 19.5556C59.2352 20.5676 58.4946 21.322 57.451 21.3542C56.8974 21.3711 56.3423 21.3573 55.7872 21.3573L55.7858 21.3557Z" />
    </g>
    <defs>
        <clipPath id="clip0_2013_389">
            <rect width="54" height="59" transform="translate(7 5)" />
        </clipPath>
    </defs>
</svg>