<svg width="186" height="186" viewBox="0 0 186 186" fill="none" xmlns="http://www.w3.org/2000/svg">
    <g filter="url(#filter0_f_2034_4597)">
        <path
            d="M61.8031 127.155L92.3951 97.5868C97.8564 92.2108 101.824 87.8162 104.299 84.4028C106.859 80.9042 108.139 77.5335 108.139 74.2908C108.139 69.7682 106.603 66.0988 103.531 63.2828C100.459 60.4668 96.3631 59.0588 91.2431 59.0588C86.1231 59.0588 82.0271 60.5095 78.9551 63.4108C75.8831 66.2268 74.3471 70.0242 74.3471 74.8028H61.8031C61.8031 70.7922 62.4858 67.1228 63.8511 63.7948C65.3018 60.4668 67.3071 57.6082 69.8671 55.2188C72.4271 52.7442 75.4991 50.8668 79.0831 49.5868C82.7524 48.2215 86.8058 47.5388 91.2431 47.5388C95.6804 47.5388 99.6911 48.2215 103.275 49.5868C106.944 50.8668 110.059 52.7015 112.619 55.0908C115.179 57.4802 117.142 60.3388 118.507 63.6668C119.958 66.9095 120.683 70.4508 120.683 74.2908C120.683 79.0695 119.019 83.8908 115.691 88.7548C112.363 93.6188 107.542 98.9948 101.227 104.883L77.6751 127.155H120.683V138.163H61.8031V127.155Z"
            fill="#5A04D8" />
    </g>
    <path
        d="M61.8031 127.155L92.3951 97.5868C97.8564 92.2108 101.824 87.8162 104.299 84.4028C106.859 80.9042 108.139 77.5335 108.139 74.2908C108.139 69.7682 106.603 66.0988 103.531 63.2828C100.459 60.4668 96.3631 59.0588 91.2431 59.0588C86.1231 59.0588 82.0271 60.5095 78.9551 63.4108C75.8831 66.2268 74.3471 70.0242 74.3471 74.8028H61.8031C61.8031 70.7922 62.4858 67.1228 63.8511 63.7948C65.3018 60.4668 67.3071 57.6082 69.8671 55.2188C72.4271 52.7442 75.4991 50.8668 79.0831 49.5868C82.7524 48.2215 86.8058 47.5388 91.2431 47.5388C95.6804 47.5388 99.6911 48.2215 103.275 49.5868C106.944 50.8668 110.059 52.7015 112.619 55.0908C115.179 57.4802 117.142 60.3388 118.507 63.6668C119.958 66.9095 120.683 70.4508 120.683 74.2908C120.683 79.0695 119.019 83.8908 115.691 88.7548C112.363 93.6188 107.542 98.9948 101.227 104.883L77.6751 127.155H120.683V138.163H61.8031V127.155Z"
        fill="white" fill-opacity="0.6" />
    <mask id="path-3-outside-1_2034_4597" maskUnits="userSpaceOnUse" x="60.6831" y="46.1628" width="61" height="93"
        fill="black">
        <rect fill="white" x="60.6831" y="46.1628" width="61" height="93" />
        <path
            d="M61.8031 127.155L92.3951 97.5868C97.8564 92.2108 101.824 87.8162 104.299 84.4028C106.859 80.9042 108.139 77.5335 108.139 74.2908C108.139 69.7682 106.603 66.0988 103.531 63.2828C100.459 60.4668 96.3631 59.0588 91.2431 59.0588C86.1231 59.0588 82.0271 60.5095 78.9551 63.4108C75.8831 66.2268 74.3471 70.0242 74.3471 74.8028H61.8031C61.8031 70.7922 62.4858 67.1228 63.8511 63.7948C65.3018 60.4668 67.3071 57.6082 69.8671 55.2188C72.4271 52.7442 75.4991 50.8668 79.0831 49.5868C82.7524 48.2215 86.8058 47.5388 91.2431 47.5388C95.6804 47.5388 99.6911 48.2215 103.275 49.5868C106.944 50.8668 110.059 52.7015 112.619 55.0908C115.179 57.4802 117.142 60.3388 118.507 63.6668C119.958 66.9095 120.683 70.4508 120.683 74.2908C120.683 79.0695 119.019 83.8908 115.691 88.7548C112.363 93.6188 107.542 98.9948 101.227 104.883L77.6751 127.155H120.683V138.163H61.8031V127.155Z" />
    </mask>
    <path
        d="M61.8031 127.155L61.1081 126.436L60.8031 126.731V127.155H61.8031ZM92.3951 97.5868L93.0901 98.3059L93.0966 98.2995L92.3951 97.5868ZM104.299 84.4028L103.492 83.8123L103.489 83.8159L104.299 84.4028ZM103.531 63.2828L104.207 62.5457L104.207 62.5457L103.531 63.2828ZM78.9551 63.4108L79.6308 64.148L79.6363 64.143L79.6417 64.1378L78.9551 63.4108ZM74.3471 74.8028V75.8028H75.3471V74.8028H74.3471ZM61.8031 74.8028H60.8031V75.8028H61.8031V74.8028ZM63.8511 63.7948L62.9344 63.3953L62.9301 63.4052L62.9259 63.4153L63.8511 63.7948ZM69.8671 55.2188L70.5494 55.9499L70.5558 55.9439L70.5621 55.9378L69.8671 55.2188ZM79.0831 49.5868L79.4195 50.5287L79.4318 50.5241L79.0831 49.5868ZM103.275 49.5868L102.919 50.5213L102.932 50.5264L102.946 50.531L103.275 49.5868ZM118.507 63.6668L117.582 64.0464L117.588 64.0609L117.594 64.0752L118.507 63.6668ZM115.691 88.7548L116.516 89.3195L116.516 89.3195L115.691 88.7548ZM101.227 104.883L100.545 104.151L100.54 104.156L101.227 104.883ZM77.6751 127.155L76.988 126.428L75.1622 128.155H77.6751V127.155ZM120.683 127.155H121.683V126.155H120.683V127.155ZM120.683 138.163V139.163H121.683V138.163H120.683ZM61.8031 138.163H60.8031V139.163H61.8031V138.163ZM62.4981 127.874L93.0901 98.3059L91.7001 96.8678L61.1081 126.436L62.4981 127.874ZM93.0966 98.2995C98.5711 92.9106 102.585 88.4703 105.109 84.9898L103.489 83.8159C101.064 87.162 97.1418 91.5111 91.6936 96.8742L93.0966 98.2995ZM105.106 84.9933C107.75 81.3804 109.139 77.8071 109.139 74.2908H107.139C107.139 77.2599 105.968 80.4279 103.492 83.8123L105.106 84.9933ZM109.139 74.2908C109.139 69.5146 107.504 65.5684 104.207 62.5457L102.855 64.02C105.702 66.6292 107.139 70.0217 107.139 74.2908H109.139ZM104.207 62.5457C100.911 59.5241 96.5533 58.0588 91.2431 58.0588V60.0588C96.1729 60.0588 100.008 61.4096 102.855 64.02L104.207 62.5457ZM91.2431 58.0588C85.9249 58.0588 81.5639 59.5715 78.2685 62.6838L79.6417 64.1378C82.4903 61.4475 86.3213 60.0588 91.2431 60.0588V58.0588ZM78.2794 62.6737C74.9696 65.7077 73.3471 69.7891 73.3471 74.8028H75.3471C75.3471 70.2592 76.7966 66.746 79.6308 64.148L78.2794 62.6737ZM74.3471 73.8028H61.8031V75.8028H74.3471V73.8028ZM62.8031 74.8028C62.8031 70.9074 63.4657 67.3688 64.7763 64.1744L62.9259 63.4153C61.5058 66.8768 60.8031 70.6769 60.8031 74.8028H62.8031ZM64.7678 64.1944C66.1659 60.9871 68.0931 58.2425 70.5494 55.9499L69.1848 54.4878C66.5211 56.9739 64.4377 59.9466 62.9344 63.3953L64.7678 64.1944ZM70.5621 55.9378C73.0129 53.5688 75.9601 51.7641 79.4194 50.5286L78.7468 48.6451C75.0381 49.9696 71.8414 51.9195 69.1721 54.4999L70.5621 55.9378ZM79.4318 50.5241C82.9757 49.2054 86.9091 48.5388 91.2431 48.5388V46.5388C86.7024 46.5388 82.5291 47.2376 78.7344 48.6496L79.4318 50.5241ZM91.2431 48.5388C95.5776 48.5388 99.4652 49.2055 102.919 50.5213L103.631 48.6523C99.9171 47.2375 95.7833 46.5388 91.2431 46.5388V48.5388ZM102.946 50.531C106.498 51.7703 109.489 53.5373 111.937 55.8219L113.301 54.3598C110.629 51.8657 107.391 49.9633 103.604 48.6426L102.946 50.531ZM111.937 55.8219C114.389 58.1102 116.27 60.848 117.582 64.0464L119.432 63.2873C118.014 59.8297 115.97 56.8501 113.301 54.3598L111.937 55.8219ZM117.594 64.0752C118.983 67.1793 119.683 70.58 119.683 74.2908H121.683C121.683 70.3216 120.933 66.6397 119.42 63.2585L117.594 64.0752ZM119.683 74.2908C119.683 78.8252 118.107 83.4533 114.866 88.1902L116.516 89.3195C119.931 84.3283 121.683 79.3138 121.683 74.2908H119.683ZM114.866 88.1902C111.594 92.9726 106.828 98.2927 100.545 104.151L101.909 105.614C108.255 99.697 113.133 94.2651 116.516 89.3195L114.866 88.1902ZM100.54 104.156L76.988 126.428L78.3622 127.881L101.914 105.609L100.54 104.156ZM77.6751 128.155H120.683V126.155H77.6751V128.155ZM119.683 127.155V138.163H121.683V127.155H119.683ZM120.683 137.163H61.8031V139.163H120.683V137.163ZM62.8031 138.163V127.155H60.8031V138.163H62.8031Z"
        fill="white" fill-opacity="0.7" mask="url(#path-3-outside-1_2034_4597)" />
    <defs>
        <filter id="filter0_f_2034_4597" x="46.8032" y="32.5388" width="88.8799" height="120.624"
            filterUnits="userSpaceOnUse" color-interpolation-filters="sRGB">
            <feFlood flood-opacity="0" result="BackgroundImageFix" />
            <feBlend mode="normal" in="SourceGraphic" in2="BackgroundImageFix" result="shape" />
            <feGaussianBlur stdDeviation="7.5" result="effect1_foregroundBlur_2034_4597" />
        </filter>
    </defs>
</svg>