<svg width="186" height="186" viewBox="0 0 186 186" fill="none" xmlns="http://www.w3.org/2000/svg">
    <g filter="url(#filter0_f_2034_4609)">
        <path
            d="M93.0093 139.217C83.452 139.217 75.9853 136.614 70.6093 131.409C65.3186 126.204 62.5453 118.865 62.2893 109.393H74.8333C75.516 121.596 81.5746 127.697 93.0093 127.697C99.068 127.697 103.591 126.332 106.577 123.601C109.649 120.785 111.185 117.073 111.185 112.465C111.185 108.028 109.692 104.444 106.705 101.713C103.804 98.9824 99.6226 97.6171 94.1613 97.6171H82.1293V86.6091H94.1613C99.0253 86.6091 102.737 85.3718 105.297 82.8971C107.943 80.3371 109.265 77.0091 109.265 72.9131C109.265 68.7318 107.9 65.4038 105.169 62.9291C102.439 60.3691 98.3853 59.0891 93.0093 59.0891C88.1453 59.0891 84.3053 60.4544 81.4893 63.1851C78.7586 65.8304 77.18 69.7131 76.7533 74.8331H64.2093C64.4653 66.2998 67.068 59.6438 72.0173 54.8651C77.052 50.0011 84.0493 47.5691 93.0093 47.5691C97.6173 47.5691 101.713 48.2091 105.297 49.4891C108.881 50.6838 111.868 52.3904 114.257 54.6091C116.732 56.7424 118.609 59.3878 119.889 62.5451C121.169 65.6171 121.809 68.9878 121.809 72.6571C121.809 76.9238 120.871 80.7211 118.993 84.0491C117.116 87.3771 114.343 90.0224 110.673 91.9851C115.025 94.0331 118.268 96.8491 120.401 100.433C122.62 104.017 123.729 108.113 123.729 112.721C123.729 116.646 123.047 120.23 121.681 123.473C120.401 126.716 118.439 129.532 115.793 131.921C113.233 134.225 110.033 136.017 106.193 137.297C102.353 138.577 97.9586 139.217 93.0093 139.217Z"
            fill="#5A04D8" />
    </g>
    <path
        d="M93.0093 139.217C83.452 139.217 75.9853 136.614 70.6093 131.409C65.3186 126.204 62.5453 118.865 62.2893 109.393H74.8333C75.516 121.596 81.5746 127.697 93.0093 127.697C99.068 127.697 103.591 126.332 106.577 123.601C109.649 120.785 111.185 117.073 111.185 112.465C111.185 108.028 109.692 104.444 106.705 101.713C103.804 98.9824 99.6226 97.6171 94.1613 97.6171H82.1293V86.6091H94.1613C99.0253 86.6091 102.737 85.3718 105.297 82.8971C107.943 80.3371 109.265 77.0091 109.265 72.9131C109.265 68.7318 107.9 65.4038 105.169 62.9291C102.439 60.3691 98.3853 59.0891 93.0093 59.0891C88.1453 59.0891 84.3053 60.4544 81.4893 63.1851C78.7586 65.8304 77.18 69.7131 76.7533 74.8331H64.2093C64.4653 66.2998 67.068 59.6438 72.0173 54.8651C77.052 50.0011 84.0493 47.5691 93.0093 47.5691C97.6173 47.5691 101.713 48.2091 105.297 49.4891C108.881 50.6838 111.868 52.3904 114.257 54.6091C116.732 56.7424 118.609 59.3878 119.889 62.5451C121.169 65.6171 121.809 68.9878 121.809 72.6571C121.809 76.9238 120.871 80.7211 118.993 84.0491C117.116 87.3771 114.343 90.0224 110.673 91.9851C115.025 94.0331 118.268 96.8491 120.401 100.433C122.62 104.017 123.729 108.113 123.729 112.721C123.729 116.646 123.047 120.23 121.681 123.473C120.401 126.716 118.439 129.532 115.793 131.921C113.233 134.225 110.033 136.017 106.193 137.297C102.353 138.577 97.9586 139.217 93.0093 139.217Z"
        fill="white" fill-opacity="0.6" />
    <mask id="path-3-outside-1_2034_4609" maskUnits="userSpaceOnUse" x="60.5293" y="46.1931" width="65" height="95"
        fill="black">
        <rect fill="white" x="60.5293" y="46.1931" width="65" height="95" />
        <path
            d="M93.0093 139.217C83.452 139.217 75.9853 136.614 70.6093 131.409C65.3186 126.204 62.5453 118.865 62.2893 109.393H74.8333C75.516 121.596 81.5746 127.697 93.0093 127.697C99.068 127.697 103.591 126.332 106.577 123.601C109.649 120.785 111.185 117.073 111.185 112.465C111.185 108.028 109.692 104.444 106.705 101.713C103.804 98.9824 99.6226 97.6171 94.1613 97.6171H82.1293V86.6091H94.1613C99.0253 86.6091 102.737 85.3718 105.297 82.8971C107.943 80.3371 109.265 77.0091 109.265 72.9131C109.265 68.7318 107.9 65.4038 105.169 62.9291C102.439 60.3691 98.3853 59.0891 93.0093 59.0891C88.1453 59.0891 84.3053 60.4544 81.4893 63.1851C78.7586 65.8304 77.18 69.7131 76.7533 74.8331H64.2093C64.4653 66.2998 67.068 59.6438 72.0173 54.8651C77.052 50.0011 84.0493 47.5691 93.0093 47.5691C97.6173 47.5691 101.713 48.2091 105.297 49.4891C108.881 50.6838 111.868 52.3904 114.257 54.6091C116.732 56.7424 118.609 59.3878 119.889 62.5451C121.169 65.6171 121.809 68.9878 121.809 72.6571C121.809 76.9238 120.871 80.7211 118.993 84.0491C117.116 87.3771 114.343 90.0224 110.673 91.9851C115.025 94.0331 118.268 96.8491 120.401 100.433C122.62 104.017 123.729 108.113 123.729 112.721C123.729 116.646 123.047 120.23 121.681 123.473C120.401 126.716 118.439 129.532 115.793 131.921C113.233 134.225 110.033 136.017 106.193 137.297C102.353 138.577 97.9586 139.217 93.0093 139.217Z" />
    </mask>
    <path
        d="M70.6093 131.409L69.9079 132.122L69.9137 132.128L70.6093 131.409ZM62.2893 109.393V108.393H61.2619L61.2897 109.42L62.2893 109.393ZM74.8333 109.393L75.8317 109.337L75.7789 108.393H74.8333V109.393ZM106.577 123.601L107.252 124.339L107.253 124.338L106.577 123.601ZM106.705 101.713L106.02 102.441L106.025 102.446L106.031 102.451L106.705 101.713ZM82.1293 97.6171H81.1293V98.6171H82.1293V97.6171ZM82.1293 86.6091V85.6091H81.1293V86.6091H82.1293ZM105.297 82.8971L105.992 83.6161L105.993 83.6157L105.297 82.8971ZM105.169 62.9291L104.485 63.6587L104.492 63.6644L104.498 63.6701L105.169 62.9291ZM81.4893 63.1851L82.1851 63.9034L82.1854 63.903L81.4893 63.1851ZM76.7533 74.8331V75.8331H77.6734L77.7498 74.9162L76.7533 74.8331ZM64.2093 74.8331L63.2097 74.8031L63.1788 75.8331H64.2093V74.8331ZM72.0173 54.8651L72.7119 55.5845L72.7121 55.5843L72.0173 54.8651ZM105.297 49.4891L104.961 50.4309L104.971 50.4344L104.981 50.4378L105.297 49.4891ZM114.257 54.6091L113.577 55.3419L113.59 55.3545L113.604 55.3665L114.257 54.6091ZM119.889 62.5451L118.963 62.9208L118.966 62.9297L119.889 62.5451ZM110.673 91.9851L110.202 91.1033L108.446 92.0423L110.248 92.8899L110.673 91.9851ZM120.401 100.433L119.542 100.945L119.546 100.952L119.551 100.959L120.401 100.433ZM121.681 123.473L120.76 123.085L120.755 123.095L120.751 123.106L121.681 123.473ZM115.793 131.921L116.462 132.664L116.464 132.663L115.793 131.921ZM106.193 137.297L105.877 136.348L105.877 136.348L106.193 137.297ZM93.0093 138.217C83.6365 138.217 76.4466 135.669 71.3049 130.691L69.9137 132.128C75.524 137.56 83.2674 140.217 93.0093 140.217V138.217ZM71.3106 130.696C66.2515 125.719 63.54 118.654 63.2889 109.366L61.2897 109.42C61.5506 119.076 64.3858 126.689 69.908 132.122L71.3106 130.696ZM62.2893 110.393H74.8333V108.393H62.2893V110.393ZM73.8349 109.449C74.1841 115.693 75.9174 120.54 79.1797 123.826C82.4524 127.121 87.1165 128.697 93.0093 128.697V126.697C87.4674 126.697 83.3848 125.222 80.5989 122.416C77.8025 119.6 76.1651 115.296 75.8317 109.337L73.8349 109.449ZM93.0093 128.697C99.1965 128.697 104.008 127.305 107.252 124.339L105.903 122.863C103.173 125.358 98.9394 126.697 93.0093 126.697V128.697ZM107.253 124.338C110.555 121.312 112.185 117.32 112.185 112.465H110.185C110.185 116.826 108.744 120.259 105.902 122.864L107.253 124.338ZM112.185 112.465C112.185 107.777 110.595 103.915 107.38 100.975L106.031 102.451C108.789 104.973 110.185 108.278 110.185 112.465H112.185ZM107.391 100.985C104.244 98.0236 99.7816 96.6171 94.1613 96.6171V98.6171C99.4636 98.6171 103.364 99.9413 106.02 102.441L107.391 100.985ZM94.1613 96.6171H82.1293V98.6171H94.1613V96.6171ZM83.1293 97.6171V86.6091H81.1293V97.6171H83.1293ZM82.1293 87.6091H94.1613V85.6091H82.1293V87.6091ZM94.1613 87.6091C99.1879 87.6091 103.186 86.3286 105.992 83.6161L104.602 82.1781C102.288 84.415 98.8627 85.6091 94.1613 85.6091V87.6091ZM105.993 83.6157C108.856 80.8452 110.265 77.2464 110.265 72.9131H108.265C108.265 76.7718 107.03 79.8291 104.602 82.1785L105.993 83.6157ZM110.265 72.9131C110.265 68.4915 108.81 64.8789 105.841 62.1881L104.498 63.6701C106.99 65.9287 108.265 68.972 108.265 72.9131H110.265ZM105.853 62.1996C102.87 59.4027 98.529 58.0891 93.0093 58.0891V60.0891C98.2416 60.0891 102.007 61.3355 104.485 63.6587L105.853 62.1996ZM93.0093 58.0891C87.9512 58.0891 83.8381 59.5145 80.7932 62.4672L82.1854 63.903C84.7725 61.3944 88.3394 60.0891 93.0093 60.0891V58.0891ZM80.7935 62.4669C77.836 65.3319 76.1964 69.4743 75.7568 74.7501L77.7498 74.9162C78.1635 69.9519 79.6812 66.329 82.1851 63.9034L80.7935 62.4669ZM76.7533 73.8331H64.2093V75.8331H76.7533V73.8331ZM65.2088 74.8631C65.459 66.5243 67.9931 60.1406 72.7119 55.5845L71.3227 54.1457C66.1428 59.147 63.4716 66.0753 63.2097 74.8031L65.2088 74.8631ZM72.7121 55.5843C77.5122 50.9469 84.2329 48.5691 93.0093 48.5691V46.5691C83.8657 46.5691 76.5917 49.0553 71.3225 54.1459L72.7121 55.5843ZM93.0093 48.5691C97.5261 48.5691 101.505 49.1966 104.961 50.4309L105.634 48.5474C101.922 47.2217 97.7085 46.5691 93.0093 46.5691V48.5691ZM104.981 50.4378C108.451 51.5944 111.307 53.2346 113.577 55.3419L114.938 53.8763C112.428 51.5463 109.312 49.7731 105.614 48.5404L104.981 50.4378ZM113.604 55.3665C115.954 57.3917 117.74 59.9042 118.963 62.9208L120.816 62.1694C119.479 58.8714 117.51 56.0932 114.91 53.8517L113.604 55.3665ZM118.966 62.9297C120.19 65.8679 120.809 69.1062 120.809 72.6571H122.809C122.809 68.8693 122.148 65.3663 120.812 62.1605L118.966 62.9297ZM120.809 72.6571C120.809 76.7721 119.906 80.3966 118.122 83.5578L119.864 84.5404C121.836 81.0456 122.809 77.0754 122.809 72.6571H120.809ZM118.122 83.5578C116.347 86.7057 113.719 89.222 110.202 91.1033L111.145 92.8669C114.966 90.8229 117.885 88.0485 119.864 84.5404L118.122 83.5578ZM110.248 92.8899C114.447 94.8664 117.526 97.5572 119.542 100.945L121.261 99.9216C119.01 96.1411 115.603 93.1998 111.099 91.0803L110.248 92.8899ZM119.551 100.959C121.663 104.371 122.729 108.281 122.729 112.721H124.729C124.729 107.945 123.577 103.663 121.252 99.9068L119.551 100.959ZM122.729 112.721C122.729 116.529 122.068 119.979 120.76 123.085L122.603 123.861C124.026 120.482 124.729 116.764 124.729 112.721H122.729ZM120.751 123.106C119.529 126.202 117.657 128.891 115.123 131.179L116.464 132.663C119.221 130.173 121.274 127.23 122.611 123.84L120.751 123.106ZM115.124 131.178C112.683 133.375 109.609 135.104 105.877 136.348L106.51 138.246C110.457 136.93 113.784 135.075 116.462 132.664L115.124 131.178ZM105.877 136.348C102.159 137.588 97.8742 138.217 93.0093 138.217V140.217C98.0431 140.217 102.548 139.566 106.51 138.246L105.877 136.348Z"
        fill="white" fill-opacity="0.7" mask="url(#path-3-outside-1_2034_4609)" />
    <defs>
        <filter id="filter0_f_2034_4609" x="47.2891" y="32.5691" width="91.4404" height="121.648"
            filterUnits="userSpaceOnUse" color-interpolation-filters="sRGB">
            <feFlood flood-opacity="0" result="BackgroundImageFix" />
            <feBlend mode="normal" in="SourceGraphic" in2="BackgroundImageFix" result="shape" />
            <feGaussianBlur stdDeviation="7.5" result="effect1_foregroundBlur_2034_4609" />
        </filter>
    </defs>
</svg>