<svg width="186" height="186" viewBox="0 0 186 186" fill="none" xmlns="http://www.w3.org/2000/svg">
    <g filter="url(#filter0_f_2034_4621)">
        <path
            d="M58.56 106.697L98.24 48.2008H113.856V106.697H125.12V117.705H113.856V137.801H101.824V117.705H58.56V106.697ZM101.824 106.697V61.6408L71.744 106.697H101.824Z"
            fill="#5A04D8" />
    </g>
    <path
        d="M58.56 106.697L98.24 48.2008H113.856V106.697H125.12V117.705H113.856V137.801H101.824V117.705H58.56V106.697ZM101.824 106.697V61.6408L71.744 106.697H101.824Z"
        fill="white" fill-opacity="0.6" />
    <mask id="path-3-outside-1_2034_4621" maskUnits="userSpaceOnUse" x="57" y="46.8008" width="70" height="92"
        fill="black">
        <rect fill="white" x="57" y="46.8008" width="70" height="92" />
        <path
            d="M58.56 106.697L98.24 48.2008H113.856V106.697H125.12V117.705H113.856V137.801H101.824V117.705H58.56V106.697ZM101.824 106.697V61.6408L71.744 106.697H101.824Z" />
    </mask>
    <path
        d="M58.56 106.697L57.7324 106.135L57.56 106.39V106.697H58.56ZM98.24 48.2008V47.2008H97.71L97.4124 47.6394L98.24 48.2008ZM113.856 48.2008H114.856V47.2008H113.856V48.2008ZM113.856 106.697H112.856V107.697H113.856V106.697ZM125.12 106.697H126.12V105.697H125.12V106.697ZM125.12 117.705V118.705H126.12V117.705H125.12ZM113.856 117.705V116.705H112.856V117.705H113.856ZM113.856 137.801V138.801H114.856V137.801H113.856ZM101.824 137.801H100.824V138.801H101.824V137.801ZM101.824 117.705H102.824V116.705H101.824V117.705ZM58.56 117.705H57.56V118.705H58.56V117.705ZM101.824 106.697V107.697H102.824V106.697H101.824ZM101.824 61.6408H102.824V58.3419L100.992 61.0855L101.824 61.6408ZM71.744 106.697L70.9123 106.142L69.874 107.697H71.744V106.697ZM59.3876 107.258L99.0676 48.7621L97.4124 47.6394L57.7324 106.135L59.3876 107.258ZM98.24 49.2008H113.856V47.2008H98.24V49.2008ZM112.856 48.2008V106.697H114.856V48.2008H112.856ZM113.856 107.697H125.12V105.697H113.856V107.697ZM124.12 106.697V117.705H126.12V106.697H124.12ZM125.12 116.705H113.856V118.705H125.12V116.705ZM112.856 117.705V137.801H114.856V117.705H112.856ZM113.856 136.801H101.824V138.801H113.856V136.801ZM102.824 137.801V117.705H100.824V137.801H102.824ZM101.824 116.705H58.56V118.705H101.824V116.705ZM59.56 117.705V106.697H57.56V117.705H59.56ZM102.824 106.697V61.6408H100.824V106.697H102.824ZM100.992 61.0855L70.9123 106.142L72.5757 107.252L102.656 62.196L100.992 61.0855ZM71.744 107.697H101.824V105.697H71.744V107.697Z"
        fill="white" fill-opacity="0.7" mask="url(#path-3-outside-1_2034_4621)" />
    <defs>
        <filter id="filter0_f_2034_4621" x="43.5601" y="33.2008" width="96.5601" height="119.6"
            filterUnits="userSpaceOnUse" color-interpolation-filters="sRGB">
            <feFlood flood-opacity="0" result="BackgroundImageFix" />
            <feBlend mode="normal" in="SourceGraphic" in2="BackgroundImageFix" result="shape" />
            <feGaussianBlur stdDeviation="7.5" result="effect1_foregroundBlur_2034_4621" />
        </filter>
    </defs>
</svg>