<svg width="186" height="186" viewBox="0 0 186 186" fill="none" xmlns="http://www.w3.org/2000/svg">
    <g filter="url(#filter0_f_2034_4630)">
        <path
            d="M93.1631 139.132C85.3978 139.132 78.7418 137.169 73.1951 133.244C67.6484 129.318 64.0644 123.601 62.4431 116.092H74.9871C76.4378 119.932 78.6991 122.833 81.7711 124.796C84.8431 126.673 88.6404 127.612 93.1631 127.612C98.7951 127.612 103.232 125.948 106.475 122.62C109.718 119.292 111.339 114.598 111.339 108.54C111.339 102.566 109.718 97.9155 106.475 94.5875C103.232 91.2595 98.7951 89.5955 93.1631 89.5955C89.3231 89.5955 85.9951 90.3635 83.1791 91.8995C80.4484 93.4355 78.3578 95.3129 76.9071 97.5315H65.0031L68.8431 48.5075H118.123V59.5155H79.8511L77.9311 83.9635C82.5391 80.0382 88.3418 78.0755 95.3391 78.0755C99.4351 78.0755 103.232 78.8009 106.731 80.2515C110.23 81.7022 113.259 83.7929 115.819 86.5235C118.379 89.1689 120.342 92.3689 121.707 96.1235C123.158 99.7929 123.883 103.932 123.883 108.54C123.883 113.148 123.158 117.372 121.707 121.212C120.256 124.966 118.166 128.166 115.435 130.812C112.79 133.457 109.59 135.505 105.835 136.956C102.08 138.406 97.8564 139.132 93.1631 139.132Z"
            fill="#5A04D8" />
    </g>
    <path
        d="M93.1631 139.132C85.3978 139.132 78.7418 137.169 73.1951 133.244C67.6484 129.318 64.0644 123.601 62.4431 116.092H74.9871C76.4378 119.932 78.6991 122.833 81.7711 124.796C84.8431 126.673 88.6404 127.612 93.1631 127.612C98.7951 127.612 103.232 125.948 106.475 122.62C109.718 119.292 111.339 114.598 111.339 108.54C111.339 102.566 109.718 97.9155 106.475 94.5875C103.232 91.2595 98.7951 89.5955 93.1631 89.5955C89.3231 89.5955 85.9951 90.3635 83.1791 91.8995C80.4484 93.4355 78.3578 95.3129 76.9071 97.5315H65.0031L68.8431 48.5075H118.123V59.5155H79.8511L77.9311 83.9635C82.5391 80.0382 88.3418 78.0755 95.3391 78.0755C99.4351 78.0755 103.232 78.8009 106.731 80.2515C110.23 81.7022 113.259 83.7929 115.819 86.5235C118.379 89.1689 120.342 92.3689 121.707 96.1235C123.158 99.7929 123.883 103.932 123.883 108.54C123.883 113.148 123.158 117.372 121.707 121.212C120.256 124.966 118.166 128.166 115.435 130.812C112.79 133.457 109.59 135.505 105.835 136.956C102.08 138.406 97.8564 139.132 93.1631 139.132Z"
        fill="white" fill-opacity="0.6" />
    <mask id="path-3-outside-1_2034_4630" maskUnits="userSpaceOnUse" x="60.6831" y="47.1075" width="65" height="94"
        fill="black">
        <rect fill="white" x="60.6831" y="47.1075" width="65" height="94" />
        <path
            d="M93.1631 139.132C85.3978 139.132 78.7418 137.169 73.1951 133.244C67.6484 129.318 64.0644 123.601 62.4431 116.092H74.9871C76.4378 119.932 78.6991 122.833 81.7711 124.796C84.8431 126.673 88.6404 127.612 93.1631 127.612C98.7951 127.612 103.232 125.948 106.475 122.62C109.718 119.292 111.339 114.598 111.339 108.54C111.339 102.566 109.718 97.9155 106.475 94.5875C103.232 91.2595 98.7951 89.5955 93.1631 89.5955C89.3231 89.5955 85.9951 90.3635 83.1791 91.8995C80.4484 93.4355 78.3578 95.3129 76.9071 97.5315H65.0031L68.8431 48.5075H118.123V59.5155H79.8511L77.9311 83.9635C82.5391 80.0382 88.3418 78.0755 95.3391 78.0755C99.4351 78.0755 103.232 78.8009 106.731 80.2515C110.23 81.7022 113.259 83.7929 115.819 86.5235C118.379 89.1689 120.342 92.3689 121.707 96.1235C123.158 99.7929 123.883 103.932 123.883 108.54C123.883 113.148 123.158 117.372 121.707 121.212C120.256 124.966 118.166 128.166 115.435 130.812C112.79 133.457 109.59 135.505 105.835 136.956C102.08 138.406 97.8564 139.132 93.1631 139.132Z" />
    </mask>
    <path
        d="M73.1951 133.244L73.7728 132.427L73.7728 132.427L73.1951 133.244ZM62.4431 116.092V115.092H61.2042L61.4656 116.303L62.4431 116.092ZM74.9871 116.092L75.9226 115.738L75.6783 115.092H74.9871V116.092ZM81.7711 124.796L81.2327 125.638L81.2411 125.644L81.2497 125.649L81.7711 124.796ZM106.475 122.62L107.191 123.317L107.191 123.317L106.475 122.62ZM106.475 94.5875L107.191 93.8897L106.475 94.5875ZM83.1791 91.8995L82.7002 91.0216L82.6888 91.028L83.1791 91.8995ZM76.9071 97.5315V98.5315H77.448L77.7441 98.0788L76.9071 97.5315ZM65.0031 97.5315L64.0062 97.4535L63.9217 98.5315H65.0031V97.5315ZM68.8431 48.5075V47.5075H67.9184L67.8462 48.4294L68.8431 48.5075ZM118.123 48.5075H119.123V47.5075H118.123V48.5075ZM118.123 59.5155V60.5155H119.123V59.5155H118.123ZM79.8511 59.5155V58.5155H78.9266L78.8542 59.4372L79.8511 59.5155ZM77.9311 83.9635L76.9342 83.8852L76.7455 86.2871L78.5796 84.7248L77.9311 83.9635ZM106.731 80.2515L107.114 79.3278L107.114 79.3278L106.731 80.2515ZM115.819 86.5235L115.09 87.2075L115.095 87.2133L115.101 87.219L115.819 86.5235ZM121.707 96.1235L120.767 96.4653L120.772 96.4783L120.777 96.4912L121.707 96.1235ZM121.707 121.212L122.64 121.572L122.643 121.565L121.707 121.212ZM115.435 130.812L114.739 130.093L114.734 130.099L114.728 130.104L115.435 130.812ZM105.835 136.956L105.475 136.023L105.475 136.023L105.835 136.956ZM93.1631 138.132C85.5741 138.132 79.1271 136.217 73.7728 132.427L72.6174 134.06C78.3564 138.121 85.2215 140.132 93.1631 140.132V138.132ZM73.7728 132.427C68.4574 128.666 64.9965 123.18 63.4206 115.88L61.4656 116.303C63.1324 124.022 66.8395 129.971 72.6174 134.06L73.7728 132.427ZM62.4431 117.092H74.9871V115.092H62.4431V117.092ZM74.0516 116.445C75.5684 120.46 77.9565 123.545 81.2327 125.638L82.3095 123.953C79.4417 122.121 77.3071 119.403 75.9226 115.738L74.0516 116.445ZM81.2497 125.649C84.5143 127.644 88.5032 128.612 93.1631 128.612V126.612C88.7777 126.612 85.1719 125.702 82.2926 123.942L81.2497 125.649ZM93.1631 128.612C99.0035 128.612 103.722 126.878 107.191 123.317L105.759 121.922C102.743 125.017 98.5867 126.612 93.1631 126.612V128.612ZM107.191 123.317C110.666 119.751 112.339 114.777 112.339 108.54H110.339C110.339 114.42 108.769 118.832 105.759 121.922L107.191 123.317ZM112.339 108.54C112.339 102.383 110.664 97.4535 107.191 93.8897L105.759 95.2854C108.772 98.3776 110.339 102.749 110.339 108.54H112.339ZM107.191 93.8897C103.722 90.3286 99.0035 88.5955 93.1631 88.5955V90.5955C98.5867 90.5955 102.743 92.1905 105.759 95.2854L107.191 93.8897ZM93.1631 88.5955C89.1887 88.5955 85.6895 89.3911 82.7003 91.0216L83.658 92.7774C86.3007 91.336 89.4575 90.5955 93.1631 90.5955V88.5955ZM82.6888 91.028C79.8436 92.6284 77.6233 94.6088 76.0701 96.9843L77.7441 98.0788C79.0922 96.0169 81.0532 94.2427 83.6694 92.7711L82.6888 91.028ZM76.9071 96.5315H65.0031V98.5315H76.9071V96.5315ZM66.0001 97.6096L69.8401 48.5856L67.8462 48.4294L64.0062 97.4535L66.0001 97.6096ZM68.8431 49.5075H118.123V47.5075H68.8431V49.5075ZM117.123 48.5075V59.5155H119.123V48.5075H117.123ZM118.123 58.5155H79.8511V60.5155H118.123V58.5155ZM78.8542 59.4372L76.9342 83.8852L78.928 84.0418L80.848 59.5938L78.8542 59.4372ZM78.5796 84.7248C82.9789 80.9772 88.5402 79.0755 95.3391 79.0755V77.0755C88.1433 77.0755 82.0993 79.0992 77.2826 83.2023L78.5796 84.7248ZM95.3391 79.0755C99.3145 79.0755 102.98 79.7789 106.348 81.1753L107.114 79.3278C103.484 77.8228 99.5558 77.0755 95.3391 77.0755V79.0755ZM106.348 81.1753C109.717 82.5722 112.628 84.5817 115.09 87.2075L116.549 85.8396C113.89 83.004 110.742 80.8322 107.114 79.3278L106.348 81.1753ZM115.101 87.219C117.555 89.7549 119.446 92.8313 120.767 96.4653L122.647 95.7818C121.238 91.9064 119.204 88.5829 116.538 85.8281L115.101 87.219ZM120.777 96.4912C122.174 100.026 122.883 104.037 122.883 108.54H124.883C124.883 103.826 124.141 99.5602 122.637 95.7559L120.777 96.4912ZM122.883 108.54C122.883 113.042 122.175 117.144 120.772 120.858L122.643 121.565C124.141 117.599 124.883 113.254 124.883 108.54H122.883ZM120.774 120.851C119.373 124.479 117.36 127.555 114.739 130.093L116.131 131.53C118.972 128.778 121.14 125.454 122.64 121.572L120.774 120.851ZM114.728 130.104C112.189 132.644 109.109 134.618 105.475 136.023L106.196 137.888C110.07 136.391 113.391 134.27 116.142 131.519L114.728 130.104ZM105.475 136.023C101.852 137.422 97.7533 138.132 93.1631 138.132V140.132C97.9596 140.132 102.308 139.39 106.196 137.888L105.475 136.023Z"
        fill="white" fill-opacity="0.7" mask="url(#path-3-outside-1_2034_4630)" />
    <defs>
        <filter id="filter0_f_2034_4630" x="47.4429" y="33.5076" width="91.4404" height="120.624"
            filterUnits="userSpaceOnUse" color-interpolation-filters="sRGB">
            <feFlood flood-opacity="0" result="BackgroundImageFix" />
            <feBlend mode="normal" in="SourceGraphic" in2="BackgroundImageFix" result="shape" />
            <feGaussianBlur stdDeviation="7.5" result="effect1_foregroundBlur_2034_4630" />
        </filter>
    </defs>
</svg>