<svg width="186" height="186" viewBox="0 0 186 186" fill="none" xmlns="http://www.w3.org/2000/svg">
    <g filter="url(#filter0_f_2034_4639)">
        <path
            d="M95.3779 138.887C90.7699 138.887 86.5459 138.162 82.7059 136.711C78.9512 135.26 75.7086 132.999 72.9779 129.927C70.3326 126.855 68.2846 122.93 66.8339 118.151C65.3832 113.287 64.6579 107.442 64.6579 100.615V93.1912C64.6579 84.8285 65.3832 77.7458 66.8339 71.9432C68.3699 66.0552 70.5032 61.3192 73.2339 57.7352C76.0499 54.0658 79.3779 51.4205 83.2179 49.7992C87.0579 48.0925 91.3246 47.2392 96.0179 47.2392C99.6019 47.2392 102.845 47.7938 105.746 48.9032C108.647 49.9272 111.207 51.3778 113.426 53.2552C115.645 55.0472 117.479 57.2232 118.93 59.7832C120.381 62.3432 121.49 65.1165 122.258 68.1032H109.586C108.647 65.5432 107.111 63.3672 104.978 61.5752C102.845 59.6978 99.8579 58.7592 96.0179 58.7592C93.2872 58.7592 90.7699 59.2285 88.4659 60.1672C86.1619 61.0205 84.1566 62.5565 82.4499 64.7752C80.8286 66.9085 79.5059 69.7672 78.4819 73.3512C77.5432 76.9352 76.9459 81.4152 76.6899 86.7912C78.9939 83.9752 81.7672 81.7992 85.0099 80.2632C88.3379 78.7272 92.0072 77.9592 96.0179 77.9592C105.063 77.9592 112.103 80.5192 117.138 85.6392C122.258 90.7592 124.818 97.9698 124.818 107.271V109.575C124.818 114.012 124.05 118.066 122.514 121.735C121.063 125.319 119.015 128.391 116.37 130.951C113.725 133.511 110.61 135.474 107.026 136.839C103.442 138.204 99.5592 138.887 95.3779 138.887ZM77.2019 108.935C77.2019 114.994 78.9086 119.602 82.3219 122.759C85.7352 125.831 90.0872 127.367 95.3779 127.367C100.583 127.367 104.679 125.788 107.666 122.631C110.738 119.474 112.274 115.122 112.274 109.575V107.271C112.274 101.639 110.738 97.2872 107.666 94.2152C104.594 91.0578 100.455 89.4792 95.2499 89.4792C89.6179 89.4792 85.1806 91.0152 81.9379 94.0872C78.7806 97.1592 77.2019 101.34 77.2019 106.631V108.935Z"
            fill="#5A04D8" />
    </g>
    <path
        d="M95.3779 138.887C90.7699 138.887 86.5459 138.162 82.7059 136.711C78.9512 135.26 75.7086 132.999 72.9779 129.927C70.3326 126.855 68.2846 122.93 66.8339 118.151C65.3832 113.287 64.6579 107.442 64.6579 100.615V93.1912C64.6579 84.8285 65.3832 77.7458 66.8339 71.9432C68.3699 66.0552 70.5032 61.3192 73.2339 57.7352C76.0499 54.0658 79.3779 51.4205 83.2179 49.7992C87.0579 48.0925 91.3246 47.2392 96.0179 47.2392C99.6019 47.2392 102.845 47.7938 105.746 48.9032C108.647 49.9272 111.207 51.3778 113.426 53.2552C115.645 55.0472 117.479 57.2232 118.93 59.7832C120.381 62.3432 121.49 65.1165 122.258 68.1032H109.586C108.647 65.5432 107.111 63.3672 104.978 61.5752C102.845 59.6978 99.8579 58.7592 96.0179 58.7592C93.2872 58.7592 90.7699 59.2285 88.4659 60.1672C86.1619 61.0205 84.1566 62.5565 82.4499 64.7752C80.8286 66.9085 79.5059 69.7672 78.4819 73.3512C77.5432 76.9352 76.9459 81.4152 76.6899 86.7912C78.9939 83.9752 81.7672 81.7992 85.0099 80.2632C88.3379 78.7272 92.0072 77.9592 96.0179 77.9592C105.063 77.9592 112.103 80.5192 117.138 85.6392C122.258 90.7592 124.818 97.9698 124.818 107.271V109.575C124.818 114.012 124.05 118.066 122.514 121.735C121.063 125.319 119.015 128.391 116.37 130.951C113.725 133.511 110.61 135.474 107.026 136.839C103.442 138.204 99.5592 138.887 95.3779 138.887ZM77.2019 108.935C77.2019 114.994 78.9086 119.602 82.3219 122.759C85.7352 125.831 90.0872 127.367 95.3779 127.367C100.583 127.367 104.679 125.788 107.666 122.631C110.738 119.474 112.274 115.122 112.274 109.575V107.271C112.274 101.639 110.738 97.2872 107.666 94.2152C104.594 91.0578 100.455 89.4792 95.2499 89.4792C89.6179 89.4792 85.1806 91.0152 81.9379 94.0872C78.7806 97.1592 77.2019 101.34 77.2019 106.631V108.935Z"
        fill="white" fill-opacity="0.6" />
    <mask id="path-3-outside-1_2034_4639" maskUnits="userSpaceOnUse" x="63.3379" y="45.8632" width="63" height="95"
        fill="black">
        <rect fill="white" x="63.3379" y="45.8632" width="63" height="95" />
        <path
            d="M95.3779 138.887C90.7699 138.887 86.5459 138.162 82.7059 136.711C78.9512 135.26 75.7086 132.999 72.9779 129.927C70.3326 126.855 68.2846 122.93 66.8339 118.151C65.3832 113.287 64.6579 107.442 64.6579 100.615V93.1912C64.6579 84.8285 65.3832 77.7458 66.8339 71.9432C68.3699 66.0552 70.5032 61.3192 73.2339 57.7352C76.0499 54.0658 79.3779 51.4205 83.2179 49.7992C87.0579 48.0925 91.3246 47.2392 96.0179 47.2392C99.6019 47.2392 102.845 47.7938 105.746 48.9032C108.647 49.9272 111.207 51.3778 113.426 53.2552C115.645 55.0472 117.479 57.2232 118.93 59.7832C120.381 62.3432 121.49 65.1165 122.258 68.1032H109.586C108.647 65.5432 107.111 63.3672 104.978 61.5752C102.845 59.6978 99.8579 58.7592 96.0179 58.7592C93.2872 58.7592 90.7699 59.2285 88.4659 60.1672C86.1619 61.0205 84.1566 62.5565 82.4499 64.7752C80.8286 66.9085 79.5059 69.7672 78.4819 73.3512C77.5432 76.9352 76.9459 81.4152 76.6899 86.7912C78.9939 83.9752 81.7672 81.7992 85.0099 80.2632C88.3379 78.7272 92.0072 77.9592 96.0179 77.9592C105.063 77.9592 112.103 80.5192 117.138 85.6392C122.258 90.7592 124.818 97.9698 124.818 107.271V109.575C124.818 114.012 124.05 118.066 122.514 121.735C121.063 125.319 119.015 128.391 116.37 130.951C113.725 133.511 110.61 135.474 107.026 136.839C103.442 138.204 99.5592 138.887 95.3779 138.887ZM77.2019 108.935C77.2019 114.994 78.9086 119.602 82.3219 122.759C85.7352 125.831 90.0872 127.367 95.3779 127.367C100.583 127.367 104.679 125.788 107.666 122.631C110.738 119.474 112.274 115.122 112.274 109.575V107.271C112.274 101.639 110.738 97.2872 107.666 94.2152C104.594 91.0578 100.455 89.4792 95.2499 89.4792C89.6179 89.4792 85.1806 91.0152 81.9379 94.0872C78.7806 97.1592 77.2019 101.34 77.2019 106.631V108.935Z" />
    </mask>
    <path
        d="M82.7059 136.711L82.3455 137.644L82.3525 137.647L82.7059 136.711ZM72.9779 129.927L72.2201 130.58L72.2253 130.586L72.2305 130.592L72.9779 129.927ZM66.8339 118.151L65.8756 118.437L65.877 118.442L66.8339 118.151ZM66.8339 71.9432L65.8662 71.6907L65.8637 71.7006L66.8339 71.9432ZM73.2339 57.7352L72.4406 57.1263L72.4385 57.1291L73.2339 57.7352ZM83.2179 49.7992L83.6069 50.7204L83.6155 50.7168L83.624 50.713L83.2179 49.7992ZM105.746 48.9032L105.389 49.8372L105.401 49.8418L105.413 49.8461L105.746 48.9032ZM113.426 53.2552L112.78 54.0185L112.789 54.0259L112.798 54.0331L113.426 53.2552ZM118.93 59.7832L118.06 60.2762L118.06 60.2762L118.93 59.7832ZM122.258 68.1032V69.1032H123.548L123.226 67.8541L122.258 68.1032ZM109.586 68.1032L108.647 68.4474L108.887 69.1032H109.586V68.1032ZM104.978 61.5752L104.317 62.3259L104.326 62.3335L104.335 62.3409L104.978 61.5752ZM88.4659 60.1672L88.8132 61.1049L88.8283 61.0993L88.8432 61.0932L88.4659 60.1672ZM82.4499 64.7752L81.6573 64.1654L81.6537 64.1701L82.4499 64.7752ZM78.4819 73.3512L77.5204 73.0764L77.5173 73.0871L77.5145 73.0978L78.4819 73.3512ZM76.6899 86.7912L75.691 86.7436L75.547 89.7672L77.4638 87.4244L76.6899 86.7912ZM85.0099 80.2632L84.5908 79.3552L84.5818 79.3594L85.0099 80.2632ZM117.138 85.6392L116.425 86.3403L116.431 86.3463L117.138 85.6392ZM122.514 121.735L121.591 121.349L121.587 121.36L122.514 121.735ZM116.37 130.951L117.065 131.67L117.065 131.67L116.37 130.951ZM107.026 136.839L107.382 137.774L107.382 137.774L107.026 136.839ZM82.3219 122.759L81.6428 123.493L81.6529 123.502L82.3219 122.759ZM107.666 122.631L106.949 121.934L106.939 121.944L107.666 122.631ZM107.666 94.2152L106.949 94.9126L106.959 94.9223L107.666 94.2152ZM81.9379 94.0872L81.2501 93.3611L81.2405 93.3704L81.9379 94.0872ZM95.3779 137.887C90.8759 137.887 86.7734 137.179 83.0593 135.776L82.3525 137.647C86.3184 139.145 90.6639 139.887 95.3779 139.887V137.887ZM83.0663 135.778C79.4634 134.386 76.3525 132.218 73.7253 129.263L72.2305 130.592C75.0646 133.78 78.4391 136.135 82.3455 137.644L83.0663 135.778ZM73.7357 129.275C71.1997 126.33 69.2101 122.536 67.7908 117.861L65.877 118.442C67.359 123.323 69.4655 127.381 72.2201 130.58L73.7357 129.275ZM67.7922 117.865C66.3768 113.12 65.6579 107.376 65.6579 100.615H63.6579C63.6579 107.508 64.3896 113.455 65.8756 118.437L67.7922 117.865ZM65.6579 100.615V93.1912H63.6579V100.615H65.6579ZM65.6579 93.1912C65.6579 84.8805 66.3793 77.8846 67.804 72.1857L65.8637 71.7006C64.3871 77.607 63.6579 84.7765 63.6579 93.1912H65.6579ZM67.8015 72.1956C69.3151 66.3934 71.4017 61.79 74.0293 58.3412L72.4385 57.1291C69.6048 60.8484 67.4247 65.7169 65.8663 71.6907L67.8015 72.1956ZM74.0272 58.344C76.7496 54.7966 79.9434 52.2672 83.6069 50.7204L82.8289 48.8779C78.8124 50.5738 75.3502 53.335 72.4406 57.1263L74.0272 58.344ZM83.624 50.713C87.322 49.0694 91.4481 48.2392 96.0179 48.2392V46.2392C91.2011 46.2392 86.7938 47.1155 82.8118 48.8853L83.624 50.713ZM96.0179 48.2392C99.4983 48.2392 102.618 48.7776 105.389 49.8372L106.103 47.9691C103.072 46.81 99.7054 46.2392 96.0179 46.2392V48.2392ZM105.413 49.8461C108.207 50.8322 110.659 52.2241 112.78 54.0185L114.072 52.4918C111.755 50.5316 109.088 49.0222 106.079 47.9602L105.413 49.8461ZM112.798 54.0331C114.915 55.7436 116.669 57.8219 118.06 60.2762L119.8 59.2901C118.289 56.6244 116.374 54.3507 114.054 52.4772L112.798 54.0331ZM118.06 60.2762C119.465 62.7559 120.542 65.4467 121.289 68.3522L123.226 67.8541C122.438 64.7862 121.296 61.9304 119.8 59.2901L118.06 60.2762ZM122.258 67.1032H109.586V69.1032H122.258V67.1032ZM110.525 67.7589C109.525 65.0313 107.885 62.7112 105.621 60.8095L104.335 62.3409C106.337 64.0232 107.77 66.055 108.647 68.4474L110.525 67.7589ZM105.639 60.8244C103.267 58.7374 100.015 57.7592 96.0179 57.7592V59.7592C99.7009 59.7592 102.422 60.6582 104.317 62.3259L105.639 60.8244ZM96.0179 57.7592C93.1705 57.7592 90.5236 58.249 88.0886 59.2411L88.8432 61.0932C91.0162 60.208 93.4039 59.7592 96.0179 59.7592V57.7592ZM88.1186 59.2294C85.6147 60.1568 83.4622 61.819 81.6573 64.1654L83.2425 65.3849C84.8509 63.294 86.7091 61.8842 88.8132 61.1049L88.1186 59.2294ZM81.6537 64.1701C79.9341 66.4328 78.5661 69.4164 77.5204 73.0764L79.4434 73.6259C80.4457 70.118 81.723 67.3842 83.2461 65.3802L81.6537 64.1701ZM77.5145 73.0978C76.5523 76.7719 75.949 81.3263 75.691 86.7436L77.6888 86.8387C77.9428 81.504 78.5342 77.0985 79.4493 73.6045L77.5145 73.0978ZM77.4638 87.4244C79.6754 84.7214 82.3311 82.6386 85.438 81.1669L84.5818 79.3594C81.2033 80.9598 78.3124 83.2289 75.9159 86.1579L77.4638 87.4244ZM85.4289 81.1711C88.6136 79.7013 92.1381 78.9592 96.0179 78.9592V76.9592C91.8763 76.9592 88.0622 77.753 84.5908 79.3552L85.4289 81.1711ZM96.0179 78.9592C104.869 78.9592 111.624 81.4582 116.425 86.3403L117.851 84.938C112.582 79.5801 105.258 76.9592 96.0179 76.9592V78.9592ZM116.431 86.3463C121.314 91.2294 123.818 98.156 123.818 107.271H125.818C125.818 97.7836 123.202 90.2889 117.845 84.932L116.431 86.3463ZM123.818 107.271V109.575H125.818V107.271H123.818ZM123.818 109.575C123.818 113.895 123.071 117.815 121.591 121.349L123.436 122.121C125.029 118.316 125.818 114.13 125.818 109.575H123.818ZM121.587 121.36C120.186 124.821 118.214 127.774 115.674 130.233L117.065 131.67C119.816 129.008 121.94 125.817 123.441 122.11L121.587 121.36ZM115.674 130.233C113.131 132.694 110.133 134.586 106.67 135.905L107.382 137.774C111.087 136.362 114.319 134.328 117.065 131.67L115.674 130.233ZM106.67 135.905C103.209 137.223 99.4486 137.887 95.3779 137.887V139.887C99.6699 139.887 103.674 139.186 107.382 137.774L106.67 135.905ZM76.2019 108.935C76.2019 115.183 77.9676 120.094 81.6428 123.493L83.0009 122.025C79.8495 119.11 78.2019 114.804 78.2019 108.935H76.2019ZM81.6529 123.502C85.2776 126.765 89.8803 128.367 95.3779 128.367V126.367C90.2942 126.367 86.1928 124.898 82.9909 122.016L81.6529 123.502ZM95.3779 128.367C100.799 128.367 105.18 126.714 108.392 123.318L106.939 121.944C104.179 124.863 100.367 126.367 95.3779 126.367V128.367ZM108.383 123.329C111.68 119.939 113.274 115.311 113.274 109.575H111.274C111.274 114.932 109.795 119.008 106.949 121.934L108.383 123.329ZM113.274 109.575V107.271H111.274V109.575H113.274ZM113.274 107.271C113.274 101.456 111.683 96.8185 108.373 93.5081L106.959 94.9223C109.792 97.7558 111.274 101.822 111.274 107.271H113.274ZM108.383 93.5178C105.088 90.132 100.672 88.4792 95.2499 88.4792V90.4792C100.238 90.4792 104.099 91.9836 106.949 94.9125L108.383 93.5178ZM95.2499 88.4792C89.4317 88.4792 84.7237 90.0705 81.2501 93.3612L82.6256 94.8131C85.6375 91.9598 89.804 90.4792 95.2499 90.4792V88.4792ZM81.2405 93.3704C77.8516 96.6678 76.2019 101.129 76.2019 106.631H78.2019C78.2019 101.552 79.7096 97.6505 82.6352 94.8039L81.2405 93.3704ZM76.2019 106.631V108.935H78.2019V106.631H76.2019Z"
        fill="white" fill-opacity="0.7" mask="url(#path-3-outside-1_2034_4639)" />
    <defs>
        <filter id="filter0_f_2034_4639" x="49.6577" y="32.2391" width="90.1602" height="121.648"
            filterUnits="userSpaceOnUse" color-interpolation-filters="sRGB">
            <feFlood flood-opacity="0" result="BackgroundImageFix" />
            <feBlend mode="normal" in="SourceGraphic" in2="BackgroundImageFix" result="shape" />
            <feGaussianBlur stdDeviation="7.5" result="effect1_foregroundBlur_2034_4639" />
        </filter>
    </defs>
</svg>