<svg width="186" height="187" viewBox="0 0 186 187" fill="none" xmlns="http://www.w3.org/2000/svg">
    <g filter="url(#filter0_f_2034_4657)">
        <path
            d="M95.0759 139.785C90.0413 139.785 85.6039 139.145 81.7639 137.865C78.0093 136.585 74.8093 134.836 72.1639 132.617C69.6039 130.313 67.6413 127.582 66.2759 124.425C64.9959 121.268 64.3559 117.812 64.3559 114.057C64.3559 108.852 65.6786 104.414 68.3239 100.745C71.0546 97.0758 74.6386 94.1744 79.0759 92.0411C75.3213 90.0784 72.3346 87.4758 70.1159 84.2331C67.9826 80.9904 66.9159 77.0224 66.9159 72.3291C66.9159 68.9158 67.5986 65.7584 68.9639 62.8571C70.3293 59.8704 72.2066 57.3104 74.5959 55.1771C77.0706 52.9584 80.0146 51.2518 83.4279 50.0571C86.9266 48.7771 90.8093 48.1371 95.0759 48.1371C99.4279 48.1371 103.311 48.7344 106.724 49.9291C110.223 51.1238 113.167 52.7878 115.556 54.9211C118.031 57.0544 119.908 59.6144 121.188 62.6011C122.553 65.5878 123.236 68.8304 123.236 72.3291C123.236 76.9371 122.084 80.8624 119.78 84.1051C117.561 87.3478 114.575 89.9504 110.82 91.9131C115.343 94.0464 118.969 96.9904 121.7 100.745C124.431 104.414 125.796 108.852 125.796 114.057C125.796 117.726 125.113 121.14 123.748 124.297C122.383 127.369 120.377 130.057 117.732 132.361C115.172 134.665 111.972 136.5 108.132 137.865C104.292 139.145 99.9399 139.785 95.0759 139.785ZM95.0759 87.1771C96.9533 86.9211 98.8306 86.4944 100.708 85.8971C102.585 85.2144 104.249 84.3184 105.7 83.2091C107.236 82.0144 108.431 80.5638 109.284 78.8571C110.223 77.0651 110.692 74.9318 110.692 72.4571C110.692 70.8358 110.351 69.2571 109.668 67.7211C108.985 66.1851 107.961 64.8198 106.596 63.6251C105.316 62.4304 103.695 61.4918 101.732 60.8091C99.7693 60.0411 97.5506 59.6571 95.0759 59.6571C92.6013 59.6571 90.3826 60.0411 88.4199 60.8091C86.4573 61.4918 84.7933 62.4304 83.4279 63.6251C82.1479 64.8198 81.1666 66.1851 80.4839 67.7211C79.8013 69.2571 79.4599 70.8358 79.4599 72.4571C79.4599 74.8464 79.9293 76.8944 80.8679 78.6011C81.8919 80.3078 83.1293 81.7584 84.5799 82.9531C86.1159 84.1478 87.7799 85.0864 89.5719 85.7691C91.4493 86.4518 93.2839 86.9211 95.0759 87.1771ZM95.0759 128.265C97.9773 128.265 100.537 127.881 102.756 127.113C105.06 126.345 106.98 125.321 108.516 124.041C110.052 122.676 111.204 121.14 111.972 119.433C112.825 117.641 113.252 115.806 113.252 113.929C113.252 111.369 112.74 109.108 111.716 107.145C110.692 105.182 109.327 103.518 107.62 102.153C105.999 100.702 104.079 99.5504 101.86 98.6971C99.7266 97.8438 97.4653 97.2891 95.0759 97.0331C92.6013 97.2891 90.2546 97.8438 88.0359 98.6971C85.8173 99.4651 83.8546 100.574 82.1479 102.025C80.5266 103.39 79.2466 105.054 78.3079 107.017C77.3693 108.98 76.8999 111.284 76.8999 113.929C76.8999 115.892 77.2839 117.726 78.0519 119.433C78.9053 121.14 80.0999 122.676 81.6359 124.041C83.1719 125.321 85.0493 126.345 87.2679 127.113C89.5719 127.881 92.1746 128.265 95.0759 128.265Z"
            fill="#5A04D8" />
    </g>
    <path
        d="M95.0759 139.785C90.0413 139.785 85.6039 139.145 81.7639 137.865C78.0093 136.585 74.8093 134.836 72.1639 132.617C69.6039 130.313 67.6413 127.582 66.2759 124.425C64.9959 121.268 64.3559 117.812 64.3559 114.057C64.3559 108.852 65.6786 104.414 68.3239 100.745C71.0546 97.0758 74.6386 94.1744 79.0759 92.0411C75.3213 90.0784 72.3346 87.4758 70.1159 84.2331C67.9826 80.9904 66.9159 77.0224 66.9159 72.3291C66.9159 68.9158 67.5986 65.7584 68.9639 62.8571C70.3293 59.8704 72.2066 57.3104 74.5959 55.1771C77.0706 52.9584 80.0146 51.2518 83.4279 50.0571C86.9266 48.7771 90.8093 48.1371 95.0759 48.1371C99.4279 48.1371 103.311 48.7344 106.724 49.9291C110.223 51.1238 113.167 52.7878 115.556 54.9211C118.031 57.0544 119.908 59.6144 121.188 62.6011C122.553 65.5878 123.236 68.8304 123.236 72.3291C123.236 76.9371 122.084 80.8624 119.78 84.1051C117.561 87.3478 114.575 89.9504 110.82 91.9131C115.343 94.0464 118.969 96.9904 121.7 100.745C124.431 104.414 125.796 108.852 125.796 114.057C125.796 117.726 125.113 121.14 123.748 124.297C122.383 127.369 120.377 130.057 117.732 132.361C115.172 134.665 111.972 136.5 108.132 137.865C104.292 139.145 99.9399 139.785 95.0759 139.785ZM95.0759 87.1771C96.9533 86.9211 98.8306 86.4944 100.708 85.8971C102.585 85.2144 104.249 84.3184 105.7 83.2091C107.236 82.0144 108.431 80.5638 109.284 78.8571C110.223 77.0651 110.692 74.9318 110.692 72.4571C110.692 70.8358 110.351 69.2571 109.668 67.7211C108.985 66.1851 107.961 64.8198 106.596 63.6251C105.316 62.4304 103.695 61.4918 101.732 60.8091C99.7693 60.0411 97.5506 59.6571 95.0759 59.6571C92.6013 59.6571 90.3826 60.0411 88.4199 60.8091C86.4573 61.4918 84.7933 62.4304 83.4279 63.6251C82.1479 64.8198 81.1666 66.1851 80.4839 67.7211C79.8013 69.2571 79.4599 70.8358 79.4599 72.4571C79.4599 74.8464 79.9293 76.8944 80.8679 78.6011C81.8919 80.3078 83.1293 81.7584 84.5799 82.9531C86.1159 84.1478 87.7799 85.0864 89.5719 85.7691C91.4493 86.4518 93.2839 86.9211 95.0759 87.1771ZM95.0759 128.265C97.9773 128.265 100.537 127.881 102.756 127.113C105.06 126.345 106.98 125.321 108.516 124.041C110.052 122.676 111.204 121.14 111.972 119.433C112.825 117.641 113.252 115.806 113.252 113.929C113.252 111.369 112.74 109.108 111.716 107.145C110.692 105.182 109.327 103.518 107.62 102.153C105.999 100.702 104.079 99.5504 101.86 98.6971C99.7266 97.8438 97.4653 97.2891 95.0759 97.0331C92.6013 97.2891 90.2546 97.8438 88.0359 98.6971C85.8173 99.4651 83.8546 100.574 82.1479 102.025C80.5266 103.39 79.2466 105.054 78.3079 107.017C77.3693 108.98 76.8999 111.284 76.8999 113.929C76.8999 115.892 77.2839 117.726 78.0519 119.433C78.9053 121.14 80.0999 122.676 81.6359 124.041C83.1719 125.321 85.0493 126.345 87.2679 127.113C89.5719 127.881 92.1746 128.265 95.0759 128.265Z"
        fill="white" fill-opacity="0.6" />
    <mask id="path-3-outside-1_2034_4657" maskUnits="userSpaceOnUse" x="63.3159" y="46.7611" width="64" height="95"
        fill="black">
        <rect fill="white" x="63.3159" y="46.7611" width="64" height="95" />
        <path
            d="M95.0759 139.785C90.0413 139.785 85.6039 139.145 81.7639 137.865C78.0093 136.585 74.8093 134.836 72.1639 132.617C69.6039 130.313 67.6413 127.582 66.2759 124.425C64.9959 121.268 64.3559 117.812 64.3559 114.057C64.3559 108.852 65.6786 104.414 68.3239 100.745C71.0546 97.0758 74.6386 94.1744 79.0759 92.0411C75.3213 90.0784 72.3346 87.4758 70.1159 84.2331C67.9826 80.9904 66.9159 77.0224 66.9159 72.3291C66.9159 68.9158 67.5986 65.7584 68.9639 62.8571C70.3293 59.8704 72.2066 57.3104 74.5959 55.1771C77.0706 52.9584 80.0146 51.2518 83.4279 50.0571C86.9266 48.7771 90.8093 48.1371 95.0759 48.1371C99.4279 48.1371 103.311 48.7344 106.724 49.9291C110.223 51.1238 113.167 52.7878 115.556 54.9211C118.031 57.0544 119.908 59.6144 121.188 62.6011C122.553 65.5878 123.236 68.8304 123.236 72.3291C123.236 76.9371 122.084 80.8624 119.78 84.1051C117.561 87.3478 114.575 89.9504 110.82 91.9131C115.343 94.0464 118.969 96.9904 121.7 100.745C124.431 104.414 125.796 108.852 125.796 114.057C125.796 117.726 125.113 121.14 123.748 124.297C122.383 127.369 120.377 130.057 117.732 132.361C115.172 134.665 111.972 136.5 108.132 137.865C104.292 139.145 99.9399 139.785 95.0759 139.785ZM95.0759 87.1771C96.9533 86.9211 98.8306 86.4944 100.708 85.8971C102.585 85.2144 104.249 84.3184 105.7 83.2091C107.236 82.0144 108.431 80.5638 109.284 78.8571C110.223 77.0651 110.692 74.9318 110.692 72.4571C110.692 70.8358 110.351 69.2571 109.668 67.7211C108.985 66.1851 107.961 64.8198 106.596 63.6251C105.316 62.4304 103.695 61.4918 101.732 60.8091C99.7693 60.0411 97.5506 59.6571 95.0759 59.6571C92.6013 59.6571 90.3826 60.0411 88.4199 60.8091C86.4573 61.4918 84.7933 62.4304 83.4279 63.6251C82.1479 64.8198 81.1666 66.1851 80.4839 67.7211C79.8013 69.2571 79.4599 70.8358 79.4599 72.4571C79.4599 74.8464 79.9293 76.8944 80.8679 78.6011C81.8919 80.3078 83.1293 81.7584 84.5799 82.9531C86.1159 84.1478 87.7799 85.0864 89.5719 85.7691C91.4493 86.4518 93.2839 86.9211 95.0759 87.1771ZM95.0759 128.265C97.9773 128.265 100.537 127.881 102.756 127.113C105.06 126.345 106.98 125.321 108.516 124.041C110.052 122.676 111.204 121.14 111.972 119.433C112.825 117.641 113.252 115.806 113.252 113.929C113.252 111.369 112.74 109.108 111.716 107.145C110.692 105.182 109.327 103.518 107.62 102.153C105.999 100.702 104.079 99.5504 101.86 98.6971C99.7266 97.8438 97.4653 97.2891 95.0759 97.0331C92.6013 97.2891 90.2546 97.8438 88.0359 98.6971C85.8173 99.4651 83.8546 100.574 82.1479 102.025C80.5266 103.39 79.2466 105.054 78.3079 107.017C77.3693 108.98 76.8999 111.284 76.8999 113.929C76.8999 115.892 77.2839 117.726 78.0519 119.433C78.9053 121.14 80.0999 122.676 81.6359 124.041C83.1719 125.321 85.0493 126.345 87.2679 127.113C89.5719 127.881 92.1746 128.265 95.0759 128.265Z" />
    </mask>
    <path
        d="M81.7639 137.865L81.4412 138.812L81.4477 138.814L81.7639 137.865ZM72.1639 132.617L71.495 133.36L71.5079 133.372L71.5213 133.383L72.1639 132.617ZM66.2759 124.425L65.3492 124.801L65.3535 124.811L65.3581 124.822L66.2759 124.425ZM68.3239 100.745L67.5217 100.148L67.5172 100.154L67.5127 100.16L68.3239 100.745ZM79.0759 92.0411L79.5092 92.9424L81.3061 92.0785L79.5392 91.1549L79.0759 92.0411ZM70.1159 84.2331L69.2805 84.7827L69.2855 84.7903L69.2906 84.7978L70.1159 84.2331ZM68.9639 62.8571L69.8688 63.2829L69.8734 63.2729L68.9639 62.8571ZM74.5959 55.1771L75.2619 55.923L75.2635 55.9217L74.5959 55.1771ZM83.4279 50.0571L83.7583 51.0011L83.7715 50.9962L83.4279 50.0571ZM106.724 49.9291L106.394 50.873L106.401 50.8755L106.724 49.9291ZM115.556 54.9211L114.89 55.667L114.896 55.6728L114.903 55.6785L115.556 54.9211ZM121.188 62.6011L120.269 62.995L120.273 63.006L120.278 63.0169L121.188 62.6011ZM119.78 84.1051L118.965 83.5259L118.96 83.5331L118.955 83.5404L119.78 84.1051ZM110.82 91.9131L110.357 91.0269L108.573 91.9591L110.393 92.8175L110.82 91.9131ZM121.7 100.745L120.891 101.333L120.898 101.342L121.7 100.745ZM123.748 124.297L124.662 124.703L124.666 124.694L123.748 124.297ZM117.732 132.361L117.075 131.607L117.069 131.612L117.063 131.618L117.732 132.361ZM108.132 137.865L108.448 138.814L108.458 138.811L108.467 138.807L108.132 137.865ZM95.0759 87.1771L94.9345 88.1671L95.0727 88.1868L95.211 88.1679L95.0759 87.1771ZM100.708 85.8971L101.011 86.85L101.031 86.8439L101.05 86.8369L100.708 85.8971ZM105.7 83.2091L106.307 84.0035L106.314 83.9985L105.7 83.2091ZM109.284 78.8571L108.398 78.3931L108.394 78.4015L108.389 78.4099L109.284 78.8571ZM109.668 67.7211L108.754 68.1272L108.754 68.1272L109.668 67.7211ZM106.596 63.6251L105.914 64.3562L105.925 64.3671L105.937 64.3777L106.596 63.6251ZM101.732 60.8091L101.368 61.7403L101.385 61.7473L101.403 61.7536L101.732 60.8091ZM88.4199 60.8091L88.7484 61.7536L88.7665 61.7473L88.7843 61.7403L88.4199 60.8091ZM83.4279 63.6251L82.7694 62.8725L82.7573 62.8831L82.7456 62.8941L83.4279 63.6251ZM80.8679 78.6011L79.9917 79.083L80.0008 79.0995L80.0104 79.1156L80.8679 78.6011ZM84.5799 82.9531L83.9442 83.725L83.955 83.7339L83.966 83.7425L84.5799 82.9531ZM89.5719 85.7691L89.2159 86.7036L89.223 86.7063L89.2302 86.7089L89.5719 85.7691ZM102.756 127.113L102.44 126.164L102.429 126.168L102.756 127.113ZM108.516 124.041L109.156 124.809L109.168 124.799L109.18 124.789L108.516 124.041ZM111.972 119.433L111.069 119.003L111.064 119.013L111.06 119.023L111.972 119.433ZM111.716 107.145L110.829 107.608L111.716 107.145ZM107.62 102.153L106.953 102.898L106.974 102.917L106.995 102.934L107.62 102.153ZM101.86 98.6971L101.488 99.6257L101.501 99.6305L101.86 98.6971ZM95.0759 97.0331L95.1825 96.0388L95.0778 96.0276L94.973 96.0384L95.0759 97.0331ZM88.0359 98.6971L88.363 99.6421L88.3791 99.6365L88.3949 99.6305L88.0359 98.6971ZM82.1479 102.025L82.7921 102.79L82.7956 102.787L82.1479 102.025ZM78.3079 107.017L77.4058 106.586L77.4058 106.586L78.3079 107.017ZM78.0519 119.433L77.14 119.843L77.1484 119.862L77.1575 119.88L78.0519 119.433ZM81.6359 124.041L80.9716 124.789L80.9835 124.799L80.9957 124.809L81.6359 124.041ZM87.2679 127.113L86.9408 128.058L86.9517 128.062L87.2679 127.113ZM95.0759 138.785C90.1236 138.785 85.7968 138.155 82.0801 136.916L81.4477 138.814C85.411 140.135 89.9589 140.785 95.0759 140.785V138.785ZM82.0866 136.919C78.4316 135.673 75.3443 133.979 72.8065 131.851L71.5213 133.383C74.2742 135.692 77.5869 137.498 81.4412 138.812L82.0866 136.919ZM72.8329 131.874C70.3797 129.666 68.5019 127.053 67.1938 124.028L65.3581 124.822C66.7806 128.112 68.8282 130.96 71.495 133.36L72.8329 131.874ZM67.2027 124.049C65.9758 121.023 65.3559 117.696 65.3559 114.057H63.3559C63.3559 117.927 64.0161 121.513 65.3492 124.801L67.2027 124.049ZM65.3559 114.057C65.3559 109.029 66.6304 104.804 69.1351 101.33L67.5127 100.16C64.7268 104.025 63.3559 108.675 63.3559 114.057H65.3559ZM69.1262 101.342C71.753 97.8123 75.2062 95.0111 79.5092 92.9424L78.6426 91.1399C74.0709 93.3378 70.3562 96.3392 67.5217 100.148L69.1262 101.342ZM79.5392 91.1549C75.918 89.262 73.0602 86.7654 70.9412 83.6684L69.2906 84.7978C71.609 88.1861 74.7245 90.8949 78.6127 92.9273L79.5392 91.1549ZM70.9513 83.6835C68.946 80.6354 67.9159 76.8684 67.9159 72.3291H65.9159C65.9159 77.1765 67.0191 81.3455 69.2805 84.7827L70.9513 83.6835ZM67.9159 72.3291C67.9159 69.0533 68.5701 66.0425 69.8687 63.2829L68.0591 62.4313C66.6271 65.4743 65.9159 68.7783 65.9159 72.3291H67.9159ZM69.8734 63.2729C71.1828 60.4086 72.9783 57.962 75.2619 55.923L73.9299 54.4312C71.4348 56.6589 69.4758 59.3322 68.0544 62.4413L69.8734 63.2729ZM75.2635 55.9217C77.6316 53.7985 80.4583 52.1559 83.7583 51.001L83.0976 49.1132C79.5708 50.3476 76.5096 52.1184 73.9284 54.4325L75.2635 55.9217ZM83.7715 50.9962C87.1454 49.7619 90.9097 49.1371 95.0759 49.1371V47.1371C90.7088 47.1371 86.7078 47.7923 83.0843 49.118L83.7715 50.9962ZM95.0759 49.1371C99.3376 49.1371 103.106 49.7221 106.394 50.873L107.054 48.9852C103.516 47.7467 99.5182 47.1371 95.0759 47.1371V49.1371ZM106.401 50.8755C109.792 52.0335 112.615 53.6354 114.89 55.667L116.222 54.1752C113.719 51.9401 110.653 50.214 107.047 48.9828L106.401 50.8755ZM114.903 55.6785C117.263 57.7131 119.049 60.149 120.269 62.995L122.107 62.2072C120.767 59.0799 118.798 56.3958 116.209 54.1637L114.903 55.6785ZM120.278 63.0169C121.58 65.8646 122.236 68.9644 122.236 72.3291H124.236C124.236 68.6965 123.526 65.3109 122.097 62.1853L120.278 63.0169ZM122.236 72.3291C122.236 76.7635 121.13 80.4782 118.965 83.5259L120.595 84.6843C123.038 81.2467 124.236 77.1107 124.236 72.3291H122.236ZM118.955 83.5404C116.836 86.6374 113.978 89.134 110.357 91.0269L111.283 92.7993C115.171 90.7669 118.287 88.0581 120.605 84.6698L118.955 83.5404ZM110.393 92.8175C114.776 94.8849 118.267 97.7248 120.891 101.333L122.509 100.157C119.672 96.256 115.909 93.208 111.247 91.0087L110.393 92.8175ZM120.898 101.342C123.483 104.816 124.796 109.036 124.796 114.057H126.796C126.796 108.668 125.379 104.013 122.502 100.148L120.898 101.342ZM124.796 114.057C124.796 117.599 124.138 120.876 122.83 123.9L124.666 124.694C126.089 121.403 126.796 117.854 126.796 114.057H124.796ZM122.834 123.891C121.531 126.824 119.615 129.395 117.075 131.607L118.389 133.115C121.139 130.72 123.235 127.914 124.662 124.703L122.834 123.891ZM117.063 131.618C114.616 133.82 111.536 135.593 107.797 136.923L108.467 138.807C112.408 137.406 115.728 135.51 118.401 133.104L117.063 131.618ZM107.816 136.916C104.096 138.156 99.8534 138.785 95.0759 138.785V140.785C100.026 140.785 104.488 140.134 108.448 138.814L107.816 136.916ZM95.211 88.1679C97.1476 87.9039 99.0811 87.4641 101.011 86.85L100.405 84.9442C98.58 85.5248 96.7589 85.9384 94.9408 86.1863L95.211 88.1679ZM101.05 86.8369C103.014 86.1228 104.769 85.18 106.307 84.0035L105.092 82.4147C103.73 83.4569 102.157 84.3061 100.366 84.9573L101.05 86.8369ZM106.314 83.9985C107.965 82.714 109.257 81.1472 110.178 79.3043L108.389 78.4099C107.604 79.9803 106.507 81.3149 105.086 82.4198L106.314 83.9985ZM110.17 79.3211C111.198 77.3574 111.692 75.0578 111.692 72.4571H109.692C109.692 74.8058 109.247 76.7728 108.398 78.3931L110.17 79.3211ZM111.692 72.4571C111.692 70.6907 111.319 68.974 110.582 67.315L108.754 68.1272C109.382 69.5402 109.692 70.9809 109.692 72.4571H111.692ZM110.582 67.315C109.836 65.636 108.72 64.1551 107.254 62.8725L105.937 64.3777C107.202 65.4845 108.135 66.7342 108.754 68.1272L110.582 67.315ZM107.278 62.8941C105.879 61.5883 104.13 60.5846 102.06 59.8646L101.403 61.7536C103.259 62.3989 104.753 63.2726 105.914 64.3562L107.278 62.8941ZM102.096 59.8779C99.9992 59.0573 97.6539 58.6571 95.0759 58.6571V60.6571C97.4472 60.6571 99.5393 61.025 101.368 61.7403L102.096 59.8779ZM95.0759 58.6571C92.4979 58.6571 90.1526 59.0573 88.0555 59.8779L88.7843 61.7403C90.6125 61.025 92.7046 60.6571 95.0759 60.6571V58.6571ZM88.0914 59.8646C86.0249 60.5834 84.2444 61.5819 82.7694 62.8725L84.0864 64.3777C85.3421 63.279 86.8896 62.4002 88.7484 61.7536L88.0914 59.8646ZM82.7456 62.8941C81.3716 64.1765 80.3096 65.6511 79.5701 67.315L81.3977 68.1272C82.0236 66.7191 82.9243 65.4631 84.1102 64.3562L82.7456 62.8941ZM79.5701 67.315C78.8328 68.974 78.4599 70.6907 78.4599 72.4571H80.4599C80.4599 70.9809 80.7698 69.5402 81.3977 68.1272L79.5701 67.315ZM78.4599 72.4571C78.4599 74.9771 78.9554 77.1988 79.9917 79.083L81.7441 78.1192C80.9031 76.5901 80.4599 74.7158 80.4599 72.4571H78.4599ZM80.0104 79.1156C81.0896 80.9143 82.4004 82.4536 83.9442 83.725L85.2156 82.1812C83.8581 81.0632 82.6942 79.7013 81.7254 78.0866L80.0104 79.1156ZM83.966 83.7425C85.5791 84.9971 87.3298 85.9851 89.2159 86.7036L89.9279 84.8346C88.23 84.1878 86.6527 83.2984 85.1939 82.1638L83.966 83.7425ZM89.2302 86.7089C91.1658 87.4128 93.0676 87.9003 94.9345 88.1671L95.2173 86.1872C93.5003 85.9419 91.7327 85.4908 89.9137 84.8293L89.2302 86.7089ZM95.0759 129.265C98.0634 129.265 100.738 128.87 103.083 128.058L102.429 126.168C100.337 126.892 97.8912 127.265 95.0759 127.265V129.265ZM103.072 128.062C105.47 127.263 107.506 126.184 109.156 124.809L107.876 123.273C106.454 124.458 104.65 125.428 102.44 126.164L103.072 128.062ZM109.18 124.789C110.811 123.339 112.053 121.691 112.884 119.843L111.06 119.023C110.355 120.589 109.293 122.013 107.852 123.294L109.18 124.789ZM112.875 119.863C113.788 117.945 114.252 115.964 114.252 113.929H112.252C112.252 115.649 111.862 117.338 111.069 119.003L112.875 119.863ZM114.252 113.929C114.252 111.233 113.712 108.809 112.603 106.683L110.829 107.608C111.768 109.407 112.252 111.505 112.252 113.929H114.252ZM112.603 106.683C111.515 104.598 110.061 102.825 108.245 101.372L106.995 102.934C108.592 104.211 109.869 105.767 110.829 107.608L112.603 106.683ZM108.287 101.408C106.567 99.8692 104.54 98.6566 102.219 97.7638L101.501 99.6305C103.617 100.444 105.43 101.536 106.953 102.898L108.287 101.408ZM102.231 97.7686C100.009 96.8798 97.6585 96.3041 95.1825 96.0388L94.9694 98.0274C97.272 98.2741 99.4439 98.8077 101.489 99.6256L102.231 97.7686ZM94.973 96.0384C92.4148 96.3031 89.9816 96.8773 87.6769 97.7638L88.3949 99.6305C90.5275 98.8102 92.7878 98.2752 95.1788 98.0278L94.973 96.0384ZM87.7088 97.7521C85.3786 98.5587 83.306 99.7283 81.5003 101.263L82.7956 102.787C84.4032 101.421 86.2559 100.371 88.363 99.6421L87.7088 97.7521ZM81.5038 101.26C79.7708 102.72 78.4041 104.498 77.4058 106.586L79.2101 107.449C80.0891 105.611 81.2824 104.061 82.7921 102.79L81.5038 101.26ZM77.4058 106.586C76.3903 108.709 75.8999 111.166 75.8999 113.929H77.8999C77.8999 111.401 78.3482 109.251 79.2101 107.449L77.4058 106.586ZM75.8999 113.929C75.8999 116.026 76.3111 118.002 77.14 119.843L78.9638 119.023C78.2567 117.451 77.8999 115.757 77.8999 113.929H75.8999ZM77.1575 119.88C78.072 121.709 79.3479 123.345 80.9716 124.789L82.3003 123.294C80.852 122.006 79.7385 120.57 78.9463 118.986L77.1575 119.88ZM80.9957 124.809C82.6392 126.179 84.6275 127.257 86.9408 128.058L87.595 126.168C85.471 125.433 83.7046 124.463 82.2761 123.273L80.9957 124.809ZM86.9517 128.062C89.3753 128.87 92.0874 129.265 95.0759 129.265V127.265C92.2618 127.265 89.7686 126.893 87.5841 126.164L86.9517 128.062Z"
        fill="white" fill-opacity="0.7" mask="url(#path-3-outside-1_2034_4657)" />
    <defs>
        <filter id="filter0_f_2034_4657" x="49.356" y="33.1371" width="91.4399" height="121.648"
            filterUnits="userSpaceOnUse" color-interpolation-filters="sRGB">
            <feFlood flood-opacity="0" result="BackgroundImageFix" />
            <feBlend mode="normal" in="SourceGraphic" in2="BackgroundImageFix" result="shape" />
            <feGaussianBlur stdDeviation="7.5" result="effect1_foregroundBlur_2034_4657" />
        </filter>
    </defs>
</svg>