<svg width="186" height="186" viewBox="0 0 186 186" fill="none" xmlns="http://www.w3.org/2000/svg">
    <g filter="url(#filter0_f_2034_4666)">
        <path
            d="M93.1333 139.626C89.5493 139.626 86.3067 139.114 83.4053 138.09C80.504 137.066 77.944 135.615 75.7253 133.738C73.5067 131.86 71.672 129.642 70.2213 127.082C68.7707 124.522 67.6613 121.748 66.8933 118.762H79.5653C80.504 121.322 82.04 123.54 84.1733 125.418C86.3067 127.21 89.2933 128.106 93.1333 128.106C95.864 128.106 98.3813 127.679 100.685 126.826C102.989 125.887 104.952 124.351 106.573 122.218C108.28 119.999 109.603 117.098 110.541 113.514C111.565 109.93 112.205 105.45 112.461 100.074C110.157 102.89 107.341 105.066 104.013 106.602C100.771 108.138 97.144 108.906 93.1333 108.906C84.088 108.906 77.0053 106.346 71.8853 101.226C66.8507 96.1056 64.3333 88.8949 64.3333 79.5936V77.2896C64.3333 72.8522 65.0587 68.8416 66.5093 65.2576C68.0453 61.5882 70.136 58.4736 72.7813 55.9136C75.4267 53.3536 78.5413 51.3909 82.1253 50.0256C85.7093 48.6602 89.592 47.9776 93.7733 47.9776C98.3813 47.9776 102.563 48.7029 106.317 50.1536C110.072 51.6042 113.272 53.8656 115.917 56.9376C118.648 60.0096 120.739 63.9776 122.189 68.8416C123.725 73.6202 124.493 79.4229 124.493 86.2496V93.6736C124.493 102.036 123.725 109.162 122.189 115.05C120.653 120.852 118.52 125.588 115.789 129.258C113.059 132.842 109.773 135.487 105.933 137.194C102.093 138.815 97.8267 139.626 93.1333 139.626ZM76.8773 79.5936C76.8773 85.2256 78.4133 89.6202 81.4853 92.7776C84.5573 95.8496 88.696 97.3856 93.9013 97.3856C99.5333 97.3856 103.928 95.8496 107.085 92.7776C110.328 89.7056 111.949 85.5242 111.949 80.2336V77.9296C111.949 71.8709 110.243 67.3056 106.829 64.2336C103.416 61.0762 99.064 59.4976 93.7733 59.4976C88.568 59.4976 84.4293 61.0762 81.3573 64.2336C78.3707 67.3909 76.8773 71.7429 76.8773 77.2896V79.5936Z"
            fill="#5A04D8" />
    </g>
    <path
        d="M93.1333 139.626C89.5493 139.626 86.3067 139.114 83.4053 138.09C80.504 137.066 77.944 135.615 75.7253 133.738C73.5067 131.86 71.672 129.642 70.2213 127.082C68.7707 124.522 67.6613 121.748 66.8933 118.762H79.5653C80.504 121.322 82.04 123.54 84.1733 125.418C86.3067 127.21 89.2933 128.106 93.1333 128.106C95.864 128.106 98.3813 127.679 100.685 126.826C102.989 125.887 104.952 124.351 106.573 122.218C108.28 119.999 109.603 117.098 110.541 113.514C111.565 109.93 112.205 105.45 112.461 100.074C110.157 102.89 107.341 105.066 104.013 106.602C100.771 108.138 97.144 108.906 93.1333 108.906C84.088 108.906 77.0053 106.346 71.8853 101.226C66.8507 96.1056 64.3333 88.8949 64.3333 79.5936V77.2896C64.3333 72.8522 65.0587 68.8416 66.5093 65.2576C68.0453 61.5882 70.136 58.4736 72.7813 55.9136C75.4267 53.3536 78.5413 51.3909 82.1253 50.0256C85.7093 48.6602 89.592 47.9776 93.7733 47.9776C98.3813 47.9776 102.563 48.7029 106.317 50.1536C110.072 51.6042 113.272 53.8656 115.917 56.9376C118.648 60.0096 120.739 63.9776 122.189 68.8416C123.725 73.6202 124.493 79.4229 124.493 86.2496V93.6736C124.493 102.036 123.725 109.162 122.189 115.05C120.653 120.852 118.52 125.588 115.789 129.258C113.059 132.842 109.773 135.487 105.933 137.194C102.093 138.815 97.8267 139.626 93.1333 139.626ZM76.8773 79.5936C76.8773 85.2256 78.4133 89.6202 81.4853 92.7776C84.5573 95.8496 88.696 97.3856 93.9013 97.3856C99.5333 97.3856 103.928 95.8496 107.085 92.7776C110.328 89.7056 111.949 85.5242 111.949 80.2336V77.9296C111.949 71.8709 110.243 67.3056 106.829 64.2336C103.416 61.0762 99.064 59.4976 93.7733 59.4976C88.568 59.4976 84.4293 61.0762 81.3573 64.2336C78.3707 67.3909 76.8773 71.7429 76.8773 77.2896V79.5936Z"
        fill="white" fill-opacity="0.6" />
    <mask id="path-3-outside-1_2034_4666" maskUnits="userSpaceOnUse" x="62.6533" y="46.6016" width="63" height="95"
        fill="black">
        <rect fill="white" x="62.6533" y="46.6016" width="63" height="95" />
        <path
            d="M93.1333 139.626C89.5493 139.626 86.3067 139.114 83.4053 138.09C80.504 137.066 77.944 135.615 75.7253 133.738C73.5067 131.86 71.672 129.642 70.2213 127.082C68.7707 124.522 67.6613 121.748 66.8933 118.762H79.5653C80.504 121.322 82.04 123.54 84.1733 125.418C86.3067 127.21 89.2933 128.106 93.1333 128.106C95.864 128.106 98.3813 127.679 100.685 126.826C102.989 125.887 104.952 124.351 106.573 122.218C108.28 119.999 109.603 117.098 110.541 113.514C111.565 109.93 112.205 105.45 112.461 100.074C110.157 102.89 107.341 105.066 104.013 106.602C100.771 108.138 97.144 108.906 93.1333 108.906C84.088 108.906 77.0053 106.346 71.8853 101.226C66.8507 96.1056 64.3333 88.8949 64.3333 79.5936V77.2896C64.3333 72.8522 65.0587 68.8416 66.5093 65.2576C68.0453 61.5882 70.136 58.4736 72.7813 55.9136C75.4267 53.3536 78.5413 51.3909 82.1253 50.0256C85.7093 48.6602 89.592 47.9776 93.7733 47.9776C98.3813 47.9776 102.563 48.7029 106.317 50.1536C110.072 51.6042 113.272 53.8656 115.917 56.9376C118.648 60.0096 120.739 63.9776 122.189 68.8416C123.725 73.6202 124.493 79.4229 124.493 86.2496V93.6736C124.493 102.036 123.725 109.162 122.189 115.05C120.653 120.852 118.52 125.588 115.789 129.258C113.059 132.842 109.773 135.487 105.933 137.194C102.093 138.815 97.8267 139.626 93.1333 139.626ZM76.8773 79.5936C76.8773 85.2256 78.4133 89.6202 81.4853 92.7776C84.5573 95.8496 88.696 97.3856 93.9013 97.3856C99.5333 97.3856 103.928 95.8496 107.085 92.7776C110.328 89.7056 111.949 85.5242 111.949 80.2336V77.9296C111.949 71.8709 110.243 67.3056 106.829 64.2336C103.416 61.0762 99.064 59.4976 93.7733 59.4976C88.568 59.4976 84.4293 61.0762 81.3573 64.2336C78.3707 67.3909 76.8773 71.7429 76.8773 77.2896V79.5936Z" />
    </mask>
    <path
        d="M83.4053 138.09L83.0725 139.033L83.0725 139.033L83.4053 138.09ZM75.7253 133.738L75.0794 134.501L75.0794 134.501L75.7253 133.738ZM70.2213 127.082L71.0913 126.589L71.0913 126.589L70.2213 127.082ZM66.8933 118.762V117.762H65.6036L65.9248 119.011L66.8933 118.762ZM79.5653 118.762L80.5042 118.417L80.2638 117.762H79.5653V118.762ZM84.1733 125.418L83.5127 126.168L83.5213 126.176L83.5301 126.183L84.1733 125.418ZM100.685 126.826L101.033 127.763L101.048 127.758L101.063 127.752L100.685 126.826ZM106.573 122.218L105.781 121.608L105.777 121.612L106.573 122.218ZM110.541 113.514L109.58 113.239L109.577 113.249L109.574 113.26L110.541 113.514ZM112.461 100.074L113.46 100.121L113.604 97.0976L111.687 99.4403L112.461 100.074ZM104.013 106.602L103.594 105.694L103.585 105.698L104.013 106.602ZM71.8853 101.226L71.1723 101.927L71.1782 101.933L71.8853 101.226ZM66.5093 65.2576L65.5868 64.8714L65.5824 64.8824L66.5093 65.2576ZM72.7813 55.9136L73.4767 56.6322L73.4767 56.6322L72.7813 55.9136ZM82.1253 50.0256L82.4813 50.96L82.4813 50.96L82.1253 50.0256ZM106.317 50.1536L106.678 49.2208L106.678 49.2208L106.317 50.1536ZM115.917 56.9376L115.16 57.5901L115.165 57.596L115.17 57.6019L115.917 56.9376ZM122.189 68.8416L121.231 69.1274L121.234 69.1375L121.237 69.1476L122.189 68.8416ZM122.189 115.05L123.156 115.305L123.157 115.302L122.189 115.05ZM115.789 129.258L116.585 129.864L116.592 129.855L115.789 129.258ZM105.933 137.194L106.322 138.115L106.331 138.111L106.339 138.107L105.933 137.194ZM81.4853 92.7776L80.7685 93.475L80.7782 93.4847L81.4853 92.7776ZM107.085 92.7776L106.398 92.0515L106.388 92.0608L107.085 92.7776ZM106.829 64.2336L106.15 64.9677L106.16 64.9769L106.829 64.2336ZM81.3573 64.2336L80.6405 63.5361L80.6309 63.5464L81.3573 64.2336ZM93.1333 138.626C89.6444 138.626 86.5166 138.127 83.7381 137.147L83.0725 139.033C86.0967 140.1 89.4543 140.626 93.1333 140.626V138.626ZM83.7381 137.147C80.9444 136.161 78.492 134.769 76.3713 132.974L75.0794 134.501C77.396 136.461 80.0635 137.971 83.0725 139.033L83.7381 137.147ZM76.3713 132.974C74.2438 131.174 72.4846 129.047 71.0913 126.589L69.3513 127.575C70.8594 130.236 72.7695 132.546 75.0794 134.501L76.3713 132.974ZM71.0913 126.589C69.6861 124.109 68.6089 121.418 67.8618 118.513L65.9248 119.011C66.7137 122.078 67.8552 124.934 69.3513 127.575L71.0913 126.589ZM66.8933 119.762H79.5653V117.762H66.8933V119.762ZM78.6264 119.106C79.625 121.829 81.2597 124.186 83.5127 126.168L84.8339 124.667C82.8203 122.895 81.383 120.814 80.5042 118.417L78.6264 119.106ZM83.5301 126.183C85.9015 128.175 89.1466 129.106 93.1333 129.106V127.106C89.44 127.106 86.7118 126.244 84.8165 124.652L83.5301 126.183ZM93.1333 129.106C95.9694 129.106 98.6058 128.662 101.033 127.763L100.338 125.888C98.1569 126.696 95.7586 127.106 93.1333 127.106V129.106ZM101.063 127.752C103.545 126.74 105.648 125.087 107.369 122.823L105.777 121.612C104.256 123.615 102.433 125.034 100.308 125.899L101.063 127.752ZM107.366 122.827C109.176 120.474 110.547 117.441 111.509 113.767L109.574 113.26C108.659 116.755 107.384 119.523 105.781 121.608L107.366 122.827ZM111.503 113.788C112.555 110.106 113.202 105.543 113.46 100.121L111.462 100.026C111.209 105.356 110.576 109.754 109.58 113.239L111.503 113.788ZM111.687 99.4403C109.48 102.138 106.786 104.221 103.594 105.694L104.432 107.51C107.897 105.911 110.835 103.641 113.235 100.707L111.687 99.4403ZM103.585 105.698C100.491 107.163 97.0135 107.906 93.1333 107.906V109.906C97.2745 109.906 101.05 109.112 104.441 107.505L103.585 105.698ZM93.1333 107.906C84.2834 107.906 77.4807 105.407 72.5924 100.518L71.1782 101.933C76.5299 107.284 83.8926 109.906 93.1333 109.906V107.906ZM72.5983 100.524C67.7973 95.642 65.3333 88.7132 65.3333 79.5936H63.3333C63.3333 89.0766 65.904 96.5691 71.1723 101.927L72.5983 100.524ZM65.3333 79.5936V77.2896H63.3333V79.5936H65.3333ZM65.3333 77.2896C65.3333 72.962 66.0404 69.0813 67.4363 65.6328L65.5824 64.8824C64.0769 68.6018 63.3333 72.7424 63.3333 77.2896H65.3333ZM67.4318 65.6437C68.9197 62.0892 70.9365 59.0905 73.4767 56.6322L72.0859 55.195C69.3355 57.8566 67.171 61.0872 65.5869 64.8714L67.4318 65.6437ZM73.4767 56.6322C76.0207 54.1703 79.0185 52.2792 82.4813 50.96L81.7693 49.0911C78.0641 50.5026 74.8327 52.5368 72.0859 55.195L73.4767 56.6322ZM82.4813 50.96C85.9418 49.6418 89.7026 48.9776 93.7733 48.9776V46.9776C89.4813 46.9776 85.4769 47.6787 81.7693 49.0911L82.4813 50.96ZM93.7733 48.9776C98.2757 48.9776 102.333 49.6861 105.957 51.0864L106.678 49.2208C102.793 47.7197 98.4869 46.9776 93.7733 46.9776V48.9776ZM105.957 51.0864C109.557 52.4773 112.621 54.6418 115.16 57.5901L116.675 56.285C113.923 53.0893 110.587 50.7312 106.678 49.2208L105.957 51.0864ZM115.17 57.6019C117.783 60.5421 119.813 64.3713 121.231 69.1274L123.148 68.5558C121.665 63.5838 119.513 59.477 116.665 56.2732L115.17 57.6019ZM121.237 69.1476C122.732 73.799 123.493 79.492 123.493 86.2496H125.493C125.493 79.3537 124.718 73.4415 123.141 68.5356L121.237 69.1476ZM123.493 86.2496V93.6736H125.493V86.2496H123.493ZM123.493 93.6736C123.493 101.98 122.73 109.016 121.222 114.797L123.157 115.302C124.721 109.307 125.493 102.092 125.493 93.6736H123.493ZM121.223 114.794C119.71 120.51 117.622 125.12 114.987 128.661L116.592 129.855C119.418 126.057 121.597 121.195 123.156 115.305L121.223 114.794ZM114.994 128.652C112.357 132.112 109.203 134.646 105.527 136.28L106.339 138.107C110.344 136.328 113.76 133.571 116.585 129.864L114.994 128.652ZM105.544 136.272C101.842 137.836 97.7098 138.626 93.1333 138.626V140.626C97.9435 140.626 102.345 139.794 106.322 138.115L105.544 136.272ZM75.8773 79.5936C75.8773 85.4103 77.4682 90.0829 80.7686 93.4749L82.202 92.0802C79.3584 89.1576 77.8773 85.0408 77.8773 79.5936H75.8773ZM80.7782 93.4847C84.0741 96.7806 88.487 98.3856 93.9013 98.3856V96.3856C88.9049 96.3856 85.0405 94.9186 82.1924 92.0705L80.7782 93.4847ZM93.9013 98.3856C99.7181 98.3856 104.391 96.7947 107.783 93.4943L106.388 92.0608C103.465 94.9045 99.3486 96.3856 93.9013 96.3856V98.3856ZM107.773 93.5035C111.252 90.208 112.949 85.7439 112.949 80.2336H110.949C110.949 85.3045 109.404 89.2032 106.398 92.0516L107.773 93.5035ZM112.949 80.2336V77.9296H110.949V80.2336H112.949ZM112.949 77.9296C112.949 71.6829 111.184 66.8076 107.498 63.4903L106.16 64.9769C109.301 67.8036 110.949 72.0589 110.949 77.9296H112.949ZM107.508 63.4995C103.885 60.1474 99.2784 58.4976 93.7733 58.4976V60.4976C98.8496 60.4976 102.947 62.005 106.15 64.9677L107.508 63.4995ZM93.7733 58.4976C88.351 58.4976 83.9348 60.1505 80.6406 63.5362L82.074 64.9309C84.9238 62.002 88.785 60.4976 93.7733 60.4976V58.4976ZM80.6309 63.5464C77.4238 66.9366 75.8773 71.5607 75.8773 77.2896H77.8773C77.8773 71.9251 79.3175 67.8452 82.0838 64.9208L80.6309 63.5464ZM75.8773 77.2896V79.5936H77.8773V77.2896H75.8773Z"
        fill="white" fill-opacity="0.7" mask="url(#path-3-outside-1_2034_4666)" />
    <defs>
        <filter id="filter0_f_2034_4666" x="49.3335" y="32.9775" width="90.1597" height="121.648"
            filterUnits="userSpaceOnUse" color-interpolation-filters="sRGB">
            <feFlood flood-opacity="0" result="BackgroundImageFix" />
            <feBlend mode="normal" in="SourceGraphic" in2="BackgroundImageFix" result="shape" />
            <feGaussianBlur stdDeviation="7.5" result="effect1_foregroundBlur_2034_4666" />
        </filter>
    </defs>
</svg>