<svg width="59" height="59" viewBox="0 0 59 59" fill="none" xmlns="http://www.w3.org/2000/svg">
<g clip-path="url(#clip0_2005_102)">
<path d="M41.266 55.5338C41.266 55.3448 41.266 55.1557 41.266 54.954C41.266 52.4962 41.266 52.5214 38.8964 52.534C38.2032 52.534 37.9511 52.7105 37.9763 53.4289C38.0267 54.8532 37.9889 56.2775 37.9763 57.6891C37.9763 58.3446 37.8754 59.0126 37.031 58.9748C36.2873 58.9369 36.1865 58.3319 36.1865 57.7017C36.1865 56.2397 36.1613 54.7776 36.1991 53.3155C36.2117 52.7231 36.0478 52.534 35.4302 52.5088C32.922 52.4206 32.922 52.3954 32.922 54.9162C32.922 55.8741 32.922 56.8321 32.922 57.8026C32.922 58.4454 32.733 59.0126 31.9767 58.9748C31.3087 58.9369 31.1322 58.4076 31.1322 57.8152C31.1322 56.3153 31.107 54.8154 31.1322 53.3155C31.1448 52.7231 30.9684 52.534 30.3508 52.5214C27.8552 52.4332 27.8552 52.408 27.8552 54.9288C27.8552 55.8867 27.8552 56.8447 27.8552 57.8152C27.8552 58.4076 27.6787 58.9369 27.0107 58.9748C26.2544 59.0126 26.0654 58.4454 26.0654 57.8026C26.0654 56.3027 26.0402 54.8028 26.0654 53.3029C26.078 52.6979 25.8763 52.534 25.2713 52.5088C22.7757 52.4206 22.7757 52.408 22.7757 54.9288C22.7757 55.8867 22.7757 56.8447 22.7757 57.8152C22.7757 58.4202 22.5992 58.9369 21.9312 58.9748C21.1624 59.0126 20.9985 58.4202 20.9859 57.8026C20.9859 56.3405 20.9481 54.8784 20.9859 53.4163C21.0111 52.6853 20.759 52.5214 20.0658 52.5214C17.6962 52.5088 17.6962 52.4836 17.6962 54.828C17.6962 55.7859 17.6962 56.7564 17.6962 57.7143C17.6962 58.3446 17.608 58.9495 16.8643 58.9874C16.0073 59.0252 15.9442 58.3446 15.9316 57.6891C15.9316 56.2649 15.9064 54.8406 15.9316 53.4163C15.9442 52.8113 15.793 52.5845 15.1376 52.4836C10.0455 51.6517 7.2978 48.8788 6.45332 43.7616C6.35249 43.1692 6.16342 42.9927 5.59624 43.0053C4.13416 43.0305 2.67208 43.0053 1.21 43.0053C0.604997 43.0053 -0.0378148 42.9297 -0.0504189 42.1482C-0.0504189 41.3164 0.592392 41.2281 1.26041 41.2407C2.68468 41.2407 4.10895 41.2155 5.52061 41.2533C6.12561 41.2659 6.3903 41.1525 6.4029 40.4467C6.46592 37.9636 6.49113 37.9637 3.9703 37.9637C2.97458 37.9637 1.96624 37.9763 0.970517 37.951C0.428538 37.9384 -0.0504189 37.7242 -0.063023 37.094C-0.063023 36.4133 0.390726 36.1739 1.00833 36.1739C2.47041 36.1739 3.93249 36.1487 5.39457 36.1739C6.0878 36.1991 6.4029 36.0604 6.4029 35.2538C6.4029 32.8968 6.44072 32.8968 4.07114 32.8968C3.15103 32.8968 2.23093 32.8968 1.29822 32.8968C0.655413 32.8968 -0.0504189 32.859 -0.063023 32.0271C-0.0756272 31.1196 0.668017 31.0944 1.34864 31.0944C2.69728 31.0944 4.04593 31.0692 5.38197 31.107C6.0878 31.1322 6.3903 30.9936 6.3903 30.1869C6.3903 27.8425 6.42811 27.8425 4.05853 27.8425C3.13843 27.8425 2.21833 27.8425 1.28562 27.8425C0.630205 27.8425 -0.0504189 27.7921 -0.0756272 26.9728C-0.100835 26.141 0.579788 26.0527 1.2352 26.0527C2.65947 26.0527 4.08374 26.0275 5.50801 26.0527C6.12561 26.0653 6.36509 25.9141 6.3903 25.2335C6.45332 22.7631 6.47853 22.7757 4.05853 22.7757C3.0628 22.7757 2.05447 22.7757 1.05875 22.7757C0.453747 22.7757 -0.0504189 22.5866 -0.0756272 21.906C-0.100835 21.2127 0.428539 20.9985 1.00833 20.9985C2.50822 20.9859 4.00812 20.9607 5.50801 20.9985C6.13822 21.0111 6.36509 20.8472 6.37769 20.1666C6.44072 17.6962 6.46592 17.6962 4.04593 17.6962C3.01239 17.6962 1.96624 17.6962 0.932704 17.6962C0.352914 17.6962 -0.063023 17.4441 -0.0882313 16.8517C-0.11344 16.2215 0.340309 15.9694 0.894892 15.9568C2.35697 15.9316 3.81905 15.9064 5.28113 15.9568C5.98697 15.9694 6.31467 15.8686 6.45332 15.0241C7.20957 10.1589 10.1337 7.25996 15.0493 6.4911C15.7678 6.37767 15.919 6.13819 15.9064 5.48277C15.8686 4.09632 15.8938 2.70986 15.9064 1.33601C15.9064 0.705803 15.9316 -0.0126335 16.7761 -0.0126335C17.608 -0.0126335 17.671 0.655386 17.671 1.3108C17.671 2.73507 17.6962 4.15934 17.6584 5.571C17.6458 6.21381 17.8223 6.41548 18.4903 6.42808C20.9607 6.4785 20.9607 6.50371 20.9607 4.08371C20.9607 3.1258 20.9607 2.16788 20.9607 1.19736C20.9607 0.579761 21.0741 -0.0378418 21.843 -0.0378418C22.5866 -0.0378418 22.7505 0.529345 22.7379 1.17216C22.7379 2.63424 22.7631 4.09632 22.7253 5.5584C22.7127 6.18861 22.8765 6.40288 23.5571 6.42808C26.015 6.4785 26.0149 6.50371 26.0149 4.08371C26.0149 3.08799 26.0149 2.07965 26.0149 1.08393C26.0149 0.491532 26.2166 -0.0252377 26.8972 -0.0252377C27.5779 -0.0252377 27.7921 0.466324 27.7921 1.07132C27.7921 2.57122 27.8173 4.07111 27.7921 5.571C27.7795 6.21381 27.956 6.41548 28.624 6.42808C31.0692 6.4785 31.0692 6.50371 31.0692 4.07111C31.0692 3.07538 31.0692 2.06705 31.0692 1.07132C31.0692 0.466324 31.2835 -0.0252377 31.9641 -0.0378418C32.6573 -0.0378418 32.859 0.478928 32.859 1.07132C32.859 2.57122 32.8968 4.07111 32.859 5.571C32.8464 6.22642 33.0481 6.41548 33.7035 6.42808C36.1361 6.4785 36.1361 6.50371 36.1361 4.07111C36.1361 3.07538 36.1361 2.06705 36.1361 1.07132C36.1361 0.45372 36.3503 -0.0252377 37.031 -0.0378418C37.7242 -0.0378418 37.9133 0.491532 37.9133 1.07132C37.9259 2.57122 37.9511 4.07111 37.9133 5.571C37.9007 6.22642 38.1275 6.40288 38.7703 6.41548C41.2155 6.4659 41.2155 6.4911 41.2155 4.07111C41.2155 3.11319 41.2155 2.15528 41.2155 1.18476C41.2155 0.541949 41.3416 -0.0252377 42.0978 -0.0378418C42.8793 -0.0378418 42.9675 0.579761 42.9801 1.19736C42.9801 2.62163 43.0053 4.0459 42.9801 5.45756C42.9675 6.08777 43.1062 6.35246 43.8246 6.4659C48.8032 7.24735 51.6518 10.1085 52.4458 15.1123C52.5593 15.856 52.8618 15.9442 53.4794 15.9316C54.9036 15.9064 56.3279 15.919 57.7522 15.9316C58.3698 15.9316 58.9874 16.0576 58.9622 16.8265C58.937 17.5828 58.3572 17.6962 57.7144 17.6836C56.2901 17.671 54.8658 17.7088 53.4542 17.671C52.8114 17.6584 52.5089 17.7592 52.4963 18.5281C52.471 20.9607 52.4332 20.9607 54.8658 20.9607C55.8616 20.9607 56.8699 20.9607 57.8656 20.9607C58.458 20.9607 58.9748 21.1749 58.9622 21.8682C58.937 22.5362 58.4454 22.7378 57.8404 22.7378C56.3783 22.7378 54.9162 22.7631 53.4542 22.7378C52.8114 22.7252 52.5089 22.8135 52.4963 23.5949C52.471 26.0275 52.4332 26.0275 54.8784 26.0275C55.8742 26.0275 56.8825 26.0275 57.8782 26.0275C58.4706 26.0275 58.9874 26.2544 58.9622 26.935C58.937 27.6157 58.4328 27.8047 57.8404 27.8047C56.3783 27.8047 54.9162 27.8299 53.4542 27.8047C52.8114 27.7921 52.5089 27.8929 52.4963 28.6618C52.471 31.0818 52.4332 31.0818 54.8784 31.0818C55.7229 31.0818 56.5674 31.0818 57.4119 31.0818C58.1051 31.0818 58.9622 31.0188 58.937 32.0019C58.9118 32.985 58.0421 32.8716 57.3615 32.8716C56.0506 32.8716 54.7524 32.8968 53.4416 32.8716C52.7862 32.8464 52.5089 32.985 52.4963 33.7413C52.471 36.1487 52.4332 36.1487 54.8784 36.1487C55.8364 36.1487 56.7943 36.1487 57.7648 36.1487C58.4076 36.1487 58.9622 36.3125 58.9622 37.0688C58.9622 37.762 58.4076 37.9258 57.8278 37.9258C56.4035 37.9384 54.9793 37.9763 53.5676 37.9258C52.7988 37.9006 52.4963 38.0771 52.5089 38.9216C52.5341 41.2155 52.4963 41.2155 54.7776 41.2155C55.8111 41.2155 56.8573 41.2155 57.8908 41.2155C58.5084 41.2155 58.9748 41.4424 58.9748 42.123C58.9748 42.7532 58.4832 42.9549 57.9412 42.9675C56.4414 42.9927 54.9415 43.0053 53.4416 42.9675C52.7735 42.9549 52.5593 43.1566 52.4584 43.8498C51.6896 48.7528 48.7906 51.6644 43.9002 52.4332C43.1314 52.5466 42.9675 52.8113 42.9927 53.5046C43.0305 54.891 43.0053 56.2775 42.9927 57.6513C42.9927 58.2941 42.9171 58.9874 42.06 58.9495C41.3164 58.9117 41.2155 58.3067 41.2281 57.6765C41.2408 56.9455 41.2281 56.2145 41.2281 55.4834L41.266 55.5338ZM29.5063 50.7695C33.8925 50.7695 38.2662 50.7821 42.6524 50.7695C47.4798 50.7442 50.7569 47.4798 50.7695 42.665C50.7947 33.9051 50.7821 25.1452 50.7695 16.3854C50.7695 11.5076 47.4798 8.24308 42.5894 8.23048C33.8673 8.21787 25.1453 8.21787 16.4232 8.23048C11.5328 8.23048 8.25571 11.5076 8.24311 16.3854C8.2305 25.1074 8.2305 33.8295 8.24311 42.5516C8.24311 47.505 11.5076 50.7443 16.4862 50.7569C20.822 50.7695 25.1705 50.7569 29.5063 50.7569V50.7695Z" fill="#FE5000"/>
<path d="M29.418 48.4756C25.1956 48.4756 20.9607 48.3622 16.7383 48.5135C12.957 48.6395 10.4236 45.8918 10.474 42.3122C10.6 33.7792 10.5118 25.2462 10.5118 16.7132C10.5118 12.6925 12.6797 10.5246 16.7005 10.512C20.0027 10.512 23.3176 10.512 26.6199 10.512C26.8468 10.512 27.0863 10.512 27.3131 10.512C27.8803 10.512 28.3341 10.7262 28.3215 11.3564C28.3215 11.9614 27.8929 12.2009 27.3131 12.2009C26.1157 12.2009 24.931 12.2513 23.7336 12.1883C22.9521 12.1505 22.7252 12.4404 22.7883 13.1714C22.8387 13.9403 22.7883 14.7091 22.7883 15.478C22.7883 16.0452 22.5488 16.4989 21.969 16.5367C21.2884 16.5872 21.0363 16.083 21.0237 15.4906C20.9985 14.6839 20.9859 13.8773 21.0237 13.0706C21.0489 12.4404 20.8724 12.1757 20.1918 12.2009C18.8053 12.2513 17.4189 12.1757 16.045 12.2261C13.9275 12.3018 12.2638 13.8521 12.2512 15.957C12.2008 22.4481 12.2386 28.9518 12.2134 35.443C12.2134 36.0858 12.4655 36.2118 13.0326 36.1992C14.4191 36.174 15.8056 36.1992 17.1794 36.1992C17.797 36.1992 18.402 36.2748 18.4398 37.0437C18.4776 37.9134 17.8096 37.9764 17.1542 37.989C15.7677 37.989 14.3813 38.0142 13.0074 37.989C12.415 37.9764 12.2008 38.1907 12.2134 38.7831C12.2512 40.1695 12.1882 41.556 12.2386 42.9298C12.3142 45.0977 13.8897 46.6859 16.0576 46.7741C17.4441 46.8245 18.8306 46.7489 20.2044 46.7993C20.8976 46.8245 21.0489 46.5472 21.0363 45.917C21.0111 43.2323 21.0237 40.535 21.0363 37.8504C21.0363 36.4009 21.2379 36.1992 22.7 36.1992C26.0023 36.1992 29.3172 36.1866 32.6195 36.1992C33.2245 36.1992 33.5522 36.0606 33.8421 35.4682C34.6235 33.8422 36.3503 33.086 37.9636 33.5145C39.6022 33.9431 40.7492 35.3799 40.787 37.0311C40.8122 38.7074 39.64 40.1947 37.9384 40.6233C36.2747 41.0392 34.6614 40.3208 33.8295 38.6696C33.5648 38.1276 33.2623 37.9638 32.6951 37.9764C29.6953 38.0016 26.6955 38.0142 23.6958 37.9764C22.9773 37.9764 22.7883 38.2033 22.8009 38.8965C22.8387 41.2031 22.8387 43.5096 22.8009 45.8162C22.8009 46.5346 22.9521 46.8119 23.7462 46.8119C27.5904 46.7741 31.4347 46.7741 35.279 46.8119C36.0604 46.8119 36.2747 46.5598 36.2243 45.8288C36.1739 45.0599 36.2243 44.2911 36.2243 43.5222C36.2243 42.9424 36.4638 42.5013 37.0435 42.4635C37.7242 42.413 37.9762 42.9172 37.9889 43.5096C38.0141 44.2785 38.0393 45.0473 37.9889 45.8162C37.9384 46.5472 38.1527 46.8497 38.9468 46.8119C40.2072 46.7489 41.4802 46.8119 42.7532 46.7867C45.1732 46.7363 46.7865 45.1355 46.7992 42.7029C46.8244 39.2872 46.7992 35.8589 46.7992 32.4432C46.7992 32.1785 46.7992 31.9012 46.7992 31.6365C46.7992 31.1071 47.0512 30.729 47.5932 30.6912C48.2234 30.6534 48.4881 31.0693 48.4881 31.6491C48.4881 35.6824 48.5637 39.7284 48.3999 43.7491C48.2864 46.459 45.8034 48.4504 42.8036 48.4756C38.3418 48.5135 33.8925 48.4756 29.4306 48.4756H29.418ZM38.972 37.1319C38.9972 36.048 38.2283 35.2287 37.157 35.1909C36.0352 35.1531 35.1781 35.9849 35.1781 37.0941C35.1781 38.1655 35.9848 38.9721 37.0561 38.9721C38.1401 38.9721 38.9468 38.2033 38.972 37.1319Z" fill="#FE5000"/>
<path d="M37.5981 10.5119C39.2115 10.5119 40.8248 10.5119 42.4381 10.5119C46.2446 10.5371 48.4629 12.7302 48.4755 16.5114C48.4881 19.9272 48.4755 23.3555 48.4755 26.7712C48.4755 27.4392 48.6394 28.3341 47.5932 28.3089C46.6605 28.2837 46.7739 27.4644 46.7739 26.8216C46.7739 25.7503 46.7487 24.6663 46.7739 23.595C46.7992 23.0026 46.6101 22.7757 45.9925 22.8009C44.7195 22.8387 43.4591 22.8261 42.186 22.8009C41.4802 22.8009 40.5349 23.0026 40.5601 21.8934C40.5853 20.8095 41.5558 21.0489 42.2364 21.0237C43.4212 20.9985 44.6186 20.9733 45.8034 21.0237C46.5849 21.0615 46.7865 20.7716 46.7613 20.028C46.7109 18.7298 46.7739 17.4189 46.7361 16.1081C46.6731 13.8772 45.085 12.2891 42.8541 12.2134C41.5054 12.1756 40.1568 12.2386 38.8207 12.1882C38.0771 12.163 37.9258 12.4655 37.9384 13.1335C37.9636 15.8182 37.951 18.5155 37.9384 21.2002C37.9384 22.574 37.7116 22.7883 36.3251 22.7883C33.0228 22.7883 29.7205 22.8009 26.4056 22.7883C25.7628 22.7883 25.4099 22.927 25.0948 23.5698C24.3386 25.1327 22.637 25.8889 21.0615 25.4982C19.3851 25.0823 18.1877 23.5824 18.1877 21.906C18.1877 20.2675 19.3347 18.818 20.9733 18.3769C22.637 17.9357 24.3008 18.6541 25.1074 20.2675C25.3973 20.8347 25.6998 21.0363 26.3174 21.0237C29.2794 20.9985 32.2288 20.9859 35.1907 21.0237C35.947 21.0237 36.1739 20.8095 36.1613 20.0532C36.1108 17.7467 36.1108 15.4401 36.1613 13.1335C36.1739 12.3521 35.8966 12.1504 35.1781 12.1882C34.069 12.2386 32.9472 12.1882 31.838 12.2008C31.1952 12.2008 30.628 12.0874 30.6406 11.3185C30.6406 10.6001 31.2204 10.4993 31.8002 10.4993C33.716 10.4993 35.6445 10.4993 37.5603 10.4993L37.5981 10.5119ZM23.8092 21.9438C23.8218 20.8725 23.0277 20.0532 21.969 20.028C20.885 20.0028 20.0658 20.7716 20.0279 21.8304C19.9901 22.9522 20.8094 23.8092 21.9186 23.8092C22.9899 23.8092 23.7966 23.0026 23.8092 21.9438Z" fill="#FE5000"/>
<path d="M33.1867 29.4811C33.1993 31.4726 31.523 33.1615 29.5315 33.1741C27.5401 33.1867 25.8511 31.5104 25.8385 29.5189C25.8385 27.5275 27.5022 25.8385 29.4937 25.8259C31.4852 25.8259 33.1741 27.4897 33.1867 29.4811ZM27.6157 29.4811C27.6157 30.5777 28.3971 31.3844 29.4811 31.3844C30.5777 31.3844 31.3843 30.6029 31.3843 29.5189C31.3843 28.4224 30.6029 27.6283 29.5189 27.6157C28.4224 27.6157 27.6283 28.3972 27.6157 29.4811Z" fill="#FE5000"/>
</g>
<defs>
<clipPath id="clip0_2005_102">
<rect width="59" height="59" fill="white"/>
</clipPath>
</defs>
</svg>
