<svg width="59" height="59" viewBox="0 0 59 59" fill="none" xmlns="http://www.w3.org/2000/svg">
<g clip-path="url(#clip0_2005_123)">
<path d="M29.4999 47.132C39.32 47.132 47.2808 39.0607 47.2808 29.1043C47.2808 19.1479 39.32 11.0767 29.4999 11.0767C19.6799 11.0767 11.7191 19.1479 11.7191 29.1043C11.7191 39.0607 19.6799 47.132 29.4999 47.132Z" fill="#FE5000"/>
<path d="M29.5 56.3946C44.3657 56.3946 56.4167 44.1763 56.4167 29.1043C56.4167 14.0323 44.3657 1.81396 29.5 1.81396C14.6344 1.81396 2.58337 14.0323 2.58337 29.1043C2.58337 44.1763 14.6344 56.3946 29.5 56.3946Z" stroke="#FE5000" stroke-width="2" stroke-miterlimit="10"/>
<path d="M28.8509 10.563C31.7278 10.563 34.0601 8.19837 34.0601 5.28148C34.0601 2.3646 31.7278 0 28.8509 0C25.9739 0 23.6417 2.3646 23.6417 5.28148C23.6417 8.19837 25.9739 10.563 28.8509 10.563Z" fill="#FE5000"/>
<path d="M9.07501 47.6135C11.952 47.6135 14.2842 45.2489 14.2842 42.332C14.2842 39.4151 11.952 37.0505 9.07501 37.0505C6.19807 37.0505 3.86584 39.4151 3.86584 42.332C3.86584 45.2489 6.19807 47.6135 9.07501 47.6135Z" fill="#FE5000"/>
<path d="M49.9725 47.6135C52.8494 47.6135 55.1816 45.2489 55.1816 42.332C55.1816 39.4151 52.8494 37.0505 49.9725 37.0505C47.0955 37.0505 44.7633 39.4151 44.7633 42.332C44.7633 45.2489 47.0955 47.6135 49.9725 47.6135Z" fill="#FE5000"/>
<path d="M15.47 21.3H19.292L22.568 29.448H22.61L25.886 21.3H29.54V36H27.02V24.135H26.978L23.765 32.115H21.245L18.032 24.135H17.99V36H15.47V21.3ZM38.246 36.21C36.412 36.21 34.97 35.685 33.92 34.635C32.884 33.571 32.366 32.066 32.366 30.12V21.3H34.886V30.015C34.886 31.317 35.187 32.29 35.789 32.934C36.391 33.578 37.21 33.9 38.246 33.9C39.296 33.9 40.115 33.585 40.703 32.955C41.305 32.311 41.606 31.331 41.606 30.015V21.3H44.126V30.12C44.126 31.072 43.986 31.926 43.706 32.682C43.44 33.438 43.048 34.082 42.53 34.614C42.026 35.132 41.41 35.531 40.682 35.811C39.954 36.077 39.142 36.21 38.246 36.21Z" fill="#FEFEFE"/>
</g>
<defs>
<clipPath id="clip0_2005_123">
<rect width="57" height="58" fill="white" transform="translate(1)"/>
</clipPath>
</defs>
</svg>
