<svg width="80" height="80" viewBox="0 0 80 80" fill="none" xmlns="http://www.w3.org/2000/svg">
<g clip-path="url(#clip0_2009_144)">
<path d="M19.4681 17.009C20.1391 17.1015 20.7512 17.368 21.0471 18.0423C21.3706 18.7802 21.2199 19.4709 20.6372 20.0383C19.2365 21.3997 17.9921 22.8881 16.9389 24.5269C13.4501 29.9527 12.1303 35.8788 12.7314 42.2491C13.338 48.6811 15.893 54.2175 20.5085 58.8221C21.3871 59.6995 21.4404 60.7401 20.6978 61.467C19.9074 62.2411 18.8965 62.174 17.9462 61.2422C13.3931 56.7808 10.6635 51.3931 9.53857 45.1805C8.26842 38.1703 9.24631 31.4845 12.4741 25.1197C13.8692 22.3696 15.7073 19.9331 17.9186 17.7668C18.3469 17.3462 18.823 17.0598 19.4681 17.009Z" fill="white"/>
<path d="M71.9963 39.5788C71.8309 47.8816 69.1123 55.1674 63.1421 61.1624C62.6274 61.6791 62.0631 62.0906 61.2892 61.9401C60.6257 61.8114 60.0926 61.4615 59.8794 60.7835C59.6607 60.0856 59.8298 59.4656 60.3555 58.9562C61.7598 57.5966 63.0005 56.1064 64.0538 54.4676C67.5389 49.0418 68.8623 43.1138 68.2613 36.7417C67.6528 30.3116 65.0997 24.7716 60.4841 20.167C59.6018 19.2859 59.5467 18.2508 60.2893 17.5239C61.0503 16.777 62.087 16.8205 62.9803 17.6834C66.8753 21.4541 69.4579 25.9753 70.8714 31.16C71.6232 33.9137 72.0349 36.7109 71.9963 39.577V39.5788Z" fill="white"/>
<path d="M17.2385 40.4219C17.2348 33.3918 19.2862 28.1164 23.5267 23.6876C23.7363 23.4683 23.9587 23.2526 24.2068 23.0822C24.9274 22.5854 25.8685 22.6725 26.4824 23.2671C27.1092 23.8744 27.1993 24.7518 26.6442 25.4896C26.2251 26.0461 25.7233 26.5392 25.2748 27.074C22.2952 30.6362 20.7751 34.7768 20.7475 39.3487C20.7181 44.4645 22.5194 48.9839 26.0284 52.8C26.1516 52.9341 26.2839 53.061 26.4052 53.197C27.1773 54.0762 27.2122 55.0007 26.5027 55.7114C25.7876 56.4293 24.6976 56.4274 23.876 55.6461C22.3669 54.2103 21.1041 52.5788 20.1023 50.7641C18.1612 47.2454 17.1392 43.4947 17.2385 40.4237V40.4219Z" fill="white"/>
<path d="M63.7542 38.7215C63.7725 45.5613 61.7322 50.8403 57.5008 55.2781C57.2913 55.4974 57.0726 55.715 56.8263 55.889C56.0781 56.422 55.1021 56.3313 54.4808 55.6969C53.8705 55.0714 53.8025 54.2031 54.376 53.4689C54.9348 52.7528 55.5874 52.1038 56.1425 51.3859C62.0171 43.7865 61.5043 33.1887 54.9348 26.164C54.8521 26.0751 54.7657 25.9899 54.683 25.8993C53.8007 24.933 53.7456 23.9976 54.5268 23.2562C55.2822 22.5401 56.3557 22.5909 57.2215 23.4447C59.5982 25.7887 61.3572 28.5261 62.4528 31.6605C63.3387 34.1912 63.8644 36.789 63.7542 38.7215Z" fill="white"/>
<path d="M47.3967 39.4754C47.3911 43.3712 44.4207 46.2736 40.4559 46.2591C36.5333 46.2446 33.5482 43.2661 33.5776 39.3921C33.6052 35.7519 36.776 32.6646 40.4926 32.6592C44.2479 32.6537 47.4022 35.7682 47.3967 39.4754ZM40.5074 42.7585C42.3528 42.7549 43.7994 41.3028 43.7847 39.4664C43.7719 37.6753 42.3381 36.2522 40.5331 36.2395C38.6766 36.2268 37.2134 37.6554 37.2097 39.4863C37.2042 41.3227 38.6564 42.7621 40.5074 42.7585Z" fill="white"/>
<path d="M25.3685 39.481C25.4163 35.5708 26.7968 32.2079 29.4124 29.3328C30.2414 28.4209 31.1936 28.2233 32.0189 28.7382C32.96 29.3237 33.1052 30.5129 32.2542 31.4883C31.2469 32.6394 30.3352 33.8359 29.7929 35.2716C28.1956 39.5082 28.8647 43.3804 31.7303 46.8937C31.9215 47.1294 32.142 47.3415 32.324 47.5826C33.0041 48.4745 32.9637 49.4679 32.2339 50.1043C31.5116 50.7333 30.4565 50.688 29.6697 49.9139C28.4915 48.7555 27.5688 47.4031 26.8482 45.9257C25.8501 43.8826 25.3814 41.7163 25.3704 39.4829L25.3685 39.481Z" fill="white"/>
<path d="M55.6149 39.4284C55.523 43.4149 54.1959 46.8321 51.5214 49.7217C50.6667 50.6444 49.5491 50.7913 48.7605 50.097C47.9885 49.4172 47.9463 48.3566 48.7991 47.4375C50.4167 45.6954 51.4791 43.7031 51.8688 41.37C52.4405 37.9492 51.5471 34.9163 49.3726 32.2242C49.1447 31.9414 48.8782 31.6876 48.6576 31.3976C47.9812 30.5093 48.0382 29.5068 48.7826 28.8777C49.5142 28.2596 50.5858 28.3248 51.3468 29.1043C52.8283 30.6253 53.9551 32.3783 54.6812 34.3652C55.2877 36.0257 55.5745 37.7479 55.6131 39.4266L55.6149 39.4284Z" fill="white"/>
</g>
<defs>
<clipPath id="clip0_2009_144">
<rect width="63" height="45" fill="white" transform="translate(9 17)"/>
</clipPath>
</defs>
</svg>
