<svg width="80" height="80" viewBox="0 0 80 80" fill="none" xmlns="http://www.w3.org/2000/svg">
<g clip-path="url(#clip0_2009_152)">
<path d="M65.2873 54.928C65.3507 53.085 66.1746 51.6609 68.06 50.8651C68.773 50.5579 68.9948 50.2228 68.9948 49.5527C68.9631 42.8649 68.9631 36.1631 68.9948 29.4754C68.9948 28.8191 68.8047 28.4561 68.0917 28.149C66.1112 27.2973 65.1764 25.8034 65.3824 23.8766C65.4458 23.2623 65.2556 22.997 64.7011 22.7178C58.0942 19.3529 51.4873 15.9741 44.9121 12.5814C44.2625 12.2463 43.8664 12.372 43.2961 12.707C41.4582 13.81 39.5411 13.81 37.7507 12.6931C37.0694 12.2742 36.6258 12.344 35.992 12.6791C29.5277 16.0021 23.0634 19.2971 16.5833 22.5921C15.9179 22.9272 15.5851 23.2344 15.6802 24.0302C15.902 25.9709 14.4127 27.8278 12.3847 28.4003C10.2299 29.0007 7.8375 28.1909 6.69674 26.4735C5.60352 24.826 5.90455 22.7597 7.40972 21.3774C8.9941 19.9393 11.4657 19.6182 13.4145 20.7631C14.2384 21.2518 14.7613 21.1959 15.5535 20.791C21.9227 17.496 28.2919 14.2289 34.6928 11.0037C35.5009 10.5988 35.7702 10.2079 35.7068 9.34222C35.5326 6.99661 37.7824 5.02797 40.4442 5.00005C43.1851 4.97212 45.4984 6.95472 45.3241 9.37014C45.2607 10.2637 45.5776 10.6128 46.3698 11.0177C52.7707 14.2568 59.1558 17.51 65.5091 20.805C66.3172 21.2238 66.84 21.2238 67.6481 20.7631C69.9454 19.4507 72.9082 20.1208 74.2866 22.1453C75.7126 24.2396 74.9521 26.8784 72.4646 28.0373C71.609 28.4282 71.3238 28.8191 71.3238 29.6569C71.3714 36.219 71.3714 42.7671 71.3238 49.3293C71.3238 50.153 71.609 50.5579 72.4488 50.9489C74.9521 52.1077 75.6967 54.7465 74.2708 56.8408C72.8924 58.8792 69.9296 59.5634 67.6322 58.223C66.7291 57.6925 66.1746 57.8321 65.3666 58.251C59.0449 61.5181 52.7073 64.7572 46.3539 67.9685C45.5617 68.3734 45.229 68.7224 45.3082 69.616C45.4825 72.0314 43.1693 74.014 40.4283 73.9861C37.7032 73.9582 35.485 71.9337 35.6752 69.5043C35.7385 68.7364 35.4692 68.4013 34.7879 68.0523C28.3078 64.7572 21.8435 61.4622 15.3792 58.1253C14.6979 57.7763 14.2384 57.7204 13.5096 58.1393C11.0696 59.5494 8.02763 58.8932 6.64921 56.7431C5.28664 54.6209 6.11052 52.0379 8.64554 50.893C9.48526 50.516 9.65954 50.0832 9.65954 49.3432C9.62786 43.912 9.65954 38.4808 9.65954 33.0357C9.65954 32.6308 9.62786 32.2259 9.70708 31.821C9.81798 31.2904 10.1982 30.8995 10.832 30.8995C11.4657 30.8995 11.8777 31.2625 11.9727 31.807C12.052 32.1979 12.0203 32.6168 12.0203 33.0217C12.0203 38.411 12.0361 43.8003 12.0203 49.1896C12.0203 50.0134 12.1629 50.516 13.1452 50.9489C14.9989 51.7586 15.8545 53.2526 15.6327 55.0676C15.5535 55.7657 15.8386 56.017 16.409 56.3102C22.9684 59.6611 29.5277 63.012 36.0713 66.3768C36.6733 66.684 37.0853 66.67 37.6873 66.307C39.5569 65.1621 41.5057 65.1761 43.3594 66.3489C43.914 66.6979 44.2942 66.6979 44.8488 66.4187C51.4398 63.026 58.0308 59.6472 64.6536 56.2963C65.3982 55.9193 65.5091 55.5005 65.2715 54.9141L65.2873 54.928ZM40.4917 11.4644C41.9018 11.4644 42.9792 10.5011 42.9792 9.23052C42.9792 8.01583 41.9493 7.09434 40.5868 7.06642C39.1608 7.02453 38.0359 7.95998 38.0201 9.21656C38.0042 10.4871 39.0816 11.4644 40.4917 11.4644ZM10.8637 22.1593C9.43773 22.1593 8.36035 23.1087 8.36035 24.3653C8.36035 25.566 9.3902 26.5154 10.7369 26.5573C12.147 26.6132 13.2719 25.6498 13.3036 24.4072C13.3353 23.1366 12.2896 22.1733 10.8478 22.1593H10.8637ZM72.6389 24.3932C72.6706 23.1227 71.609 22.1593 70.1831 22.1593C68.8205 22.1593 67.7431 23.0529 67.6956 24.2396C67.6322 25.5102 68.6779 26.5154 70.0722 26.5573C71.4664 26.5992 72.6072 25.6498 72.6389 24.3932ZM13.3195 54.7186C13.3512 53.448 12.2896 52.4567 10.8795 52.4428C9.46942 52.4288 8.36035 53.3922 8.36035 54.6488C8.36035 55.8495 9.37435 56.7989 10.7211 56.8408C12.147 56.8967 13.2878 55.9612 13.3036 54.7186H13.3195ZM72.6389 54.6767C72.6389 53.4201 71.5615 52.4428 70.1514 52.4428C68.7413 52.4428 67.6639 53.4201 67.6798 54.6907C67.6798 55.8914 68.7254 56.8129 70.088 56.8548C71.514 56.8827 72.623 55.9472 72.6389 54.6907V54.6767ZM42.9792 69.7835C42.995 68.513 41.9335 67.5357 40.5075 67.5357C39.0974 67.5357 38.0201 68.499 38.0201 69.7696C38.0201 70.9843 39.0499 71.9058 40.4125 71.9337C41.8384 71.9756 42.9633 71.0401 42.9792 69.7835Z" fill="white"/>
<path d="M18.5008 39.4301C18.5008 36.1491 18.5325 32.868 18.485 29.6009C18.485 28.6655 18.8494 28.121 19.7525 27.6742C26.2485 24.4071 32.7286 21.1121 39.1771 17.7891C40.1277 17.3004 40.904 17.3004 41.8547 17.7891C48.319 21.1121 54.7991 24.4071 61.2792 27.6742C62.1823 28.1349 62.5467 28.6934 62.5467 29.6149C62.5151 36.2189 62.5151 42.8089 62.5467 49.4129C62.5467 50.3484 62.1823 50.8929 61.2792 51.3537C54.7516 54.6487 48.2239 57.9716 41.7121 61.3085C40.8565 61.7414 40.1435 61.7414 39.3038 61.3085C32.792 57.9716 26.2801 54.6487 19.7525 51.3537C18.8494 50.8929 18.4691 50.3484 18.485 49.4129C18.5325 46.09 18.5008 42.7671 18.5008 39.4441V39.4301ZM20.9725 30.9552C20.9408 31.1228 20.8774 31.2903 20.8774 31.4579C20.8774 37.2102 20.8774 42.9486 20.8457 48.7009C20.8457 49.4967 21.3369 49.776 21.9706 50.0971C27.7853 53.0431 33.6159 55.989 39.4147 58.9769C40.2227 59.3957 40.7931 59.4237 41.617 59.0048C47.4159 56.017 53.2147 53.057 59.0611 50.139C59.9642 49.6922 60.2018 49.1896 60.2018 48.3379C60.1702 42.9486 60.2018 37.5592 60.1702 32.1699C60.1702 31.765 60.3761 31.2903 59.9167 30.9133C59.7582 30.9692 59.6156 30.9971 59.4889 31.053C53.8485 33.9152 48.2239 36.8053 42.5518 39.6256C41.7754 40.0165 41.7121 40.5192 41.7121 41.1754C41.7121 45.6711 41.7121 50.1529 41.7121 54.6487C41.7121 55.0536 41.7438 55.4724 41.6487 55.8494C41.5219 56.38 41.11 56.729 40.4604 56.7011C39.89 56.6732 39.5098 56.3381 39.3989 55.8634C39.3038 55.4724 39.3355 55.0675 39.3355 54.6626C39.3355 50.2227 39.3038 45.7689 39.3513 41.329C39.3513 40.4214 39.082 39.8909 38.1314 39.4162C32.8554 36.8053 27.6427 34.0967 22.3826 31.4439C21.9548 31.2345 21.5904 30.8715 20.9725 30.9413V30.9552ZM58.8076 28.7772C52.9295 25.7893 47.0356 22.7875 41.1417 19.7857C40.6822 19.5483 40.3337 19.5623 39.8742 19.7857C33.9803 22.8015 28.0863 25.7893 22.1607 28.8051C22.3192 28.9587 22.3826 29.0983 22.5093 29.1541C28.2765 32.0862 34.0436 35.0182 39.795 37.9641C40.4604 38.3132 40.9357 38.1038 41.4744 37.8245C47.0198 35.0042 52.5651 32.1699 58.1105 29.3496C58.364 29.224 58.665 29.1262 58.8076 28.7632V28.7772Z" fill="white"/>
</g>
<defs>
<clipPath id="clip0_2009_152">
<rect width="69" height="69" fill="white" transform="translate(6 5)"/>
</clipPath>
</defs>
</svg>
