<svg width="80" height="80" viewBox="0 0 80 80" fill="none" xmlns="http://www.w3.org/2000/svg">
<g clip-path="url(#clip0_2009_163)">
<path d="M80 39.9602C80.0149 42.3957 78.5211 44.5132 76.0583 45.3795C75.3231 45.6374 75.0468 46.0287 74.8535 46.7789C72.0486 57.6067 65.387 64.7973 54.8665 68.3077C54.6987 68.3636 54.5287 68.4195 54.3544 68.4474C52.884 68.6839 51.881 69.2772 51.2967 70.8916C50.5487 72.9574 48.1369 74.159 46.029 73.9828C43.7703 73.7957 41.7601 72.205 41.112 69.993C40.9122 69.3137 40.5701 69.0063 39.905 68.8408C31.2375 66.6933 24.7608 61.6459 20.5088 53.7115C19.3571 51.564 18.4965 49.2854 17.9908 46.8907C17.8187 46.0781 17.4638 45.6181 16.6394 45.3257C14.2743 44.4831 12.8485 42.4194 12.823 40.0376C12.7975 37.6472 14.2637 35.5255 16.6712 34.6613C17.4447 34.384 17.7826 33.9584 17.9717 33.1823C20.0541 24.6955 24.9031 18.3282 32.4147 14.0289C34.7712 12.6811 37.2978 11.7567 39.9348 11.1505C40.5531 11.0087 40.8952 10.7227 41.0886 10.08C41.8153 7.67454 43.8914 6.07735 46.2713 6.00641C48.6002 5.93762 50.8356 7.44668 51.6579 9.8027C51.9575 10.6626 52.4123 11.0237 53.2559 11.2451C62.6288 13.7043 69.3032 19.4331 73.2938 28.3499C73.9653 29.8504 74.522 31.4132 74.8131 33.0362C74.9703 33.9111 75.3188 34.3711 76.1815 34.672C78.5274 35.4932 79.9851 37.6042 79.9979 39.958L80 39.9602ZM72.4714 34.1647C72.1803 32.6879 71.7511 31.2498 71.1731 29.8611C67.6585 21.4345 61.509 16.0904 52.7863 13.7387C52.1552 13.5689 51.7514 13.6613 51.3774 14.2761C48.8509 18.425 43.9849 18.4486 41.4796 14.3234C41.1205 13.7323 40.7656 13.5452 40.1027 13.728C29.8797 16.5655 23.3158 23.1069 20.494 33.4704C20.2815 34.2507 20.4111 34.657 21.1654 35.0891C24.9626 37.2581 24.9818 42.7182 21.1952 44.8915C20.3941 45.3494 20.29 45.7922 20.511 46.5983C23.3095 56.7726 29.7373 63.2732 39.7584 66.1838C40.6615 66.4461 41.129 66.2806 41.6347 65.4357C43.9041 61.6438 49.0209 61.6889 51.2521 65.5067C51.6983 66.2698 52.1254 66.4439 52.9584 66.2204C58.4173 64.7479 63.0538 61.9469 66.7278 57.5831C69.5072 54.2812 71.3962 50.515 72.3907 46.2888C72.5352 45.6761 72.4353 45.3193 71.8297 45.0054C69.8132 43.965 68.772 42.1937 68.7826 39.9623C68.7932 37.7761 69.8408 36.0607 71.7936 34.9923C72.1315 34.8075 72.5543 34.7021 72.4714 34.1647ZM77.4289 39.9946C77.4289 38.2577 76.0158 36.8281 74.3371 36.8604C72.7222 36.8905 71.341 38.3394 71.341 39.9989C71.341 41.6305 72.7604 43.1137 74.3435 43.1374C76.0243 43.1632 77.4289 41.7315 77.4267 39.9924L77.4289 39.9946ZM21.4948 40.0311C21.5118 38.3931 20.0902 36.8905 18.4965 36.8604C16.8264 36.8303 15.4664 38.1846 15.4303 39.9129C15.392 41.7122 16.7052 43.1202 18.4328 43.1374C20.0158 43.1546 21.4757 41.6713 21.4927 40.029L21.4948 40.0311ZM49.4055 11.7159C49.4076 9.90373 48.2071 8.65478 46.4476 8.64188C44.6776 8.62684 43.3176 9.98542 43.3431 11.746C43.3665 13.4098 44.7668 14.7963 46.42 14.7963C48.0881 14.7963 49.4034 13.4399 49.4055 11.718V11.7159ZM49.4055 68.3485C49.4246 66.6116 48.1476 65.2337 46.4901 65.2014C44.8008 65.1692 43.3346 66.6095 43.3431 68.2926C43.3516 70.0188 44.6606 71.3365 46.3818 71.3537C48.1454 71.3709 49.3843 70.1392 49.4034 68.3464L49.4055 68.3485Z" fill="white"/>
<path d="M19.5123 6C24.9287 6 30.3451 6 35.7615 6.00215C36.1503 6.00215 36.5477 5.98925 36.9238 6.06234C37.5464 6.18272 37.931 6.5933 37.9671 7.24465C38.0033 7.90459 37.6548 8.34097 37.03 8.49575C36.6582 8.58818 36.2608 8.62043 35.8762 8.62043C24.9733 8.62688 14.0704 8.62688 3.16531 8.62258C1.64387 8.62473 0.995771 8.21629 1.00002 7.31129C1.00427 6.40843 1.66512 6 3.15893 6C8.60933 6 14.0619 6 19.5123 6Z" fill="white"/>
<path d="M19.5484 73.9978C14.1681 73.9978 8.78569 73.9978 3.40541 73.9978C3.05055 73.9978 2.69569 74.0085 2.34508 73.9763C1.59073 73.9032 1.04463 73.5442 1.01063 72.7209C0.976634 71.8696 1.54611 71.5257 2.28558 71.4268C2.70419 71.3709 3.13342 71.373 3.55628 71.373C14.2127 71.3709 24.867 71.3709 35.5235 71.373C35.8762 71.373 36.2332 71.3601 36.5838 71.401C37.3573 71.4934 37.9905 71.8116 37.9629 72.7166C37.9352 73.5915 37.3488 73.9483 36.5413 73.9892C36.2226 74.0042 35.9038 73.9999 35.5851 73.9999C30.2388 73.9999 24.8947 73.9999 19.5484 73.9999V73.9978Z" fill="white"/>
<path d="M9.77164 24.9771C7.5086 24.9771 5.24557 24.9771 2.98254 24.9771C2.55756 24.9771 2.12833 24.9943 1.73734 24.7858C1.26136 24.5321 0.968124 24.1473 1.00425 23.5841C1.04037 23.0295 1.33361 22.6339 1.86696 22.4878C2.2027 22.3953 2.56181 22.3502 2.91029 22.3502C7.40023 22.3416 11.8923 22.3437 16.3822 22.3437C16.5246 22.3437 16.6649 22.3437 16.8072 22.3523C17.6296 22.3996 18.2819 22.6963 18.3669 23.6249C18.437 24.3859 17.7826 24.9513 16.7732 24.962C14.4401 24.9878 12.1048 24.9706 9.77164 24.9706C9.77164 24.9706 9.77164 24.9749 9.77164 24.9771Z" fill="white"/>
<path d="M9.7759 55.0206C11.9327 55.0206 14.0895 55.0163 16.2463 55.0249C16.633 55.0249 17.0325 55.0314 17.4022 55.1281C18.0163 55.2851 18.3797 55.7343 18.3648 56.3771C18.3499 56.9682 18.0036 57.3874 17.4277 57.5336C17.0898 57.6196 16.7307 57.6497 16.3801 57.6518C11.9242 57.6604 7.46824 57.6561 3.01442 57.6561C2.87205 57.6561 2.73181 57.6583 2.58944 57.6497C1.54186 57.5809 0.940509 57.0951 1.00851 56.3061C1.08925 55.371 1.7416 55.0679 2.56182 55.0335C3.12704 55.0099 3.69227 55.0228 4.25962 55.0228C6.09767 55.0228 7.93785 55.0228 9.7759 55.0228V55.0206Z" fill="white"/>
<path d="M4.93109 41.278C4.08113 41.278 3.23116 41.3038 2.38332 41.2694C1.57585 41.2371 0.997877 40.8524 1.01488 39.9624C1.02975 39.1326 1.5886 38.7435 2.34932 38.7306C4.08325 38.7005 5.8193 38.6963 7.55323 38.7263C8.32033 38.7392 8.86005 39.1584 8.8643 39.9796C8.86855 40.861 8.29483 41.25 7.48311 41.2758C6.63527 41.3038 5.78318 41.2823 4.93322 41.2823C4.93322 41.2823 4.93322 41.278 4.93322 41.2758L4.93109 41.278Z" fill="white"/>
<path d="M46.2606 60.6399C35.1729 60.627 25.9699 51.2094 25.9954 39.9022C26.0187 28.5929 35.2812 19.2957 46.5603 19.373C57.4249 19.4483 66.7746 28.2103 66.7873 39.9904C66.8 51.7812 57.3548 60.6593 46.2606 60.6399ZM60.7993 41.2995V41.2952C60.0917 41.2952 59.3799 41.349 58.6786 41.2823C57.7182 41.1899 57.2209 41.5123 57.1891 42.5442C57.1104 44.9518 56.6685 47.3035 56.0034 49.6101C55.8483 50.1475 56.1011 50.313 56.5261 50.4463C57.5036 50.7558 58.4853 51.0589 59.4457 51.4179C59.9515 51.6071 60.2383 51.4201 60.5252 51.0396C62.4992 48.4235 63.721 45.5021 64.1142 42.2239C64.1928 41.5639 64.0058 41.2823 63.3471 41.2952C62.4992 41.3124 61.6493 41.2995 60.8014 41.2995H60.7993ZM32.0514 41.3038C31.1674 41.3038 30.2834 41.3038 29.3995 41.3038C28.8767 41.3038 28.6196 41.5209 28.6834 42.0949C29.0595 45.4096 30.2834 48.3697 32.2638 51.0267C32.6208 51.5061 32.9927 51.577 33.5452 51.3534C34.3951 51.0095 35.2727 50.7107 36.1609 50.4893C36.8175 50.3259 36.9195 50.0228 36.7495 49.4166C36.0781 47.0369 35.7083 44.6035 35.549 42.1379C35.5107 41.5575 35.2706 41.2931 34.7011 41.2995C33.8172 41.3081 32.9332 41.3017 32.0492 41.3017L32.0514 41.3038ZM60.8078 38.7049C61.5515 38.7049 62.2952 38.6705 63.0368 38.7135C63.891 38.7629 64.2353 38.5351 64.0972 37.557C63.6722 34.5496 62.5587 31.8561 60.8567 29.3711C60.3849 28.6832 59.9578 28.5542 59.2014 28.9003C58.3705 29.2808 57.4611 29.4915 56.5835 29.7623C56.2137 29.8762 55.9056 30.0009 56.048 30.4953C56.7492 32.9094 57.0764 35.388 57.2677 37.888C57.3187 38.5458 57.6884 38.7178 58.2643 38.707C59.1121 38.692 59.9621 38.7027 60.812 38.707L60.8078 38.7049ZM32.0322 38.6984C32.9162 38.6984 33.798 38.6984 34.682 38.6984C35.1601 38.6984 35.5001 38.5608 35.5383 37.989C35.6977 35.5255 36.0674 33.0921 36.7092 30.7082C36.8685 30.1149 36.605 29.8676 36.0674 29.715C35.2175 29.4764 34.3633 29.2271 33.5494 28.8896C32.8291 28.5886 32.3913 28.7498 31.9494 29.3904C30.1963 31.9292 29.068 34.6979 28.6982 37.7827C28.6175 38.4577 28.8534 38.7113 29.4887 38.7027C30.3366 38.692 31.1844 38.7006 32.0322 38.6984ZM45.1089 45.242C45.1089 44.2402 45.0962 43.2363 45.1132 42.2346C45.1238 41.622 44.8964 41.2952 44.2505 41.2995C42.4443 41.3103 40.6403 41.306 38.8341 41.2995C38.3241 41.2995 38.0585 41.4457 38.1052 42.054C38.2795 44.3456 38.6152 46.6027 39.2293 48.819C39.3866 49.3844 39.6585 49.6896 40.2748 49.6273C41.6815 49.4854 43.0712 49.1887 44.4948 49.1801C45.0176 49.1758 45.1111 48.7911 45.1111 48.359C45.1111 47.3207 45.1111 46.2824 45.1111 45.2441L45.1089 45.242ZM47.712 45.2334C47.712 45.2334 47.7141 45.2334 47.7162 45.2334C47.7162 46.2695 47.7162 47.3056 47.7162 48.3418C47.7162 48.8319 47.8671 49.1866 48.4281 49.1909C49.7752 49.1995 51.0969 49.4445 52.425 49.6208C52.9987 49.6961 53.3749 49.5219 53.5448 48.9243C54.1738 46.7209 54.5776 44.4788 54.6753 42.183C54.7029 41.5274 54.3821 41.2952 53.7765 41.2974C52.0808 41.3081 50.3872 41.3167 48.6915 41.2931C47.9478 41.2823 47.6907 41.6306 47.7098 42.3399C47.7353 43.303 47.7162 44.2682 47.7162 45.2334H47.712ZM45.1111 34.8333C45.1111 33.9047 45.0856 32.9739 45.1196 32.0452C45.1451 31.3273 44.888 31.0027 44.1464 31.007C42.8735 31.0113 41.6071 30.8715 40.3555 30.6394C39.6607 30.5104 39.3292 30.7727 39.1486 31.4627C38.5961 33.578 38.2858 35.7255 38.1074 37.9031C38.0521 38.5716 38.339 38.7092 38.8914 38.707C40.6573 38.6984 42.4252 38.6898 44.191 38.707C44.8773 38.7135 45.1366 38.3975 45.1196 37.7289C45.0962 36.7637 45.1132 35.7985 45.1153 34.8333H45.1111ZM51.1054 38.7006C51.9894 38.7006 52.8734 38.692 53.7573 38.7027C54.3544 38.7113 54.6987 38.4964 54.6732 37.8321C54.5861 35.6051 54.1972 33.4318 53.6043 31.2907C53.4535 30.7447 53.1177 30.5405 52.5738 30.6329C51.2478 30.8565 49.9134 31.0005 48.5683 31.0199C48.0073 31.0263 47.712 31.252 47.7141 31.8475C47.7205 33.851 47.7205 35.8523 47.7141 37.8558C47.7141 38.4362 47.9903 38.7049 48.5598 38.7006C49.4076 38.6941 50.2576 38.7006 51.1054 38.7006ZM45.1111 25.6264C45.1111 24.9836 45.0983 24.3387 45.1153 23.696C45.1344 22.963 44.7987 22.8985 44.2675 23.2231C43.1264 23.9217 42.2297 24.8805 41.5306 26.0155C41.1672 26.6066 40.4256 27.2773 40.7189 27.8728C41.01 28.4661 41.9747 28.3113 42.6717 28.3457C45.5743 28.4854 45.0643 28.479 45.1132 26.0563C45.1153 25.9123 45.1132 25.7704 45.1132 25.6264H45.1111ZM47.712 25.6006C47.712 25.6006 47.7141 25.6006 47.7162 25.6006C47.7162 26.2412 47.7162 26.8839 47.7162 27.5245C47.7162 28.0146 47.8841 28.3736 48.4323 28.3779C49.5245 28.3865 50.6167 28.4037 51.6919 28.1587C52.0425 28.0791 52.3421 27.976 52.1254 27.5331C51.2712 25.7833 50.2172 24.2012 48.4854 23.208C47.9648 22.9092 47.695 23.0403 47.7077 23.6745C47.7205 24.3151 47.7098 24.9578 47.7098 25.5984L47.712 25.6006ZM45.1089 54.4145C45.1089 54.4145 45.1047 54.4145 45.1026 54.4145C45.1026 53.7331 45.1026 53.0538 45.1026 52.3724C45.1026 51.9403 44.9347 51.6995 44.4566 51.7533C43.3665 51.8758 42.2743 51.9811 41.1842 52.0951C40.8655 52.1295 40.5808 52.2348 40.7699 52.6303C41.6028 54.3716 42.7184 55.8763 44.4141 56.8501C44.9262 57.1446 45.1174 56.8695 45.1089 56.3492C45.1004 55.7043 45.1068 55.0594 45.1068 54.4145H45.1089ZM47.7098 54.3716C47.7098 54.9799 47.7332 55.5883 47.7035 56.1945C47.6631 57.0844 48.0583 57.0672 48.6575 56.7039C49.8071 56.0053 50.6358 54.995 51.3562 53.8771C52.3889 52.2713 52.3783 52.1295 50.519 51.979C47.185 51.7124 47.78 51.0869 47.7098 54.3716ZM52.5886 23.2446C53.4152 24.4462 54.1164 25.6737 54.7348 26.9527C54.8835 27.2601 55.1109 27.5009 55.4849 27.3998C56.2329 27.1956 56.9766 26.9742 57.7139 26.7378C58.0794 26.6217 58.1559 26.396 57.8308 26.1316C56.2669 24.8547 54.6031 23.7562 52.5886 23.2446ZM40.2344 23.2295C38.2518 23.7691 36.5668 24.8267 35.0135 26.1208C34.6013 26.4647 34.8584 26.6668 35.2111 26.7786C35.8826 26.9936 36.5625 27.1827 37.2383 27.3848C37.6569 27.5095 37.9097 27.316 38.0797 26.9484C38.6747 25.6543 39.4439 24.4656 40.2323 23.2295H40.2344ZM40.4341 56.9597C39.7265 55.8548 39.1507 55.0422 38.6662 54.1781C37.795 52.626 37.8184 52.611 36.1588 53.1484C35.8889 53.2344 35.6212 53.3225 35.3535 53.4128C35.0114 53.5289 34.8371 53.7439 35.1792 54.0169C36.6964 55.2379 38.3198 56.2718 40.4341 56.9576V56.9597ZM52.3995 56.9017C54.0251 56.5169 55.198 55.7387 56.3561 54.9649C56.8895 54.608 57.8478 54.292 57.7182 53.688C57.6141 53.2 56.5983 53.1162 55.9545 52.9549C55.5338 52.8496 55.0004 52.5658 54.7178 53.1291C54.0867 54.3866 53.3281 55.5625 52.3974 56.9017H52.3995Z" fill="white"/>
</g>
<defs>
<clipPath id="clip0_2009_163">
<rect width="79" height="68" fill="white" transform="translate(1 6)"/>
</clipPath>
</defs>
</svg>
