<svg width="102" height="120" viewBox="0 0 102 120" fill="none" xmlns="http://www.w3.org/2000/svg">
<g clip-path="url(#clip0_2002_438)" filter="url(#filter0_i_2002_438)">
<path d="M18.1573 32.0055C22.7138 32.0055 27.2729 31.9946 31.8293 32.0055C34.7339 32.0137 36.2983 33.5762 36.3037 36.4804C36.3174 42.8423 36.3174 49.2042 36.3037 55.5661C36.2983 58.4648 34.7366 59.9973 31.8157 60.0164C29.6277 60.0301 27.4398 60.0055 25.2518 60.0355C24.8634 60.041 24.1961 59.7546 24.1797 60.4718C24.1688 61.0717 24.5899 61.4562 25.26 61.448C25.6237 61.4426 25.9902 61.4481 26.354 61.4644C27.4398 61.508 28.0606 62.048 28.077 63.1551C28.0934 64.2513 27.5218 64.9003 26.4251 64.9058C20.9114 64.9276 15.395 64.9276 9.88137 64.9058C8.78465 64.9003 8.21578 64.2513 8.22946 63.1551C8.24587 62.048 8.86944 61.538 9.95248 61.4562C10.7921 61.3935 12.1678 61.7998 12.0584 60.4827C11.9818 59.561 10.6909 60.0791 9.96068 60.0519C8.00519 59.9728 6.0415 60.0519 4.08327 60.0137C1.7066 59.9701 0.0273386 58.3312 0.0163988 55.9669C-0.0136857 49.3324 -0.0136857 42.6978 0.0163988 36.0632C0.0328085 33.6771 1.68472 32.0355 4.07507 32.0191C8.76824 31.9837 13.4642 32.0082 18.1573 32.0055ZM18.1491 35.4796C13.9154 35.4796 9.68172 35.4742 5.44801 35.4823C3.76875 35.4851 3.50073 35.7332 3.49799 37.3421C3.48979 43.1532 3.51167 48.9615 3.48158 54.7726C3.47338 56.0515 3.97661 56.5614 5.26477 56.5587C13.8689 56.5314 22.4731 56.5314 31.0772 56.5587C32.3818 56.5614 32.8468 56.0133 32.8385 54.7507C32.8085 48.9397 32.8303 43.1313 32.8221 37.3203C32.8221 35.7605 32.5486 35.4878 30.987 35.4851C26.7068 35.4742 22.4293 35.4823 18.1491 35.4796ZM18.2148 61.4535C18.6223 61.4535 19.0298 61.4835 19.4318 61.4453C19.7874 61.4126 20.3644 61.6417 20.3453 60.9872C20.3316 60.5264 20.0636 60.0873 19.5221 60.0628C18.6223 60.0219 17.717 60.0273 16.8172 60.0573C16.2729 60.0764 16.0049 60.5018 15.9721 60.9627C15.9256 61.6253 16.5027 61.4181 16.861 61.4453C17.3095 61.4808 17.7635 61.4535 18.2148 61.4535Z" fill="#FE5000" fill-opacity="0.8"/>
<path d="M83.7305 64.9303C79.2206 64.9303 74.7106 64.9384 70.2007 64.9275C67.2114 64.9193 65.6689 63.3732 65.647 60.3954C65.6443 59.8964 65.6415 59.3973 65.647 58.8956C65.6689 57.0249 65.9697 56.6404 67.8377 56.5695C68.8114 56.5341 68.9399 56.0596 68.9372 55.2715C68.918 51.2302 68.9208 47.1862 68.9317 43.1449C68.9399 40.058 70.4441 38.5555 73.5456 38.5528C80.3802 38.5446 87.2121 38.5446 94.0467 38.5528C97.14 38.5555 98.6579 40.0744 98.6661 43.1558C98.677 47.1071 98.6934 51.0584 98.6524 55.0097C98.6415 56.0323 98.7946 56.6622 100.044 56.5722C101.346 56.4795 101.885 57.224 101.959 58.4974C102.235 63.1523 101.138 65.2057 95.7534 64.9657C91.7521 64.7885 87.7372 64.9303 83.7278 64.9303H83.7305ZM83.7606 56.545C87.1301 56.545 90.4995 56.515 93.8662 56.5641C94.8836 56.5777 95.2118 56.2259 95.2009 55.2224C95.1571 51.4102 95.1571 47.5952 95.1954 43.783C95.2091 42.4932 94.6758 42.005 93.3986 42.0105C87.0261 42.0405 80.651 42.0187 74.2785 42.0269C72.7032 42.0269 72.427 42.2996 72.4215 43.8375C72.4078 47.6061 72.4461 51.372 72.3969 55.1406C72.3832 56.1932 72.6977 56.5832 73.7917 56.5641C77.1147 56.5068 80.4376 56.5422 83.7606 56.5422V56.545ZM83.7934 60.0218C79.3327 60.0218 74.8693 60.0136 70.4086 60.0327C69.971 60.0327 69.2462 59.7791 69.2435 60.5563C69.2435 61.1998 69.8233 61.418 70.4195 61.4398C70.8298 61.4562 71.24 61.4534 71.6475 61.4534C79.3409 61.4534 87.0371 61.4534 94.7305 61.4534C95.551 61.4534 96.3687 61.4562 97.1892 61.4398C97.7909 61.4262 98.368 61.1889 98.357 60.5481C98.3434 59.7818 97.6213 60.0382 97.1783 60.0354C92.7176 60.0163 88.2541 60.0245 83.7934 60.0245V60.0218Z" fill="#FE5000" fill-opacity="0.8"/>
<path d="M41.0325 51.7319C41.0325 48.7787 41.016 45.8254 41.0379 42.8749C41.0571 40.148 42.6379 38.5718 45.3756 38.5555C49.1115 38.5364 52.8474 38.5364 56.5834 38.5555C59.3047 38.5691 60.9128 40.1698 60.921 42.8885C60.9402 48.795 60.9402 54.6988 60.921 60.6053C60.9128 63.3295 59.3183 64.9084 56.5834 64.9248C52.8474 64.9466 49.1115 64.9466 45.3756 64.9248C42.6543 64.9111 41.0571 63.3077 41.0379 60.5917C41.0188 57.6384 41.0325 54.6852 41.0325 51.7347V51.7319ZM50.8974 56.5449C52.6724 56.5449 54.4474 56.5177 56.2224 56.5558C57.0784 56.5749 57.4668 56.3022 57.4504 55.3914C57.4121 52.9427 57.4176 50.4912 57.4476 48.0397C57.4586 47.2134 57.1276 46.9189 56.3154 46.9244C52.7654 46.9489 49.2154 46.9544 45.6655 46.9216C44.7411 46.9135 44.4949 47.3116 44.5086 48.1542C44.5414 50.5593 44.5469 52.9645 44.5086 55.3696C44.4949 56.2586 44.8313 56.5777 45.712 56.5586C47.4404 56.5149 49.1717 56.5449 50.9002 56.5477L50.8974 56.5449ZM50.9822 43.4557C52.801 43.4557 54.6197 43.4612 56.4384 43.4503C56.8268 43.4503 57.3519 43.5375 57.3464 42.924C57.3437 42.4686 56.9882 42.1932 56.5642 42.095C56.2579 42.0241 55.9325 42.0295 55.6152 42.0268C52.5247 42.0214 49.4315 42.0214 46.341 42.0268C46.0237 42.0268 45.6983 42.0241 45.392 42.095C44.9681 42.1959 44.6125 42.4713 44.6125 42.9267C44.6125 43.5348 45.1376 43.4448 45.526 43.4475C47.3447 43.4585 49.1635 43.453 50.9822 43.453V43.4557ZM50.9931 61.4534C51.9941 61.4534 52.9924 61.4534 53.9934 61.4534C54.7674 61.4507 55.5414 61.4643 56.3126 61.4261C56.8596 61.3989 57.3492 61.1153 57.341 60.5399C57.33 59.8554 56.701 60.0408 56.2853 60.0327C54.8768 60.0108 53.4655 60.0245 52.057 60.0245C49.921 60.0245 47.7823 60.0163 45.6463 60.0354C45.2333 60.0381 44.6152 59.8636 44.6207 60.5699C44.6234 61.0825 45.0528 61.347 45.5424 61.4152C45.8542 61.4616 46.1769 61.4534 46.4942 61.4561C47.9956 61.4588 49.4944 61.4561 50.9959 61.4561L50.9931 61.4534Z" fill="#FE5000" fill-opacity="0.8"/>
<path d="M52.6998 69.8387C52.6998 70.4305 52.8666 71.0822 52.6669 71.5976C52.1664 72.8956 52.8803 73.0238 53.8758 73.2337C57.9974 74.1009 61.2164 76.3261 63.511 79.8574C64.3151 81.0954 64.2194 82.0717 63.2703 82.7289C62.3022 83.397 61.416 83.1433 60.508 81.9353C57.0976 77.395 52.9103 75.7398 47.9245 76.9969C45.5014 77.6077 43.5267 78.9357 41.9924 80.9045C41.656 81.3354 41.3634 81.799 41.0215 82.2244C40.3788 83.0234 39.5802 83.3751 38.6284 82.8052C37.622 82.2026 37.5317 81.2591 38.0158 80.3101C38.7242 78.9248 39.7087 77.725 40.893 76.7051C43.1192 74.7935 45.6819 73.5691 48.5809 73.0783C49.2565 72.9638 49.5409 72.9092 49.385 72.0066C49.1471 70.6377 49.2209 69.2006 49.2893 67.799C49.3358 66.8336 50.0195 66.3837 50.974 66.381C51.9285 66.381 52.563 66.8282 52.6724 67.7935C52.749 68.4671 52.6861 69.1543 52.6861 69.836C52.6888 69.836 52.6943 69.836 52.697 69.836L52.6998 69.8387Z" fill="#FE5000" fill-opacity="0.8"/>
<path d="M26.3567 82.9252C23.7613 82.9252 21.1685 82.9415 18.5731 82.9224C16.9266 82.9088 16.4316 82.4343 16.4234 80.8227C16.4043 76.7378 16.407 72.6529 16.4207 68.5707C16.4261 67.0163 16.9813 66.3619 18.2011 66.3864C19.3635 66.4082 19.8859 67.0354 19.8941 68.5216C19.9105 71.6521 19.946 74.7853 19.8776 77.9158C19.8503 79.0911 20.1867 79.5002 21.412 79.4838C25.6894 79.4184 29.9696 79.4647 34.2471 79.4593C35.3192 79.4593 36.1479 79.7592 36.2819 80.9781C36.4132 82.1753 35.754 82.9034 34.4139 82.9197C31.7282 82.9524 29.0425 82.9306 26.3567 82.9306V82.9252Z" fill="#FE5000" fill-opacity="0.8"/>
<path d="M75.5749 82.9252C73.0724 82.9252 70.5672 82.9334 68.0647 82.9252C66.339 82.9198 65.6826 82.4426 65.6662 81.2155C65.6498 79.9747 66.3171 79.4566 68.01 79.4539C72.1508 79.4457 76.2942 79.4102 80.4349 79.4757C81.6574 79.4948 82.1197 79.1839 82.0841 77.8832C81.9966 74.709 82.0403 71.5295 82.0677 68.3526C82.0786 66.9182 82.8061 66.2392 84.0533 66.3919C85.0269 66.5119 85.5192 67.1064 85.5219 68.0444C85.5383 72.4457 85.5465 76.8497 85.5165 81.2509C85.5083 82.5271 84.655 82.9307 83.4926 82.9252C80.8534 82.9143 78.2114 82.9225 75.5722 82.9252H75.5749Z" fill="#FE5000" fill-opacity="0.8"/>
<path d="M51.9313 77.8505C54.3736 77.8832 57.1468 79.3857 59.1816 82.2435C60.0158 83.4134 59.9447 84.4851 59.075 85.1532C58.1834 85.8376 57.0538 85.6713 56.288 84.4305C54.163 80.9837 48.4442 80.1356 45.4412 84.4823C44.6098 85.6849 43.6088 85.8403 42.6516 85.1122C41.8065 84.4687 41.76 83.4925 42.5203 82.3172C44.3062 79.5575 47.4678 77.8586 51.9313 77.8505Z" fill="#FE5000" fill-opacity="0.8"/>
<path d="M50.8728 82.7479C52.7408 82.8325 54.2149 83.5878 55.205 85.1885C55.7328 86.0393 55.6672 86.8465 54.9014 87.5119C54.1411 88.1745 53.3425 88.1363 52.5439 87.5337C51.4116 86.681 50.2985 86.6765 49.2045 87.52C48.4169 88.1281 47.6128 88.1909 46.847 87.5255C46.125 86.8983 46.0566 86.0857 46.5024 85.3003C47.4541 83.6178 48.9638 82.8188 50.8728 82.7507V82.7479Z" fill="#FE5000" fill-opacity="0.8"/>
</g>
<defs>
<filter id="filter0_i_2002_438" x="0" y="32" width="102" height="60" filterUnits="userSpaceOnUse" color-interpolation-filters="sRGB">
<feFlood flood-opacity="0" result="BackgroundImageFix"/>
<feBlend mode="normal" in="SourceGraphic" in2="BackgroundImageFix" result="shape"/>
<feColorMatrix in="SourceAlpha" type="matrix" values="0 0 0 0 0 0 0 0 0 0 0 0 0 0 0 0 0 0 127 0" result="hardAlpha"/>
<feOffset dy="4"/>
<feGaussianBlur stdDeviation="2"/>
<feComposite in2="hardAlpha" operator="arithmetic" k2="-1" k3="1"/>
<feColorMatrix type="matrix" values="0 0 0 0 0.628205 0 0 0 0 0.262687 0 0 0 0 0.0946332 0 0 0 0.68 0"/>
<feBlend mode="normal" in2="shape" result="effect1_innerShadow_2002_438"/>
</filter>
<clipPath id="clip0_2002_438">
<rect width="102" height="56" fill="white" transform="translate(0 32)"/>
</clipPath>
</defs>
</svg>
