<svg width="137" height="120" viewBox="0 0 137 120" fill="none" xmlns="http://www.w3.org/2000/svg">
<g filter="url(#filter0_i_2002_441)">
<circle cx="40.5" cy="59.5" r="38.5" stroke="#FE5000" stroke-width="4"/>
</g>
<g filter="url(#filter1_i_2002_441)">
<circle cx="96.5" cy="59.5" r="38.5" stroke="#A8A5A5" stroke-opacity="0.8" stroke-width="4"/>
</g>
<g filter="url(#filter2_i_2002_441)">
<path d="M38.669 48.8207C40.1116 49.6483 41.8667 50.5576 43.2277 51.4396C43.4486 51.5831 43.8906 51.8244 43.9659 52.073L43.9985 65.6613C44.0123 65.8568 43.927 65.9582 43.814 66.098C43.4624 66.531 40.7883 67.8263 40.0827 68.2357C38.0111 69.4382 35.971 70.6864 33.9208 71.8196C33.4286 72.0918 31.9246 73.0233 31.4927 72.9998C29.3358 71.8543 27.1952 70.6654 25.0709 69.4605C24.4143 69.0881 23.7463 68.5908 23.0069 68.2988C22.3942 67.6704 19.6058 66.6176 19.2505 66.0349C19.15 65.8704 19.1061 65.7343 19.1262 65.5389C19.4513 61.329 18.7206 56.5513 19.1262 52.4107C19.2166 51.4854 20.5574 51.16 21.2906 50.7357C23.4011 49.5122 25.612 48.1712 27.7061 47.0046C28.9064 46.3353 30.1192 45.6685 31.3257 45.0154C31.7726 44.9337 32.1681 45.2009 32.546 45.3865C34.5171 46.3514 36.7356 47.7122 38.669 48.8207ZM32.6377 46.9687C32.3527 46.8166 31.7199 46.4331 31.4349 46.4937L26.0137 49.5258C24.7984 50.2372 23.504 51.0215 22.3013 51.734C22.1582 51.8194 21.0295 52.2239 21.2655 52.48C23.0483 53.1753 24.6415 54.306 26.305 55.2474C27.7438 56.0627 29.2089 56.8445 30.6653 57.6313C31.0005 57.8119 31.2742 58.2672 31.7161 58.1497C33.5617 57.082 35.3947 55.9835 37.2465 54.9282C37.9233 54.5423 38.6891 54.2157 39.3683 53.8285C40.1781 53.3658 40.9163 52.7027 41.8567 52.48C41.9132 52.2326 41.7726 52.245 41.6332 52.1448C40.1455 51.0809 37.9986 50.0986 36.3677 49.1745C35.2026 48.5139 33.9045 47.6442 32.6389 46.9687H32.6377ZM20.5135 53.4709V65.3471L30.934 71.0378V59.4709L20.5135 53.4709ZM42.61 65.3471V53.4709L32.315 59.2853V71.0378C33.6031 70.4402 34.8699 69.7438 36.1041 69.046C38.094 67.9227 40.1367 66.6436 42.168 65.4634C42.34 65.3632 42.5949 65.3644 42.61 65.3471Z" fill="#FE5000"/>
</g>
<g clip-path="url(#clip0_2002_441)">
<path d="M68.5228 47.001C70.9214 47.0483 73.0262 47.825 74.7581 49.5308C74.9073 49.6778 75.0262 49.8391 74.9827 50.0602C74.9456 50.2498 74.8445 50.4021 74.6486 50.463C74.447 50.5255 74.2679 50.4772 74.1207 50.327C73.7279 49.9257 73.2974 49.5712 72.824 49.2703C71.2566 48.2746 69.544 47.8964 67.7032 48.0682C65.8456 48.242 64.2452 48.9715 62.9149 50.2902C62.6604 50.5423 62.3614 50.558 62.1514 50.3459C61.9356 50.1284 61.9482 49.8322 62.1975 49.577C63.2868 48.4642 64.5929 47.7263 66.0907 47.3224C66.8862 47.1076 67.6943 46.99 68.5223 47.001L68.5228 47.001Z" fill="#FE5000"/>
<path d="M68.2751 49.356C70.251 49.3508 71.7761 49.9337 73.0581 51.1427C73.1215 51.2025 73.1843 51.265 73.2346 51.3354C73.3886 51.5492 73.3624 51.828 73.1791 52.0055C72.9984 52.1799 72.7476 52.1993 72.5355 52.0355C72.3286 51.8758 72.1411 51.6894 71.9337 51.5308C69.7383 49.8523 66.6767 49.9988 64.6474 51.8758C64.6217 51.8995 64.5971 51.9241 64.5709 51.9478C64.2918 52.1999 64.0215 52.2156 63.8073 51.9924C63.6005 51.7766 63.6151 51.4699 63.8618 51.2225C64.539 50.5434 65.3298 50.0408 66.2353 49.7278C66.9663 49.4747 67.7168 49.3245 68.2751 49.356Z" fill="#FE5000"/>
<path d="M68.4929 54.0295C69.6184 54.0311 70.4569 54.8798 70.4527 56.0126C70.4485 57.1334 69.588 57.9862 68.4689 57.9778C67.4173 57.97 66.5254 57.064 66.5238 56.0021C66.5222 54.9292 67.422 54.028 68.4929 54.0295ZM69.4414 55.9979C69.4403 55.4706 69.0208 55.0573 68.4903 55.0615C67.9729 55.0652 67.5618 55.4748 67.5581 55.9906C67.5545 56.521 67.9671 56.939 68.4961 56.9401C69.0266 56.9417 69.4424 56.5268 69.4414 55.9979Z" fill="#FE5000"/>
<path d="M68.4793 51.6815C69.6309 51.7078 70.6181 52.0869 71.4529 52.8511C71.7195 53.0953 71.7619 53.4146 71.5613 53.6399C71.3649 53.8605 71.0586 53.8725 70.793 53.6289C70.2897 53.1667 69.7142 52.8631 69.0402 52.7518C68.0519 52.5885 67.1758 52.8437 66.3981 53.465C66.3164 53.5301 66.2431 53.6063 66.1593 53.6693C65.9026 53.8626 65.613 53.8463 65.4313 53.6336C65.2527 53.4246 65.2716 53.1184 65.4968 52.901C65.9362 52.4777 66.4426 52.1557 67.0166 51.9483C67.4963 51.775 67.9938 51.693 68.4788 51.682L68.4793 51.6815Z" fill="#FE5000"/>
</g>
<g clip-path="url(#clip1_2002_441)">
<path d="M68.5228 63.001C70.9214 63.0483 73.0262 63.825 74.7581 65.5308C74.9073 65.6778 75.0262 65.8391 74.9827 66.0602C74.9456 66.2498 74.8445 66.4021 74.6486 66.463C74.447 66.5255 74.2679 66.4772 74.1207 66.327C73.7279 65.9257 73.2974 65.5712 72.824 65.2703C71.2566 64.2746 69.544 63.8964 67.7032 64.0682C65.8456 64.242 64.2452 64.9715 62.9149 66.2902C62.6604 66.5423 62.3614 66.558 62.1514 66.3459C61.9356 66.1284 61.9482 65.8322 62.1975 65.577C63.2868 64.4642 64.5929 63.7263 66.0907 63.3224C66.8862 63.1076 67.6943 62.99 68.5223 63.001L68.5228 63.001Z" fill="#8C8A8A"/>
<path d="M68.2751 65.356C70.251 65.3508 71.7761 65.9337 73.0581 67.1427C73.1215 67.2025 73.1843 67.265 73.2346 67.3354C73.3886 67.5492 73.3624 67.828 73.1791 68.0055C72.9984 68.1799 72.7476 68.1993 72.5355 68.0355C72.3286 67.8758 72.1411 67.6894 71.9337 67.5308C69.7383 65.8523 66.6767 65.9988 64.6474 67.8758C64.6217 67.8995 64.5971 67.9241 64.5709 67.9478C64.2918 68.1999 64.0215 68.2156 63.8073 67.9924C63.6005 67.7766 63.6151 67.4699 63.8618 67.2225C64.539 66.5434 65.3298 66.0408 66.2353 65.7278C66.9663 65.4747 67.7168 65.3245 68.2751 65.356Z" fill="#8C8A8A"/>
<path d="M68.4929 70.0295C69.6184 70.0311 70.4569 70.8798 70.4527 72.0126C70.4485 73.1334 69.588 73.9862 68.4689 73.9778C67.4173 73.97 66.5254 73.064 66.5238 72.0021C66.5222 70.9292 67.422 70.028 68.4929 70.0295ZM69.4414 71.9979C69.4403 71.4706 69.0208 71.0573 68.4903 71.0615C67.9729 71.0652 67.5618 71.4748 67.5581 71.9906C67.5545 72.521 67.9671 72.939 68.4961 72.9401C69.0266 72.9417 69.4424 72.5268 69.4414 71.9979Z" fill="#8C8A8A"/>
<path d="M68.4793 67.6815C69.6309 67.7078 70.6181 68.0869 71.4529 68.8511C71.7195 69.0953 71.7619 69.4146 71.5613 69.6399C71.3649 69.8605 71.0586 69.8725 70.793 69.6289C70.2897 69.1667 69.7142 68.8631 69.0402 68.7518C68.0519 68.5885 67.1758 68.8437 66.3981 69.465C66.3164 69.5301 66.2431 69.6063 66.1593 69.6693C65.9026 69.8626 65.613 69.8463 65.4313 69.6336C65.2527 69.4246 65.2716 69.1184 65.4968 68.901C65.9362 68.4777 66.4426 68.1557 67.0166 67.9483C67.4963 67.775 67.9938 67.693 68.4788 67.682L68.4793 67.6815Z" fill="#8C8A8A"/>
</g>
<g filter="url(#filter3_i_2002_441)">
<path d="M112.671 47.8204C114.113 48.648 115.868 49.5572 117.229 50.4392C117.45 50.5828 117.892 50.824 117.968 51.0726L118 64.6607C118.014 64.8561 117.929 64.9576 117.816 65.0974C117.464 65.5304 114.79 66.8256 114.084 67.235C112.013 68.4375 109.973 69.6857 107.923 70.8189C107.43 71.091 105.926 72.0225 105.495 71.999C103.338 70.8535 101.197 69.6647 99.0728 68.4598C98.4162 68.0874 97.7483 67.5901 97.0089 67.2981C96.3962 66.6697 93.6078 65.6169 93.2525 65.0343C93.1521 64.8698 93.1082 64.7337 93.1282 64.5382C93.4534 60.3284 92.7227 55.5509 93.1282 51.4104C93.2186 50.485 94.5595 50.1597 95.2927 49.7354C97.4031 48.5119 99.614 47.1709 101.708 46.0043C102.908 45.3351 104.121 44.6683 105.328 44.0151C105.775 43.9335 106.17 44.2007 106.548 44.3862C108.519 45.3512 110.737 46.7119 112.671 47.8204ZM106.64 45.9685C106.355 45.8163 105.722 45.4328 105.437 45.4934L100.016 48.5255C98.8004 49.2368 97.506 50.0211 96.3033 50.7337C96.1602 50.819 95.0315 51.2236 95.2675 51.4796C97.0503 52.1749 98.6435 53.3056 100.307 54.247C101.746 55.0622 103.211 55.844 104.667 56.6308C105.002 56.8114 105.276 57.2667 105.718 57.1492C107.564 56.0816 109.397 54.983 111.248 53.9278C111.925 53.5418 112.691 53.2153 113.37 52.828C114.18 52.3654 114.918 51.7023 115.858 51.4796C115.915 51.2322 115.774 51.2446 115.635 51.1444C114.147 50.0805 112 49.0983 110.369 48.1742C109.204 47.5136 107.906 46.6439 106.641 45.9685H106.64ZM94.5155 52.4705V64.3465L104.936 70.037V58.4704L94.5155 52.4705ZM116.612 64.3465V52.4705L106.317 58.2848V70.037C107.605 69.4395 108.872 68.743 110.106 68.0453C112.096 66.9221 114.138 65.6429 116.17 64.4628C116.342 64.3626 116.597 64.3638 116.612 64.3465Z" fill="#3390E5"/>
</g>
<path d="M105.481 44.501C105.563 44.4983 105.657 44.5171 105.779 44.5654C105.959 44.6363 106.091 44.719 106.327 44.835H106.328C107.792 45.5515 109.389 46.4867 110.92 47.3818L112.422 48.2539C113.71 48.9931 115.185 49.7651 116.436 50.5312L116.957 50.8584C117.099 50.9503 117.224 51.0203 117.356 51.1182C117.405 51.155 117.441 51.188 117.468 51.2139L117.5 64.6621V64.6875C117.498 64.691 117.495 64.6958 117.491 64.7012C117.476 64.7218 117.458 64.7444 117.428 64.7822C117.428 64.782 117.394 64.8174 117.292 64.8906C117.199 64.9577 117.074 65.0379 116.924 65.1289C116.624 65.3105 116.245 65.521 115.847 65.7344C115.264 66.0466 114.625 66.3731 114.191 66.6055L113.833 66.8027C111.747 68.0136 109.726 69.2505 107.681 70.3809C107.394 70.5396 106.953 70.8085 106.449 71.0791C106.209 71.2083 105.981 71.323 105.793 71.4023C105.708 71.4382 105.637 71.4619 105.582 71.4785C103.48 70.36 101.393 69.2005 99.3195 68.0244C98.9977 67.8419 98.6954 67.643 98.3312 67.4219C98.0095 67.2265 97.6605 67.0304 97.2872 66.874C97.0735 66.6832 96.7635 66.495 96.4562 66.3242C96.0925 66.1222 95.6641 65.908 95.2599 65.7031C94.8488 65.4948 94.4626 65.2958 94.1583 65.1152C94.0064 65.0251 93.885 64.9455 93.796 64.877C93.7015 64.8042 93.6764 64.7692 93.6788 64.7734C93.6434 64.7153 93.6324 64.6853 93.6281 64.6689C93.6247 64.6561 93.6214 64.6343 93.6261 64.5889L93.6271 64.5771C93.7924 62.4368 93.6888 60.1573 93.5978 57.9277C93.5177 55.9645 93.4468 54.0384 93.5636 52.2275L93.6261 51.459C93.6459 51.2563 93.8034 51.0554 94.2169 50.8193C94.4128 50.7075 94.6314 50.6069 94.8644 50.501C94.9758 50.4503 95.0935 50.3973 95.2091 50.3418L95.5431 50.168C97.6668 48.9368 99.8609 47.6059 101.951 46.4414C103.122 45.7888 104.304 45.1384 105.481 44.501ZM116.365 52.0352L106.071 57.8496L105.817 57.9932V70.8203L106.527 70.4902C107.508 70.0354 108.474 69.5254 109.417 69.0039L110.352 68.4805C112.336 67.3603 114.418 66.059 116.421 64.8955V64.8945C116.42 64.8951 116.429 64.8912 116.45 64.8848C116.472 64.8783 116.5 64.8724 116.531 64.8672C116.565 64.8616 116.589 64.8586 116.627 64.8535C116.641 64.8517 116.669 64.8476 116.697 64.8418C116.711 64.839 116.739 64.833 116.773 64.8213C116.79 64.8153 116.818 64.8046 116.85 64.7871C116.878 64.7715 116.934 64.7367 116.988 64.6748L117.111 64.5332V51.6143L116.365 52.0352ZM105.333 45.0039L105.259 45.0205L105.193 45.0566L99.7716 48.0889L99.7628 48.0938C98.5477 48.805 97.2431 49.5957 96.048 50.3037L96.047 50.3047C96.0591 50.2975 96.0547 50.3006 96.004 50.3232C95.961 50.3425 95.9117 50.3635 95.8458 50.3926C95.7219 50.4472 95.5607 50.5206 95.4083 50.6016C95.2676 50.6764 95.0865 50.7821 94.9552 50.9141C94.8917 50.978 94.792 51.0945 94.7521 51.2607C94.7027 51.4672 94.7636 51.6707 94.8995 51.8184L94.9786 51.9033L95.0861 51.9453C96.608 52.5389 97.9544 53.4421 99.423 54.3125L100.061 54.6816C101.505 55.5001 102.977 56.2853 104.43 57.0703V57.0713C104.467 57.0912 104.514 57.1259 104.591 57.1895C104.655 57.2425 104.758 57.3317 104.857 57.4043C105.068 57.5595 105.407 57.7497 105.847 57.6328L105.911 57.6152L105.968 57.582C107.826 56.5073 109.643 55.4184 111.496 54.3623C111.819 54.1781 112.166 54.0066 112.529 53.8271C112.888 53.6502 113.263 53.4648 113.617 53.2627L113.618 53.2617C114.024 53.0301 114.478 52.7077 114.83 52.4883C115.216 52.2475 115.582 52.0586 115.974 51.9658L116.276 51.8945L116.346 51.5908C116.368 51.4927 116.385 51.3677 116.357 51.2344C116.325 51.0827 116.245 50.9659 116.151 50.8828C116.076 50.8161 115.993 50.7739 115.97 50.7617C115.951 50.7519 115.943 50.7477 115.935 50.7432C115.93 50.7403 115.927 50.7386 115.927 50.7383L115.926 50.7373L115.629 50.5322C114.92 50.0551 114.104 49.5995 113.291 49.166C112.35 48.664 111.425 48.1975 110.616 47.7393C110.043 47.4143 109.437 47.0378 108.804 46.6504C108.175 46.2658 107.523 45.8726 106.876 45.5273L106.847 45.5117C106.719 45.4419 106.477 45.3043 106.25 45.1982C106.124 45.1394 105.983 45.0802 105.843 45.04C105.717 45.004 105.527 44.9628 105.333 45.0039ZM105.436 58.1816L105.186 58.0371L94.7648 52.0371L94.0157 51.6055V64.6436L94.2755 64.7852L104.696 70.4756L105.436 70.8799V58.1816Z" stroke="black"/>
<defs>
<filter id="filter0_i_2002_441" x="0" y="19" width="81" height="85" filterUnits="userSpaceOnUse" color-interpolation-filters="sRGB">
<feFlood flood-opacity="0" result="BackgroundImageFix"/>
<feBlend mode="normal" in="SourceGraphic" in2="BackgroundImageFix" result="shape"/>
<feColorMatrix in="SourceAlpha" type="matrix" values="0 0 0 0 0 0 0 0 0 0 0 0 0 0 0 0 0 0 127 0" result="hardAlpha"/>
<feOffset dy="4"/>
<feGaussianBlur stdDeviation="2"/>
<feComposite in2="hardAlpha" operator="arithmetic" k2="-1" k3="1"/>
<feColorMatrix type="matrix" values="0 0 0 0 0 0 0 0 0 0 0 0 0 0 0 0 0 0 0.25 0"/>
<feBlend mode="normal" in2="shape" result="effect1_innerShadow_2002_441"/>
</filter>
<filter id="filter1_i_2002_441" x="56" y="19" width="81" height="85" filterUnits="userSpaceOnUse" color-interpolation-filters="sRGB">
<feFlood flood-opacity="0" result="BackgroundImageFix"/>
<feBlend mode="normal" in="SourceGraphic" in2="BackgroundImageFix" result="shape"/>
<feColorMatrix in="SourceAlpha" type="matrix" values="0 0 0 0 0 0 0 0 0 0 0 0 0 0 0 0 0 0 127 0" result="hardAlpha"/>
<feOffset dy="4"/>
<feGaussianBlur stdDeviation="2"/>
<feComposite in2="hardAlpha" operator="arithmetic" k2="-1" k3="1"/>
<feColorMatrix type="matrix" values="0 0 0 0 0 0 0 0 0 0 0 0 0 0 0 0 0 0 0.25 0"/>
<feBlend mode="normal" in2="shape" result="effect1_innerShadow_2002_441"/>
</filter>
<filter id="filter2_i_2002_441" x="19" y="45.0002" width="25" height="32" filterUnits="userSpaceOnUse" color-interpolation-filters="sRGB">
<feFlood flood-opacity="0" result="BackgroundImageFix"/>
<feBlend mode="normal" in="SourceGraphic" in2="BackgroundImageFix" result="shape"/>
<feColorMatrix in="SourceAlpha" type="matrix" values="0 0 0 0 0 0 0 0 0 0 0 0 0 0 0 0 0 0 127 0" result="hardAlpha"/>
<feOffset dy="4"/>
<feGaussianBlur stdDeviation="2"/>
<feComposite in2="hardAlpha" operator="arithmetic" k2="-1" k3="1"/>
<feColorMatrix type="matrix" values="0 0 0 0 0.687778 0 0 0 0 0.216623 0 0 0 0 0 0 0 0 1 0"/>
<feBlend mode="normal" in2="shape" result="effect1_innerShadow_2002_441"/>
</filter>
<filter id="filter3_i_2002_441" x="93.0021" y="44" width="24.9996" height="31.9995" filterUnits="userSpaceOnUse" color-interpolation-filters="sRGB">
<feFlood flood-opacity="0" result="BackgroundImageFix"/>
<feBlend mode="normal" in="SourceGraphic" in2="BackgroundImageFix" result="shape"/>
<feColorMatrix in="SourceAlpha" type="matrix" values="0 0 0 0 0 0 0 0 0 0 0 0 0 0 0 0 0 0 127 0" result="hardAlpha"/>
<feOffset dy="4"/>
<feGaussianBlur stdDeviation="2"/>
<feComposite in2="hardAlpha" operator="arithmetic" k2="-1" k3="1"/>
<feColorMatrix type="matrix" values="0 0 0 0 0 0 0 0 0 0.42413 0 0 0 0 0.687778 0 0 0 1 0"/>
<feBlend mode="normal" in2="shape" result="effect1_innerShadow_2002_441"/>
</filter>
<clipPath id="clip0_2002_441">
<rect width="18" height="13" fill="white" transform="translate(62 65) rotate(-90)"/>
</clipPath>
<clipPath id="clip1_2002_441">
<rect width="18" height="13" fill="white" transform="translate(62 81) rotate(-90)"/>
</clipPath>
</defs>
</svg>
