<svg width="73" height="120" viewBox="0 0 73 120" fill="none" xmlns="http://www.w3.org/2000/svg">
<g clip-path="url(#clip0_2002_443)" filter="url(#filter0_i_2002_443)">
<path d="M36.6279 27.0059C50.0969 27.2711 61.916 31.6295 71.6413 41.2009C72.4795 42.026 73.147 42.9306 72.9029 44.1713C72.6941 45.2351 72.1266 46.0897 71.0267 46.4315C69.8945 46.7822 68.8887 46.5111 68.0624 45.6683C65.8567 43.4169 63.4394 41.4278 60.7809 39.7392C51.979 34.152 42.3625 32.0303 32.0255 32.9939C21.5944 33.9693 12.6073 38.0625 5.1376 45.462C3.70836 46.8765 2.02916 46.9649 0.849887 45.7744C-0.361731 44.5544 -0.291152 42.8923 1.10868 41.4602C7.22559 35.2158 14.56 31.0755 22.9707 28.8094C27.4378 27.6041 31.9755 26.944 36.625 27.0059L36.6279 27.0059Z" fill="#FE5000" fill-opacity="0.8"/>
<path d="M35.2369 40.2196C46.3326 40.1901 54.8963 43.4611 62.0954 50.2447C62.4512 50.5807 62.8041 50.9313 63.0865 51.3262C63.9511 52.5256 63.804 54.0904 62.7747 55.0864C61.7601 56.0647 60.3515 56.1738 59.1605 55.2544C57.9988 54.3585 56.946 53.3124 55.7814 52.4224C43.4535 43.0043 26.2615 43.8265 14.8658 54.3585C14.7217 54.4911 14.5835 54.6296 14.4364 54.7622C12.869 56.1767 11.3515 56.2651 10.1487 55.0127C8.9871 53.8016 9.06944 52.0806 10.4546 50.6927C14.2571 46.8824 18.6977 44.0623 23.7824 42.3059C27.8878 40.8856 32.102 40.0428 35.2369 40.2196Z" fill="#FE5000" fill-opacity="0.8"/>
<path d="M36.4602 66.4435C42.78 66.4523 47.4883 71.2144 47.4648 77.5707C47.4412 83.8593 42.6095 88.6449 36.3249 88.5978C30.4198 88.5536 25.4115 83.4703 25.4027 77.5118C25.3939 71.4914 30.4462 66.4346 36.4602 66.4435ZM41.786 77.4882C41.7802 74.5296 39.4246 72.2104 36.4455 72.234C33.54 72.2546 31.2314 74.5532 31.2108 77.447C31.1903 80.4233 33.5076 82.769 36.4779 82.7748C39.4569 82.7837 41.7919 80.4557 41.786 77.4882Z" fill="#FE5000" fill-opacity="0.8"/>
<path d="M36.3839 53.2682C42.8507 53.4155 48.3942 55.5431 53.0818 59.8308C54.5787 61.2011 54.8169 62.9927 53.6906 64.2569C52.5878 65.4946 50.8674 65.5624 49.3764 64.1951C46.5503 61.6018 43.3183 59.8986 39.5335 59.2738C33.9841 58.3574 29.0641 59.7895 24.697 63.2756C24.2383 63.6411 23.8265 64.0683 23.356 64.422C21.915 65.5064 20.2887 65.4151 19.2683 64.2216C18.2654 63.0487 18.3713 61.3307 19.6359 60.1107C22.1032 57.7356 24.947 55.9292 28.1701 54.7652C30.8639 53.7927 33.6577 53.333 36.3809 53.2711L36.3839 53.2682Z" fill="#FE5000" fill-opacity="0.8"/>
</g>
<defs>
<filter id="filter0_i_2002_443" x="0" y="27" width="73" height="69" filterUnits="userSpaceOnUse" color-interpolation-filters="sRGB">
<feFlood flood-opacity="0" result="BackgroundImageFix"/>
<feBlend mode="normal" in="SourceGraphic" in2="BackgroundImageFix" result="shape"/>
<feColorMatrix in="SourceAlpha" type="matrix" values="0 0 0 0 0 0 0 0 0 0 0 0 0 0 0 0 0 0 127 0" result="hardAlpha"/>
<feOffset dy="4"/>
<feGaussianBlur stdDeviation="2"/>
<feComposite in2="hardAlpha" operator="arithmetic" k2="-1" k3="1"/>
<feColorMatrix type="matrix" values="0 0 0 0 0.571111 0 0 0 0 0.196179 0 0 0 0 0.023796 0 0 0 0.8 0"/>
<feBlend mode="normal" in2="shape" result="effect1_innerShadow_2002_443"/>
</filter>
<clipPath id="clip0_2002_443">
<rect width="65" height="73" fill="white" transform="translate(0 92) rotate(-90)"/>
</clipPath>
</defs>
</svg>
