<svg width="85" height="120" viewBox="0 0 85 120" fill="none" xmlns="http://www.w3.org/2000/svg">
<g clip-path="url(#clip0_2002_445)" filter="url(#filter0_i_2002_445)">
<path d="M68.1051 85.1245C68.1051 87.4496 68.0984 89.7769 68.1095 92.102C68.1117 92.6232 67.9748 93.3343 68.827 93.2863C69.5821 93.2427 70.5161 93.7509 70.982 92.5753C72.1323 89.6765 74.2894 88.0254 77.4688 87.7593C80.9926 87.4649 84.5782 90.5119 84.9183 93.9668C85.3974 98.8395 81.6042 101.736 78.5153 101.924C74.9827 102.137 72.2957 100.467 71.0217 97.2036C70.7921 96.6126 70.4565 96.4337 69.8736 96.4468C68.9176 96.4708 67.9593 96.4642 67.0033 96.4468C65.5218 96.4184 64.9478 95.8535 64.9345 94.366C64.9146 92.1499 64.9036 89.9317 64.9389 87.7157C64.9522 86.9087 64.6541 86.6055 63.8438 86.6426C62.8149 86.6884 61.7794 86.7058 60.7549 86.636C59.8276 86.5728 59.4501 86.9283 59.3088 87.8226C58.7192 91.5349 57.0081 94.6779 54.2924 97.3105C45.6197 105.723 30.4956 102.262 26.4463 90.9416C26.051 89.8379 25.764 88.719 25.5719 87.5717C25.466 86.9348 25.1657 86.6208 24.4702 86.6426C23.2934 86.6796 22.1143 86.6775 20.9397 86.6426C20.2001 86.6229 19.9903 86.9654 19.997 87.6372C20.019 89.8532 20.0146 92.0714 19.997 94.2875C19.9859 95.8884 19.4229 96.4228 17.7824 96.4468C17.672 96.4468 17.5594 96.4599 17.4513 96.4468C15.4708 96.1938 14.1019 96.5733 13.0906 98.689C11.7526 101.485 8.06102 102.604 5.05606 101.682C1.90317 100.715 -0.0751142 97.9278 -4.53474e-05 94.5601C0.0706077 91.4978 2.24981 88.9153 5.24153 88.0276C8.65495 87.0134 12.6601 88.9371 13.8833 92.4226C14.3491 93.7465 15.3339 93.2885 16.1552 93.2776C17.0737 93.2667 16.8132 92.4618 16.8154 91.9384C16.833 87.358 16.833 82.7798 16.8154 78.1994C16.8154 77.6737 17.0605 76.8776 16.1243 76.8907C15.3007 76.9016 14.3425 76.4479 13.8678 77.7741C12.6181 81.2661 9.06562 83.0546 5.33647 82.2214C1.98928 81.4733 -0.225252 78.2801 0.01541 74.5525C0.227369 71.283 3.15285 68.5086 6.68108 68.2338C9.71475 67.9982 12.6557 69.7998 13.806 72.7269C14.1195 73.5274 14.539 73.7891 15.3471 73.7433C16.1905 73.6953 17.0406 73.7106 17.884 73.7455C19.4627 73.8131 19.9859 74.3475 19.997 75.9005C20.0102 78.0816 20.0235 80.2627 19.9903 82.4417C19.9793 83.2291 20.2509 83.5759 21.0722 83.5432C22.1011 83.5039 23.1344 83.4886 24.1611 83.5497C25.0774 83.6042 25.4748 83.2553 25.6183 82.3566C26.1681 78.9213 27.6275 75.8743 30.1114 73.4205C34.8032 68.7878 40.4996 67.0603 46.9003 68.8118C53.6874 70.6679 57.8515 75.2396 59.2513 82.0993C59.4854 83.2422 59.9159 83.6566 61.0508 83.5497C61.8523 83.4734 62.6692 83.5388 63.4773 83.5344C64.919 83.5279 64.9235 83.5257 64.9257 82.0491C64.9279 80.0141 64.9168 77.9791 64.9301 75.9419C64.9411 74.3279 65.4666 73.7957 67.1093 73.739C67.9549 73.7084 68.8028 73.6975 69.6484 73.739C70.4079 73.7739 70.8053 73.5252 71.11 72.7683C72.2515 69.9176 74.4793 68.3668 77.5417 68.2556C80.5113 68.1465 82.8009 69.4792 84.183 72.1249C86.115 75.8198 84.501 80.1253 80.5753 81.8768C76.9919 83.4756 72.5739 81.6412 71.0835 77.9355C70.6971 76.9758 69.5115 76.5046 68.5268 76.906C68.0234 77.111 68.1095 77.545 68.1073 77.9267C68.0984 80.326 68.1029 82.7252 68.1029 85.1223L68.1051 85.1245ZM7.12487 98.809C9.46525 98.8177 11.236 97.1382 11.2514 94.9004C11.2647 92.7258 9.41447 90.8609 7.20215 90.8238C4.95229 90.7846 3.18376 92.536 3.16609 94.8218C3.14622 97.1753 4.76241 98.8024 7.12487 98.8111V98.809ZM77.7823 79.3379C80.0609 79.3401 81.8471 77.5581 81.8162 75.3072C81.7852 73.0497 80.094 71.3724 77.8309 71.355C75.5943 71.3397 73.7021 73.1435 73.68 75.3137C73.6579 77.484 75.5435 79.3336 77.7801 79.3379H77.7823ZM3.16609 75.3246C3.15947 77.6345 4.87501 79.3532 7.17565 79.3379C9.41226 79.3227 11.2537 77.4971 11.2514 75.2941C11.2514 73.2068 9.3659 71.3768 7.19773 71.3572C4.83969 71.3353 3.17272 72.9756 3.16609 75.3246ZM77.747 98.809C80.0874 98.822 81.8471 97.1317 81.8449 94.8764C81.8404 92.6407 80.0101 90.8151 77.7779 90.8216C75.6649 90.8282 73.6602 92.8283 73.6778 94.9069C73.6977 97.0706 75.4971 98.7959 77.747 98.809ZM42.5574 86.6513C41.7493 86.6513 40.9368 86.6142 40.1309 86.66C39.1528 86.7167 37.7198 86.1889 37.3048 86.8934C36.7417 87.8509 37.2142 89.2119 37.4792 90.3832C37.6116 90.9634 37.9097 91.1248 38.5147 90.9918C41.1708 90.405 43.8357 90.381 46.4919 91.0048C47.1277 91.1532 47.3463 90.8936 47.4832 90.3352C47.7084 89.4083 47.6885 88.4595 47.8254 87.5281C47.9314 86.804 47.6113 86.6382 46.9732 86.6469C45.5027 86.6666 44.03 86.6535 42.5596 86.6513H42.5574ZM42.4205 83.5388C43.7055 83.5388 44.9905 83.5388 46.2755 83.5388C47.8585 83.5388 47.8762 83.5344 47.7548 82.0316C47.693 81.2748 47.5671 80.5245 47.4611 79.772C47.375 79.1678 47.0637 79.0239 46.4521 79.1809C43.807 79.8527 41.1465 79.857 38.5036 79.1853C37.8788 79.026 37.6139 79.2027 37.4858 79.7763C37.2805 80.7012 37.2208 81.639 37.1303 82.5769C37.0597 83.3032 37.2893 83.5628 38.0201 83.5475C39.4884 83.517 40.9566 83.5388 42.4249 83.541L42.4205 83.5388ZM31.2772 86.6535C30.7252 86.6535 30.1732 86.6797 29.6256 86.6469C28.7535 86.5968 28.557 86.9327 28.7535 87.7637C29.1774 89.5522 29.8332 91.2251 30.8775 92.7476C31.5061 93.6637 32.2957 93.8229 33.2466 93.2252C33.4321 93.1075 33.6131 92.9722 33.8163 92.8959C34.4301 92.6603 34.6398 92.259 34.4985 91.6134C34.3197 90.7998 34.1099 89.9775 34.0702 89.1531C33.9244 86.0995 33.8715 86.7233 31.2772 86.6535ZM53.747 86.6535C53.2679 86.6535 52.7866 86.6927 52.3141 86.6448C51.442 86.5553 50.9894 86.8999 50.9695 87.7746C50.943 88.9786 50.7222 90.1542 50.4771 91.3277C50.3248 92.0518 50.5279 92.6014 51.2411 92.9439C51.6009 93.1184 51.9432 93.3496 52.2501 93.6048C52.8219 94.0803 53.2193 93.8905 53.6146 93.367C54.6147 92.0431 55.4052 90.6144 55.8379 89.0156C56.5113 86.5291 56.7564 86.636 54.076 86.6535C53.9656 86.6535 53.8552 86.6535 53.7448 86.6535H53.747ZM31.1955 83.5388C31.6371 83.5388 32.0808 83.4974 32.5158 83.5475C33.5712 83.6675 33.9796 83.1746 34.0083 82.1843C34.0282 81.4994 34.0282 80.7775 34.2402 80.1384C34.7833 78.5069 34.4014 77.4185 32.7763 76.6181C32.0256 76.2473 31.6746 76.3214 31.2418 76.9103C30.1953 78.3346 29.4358 79.8876 28.9765 81.5932C28.4533 83.5432 28.4334 83.5388 30.4205 83.541C30.6766 83.541 30.9349 83.541 31.1911 83.541L31.1955 83.5388ZM53.7139 83.5279C54.3388 83.5279 54.9636 83.5344 55.5884 83.5279C56.0918 83.5214 56.3568 83.2814 56.2464 82.7689C55.7695 80.5376 54.9349 78.4655 53.4843 76.6595C53.1443 76.2364 52.8506 76.1971 52.3737 76.4981C50.2718 77.8264 50.263 77.8111 50.7399 80.2038C50.7906 80.4525 50.8547 80.7033 50.8679 80.9542C51.0357 84.1146 51.0733 83.4646 53.7139 83.5279ZM42.1533 76.5374C43.6304 76.5155 44.6482 76.3869 45.6573 76.1775C46.2733 76.051 46.4278 75.7543 46.1452 75.1698C45.6683 74.1861 45.1781 73.2133 44.4363 72.391C43.2219 71.0474 41.7515 71.0213 40.5482 72.3496C39.8328 73.137 39.3515 74.077 38.8547 75.0127C38.4131 75.8438 38.7686 76.1404 39.5347 76.2407C40.5526 76.3716 41.5748 76.4719 42.1555 76.5374H42.1533ZM42.4425 93.5873C41.3894 93.74 40.3031 93.8949 39.2168 94.0563C38.7001 94.1326 38.5257 94.3856 38.7443 94.8916C39.2676 96.0978 39.8615 97.2604 40.8617 98.159C41.8376 99.0336 43.0431 99.0358 44.0389 98.1873C45.0413 97.3345 45.5844 96.1872 46.1298 95.0334C46.4477 94.3573 46.1894 94.1042 45.5358 94.017C44.5202 93.8839 43.5068 93.7378 42.4425 93.5895V93.5873Z" fill="#FE5000" fill-opacity="0.8"/>
<path d="M42.5044 18.0197C48.4548 18.0851 53.3386 20.3731 57.0038 25.0298C57.7854 26.0244 58.6067 26.4476 59.8696 26.681C66.2372 27.8675 70.9246 31.4031 73.5145 37.266C78.0584 47.5479 72.6159 58.9269 61.7596 62.2008C60.5408 62.5672 59.6223 62.1964 59.3353 61.2215C59.088 60.3817 59.6025 59.6511 60.7947 59.2715C66.0694 57.5964 69.5933 54.2113 71.3287 48.9787C74.0687 40.7253 68.1625 31.0105 59.459 29.7891C57.2599 29.4815 55.8535 28.6854 54.4669 26.9056C50.5898 21.9304 45.2423 20.1419 39.0756 21.4768C33.3483 22.7178 29.5529 26.3189 27.7887 31.8743C26.8393 34.8668 26.9012 34.8864 23.682 35.1612C18.8843 35.5713 14.1461 40.0055 13.232 44.9393C12.0773 51.1773 15.3538 56.8963 21.3571 59.1123C22.2933 59.4569 23.2714 59.6249 24.2605 59.7252C24.5895 59.7579 24.9207 59.7732 25.2474 59.8234C26.5126 60.0197 27.1065 60.578 27.0314 61.4788C26.9542 62.384 26.2454 62.9206 25.0222 62.877C20.3967 62.7134 16.4931 60.9292 13.561 57.4088C6.56634 49.0093 9.77885 36.9236 20.0081 32.895C21.1076 32.4632 22.2624 32.1883 23.4259 32.0662C24.2318 31.9833 24.5365 31.6256 24.775 30.9146C26.6539 25.3134 30.308 21.3197 35.9072 19.1517C38.0158 18.3403 40.2082 17.9019 42.5044 18.0197Z" fill="#FE5000" fill-opacity="0.8"/>
<path d="M47.9403 44.8628C47.9403 42.721 47.9336 40.5769 47.9425 38.435C47.9491 36.6465 48.4459 36.1448 50.2144 36.1339C51.6473 36.1252 53.0825 36.1274 54.5154 36.1339C56.189 36.1427 56.7807 36.6792 56.8072 38.3391C56.8448 40.662 56.8205 42.9871 56.8205 45.3122C56.8205 47.4191 56.8426 49.5261 56.8116 51.6309C56.7984 52.4598 57.092 52.8393 57.962 52.8C58.7303 52.7673 59.5119 52.7586 60.2736 52.8502C61.817 53.0356 62.444 54.4315 61.3864 55.5221C58.8208 58.17 56.1669 60.7394 53.5152 63.3066C52.7756 64.0241 51.9145 64.0045 51.1616 63.2651C48.5784 60.7306 46.0061 58.1896 43.4406 55.6377C42.9504 55.1513 42.6656 54.558 42.957 53.8557C43.2595 53.1315 43.8711 52.8393 44.624 52.8109C45.2842 52.7847 45.9509 52.7498 46.6089 52.8022C47.5936 52.8785 47.9911 52.5361 47.9601 51.5066C47.8961 49.2927 47.9403 47.0767 47.9403 44.8607V44.8628ZM56.4915 56.039C53.6919 55.6922 53.6521 55.6442 53.6521 53.005C53.6521 48.7954 53.63 44.5858 53.6698 40.3762C53.6786 39.4536 53.4468 39.0872 52.4422 39.1003C51.4773 39.1112 51.0711 39.3271 51.0843 40.3741C51.1373 44.5117 51.1064 48.6493 51.1064 52.7847C51.1064 54.6111 50.1879 55.7147 48.3509 56.0957C49.605 57.3302 50.7841 58.4971 51.9697 59.6597C52.2656 59.9498 52.5636 59.8843 52.8374 59.6139C54.0076 58.4688 55.1778 57.3237 56.4915 56.039Z" fill="#FE5000" fill-opacity="0.8"/>
<path d="M32.5269 64.3623C31.7188 64.3623 30.9063 64.3993 30.1005 64.3535C28.8773 64.2837 28.2789 63.7472 28.1707 62.5388C28.0824 61.566 28.1155 60.5802 28.1133 59.6008C28.1089 56.0783 28.1133 52.5558 28.1089 49.031C28.1089 47.6133 28.0758 47.5959 26.6075 47.5828C25.9098 47.5762 25.2011 47.622 24.5167 47.5261C23.1014 47.3254 22.5494 45.9665 23.5408 44.9523C26.1461 42.2891 28.8088 39.6805 31.4936 37.0937C32.3062 36.3106 33.09 36.4502 34.0879 37.4252C36.2318 39.5191 38.3558 41.6326 40.4842 43.7418C40.8728 44.1278 41.2725 44.5052 41.6324 44.9174C42.0695 45.4191 42.2263 45.9993 41.9481 46.6383C41.6677 47.2861 41.1223 47.5435 40.4511 47.5675C39.7159 47.5937 38.9762 47.6308 38.2476 47.5762C37.2894 47.5021 36.9626 47.862 36.9715 48.8217C37.0134 53.1076 36.9913 57.3935 36.9891 61.6795C36.9891 63.9217 36.5343 64.3732 34.2911 64.3797C33.7038 64.3797 33.1142 64.3797 32.5269 64.3797C32.5269 64.3754 32.5269 64.3732 32.5269 64.3688V64.3623ZM28.4511 44.3067C31.2177 44.756 31.2751 44.8236 31.2751 47.4039C31.2751 51.6528 31.3038 55.9038 31.2552 60.1527C31.2441 61.1756 31.7431 61.2498 32.5446 61.2541C33.3637 61.2585 33.887 61.1385 33.8384 60.1418C33.7766 58.8745 33.8252 57.6007 33.8252 56.3291C33.8252 53.0596 33.8142 49.7901 33.8318 46.5227C33.8406 45.081 34.3728 44.5553 35.7991 44.4572C36.0044 44.4419 36.2473 44.5335 36.4968 44.1475C35.3531 43.0395 34.1785 41.9074 33.0149 40.7667C32.5998 40.3588 32.2973 40.6009 31.9882 40.8976C30.8578 41.986 29.7273 43.0744 28.4467 44.3067H28.4511Z" fill="#FE5000" fill-opacity="0.8"/>
</g>
<defs>
<filter id="filter0_i_2002_445" x="0" y="18" width="85" height="88" filterUnits="userSpaceOnUse" color-interpolation-filters="sRGB">
<feFlood flood-opacity="0" result="BackgroundImageFix"/>
<feBlend mode="normal" in="SourceGraphic" in2="BackgroundImageFix" result="shape"/>
<feColorMatrix in="SourceAlpha" type="matrix" values="0 0 0 0 0 0 0 0 0 0 0 0 0 0 0 0 0 0 127 0" result="hardAlpha"/>
<feOffset dy="4"/>
<feGaussianBlur stdDeviation="2"/>
<feComposite in2="hardAlpha" operator="arithmetic" k2="-1" k3="1"/>
<feColorMatrix type="matrix" values="0 0 0 0 0.687778 0 0 0 0 0.216623 0 0 0 0 0 0 0 0 1 0"/>
<feBlend mode="normal" in2="shape" result="effect1_innerShadow_2002_445"/>
</filter>
<clipPath id="clip0_2002_445">
<rect width="85" height="84" fill="white" transform="translate(0 18)"/>
</clipPath>
</defs>
</svg>
