<svg width="73" height="120" viewBox="0 0 73 120" fill="none" xmlns="http://www.w3.org/2000/svg">
<g clip-path="url(#clip0_2002_447)" filter="url(#filter0_i_2002_447)">
<path d="M39.5761 51.8669C39.2251 53.0145 38.8019 54.474 38.325 55.9168C38.0608 56.7193 37.9575 57.3784 38.7111 58.0437C39.2664 58.5364 39.7061 58.7214 40.4411 58.5052C41.7913 58.106 43.1786 57.8316 44.5515 57.5177C45.5817 57.2807 46.2815 57.6507 46.6572 58.6715C47.5388 61.0748 48.4575 63.4636 49.3225 65.8732C49.7498 67.0624 49.5455 67.5447 48.4327 68.1642C47.258 68.817 46.0606 69.422 44.8777 70.0582C43.3789 70.8669 43.3107 72.4761 44.729 73.3659C45.8955 74.0998 47.0722 74.817 48.2242 75.5738C49.2667 76.2599 49.4195 76.7214 48.9323 77.8316C47.8732 80.237 46.7852 82.6299 45.7014 85.0229C45.2947 85.9189 44.6093 86.2141 43.6699 85.921C42.2909 85.4906 40.8973 85.1019 39.5348 84.6279C38.8845 84.4012 38.3952 84.3805 37.8605 84.9127C37.299 85.4698 36.9707 86 37.204 86.8274C37.557 88.0936 37.8502 89.3763 38.1495 90.6549C38.4902 92.1123 38.2445 92.6091 36.8799 93.1351C34.5367 94.0395 32.1873 94.9251 29.8359 95.8087C28.7912 96.2017 28.2545 96.0125 27.7033 95.0083C26.9704 93.6757 26.287 92.316 25.5665 90.975C25.0091 89.9397 23.3142 89.8295 22.6701 90.815C21.8587 92.0582 21.1217 93.3513 20.3269 94.6071C19.6311 95.7048 18.9912 95.8628 17.7979 95.3118C15.6405 94.3181 13.479 93.3326 11.3175 92.3493C9.87235 91.6902 9.64939 91.185 10.1242 89.6611C10.5454 88.3056 10.9521 86.948 11.365 85.5904C11.6643 84.6071 10.5495 83.3098 9.55029 83.5218C8.07006 83.8337 6.59809 84.185 5.12818 84.5405C3.86884 84.8441 3.37956 84.632 2.89647 83.3846C1.96333 80.9647 1.07354 78.5301 0.154844 76.1039C-0.198182 75.1705 0.0557492 74.4823 0.92696 74.0187C2.20281 73.3389 3.48279 72.6653 4.75657 71.9813C6.08197 71.2703 6.15009 69.5863 4.87837 68.7734C3.68717 68.0125 2.47532 67.289 1.29237 66.5156C0.268391 65.8462 0.113555 65.3742 0.60903 64.2432C1.66398 61.8358 2.75196 59.4428 3.83994 57.052C4.22187 56.2121 4.85566 55.8732 5.77436 56.1622C7.1844 56.6071 8.5965 57.0478 10.0127 57.4719C11.4723 57.9085 12.6408 56.8503 12.3208 55.3721C12.0215 53.9854 11.6746 52.6112 11.3505 51.2308C11.0739 50.052 11.3402 49.4511 12.4571 49.0146C14.8292 48.0894 17.2116 47.1913 19.6022 46.3222C20.8223 45.8794 21.3405 46.106 21.9599 47.2599C22.6474 48.5385 23.2894 49.842 23.9769 51.1206C24.5405 52.1684 26.2189 52.2578 26.8692 51.2557C27.6599 50.0395 28.3866 48.7817 29.1525 47.5468C29.8834 46.3659 30.4057 46.1954 31.632 46.7526C33.9504 47.8067 36.2626 48.8794 38.581 49.9314C39.2829 50.2495 39.6855 50.736 39.5781 51.869L39.5761 51.8669ZM34.0681 85.474C34.0433 84.8066 34.3055 84.4179 34.6729 84.0748C35.3542 83.4387 36.083 82.8462 36.692 82.1476C37.3568 81.3867 38.0752 81.2328 38.996 81.5426C40.2987 81.9813 41.624 82.3555 42.9329 82.7775C43.4098 82.9314 43.6803 82.842 43.8929 82.341C44.4606 81.0042 45.0593 79.6798 45.6952 78.3742C46.0317 77.684 45.8149 77.289 45.2142 76.9314C44.2067 76.3347 43.2467 75.6549 42.2227 75.0852C41.2029 74.5177 40.695 73.79 40.9242 72.5572C41.0542 71.8524 41.0006 71.1039 40.9655 70.3805C40.9159 69.3908 41.335 68.7505 42.2083 68.316C43.4098 67.7193 44.5804 67.0541 45.7716 66.4345C46.2547 66.1829 46.393 65.8586 46.1907 65.3347C45.6518 63.948 45.1275 62.5551 44.632 61.1538C44.4441 60.6237 44.1675 60.4636 43.6225 60.6008C42.2207 60.9522 40.8065 61.2474 39.4068 61.5988C38.6904 61.7775 38.1413 61.5988 37.6561 61.0457C37.0203 60.3181 36.3679 59.6029 35.6825 58.9272C35.0776 58.3306 34.8732 57.6923 35.1519 56.8649C35.5813 55.5863 35.9488 54.2869 36.3658 53.0042C36.5599 52.4054 36.5599 51.9938 35.8456 51.7089C34.5677 51.1996 33.3248 50.6008 32.0882 49.9938C31.4565 49.684 31.0415 49.7131 30.6575 50.3909C29.9763 51.5925 29.2062 52.7443 28.4857 53.9231C28.0604 54.6175 27.4514 54.9439 26.6586 54.8066C25.7688 54.6528 24.877 54.6424 23.9851 54.6778C23.0871 54.711 22.5008 54.3347 22.1044 53.5197C21.514 52.3077 20.8492 51.1331 20.2381 49.9314C19.9718 49.4054 19.6415 49.2495 19.0758 49.4782C17.736 50.0187 16.3899 50.5468 15.0274 51.027C14.4163 51.2432 14.2408 51.5343 14.4142 52.1829C14.7652 53.4844 15.0129 54.815 15.3473 56.1206C15.5848 57.0437 15.3308 57.7235 14.5814 58.2973C14.0096 58.736 13.4274 59.2017 12.9897 59.7671C12.2548 60.711 11.3959 60.8628 10.3369 60.5031C9.22823 60.1289 8.10103 59.8129 7.00066 59.42C6.23267 59.1455 5.78674 59.3368 5.47294 60.1102C4.96715 61.3597 4.4118 62.5904 3.82342 63.8025C3.53646 64.3929 3.62317 64.738 4.19503 65.0686C5.17979 65.6362 6.09642 66.3264 7.09769 66.8565C8.27444 67.4782 8.85043 68.3056 8.61921 69.6923C8.50154 70.4012 8.57999 71.1434 8.58824 71.8711C8.60063 72.7235 8.23728 73.3056 7.47136 73.6923C6.24299 74.3139 5.04766 75.0021 3.81517 75.6195C3.28253 75.8856 3.12563 76.1684 3.36098 76.7568C3.90187 78.1039 4.39735 79.4719 4.87218 80.8441C5.08689 81.4636 5.4172 81.6258 6.0448 81.4657C7.40943 81.1164 8.79469 80.8399 10.1634 80.5094C10.8819 80.3347 11.4641 80.5218 11.9079 81.0915C12.5479 81.9106 13.2664 82.6549 14.0096 83.3742C14.5319 83.8794 14.6496 84.4615 14.4101 85.1746C13.9703 86.4865 13.6318 87.8337 13.1714 89.1372C12.9257 89.8316 13.1363 90.1476 13.7536 90.4096C14.9572 90.921 16.1773 91.4137 17.3189 92.0437C18.1881 92.5239 18.6051 92.2432 19.0304 91.4844C19.6559 90.3701 20.3475 89.2931 21.0164 88.2017C21.386 87.5987 21.8835 87.2474 22.6288 87.2952C23.5888 87.3555 24.5508 87.4179 25.5108 87.395C26.4543 87.3721 27.0591 87.7484 27.47 88.6029C28.0398 89.7859 28.7045 90.9231 29.2826 92.1019C29.5695 92.6881 29.9205 92.8212 30.5171 92.5821C31.698 92.1081 32.883 91.6299 34.0949 91.2495C35.0569 90.948 35.3212 90.4553 35.0342 89.474C34.6358 88.1164 34.3633 86.7193 34.0681 85.4699V85.474Z" fill="#FE5000" fill-opacity="0.8"/>
<path d="M46.1679 26.7256C46.6841 26.7942 47.1093 27.0811 47.5181 27.4033C48.1127 27.8752 48.6907 28.368 49.308 28.8087C50.076 29.3597 50.6066 29.1518 50.782 28.2183C50.9555 27.3014 51.0649 26.3721 51.1991 25.449C51.3415 24.4698 51.8969 23.9958 52.8837 24.0021C54.6034 24.0125 56.3231 23.9875 58.0428 24.0104C59.1452 24.0249 59.651 24.5052 59.8059 25.6362C59.9153 26.4241 59.9731 27.2204 60.0639 28.0104C60.1899 29.0915 60.8154 29.395 61.6763 28.7692C62.4009 28.2432 63.0967 27.6757 63.8068 27.1289C64.5521 26.5572 65.283 26.5987 65.9436 27.2515C67.2194 28.5135 68.4746 29.7942 69.7319 31.0748C70.4276 31.7838 70.4297 32.5197 69.8165 33.2973C69.2818 33.973 68.7637 34.6653 68.2599 35.368C67.6282 36.2474 67.8388 36.7713 68.8813 36.9335C69.7298 37.0644 70.5845 37.1663 71.433 37.289C72.4281 37.4345 72.9773 38.0083 72.9855 39.0332C72.9979 40.7651 73.0041 42.4969 72.9814 44.2266C72.9669 45.2349 72.4529 45.8357 71.4289 45.9626C70.5432 46.0727 69.6555 46.1933 68.774 46.3285C67.9172 46.4615 67.6488 46.9917 68.1319 47.7131C68.6501 48.4865 69.2344 49.2162 69.8145 49.9459C70.4297 50.7214 70.4276 51.4574 69.7298 52.1663C68.4726 53.4449 67.2132 54.7256 65.9415 55.9896C65.2809 56.6466 64.5418 56.6819 63.8007 56.1268C63.0843 55.5904 62.3989 55.0104 61.6784 54.4761C60.8732 53.8773 60.2291 54.1414 60.0805 55.1414C59.9648 55.9272 59.9153 56.7256 59.8141 57.5135C59.6552 58.7609 59.1618 59.2204 57.9251 59.2328C56.2756 59.2495 54.624 59.2495 52.9725 59.2328C51.7874 59.2204 51.3766 58.8773 51.1578 57.6902C51.0133 56.9085 50.9493 56.1122 50.8337 55.3264C50.6479 54.0727 50.1111 53.8399 49.1263 54.5883C48.4678 55.0894 47.8195 55.605 47.1651 56.1081C46.3826 56.711 45.6312 56.6445 44.9416 55.9605C43.6926 54.7193 42.4436 53.4802 41.2276 52.2079C40.567 51.5177 40.5298 50.736 41.1203 49.9542C41.6612 49.237 42.2165 48.5301 42.7388 47.8004C43.3107 47 43.065 46.4636 42.0761 46.3181C41.1925 46.1892 40.3069 46.0727 39.4212 45.9501C38.4468 45.817 37.9451 45.2141 37.9265 44.2661C37.8914 42.501 37.8956 40.7339 37.9265 38.9688C37.943 38 38.4963 37.4387 39.4439 37.2952C40.3606 37.1559 41.2854 37.0624 42.2 36.9085C43.0402 36.7651 43.2777 36.2058 42.7863 35.5114C42.2681 34.7796 41.6859 34.0915 41.1636 33.3617C40.5113 32.4532 40.5381 31.7547 41.3143 30.9418C42.5055 29.6944 43.738 28.4844 44.9581 27.2661C45.2843 26.9418 45.6725 26.7276 46.1679 26.7235V26.7256ZM64.5748 53.1663C64.9609 53.1143 65.1384 52.8357 65.3552 52.6258C66.5003 51.5183 66.598 50.3305 65.6484 49.0624C65.2582 48.5405 64.771 48.0603 64.8081 47.3326C64.9113 45.395 66.2305 43.8856 68.1423 43.5946C70.4297 43.2474 70.0374 43.3971 70.1324 41.2308C70.1737 40.2786 69.8578 39.894 68.9082 39.7526C66.0447 39.3243 66.0654 39.2806 65.0104 36.659C64.7214 35.9397 64.773 35.3181 65.2375 34.7152C65.702 34.1143 66.1521 33.501 66.629 32.9085C66.9469 32.5135 66.9015 32.212 66.5691 31.8233C64.8597 29.8357 64.8721 29.8274 62.8303 31.3867C62.5558 31.5967 62.2812 31.8025 61.9922 31.9896C61.6598 32.2037 61.2923 32.2578 60.9021 32.1746C58.5094 31.6736 57.7827 30.9168 57.3966 28.5114C57.3409 28.1705 57.2831 27.8295 57.2274 27.4865C57.1716 27.1559 57.0354 26.8503 56.6699 26.8378C55.7843 26.8066 54.8264 26.5447 54.0336 26.9688C53.4019 27.3056 53.7219 28.1788 53.5608 28.7983C53.4906 29.0644 53.4659 29.343 53.437 29.6195C53.3441 30.4969 52.9332 31.0998 52.0558 31.3576C51.6636 31.474 51.2775 31.6424 50.9162 31.8399C49.9542 32.368 49.0954 32.2952 48.2696 31.5364C47.7885 31.0935 47.2435 30.7235 46.7233 30.3264C46.5354 30.1829 46.3228 29.9501 46.0874 30.1559C45.3628 30.79 44.5163 31.3825 44.1179 32.2453C43.8413 32.8461 44.6547 33.2744 44.9829 33.7755C45.2678 34.2079 45.5981 34.6091 45.8954 35.0332C46.1968 35.4636 46.2608 35.9314 46.0214 36.4075C44.4751 39.4885 45.7303 39.2578 41.977 39.7858C41.8408 39.8046 41.7066 39.8524 41.5703 39.8586C41.0129 39.8898 40.8313 40.1996 40.7879 40.7401C40.6 43.1746 40.5897 43.158 43.0051 43.6174C43.6286 43.736 44.4152 43.5967 44.8095 44.2183C45.4185 45.1767 45.8872 46.2453 46.1225 47.3493C46.2939 48.1601 45.5259 48.7006 45.0861 49.2994C43.8826 50.9335 43.9218 50.8752 45.241 52.3409C45.978 53.158 46.5519 53.291 47.3199 52.474C48.6226 51.0873 50.0079 50.738 51.8081 51.7463C52.7557 52.2765 53.3792 52.7671 53.4617 53.8586C53.4927 54.2723 53.6269 54.6819 53.6228 55.0915C53.6145 56.0915 54.0233 56.5842 55.0596 56.4449C55.2971 56.4137 55.5448 56.4116 55.7801 56.4449C56.8206 56.5925 57.3657 56.1684 57.3161 55.0915C57.217 53.0208 58.1977 51.8815 60.1692 51.3201C61.0941 51.0561 61.8022 50.9792 62.5413 51.6278C63.0327 52.0603 63.5715 52.4366 64.0917 52.8337C64.2528 52.9563 64.4262 53.0644 64.5748 53.1663Z" fill="#FE5000" fill-opacity="0.8"/>
<path d="M13.7061 71.0312C13.7081 64.8565 18.6484 59.9355 24.8315 59.948C30.9486 59.9626 35.8621 64.9647 35.8455 71.1622C35.829 77.2017 30.6802 82.3867 24.5982 82.1892C17.9506 81.973 13.7742 76.8087 13.7061 71.0291V71.0312ZM24.7139 79.3493C29.3631 79.3597 33.0812 75.6528 33.0626 71.0229C33.044 66.4698 29.3816 62.7651 24.8728 62.738C20.2071 62.7089 16.5014 66.3701 16.4869 71.0208C16.4745 75.632 20.1348 79.3389 24.7139 79.3513V79.3493Z" fill="#FE5000" fill-opacity="0.8"/>
<path d="M55.4602 49.0707C51.3415 49.0707 48.0239 45.7485 48.0198 41.6238C48.0157 37.5323 51.3787 34.1664 55.4684 34.1685C59.5664 34.1685 62.9212 37.5302 62.9171 41.63C62.9129 45.736 59.5705 49.0707 55.4602 49.0707ZM55.487 46.287C58.0697 46.2766 60.1383 44.1851 60.1218 41.5967C60.1073 39.0063 58.0263 36.9481 55.4354 36.9564C52.8961 36.9647 50.7593 39.1227 50.7779 41.657C50.7986 44.2225 52.9085 46.2974 55.487 46.287Z" fill="#FE5000" fill-opacity="0.8"/>
</g>
<defs>
<filter id="filter0_i_2002_447" x="0" y="24" width="73" height="76" filterUnits="userSpaceOnUse" color-interpolation-filters="sRGB">
<feFlood flood-opacity="0" result="BackgroundImageFix"/>
<feBlend mode="normal" in="SourceGraphic" in2="BackgroundImageFix" result="shape"/>
<feColorMatrix in="SourceAlpha" type="matrix" values="0 0 0 0 0 0 0 0 0 0 0 0 0 0 0 0 0 0 127 0" result="hardAlpha"/>
<feOffset dy="4"/>
<feGaussianBlur stdDeviation="2"/>
<feComposite in2="hardAlpha" operator="arithmetic" k2="-1" k3="1"/>
<feColorMatrix type="matrix" values="0 0 0 0 0.863889 0 0 0 0 0.272091 0 0 0 0 0 0 0 0 1 0"/>
<feBlend mode="normal" in2="shape" result="effect1_innerShadow_2002_447"/>
</filter>
<clipPath id="clip0_2002_447">
<rect width="73" height="72" fill="white" transform="translate(0 24)"/>
</clipPath>
</defs>
</svg>
