<svg width="92" height="120" viewBox="0 0 92 120" fill="none" xmlns="http://www.w3.org/2000/svg">
<g clip-path="url(#clip0_2002_449)" filter="url(#filter0_i_2002_449)">
<path d="M15.2869 26.0135C16.2666 26.1511 17.1605 26.5479 17.5926 27.552C18.0651 28.6505 17.8449 29.6789 16.994 30.5237C14.9486 32.5507 13.1314 34.7667 11.5933 37.2067C6.49862 45.2851 4.57133 54.1085 5.44908 63.5932C6.33488 73.1696 10.066 81.4127 16.8061 88.2685C18.0892 89.5748 18.1671 91.1241 17.0826 92.2065C15.9284 93.359 14.4521 93.2591 13.0643 91.8718C6.41541 85.2293 2.4293 77.2075 0.786534 67.9577C-1.06828 57.5202 0.359738 47.5659 5.07328 38.0893C7.11063 33.9948 9.79488 30.3672 13.024 27.1417C13.6495 26.5155 14.3447 26.0891 15.2869 26.0135Z" fill="#FE5000" fill-opacity="0.8"/>
<path d="M91.9946 59.6174C91.753 71.9793 87.783 82.827 79.0645 91.753C78.3129 92.5222 77.4889 93.1349 76.3588 92.9109C75.3898 92.7193 74.6114 92.1983 74.3 91.1889C73.9806 90.1497 74.2275 89.2266 74.9952 88.4682C77.046 86.4438 78.8579 84.2252 80.3959 81.7852C85.4853 73.7067 87.4179 64.8806 86.5402 55.3933C85.6517 45.8195 81.9233 37.5711 75.1831 30.7153C73.8947 29.4036 73.8141 27.8624 74.8986 26.78C76.0099 25.668 77.5238 25.7328 78.8283 27.0175C84.5163 32.6317 88.2876 39.3633 90.3518 47.0827C91.4497 51.1827 92.0509 55.3474 91.9946 59.6147V59.6174Z" fill="#FE5000" fill-opacity="0.8"/>
<path d="M12.0308 60.8725C12.0254 50.4053 15.021 42.5509 21.2136 35.957C21.5196 35.6304 21.8444 35.3092 22.2068 35.0555C23.259 34.3159 24.6333 34.4455 25.5299 35.3308C26.4452 36.235 26.5767 37.5414 25.7661 38.6399C25.1541 39.4685 24.4213 40.2027 23.7663 40.9989C19.4151 46.3027 17.1953 52.4675 17.155 59.2746C17.1121 66.8915 19.7426 73.6204 24.8669 79.302C25.0467 79.5017 25.24 79.6907 25.4171 79.8931C26.5445 81.2022 26.5955 82.5787 25.5594 83.6368C24.5152 84.7056 22.9235 84.7029 21.7236 83.5396C19.5198 81.4019 17.6757 78.9727 16.2128 76.2709C13.3783 71.0319 11.8858 65.4475 12.0308 60.8752V60.8725Z" fill="#FE5000" fill-opacity="0.8"/>
<path d="M79.9585 58.3407C79.9853 68.5245 77.0058 76.3843 70.8267 82.9917C70.5207 83.3183 70.2012 83.6422 69.8415 83.9013C68.7491 84.6949 67.3237 84.5599 66.4164 83.6152C65.5253 82.684 65.426 81.3911 66.2634 80.298C67.0795 79.2319 68.0324 78.2656 68.843 77.1967C77.4219 65.8821 76.673 50.1031 67.0795 39.644C66.9587 39.5118 66.8325 39.3849 66.7117 39.2499C65.4233 37.8113 65.3427 36.4186 66.4835 35.3146C67.5868 34.2485 69.1544 34.3241 70.4187 35.5953C73.8894 39.0853 76.4582 43.161 78.058 47.8277C79.3518 51.5957 80.1195 55.4635 79.9585 58.3407Z" fill="#FE5000" fill-opacity="0.8"/>
<path d="M56.0713 59.4635C56.0632 65.2639 51.7255 69.5852 45.9355 69.5636C40.2073 69.542 35.8481 65.1074 35.8911 59.3394C35.9313 53.9196 40.5617 49.323 45.9892 49.3149C51.4731 49.3068 56.0793 53.9439 56.0713 59.4635ZM46.0107 64.3516C48.7057 64.3462 50.8182 62.1842 50.7967 59.45C50.7779 56.7833 48.6842 54.6645 46.0483 54.6456C43.3372 54.6267 41.2005 56.7536 41.1951 59.4797C41.1871 62.2139 43.3076 64.357 46.0107 64.3516Z" fill="#FE5000" fill-opacity="0.8"/>
<path d="M23.9032 59.4717C23.973 53.6497 25.9889 48.6428 29.8085 44.362C31.0191 43.0044 32.4096 42.7102 33.6148 43.4767C34.9892 44.3485 35.2012 46.1192 33.9584 47.5713C32.4874 49.2852 31.156 51.0666 30.3642 53.2043C28.0316 59.5121 29.0086 65.2774 33.1934 70.5083C33.4726 70.8592 33.7947 71.175 34.0604 71.534C35.0536 72.8619 34.9945 74.3411 33.9289 75.2884C32.874 76.225 31.3332 76.1576 30.1843 75.005C28.4637 73.2803 27.1162 71.2668 26.064 69.067C24.6065 66.0251 23.922 62.7997 23.9059 59.4744L23.9032 59.4717Z" fill="#FE5000" fill-opacity="0.8"/>
<path d="M68.0726 59.3934C67.9384 65.3288 66.0004 70.4166 62.0948 74.719C60.8466 76.0928 59.2146 76.3114 58.0631 75.2777C56.9357 74.2655 56.8739 72.6865 58.1194 71.3181C60.4816 68.7242 62.0331 65.7579 62.6021 62.2842C63.4369 57.1909 62.1324 52.6753 58.9569 48.6672C58.6241 48.2461 58.2349 47.8682 57.9127 47.4364C56.9249 46.1138 57.0081 44.6212 58.0953 43.6846C59.1636 42.7642 60.7285 42.8614 61.8398 44.022C64.0033 46.2865 65.6488 48.8966 66.709 51.8548C67.5948 54.3272 68.0136 56.8913 68.0699 59.3907L68.0726 59.3934Z" fill="#FE5000" fill-opacity="0.8"/>
</g>
<defs>
<filter id="filter0_i_2002_449" x="0" y="26" width="92" height="71" filterUnits="userSpaceOnUse" color-interpolation-filters="sRGB">
<feFlood flood-opacity="0" result="BackgroundImageFix"/>
<feBlend mode="normal" in="SourceGraphic" in2="BackgroundImageFix" result="shape"/>
<feColorMatrix in="SourceAlpha" type="matrix" values="0 0 0 0 0 0 0 0 0 0 0 0 0 0 0 0 0 0 127 0" result="hardAlpha"/>
<feOffset dy="4"/>
<feGaussianBlur stdDeviation="2"/>
<feComposite in2="hardAlpha" operator="arithmetic" k2="-1" k3="1"/>
<feColorMatrix type="matrix" values="0 0 0 0 0.571111 0 0 0 0 0.196179 0 0 0 0 0.023796 0 0 0 0.8 0"/>
<feBlend mode="normal" in2="shape" result="effect1_innerShadow_2002_449"/>
</filter>
<clipPath id="clip0_2002_449">
<rect width="92" height="67" fill="white" transform="translate(0 26)"/>
</clipPath>
</defs>
</svg>
