<svg width="112" height="120" viewBox="0 0 112 120" fill="none" xmlns="http://www.w3.org/2000/svg">
<g clip-path="url(#clip0_2002_450)">
<path d="M76.2223 96.0629C74.904 94.8313 72.7599 94.8313 71.4416 96.0629C70.1233 97.2945 70.1233 99.2977 71.4416 100.529C72.7599 101.761 74.904 101.761 76.2223 100.529C77.5406 99.2977 77.5406 97.2945 76.2223 96.0629Z" fill="#FE5000"/>
<path d="M72.3769 84.3045C71.372 84.3045 70.5612 85.0621 70.5612 86.0009C70.5612 86.9397 71.377 87.6973 72.3769 87.6973C75.7946 87.6973 79.0083 88.9428 81.426 91.2015C83.8437 93.4603 85.1769 96.4626 85.1769 99.6555C85.1769 100.125 85.3809 100.548 85.7092 100.855C86.0376 101.161 86.4903 101.352 86.9927 101.352C87.9976 101.352 88.8085 100.594 88.8085 99.6555C88.8085 91.1922 81.4359 84.3045 72.3769 84.3045Z" fill="#FE5000"/>
<path d="M83.7691 76.7986C83.5452 77.3935 83.4209 78.0349 83.4209 78.6995V80.4284C80.0679 78.746 76.2921 77.849 72.3769 77.849C71.8795 77.849 71.4218 77.6584 71.0984 77.3517C70.7751 77.045 70.5612 76.622 70.5612 76.148C70.5612 75.2185 71.372 74.4516 72.372 74.4516C76.3766 74.4516 80.2519 75.2649 83.7691 76.7986Z" fill="#FE5000"/>
<path d="M99.355 99.6602C99.355 100.594 98.5441 101.352 97.5392 101.352C96.5343 101.352 95.7234 100.594 95.7234 99.6602C95.7234 96.0026 94.7633 92.475 92.9475 89.3425H94.8081C95.5194 89.3425 96.206 89.2264 96.8427 89.0172C98.4844 92.3031 99.355 95.9235 99.355 99.6649V99.6602Z" fill="#FE5000"/>
<path d="M89.9874 87.8878H94.3403C97.1098 87.8878 99.3549 85.7904 99.3549 83.203V79.1364C99.3549 76.5491 97.1098 74.4516 94.3403 74.4516H89.9874C87.218 74.4516 84.9729 76.5491 84.9729 79.1364V83.203C84.9729 85.7904 87.218 87.8878 89.9874 87.8878Z" fill="#FE5000"/>
<path d="M88.689 81.911V81.2232C88.689 77.8118 90.1964 76.4083 92.3803 76.4083C94.0966 76.4083 95.1462 77.3889 95.4298 78.7181H93.6837C93.4698 78.2812 93.0618 77.8955 92.3057 77.8955C91.1863 77.8955 90.4053 78.5833 90.3307 80.3913C90.853 79.8847 91.5644 79.5965 92.3753 79.5965C94.405 79.5965 95.6387 80.7491 95.6387 82.6872V82.8452C95.6387 84.6345 94.2458 85.9358 92.231 85.9358C90.072 85.9358 88.6791 84.6345 88.6791 81.9157L88.689 81.911ZM90.475 82.6825V82.8405C90.475 83.8351 91.1266 84.444 92.236 84.444C93.2011 84.444 93.8528 83.8351 93.8528 82.8405V82.6825C93.8528 81.6879 93.2011 81.0791 92.236 81.0791C91.1266 81.0791 90.475 81.6879 90.475 82.6825Z" fill="#1D1D1B"/>
</g>
<circle cx="11.742" cy="15.7419" r="0.903226" fill="#FE5000"/>
<circle cx="11.742" cy="64.5161" r="0.903226" fill="#FE5000"/>
<circle cx="11.742" cy="37.4194" r="0.903226" fill="#FE5000"/>
<circle cx="11.742" cy="86.1935" r="0.903226" fill="#FE5000"/>
<circle cx="11.742" cy="26.5806" r="0.903226" fill="#FE5000"/>
<circle cx="11.742" cy="75.3548" r="0.903226" fill="#FE5000"/>
<circle cx="11.742" cy="48.2581" r="0.903226" fill="#FE5000"/>
<circle cx="11.742" cy="97.0323" r="0.903226" fill="#FE5000"/>
<circle cx="11.742" cy="21.1613" r="0.903226" fill="#FE5000"/>
<circle cx="11.742" cy="69.9355" r="0.903226" fill="#FE5000"/>
<circle cx="11.742" cy="42.8388" r="0.903226" fill="#FE5000"/>
<circle cx="11.742" cy="91.6129" r="0.903226" fill="#FE5000"/>
<circle cx="11.742" cy="31.9999" r="0.903226" fill="#FE5000"/>
<circle cx="11.742" cy="80.7741" r="0.903226" fill="#FE5000"/>
<circle cx="11.742" cy="53.6775" r="0.903226" fill="#FE5000"/>
<circle cx="11.742" cy="102.452" r="0.903226" fill="#FE5000"/>
<circle cx="60.5161" cy="15.7419" r="0.903226" fill="#FE5000"/>
<circle cx="60.5161" cy="64.5161" r="0.903226" fill="#FE5000"/>
<circle cx="60.5161" cy="37.4194" r="0.903226" fill="#FE5000"/>
<circle cx="60.5161" cy="86.1935" r="0.903226" fill="#FE5000"/>
<circle cx="60.5161" cy="26.5806" r="0.903226" fill="#FE5000"/>
<circle cx="60.5161" cy="75.3548" r="0.903226" fill="#FE5000"/>
<circle cx="60.5161" cy="48.2581" r="0.903226" fill="#FE5000"/>
<circle cx="60.5161" cy="97.0323" r="0.903226" fill="#FE5000"/>
<circle cx="60.5161" cy="21.1613" r="0.903226" fill="#FE5000"/>
<circle cx="60.5161" cy="69.9355" r="0.903226" fill="#FE5000"/>
<circle cx="60.5161" cy="42.8388" r="0.903226" fill="#FE5000"/>
<circle cx="60.5161" cy="91.6129" r="0.903226" fill="#FE5000"/>
<circle cx="60.5161" cy="31.9999" r="0.903226" fill="#FE5000"/>
<circle cx="60.5161" cy="80.7741" r="0.903226" fill="#FE5000"/>
<circle cx="60.5161" cy="53.6775" r="0.903226" fill="#FE5000"/>
<circle cx="60.5161" cy="102.452" r="0.903226" fill="#FE5000"/>
<circle cx="33.4193" cy="15.7419" r="0.903226" fill="#FE5000"/>
<circle cx="33.4193" cy="64.5161" r="0.903226" fill="#FE5000"/>
<circle cx="33.4193" cy="37.4194" r="0.903226" fill="#FE5000"/>
<circle cx="33.4193" cy="86.1935" r="0.903226" fill="#FE5000"/>
<circle cx="33.4193" cy="26.5806" r="0.903226" fill="#FE5000"/>
<circle cx="33.4193" cy="75.3548" r="0.903226" fill="#FE5000"/>
<circle cx="33.4193" cy="48.2581" r="0.903226" fill="#FE5000"/>
<circle cx="33.4193" cy="97.0323" r="0.903226" fill="#FE5000"/>
<circle cx="33.4193" cy="21.1613" r="0.903226" fill="#FE5000"/>
<circle cx="33.4193" cy="69.9355" r="0.903226" fill="#FE5000"/>
<circle cx="33.4193" cy="42.8388" r="0.903226" fill="#FE5000"/>
<circle cx="33.4193" cy="91.6129" r="0.903226" fill="#FE5000"/>
<circle cx="33.4193" cy="31.9999" r="0.903226" fill="#FE5000"/>
<circle cx="33.4193" cy="80.7741" r="0.903226" fill="#FE5000"/>
<circle cx="33.4193" cy="53.6775" r="0.903226" fill="#FE5000"/>
<circle cx="33.4193" cy="102.452" r="0.903226" fill="#FE5000"/>
<circle cx="82.1935" cy="15.7419" r="0.903226" fill="#FE5000"/>
<circle cx="82.1935" cy="64.5161" r="0.903226" fill="#FE5000"/>
<circle cx="82.1935" cy="37.4194" r="0.903226" fill="#FE5000"/>
<circle cx="82.1935" cy="26.5806" r="0.903226" fill="#FE5000"/>
<circle cx="82.1935" cy="48.2581" r="0.903226" fill="#FE5000"/>
<circle cx="82.1935" cy="21.1613" r="0.903226" fill="#FE5000"/>
<circle cx="82.1935" cy="69.9355" r="0.903226" fill="#FE5000"/>
<circle cx="82.1935" cy="42.8388" r="0.903226" fill="#FE5000"/>
<circle cx="82.1935" cy="31.9999" r="0.903226" fill="#FE5000"/>
<circle cx="82.1935" cy="53.6775" r="0.903226" fill="#FE5000"/>
<circle cx="22.5807" cy="15.7419" r="0.903226" fill="#FE5000"/>
<circle cx="22.5807" cy="64.5161" r="0.903226" fill="#FE5000"/>
<circle cx="22.5807" cy="37.4194" r="0.903226" fill="#FE5000"/>
<circle cx="22.5807" cy="86.1935" r="0.903226" fill="#FE5000"/>
<circle cx="22.5807" cy="26.5806" r="0.903226" fill="#FE5000"/>
<circle cx="22.5807" cy="75.3548" r="0.903226" fill="#FE5000"/>
<circle cx="22.5807" cy="48.2581" r="0.903226" fill="#FE5000"/>
<circle cx="22.5807" cy="97.0323" r="0.903226" fill="#FE5000"/>
<circle cx="22.5807" cy="21.1613" r="0.903226" fill="#FE5000"/>
<circle cx="22.5807" cy="69.9355" r="0.903226" fill="#FE5000"/>
<circle cx="22.5807" cy="42.8388" r="0.903226" fill="#FE5000"/>
<circle cx="22.5807" cy="91.6129" r="0.903226" fill="#FE5000"/>
<circle cx="22.5807" cy="31.9999" r="0.903226" fill="#FE5000"/>
<circle cx="22.5807" cy="80.7741" r="0.903226" fill="#FE5000"/>
<circle cx="22.5807" cy="53.6775" r="0.903226" fill="#FE5000"/>
<circle cx="22.5807" cy="102.452" r="0.903226" fill="#FE5000"/>
<circle cx="71.3549" cy="15.7419" r="0.903226" fill="#FE5000"/>
<circle cx="71.3549" cy="64.5161" r="0.903226" fill="#FE5000"/>
<circle cx="71.3549" cy="37.4194" r="0.903226" fill="#FE5000"/>
<circle cx="71.3549" cy="26.5806" r="0.903226" fill="#FE5000"/>
<circle cx="71.3549" cy="48.2581" r="0.903226" fill="#FE5000"/>
<circle cx="71.3549" cy="21.1613" r="0.903226" fill="#FE5000"/>
<circle cx="71.3549" cy="69.9355" r="0.903226" fill="#FE5000"/>
<circle cx="71.3549" cy="42.8388" r="0.903226" fill="#FE5000"/>
<circle cx="71.3549" cy="31.9999" r="0.903226" fill="#FE5000"/>
<circle cx="71.3549" cy="53.6775" r="0.903226" fill="#FE5000"/>
<circle cx="44.2581" cy="15.7419" r="0.903226" fill="#FE5000"/>
<circle cx="44.2581" cy="64.5161" r="0.903226" fill="#FE5000"/>
<circle cx="44.2581" cy="37.4194" r="0.903226" fill="#FE5000"/>
<circle cx="44.2581" cy="86.1935" r="0.903226" fill="#FE5000"/>
<circle cx="44.2581" cy="26.5806" r="0.903226" fill="#FE5000"/>
<circle cx="44.2581" cy="75.3548" r="0.903226" fill="#FE5000"/>
<circle cx="44.2581" cy="48.2581" r="0.903226" fill="#FE5000"/>
<circle cx="44.2581" cy="97.0323" r="0.903226" fill="#FE5000"/>
<circle cx="44.2581" cy="21.1613" r="0.903226" fill="#FE5000"/>
<circle cx="44.2581" cy="69.9355" r="0.903226" fill="#FE5000"/>
<circle cx="44.2581" cy="42.8388" r="0.903226" fill="#FE5000"/>
<circle cx="44.2581" cy="91.6129" r="0.903226" fill="#FE5000"/>
<circle cx="44.2581" cy="31.9999" r="0.903226" fill="#FE5000"/>
<circle cx="44.2581" cy="80.7741" r="0.903226" fill="#FE5000"/>
<circle cx="44.2581" cy="53.6775" r="0.903226" fill="#FE5000"/>
<circle cx="44.2581" cy="102.452" r="0.903226" fill="#FE5000"/>
<circle cx="93.0323" cy="15.7419" r="0.903226" fill="#FE5000"/>
<circle cx="93.0323" cy="64.5161" r="0.903226" fill="#FE5000"/>
<circle cx="93.0323" cy="37.4194" r="0.903226" fill="#FE5000"/>
<circle cx="93.0323" cy="26.5806" r="0.903226" fill="#FE5000"/>
<circle cx="93.0323" cy="48.2581" r="0.903226" fill="#FE5000"/>
<circle cx="93.0323" cy="21.1613" r="0.903226" fill="#FE5000"/>
<circle cx="93.0323" cy="69.9355" r="0.903226" fill="#FE5000"/>
<circle cx="93.0323" cy="42.8388" r="0.903226" fill="#FE5000"/>
<circle cx="93.0323" cy="31.9999" r="0.903226" fill="#FE5000"/>
<circle cx="93.0323" cy="53.6775" r="0.903226" fill="#FE5000"/>
<circle cx="17.1613" cy="15.7419" r="0.903226" fill="#FE5000"/>
<circle cx="17.1613" cy="64.5161" r="0.903226" fill="#FE5000"/>
<circle cx="17.1613" cy="37.4194" r="0.903226" fill="#FE5000"/>
<circle cx="17.1613" cy="86.1935" r="0.903226" fill="#FE5000"/>
<circle cx="17.1613" cy="26.5806" r="0.903226" fill="#FE5000"/>
<circle cx="17.1613" cy="75.3548" r="0.903226" fill="#FE5000"/>
<circle cx="17.1613" cy="48.2581" r="0.903226" fill="#FE5000"/>
<circle cx="17.1613" cy="97.0323" r="0.903226" fill="#FE5000"/>
<circle cx="17.1613" cy="21.1613" r="0.903226" fill="#FE5000"/>
<circle cx="17.1613" cy="69.9355" r="0.903226" fill="#FE5000"/>
<circle cx="17.1613" cy="42.8388" r="0.903226" fill="#FE5000"/>
<circle cx="17.1613" cy="91.6129" r="0.903226" fill="#FE5000"/>
<circle cx="17.1613" cy="31.9999" r="0.903226" fill="#FE5000"/>
<circle cx="17.1613" cy="80.7741" r="0.903226" fill="#FE5000"/>
<circle cx="17.1613" cy="53.6775" r="0.903226" fill="#FE5000"/>
<circle cx="17.1613" cy="102.452" r="0.903226" fill="#FE5000"/>
<circle cx="65.9355" cy="15.7419" r="0.903226" fill="#FE5000"/>
<circle cx="65.9355" cy="64.5161" r="0.903226" fill="#FE5000"/>
<circle cx="65.9355" cy="37.4194" r="0.903226" fill="#FE5000"/>
<circle cx="65.9355" cy="86.1935" r="0.903226" fill="#FE5000"/>
<circle cx="65.9355" cy="26.5806" r="0.903226" fill="#FE5000"/>
<circle cx="65.9355" cy="75.3548" r="0.903226" fill="#FE5000"/>
<circle cx="65.9355" cy="48.2581" r="0.903226" fill="#FE5000"/>
<circle cx="65.9355" cy="97.0323" r="0.903226" fill="#FE5000"/>
<circle cx="65.9355" cy="21.1613" r="0.903226" fill="#FE5000"/>
<circle cx="65.9355" cy="69.9355" r="0.903226" fill="#FE5000"/>
<circle cx="65.9355" cy="42.8388" r="0.903226" fill="#FE5000"/>
<circle cx="65.9355" cy="91.6129" r="0.903226" fill="#FE5000"/>
<circle cx="65.9355" cy="31.9999" r="0.903226" fill="#FE5000"/>
<circle cx="65.9355" cy="80.7741" r="0.903226" fill="#FE5000"/>
<circle cx="65.9355" cy="53.6775" r="0.903226" fill="#FE5000"/>
<circle cx="65.9355" cy="102.452" r="0.903226" fill="#FE5000"/>
<circle cx="38.8388" cy="15.7419" r="0.903226" fill="#FE5000"/>
<circle cx="38.8388" cy="64.5161" r="0.903226" fill="#FE5000"/>
<circle cx="38.8388" cy="37.4194" r="0.903226" fill="#FE5000"/>
<circle cx="38.8388" cy="86.1935" r="0.903226" fill="#FE5000"/>
<circle cx="38.8388" cy="26.5806" r="0.903226" fill="#FE5000"/>
<circle cx="38.8388" cy="75.3548" r="0.903226" fill="#FE5000"/>
<circle cx="38.8388" cy="48.2581" r="0.903226" fill="#FE5000"/>
<circle cx="38.8388" cy="97.0323" r="0.903226" fill="#FE5000"/>
<circle cx="38.8388" cy="21.1613" r="0.903226" fill="#FE5000"/>
<circle cx="38.8388" cy="69.9355" r="0.903226" fill="#FE5000"/>
<circle cx="38.8388" cy="42.8388" r="0.903226" fill="#FE5000"/>
<circle cx="38.8388" cy="91.6129" r="0.903226" fill="#FE5000"/>
<circle cx="38.8388" cy="31.9999" r="0.903226" fill="#FE5000"/>
<circle cx="38.8388" cy="80.7741" r="0.903226" fill="#FE5000"/>
<circle cx="38.8388" cy="53.6775" r="0.903226" fill="#FE5000"/>
<circle cx="38.8388" cy="102.452" r="0.903226" fill="#FE5000"/>
<circle cx="87.6129" cy="15.7419" r="0.903226" fill="#FE5000"/>
<circle cx="87.6129" cy="64.5161" r="0.903226" fill="#FE5000"/>
<circle cx="87.6129" cy="37.4194" r="0.903226" fill="#FE5000"/>
<circle cx="87.6129" cy="26.5806" r="0.903226" fill="#FE5000"/>
<circle cx="87.6129" cy="48.2581" r="0.903226" fill="#FE5000"/>
<circle cx="87.6129" cy="21.1613" r="0.903226" fill="#FE5000"/>
<circle cx="87.6129" cy="69.9355" r="0.903226" fill="#FE5000"/>
<circle cx="87.6129" cy="42.8388" r="0.903226" fill="#FE5000"/>
<circle cx="87.6129" cy="31.9999" r="0.903226" fill="#FE5000"/>
<circle cx="87.6129" cy="53.6775" r="0.903226" fill="#FE5000"/>
<circle cx="28" cy="15.7419" r="0.903226" fill="#FE5000"/>
<circle cx="28" cy="64.5161" r="0.903226" fill="#FE5000"/>
<circle cx="28" cy="37.4194" r="0.903226" fill="#FE5000"/>
<circle cx="28" cy="86.1935" r="0.903226" fill="#FE5000"/>
<circle cx="28" cy="26.5806" r="0.903226" fill="#FE5000"/>
<circle cx="28" cy="75.3548" r="0.903226" fill="#FE5000"/>
<circle cx="28" cy="48.2581" r="0.903226" fill="#FE5000"/>
<circle cx="28" cy="97.0323" r="0.903226" fill="#FE5000"/>
<circle cx="28" cy="21.1613" r="0.903226" fill="#FE5000"/>
<circle cx="28" cy="69.9355" r="0.903226" fill="#FE5000"/>
<circle cx="28" cy="42.8388" r="0.903226" fill="#FE5000"/>
<circle cx="28" cy="91.6129" r="0.903226" fill="#FE5000"/>
<circle cx="28" cy="31.9999" r="0.903226" fill="#FE5000"/>
<circle cx="28" cy="80.7741" r="0.903226" fill="#FE5000"/>
<circle cx="28" cy="53.6775" r="0.903226" fill="#FE5000"/>
<circle cx="28" cy="102.452" r="0.903226" fill="#FE5000"/>
<circle cx="76.7742" cy="15.7419" r="0.903226" fill="#FE5000"/>
<circle cx="76.7742" cy="64.5161" r="0.903226" fill="#FE5000"/>
<circle cx="76.7742" cy="37.4194" r="0.903226" fill="#FE5000"/>
<circle cx="76.7742" cy="26.5806" r="0.903226" fill="#FE5000"/>
<circle cx="76.7742" cy="48.2581" r="0.903226" fill="#FE5000"/>
<circle cx="76.7742" cy="21.1613" r="0.903226" fill="#FE5000"/>
<circle cx="76.7742" cy="69.9355" r="0.903226" fill="#FE5000"/>
<circle cx="76.7742" cy="42.8388" r="0.903226" fill="#FE5000"/>
<circle cx="76.7742" cy="31.9999" r="0.903226" fill="#FE5000"/>
<circle cx="76.7742" cy="53.6775" r="0.903226" fill="#FE5000"/>
<circle cx="49.6774" cy="15.7419" r="0.903226" fill="#FE5000"/>
<circle cx="49.6774" cy="64.5161" r="0.903226" fill="#FE5000"/>
<circle cx="49.6774" cy="37.4194" r="0.903226" fill="#FE5000"/>
<circle cx="49.6774" cy="86.1935" r="0.903226" fill="#FE5000"/>
<circle cx="49.6774" cy="26.5806" r="0.903226" fill="#FE5000"/>
<circle cx="49.6774" cy="75.3548" r="0.903226" fill="#FE5000"/>
<circle cx="49.6774" cy="48.2581" r="0.903226" fill="#FE5000"/>
<circle cx="49.6774" cy="97.0323" r="0.903226" fill="#FE5000"/>
<circle cx="49.6774" cy="21.1613" r="0.903226" fill="#FE5000"/>
<circle cx="49.6774" cy="69.9355" r="0.903226" fill="#FE5000"/>
<circle cx="49.6774" cy="42.8388" r="0.903226" fill="#FE5000"/>
<circle cx="49.6774" cy="91.6129" r="0.903226" fill="#FE5000"/>
<circle cx="49.6774" cy="31.9999" r="0.903226" fill="#FE5000"/>
<circle cx="49.6774" cy="80.7741" r="0.903226" fill="#FE5000"/>
<circle cx="49.6774" cy="53.6775" r="0.903226" fill="#FE5000"/>
<circle cx="49.6774" cy="102.452" r="0.903226" fill="#FE5000"/>
<circle cx="98.4516" cy="15.7419" r="0.903226" fill="#FE5000"/>
<circle cx="98.4516" cy="64.5161" r="0.903226" fill="#FE5000"/>
<circle cx="98.4516" cy="37.4194" r="0.903226" fill="#FE5000"/>
<circle cx="98.4516" cy="26.5806" r="0.903226" fill="#FE5000"/>
<circle cx="98.4516" cy="48.2581" r="0.903226" fill="#FE5000"/>
<circle cx="98.4516" cy="21.1613" r="0.903226" fill="#FE5000"/>
<circle cx="98.4516" cy="69.9355" r="0.903226" fill="#FE5000"/>
<circle cx="98.4516" cy="42.8388" r="0.903226" fill="#FE5000"/>
<circle cx="98.4516" cy="31.9999" r="0.903226" fill="#FE5000"/>
<circle cx="98.4516" cy="53.6775" r="0.903226" fill="#FE5000"/>
<path d="M56 4L53.1132 9L58.8868 9L56 4ZM56 116L58.8868 111L53.1133 111L56 116ZM56 8.5L55.5 8.5L55.5 111.5L56 111.5L56.5 111.5L56.5 8.5L56 8.5Z" fill="#FE5000"/>
<path d="M0 60L4.99958 62.8875L5.00042 57.114L0 60ZM112 60.0163L107 57.1288L107 62.9023L112 60.0163ZM4.5 60.0007L4.49993 60.5007L107.5 60.5156L107.5 60.0156L107.5 59.5156L4.50007 59.5007L4.5 60.0007Z" fill="#FE5000"/>
<defs>
<clipPath id="clip0_2002_450">
<rect width="28.9032" height="28.9032" fill="white" transform="translate(70.4517 74.4516)"/>
</clipPath>
</defs>
</svg>
