<svg width="73" height="120" viewBox="0 0 73 120" fill="none" xmlns="http://www.w3.org/2000/svg">
<g clip-path="url(#clip0_2002_452)" filter="url(#filter0_i_2002_452)">
<path d="M17.2606 91C12.1793 91 7.09992 91 2.01858 90.998C1.65392 90.998 1.27929 91.01 0.930571 90.9263C0.352692 90.7909 0.0139357 90.3866 0.00795767 89.7831C0.00197962 89.2155 0.314831 88.8311 0.862819 88.7096C1.27929 88.618 1.71569 88.5702 2.14212 88.5702C12.2709 88.5622 22.3998 88.5622 32.5266 88.5702C32.955 88.5702 33.3894 88.614 33.8079 88.6996C34.3559 88.8132 34.6827 89.1776 34.6926 89.7512C34.7046 90.3647 34.3579 90.763 33.786 90.9024C33.4053 90.996 32.9968 90.996 32.6003 90.996C27.4871 91.002 22.3719 91 17.2586 91H17.2606Z" fill="#FE5000" fill-opacity="0.8"/>
<path d="M17.2803 28C22.4254 28 27.5725 28 32.7176 28C34.0447 28 34.6744 28.3784 34.6923 29.1631C34.7123 30.0116 34.0846 30.4278 32.6957 30.4298C22.4692 30.4358 12.2447 30.4358 2.01829 30.4298C0.613446 30.4318 -0.0182345 30.0255 -0.000300375 29.193C0.0176338 28.3605 0.629388 28 2.0422 28C7.12155 28 12.2009 28 17.2803 28Z" fill="#FE5000" fill-opacity="0.8"/>
<path d="M28.6588 60.4321C29.685 60.4321 30.7133 60.454 31.7395 60.4241C32.407 60.4042 32.7119 60.6671 32.7259 61.3403C32.7817 63.7044 33.1882 66.0127 33.8717 68.2733C34.051 68.8668 33.9334 69.2073 33.2759 69.3507C31.883 69.6555 30.5299 70.0996 29.2188 70.6612C28.8083 70.8365 28.4675 70.7768 28.1746 70.3884C26.1261 67.6797 24.9484 64.6325 24.5818 61.2626C24.516 60.6611 24.783 60.4182 25.3769 60.4261C26.4708 60.4441 27.5628 60.4301 28.6568 60.4301L28.6588 60.4321Z" fill="#FE5000" fill-opacity="0.8"/>
<path d="M56.6401 60.4341C57.7022 60.4341 58.7643 60.4401 59.8244 60.4321C60.3644 60.4281 60.5916 60.6353 60.5457 61.2148C60.2767 64.5827 59.0452 67.5742 57.0685 70.2868C56.7835 70.6772 56.4587 70.8704 55.9645 70.6632C54.6474 70.1076 53.2884 69.6794 51.8995 69.3507C51.2957 69.2073 51.0884 68.9544 51.2917 68.2971C51.9453 66.1661 52.294 63.9733 52.4076 61.7486C52.4574 60.7767 52.7942 60.3066 53.8543 60.4102C54.7749 60.4998 55.7095 60.4281 56.6401 60.4281V60.4321V60.4341Z" fill="#FE5000" fill-opacity="0.8"/>
<path d="M28.5352 58.5679C27.4731 58.5679 26.413 58.554 25.3509 58.5719C24.7332 58.5819 24.522 58.2891 24.5877 57.7075C24.9484 54.4771 26.0384 51.5314 27.9613 48.8984C28.2762 48.4682 28.593 48.283 29.133 48.528C30.4343 49.1195 31.8092 49.5079 33.1902 49.8684C33.8119 50.0297 33.9972 50.3026 33.8059 50.9319C33.1463 53.0968 32.7916 55.3195 32.7358 57.582C32.7179 58.2811 32.4568 58.6058 31.7195 58.5799C30.6594 58.542 29.5973 58.5699 28.5352 58.5679Z" fill="#FE5000" fill-opacity="0.8"/>
<path d="M56.6162 58.5679C55.5561 58.5679 54.496 58.544 53.4358 58.5779C52.8082 58.5978 52.5252 58.3309 52.4794 57.7274C52.296 55.3474 51.9872 52.9893 51.3116 50.6929C51.1742 50.2229 51.3894 50.0158 51.8078 49.9102C53.2864 49.5378 54.743 49.0936 56.1419 48.4822C56.6002 48.281 56.8971 48.4742 57.1542 48.8307C59.0891 51.5234 60.2867 54.489 60.5497 57.8151C60.5976 58.4165 60.3126 58.5719 59.7965 58.5679C58.7364 58.5599 57.6763 58.5659 56.6162 58.5679Z" fill="#FE5000" fill-opacity="0.8"/>
<path d="M67.7373 53.5788C67.002 53.8357 66.8546 53.2681 66.6892 52.6965C65.4378 48.4025 63.2438 44.6642 60.0276 41.5472C57.0187 38.6294 53.4956 36.5761 49.4525 35.4368C48.498 35.168 48.0954 33.9491 48.6813 33.1006C48.9105 32.768 49.2153 32.9054 49.4903 32.9791C53.5375 34.0387 57.1761 35.9029 60.3425 38.6354C64.5172 42.2363 67.4325 46.6658 68.9369 51.9954C69.3434 53.4314 69.3295 53.4732 67.7373 53.5828V53.5788Z" fill="#FE5000" fill-opacity="0.8"/>
<path d="M67.837 65.4311C69.3355 65.5506 69.3733 65.5924 68.9309 67.0125C65.92 76.678 59.5693 82.9856 49.8649 85.8974C49.4345 86.0268 48.8367 86.5247 48.6036 85.6106C48.2509 84.2204 48.3525 83.8798 49.2671 83.6189C55.4664 81.8463 60.3026 78.2414 63.7779 72.8202C65.0751 70.7966 66.0336 68.6118 66.6832 66.2995C66.8705 65.6383 67.1216 65.1782 67.835 65.4311H67.837Z" fill="#FE5000" fill-opacity="0.8"/>
<path d="M17.2865 53.5689C15.8219 53.4494 15.7621 53.4314 16.2125 51.9516C18.6854 43.8556 23.7747 38.018 31.4545 34.449C32.7478 33.8475 34.1048 33.4113 35.4778 33.015C36.1513 32.8218 36.5159 32.8477 36.5717 33.7061C36.6694 35.164 36.7033 35.1102 35.3024 35.5663C26.7677 38.3446 21.1683 44.0328 18.5081 52.5989C18.1872 53.6346 18.2231 53.6445 17.2865 53.5689Z" fill="#FE5000" fill-opacity="0.8"/>
<path d="M17.4778 65.4132C18.0657 65.236 18.2769 65.5726 18.4483 66.1442C21.0906 74.9732 26.8235 80.7709 35.6232 83.5293C36.5957 83.8341 37.054 85.0948 36.4482 85.9074C36.1573 86.2977 35.7787 86.0468 35.4459 85.9591C31.3728 84.8717 27.7501 82.9239 24.5758 80.1614C20.6004 76.7019 17.8784 72.4159 16.2982 67.3989C16.2185 67.146 16.1906 66.8771 16.1009 66.6282C15.8179 65.8375 16.0252 65.4132 16.9239 65.4591C17.0873 65.467 17.2547 65.4332 17.4758 65.4132H17.4778Z" fill="#FE5000" fill-opacity="0.8"/>
<path d="M16.352 63.7024C14.0584 63.7024 12.1534 61.8143 12.1374 59.5319C12.1215 57.2056 14.0524 55.2797 16.3878 55.2976C18.6694 55.3135 20.5705 57.2395 20.5545 59.5179C20.5386 61.8123 18.6396 63.7044 16.352 63.7024Z" fill="#FE5000" fill-opacity="0.8"/>
<path d="M73 59.4681C73.0139 61.7665 71.1588 63.6646 68.8632 63.7024C66.5576 63.7402 64.5789 61.7864 64.5909 59.4801C64.6028 57.2136 66.5377 55.2916 68.8014 55.2976C71.103 55.3036 72.988 57.1758 73.002 59.4681H73Z" fill="#FE5000" fill-opacity="0.8"/>
<path d="M46.7205 33.2719C46.7244 35.6519 44.9589 37.4424 42.5996 37.4504C40.1884 37.4584 38.3273 35.5683 38.3572 33.1365C38.3831 31.0054 40.4236 29.0317 42.5876 29.0436C44.8553 29.0556 46.7165 30.9616 46.7205 33.2719Z" fill="#FE5000" fill-opacity="0.8"/>
<path d="M46.7205 85.746C46.7125 88.0503 44.8334 89.9563 42.5717 89.9563C40.4256 89.9563 38.3711 87.9508 38.3591 85.8436C38.3452 83.4038 40.1984 81.5356 42.6195 81.5496C44.9749 81.5635 46.7304 83.358 46.7224 85.746H46.7205Z" fill="#FE5000" fill-opacity="0.8"/>
<path d="M43.4565 64.2879C43.4565 63.2921 43.4624 62.2963 43.4545 61.3025C43.4485 60.6771 43.7314 60.4162 44.3651 60.4241C46.1565 60.446 47.95 60.448 49.7434 60.4241C50.4348 60.4142 50.7198 60.701 50.668 61.3742C50.4966 63.6626 50.1499 65.9171 49.4704 68.1159C49.313 68.6278 48.9662 68.7433 48.472 68.6915C47.121 68.5501 45.768 68.3947 44.411 68.329C43.6597 68.2932 43.4306 67.9586 43.4445 67.2734C43.4664 66.2776 43.4505 65.2818 43.4505 64.2879H43.4545H43.4565Z" fill="#FE5000" fill-opacity="0.8"/>
<path d="M41.6969 64.4014C41.6969 65.3973 41.6869 66.3911 41.7009 67.3869C41.7089 67.9964 41.4638 68.2792 40.8261 68.319C39.4372 68.4087 38.0523 68.5441 36.6674 68.6915C36.1473 68.7472 35.8504 68.5521 35.689 68.0741C34.9298 65.8235 34.6548 63.4893 34.4874 61.1391C34.4515 60.6312 34.7464 60.4321 35.2267 60.4341C37.1177 60.4381 39.0108 60.442 40.9018 60.4301C41.5275 60.4261 41.6989 60.7766 41.6969 61.3164C41.6929 62.3441 41.6969 63.3738 41.6969 64.4014Z" fill="#FE5000" fill-opacity="0.8"/>
<path d="M43.4525 54.7459C43.4525 53.8178 43.4664 52.8877 43.4485 51.9596C43.4365 51.2784 43.6856 50.9299 44.4229 50.8881C45.7461 50.8124 47.0672 50.6789 48.3864 50.5335C48.9882 50.4678 49.3947 50.5634 49.586 51.2366C50.1639 53.2541 50.4548 55.3175 50.67 57.3988C50.7557 58.2273 50.4926 58.6177 49.578 58.5878C47.8862 58.534 46.1924 58.544 44.5006 58.5838C43.7135 58.6037 43.4246 58.2871 43.4485 57.5322C43.4764 56.6041 43.4545 55.674 43.4565 54.7459H43.4525Z" fill="#FE5000" fill-opacity="0.8"/>
<path d="M41.6949 54.7658C41.6949 55.7577 41.6909 56.7515 41.6949 57.7434C41.6989 58.319 41.4319 58.5779 40.846 58.5739C38.9928 58.5599 37.1396 58.5599 35.2864 58.5739C34.6886 58.5779 34.4356 58.309 34.4854 57.7274C34.6647 55.6163 34.9258 53.523 35.4957 51.4716C35.7149 50.679 36.1194 50.428 36.9364 50.5475C38.1439 50.7248 39.3694 50.8443 40.589 50.8761C41.4677 50.9 41.7547 51.2605 41.7128 52.0891C41.667 52.9793 41.7029 53.8756 41.7029 54.7678H41.6969L41.6949 54.7658Z" fill="#FE5000" fill-opacity="0.8"/>
<path d="M8.12417 45.5823C6.06573 45.5823 4.00928 45.5883 1.95084 45.5783C1.58817 45.5783 1.21554 45.5604 0.868808 45.4688C0.340747 45.3274 0.015939 44.949 0.00597562 44.3853C-0.00398781 43.8197 0.2989 43.4294 0.83294 43.28C1.17767 43.1824 1.55031 43.1485 1.91098 43.1485C6.02588 43.1406 10.1428 43.1426 14.2577 43.1426C14.3573 43.1426 14.4569 43.1426 14.5566 43.1445C15.7482 43.1864 16.2603 43.5668 16.2284 44.3834C16.1965 45.186 15.6565 45.5744 14.4968 45.5783C12.3726 45.5883 10.2484 45.5803 8.12417 45.5803V45.5823Z" fill="#FE5000" fill-opacity="0.8"/>
<path d="M8.14206 75.8595C6.08361 75.8595 4.02716 75.8595 1.96872 75.8595C1.57018 75.8595 1.17165 75.8694 0.791045 75.7181C0.3128 75.5288 0.0198757 75.1923 0.0079196 74.6724C-0.00602919 74.1088 0.288888 73.7045 0.818942 73.5531C1.19357 73.4456 1.60207 73.4237 1.99662 73.4217C6.11151 73.4137 10.2284 73.4157 14.3433 73.4197C14.6741 73.4197 15.0148 73.4157 15.3297 73.4993C15.9036 73.6487 16.2204 74.0451 16.2304 74.6585C16.2403 75.2938 15.8956 75.6643 15.3038 75.7619C14.8176 75.8415 14.3154 75.8535 13.8192 75.8555C11.9282 75.8654 10.0351 75.8595 8.14405 75.8595H8.14206Z" fill="#FE5000" fill-opacity="0.8"/>
<path d="M39.78 41.8738C39.2878 42.2522 38.8972 42.5331 38.5286 42.8378C37.042 44.0666 35.9401 45.6042 35.1629 47.3449C34.7963 48.1655 34.3141 48.3587 33.5309 48.1017C32.5226 47.7711 31.5103 47.4505 30.506 47.1099C30.0079 46.9406 29.8644 46.6538 30.3048 46.2495C32.8634 43.9093 35.8385 42.3897 39.2559 41.7563C39.3655 41.7364 39.493 41.8061 39.778 41.8738H39.78Z" fill="#FE5000" fill-opacity="0.8"/>
<path d="M45.491 41.9356C46.3857 41.6368 47.1529 42.0332 47.9141 42.2563C50.4288 42.9932 52.6467 44.2997 54.6075 46.0304C55.3568 46.6897 55.3269 46.8928 54.4062 47.2175C53.378 47.5799 52.3219 47.8687 51.2737 48.1695C50.7736 48.3129 50.4109 48.1954 50.1558 47.6596C49.0738 45.3951 47.7288 43.3298 45.491 41.9376V41.9356Z" fill="#FE5000" fill-opacity="0.8"/>
<path d="M39.6186 77.1719C38.7557 77.3651 37.9905 76.9648 37.2333 76.7417C34.7823 76.0207 32.6063 74.764 30.6794 73.089C29.9879 72.4875 30.0158 72.2764 30.8806 71.9777C31.883 71.6311 32.9012 71.3344 33.9175 71.0297C34.4097 70.8823 34.8062 70.94 35.0653 71.4877C36.1015 73.6825 37.4884 75.5945 39.5628 76.9369C39.6006 76.9608 39.5947 77.0564 39.6206 77.1739L39.6186 77.1719Z" fill="#FE5000" fill-opacity="0.8"/>
<path d="M45.22 77.1102C47.6789 75.6822 49.038 73.6646 50.124 71.432C50.3711 70.9241 50.7576 70.8942 51.204 71.0237C52.2243 71.3205 53.2465 71.6073 54.2488 71.9538C55.1236 72.2565 55.1754 72.4916 54.4879 73.0751C52.4375 74.8098 50.1678 76.1642 47.5494 76.8473C46.8978 77.0166 46.2562 77.3751 45.22 77.1122V77.1102Z" fill="#FE5000" fill-opacity="0.8"/>
<path d="M44.5166 49.1633C43.8211 49.239 43.4385 48.998 43.4505 48.2352C43.4704 46.8749 43.4584 45.5166 43.4564 44.1563C43.4564 43.3716 43.841 43.2222 44.4707 43.5727C46.2861 44.5865 47.4338 46.1878 48.3066 48.0161C48.5617 48.5519 48.2528 48.7351 47.7766 48.7909C46.6906 48.9144 45.6046 49.0398 44.5166 49.1653V49.1633Z" fill="#FE5000" fill-opacity="0.8"/>
<path d="M41.6949 46.2256C41.6949 46.9227 41.687 47.6198 41.6969 48.3168C41.7049 48.8984 41.4339 49.2031 40.85 49.1474C39.6285 49.0318 38.409 48.9024 37.1915 48.755C36.7611 48.7032 36.6415 48.4264 36.8268 48.034C37.6817 46.2316 38.8155 44.6562 40.575 43.6305C41.394 43.1525 41.673 43.3457 41.6969 44.3335C41.7129 44.9629 41.6989 45.5943 41.6989 46.2256H41.6949Z" fill="#FE5000" fill-opacity="0.8"/>
<path d="M43.4505 72.9237C43.4505 72.7266 43.4485 72.5274 43.4505 72.3302C43.4863 69.7988 43.1496 70.1752 45.7022 70.2191C46.3937 70.231 47.0831 70.3465 47.7726 70.4123C48.3365 70.466 48.4302 70.7628 48.197 71.2288C47.3502 72.9078 46.2522 74.3796 44.6022 75.3516C43.7633 75.8475 43.5003 75.6782 43.4545 74.7083C43.4505 74.6425 43.4525 74.5768 43.4525 74.5111C43.4525 73.9833 43.4525 73.4535 43.4525 72.9257L43.4505 72.9237Z" fill="#FE5000" fill-opacity="0.8"/>
<path d="M41.7009 72.9297C41.7009 73.4934 41.7109 74.057 41.6989 74.6206C41.675 75.6941 41.3761 75.8654 40.4415 75.2918C39.2021 74.531 38.2655 73.4675 37.5103 72.2307C36.4622 70.5119 36.494 70.4422 38.4947 70.2609C38.5943 70.2529 38.694 70.245 38.7936 70.241C42.2828 70.1374 41.6272 69.7949 41.7029 72.9277L41.7009 72.9297Z" fill="#FE5000" fill-opacity="0.8"/>
<path d="M3.69236 58.309C4.45555 58.309 5.21676 58.295 5.97996 58.313C6.77105 58.3309 7.38879 58.6615 7.38082 59.5219C7.37285 60.3225 6.78899 60.6731 6.03775 60.683C4.47947 60.701 2.92119 60.7049 1.3649 60.681C0.627607 60.6691 0.0298019 60.3584 0.0158531 59.5299C0.00190427 58.6416 0.6296 58.3448 1.40675 58.3169C2.16795 58.291 2.93115 58.311 3.69435 58.311L3.69236 58.309Z" fill="#FE5000" fill-opacity="0.8"/>
</g>
<defs>
<filter id="filter0_i_2002_452" x="0" y="28" width="73" height="67" filterUnits="userSpaceOnUse" color-interpolation-filters="sRGB">
<feFlood flood-opacity="0" result="BackgroundImageFix"/>
<feBlend mode="normal" in="SourceGraphic" in2="BackgroundImageFix" result="shape"/>
<feColorMatrix in="SourceAlpha" type="matrix" values="0 0 0 0 0 0 0 0 0 0 0 0 0 0 0 0 0 0 127 0" result="hardAlpha"/>
<feOffset dy="4"/>
<feGaussianBlur stdDeviation="2"/>
<feComposite in2="hardAlpha" operator="arithmetic" k2="-1" k3="1"/>
<feColorMatrix type="matrix" values="0 0 0 0 0.816944 0 0 0 0 0.282955 0 0 0 0 0.0374429 0 0 0 1 0"/>
<feBlend mode="normal" in2="shape" result="effect1_innerShadow_2002_452"/>
</filter>
<clipPath id="clip0_2002_452">
<rect width="73" height="63" fill="white" transform="translate(0 28)"/>
</clipPath>
</defs>
</svg>
