<svg width="75" height="100" viewBox="0 0 75 100" fill="none" xmlns="http://www.w3.org/2000/svg">
<g clip-path="url(#clip0_34_63)">
<path d="M14.9742 55.3308C11.5534 52.1775 5.98971 52.1775 2.56888 55.3308C-0.851941 58.484 -0.851941 63.6125 2.56888 66.7658C5.98971 69.9191 11.5534 69.9191 14.9742 66.7658C18.395 63.6125 18.395 58.484 14.9742 55.3308Z" fill="white"/>
<path d="M4.99573 25.2261C2.38816 25.2261 0.284027 27.1656 0.284027 29.5692C0.284027 31.9729 2.40107 33.9124 4.99573 33.9124C13.8641 33.9124 22.2031 37.1014 28.4768 42.8843C34.7505 48.6673 38.21 56.3541 38.21 64.5288C38.21 65.7306 38.7393 66.8134 39.5913 67.5988C40.4432 68.3841 41.6179 68.872 42.9217 68.872C45.5293 68.872 47.6334 66.9324 47.6334 64.5288C47.6334 42.8605 28.5026 25.2261 4.99573 25.2261Z" fill="white"/>
<path d="M34.5568 6.00904C33.9759 7.53213 33.6532 9.1742 33.6532 10.8758V15.3022C24.9527 10.9948 15.1549 8.69824 4.9957 8.69824C3.70482 8.69824 2.51722 8.21038 1.67814 7.42504C0.839074 6.6397 0.283997 5.55688 0.283997 4.34317C0.283997 1.96335 2.38813 0 4.98279 0C15.3744 0 25.4303 2.08234 34.5568 6.00904Z" fill="white"/>
<path d="M75 64.5407C75 66.9324 72.8959 68.872 70.2883 68.872C67.6808 68.872 65.5766 66.9324 65.5766 64.5407C65.5766 55.1761 63.0852 46.1447 58.3735 38.1247H63.2014C65.0474 38.1247 66.8288 37.8272 68.4811 37.2917C72.741 45.7044 75 54.9738 75 64.5526V64.5407Z" fill="white"/>
<path d="M50.6928 34.4003H61.988C69.1743 34.4003 75 29.0302 75 22.406V11.9943C75 5.37 69.1743 -1.90735e-05 61.988 -1.90735e-05H50.6928C43.5064 -1.90735e-05 37.6807 5.37 37.6807 11.9943V22.406C37.6807 29.0302 43.5064 34.4003 50.6928 34.4003Z" fill="white"/>
<path d="M47.3235 19.098V17.337C47.3235 8.60305 51.2349 5.00952 56.9019 5.00952C61.3554 5.00952 64.0791 7.52023 64.8149 10.9234H60.284C59.7289 9.80486 58.6704 8.81723 56.7082 8.81723C53.8038 8.81723 51.7771 10.5783 51.5834 15.207C52.9389 13.91 54.7848 13.1723 56.889 13.1723C62.1557 13.1723 65.3571 16.1233 65.3571 21.0852V21.4898C65.3571 26.0709 61.7427 29.4027 56.5146 29.4027C50.9122 29.4027 47.2977 26.0709 47.2977 19.1099L47.3235 19.098ZM51.9578 21.0733V21.4779C51.9578 24.0243 53.6489 25.5831 56.5275 25.5831C59.0318 25.5831 60.7229 24.0243 60.7229 21.4779V21.0733C60.7229 18.5269 59.0318 16.9681 56.5275 16.9681C53.6489 16.9681 51.9578 18.5269 51.9578 21.0733Z" fill="#1D1D1B"/>
<path d="M14.4062 84.091L10.4045 100H5.74441L0 79.9739H3.91136L8.13253 95.8235L12.1084 79.9739H16.7685L21.0929 95.8473L25.0947 79.9739H28.8769L23.4423 100H18.7823L14.4062 84.091Z" fill="white"/>
<path d="M31.6523 81.8301C31.6523 80.6283 32.6721 79.6882 33.9759 79.6882C35.2797 79.6882 36.2995 80.6402 36.2995 81.8301C36.2995 83.02 35.2539 83.9838 33.9759 83.9838C32.6979 83.9838 31.6523 83.0319 31.6523 81.8301ZM32.1816 85.6973H35.7831V100H32.1816V85.6973Z" fill="white"/>
<path d="M39.7203 91.0519H49.6471V94.0862H39.7203V91.0519Z" fill="white"/>
<path d="M53.5972 79.9739H67.5645V83.0081H57.315V88.4698H65.6928V91.5041H57.315V100H53.5972V79.9739Z" fill="white"/>
<path d="M70.3528 81.8301C70.3528 80.6283 71.3726 79.6882 72.6764 79.6882C73.9802 79.6882 75 80.6402 75 81.8301C75 83.02 73.9544 83.9838 72.6764 83.9838C71.3985 83.9838 70.3528 83.0319 70.3528 81.8301ZM70.8821 85.6973H74.4837V100H70.8821V85.6973Z" fill="white"/>
</g>
<defs>
<clipPath id="clip0_34_63">
<rect width="75" height="100" fill="white"/>
</clipPath>
</defs>
</svg>
