<svg width="71" height="71" viewBox="0 0 71 71" fill="none" xmlns="http://www.w3.org/2000/svg">
    <g clip-path="url(#clip0_316_806)">
        <path
            d="M49.6626 66.8308C49.6626 66.6007 49.6626 66.3707 49.6626 66.1406C49.6626 63.1787 49.6626 63.2075 46.8013 63.2362C45.9674 63.2362 45.6655 63.4519 45.6942 64.3146C45.7517 66.0256 45.723 67.7366 45.7086 69.4476C45.7086 70.2384 45.5792 71.0436 44.5727 71.0005C43.6813 70.9574 43.5518 70.2384 43.5662 69.4764C43.5662 67.7222 43.5375 65.9537 43.5806 64.1996C43.595 63.495 43.3937 63.265 42.6604 63.2362C39.641 63.1356 39.641 63.1068 39.641 66.1263C39.641 67.2765 39.641 68.4412 39.641 69.5914C39.641 70.3535 39.4109 71.0436 38.5051 71.0005C37.6999 70.9574 37.4842 70.3247 37.4842 69.6058C37.4842 67.8085 37.4555 65.9968 37.4842 64.1996C37.4986 63.4806 37.2829 63.265 36.5496 63.2362C33.5446 63.1356 33.5446 63.1068 33.5446 66.1406C33.5446 67.2909 33.5446 68.4555 33.5446 69.6058C33.5446 70.3247 33.3433 70.9574 32.5237 71.0005C31.6035 71.0436 31.3878 70.3679 31.3878 69.5914C31.3878 67.7941 31.3591 65.9825 31.3878 64.1852C31.4022 63.4519 31.1578 63.265 30.4388 63.2362C27.4338 63.1356 27.4482 63.1068 27.4482 66.1406C27.4482 67.2909 27.4482 68.4555 27.4482 69.6058C27.4482 70.3391 27.2469 70.9574 26.4417 71.0005C25.5215 71.0436 25.3202 70.3391 25.3058 69.5914C25.2914 67.8373 25.2627 66.0687 25.3058 64.3146C25.3346 63.4375 25.0326 63.2362 24.1987 63.2362C21.3374 63.2218 21.3374 63.1787 21.3374 66.0112C21.3374 67.1615 21.323 68.3261 21.3374 69.4764C21.3374 70.2384 21.2367 70.9717 20.3309 71.0005C19.3101 71.0436 19.2238 70.2241 19.2094 69.4476C19.2094 67.7366 19.1806 66.0256 19.2094 64.3146C19.2238 63.5957 19.0369 63.3225 18.2461 63.1931C12.1209 62.1866 8.8139 58.8652 7.79304 52.6969C7.67801 51.978 7.44796 51.7767 6.77218 51.7911C5.01803 51.8199 3.26388 51.8055 1.49535 51.7911C0.776435 51.7911 6.95139e-06 51.7048 -0.0143713 50.7702C-0.0143713 49.7638 0.747678 49.6631 1.55286 49.6775C3.26388 49.6775 4.9749 49.6487 6.68591 49.6919C7.4192 49.7062 7.73553 49.5625 7.74991 48.7285C7.8218 45.7378 7.85055 45.7378 4.81673 45.7378C3.60896 45.7378 2.41556 45.7522 1.20778 45.7235C0.56076 45.7091 -0.0287496 45.4503 -0.0287496 44.7026C-0.0287496 43.883 0.517625 43.5955 1.2653 43.5955C3.01945 43.5955 4.78798 43.5523 6.54213 43.5955C7.37607 43.6242 7.74991 43.4661 7.74991 42.4883C7.74991 39.6414 7.79304 39.6414 4.94614 39.6414C3.83901 39.6414 2.73188 39.6414 1.61038 39.6414C0.833948 39.6414 -0.0143713 39.5983 -0.0287496 38.5918C-0.0431279 37.4991 0.848326 37.4703 1.66789 37.4703C3.29264 37.4703 4.903 37.4272 6.52775 37.4847C7.37607 37.5135 7.73553 37.3409 7.73553 36.3776C7.73553 33.545 7.77866 33.545 4.93176 33.545C3.82463 33.545 2.7175 33.545 1.596 33.545C0.805191 33.545 6.95139e-06 33.4875 -0.0287496 32.4954C-0.0575062 31.4889 0.762056 31.3883 1.53848 31.3883C3.2495 31.3883 4.96052 31.3595 6.67153 31.3883C7.4192 31.4027 7.70677 31.2301 7.73553 30.3962C7.80742 27.4343 7.83617 27.4343 4.93176 27.4343C3.72398 27.4343 2.53059 27.4343 1.32281 27.4343C0.589517 27.4343 -0.0143713 27.2042 -0.0431279 26.399C-0.0718845 25.5651 0.56076 25.3063 1.2653 25.3063C3.06258 25.2775 4.87425 25.2631 6.67153 25.3063C7.4192 25.3207 7.70677 25.1337 7.72115 24.3142C7.79304 21.3523 7.8218 21.3523 4.91738 21.3523C3.66647 21.3523 2.41556 21.3523 1.16465 21.3523C0.474491 21.3523 -0.0287496 21.0503 -0.0718845 20.3314C-0.115019 19.5693 0.445734 19.2674 1.10714 19.253C2.86129 19.2243 4.62982 19.1955 6.38397 19.253C7.23229 19.2818 7.63488 19.138 7.79304 18.1315C8.69887 12.2795 12.2359 8.78562 18.1454 7.85104C19.0081 7.72163 19.195 7.41969 19.1663 6.64326C19.1231 4.97538 19.1519 3.3075 19.1663 1.65399C19.1663 0.891942 19.195 0.0292449 20.2159 0.0292449C21.2224 0.0292449 21.2943 0.834429 21.2799 1.62524C21.2799 3.33625 21.3086 5.04727 21.2655 6.75829C21.2367 7.52033 21.4524 7.77914 22.2576 7.79352C25.2195 7.85104 25.2195 7.89417 25.2195 4.97538C25.2195 3.82511 25.2195 2.66047 25.2195 1.51021C25.2195 0.776916 25.3633 0.0292449 26.2835 0.0292449C27.1894 0.0292449 27.3763 0.705024 27.3619 1.48145C27.3619 3.2356 27.3907 5.00413 27.3475 6.75829C27.3331 7.52033 27.5344 7.77914 28.3396 7.79352C31.3015 7.85104 31.2872 7.89417 31.2872 4.97538C31.2872 3.7676 31.2872 2.5742 31.2872 1.36643C31.2872 0.647511 31.5316 0.0292449 32.3512 0.0292449C33.1707 0.0292449 33.4295 0.618755 33.4295 1.35205C33.4295 3.14933 33.4727 4.961 33.4295 6.75829C33.4152 7.52033 33.6308 7.77914 34.436 7.79352C37.3836 7.85104 37.3692 7.89417 37.3836 4.961C37.3836 3.75322 37.3836 2.55982 37.3836 1.35205C37.3836 0.618755 37.6424 0.0292449 38.4619 0.0148666C39.2959 0.0148666 39.5259 0.633133 39.5403 1.35205C39.5403 3.14933 39.5834 4.961 39.5403 6.75829C39.5259 7.53471 39.7704 7.76477 40.5612 7.77914C43.4943 7.83666 43.4943 7.86541 43.4943 4.94662C43.4943 3.73884 43.4943 2.54545 43.4943 1.33767C43.4943 0.604377 43.7531 0.0148666 44.5583 0.000488281C45.3923 0.000488281 45.6223 0.633133 45.6223 1.33767C45.6367 3.13496 45.6655 4.94662 45.6223 6.74391C45.6079 7.53471 45.8811 7.75039 46.6576 7.76477C49.5907 7.82228 49.5907 7.85104 49.5907 4.93224C49.5907 3.78198 49.5907 2.61734 49.5907 1.46707C49.5907 0.690646 49.7489 0.000488281 50.6547 0.000488281C51.5893 0.000488281 51.7043 0.748159 51.7187 1.48145C51.7187 3.19247 51.7475 4.90349 51.7187 6.6145C51.7043 7.37655 51.8625 7.69287 52.7396 7.83666C58.7209 8.78562 62.1574 12.222 63.1207 18.2465C63.2645 19.138 63.6239 19.253 64.3572 19.2386C66.0683 19.2099 67.7793 19.2243 69.4903 19.2386C70.2236 19.2386 70.9713 19.3824 70.9425 20.317C70.9137 21.2228 70.2092 21.3666 69.4472 21.3523C67.7361 21.3379 66.0251 21.381 64.3141 21.3379C63.5377 21.3235 63.1782 21.4385 63.1638 22.3731C63.1351 25.3063 63.0919 25.3063 66.0251 25.3063C67.2329 25.3063 68.4263 25.3063 69.6341 25.3063C70.3386 25.3063 70.9713 25.5651 70.9425 26.399C70.9137 27.2042 70.3242 27.4486 69.5909 27.4486C67.8368 27.4486 66.0683 27.4774 64.3141 27.4486C63.5377 27.4343 63.1782 27.5493 63.1638 28.4839C63.1351 31.4027 63.0919 31.4027 66.0251 31.4027C67.2329 31.4027 68.4263 31.4027 69.6341 31.4027C70.353 31.4027 70.9713 31.6759 70.9425 32.4954C70.9137 33.315 70.3099 33.545 69.5909 33.545C67.8368 33.545 66.0683 33.5738 64.3141 33.545C63.5377 33.5307 63.1782 33.6457 63.1638 34.5803C63.1351 37.4847 63.0919 37.4847 66.0395 37.4847C67.0604 37.4847 68.0812 37.4847 69.0877 37.4847C69.9216 37.4847 70.9569 37.3984 70.9281 38.5918C70.8994 39.7708 69.8497 39.6271 69.0302 39.6414C67.4629 39.6414 65.8813 39.6846 64.3141 39.6414C63.5233 39.6127 63.1782 39.7852 63.1782 40.6911C63.1495 43.5955 63.1063 43.5955 66.0539 43.5955C67.2041 43.5955 68.3688 43.5955 69.519 43.5955C70.2955 43.5955 70.9569 43.7968 70.9569 44.7026C70.9569 45.5365 70.2811 45.7378 69.5909 45.7378C67.8799 45.7522 66.1689 45.7953 64.4579 45.7378C63.5233 45.7091 63.1782 45.9248 63.1926 46.9456C63.2214 49.7062 63.1638 49.7062 65.9245 49.7062C67.1754 49.7062 68.4263 49.7062 69.6772 49.7062C70.4249 49.7062 70.9856 49.9794 70.9856 50.799C70.9856 51.561 70.3961 51.8055 69.7491 51.8055C67.9518 51.8342 66.1401 51.863 64.3429 51.8055C63.5377 51.7767 63.2932 52.0355 63.1495 52.8551C62.2149 58.7502 58.7353 62.2585 52.8546 63.1931C51.9344 63.3369 51.7331 63.6532 51.7619 64.4871C51.8194 66.155 51.7762 67.8229 51.7619 69.4764C51.7619 70.2528 51.6612 71.0724 50.6403 71.0293C49.7345 70.9861 49.6195 70.2528 49.6482 69.5051C49.6626 68.6281 49.6482 67.751 49.6482 66.8739L49.6626 66.8308ZM35.5144 61.0938C40.7912 61.0938 46.0537 61.1226 51.3305 61.0938C57.1393 61.0651 61.0934 57.1254 61.0934 51.3454C61.1221 40.8061 61.1221 30.2668 61.0934 19.7131C61.0934 13.8468 57.1393 9.92151 51.2442 9.90713C40.7481 9.89275 30.2519 9.89275 19.7558 9.90713C13.8751 9.90713 9.92103 13.8468 9.92103 19.7275C9.90665 30.2237 9.90665 40.7198 9.92103 51.216C9.92103 57.1686 13.8463 61.0795 19.842 61.0938C25.0614 61.1082 30.2951 61.0938 35.5144 61.0938Z"
            fill="#4595D1" />
        <path
            d="M35.4134 58.3476C30.3235 58.3476 25.2336 58.2182 20.1581 58.3907C15.6145 58.5489 12.5663 55.2275 12.6238 50.9284C12.7676 40.6623 12.667 30.3962 12.667 20.1301C12.667 15.2846 15.2695 12.6821 20.1149 12.6678C24.0977 12.6678 28.0661 12.6678 32.0489 12.6678C32.3221 12.6678 32.6097 12.6678 32.8829 12.6678C33.5586 12.6678 34.105 12.9266 34.105 13.6886C34.105 14.4219 33.5874 14.7095 32.8829 14.7095C31.445 14.7095 30.0072 14.767 28.5837 14.6951C27.6492 14.652 27.376 14.997 27.4479 15.8741C27.5198 16.7943 27.4479 17.7289 27.4479 18.6491C27.4479 19.3393 27.1603 19.8713 26.4558 19.9288C25.6362 19.9863 25.3343 19.3824 25.3199 18.6635C25.2911 17.7002 25.2767 16.7224 25.3199 15.7447C25.3486 14.997 25.133 14.6663 24.3134 14.6951C22.6455 14.7526 20.9776 14.6663 19.3241 14.7239C16.7648 14.8245 14.7806 16.6793 14.7518 19.2099C14.6799 27.0317 14.7375 34.8391 14.7087 42.6609C14.7087 43.4373 15.0106 43.5811 15.7008 43.5667C17.3687 43.538 19.0366 43.5667 20.6901 43.5667C21.4377 43.5667 22.171 43.653 22.1998 44.5876C22.2429 45.6228 21.4377 45.7091 20.6613 45.7234C18.9934 45.7234 17.3255 45.7522 15.672 45.7234C14.9531 45.7091 14.6943 45.9535 14.7231 46.6868C14.7662 48.3547 14.6943 50.0226 14.7518 51.6761C14.8381 54.2929 16.736 56.2052 19.3385 56.3059C21.0064 56.3778 22.6743 56.2771 24.3278 56.3346C25.1617 56.3634 25.3343 56.0327 25.3343 55.285C25.3055 52.0499 25.3199 48.8148 25.3343 45.5653C25.3343 43.8111 25.5787 43.5811 27.3472 43.5811C31.33 43.5811 35.2984 43.5667 39.2812 43.5811C40.0145 43.5811 40.4027 43.4085 40.7478 42.704C41.6967 40.7486 43.7672 39.8284 45.7083 40.346C47.6781 40.8636 49.0584 42.6034 49.1016 44.5876C49.1303 46.6005 47.7213 48.3834 45.6795 48.9154C43.681 49.4187 41.7255 48.5416 40.7334 46.5574C40.4027 45.9104 40.0576 45.7091 39.3675 45.7234C35.7585 45.7522 32.1496 45.7666 28.5406 45.7234C27.6779 45.7234 27.4479 45.9966 27.4622 46.8306C27.5054 49.6056 27.5054 52.3806 27.4622 55.1556C27.4479 56.0183 27.6348 56.3634 28.5981 56.349C33.2279 56.3059 37.8434 56.3059 42.4732 56.349C43.4078 56.349 43.681 56.0471 43.6091 55.17C43.5372 54.2498 43.6091 53.3152 43.6091 52.395C43.6091 51.7048 43.8966 51.1728 44.6012 51.1153C45.4207 51.0578 45.7227 51.6617 45.737 52.3806C45.7658 53.3008 45.7946 54.2354 45.737 55.1556C45.6795 56.0327 45.9383 56.3921 46.8873 56.349C48.4114 56.2771 49.9355 56.349 51.4596 56.3203C54.3784 56.2627 56.3051 54.336 56.3339 51.4029C56.3626 47.2907 56.3339 43.1641 56.3339 39.0519C56.3339 38.7212 56.3339 38.4049 56.3339 38.0742C56.3339 37.4272 56.6358 36.9815 57.2972 36.9383C58.0592 36.8952 58.3756 37.3984 58.3612 38.0886C58.3612 42.9484 58.4618 47.8083 58.2605 52.6538C58.1311 55.9033 55.1404 58.3188 51.5315 58.3476C46.1684 58.3907 40.8053 58.3476 35.4422 58.3476H35.4134ZM46.9017 44.6882C46.9304 43.3942 46.0102 42.3877 44.7306 42.3446C43.3934 42.3014 42.3581 43.2935 42.3581 44.6307C42.3581 45.9104 43.3215 46.8881 44.6155 46.9025C45.9096 46.9025 46.8873 45.9823 46.9161 44.6882H46.9017Z"
            fill="#4595D1" />
        <path
            d="M45.2488 12.6534C47.1899 12.6534 49.1309 12.6534 51.072 12.6534C55.6587 12.6821 58.3186 15.3134 58.333 19.8713C58.3474 23.9835 58.333 28.0957 58.333 32.2222C58.333 33.0274 58.5199 34.1058 57.269 34.077C56.1475 34.0483 56.2913 33.0706 56.2913 32.2798C56.2913 30.9857 56.2626 29.6917 56.2913 28.3976C56.3201 27.6787 56.09 27.4199 55.3567 27.4343C53.8326 27.4774 52.3085 27.463 50.7844 27.4343C49.9361 27.4343 48.8002 27.6643 48.829 26.3415C48.8577 25.0331 50.0224 25.3207 50.8563 25.3063C52.2941 25.2775 53.732 25.2488 55.1554 25.3063C56.09 25.3494 56.3344 25.0043 56.3057 24.1129C56.2482 22.5456 56.3201 20.964 56.2769 19.3968C56.1907 16.7081 54.2927 14.7957 51.604 14.7095C49.9936 14.652 48.3689 14.7526 46.7441 14.6807C45.8383 14.6376 45.6658 15.0114 45.6801 15.8166C45.7089 19.0517 45.6945 22.2868 45.6801 25.522C45.6801 27.1755 45.4069 27.4343 43.7391 27.4343C39.7563 27.4343 35.7879 27.4486 31.8051 27.4343C31.0287 27.4343 30.5973 27.6068 30.2235 28.3689C29.3176 30.2524 27.2759 31.1582 25.3636 30.6838C23.3506 30.1949 21.8984 28.3689 21.8984 26.3559C21.8984 24.3861 23.2788 22.6463 25.2486 22.1143C27.2472 21.5823 29.2457 22.445 30.2235 24.3861C30.5685 25.0618 30.928 25.3063 31.6757 25.2919C35.2415 25.2488 38.7929 25.2488 42.3587 25.2919C43.2646 25.2919 43.5378 25.0331 43.5234 24.1273C43.4659 21.3522 43.4659 18.5772 43.5234 15.8022C43.5378 14.8533 43.2071 14.6232 42.33 14.6663C40.9928 14.7239 39.6556 14.6663 38.3041 14.6807C37.5276 14.6807 36.8519 14.5369 36.8519 13.6167C36.8519 12.754 37.542 12.639 38.2466 12.639C40.5615 12.639 42.8764 12.639 45.1769 12.639L45.2488 12.6534ZM28.6562 26.399C28.6706 25.105 27.7216 24.1273 26.442 24.0985C25.1336 24.0697 24.1558 24.99 24.0983 26.2696C24.0552 27.6212 25.0329 28.6564 26.3701 28.6564C27.6498 28.6564 28.6275 27.6931 28.6562 26.4134V26.399Z"
            fill="#4595D1" />
        <path
            d="M39.9284 35.4717C39.9428 37.8585 37.9298 39.9002 35.5286 39.929C33.1418 39.9434 31.0857 37.916 31.0714 35.5292C31.057 33.1424 33.0843 31.0864 35.4711 31.072C37.8579 31.072 39.8996 33.0706 39.9284 35.4717ZM33.2281 35.4717C33.2281 36.7802 34.1627 37.7579 35.4711 37.7723C36.7795 37.7723 37.7573 36.8377 37.7716 35.5292C37.7716 34.2208 36.8371 33.2431 35.5286 33.2287C34.2202 33.2287 33.2425 34.1633 33.2281 35.4717Z"
            fill="#4595D1" />
    </g>
    <defs>
        <clipPath id="clip0_316_806">
            <rect width="71" height="71" fill="white" transform="translate(0 0.000488281)" />
        </clipPath>
    </defs>
</svg>