<svg width="71" height="71" viewBox="0 0 71 71" fill="none" xmlns="http://www.w3.org/2000/svg">
    <g clip-path="url(#clip0_316_811)">
        <path
            d="M61.0058 51.3756C61.071 49.4792 61.9187 48.0138 63.8588 47.1949C64.5924 46.8789 64.8207 46.5341 64.8207 45.8445C64.7881 38.9628 64.7881 32.0669 64.8207 25.1852C64.8207 24.51 64.625 24.1365 63.8914 23.8204C61.8535 22.944 60.8916 21.4068 61.1036 19.4242C61.1688 18.7921 60.9732 18.5191 60.4025 18.2318C53.6042 14.7694 46.8058 11.2927 40.04 7.80158C39.3715 7.45678 38.964 7.58608 38.3771 7.93088C36.4859 9.06584 34.5132 9.06584 32.671 7.91651C31.9699 7.48551 31.5135 7.55734 30.8613 7.90214C24.2097 11.3214 17.558 14.7119 10.89 18.1025C10.2053 18.4473 9.86294 18.7633 9.96076 19.5822C10.189 21.5792 8.65651 23.49 6.56971 24.079C4.35249 24.6968 1.89072 23.8635 0.716897 22.0964C-0.408017 20.4011 -0.098258 18.2749 1.45054 16.8526C3.08085 15.3728 5.62413 15.0424 7.62941 16.2204C8.47717 16.7233 9.01517 16.6658 9.83033 16.2492C16.3842 12.8586 22.938 9.49684 29.5245 6.17814C30.3559 5.76151 30.6331 5.35924 30.5679 4.46851C30.3885 2.05491 32.7036 0.0292163 35.4425 0.000482957C38.2629 -0.0282504 40.6432 2.01181 40.4639 4.49725C40.3986 5.41671 40.7247 5.77588 41.5399 6.19251C48.1263 9.52557 54.6965 12.873 61.234 16.2635C62.0655 16.6945 62.6035 16.6945 63.4349 16.2204C65.7989 14.87 68.8475 15.5596 70.2659 17.6427C71.7332 19.7977 70.9507 22.513 68.3911 23.7055C67.5107 24.1077 67.2172 24.51 67.2172 25.372C67.2662 32.1243 67.2662 38.8623 67.2172 45.6146C67.2172 46.4622 67.5107 46.8789 68.3748 47.2811C70.9507 48.4736 71.7169 51.1889 70.2496 53.3439C68.8312 55.4414 65.7826 56.1454 63.4186 54.7662C62.4893 54.2202 61.9187 54.3639 61.0873 54.7949C54.5823 58.1567 48.0611 61.4898 41.5236 64.7941C40.7084 65.2107 40.366 65.5699 40.4476 66.4894C40.6269 68.9748 38.2466 71.0149 35.4262 70.9861C32.6221 70.9574 30.3396 68.8742 30.5353 66.3744C30.6005 65.5843 30.3233 65.2395 29.6223 64.8803C22.9543 61.4898 16.3027 58.0992 9.651 54.6656C8.94996 54.3064 8.47717 54.249 7.72723 54.68C5.21655 56.131 2.08636 55.4558 0.667988 53.2433C-0.734079 51.0596 0.113682 48.4017 2.72218 47.2237C3.58624 46.8358 3.76558 46.3904 3.76558 45.629C3.73297 40.0403 3.76558 34.4517 3.76558 28.8487C3.76558 28.4321 3.73297 28.0155 3.81449 27.5988C3.92861 27.0529 4.31988 26.6506 4.97201 26.6506C5.62413 26.6506 6.04801 27.0242 6.14583 27.5845C6.22734 27.9867 6.19474 28.4177 6.19474 28.8344C6.19474 34.3799 6.21104 39.9254 6.19474 45.4709C6.19474 46.3186 6.34147 46.8358 7.35226 47.2811C9.25972 48.1144 10.1401 49.6516 9.91185 51.5193C9.83033 52.2376 10.1238 52.4962 10.7107 52.7979C17.4602 56.2459 24.2097 59.6939 30.9428 63.1563C31.5624 63.4724 31.9862 63.458 32.6058 63.0845C34.5295 61.9064 36.5348 61.9208 38.4423 63.1276C39.0129 63.4867 39.4042 63.4867 39.9748 63.1994C46.7569 59.7083 53.5389 56.2316 60.3536 52.7836C61.1199 52.3957 61.234 51.9647 60.9895 51.3613L61.0058 51.3756ZM35.4914 6.65224C36.9424 6.65224 38.051 5.66094 38.051 4.35358C38.051 3.10368 36.9913 2.15548 35.5892 2.12675C34.122 2.08365 32.9644 3.04621 32.9481 4.33921C32.9318 5.64658 34.0404 6.65224 35.4914 6.65224ZM5.00461 17.6571C3.53733 17.6571 2.42872 18.634 2.42872 19.927C2.42872 21.1626 3.48842 22.1395 4.87419 22.1826C6.32516 22.2401 7.48268 21.2488 7.51529 19.9701C7.5479 18.6628 6.47189 17.6715 4.98831 17.6571H5.00461ZM68.5704 19.9558C68.603 18.6484 67.5107 17.6571 66.0434 17.6571C64.6413 17.6571 63.5327 18.5766 63.4838 19.7977C63.4186 21.1051 64.4946 22.1395 65.9293 22.1826C67.364 22.2257 68.5378 21.2488 68.5704 19.9558ZM7.53159 51.1601C7.5642 49.8528 6.47189 48.8327 5.02092 48.8184C3.56994 48.804 2.42872 49.7953 2.42872 51.0883C2.42872 52.3238 3.47212 53.3008 4.85788 53.3439C6.32516 53.4013 7.49899 52.4388 7.51529 51.1601H7.53159ZM68.5704 51.117C68.5704 49.824 67.4618 48.8184 66.0108 48.8184C64.5598 48.8184 63.4512 49.824 63.4675 51.1314C63.4675 52.3669 64.5435 53.3151 65.9456 53.3582C67.4129 53.387 68.5541 52.4244 68.5704 51.1314V51.117ZM38.051 66.6618C38.0673 65.3544 36.975 64.3487 35.5077 64.3487C34.0567 64.3487 32.9481 65.34 32.9481 66.6474C32.9481 67.8973 34.0078 68.8455 35.4099 68.8742C36.8772 68.9173 38.0347 67.9548 38.051 66.6618Z"
            fill="#4595D1" />
        <path
            d="M12.8635 35.4287C12.8635 32.0525 12.8961 28.6763 12.8472 25.3145C12.8472 24.352 13.2221 23.7917 14.1514 23.3319C20.8357 19.9701 27.5037 16.5796 34.139 13.1603C35.1172 12.6575 35.9161 12.6575 36.8942 13.1603C43.5459 16.5796 50.2139 19.9701 56.8818 23.3319C57.8111 23.806 58.1861 24.3807 58.1861 25.3289C58.1535 32.1243 58.1535 38.9054 58.1861 45.7008C58.1861 46.6634 57.8111 47.2237 56.8818 47.6978C50.165 51.0883 43.4481 54.5076 36.7475 57.9412C35.8671 58.3866 35.1335 58.3866 34.2694 57.9412C27.5689 54.5076 20.8683 51.0883 14.1514 47.6978C13.2221 47.2237 12.8309 46.6634 12.8472 45.7008C12.8961 42.2815 12.8635 38.8623 12.8635 35.443V35.4287ZM15.4068 26.7081C15.3741 26.8805 15.3089 27.0529 15.3089 27.2253C15.3089 33.1444 15.3089 39.0491 15.2763 44.9681C15.2763 45.787 15.7817 46.0743 16.4338 46.4048C22.4171 49.4361 28.4166 52.4675 34.3836 55.542C35.215 55.973 35.8019 56.0017 36.6497 55.5707C42.6166 52.4962 48.5836 49.4505 54.5994 46.4479C55.5287 45.9881 55.7732 45.4709 55.7732 44.5946C55.7406 39.0491 55.7732 33.5035 55.7406 27.958C55.7406 27.5414 55.9526 27.0529 55.4798 26.665C55.3167 26.7225 55.17 26.7512 55.0396 26.8087C49.2357 29.7538 43.4481 32.7277 37.6116 35.6298C36.8127 36.0321 36.7475 36.5493 36.7475 37.2245C36.7475 41.8505 36.7475 46.4622 36.7475 51.0883C36.7475 51.5049 36.7801 51.9359 36.6823 52.3238C36.5519 52.8698 36.128 53.2289 35.4596 53.2002C34.8727 53.1715 34.4814 52.8267 34.3673 52.3382C34.2694 51.9359 34.302 51.5193 34.302 51.1027C34.302 46.5341 34.2694 41.9511 34.3183 37.3825C34.3183 36.4487 34.0412 35.9028 33.063 35.4143C27.6341 32.7277 22.2704 29.9406 16.8577 27.2109C16.4175 26.9954 16.0426 26.6219 15.4068 26.6937V26.7081ZM54.3386 24.4669C48.2901 21.3924 42.2254 18.3036 36.1606 15.2148C35.6878 14.9705 35.3291 14.9849 34.8563 15.2148C28.7916 18.318 22.7268 21.3924 16.6295 24.4956C16.7925 24.6537 16.8577 24.7973 16.9882 24.8548C22.9225 27.8718 28.8568 30.8888 34.7748 33.9202C35.4596 34.2793 35.9487 34.0638 36.503 33.7765C42.209 30.8744 47.9151 27.958 53.6212 25.0559C53.8821 24.9266 54.1918 24.8261 54.3386 24.4525V24.4669Z"
            fill="#4595D1" />
    </g>
    <defs>
        <clipPath id="clip0_316_811">
            <rect width="71" height="71" fill="white" transform="translate(0 0.000488281)" />
        </clipPath>
    </defs>
</svg>