<svg width="71" height="67" viewBox="0 0 71 67" fill="none" xmlns="http://www.w3.org/2000/svg">
    <g clip-path="url(#clip0_316_814)">
        <path
            d="M11.8055 5.83971C11.8222 9.00953 9.13919 11.7289 5.93631 11.7456C2.7502 11.7623 0.0168467 9.09295 7.77e-05 5.90644C-0.0166913 2.73662 2.68312 0.0172489 5.86923 0.000565584C9.05534 -0.0161177 11.7887 2.66989 11.8055 5.83971ZM2.86758 5.83971C2.86758 7.59145 4.10849 8.87606 5.85246 8.89275C7.61321 8.89275 8.90442 7.65819 8.92119 5.92313C8.92119 4.17138 7.68028 2.88677 5.91954 2.87009C4.15879 2.87009 2.86758 4.10465 2.85081 5.83971H2.86758Z"
            fill="#4595D1" />
        <path
            d="M31.543 5.83963C31.5598 9.00945 28.8767 11.7288 25.6738 11.7455C22.4877 11.7622 19.7544 9.07619 19.7376 5.90637C19.7041 2.73655 22.4039 0.0171726 25.6068 0.00048929C28.7929 -0.016194 31.5262 2.66981 31.543 5.83963ZM22.6051 5.83963C22.6051 7.59138 23.846 8.87599 25.59 8.89267C27.3507 8.89267 28.642 7.65811 28.6587 5.92305C28.6587 4.17131 27.4178 2.88669 25.6571 2.87001C23.8963 2.87001 22.6051 4.10457 22.5883 5.83963H22.6051Z"
            fill="#4595D1" />
        <path
            d="M51.2625 5.83963C51.2793 9.00945 48.5962 11.7288 45.3933 11.7455C42.2072 11.7622 39.4739 9.07619 39.4571 5.90637C39.4403 2.73655 42.1402 0.0171726 45.3263 0.00048929C48.5124 -0.016194 51.2457 2.66981 51.2625 5.83963ZM42.3246 5.83963C42.3246 7.59138 43.5655 8.87599 45.3095 8.89267C47.0702 8.89267 48.3615 7.65811 48.3782 5.92305C48.3782 4.17131 47.1373 2.88669 45.3766 2.87001C43.6158 2.87001 42.3246 4.10457 42.3078 5.83963H42.3246Z"
            fill="#4595D1" />
        <path
            d="M70.9998 5.83963C71.0166 9.00945 68.3335 11.7288 65.1306 11.7455C61.9445 11.7622 59.2112 9.07619 59.1944 5.90637C59.1776 2.73655 61.8775 0.0171726 65.0636 0.00048929C68.2497 -0.016194 70.983 2.66981 70.9998 5.83963ZM62.0619 5.83963C62.0619 7.59138 63.3028 8.87599 65.0468 8.89267C66.8075 8.89267 68.0988 7.65811 68.1155 5.92305C68.1155 4.17131 66.8746 2.88669 65.1139 2.87001C63.3531 2.87001 62.0619 4.10457 62.0451 5.83963H62.0619Z"
            fill="#4595D1" />
        <path
            d="M11.8055 24.258C11.8222 27.4278 9.13919 30.1471 5.93631 30.1638C2.7502 30.1805 0.0168467 27.4945 7.77e-05 24.3247C-0.0166913 21.1549 2.68312 18.4355 5.86923 18.4188C9.05534 18.4021 11.7887 21.0881 11.8055 24.258ZM2.86758 24.258C2.86758 26.0097 4.10849 27.2943 5.85246 27.311C7.61321 27.311 8.90442 26.0764 8.92119 24.3414C8.92119 22.5896 7.68028 21.305 5.91954 21.2883C4.15879 21.2883 2.86758 22.5229 2.85081 24.258H2.86758Z"
            fill="#4595D1" />
        <path
            d="M31.5428 24.258C31.5595 27.4278 28.8765 30.1471 25.6736 30.1638C22.4875 30.1805 19.7542 27.4945 19.7374 24.3247C19.7206 21.1549 22.4204 18.4355 25.6065 18.4188C28.7926 18.4021 31.526 21.0881 31.5428 24.258ZM22.6049 24.258C22.6049 26.0097 23.8458 27.2943 25.5898 27.311C27.3505 27.311 28.6417 26.0764 28.6585 24.3414C28.6585 22.5896 27.4176 21.305 25.6568 21.2883C23.8961 21.2883 22.6049 22.5229 22.5881 24.258H22.6049Z"
            fill="#4595D1" />
        <path
            d="M51.2625 24.258C51.2793 27.4278 48.5962 30.1471 45.3933 30.1638C42.2072 30.1805 39.4739 27.4945 39.4571 24.3247C39.4403 21.1549 42.1402 18.4355 45.3263 18.4188C48.5124 18.4021 51.2457 21.0881 51.2625 24.258ZM42.3246 24.258C42.3246 26.0097 43.5655 27.2943 45.3095 27.311C47.0702 27.311 48.3615 26.0764 48.3782 24.3414C48.3782 22.5896 47.1373 21.305 45.3766 21.2883C43.6158 21.2883 42.3246 22.5229 42.3078 24.258H42.3246Z"
            fill="#4595D1" />
        <path
            d="M70.9998 24.258C71.0166 27.4278 68.3335 30.1471 65.1306 30.1638C61.9445 30.1805 59.2112 27.4945 59.1944 24.3247C59.1776 21.1549 61.8775 18.4355 65.0636 18.4188C68.2497 18.4021 70.983 21.0881 70.9998 24.258ZM62.0619 24.258C62.0619 26.0097 63.3028 27.2943 65.0468 27.311C66.8075 27.311 68.0988 26.0764 68.1155 24.3414C68.1155 22.5896 66.8746 21.305 65.1139 21.2883C63.3531 21.2883 62.0619 22.5229 62.0451 24.258H62.0619Z"
            fill="#4595D1" />
        <path
            d="M11.8055 42.6763C11.8222 45.8461 9.13919 48.5655 5.93631 48.5822C2.7502 48.5988 0.0168467 45.9128 7.77e-05 42.743C-0.0166913 39.5732 2.68312 36.8538 5.86923 36.8371C9.05534 36.8205 11.7887 39.5065 11.8055 42.6763ZM2.86758 42.6763C2.86758 44.428 4.10849 45.7126 5.85246 45.7293C7.61321 45.7293 8.90442 44.4948 8.92119 42.7597C8.92119 41.008 7.68028 39.7233 5.91954 39.7067C4.15879 39.7067 2.86758 40.9412 2.85081 42.6763H2.86758Z"
            fill="#4595D1" />
        <path
            d="M31.5428 42.6763C31.5595 45.8461 28.8765 48.5655 25.6736 48.5822C22.4875 48.5988 19.7542 45.9128 19.7374 42.743C19.7206 39.5732 22.4204 36.8538 25.6065 36.8371C28.7926 36.8205 31.526 39.5065 31.5428 42.6763ZM22.6049 42.6763C22.6049 44.428 23.8458 45.7126 25.5898 45.7293C27.3505 45.7293 28.6417 44.4948 28.6585 42.7597C28.6585 41.008 27.4176 39.7233 25.6568 39.7067C23.8961 39.7067 22.6049 40.9412 22.5881 42.6763H22.6049Z"
            fill="#4595D1" />
        <path
            d="M51.2625 42.6763C51.2793 45.8461 48.5962 48.5655 45.3933 48.5822C42.2072 48.5988 39.4739 45.9128 39.4571 42.743C39.4403 39.5732 42.1402 36.8538 45.3263 36.8371C48.5124 36.8205 51.2457 39.5065 51.2625 42.6763ZM42.3246 42.6763C42.3246 44.428 43.5655 45.7126 45.3095 45.7293C47.0702 45.7293 48.3615 44.4948 48.3782 42.7597C48.3782 41.008 47.1373 39.7233 45.3766 39.7067C43.6158 39.7067 42.3246 40.9412 42.3078 42.6763H42.3246Z"
            fill="#4595D1" />
        <path
            d="M70.9998 42.6763C71.0166 45.8461 68.3335 48.5655 65.1306 48.5822C61.9445 48.5988 59.2112 45.9128 59.1944 42.743C59.1776 39.5732 61.8775 36.8538 65.0636 36.8371C68.2497 36.8205 70.983 39.5065 70.9998 42.6763ZM62.0619 42.6763C62.0619 44.428 63.3028 45.7126 65.0468 45.7293C66.8075 45.7293 68.0988 44.4948 68.1155 42.7597C68.1155 41.008 66.8746 39.7233 65.1139 39.7067C63.3531 39.7067 62.0619 40.9412 62.0451 42.6763H62.0619Z"
            fill="#4595D1" />
        <path
            d="M11.8055 61.0946C11.8222 64.2644 9.13919 66.9838 5.93631 67.0005C2.7502 67.0172 0.0168467 64.3312 7.77e-05 61.1614C-0.0166913 57.9915 2.68312 55.2722 5.86923 55.2555C9.05534 55.2388 11.7887 57.9248 11.8055 61.0946ZM2.86758 61.0946C2.86758 62.8464 4.10849 64.131 5.85246 64.1477C7.61321 64.1477 8.90442 62.9131 8.92119 61.178C8.92119 59.4263 7.68028 58.1417 5.91954 58.125C4.15879 58.125 2.86758 59.3596 2.85081 61.0946H2.86758Z"
            fill="#4595D1" />
        <path
            d="M31.5428 61.0946C31.5595 64.2644 28.8765 66.9838 25.6736 67.0005C22.4875 67.0172 19.7542 64.3312 19.7374 61.1614C19.7206 57.9915 22.4204 55.2722 25.6065 55.2555C28.7926 55.2388 31.526 57.9248 31.5428 61.0946ZM22.6049 61.0946C22.6049 62.8464 23.8458 64.131 25.5898 64.1477C27.3505 64.1477 28.6417 62.9131 28.6585 61.178C28.6585 59.4263 27.4176 58.1417 25.6568 58.125C23.8961 58.125 22.6049 59.3596 22.5881 61.0946H22.6049Z"
            fill="#4595D1" />
        <path
            d="M51.2625 61.0946C51.2793 64.2644 48.5962 66.9838 45.3933 67.0005C42.2072 67.0172 39.4739 64.3312 39.4571 61.1614C39.4403 57.9915 42.1402 55.2722 45.3263 55.2555C48.5124 55.2388 51.2457 57.9248 51.2625 61.0946ZM42.3246 61.0946C42.3246 62.8464 43.5655 64.131 45.3095 64.1477C47.0702 64.1477 48.3615 62.9131 48.3782 61.178C48.3782 59.4263 47.1373 58.1417 45.3766 58.125C43.6158 58.125 42.3246 59.3596 42.3078 61.0946H42.3246Z"
            fill="#4595D1" />
        <path
            d="M70.9998 61.0946C71.0166 64.2644 68.3335 66.9838 65.1306 67.0005C61.9445 67.0172 59.2112 64.3312 59.1944 61.1614C59.1776 57.9915 61.8775 55.2722 65.0636 55.2555C68.2497 55.2388 70.983 57.9248 70.9998 61.0946ZM62.0619 61.0946C62.0619 62.8464 63.3028 64.131 65.0468 64.1477C66.8075 64.1477 68.0988 62.9131 68.1155 61.178C68.1155 59.4263 66.8746 58.1417 65.1139 58.125C63.3531 58.125 62.0619 59.3596 62.0451 61.0946H62.0619Z"
            fill="#4595D1" />
    </g>
    <defs>
        <clipPath id="clip0_316_814">
            <rect width="71" height="67" fill="white" transform="translate(0 0.000488281)" />
        </clipPath>
    </defs>
</svg>