<svg width="140" height="140" viewBox="0 0 140 140" fill="none" xmlns="http://www.w3.org/2000/svg">
    <g clip-path="url(#clip0_2001_8)">
        <path
            d="M121.489 28.1666C121.436 30.2913 120.892 32.098 120.547 33.9287C118.518 44.6858 116.424 55.4322 114.371 66.1866C112.944 73.6618 111.554 81.1423 110.13 88.6175C108.658 96.3546 107.207 104.1 105.66 111.823C104.822 116.006 101.748 117.217 98.2254 114.841C90.3923 109.554 82.5592 104.268 74.7663 98.9202C73.6285 98.1398 72.8441 98.1024 71.7144 98.947C67.8943 101.801 63.9831 104.533 60.1093 107.317C56.8728 109.645 53.7674 108.656 52.7099 104.805C50.6834 97.4236 48.6542 90.0366 46.882 82.5935C46.2743 80.0439 45.0883 78.7477 42.6228 77.8737C35.5634 75.3776 28.611 72.5874 21.6159 69.9068C19.8115 69.2146 18.5854 68.0547 18.5024 65.9942C18.4168 63.8962 19.4635 62.5118 21.3374 61.7528C26.9164 59.4972 32.5062 57.2736 38.0985 55.05C47.918 51.148 57.7402 47.2595 67.5623 43.3628C80.9449 38.0498 94.3276 32.7367 107.708 27.421C110.318 26.384 112.912 25.3096 115.538 24.3154C117.556 23.5511 119.438 24.0455 120.619 25.5315C121.291 26.376 121.551 27.3408 121.486 28.1666H121.489ZM110.585 40.6609C110.104 41.0778 109.9 41.2382 109.713 41.4145C104.918 46.006 100.121 50.5948 95.3341 55.1943C86.018 64.1448 76.7152 73.1112 67.3803 82.0456C66.5289 82.8608 66.719 83.291 67.5917 83.863C69.6825 85.226 71.7332 86.6478 73.7999 88.0455C81.55 93.2918 89.2947 98.5434 97.0501 103.779C98.3619 104.664 98.4128 104.64 98.7153 103.041C99.4167 99.3265 100.065 95.6009 100.774 91.886C102.843 81.0488 104.939 70.2168 107.017 59.3822C108.189 53.2701 109.346 47.1552 110.583 40.6582L110.585 40.6609ZM55.4272 81.7383C69.7709 67.9478 83.9406 54.3257 98.1129 40.7036C98.0514 40.6128 97.9925 40.5246 97.9309 40.4337C76.9079 48.7855 55.8849 57.1373 34.5488 65.6147C35.1564 65.9193 35.3786 66.053 35.6169 66.1438C40.3607 67.9639 45.0776 69.8507 49.8589 71.5585C52.1638 72.3816 53.4649 73.8168 53.9575 76.1767C54.3456 78.0341 54.9212 79.8488 55.4298 81.7383H55.4272ZM57.1619 87.0674C57.0629 87.1369 56.9611 87.2037 56.8621 87.2732C57.7 90.3921 58.5272 93.5136 59.3812 96.6272C59.5284 97.167 59.9166 96.9746 60.2245 96.7555C61.8227 95.6196 63.4075 94.4651 65.0111 93.3372C65.5384 92.9658 65.4956 92.6798 64.9843 92.3404C63.6859 91.4745 62.4063 90.5845 61.1132 89.7132C59.7988 88.8259 58.4817 87.9493 57.1646 87.0701L57.1619 87.0674Z"
            fill="white" />
    </g>
    <defs>
        <clipPath id="clip0_2001_8">
            <rect width="103" height="92.0861" fill="white" transform="translate(18.5 23.957)" />
        </clipPath>
    </defs>
</svg>