<svg width="140" height="140" viewBox="0 0 140 140" fill="none" xmlns="http://www.w3.org/2000/svg">

    <path
        d="M53.2868 67.5611C53.3447 67.1353 53.4059 66.8717 53.4093 66.6114C53.4366 61.2613 53.3991 55.9078 53.5046 50.5577C53.5659 47.4247 52.7013 44.6905 50.6929 42.2739C50.121 41.5879 49.641 40.7936 49.2665 39.9825C46.7203 34.4498 50.0257 29.2924 56.153 29.2653C63.1893 29.2349 70.2222 29.2451 77.2585 29.2653C81.7485 29.2789 84.2743 31.5365 84.87 36.0113C85.5577 41.1755 85.1968 46.3567 84.9994 51.5277C84.8666 55.0155 84.853 58.4933 85.2649 62.1164C86.5176 61.6196 87.1474 60.6056 87.8452 59.7168C93.336 52.6869 97.6422 44.9676 101.162 36.8089C102.33 34.1017 103.746 31.6649 106.503 30.2759C107.841 29.6033 109.25 29.2552 110.762 29.2586C115.698 29.2755 120.634 29.2248 125.569 29.2721C131.53 29.3329 134.798 33.7198 133.164 39.435C131.455 45.4137 128.153 50.632 124.987 55.8977C121.965 60.9267 118.775 65.8577 115.262 70.5657C114.258 71.9108 114.356 72.7693 115.548 73.9894C121.508 80.0898 127.534 86.1598 132.316 93.2674C134.236 96.1199 136.092 99.013 135.993 102.71C135.877 107.06 133.089 110.369 128.701 110.524C123.037 110.727 117.355 110.653 111.684 110.541C109.203 110.494 107.17 109.145 105.376 107.516C102.353 104.775 99.7562 101.636 96.9852 98.6581C93.9726 95.4203 90.7591 92.4123 87.0418 89.9823C85.5202 88.9887 85.1356 89.1712 85.2002 90.932C85.3194 94.1867 84.8326 97.4143 85.1151 100.699C85.5406 105.641 83.4573 108.463 78.6201 109.818C73.6705 111.204 68.6018 110.92 63.608 109.994C53.2187 108.064 44.688 102.666 37.1037 95.6163C28.7773 87.8767 22.2992 78.7345 16.805 68.8792C12.155 60.5279 8.26755 51.8487 5.76213 42.6018C5.2447 40.6855 4.95876 38.7523 5.00301 36.7616C5.09833 32.6383 7.91692 29.4681 12.0665 29.3431C17.6765 29.1775 23.3001 29.191 28.9134 29.3431C32.195 29.4309 34.4723 31.3675 35.9974 34.1862C37.2398 36.4811 37.9207 38.9956 38.8568 41.4121C42.2064 50.0642 46.2607 58.3513 51.7277 65.9051C52.1192 66.4458 52.4221 67.0711 53.2868 67.5577V67.5611ZM58.0049 37.6234C61.1469 41.7366 62.2566 46.0525 62.2974 50.6523C62.3553 56.9623 62.3213 63.2689 62.3077 69.5788C62.3042 71.4444 62.0966 73.2932 61.3715 75.0405C60.3571 77.484 58.4814 78.7143 55.8433 78.8224C53.2698 78.9238 51.2784 77.6564 49.4776 76.0341C43.9561 71.0524 40.4091 64.6884 36.9982 58.2466C33.7983 52.2036 31.184 45.9072 28.9543 39.4552C28.4947 38.1304 27.7084 37.5896 26.3093 37.6099C22.6226 37.664 18.9326 37.6606 15.246 37.6268C14.0511 37.6167 13.5303 37.9952 13.8707 39.2288C14.1839 40.3678 14.4085 41.5338 14.7558 42.6626C17.9828 53.1297 22.8337 62.8532 28.7704 72.0291C35.1123 81.827 42.5571 90.6447 52.7557 96.7621C59.4346 100.77 66.6547 102.71 74.5182 101.997C76.0058 101.862 76.5981 101.338 76.5572 99.8004C76.4619 96.4241 76.5266 93.041 76.5266 89.6612C76.5266 88.306 76.6151 86.9574 76.9453 85.636C77.8269 82.1278 79.9885 80.4548 83.6411 80.2994C85.864 80.2047 87.9201 80.7151 89.8672 81.7155C94.1598 83.9224 97.6626 87.1399 101.002 90.5197C104.059 93.6155 106.973 96.8499 109.931 100.037C111.354 101.571 113.015 102.362 115.19 102.291C118.591 102.18 121.999 102.271 125.403 102.261C127.35 102.254 127.51 102.004 126.546 100.253C125.454 98.2762 124.15 96.4275 122.73 94.6666C118.472 89.3841 113.781 84.4902 109.049 79.6302C104.447 74.8985 104.199 71.4951 107.773 66.2667C110.608 62.1198 113.447 57.9728 116.13 53.7279C119.051 49.1044 122.005 44.4843 124.112 39.4079C124.759 37.8566 124.627 37.6403 122.945 37.6336C119.599 37.6133 116.246 37.7113 112.903 37.5964C110.969 37.5288 109.945 38.2487 109.175 40.0264C105.101 49.4255 100.141 58.3277 93.6083 66.2937C91.3991 68.9908 88.7813 71.2281 85.4726 72.5158C81.4047 74.1009 77.9155 72.2556 76.8738 68.0377C76.5742 66.821 76.5402 65.584 76.5402 64.3436C76.5334 56.1748 76.5266 48.0094 76.5198 39.8405C76.5198 38.3782 75.7595 37.6448 74.239 37.6403C69.5311 37.6336 64.8199 37.6302 60.112 37.6268C59.5605 37.6268 59.0091 37.6268 58.0151 37.6268L58.0049 37.6234Z"
        fill="white" />

</svg>