<svg xmlns="http://www.w3.org/2000/svg" width="180" height="180" viewBox="0 0 180 180" fill="none">
    <path
        d="M125.988 122.04C136.439 119.444 143.966 109.87 143.966 99.0641C143.966 91.1032 140.07 83.83 133.492 79.417C134.691 77.6261 135.342 75.5065 135.342 73.3377C135.342 67.9574 131.506 63.4688 126.29 62.5696C126.022 53.4903 118.544 46.1907 109.391 46.1907C100.237 46.1907 92.7895 53.5054 92.4983 62.528C92.4907 62.5809 92.4869 62.6338 92.4869 62.6905V113.652C92.3281 114.604 92.2448 115.564 92.2448 116.505C92.2448 126.049 100.018 133.813 109.568 133.813C116.959 133.813 123.631 129 125.988 122.044V122.04Z"
        fill="#D4D4D4" fill-opacity="0.2" />
    <path
        d="M128.416 59.1012C123.635 60.2913 118.748 62.7434 117.341 67.863C116.585 70.6174 117.232 73.4096 117.069 76.2055C116.986 77.6299 116.573 78.9788 115.56 80.0254C115.113 80.4863 113.449 81.6085 113.112 81.4384C110.779 80.2747 108.717 83.7772 111.059 84.9447C113.385 86.1046 116.059 84.956 117.901 83.3767C120.363 81.2684 121.188 78.1815 121.154 75.0493C121.12 72.2194 120.454 69.1552 122.349 66.7409C124.051 64.5721 126.926 63.6578 129.498 63.0193C132.036 62.3883 130.962 58.4702 128.416 59.1049V59.1012Z"
        fill="white" />
    <path
        d="M120.227 67.4284C118.601 66.4612 116.997 65.373 115.163 64.8252C113.419 64.3038 111.69 64.4625 109.928 64.7836C106.883 65.3428 104.511 66.2005 102.457 63.2837C100.963 61.1602 97.4381 63.1892 98.9473 65.3353C101.062 68.339 103.709 69.8768 107.42 69.378C109.05 69.1589 110.673 68.5884 112.318 68.5204C114.523 68.4259 116.373 69.8692 118.173 70.9385C120.428 72.276 122.474 68.766 120.227 67.4322V67.4284Z"
        fill="white" />
    <path
        d="M91.8893 114.124C91.5224 112.16 91.4203 109.938 92.9105 108.408C94.1663 107.116 96.0651 106.53 97.7256 105.959C101.864 104.539 106.319 103.073 108.35 98.8336C109.474 96.4872 105.967 94.4243 104.84 96.7819C102.847 100.942 97.597 101.471 93.7767 103.133C91.8174 103.983 89.9754 105.189 88.8407 107.048C87.3315 109.519 87.4563 112.462 87.9669 115.201C88.4473 117.767 92.3659 116.682 91.8855 114.121L91.8893 114.124Z"
        fill="white" />
    <path
        d="M98.4669 103.296C98.4631 106.409 99.9345 108.884 102.299 110.822C104.405 112.549 107.129 113.849 108.502 116.301C109.78 118.583 113.294 116.535 112.012 114.249C110.703 111.914 108.555 110.407 106.429 108.88C104.424 107.441 102.529 105.96 102.533 103.296C102.533 100.681 98.4707 100.677 98.4669 103.296Z"
        fill="white" />
    <path
        d="M132.422 125.297C130.016 123.457 128.129 120.736 126.57 118.182C125.205 115.949 124.229 113.758 124.021 111.128C123.692 106.987 124.388 100.379 128.889 98.5503C131.279 97.5793 130.235 93.6461 127.807 94.636C121.555 97.1788 119.558 104.475 119.925 110.694C120.333 117.676 124.891 124.617 130.372 128.807C132.448 130.394 134.476 126.869 132.426 125.301L132.422 125.297Z"
        fill="white" />
    <path
        d="M88.088 73.1678C93.7502 76.4587 97.7142 81.7407 98.9435 88.1978C99.4314 90.7633 103.35 89.6751 102.862 87.1172C101.447 79.6815 96.64 73.436 90.138 69.6577C87.8724 68.3429 85.8223 71.8491 88.0842 73.164L88.088 73.1678Z"
        fill="white" />
    <path
        d="M70.4316 133.809C79.986 133.809 87.7551 126.045 87.7551 116.501C87.7551 115.56 87.6757 114.601 87.513 113.648V62.6868C87.513 62.6301 87.5093 62.5772 87.5017 62.5243C87.2105 53.5018 79.6607 46.187 70.6094 46.187C61.5581 46.187 53.9781 53.4867 53.7096 62.5659C48.4936 63.4651 44.6582 67.9538 44.6582 73.334C44.6582 75.5028 45.3088 77.6224 46.5078 79.4133C39.9302 83.8301 36.0343 91.0996 36.0343 99.0604C36.0343 109.866 43.5613 119.444 54.0121 122.036C56.3686 128.992 63.037 133.806 70.4316 133.806V133.809Z"
        fill="#D4D4D4" fill-opacity="0.2" />
    <path
        d="M50.5021 63.0194C53.0136 63.6428 55.771 64.5194 57.4995 66.571C59.5534 69.0118 58.8801 72.1251 58.8461 75.0495C58.812 78.0948 59.5799 81.1061 61.9098 83.2257C63.7519 84.8995 66.5546 86.135 68.9414 84.9448C71.2827 83.7773 69.225 80.2748 66.8875 81.4386C66.5509 81.6048 64.8866 80.4864 64.4403 80.0255C63.5022 79.0545 63.071 77.8114 62.9462 76.489C62.6701 73.5986 63.4455 70.7233 62.6588 67.8632C61.2555 62.7436 56.3686 60.2915 51.5838 59.1013C49.0458 58.4703 47.9603 62.3846 50.5021 63.0156V63.0194Z"
        fill="white" />
    <path
        d="M61.8266 70.9348C63.6422 69.858 65.4691 68.4374 67.6818 68.5167C69.3234 68.5772 70.9536 69.1553 72.58 69.3744C76.2906 69.8731 78.9383 68.3354 81.0527 65.3316C82.5618 63.1893 79.0366 61.1566 77.5426 63.28C75.4925 66.1931 73.1134 65.343 70.0723 64.78C68.3097 64.4551 66.5849 64.3001 64.8374 64.8216C63.0067 65.3656 61.3992 66.4613 59.7728 67.4248C57.526 68.7585 59.5685 72.2723 61.8266 70.9311V70.9348Z"
        fill="white" />
    <path
        d="M92.033 115.205C92.5361 112.511 92.6723 109.625 91.2349 107.172C90.1078 105.249 88.2241 104.006 86.2232 103.137C82.403 101.475 77.153 100.95 75.1597 96.7859C74.0325 94.4282 70.5262 96.4874 71.6496 98.8375C73.6807 103.077 78.1402 104.543 82.2744 105.963C83.9008 106.523 85.724 107.093 86.9911 108.31C88.5797 109.832 88.4889 112.111 88.1107 114.124C87.6341 116.679 91.5527 117.774 92.033 115.205Z"
        fill="white" />
    <path
        d="M77.467 103.296C77.467 105.956 75.5757 107.441 73.5711 108.88C71.4453 110.41 69.2969 111.914 67.9882 114.249C66.7097 116.531 70.2198 118.583 71.4983 116.301C72.8713 113.852 75.5909 112.545 77.7015 110.822C80.0693 108.888 81.5368 106.405 81.5331 103.296C81.5331 100.681 77.4632 100.677 77.467 103.296Z"
        fill="white" />
    <path
        d="M49.6283 128.803C55.109 124.613 59.6669 117.672 60.0754 110.69C60.4385 104.475 58.4414 97.1751 52.1928 94.6323C49.772 93.6462 48.7168 97.5756 51.111 98.5466C55.6121 100.379 56.3081 106.984 55.979 111.125C55.7785 113.652 54.8707 115.772 53.5734 117.933C51.9848 120.578 50.0557 123.396 47.5745 125.293C45.5244 126.861 47.548 130.39 49.6283 128.799V128.803Z"
        fill="white" />
    <path
        d="M89.8582 69.6616C83.3562 73.4398 78.5487 79.6816 77.1341 87.121C76.6499 89.6752 80.5647 90.7709 81.0527 88.2016C82.282 81.7445 86.2459 76.4625 91.9082 73.1716C94.1701 71.8567 92.1238 68.3467 89.8544 69.6653L89.8582 69.6616Z"
        fill="white" />
</svg>