<svg xmlns="http://www.w3.org/2000/svg" width="180" height="180" viewBox="0 0 180 180" fill="none">
    <path
        d="M57.3019 115.26C55.2953 115.26 53.3378 114.255 52.214 112.436L28.9038 74.5491C28.0742 73.202 27.8249 71.6147 28.1968 70.0804C28.5687 68.542 29.5209 67.2437 30.8817 66.4175L32.6594 65.339C35.4588 63.6418 39.1245 64.5209 40.8368 67.3007L64.1511 105.183C64.9807 106.53 65.23 108.118 64.8581 109.652C64.4862 111.19 63.534 112.489 62.1732 113.315L60.3955 114.393C59.431 114.979 58.3603 115.26 57.306 115.26H57.3019ZM35.753 67.3861C35.2136 67.3861 34.67 67.5286 34.1796 67.8257L32.4019 68.9042C31.7113 69.3234 31.2291 69.9827 31.0411 70.7601C30.8531 71.5374 30.9798 72.3392 31.4007 73.0229L54.715 110.905C55.5855 112.318 57.449 112.765 58.8712 111.898L60.6489 110.82C61.3395 110.401 61.8217 109.741 62.0097 108.964C62.1977 108.187 62.071 107.385 61.6501 106.701L38.3358 68.8228C37.7677 67.8989 36.7706 67.3861 35.753 67.3861Z"
        fill="white" />
    <path
        d="M26.8605 65.7948C24.8539 65.7948 22.8964 64.7895 21.7726 62.9703L19.3738 59.0754C18.5483 57.7242 18.2949 56.137 18.6668 54.6026C19.0386 53.0642 19.9908 51.7659 21.3517 50.9397L23.1294 49.8612C25.9287 48.16 29.5945 49.0391 31.3068 51.8188L33.7056 55.7137C34.5352 57.0608 34.7845 58.6481 34.4126 60.1824C34.0407 61.7208 33.0885 63.0191 31.7277 63.8453L29.95 64.9238C28.9856 65.5099 27.9148 65.7907 26.8605 65.7907V65.7948ZM26.2271 51.9083C25.6876 51.9083 25.1441 52.0508 24.6537 52.3479L22.876 53.4264C22.1854 53.8456 21.7031 54.5049 21.5152 55.2823C21.3272 56.0596 21.4539 56.8614 21.8748 57.5451L24.2736 61.44C25.1441 62.8523 27.0076 63.3 28.4298 62.4331L30.2075 61.3545C30.8981 60.9353 31.3803 60.276 31.5683 59.4987C31.7563 58.7213 31.6296 57.9196 31.2087 57.2358L28.8098 53.3409C28.2418 52.4171 27.2446 51.9043 26.2271 51.9043V51.9083Z"
        fill="white" />
    <path d="M33.9948 66.717L31.4965 68.2417L59.2678 113.374L61.7661 111.85L33.9948 66.717Z" fill="white" />
    <path
        d="M66.8728 122.932L52.7248 113.347L64.7396 106.054L66.8769 122.932H66.8728ZM58.1315 113.482L63.158 116.888L62.3979 110.893L58.1315 113.486V113.482Z"
        fill="white" />
    <path
        d="M160.461 121.935C156.415 116.782 149.828 113.921 143.318 115.557C137.265 117.079 133.015 122.761 126.681 123.64C120.163 124.544 117.085 118.048 112.406 114.943C106.575 111.076 99.1451 113.307 93.7875 116.843C91.0086 118.675 88.3645 121.068 85.1442 122.106C82.0384 123.103 79.1001 121.898 76.3211 120.498C72.1282 118.382 68.4176 124.67 72.6268 126.794C75.6182 128.304 78.7077 129.586 82.0915 129.786C85.1565 129.969 88.1438 128.959 90.8165 127.543C95.7164 124.943 100.845 118.874 107.004 120.433C109.255 121.003 110.714 123.237 112.3 124.772C114.813 127.205 117.658 129.383 121.054 130.4C127.551 132.346 133.967 129.277 139.35 125.866C142.034 124.165 144.491 122.11 147.858 122.395C151.001 122.659 153.416 124.723 155.283 127.104C156.501 128.658 159.182 128.377 160.461 127.104C162.002 125.569 161.683 123.506 160.461 121.947V121.935Z"
        fill="#FE5000" />
</svg>