<svg width="180" height="180" viewBox="0 0 180 180" fill="none" xmlns="http://www.w3.org/2000/svg">
    <g clip-path="url(#clip0_2007_541)">
        <path
            d="M148.538 86.7349C148.425 86.4141 148.153 86.1953 147.837 86.1771L124.916 84.7332C124.763 84.7223 124.611 84.715 124.458 84.704C124.498 84.3504 124.534 83.9602 124.56 83.5263C124.698 81.4006 124.807 79.2421 124.916 77.1529C124.97 76.0919 125.025 75.0308 125.083 73.9698C125.242 71.0566 123.543 69.445 120.028 69.1861C118.724 69.0913 117.337 69.1715 115.997 69.2481C114.904 69.3101 113.869 69.372 113.066 69.3173C112.845 69.3028 112.62 69.2918 112.395 69.2772C112.569 69.2298 112.747 69.1824 112.921 69.135C114.748 68.6282 117.068 67.8334 118.8 66.1744C119.196 65.7952 119.748 65.1972 119.977 64.3768C120.155 63.7315 120.097 63.097 120.017 62.5027C119.305 57.0882 117.932 53.0337 115.125 48.0422L115.067 48.075C114.316 45.829 112.409 43.9804 110.067 43.5282C106.519 42.8428 103.302 45.1763 101.196 46.9921C97.6477 50.0439 94.5102 53.5806 91.8702 57.4966C90.581 59.4072 89.3718 61.5 88.2678 63.7169C88.2606 63.7315 87.8793 64.5409 87.6796 65.5071C87.4399 65.416 87.1893 65.354 86.9388 65.3248C85.9946 65.2191 85.1085 65.5144 84.375 65.8316C84.208 64.7269 83.7395 63.7315 83.7286 63.7132C82.6247 61.4964 81.4118 59.4035 80.1263 57.4929C77.4863 53.577 74.3488 50.0402 70.8009 46.9884C68.6911 45.1727 65.4774 42.8391 61.9259 43.5246C59.5836 43.9767 57.6772 45.8253 56.9255 48.0713L56.8674 48.0385C54.0603 53.0337 52.6877 57.0882 51.9759 62.4991C51.8997 63.0934 51.8379 63.7242 52.0159 64.3732C52.2446 65.1936 52.7966 65.7915 53.1924 66.1707C54.9246 67.8261 57.245 68.6209 59.0716 69.1314C59.4093 69.2262 59.7471 69.3173 60.0811 69.4049C59.5982 69.383 59.0934 69.3502 58.5741 69.3101C56.0612 69.1277 52.0812 68.6647 50.4689 70.1523C49.6155 70.9399 49.1725 72.0993 49.1544 73.6016C49.1362 75.0308 49.0854 76.5221 49.0309 77.966C48.9692 79.6979 48.9111 81.4663 48.9038 83.2273C48.6641 83.3221 48.4244 83.4169 48.1848 83.5045C46.311 84.2009 44.085 84.9337 41.7863 85.0577C39.7636 85.1671 38.1804 85.1452 36.9529 84.9848C36.8731 84.9738 36.746 84.9593 36.5898 84.941C34.7378 84.715 32.3193 83.5263 30.569 83.6612C30.8159 83.643 34.2076 89.5862 34.6252 90.206C35.9362 92.1494 36.8186 94.2277 38.1912 96.1018C39.0918 97.3306 43.6782 95.2705 44.8403 94.957C48.9111 93.8485 53.098 92.7036 57.1688 90.7566C56.9073 96.3133 56.6531 102.012 56.526 107.645C56.4352 111.576 56.7367 115.521 57.0272 119.342C57.2777 122.649 57.5392 126.069 57.5392 129.438C57.5755 133.774 62.5214 135.608 67.1405 135.878C74.8935 136.333 82.6683 136.395 89.9673 136.421C93.2464 136.432 96.7907 136.333 101.119 136.104C102.234 136.045 103.451 136.184 104.74 136.33C105.887 136.461 107.057 136.592 108.208 136.592C109.602 136.592 110.978 136.399 112.268 135.768C113.934 134.955 115.133 133.241 115.823 130.678C116.741 127.276 116.647 123.484 116.556 119.816C116.527 118.697 116.502 117.643 116.505 116.611C116.509 114.781 116.458 112.911 116.407 111.098C116.317 107.926 116.226 104.648 116.444 101.527C116.651 98.552 116.734 95.4455 116.694 92.1276C117.867 92.9078 119.116 93.5423 120.478 93.9616C123.14 94.7746 125.918 94.6434 128.601 94.5121C129.371 94.4757 130.17 94.4356 130.944 94.421C135.145 94.3444 138.09 95.2669 139.946 97.2394C140.073 97.3743 140.233 97.4582 140.407 97.4801C140.469 97.4874 140.531 97.4874 140.592 97.4801C140.832 97.4546 141.05 97.3124 141.191 97.0972C143.348 93.772 145.76 90.5998 148.356 87.672C148.578 87.4204 148.65 87.0558 148.541 86.7349H148.538ZM112.939 71.2607C113.862 71.3227 114.955 71.2607 116.113 71.1915C117.391 71.1185 118.713 71.042 119.89 71.1258C122.715 71.3337 123.238 72.3728 123.154 73.8641C123.096 74.9251 123.042 75.9898 122.987 77.0508C122.878 79.1327 122.766 81.2876 122.631 83.3987C122.61 83.756 122.581 84.1644 122.541 84.5436C121.328 84.416 120.126 84.2154 118.989 83.818C115.83 82.7169 113.357 80.2703 110.742 77.6779C109.5 76.4492 108.219 75.1803 106.857 74.0683C105.702 73.1239 104.202 72.0957 102.521 71.1404C103.371 71.0638 104.235 70.9618 105.128 70.8305C107.768 70.9472 110.376 71.0857 112.939 71.2571V71.2607ZM115.093 52.1988C116.691 55.6225 117.584 58.8128 118.103 62.7652C118.158 63.1918 118.198 63.5674 118.118 63.8591C118.041 64.1325 117.834 64.4242 117.468 64.7743C116.048 66.1343 114.018 66.8197 112.409 67.2682C107.293 68.6902 102.851 69.3793 98.8969 69.3611C96.4566 68.3402 93.8856 67.6474 91.5433 67.6547C92.5202 67.4906 93.5224 67.4141 94.5247 67.425C100.048 65.5983 104.689 62.5574 109.922 58.4701C112.162 56.72 114.297 54.7547 115.093 52.2024V52.1988ZM113.451 50.6929C113.146 53.1759 111.004 55.1594 108.734 56.9314C104.456 60.2713 100.604 62.8856 96.3295 64.6722C99.9391 57.8174 106.196 52.2972 113.448 49.6428C113.491 49.9892 113.495 50.3392 113.455 50.6893L113.451 50.6929ZM90 64.592C91.064 62.4517 92.2333 60.4317 93.4752 58.5904C96.0172 54.8167 99.0385 51.4112 102.456 48.4724C105.324 46.004 107.627 45.0414 109.704 45.4425C111.018 45.6977 112.155 46.6202 112.83 47.8052C104.464 50.8533 97.3354 57.4929 93.7004 65.6457H93.704C92.364 66.0832 90.9732 66.4442 89.5025 66.7213C89.4989 66.7213 89.4952 66.7213 89.4916 66.7213C89.4408 66.2619 89.7131 65.1608 89.9964 64.5883L90 64.592ZM85.0831 67.6511C85.6968 67.3813 86.227 67.2062 86.7209 67.2646C87.1349 67.312 87.5379 67.6 87.7958 68.0339C87.8684 68.1542 87.9192 68.2782 87.9592 68.4058C87.912 68.4496 87.872 68.497 87.8357 68.548C86.9424 68.548 86.0454 68.5553 85.1449 68.5626C85.0795 68.2636 85.0577 67.9573 85.0831 67.6511ZM80.7582 72.2379C81.3356 71.804 82.1671 71.1769 82.7736 70.7649C82.1998 75.8293 81.7386 80.9121 81.3973 86.0057C76.5857 86.0859 71.7814 86.1515 67.0752 86.2135C66.0547 86.2281 65.0307 86.2427 64.0103 86.2573C65.4229 84.9994 66.6939 83.6612 67.9394 82.345C69.3557 80.8501 70.8227 79.3041 72.4823 77.8894C74.5086 76.1611 76.8835 74.7391 78.9497 73.5396C79.2984 73.339 79.8648 72.9161 80.7582 72.2415V72.2379ZM62.2926 45.4425C62.5941 45.3841 62.9027 45.355 63.215 45.355C65.0525 45.355 67.0897 46.3649 69.5409 48.4724C72.958 51.4112 75.9793 54.8167 78.5212 58.5904C79.7632 60.4317 80.9288 62.4517 81.9965 64.592C82.2797 65.1644 82.5521 66.2655 82.5012 66.7249C82.4976 66.7249 82.494 66.7249 82.4903 66.7249C81.0814 66.4588 79.6905 66.1233 78.2598 65.6639L78.2925 65.6493C74.6575 57.4929 67.5291 50.857 59.1624 47.8088C59.8378 46.6238 60.9708 45.7013 62.289 45.4461L62.2926 45.4425ZM58.5523 49.6465C65.8114 52.3045 72.0756 57.832 75.6851 64.7013C72.2426 63.2465 68.3679 60.9203 63.2659 56.9314C60.9963 55.1594 58.8537 53.1759 58.5487 50.6929C58.5051 50.3429 58.5124 49.9928 58.556 49.6465H58.5523ZM59.5873 67.2646C57.9786 66.8161 55.9486 66.1306 54.5288 64.7706C54.162 64.4206 53.955 64.1289 53.8824 63.8591C53.8025 63.5674 53.8388 63.1882 53.8969 62.7652C54.4162 58.8165 55.3095 55.6225 56.9073 52.1988C57.7062 54.751 59.8378 56.7163 62.0784 58.4665C68.2808 63.3122 73.6407 66.6921 80.642 68.3147C80.0864 68.4787 79.5162 68.6209 78.9388 68.7486C78.1363 68.8434 77.341 68.9819 76.5603 69.1533C71.7778 69.7367 66.2508 69.1168 59.5909 67.2646H59.5873ZM50.9628 78.0425C51.0136 76.5877 51.0681 75.0855 51.0862 73.6344C51.0971 72.6754 51.3223 72.0082 51.7762 71.5925C52.7712 70.6737 56.3299 71.1076 58.4325 71.2571C59.4711 71.3337 60.546 71.4102 61.5046 71.3555C63.629 71.2352 65.8405 71.1112 68.0702 71.0019C68.88 71.1003 69.668 71.1732 70.4414 71.2243C67.3875 72.5952 64.3843 74.3855 61.2759 76.3325C60.8909 76.5732 60.506 76.8174 60.1211 77.0581C57.1071 78.9541 54.0095 80.8938 50.8429 82.3814C50.8611 80.9303 50.9119 79.4718 50.9628 78.0389V78.0425ZM44.39 93.287C42.6288 93.7683 40.8204 94.2605 39.0047 94.822C38.7505 93.9397 38.0424 92.4083 36.2376 89.5935C35.4859 88.4231 34.7015 87.2782 34.037 86.3484C34.6579 86.4432 35.4278 86.549 36.3828 86.6656C36.5353 86.6839 36.6515 86.6985 36.7314 86.7094C38.0641 86.8844 39.7491 86.9136 41.8807 86.7969C44.4118 86.6584 46.7903 85.8817 48.784 85.1379C53.0435 83.5519 57.1071 80.9996 61.0362 78.5311C61.4211 78.2905 61.806 78.0498 62.191 77.8092C68.3098 73.9808 73.982 70.7612 80.3878 70.3674C80.1844 70.5206 79.9629 70.6846 79.7269 70.8633C79.0587 71.3665 78.3651 71.8879 78.0891 72.0483C75.9575 73.2843 73.5027 74.7574 71.3674 76.5804C69.6389 78.0571 68.1392 79.6359 66.6902 81.1636C64.2463 83.7415 61.9368 86.1771 58.6794 88.0329C54.0676 90.6582 49.365 91.9416 44.3864 93.298L44.39 93.287ZM67.2567 133.934C66.4651 133.887 59.511 133.365 59.4783 129.427C59.4783 125.993 59.2132 122.536 58.9591 119.189C58.6722 115.419 58.3744 111.518 58.4616 107.686C58.5995 101.702 58.8792 95.6278 59.1551 89.732C59.2786 89.6628 59.4057 89.5971 59.5292 89.5242C60.2409 89.1195 60.9091 88.6856 61.5446 88.2335C63.3966 88.208 65.2486 88.1788 67.1006 88.1569C71.7596 88.0949 76.5131 88.0293 81.2775 87.9527C80.3369 103.427 80.4749 118.985 81.7023 134.415C76.9561 134.35 72.0973 134.222 67.2531 133.938L67.2567 133.934ZM89.5533 134.474C87.6142 134.466 85.6424 134.456 83.6451 134.434C82.4104 118.985 83.3546 85.9692 83.3401 85.9692C83.6887 80.8027 84.1608 75.6434 84.749 70.506C86.0999 70.4914 87.4472 70.4841 88.7799 70.4841C89.1466 75.5923 89.4408 80.7188 89.6587 85.8526C89.5679 85.8526 90.2869 118.981 89.5497 134.474H89.5533ZM114.512 101.389C114.287 104.608 114.381 107.934 114.472 111.153C114.523 112.947 114.573 114.803 114.57 116.604C114.57 117.661 114.595 118.73 114.621 119.864C114.708 123.393 114.799 127.039 113.956 130.168C113.419 132.166 112.565 133.46 111.421 134.018C109.569 134.922 107.224 134.656 104.958 134.397C103.865 134.273 102.742 134.146 101.66 134.146C101.442 134.146 101.228 134.149 101.018 134.16C97.3862 134.353 94.3141 134.456 91.4889 134.474C92.2224 118.97 92.2805 103.332 91.6704 87.7668C95.9264 87.7267 100.237 87.909 104.417 88.0913C105.128 88.1205 105.836 88.1533 106.548 88.1824C108.466 88.2627 110.325 88.27 112.184 88.2517C113.005 89.094 113.847 89.9071 114.733 90.6509C114.817 94.4902 114.744 98.027 114.512 101.396V101.389ZM90.7989 71.6837C91.8919 72.3218 93.0177 72.8942 94.1216 73.4557C95.6722 74.2433 97.2773 75.0564 98.7189 76.0262C102.111 78.3014 105.277 80.9631 108.131 83.9347C108.742 84.5691 109.359 85.24 109.958 85.8854C110.092 86.0276 110.223 86.1734 110.357 86.3156C109.126 86.3156 107.888 86.2901 106.628 86.2391C105.92 86.2099 105.208 86.1807 104.5 86.1479C100.273 85.9656 95.9191 85.7833 91.5942 85.8234C91.3908 81.1017 91.1257 76.3872 90.7989 71.6837ZM140.396 95.2815C138.86 93.9725 136.856 93.1558 134.332 92.8203C133.293 92.6818 132.171 92.6234 130.955 92.6453C130.159 92.6599 129.35 92.7 128.569 92.7365C125.892 92.8641 123.369 92.988 120.957 92.2479C117.094 91.0665 114.065 87.785 111.135 84.6129C110.532 83.9602 109.907 83.282 109.286 82.6367C106.352 79.5812 103.095 76.8466 99.6086 74.5094C98.0871 73.4885 96.4384 72.6536 94.8479 71.8441C93.4026 71.1112 91.9246 70.3601 90.552 69.4741C95.3526 68.9491 102.114 72.4457 105.865 75.5048C107.165 76.5659 108.422 77.8092 109.635 79.0124C112.26 81.6121 114.977 84.303 118.466 85.5208C120.54 86.2463 122.704 86.3813 124.796 86.5125L145.996 87.847C144.002 90.2024 142.128 92.6927 140.403 95.2851L140.396 95.2815Z"
            fill="white" stroke="white" stroke-width="2" stroke-miterlimit="10" />
    </g>
    <defs>
        <clipPath id="clip0_2007_541">
            <rect width="119" height="95" fill="white" transform="translate(30.5 42.5)" />
        </clipPath>
    </defs>
</svg>