<svg xmlns="http://www.w3.org/2000/svg" width="49" height="50" viewBox="0 0 49 50" fill="none">
    <g clip-path="url(#clip0_85_836)">
        <path
            d="M23.3054 50C12.2355 50.184 2.11641 42.0709 0.322414 30.1187C-0.876337 22.1813 1.32275 15.1221 6.46498 9.04144C10.4167 4.37433 15.4432 1.50548 21.4287 0.401429C24.6612 -0.192415 27.8854 -0.158959 31.0601 0.761081C31.5726 0.911633 32.1017 1.11237 32.5151 1.43856C32.7796 1.64767 32.9781 2.12441 32.9615 2.4757C32.945 2.96918 32.4572 3.08627 32.0356 3.05282C31.0518 2.96918 30.068 2.87717 29.0842 2.72662C22.9333 1.80658 17.353 3.25355 12.3513 6.91699C7.1429 10.731 3.96827 15.8832 2.83566 22.2817C0.96726 32.8454 7.02715 44.4463 19.0643 46.9387C25.769 48.3272 31.8868 46.6544 37.2522 42.4473C42.4771 38.3489 45.4947 32.9123 46.2801 26.2211C46.7596 22.1646 46.0734 18.3338 44.453 14.6286C44.2546 14.1686 44.0314 13.7169 43.8991 13.2402C43.7255 12.6463 43.9322 12.1278 44.4778 11.8517C44.9986 11.5925 45.5443 11.6594 45.9659 12.1027C46.1809 12.3285 46.3545 12.6045 46.495 12.8889C48.5949 17.2131 49.3555 21.7715 48.8264 26.564C48.2807 31.4988 46.5198 35.9317 43.5023 39.821C39.195 45.3747 33.5733 48.7286 26.6619 49.7992C25.5541 49.9665 24.4132 49.933 23.2888 49.9916L23.3054 50Z"
            fill="white" />
        <path
            d="M23.0739 30.0517C23.388 29.6168 23.6691 29.2823 23.8923 28.9059C26.0997 25.1923 28.2492 21.4452 30.5144 17.7734C32.7548 14.135 35.1027 10.572 37.4258 6.98382C37.7648 6.45689 38.1864 5.96342 38.6246 5.51176C39.0049 5.11865 39.5257 5.03501 39.9969 5.32775C40.5178 5.64558 40.7079 6.18088 40.4682 6.74963C40.2284 7.33511 39.9143 7.88714 39.5753 8.42243C35.6401 14.6954 31.6718 20.9517 27.7531 27.2414C26.6949 28.9393 25.7855 30.7209 24.8017 32.4606C24.7356 32.5777 24.6694 32.6948 24.595 32.8119C23.4459 34.6938 22.2141 34.6938 21.2385 32.7366C19.9571 30.1772 18.7666 27.5676 17.5431 24.9748C16.9974 23.8206 16.4601 22.6663 15.9392 21.5037C15.7326 21.0521 15.5011 20.5837 15.4432 20.0986C15.4019 19.7473 15.5341 19.1451 15.7574 19.0447C16.088 18.8942 16.6667 18.9611 16.9726 19.1702C17.4025 19.4629 17.758 19.9313 18.006 20.3997C18.8245 21.9219 19.6016 23.4609 20.3705 25.0082C21.0815 26.4301 21.7511 27.8771 22.4621 29.3073C22.5778 29.5332 22.7928 29.7088 23.0739 30.0434V30.0517Z"
            fill="white" />
    </g>
    <defs>
        <clipPath id="clip0_85_836">
            <rect width="49" height="50" fill="white" />
        </clipPath>
    </defs>
</svg>