<svg xmlns="http://www.w3.org/2000/svg" width="30" height="30" viewBox="0 0 30 30" fill="none">
    <g clip-path="url(#clip0_83_832)">
        <path
            d="M9.12911 22.8405L24.1454 7.42807C24.1552 7.41818 24.162 7.41306 24.1656 7.41067C24.1806 7.41477 24.2038 7.43523 24.21 7.45024C24.2083 7.45468 24.2044 7.46287 24.1969 7.47412L12.9279 24.3586C12.9256 24.362 12.9237 24.3661 12.9214 24.3695C12.9149 24.3797 12.9084 24.3903 12.9022 24.4012C12.9005 24.404 12.8992 24.4067 12.8979 24.4094C12.8823 24.4381 12.8683 24.4681 12.8569 24.5002C12.8203 24.6032 12.8122 24.7096 12.8278 24.8109L13.1604 29.166L9.12943 22.8408L9.12911 22.8405ZM14.4035 29.9997L14.0697 25.6263L17.1923 26.8363L14.4038 29.9997H14.4035ZM29.9982 0.610354L27.7284 28.921C27.7157 29.0817 27.6348 29.2226 27.5064 29.3082C27.3779 29.3935 27.2224 29.4106 27.078 29.3546L18.4795 26.0227C18.4439 26.0046 18.4074 25.9903 18.3699 25.9804L14.3259 24.4132L25.1613 8.17892C25.5274 7.63071 25.4387 6.91909 24.951 6.4872C24.4633 6.05532 23.7783 6.08158 23.3219 6.54963L8.22472 22.045L0.222806 18.9436C0.0415368 18.8734 0.00763041 18.7072 0.00176199 18.639C-0.00410643 18.5715 -0.000846193 18.4033 0.162165 18.3006L29.1939 0.081243C29.4436 -0.0760233 29.6637 0.0324598 29.7465 0.0867013C29.9212 0.200301 30.0151 0.396117 29.9982 0.610354Z"
            fill="white" />
    </g>
    <defs>
        <clipPath id="clip0_83_832">
            <rect width="30" height="30" fill="white" />
        </clipPath>
    </defs>
</svg>