<svg xmlns="http://www.w3.org/2000/svg" width="53" height="30" viewBox="0 0 53 30" fill="none">
    <g clip-path="url(#clip0_83_829)">
        <path
            d="M25.9333 29.8744H29.0985C29.0985 29.8744 30.0533 29.7674 30.5424 29.2462C30.9939 28.7669 30.9751 27.8641 30.9751 27.8641C30.9751 27.8641 30.914 23.6482 32.8893 23.0247C34.8364 22.4151 37.3338 27.101 39.977 28.9065C41.9758 30.2699 43.4996 29.9721 43.4996 29.9721L50.5779 29.8744C50.5779 29.8744 54.2793 29.6464 52.525 26.7567C52.3839 26.5193 51.4997 24.6208 47.2622 20.7166C42.8224 16.6264 43.4197 17.2918 48.7672 10.2234C52.0218 5.91906 53.3246 3.28993 52.9201 2.16382C52.5344 1.09356 50.1358 1.37276 50.1358 1.37276L42.1733 1.41929C42.1733 1.41929 41.5855 1.34018 41.1434 1.60077C40.7154 1.8567 40.4426 2.44767 40.4426 2.44767C40.4426 2.44767 39.1821 5.77946 37.4984 8.61333C33.9522 14.5929 32.5319 14.9046 31.9487 14.5324C30.5989 13.6668 30.9375 11.0563 30.9375 9.19965C30.9375 3.40626 31.8217 0.991183 29.2114 0.367637C28.3413 0.158237 27.7064 0.0232909 25.4912 2.42908e-05C22.6505 -0.0278957 20.2378 0.009331 18.8786 0.670103C17.9708 1.11217 17.2701 2.09402 17.6981 2.14986C18.2248 2.21966 19.4194 2.46629 20.0496 3.3225C20.868 4.42534 20.8398 6.90091 20.8398 6.90091C20.8398 6.90091 21.3101 13.718 19.7439 14.5696C18.6669 15.1513 17.1948 13.9647 14.0296 8.53888C12.4117 5.76084 11.1842 2.68965 11.1842 2.68965C11.1842 2.68965 10.949 2.11729 10.5304 1.81482C10.0178 1.44256 9.30291 1.32622 9.30291 1.32622L1.73081 1.37276C1.73081 1.37276 0.592641 1.40533 0.178762 1.89393C-0.192788 2.33134 0.150543 3.23409 0.150543 3.23409C0.150543 3.23409 6.08124 16.994 12.7927 23.9321C18.9491 30.2932 25.9427 29.8744 25.9427 29.8744H25.9333Z"
            fill="white" />
    </g>
    <defs>
        <clipPath id="clip0_83_829">
            <rect width="53" height="30" fill="white" />
        </clipPath>
    </defs>
</svg>